<svg width="361" height="140" viewBox="0 0 361 140" fill="none" xmlns="http://www.w3.org/2000/svg"><path d="M304.841 32.168L305.429 29.494H304.295V28.43H305.653L306.129 26.26H304.939V25.196H306.367L307.025 22.228H308.131L307.473 25.196H309.531L310.189 22.228H311.309L310.637 25.196H311.757V26.26H310.427L309.937 28.43H311.127V29.494H309.713L309.125 32.168H308.019L308.607 29.494H306.535L305.961 32.168H304.841ZM306.759 28.43H308.831L309.307 26.26H307.249L306.759 28.43ZM312.724 32V31.594C312.724 31.202 312.798 30.8427 312.948 30.516C313.106 30.18 313.312 29.8767 313.564 29.606C313.825 29.326 314.119 29.06 314.446 28.808C314.772 28.556 315.104 28.3087 315.44 28.066C315.897 27.7487 316.317 27.4313 316.7 27.114C317.092 26.7967 317.404 26.456 317.638 26.092C317.871 25.7187 317.988 25.3033 317.988 24.846C317.988 24.5567 317.918 24.2953 317.778 24.062C317.647 23.8193 317.446 23.628 317.176 23.488C316.905 23.348 316.56 23.278 316.14 23.278C315.645 23.278 315.248 23.362 314.95 23.53C314.651 23.698 314.432 23.922 314.292 24.202C314.161 24.482 314.096 24.79 314.096 25.126V25.7H312.878C312.868 25.6533 312.859 25.5833 312.85 25.49C312.84 25.3873 312.836 25.2707 312.836 25.14C312.836 24.4493 312.99 23.894 313.298 23.474C313.606 23.0447 314.016 22.732 314.53 22.536C315.043 22.3307 315.598 22.228 316.196 22.228C316.728 22.228 317.185 22.3027 317.568 22.452C317.95 22.592 318.268 22.788 318.52 23.04C318.772 23.292 318.958 23.5813 319.08 23.908C319.201 24.2253 319.262 24.5613 319.262 24.916C319.262 25.3547 319.182 25.756 319.024 26.12C318.874 26.484 318.66 26.8247 318.38 27.142C318.109 27.45 317.787 27.7487 317.414 28.038C317.05 28.3273 316.653 28.6213 316.224 28.92C315.925 29.116 315.631 29.326 315.342 29.55C315.052 29.7647 314.805 29.984 314.6 30.208C314.394 30.432 314.264 30.6467 314.208 30.852H319.318V32H312.724ZM324.083 32.168C323.532 32.168 323.038 32.0887 322.599 31.93C322.17 31.7713 321.801 31.5147 321.493 31.16C321.194 30.8053 320.966 30.3293 320.807 29.732C320.648 29.1253 320.569 28.374 320.569 27.478C320.569 26.4887 320.648 25.6627 320.807 25C320.966 24.328 321.19 23.7913 321.479 23.39C321.778 22.9793 322.142 22.6853 322.571 22.508C323.01 22.3213 323.504 22.228 324.055 22.228C324.746 22.228 325.301 22.3587 325.721 22.62C326.15 22.8813 326.463 23.236 326.659 23.684C326.855 24.1227 326.953 24.6267 326.953 25.196H325.693C325.693 24.7667 325.632 24.4073 325.511 24.118C325.39 23.8287 325.198 23.614 324.937 23.474C324.685 23.334 324.368 23.264 323.985 23.264C323.425 23.264 322.986 23.4133 322.669 23.712C322.361 24.0013 322.146 24.426 322.025 24.986C321.913 25.546 321.852 26.2133 321.843 26.988C321.974 26.7733 322.156 26.5773 322.389 26.4C322.632 26.2227 322.916 26.0827 323.243 25.98C323.57 25.868 323.915 25.812 324.279 25.812C324.97 25.812 325.539 25.952 325.987 26.232C326.435 26.5027 326.766 26.876 326.981 27.352C327.196 27.828 327.303 28.36 327.303 28.948C327.303 29.592 327.163 30.1567 326.883 30.642C326.603 31.1273 326.22 31.5053 325.735 31.776C325.25 32.0373 324.699 32.168 324.083 32.168ZM323.999 31.132C324.456 31.132 324.834 31.034 325.133 30.838C325.432 30.6327 325.651 30.3667 325.791 30.04C325.94 29.704 326.015 29.3353 326.015 28.934C326.015 28.5513 325.945 28.2013 325.805 27.884C325.665 27.5667 325.446 27.3147 325.147 27.128C324.858 26.932 324.484 26.834 324.027 26.834C323.57 26.834 323.187 26.932 322.879 27.128C322.571 27.324 322.342 27.5853 322.193 27.912C322.044 28.2293 321.969 28.5933 321.969 29.004C321.969 29.3867 322.044 29.7413 322.193 30.068C322.342 30.3947 322.566 30.656 322.865 30.852C323.164 31.0387 323.542 31.132 323.999 31.132ZM328.524 32V31.594C328.524 31.202 328.599 30.8427 328.748 30.516C328.907 30.18 329.112 29.8767 329.364 29.606C329.626 29.326 329.92 29.06 330.246 28.808C330.573 28.556 330.904 28.3087 331.24 28.066C331.698 27.7487 332.118 27.4313 332.5 27.114C332.892 26.7967 333.205 26.456 333.438 26.092C333.672 25.7187 333.788 25.3033 333.788 24.846C333.788 24.5567 333.718 24.2953 333.578 24.062C333.448 23.8193 333.247 23.628 332.976 23.488C332.706 23.348 332.36 23.278 331.94 23.278C331.446 23.278 331.049 23.362 330.75 23.53C330.452 23.698 330.232 23.922 330.092 24.202C329.962 24.482 329.896 24.79 329.896 25.126V25.7H328.678C328.669 25.6533 328.66 25.5833 328.65 25.49C328.641 25.3873 328.636 25.2707 328.636 25.14C328.636 24.4493 328.79 23.894 329.098 23.474C329.406 23.0447 329.817 22.732 330.33 22.536C330.844 22.3307 331.399 22.228 331.996 22.228C332.528 22.228 332.986 22.3027 333.368 22.452C333.751 22.592 334.068 22.788 334.32 23.04C334.572 23.292 334.759 23.5813 334.88 23.908C335.002 24.2253 335.062 24.5613 335.062 24.916C335.062 25.3547 334.983 25.756 334.824 26.12C334.675 26.484 334.46 26.8247 334.18 27.142C333.91 27.45 333.588 27.7487 333.214 28.038C332.85 28.3273 332.454 28.6213 332.024 28.92C331.726 29.116 331.432 29.326 331.142 29.55C330.853 29.7647 330.606 29.984 330.4 30.208C330.195 30.432 330.064 30.6467 330.008 30.852H335.118V32H328.524ZM339.744 32.168C339.072 32.168 338.484 32.042 337.98 31.79C337.476 31.538 337.084 31.1787 336.804 30.712C336.524 30.236 336.384 29.6713 336.384 29.018H337.63C337.63 29.4567 337.723 29.8347 337.91 30.152C338.096 30.4693 338.348 30.712 338.666 30.88C338.992 31.048 339.352 31.132 339.744 31.132C340.145 31.132 340.5 31.0527 340.808 30.894C341.116 30.726 341.354 30.474 341.522 30.138C341.699 29.802 341.788 29.3773 341.788 28.864C341.788 28.3973 341.708 28.0147 341.55 27.716C341.391 27.408 341.162 27.1793 340.864 27.03C340.574 26.8807 340.238 26.806 339.856 26.806C339.576 26.806 339.31 26.8527 339.058 26.946C338.806 27.03 338.577 27.1513 338.372 27.31C338.176 27.4687 338.012 27.6647 337.882 27.898L336.72 27.716L337.126 22.396H342.572V23.544H338.204L337.98 26.54C338.138 26.4 338.316 26.274 338.512 26.162C338.717 26.0407 338.95 25.9473 339.212 25.882C339.473 25.8073 339.772 25.77 340.108 25.77C340.658 25.77 341.158 25.8773 341.606 26.092C342.054 26.3067 342.408 26.638 342.67 27.086C342.931 27.534 343.062 28.1127 343.062 28.822C343.062 29.522 342.926 30.124 342.656 30.628C342.394 31.132 342.016 31.5147 341.522 31.776C341.027 32.0373 340.434 32.168 339.744 32.168ZM344.298 32V31.594C344.298 31.202 344.372 30.8427 344.522 30.516C344.68 30.18 344.886 29.8767 345.138 29.606C345.399 29.326 345.693 29.06 346.02 28.808C346.346 28.556 346.678 28.3087 347.014 28.066C347.471 27.7487 347.891 27.4313 348.274 27.114C348.666 26.7967 348.978 26.456 349.212 26.092C349.445 25.7187 349.562 25.3033 349.562 24.846C349.562 24.5567 349.492 24.2953 349.352 24.062C349.221 23.8193 349.02 23.628 348.75 23.488C348.479 23.348 348.134 23.278 347.714 23.278C347.219 23.278 346.822 23.362 346.524 23.53C346.225 23.698 346.006 23.922 345.866 24.202C345.735 24.482 345.67 24.79 345.67 25.126V25.7H344.452C344.442 25.6533 344.433 25.5833 344.424 25.49C344.414 25.3873 344.41 25.2707 344.41 25.14C344.41 24.4493 344.564 23.894 344.872 23.474C345.18 23.0447 345.59 22.732 346.104 22.536C346.617 22.3307 347.172 22.228 347.77 22.228C348.302 22.228 348.759 22.3027 349.142 22.452C349.524 22.592 349.842 22.788 350.094 23.04C350.346 23.292 350.532 23.5813 350.654 23.908C350.775 24.2253 350.836 24.5613 350.836 24.916C350.836 25.3547 350.756 25.756 350.598 26.12C350.448 26.484 350.234 26.8247 349.954 27.142C349.683 27.45 349.361 27.7487 348.988 28.038C348.624 28.3273 348.227 28.6213 347.798 28.92C347.499 29.116 347.205 29.326 346.916 29.55C346.626 29.7647 346.379 29.984 346.174 30.208C345.968 30.432 345.838 30.6467 345.782 30.852H350.892V32H344.298ZM351.555 32L355.349 22.396H357.099L360.907 32H359.465L358.527 29.62H353.851L352.927 32H351.555ZM354.285 28.486H358.079L356.917 25.476C356.889 25.392 356.847 25.2753 356.791 25.126C356.735 24.9767 356.674 24.8133 356.609 24.636C356.544 24.4493 356.478 24.2627 356.413 24.076C356.348 23.88 356.287 23.7027 356.231 23.544H356.147C356.082 23.7307 356.007 23.9453 355.923 24.188C355.839 24.4307 355.755 24.6687 355.671 24.902C355.587 25.126 355.517 25.3173 355.461 25.476L354.285 28.486ZM332.29 52V50.95H334.712V44.3H332.276V43.516C332.621 43.488 332.976 43.4367 333.34 43.362C333.713 43.2873 334.077 43.1707 334.432 43.012C334.786 42.844 335.108 42.6293 335.398 42.368H335.958V50.95H338.24V52H332.29ZM343.426 52V49.648H338.96V48.612C339.352 47.94 339.707 47.2633 340.024 46.582C340.351 45.9007 340.64 45.2007 340.892 44.482C341.154 43.7633 341.368 43.012 341.536 42.228H342.852C342.731 42.7413 342.582 43.2687 342.404 43.81C342.227 44.342 342.031 44.86 341.816 45.364C341.602 45.868 341.387 46.3393 341.172 46.778C340.967 47.2167 340.771 47.5947 340.584 47.912C340.407 48.2293 340.262 48.4627 340.15 48.612H343.426V45.56C343.482 45.4107 343.538 45.2567 343.594 45.098C343.66 44.93 343.72 44.762 343.776 44.594C343.832 44.4167 343.884 44.2533 343.93 44.104C343.977 43.9453 344.014 43.796 344.042 43.656H344.658V48.612H345.932V49.648H344.658V52H343.426ZM347.216 54.422V44.636H348.196L348.322 45.686H348.42C348.672 45.2753 348.994 44.972 349.386 44.776C349.778 44.5707 350.221 44.468 350.716 44.468C351.332 44.468 351.855 44.6033 352.284 44.874C352.713 45.1447 353.045 45.5693 353.278 46.148C353.511 46.7173 353.628 47.4593 353.628 48.374C353.628 49.2327 353.507 49.9467 353.264 50.516C353.031 51.076 352.699 51.4913 352.27 51.762C351.841 52.0327 351.341 52.168 350.772 52.168C350.455 52.168 350.156 52.1307 349.876 52.056C349.596 51.9813 349.344 51.8647 349.12 51.706C348.896 51.538 348.7 51.328 348.532 51.076H348.448V54.422H347.216ZM350.38 51.09C350.837 51.09 351.211 51.0013 351.5 50.824C351.789 50.6373 352.004 50.3527 352.144 49.97C352.284 49.578 352.354 49.0787 352.354 48.472V48.178C352.354 47.534 352.279 47.0207 352.13 46.638C351.981 46.246 351.761 45.966 351.472 45.798C351.192 45.63 350.842 45.546 350.422 45.546C349.965 45.546 349.587 45.6487 349.288 45.854C348.999 46.05 348.784 46.3487 348.644 46.75C348.513 47.1513 348.448 47.6413 348.448 48.22V48.43C348.448 48.9433 348.495 49.3727 348.588 49.718C348.691 50.054 348.831 50.3247 349.008 50.53C349.195 50.7353 349.405 50.88 349.638 50.964C349.871 51.048 350.119 51.09 350.38 51.09ZM354.018 52L356.664 48.234L354.144 44.636H355.628L357.42 47.268H357.49L359.282 44.636H360.682L358.162 48.192L360.822 52H359.352L357.42 49.158H357.35L355.418 52H354.018Z" fill="#272433"/><path d="M0.882 15.168L1.47 12.494H0.336V11.43H1.694L2.17 9.26H0.98V8.196H2.408L3.066 5.228H4.172L3.514 8.196H5.572L6.23 5.228H7.35L6.678 8.196H7.798V9.26H6.468L5.978 11.43H7.168V12.494H5.754L5.166 15.168H4.06L4.648 12.494H2.576L2.002 15.168H0.882ZM2.8 11.43H4.872L5.348 9.26H3.29L2.8 11.43ZM12.2644 15.168C11.7138 15.168 11.2191 15.0887 10.7804 14.93C10.3511 14.7713 9.98244 14.5147 9.67444 14.16C9.37577 13.8053 9.1471 13.3293 8.98844 12.732C8.82977 12.1253 8.75044 11.374 8.75044 10.478C8.75044 9.48867 8.82977 8.66267 8.98844 8C9.1471 7.328 9.3711 6.79133 9.66044 6.39C9.9591 5.97933 10.3231 5.68533 10.7524 5.508C11.1911 5.32133 11.6858 5.228 12.2364 5.228C12.9271 5.228 13.4824 5.35867 13.9024 5.62C14.3318 5.88133 14.6444 6.236 14.8404 6.684C15.0364 7.12267 15.1344 7.62667 15.1344 8.196H13.8744C13.8744 7.76667 13.8138 7.40733 13.6924 7.118C13.5711 6.82867 13.3798 6.614 13.1184 6.474C12.8664 6.334 12.5491 6.264 12.1664 6.264C11.6064 6.264 11.1678 6.41333 10.8504 6.712C10.5424 7.00133 10.3278 7.426 10.2064 7.986C10.0944 8.546 10.0338 9.21333 10.0244 9.988C10.1551 9.77333 10.3371 9.57733 10.5704 9.4C10.8131 9.22267 11.0978 9.08267 11.4244 8.98C11.7511 8.868 12.0964 8.812 12.4604 8.812C13.1511 8.812 13.7204 8.952 14.1684 9.232C14.6164 9.50267 14.9478 9.876 15.1624 10.352C15.3771 10.828 15.4844 11.36 15.4844 11.948C15.4844 12.592 15.3444 13.1567 15.0644 13.642C14.7844 14.1273 14.4018 14.5053 13.9164 14.776C13.4311 15.0373 12.8804 15.168 12.2644 15.168ZM12.1804 14.132C12.6378 14.132 13.0158 14.034 13.3144 13.838C13.6131 13.6327 13.8324 13.3667 13.9724 13.04C14.1218 12.704 14.1964 12.3353 14.1964 11.934C14.1964 11.5513 14.1264 11.2013 13.9864 10.884C13.8464 10.5667 13.6271 10.3147 13.3284 10.128C13.0391 9.932 12.6658 9.834 12.2084 9.834C11.7511 9.834 11.3684 9.932 11.0604 10.128C10.7524 10.324 10.5238 10.5853 10.3744 10.912C10.2251 11.2293 10.1504 11.5933 10.1504 12.004C10.1504 12.3867 10.2251 12.7413 10.3744 13.068C10.5238 13.3947 10.7478 13.656 11.0464 13.852C11.3451 14.0387 11.7231 14.132 12.1804 14.132ZM21.3118 15.168C20.3318 15.168 19.5012 14.9907 18.8198 14.636C18.1385 14.272 17.6158 13.726 17.2518 12.998C16.8972 12.2607 16.7198 11.3273 16.7198 10.198C16.7198 8.52733 17.1258 7.28133 17.9378 6.46C18.7498 5.63867 19.8792 5.228 21.3258 5.228C22.1472 5.228 22.8752 5.36333 23.5098 5.634C24.1445 5.89533 24.6392 6.29667 24.9938 6.838C25.3578 7.37 25.5398 8.042 25.5398 8.854H24.1958C24.1958 8.294 24.0745 7.832 23.8318 7.468C23.5985 7.104 23.2672 6.83333 22.8378 6.656C22.4085 6.46933 21.9045 6.376 21.3258 6.376C20.6538 6.376 20.0752 6.50667 19.5898 6.768C19.1045 7.02933 18.7358 7.43533 18.4838 7.986C18.2318 8.52733 18.1058 9.22733 18.1058 10.086V10.38C18.1058 11.2293 18.2318 11.9247 18.4838 12.466C18.7358 12.998 19.0998 13.39 19.5758 13.642C20.0612 13.894 20.6445 14.02 21.3258 14.02C21.9232 14.02 22.4365 13.9313 22.8658 13.754C23.3045 13.5767 23.6405 13.306 23.8738 12.942C24.1165 12.5687 24.2378 12.102 24.2378 11.542H25.5398C25.5398 12.3727 25.3532 13.054 24.9798 13.586C24.6158 14.118 24.1165 14.5147 23.4818 14.776C22.8472 15.0373 22.1238 15.168 21.3118 15.168ZM30.3074 15.168C29.7567 15.168 29.262 15.0887 28.8234 14.93C28.394 14.7713 28.0254 14.5147 27.7174 14.16C27.4187 13.8053 27.19 13.3293 27.0314 12.732C26.8727 12.1253 26.7934 11.374 26.7934 10.478C26.7934 9.48867 26.8727 8.66267 27.0314 8C27.19 7.328 27.414 6.79133 27.7034 6.39C28.002 5.97933 28.366 5.68533 28.7954 5.508C29.234 5.32133 29.7287 5.228 30.2794 5.228C30.97 5.228 31.5254 5.35867 31.9454 5.62C32.3747 5.88133 32.6874 6.236 32.8834 6.684C33.0794 7.12267 33.1774 7.62667 33.1774 8.196H31.9174C31.9174 7.76667 31.8567 7.40733 31.7354 7.118C31.614 6.82867 31.4227 6.614 31.1614 6.474C30.9094 6.334 30.592 6.264 30.2094 6.264C29.6494 6.264 29.2107 6.41333 28.8934 6.712C28.5854 7.00133 28.3707 7.426 28.2494 7.986C28.1374 8.546 28.0767 9.21333 28.0674 9.988C28.198 9.77333 28.38 9.57733 28.6134 9.4C28.856 9.22267 29.1407 9.08267 29.4674 8.98C29.794 8.868 30.1394 8.812 30.5034 8.812C31.194 8.812 31.7634 8.952 32.2114 9.232C32.6594 9.50267 32.9907 9.876 33.2054 10.352C33.42 10.828 33.5274 11.36 33.5274 11.948C33.5274 12.592 33.3874 13.1567 33.1074 13.642C32.8274 14.1273 32.4447 14.5053 31.9594 14.776C31.474 15.0373 30.9234 15.168 30.3074 15.168ZM30.2234 14.132C30.6807 14.132 31.0587 14.034 31.3574 13.838C31.656 13.6327 31.8754 13.3667 32.0154 13.04C32.1647 12.704 32.2394 12.3353 32.2394 11.934C32.2394 11.5513 32.1694 11.2013 32.0294 10.884C31.8894 10.5667 31.67 10.3147 31.3714 10.128C31.082 9.932 30.7087 9.834 30.2514 9.834C29.794 9.834 29.4114 9.932 29.1034 10.128C28.7954 10.324 28.5667 10.5853 28.4174 10.912C28.268 11.2293 28.1934 11.5933 28.1934 12.004C28.1934 12.3867 28.268 12.7413 28.4174 13.068C28.5667 13.3947 28.7907 13.656 29.0894 13.852C29.388 14.0387 29.766 14.132 30.2234 14.132ZM38.0668 15.168C37.2734 15.168 36.6294 15.042 36.1348 14.79C35.6401 14.538 35.2761 14.202 35.0428 13.782C34.8188 13.362 34.7068 12.8953 34.7068 12.382C34.7068 11.8593 34.8374 11.3973 35.0988 10.996C35.3601 10.5947 35.7708 10.2867 36.3308 10.072C35.8828 9.83867 35.5421 9.53067 35.3088 9.148C35.0848 8.76533 34.9728 8.34067 34.9728 7.874C34.9728 7.37933 35.0848 6.936 35.3088 6.544C35.5421 6.14267 35.8874 5.82533 36.3448 5.592C36.8114 5.34933 37.3854 5.228 38.0668 5.228C38.7481 5.228 39.3174 5.34933 39.7748 5.592C40.2321 5.82533 40.5774 6.14267 40.8108 6.544C41.0441 6.936 41.1608 7.37933 41.1608 7.874C41.1608 8.34067 41.0441 8.76533 40.8108 9.148C40.5774 9.53067 40.2368 9.83867 39.7888 10.072C40.3581 10.2867 40.7688 10.5947 41.0208 10.996C41.2821 11.3973 41.4128 11.8593 41.4128 12.382C41.4128 12.8953 41.2961 13.362 41.0628 13.782C40.8388 14.202 40.4794 14.538 39.9848 14.79C39.4994 15.042 38.8601 15.168 38.0668 15.168ZM38.0668 14.146C38.7481 14.146 39.2614 13.9873 39.6068 13.67C39.9521 13.3527 40.1248 12.9187 40.1248 12.368C40.1248 11.8267 39.9521 11.3973 39.6068 11.08C39.2614 10.7627 38.7481 10.604 38.0668 10.604C37.3854 10.604 36.8674 10.7627 36.5128 11.08C36.1674 11.3973 35.9948 11.8267 35.9948 12.368C35.9948 12.9187 36.1674 13.3527 36.5128 13.67C36.8674 13.9873 37.3854 14.146 38.0668 14.146ZM38.0668 9.582C38.6361 9.582 39.0841 9.43733 39.4108 9.148C39.7374 8.84933 39.9008 8.434 39.9008 7.902C39.9008 7.37933 39.7374 6.97333 39.4108 6.684C39.0841 6.39467 38.6361 6.25 38.0668 6.25C37.4974 6.25 37.0494 6.39467 36.7228 6.684C36.3961 6.97333 36.2328 7.37933 36.2328 7.902C36.2328 8.434 36.3961 8.84933 36.7228 9.148C37.0494 9.43733 37.4974 9.582 38.0668 9.582ZM46.2038 15.168C45.6532 15.168 45.1585 15.0887 44.7198 14.93C44.2905 14.7713 43.9218 14.5147 43.6138 14.16C43.3152 13.8053 43.0865 13.3293 42.9278 12.732C42.7692 12.1253 42.6898 11.374 42.6898 10.478C42.6898 9.48867 42.7692 8.66267 42.9278 8C43.0865 7.328 43.3105 6.79133 43.5998 6.39C43.8985 5.97933 44.2625 5.68533 44.6918 5.508C45.1305 5.32133 45.6252 5.228 46.1758 5.228C46.8665 5.228 47.4218 5.35867 47.8418 5.62C48.2712 5.88133 48.5838 6.236 48.7798 6.684C48.9758 7.12267 49.0738 7.62667 49.0738 8.196H47.8138C47.8138 7.76667 47.7532 7.40733 47.6318 7.118C47.5105 6.82867 47.3192 6.614 47.0578 6.474C46.8058 6.334 46.4885 6.264 46.1058 6.264C45.5458 6.264 45.1072 6.41333 44.7898 6.712C44.4818 7.00133 44.2672 7.426 44.1458 7.986C44.0338 8.546 43.9732 9.21333 43.9638 9.988C44.0945 9.77333 44.2765 9.57733 44.5098 9.4C44.7525 9.22267 45.0372 9.08267 45.3638 8.98C45.6905 8.868 46.0358 8.812 46.3998 8.812C47.0905 8.812 47.6598 8.952 48.1078 9.232C48.5558 9.50267 48.8872 9.876 49.1018 10.352C49.3165 10.828 49.4238 11.36 49.4238 11.948C49.4238 12.592 49.2838 13.1567 49.0038 13.642C48.7238 14.1273 48.3412 14.5053 47.8558 14.776C47.3705 15.0373 46.8198 15.168 46.2038 15.168ZM46.1198 14.132C46.5772 14.132 46.9552 14.034 47.2538 13.838C47.5525 13.6327 47.7718 13.3667 47.9118 13.04C48.0612 12.704 48.1358 12.3353 48.1358 11.934C48.1358 11.5513 48.0658 11.2013 47.9258 10.884C47.7858 10.5667 47.5665 10.3147 47.2678 10.128C46.9785 9.932 46.6052 9.834 46.1478 9.834C45.6905 9.834 45.3078 9.932 44.9998 10.128C44.6918 10.324 44.4632 10.5853 44.3138 10.912C44.1645 11.2293 44.0898 11.5933 44.0898 12.004C44.0898 12.3867 44.1645 12.7413 44.3138 13.068C44.4632 13.3947 44.6872 13.656 44.9858 13.852C45.2845 14.0387 45.6625 14.132 46.1198 14.132ZM50.6452 15V14.594C50.6452 14.202 50.7199 13.8427 50.8692 13.516C51.0279 13.18 51.2332 12.8767 51.4852 12.606C51.7466 12.326 52.0406 12.06 52.3672 11.808C52.6939 11.556 53.0252 11.3087 53.3612 11.066C53.8186 10.7487 54.2386 10.4313 54.6212 10.114C55.0132 9.79667 55.3259 9.456 55.5592 9.092C55.7926 8.71867 55.9092 8.30333 55.9092 7.846C55.9092 7.55667 55.8392 7.29533 55.6992 7.062C55.5686 6.81933 55.3679 6.628 55.0972 6.488C54.8266 6.348 54.4812 6.278 54.0612 6.278C53.5666 6.278 53.1699 6.362 52.8712 6.53C52.5726 6.698 52.3532 6.922 52.2132 7.202C52.0826 7.482 52.0172 7.79 52.0172 8.126V8.7H50.7992C50.7899 8.65333 50.7806 8.58333 50.7712 8.49C50.7619 8.38733 50.7572 8.27067 50.7572 8.14C50.7572 7.44933 50.9112 6.894 51.2192 6.474C51.5272 6.04467 51.9379 5.732 52.4512 5.536C52.9646 5.33067 53.5199 5.228 54.1172 5.228C54.6492 5.228 55.1066 5.30267 55.4892 5.452C55.8719 5.592 56.1892 5.788 56.4412 6.04C56.6932 6.292 56.8799 6.58133 57.0012 6.908C57.1226 7.22533 57.1832 7.56133 57.1832 7.916C57.1832 8.35467 57.1039 8.756 56.9452 9.12C56.7959 9.484 56.5812 9.82467 56.3012 10.142C56.0306 10.45 55.7086 10.7487 55.3352 11.038C54.9712 11.3273 54.5746 11.6213 54.1452 11.92C53.8466 12.116 53.5526 12.326 53.2632 12.55C52.9739 12.7647 52.7266 12.984 52.5212 13.208C52.3159 13.432 52.1852 13.6467 52.1292 13.852H57.2392V15H50.6452ZM0.938 35V33.95H3.36V27.3H0.924V26.516C1.26933 26.488 1.624 26.4367 1.988 26.362C2.36133 26.2873 2.72533 26.1707 3.08 26.012C3.43467 25.844 3.75667 25.6293 4.046 25.368H4.606V33.95H6.888V35H0.938ZM11.2348 35.168C10.4414 35.168 9.79745 35.042 9.30278 34.79C8.80811 34.538 8.44411 34.202 8.21078 33.782C7.98678 33.362 7.87478 32.8953 7.87478 32.382C7.87478 31.8593 8.00545 31.3973 8.26678 30.996C8.52811 30.5947 8.93878 30.2867 9.49878 30.072C9.05078 29.8387 8.71011 29.5307 8.47678 29.148C8.25278 28.7653 8.14078 28.3407 8.14078 27.874C8.14078 27.3793 8.25278 26.936 8.47678 26.544C8.71011 26.1427 9.05545 25.8253 9.51278 25.592C9.97945 25.3493 10.5534 25.228 11.2348 25.228C11.9161 25.228 12.4854 25.3493 12.9428 25.592C13.4001 25.8253 13.7454 26.1427 13.9788 26.544C14.2121 26.936 14.3288 27.3793 14.3288 27.874C14.3288 28.3407 14.2121 28.7653 13.9788 29.148C13.7454 29.5307 13.4048 29.8387 12.9568 30.072C13.5261 30.2867 13.9368 30.5947 14.1888 30.996C14.4501 31.3973 14.5808 31.8593 14.5808 32.382C14.5808 32.8953 14.4641 33.362 14.2308 33.782C14.0068 34.202 13.6474 34.538 13.1528 34.79C12.6674 35.042 12.0281 35.168 11.2348 35.168ZM11.2348 34.146C11.9161 34.146 12.4294 33.9873 12.7748 33.67C13.1201 33.3527 13.2928 32.9187 13.2928 32.368C13.2928 31.8267 13.1201 31.3973 12.7748 31.08C12.4294 30.7627 11.9161 30.604 11.2348 30.604C10.5534 30.604 10.0354 30.7627 9.68078 31.08C9.33545 31.3973 9.16278 31.8267 9.16278 32.368C9.16278 32.9187 9.33545 33.3527 9.68078 33.67C10.0354 33.9873 10.5534 34.146 11.2348 34.146ZM11.2348 29.582C11.8041 29.582 12.2521 29.4373 12.5788 29.148C12.9054 28.8493 13.0688 28.434 13.0688 27.902C13.0688 27.3793 12.9054 26.9733 12.5788 26.684C12.2521 26.3947 11.8041 26.25 11.2348 26.25C10.6654 26.25 10.2174 26.3947 9.89078 26.684C9.56411 26.9733 9.40078 27.3793 9.40078 27.902C9.40078 28.434 9.56411 28.8493 9.89078 29.148C10.2174 29.4373 10.6654 29.582 11.2348 29.582ZM16.1378 37.422V27.636H17.1178L17.2438 28.686H17.3418C17.5938 28.2753 17.9158 27.972 18.3078 27.776C18.6998 27.5707 19.1432 27.468 19.6378 27.468C20.2538 27.468 20.7765 27.6033 21.2058 27.874C21.6352 28.1447 21.9665 28.5693 22.1998 29.148C22.4332 29.7173 22.5498 30.4593 22.5498 31.374C22.5498 32.2327 22.4285 32.9467 22.1858 33.516C21.9525 34.076 21.6212 34.4913 21.1918 34.762C20.7625 35.0327 20.2632 35.168 19.6938 35.168C19.3765 35.168 19.0778 35.1307 18.7978 35.056C18.5178 34.9813 18.2658 34.8647 18.0418 34.706C17.8178 34.538 17.6218 34.328 17.4538 34.076H17.3698V37.422H16.1378ZM19.3018 34.09C19.7592 34.09 20.1325 34.0013 20.4218 33.824C20.7112 33.6373 20.9258 33.3527 21.0658 32.97C21.2058 32.578 21.2758 32.0787 21.2758 31.472V31.178C21.2758 30.534 21.2012 30.0207 21.0518 29.638C20.9025 29.246 20.6832 28.966 20.3938 28.798C20.1138 28.63 19.7638 28.546 19.3438 28.546C18.8865 28.546 18.5085 28.6487 18.2098 28.854C17.9205 29.05 17.7058 29.3487 17.5658 29.75C17.4352 30.1513 17.3698 30.6413 17.3698 31.22V31.43C17.3698 31.9433 17.4165 32.3727 17.5098 32.718C17.6125 33.054 17.7525 33.3247 17.9298 33.53C18.1165 33.7353 18.3265 33.88 18.5598 33.964C18.7932 34.048 19.0405 34.09 19.3018 34.09ZM22.9401 35L25.5861 31.234L23.0661 27.636H24.5501L26.3421 30.268H26.4121L28.2041 27.636H29.6041L27.0841 31.192L29.7441 35H28.2741L26.3421 32.158H26.2721L24.3401 35H22.9401ZM33.6456 35V24.878H34.8776V28.56H34.9756C35.1623 28.308 35.3723 28.1027 35.6056 27.944C35.8389 27.7853 36.0956 27.6687 36.3756 27.594C36.6649 27.51 36.9776 27.468 37.3136 27.468C37.7803 27.468 38.1863 27.5473 38.5316 27.706C38.8863 27.8647 39.1616 28.1213 39.3576 28.476C39.5629 28.8307 39.6656 29.3113 39.6656 29.918V35H38.4336V30.086C38.4336 29.778 38.3916 29.526 38.3076 29.33C38.2329 29.134 38.1256 28.98 37.9856 28.868C37.8549 28.756 37.6916 28.6767 37.4956 28.63C37.3089 28.5833 37.0989 28.56 36.8656 28.56C36.5203 28.56 36.1936 28.644 35.8856 28.812C35.5776 28.9707 35.3303 29.2087 35.1436 29.526C34.9663 29.834 34.8776 30.2167 34.8776 30.674V35H33.6456ZM44.3903 35.168C43.6623 35.168 43.0463 35.0327 42.5423 34.762C42.0476 34.482 41.6696 34.0573 41.4083 33.488C41.1563 32.9187 41.0303 32.1953 41.0303 31.318C41.0303 30.4313 41.1563 29.708 41.4083 29.148C41.6696 28.5787 42.0523 28.1587 42.5563 27.888C43.0603 27.608 43.6903 27.468 44.4463 27.468C45.1369 27.468 45.7156 27.6033 46.1823 27.874C46.6489 28.1353 46.9989 28.532 47.2323 29.064C47.4749 29.5867 47.5963 30.2447 47.5963 31.038V31.626H42.3043C42.3229 32.214 42.4069 32.6993 42.5563 33.082C42.7149 33.4553 42.9483 33.7307 43.2563 33.908C43.5643 34.076 43.9516 34.16 44.4183 34.16C44.7356 34.16 45.0109 34.1227 45.2443 34.048C45.4869 33.964 45.6876 33.8473 45.8463 33.698C46.0143 33.5487 46.1403 33.3713 46.2243 33.166C46.3083 32.9607 46.3549 32.7367 46.3643 32.494H47.5683C47.5589 32.886 47.4843 33.25 47.3443 33.586C47.2043 33.9127 46.9989 34.1927 46.7283 34.426C46.4576 34.6593 46.1263 34.8413 45.7343 34.972C45.3423 35.1027 44.8943 35.168 44.3903 35.168ZM42.3323 30.702H46.3223C46.3223 30.2913 46.2756 29.946 46.1823 29.666C46.0889 29.386 45.9536 29.1573 45.7763 28.98C45.6083 28.8027 45.4076 28.6767 45.1743 28.602C44.9503 28.518 44.6936 28.476 44.4043 28.476C43.9749 28.476 43.6109 28.5553 43.3123 28.714C43.0136 28.8727 42.7849 29.1153 42.6263 29.442C42.4676 29.7687 42.3696 30.1887 42.3323 30.702ZM49.0362 26.25V24.878H50.2682V26.25H49.0362ZM49.0362 35V27.636H50.2682V35H49.0362ZM53.3427 37.548C52.9881 37.548 52.6614 37.4733 52.3627 37.324C52.0641 37.184 51.8261 36.9787 51.6487 36.708C51.4714 36.4373 51.3827 36.1153 51.3827 35.742C51.3827 35.3313 51.4947 34.9907 51.7187 34.72C51.9521 34.4493 52.2274 34.2487 52.5447 34.118C52.3114 34.006 52.1294 33.852 51.9987 33.656C51.8681 33.4507 51.8027 33.2267 51.8027 32.984C51.8027 32.6573 51.9194 32.382 52.1527 32.158C52.3954 31.934 52.6894 31.7847 53.0347 31.71C52.7174 31.5047 52.4654 31.2433 52.2787 30.926C52.1014 30.5993 52.0127 30.24 52.0127 29.848C52.0127 29.3813 52.1201 28.9707 52.3347 28.616C52.5587 28.2613 52.8947 27.9813 53.3427 27.776C53.8001 27.5707 54.3554 27.468 55.0087 27.468C55.3074 27.468 55.5874 27.4913 55.8487 27.538C56.1101 27.5753 56.3434 27.6407 56.5487 27.734C56.8754 27.5847 57.1181 27.3933 57.2767 27.16C57.4447 26.9267 57.5474 26.6887 57.5847 26.446H58.8027C58.8027 26.726 58.7374 26.992 58.6067 27.244C58.4854 27.4867 58.3174 27.692 58.1027 27.86C57.8881 28.0187 57.6267 28.126 57.3187 28.182C57.5521 28.406 57.7247 28.658 57.8367 28.938C57.9581 29.218 58.0187 29.5213 58.0187 29.848C58.0187 30.3147 57.9067 30.73 57.6827 31.094C57.4681 31.4487 57.1414 31.7287 56.7027 31.934C56.2641 32.1393 55.7134 32.242 55.0507 32.242H53.9027C53.6507 32.242 53.4454 32.2933 53.2867 32.396C53.1281 32.4893 53.0487 32.6433 53.0487 32.858C53.0487 33.0447 53.1281 33.1987 53.2867 33.32C53.4454 33.432 53.6507 33.488 53.9027 33.488H56.8987C57.4401 33.488 57.8834 33.67 58.2287 34.034C58.5741 34.3887 58.7467 34.846 58.7467 35.406C58.7467 35.8073 58.6441 36.1667 58.4387 36.484C58.2427 36.8107 57.9627 37.0673 57.5987 37.254C57.2441 37.45 56.8287 37.548 56.3527 37.548H53.3427ZM53.6927 36.61H56.3387C56.5534 36.61 56.7494 36.5633 56.9267 36.47C57.1041 36.386 57.2441 36.2647 57.3467 36.106C57.4494 35.9473 57.5007 35.7747 57.5007 35.588C57.5007 35.2707 57.4074 35.0187 57.2207 34.832C57.0341 34.6453 56.8007 34.552 56.5207 34.552H53.6927C53.3941 34.552 53.1421 34.6547 52.9367 34.86C52.7314 35.056 52.6287 35.2987 52.6287 35.588C52.6287 35.896 52.7314 36.1433 52.9367 36.33C53.1421 36.5167 53.3941 36.61 53.6927 36.61ZM55.0227 31.318C55.6201 31.318 56.0634 31.1873 56.3527 30.926C56.6421 30.6647 56.7867 30.3053 56.7867 29.848C56.7867 29.4 56.6421 29.0453 56.3527 28.784C56.0634 28.5227 55.6201 28.392 55.0227 28.392C54.4254 28.392 53.9774 28.5227 53.6787 28.784C53.3894 29.0453 53.2447 29.4 53.2447 29.848C53.2447 30.1373 53.3101 30.394 53.4407 30.618C53.5714 30.842 53.7674 31.0147 54.0287 31.136C54.2901 31.2573 54.6214 31.318 55.0227 31.318ZM59.792 35V24.878H61.024V28.56H61.122C61.3087 28.308 61.5187 28.1027 61.752 27.944C61.9854 27.7853 62.242 27.6687 62.522 27.594C62.8114 27.51 63.124 27.468 63.46 27.468C63.9267 27.468 64.3327 27.5473 64.678 27.706C65.0327 27.8647 65.308 28.1213 65.504 28.476C65.7094 28.8307 65.812 29.3113 65.812 29.918V35H64.58V30.086C64.58 29.778 64.538 29.526 64.454 29.33C64.3794 29.134 64.272 28.98 64.132 28.868C64.0014 28.756 63.838 28.6767 63.642 28.63C63.4554 28.5833 63.2454 28.56 63.012 28.56C62.6667 28.56 62.34 28.644 62.032 28.812C61.724 28.9707 61.4767 29.2087 61.29 29.526C61.1127 29.834 61.024 30.2167 61.024 30.674V35H59.792ZM69.3187 35.168C68.936 35.168 68.6374 35.098 68.4227 34.958C68.208 34.8087 68.054 34.6173 67.9607 34.384C67.8674 34.1413 67.8207 33.8847 67.8207 33.614V28.672H66.8687V27.636H67.8487L68.0727 25.578H69.0527V27.636H70.4387V28.672H69.0527V33.432C69.0527 33.6653 69.0947 33.8427 69.1787 33.964C69.2627 34.076 69.4214 34.132 69.6547 34.132H70.4387V34.944C70.3454 34.9907 70.2334 35.028 70.1027 35.056C69.972 35.084 69.8367 35.1073 69.6967 35.126C69.566 35.154 69.44 35.168 69.3187 35.168ZM4.858 55V52.648H0.392V51.612C0.784 50.94 1.13867 50.2633 1.456 49.582C1.78267 48.9007 2.072 48.2007 2.324 47.482C2.58533 46.7633 2.8 46.012 2.968 45.228H4.284C4.16267 45.7413 4.01333 46.2687 3.836 46.81C3.65867 47.342 3.46267 47.86 3.248 48.364C3.03333 48.868 2.81867 49.3393 2.604 49.778C2.39867 50.2167 2.20267 50.5947 2.016 50.912C1.83867 51.2293 1.694 51.4627 1.582 51.612H4.858V48.56C4.914 48.4107 4.97 48.2567 5.026 48.098C5.09133 47.93 5.152 47.762 5.208 47.594C5.264 47.4167 5.31533 47.2533 5.362 47.104C5.40867 46.9453 5.446 46.796 5.474 46.656H6.09V51.612H7.364V52.648H6.09V55H4.858ZM8.64762 57.422V47.636H9.62763L9.75362 48.686H9.85162C10.1036 48.2753 10.4256 47.972 10.8176 47.776C11.2096 47.5707 11.653 47.468 12.1476 47.468C12.7636 47.468 13.2863 47.6033 13.7156 47.874C14.145 48.1447 14.4763 48.5693 14.7096 49.148C14.943 49.7173 15.0596 50.4593 15.0596 51.374C15.0596 52.2327 14.9383 52.9467 14.6956 53.516C14.4623 54.076 14.131 54.4913 13.7016 54.762C13.2723 55.0327 12.773 55.168 12.2036 55.168C11.8863 55.168 11.5876 55.1307 11.3076 55.056C11.0276 54.9813 10.7756 54.8647 10.5516 54.706C10.3276 54.538 10.1316 54.328 9.96362 54.076H9.87962V57.422H8.64762ZM11.8116 54.09C12.269 54.09 12.6423 54.0013 12.9316 53.824C13.221 53.6373 13.4356 53.3527 13.5756 52.97C13.7156 52.578 13.7856 52.0787 13.7856 51.472V51.178C13.7856 50.534 13.711 50.0207 13.5616 49.638C13.4123 49.246 13.193 48.966 12.9036 48.798C12.6236 48.63 12.2736 48.546 11.8536 48.546C11.3963 48.546 11.0183 48.6487 10.7196 48.854C10.4303 49.05 10.2156 49.3487 10.0756 49.75C9.94496 50.1513 9.87962 50.6413 9.87962 51.22V51.43C9.87962 51.9433 9.92629 52.3727 10.0196 52.718C10.1223 53.054 10.2623 53.3247 10.4396 53.53C10.6263 53.7353 10.8363 53.88 11.0696 53.964C11.303 54.048 11.5503 54.09 11.8116 54.09ZM15.4499 55L18.0959 51.234L15.5759 47.636H17.0599L18.8519 50.268H18.9219L20.7139 47.636H22.1139L19.5939 51.192L22.2539 55H20.7839L18.8519 52.158H18.7819L16.8499 55H15.4499ZM26.1554 55V47.636H27.1494L27.2614 48.854H27.3594C27.4341 48.6207 27.5367 48.4013 27.6674 48.196C27.7981 47.9813 27.9754 47.8087 28.1994 47.678C28.4234 47.538 28.6987 47.468 29.0254 47.468C29.1654 47.468 29.2914 47.482 29.4034 47.51C29.5247 47.5287 29.6134 47.552 29.6694 47.58V48.714H29.2074C28.8901 48.714 28.6147 48.77 28.3814 48.882C28.1574 48.9847 27.9707 49.134 27.8214 49.33C27.6721 49.526 27.5601 49.7593 27.4854 50.03C27.4201 50.3007 27.3874 50.59 27.3874 50.898V55H26.1554ZM32.4311 55.168C32.1604 55.168 31.8898 55.1353 31.6191 55.07C31.3484 55.0047 31.0964 54.8973 30.8631 54.748C30.6298 54.5987 30.4431 54.3933 30.3031 54.132C30.1631 53.8613 30.0931 53.5253 30.0931 53.124C30.0931 52.62 30.2144 52.2047 30.4571 51.878C30.6998 51.5513 31.0358 51.2993 31.4651 51.122C31.9038 50.9353 32.4218 50.8093 33.0191 50.744C33.6164 50.6693 34.2651 50.632 34.9651 50.632V49.792C34.9651 49.5213 34.9184 49.288 34.8251 49.092C34.7318 48.896 34.5638 48.7467 34.3211 48.644C34.0878 48.532 33.7518 48.476 33.3131 48.476C32.8931 48.476 32.5571 48.532 32.3051 48.644C32.0624 48.7467 31.8898 48.882 31.7871 49.05C31.6938 49.218 31.6471 49.4047 31.6471 49.61V49.82H30.4571C30.4478 49.7733 30.4431 49.7267 30.4431 49.68C30.4431 49.6333 30.4431 49.5773 30.4431 49.512C30.4431 49.064 30.5644 48.6907 30.8071 48.392C31.0591 48.084 31.4091 47.8553 31.8571 47.706C32.3051 47.5473 32.8184 47.468 33.3971 47.468C34.0131 47.468 34.5264 47.5567 34.9371 47.734C35.3571 47.9113 35.6698 48.1633 35.8751 48.49C36.0898 48.8167 36.1971 49.2087 36.1971 49.666V53.656C36.1971 53.8333 36.2391 53.9593 36.3231 54.034C36.4071 54.0993 36.5098 54.132 36.6311 54.132H37.1771V54.944C37.0464 55 36.9018 55.0467 36.7431 55.084C36.5844 55.1307 36.4024 55.154 36.1971 55.154C35.9544 55.154 35.7538 55.1027 35.5951 55C35.4364 54.9067 35.3151 54.776 35.2311 54.608C35.1471 54.4307 35.0911 54.2347 35.0631 54.02H34.9651C34.7971 54.2533 34.5824 54.4587 34.3211 54.636C34.0691 54.804 33.7844 54.9347 33.4671 55.028C33.1498 55.1213 32.8044 55.168 32.4311 55.168ZM32.7391 54.132C33.0378 54.132 33.3178 54.0853 33.5791 53.992C33.8498 53.8987 34.0878 53.768 34.2931 53.6C34.4984 53.4227 34.6618 53.2127 34.7831 52.97C34.9044 52.7273 34.9651 52.4613 34.9651 52.172V51.556C34.2091 51.556 33.5651 51.598 33.0331 51.682C32.5011 51.766 32.0904 51.9153 31.8011 52.13C31.5211 52.3447 31.3811 52.648 31.3811 53.04C31.3811 53.292 31.4371 53.4973 31.5491 53.656C31.6611 53.8147 31.8198 53.936 32.0251 54.02C32.2304 54.0947 32.4684 54.132 32.7391 54.132ZM40.634 55.168C40.0273 55.168 39.5047 55.0327 39.066 54.762C38.6367 54.4913 38.3007 54.0713 38.058 53.502C37.8247 52.9233 37.708 52.1767 37.708 51.262C37.708 50.394 37.8293 49.68 38.072 49.12C38.3147 48.56 38.6507 48.1447 39.08 47.874C39.5093 47.6033 40.0087 47.468 40.578 47.468C40.9047 47.468 41.208 47.5053 41.488 47.58C41.768 47.6547 42.0153 47.7713 42.23 47.93C42.454 48.0887 42.65 48.2987 42.818 48.56H42.902V44.878H44.134V55H43.14L43.028 53.95H42.93C42.678 54.3607 42.3513 54.6687 41.95 54.874C41.5487 55.07 41.11 55.168 40.634 55.168ZM40.928 54.09C41.3947 54.09 41.7727 53.9873 42.062 53.782C42.3513 53.5767 42.5613 53.278 42.692 52.886C42.832 52.494 42.902 52.0087 42.902 51.43V51.206C42.902 50.702 42.8507 50.2773 42.748 49.932C42.6453 49.5867 42.5053 49.3113 42.328 49.106C42.1507 48.9007 41.9453 48.756 41.712 48.672C41.4787 48.588 41.2313 48.546 40.97 48.546C40.5127 48.546 40.1393 48.6393 39.85 48.826C39.5607 49.0033 39.346 49.288 39.206 49.68C39.066 50.0627 38.996 50.562 38.996 51.178V51.472C38.996 52.1067 39.0707 52.62 39.22 53.012C39.3693 53.3947 39.584 53.67 39.864 53.838C40.1533 54.006 40.508 54.09 40.928 54.09ZM45.9874 46.25V44.878H47.2194V46.25H45.9874ZM45.9874 55V47.636H47.2194V55H45.9874ZM51.3299 55.168C50.6206 55.168 50.0512 54.986 49.6219 54.622C49.1926 54.258 48.9779 53.6233 48.9779 52.718V47.636H50.2099V52.55C50.2099 52.858 50.2472 53.11 50.3219 53.306C50.3966 53.502 50.5039 53.656 50.6439 53.768C50.7839 53.88 50.9472 53.9593 51.1339 54.006C51.3299 54.0527 51.5399 54.076 51.7639 54.076C52.1186 54.076 52.4452 53.992 52.7439 53.824C53.0426 53.656 53.2852 53.4133 53.4719 53.096C53.6679 52.7693 53.7659 52.3913 53.7659 51.962V47.636H54.9979V55H54.0039L53.8919 53.894H53.7939C53.5979 54.1927 53.3739 54.4353 53.1219 54.622C52.8792 54.8087 52.6039 54.944 52.2959 55.028C51.9972 55.1213 51.6752 55.168 51.3299 55.168ZM59.4012 55.168C58.8972 55.168 58.4539 55.1167 58.0712 55.014C57.6886 54.9113 57.3712 54.762 57.1192 54.566C56.8672 54.37 56.6759 54.1367 56.5452 53.866C56.4146 53.5953 56.3492 53.2873 56.3492 52.942C56.3492 52.8953 56.3492 52.8533 56.3492 52.816C56.3492 52.7693 56.3539 52.732 56.3632 52.704H57.5812C57.5719 52.7413 57.5672 52.774 57.5672 52.802C57.5672 52.83 57.5672 52.858 57.5672 52.886C57.5766 53.2127 57.6606 53.4693 57.8192 53.656C57.9872 53.8427 58.2159 53.9733 58.5052 54.048C58.7946 54.1227 59.1166 54.16 59.4712 54.16C59.7792 54.16 60.0639 54.1227 60.3252 54.048C60.5866 53.964 60.7919 53.8427 60.9412 53.684C61.0999 53.516 61.1792 53.306 61.1792 53.054C61.1792 52.746 61.0766 52.5127 60.8712 52.354C60.6752 52.186 60.4139 52.0553 60.0872 51.962C59.7606 51.8687 59.4199 51.7707 59.0652 51.668C58.7666 51.584 58.4679 51.4907 58.1692 51.388C57.8706 51.2853 57.5999 51.1593 57.3572 51.01C57.1239 50.8607 56.9326 50.6693 56.7832 50.436C56.6432 50.1933 56.5732 49.89 56.5732 49.526C56.5732 49.1993 56.6386 48.91 56.7692 48.658C56.9092 48.406 57.1052 48.1913 57.3572 48.014C57.6092 47.8367 57.9126 47.706 58.2672 47.622C58.6312 47.5287 59.0326 47.482 59.4712 47.482C59.9379 47.482 60.3439 47.5333 60.6892 47.636C61.0439 47.7387 61.3379 47.8833 61.5712 48.07C61.8046 48.2567 61.9772 48.4713 62.0892 48.714C62.2012 48.9473 62.2572 49.1993 62.2572 49.47C62.2572 49.526 62.2572 49.582 62.2572 49.638C62.2572 49.6847 62.2526 49.722 62.2432 49.75H61.0392V49.596C61.0392 49.4093 60.9879 49.232 60.8852 49.064C60.7919 48.8867 60.6239 48.7467 60.3812 48.644C60.1479 48.532 59.8212 48.476 59.4012 48.476C59.1306 48.476 58.8972 48.4993 58.7012 48.546C58.5052 48.5833 58.3419 48.6487 58.2112 48.742C58.0806 48.826 57.9826 48.9287 57.9172 49.05C57.8519 49.162 57.8192 49.2927 57.8192 49.442C57.8192 49.6847 57.8986 49.8713 58.0572 50.002C58.2159 50.1327 58.4259 50.24 58.6872 50.324C58.9579 50.408 59.2472 50.5013 59.5552 50.604C59.8819 50.6973 60.2132 50.7953 60.5492 50.898C60.8946 50.9913 61.2072 51.1127 61.4872 51.262C61.7766 51.4113 62.0052 51.6167 62.1732 51.878C62.3506 52.13 62.4392 52.466 62.4392 52.886C62.4392 53.278 62.3646 53.6187 62.2152 53.908C62.0659 54.1973 61.8512 54.4353 61.5712 54.622C61.3006 54.8087 60.9786 54.944 60.6052 55.028C60.2412 55.1213 59.8399 55.168 59.4012 55.168Z" fill="#272433"/><path d="M14.882 101.168L15.47 98.494H14.336V97.43H15.694L16.17 95.26H14.98V94.196H16.408L17.066 91.228H18.172L17.514 94.196H19.572L20.23 91.228H21.35L20.678 94.196H21.798V95.26H20.468L19.978 97.43H21.168V98.494H19.754L19.166 101.168H18.06L18.648 98.494H16.576L16.002 101.168H14.882ZM16.8 97.43H18.872L19.348 95.26H17.29L16.8 97.43ZM26.0824 101.168C25.5598 101.168 25.0931 101.093 24.6824 100.944C24.2718 100.785 23.9218 100.519 23.6324 100.146C23.3431 99.7633 23.1238 99.2547 22.9744 98.62C22.8251 97.976 22.7504 97.1687 22.7504 96.198C22.7504 95.2273 22.8251 94.4247 22.9744 93.79C23.1238 93.146 23.3431 92.6373 23.6324 92.264C23.9218 91.8813 24.2718 91.6153 24.6824 91.466C25.0931 91.3073 25.5598 91.228 26.0824 91.228C26.6051 91.228 27.0671 91.3073 27.4684 91.466C27.8791 91.6153 28.2291 91.8813 28.5184 92.264C28.8078 92.6373 29.0271 93.146 29.1764 93.79C29.3258 94.4247 29.4004 95.2273 29.4004 96.198C29.4004 97.1687 29.3258 97.976 29.1764 98.62C29.0271 99.2547 28.8078 99.7633 28.5184 100.146C28.2291 100.519 27.8791 100.785 27.4684 100.944C27.0671 101.093 26.6051 101.168 26.0824 101.168ZM26.0824 100.132C26.6144 100.132 27.0251 99.9967 27.3144 99.726C27.6131 99.4553 27.8184 99.054 27.9304 98.522C28.0518 97.99 28.1124 97.3273 28.1124 96.534V95.89C28.1124 95.0873 28.0518 94.42 27.9304 93.888C27.8184 93.3467 27.6131 92.9407 27.3144 92.67C27.0251 92.3993 26.6144 92.264 26.0824 92.264C25.5504 92.264 25.1351 92.3993 24.8364 92.67C24.5378 92.9407 24.3278 93.342 24.2064 93.874C24.0944 94.406 24.0384 95.0733 24.0384 95.876V96.506C24.0384 97.2993 24.0944 97.9667 24.2064 98.508C24.3278 99.0493 24.5378 99.4553 24.8364 99.726C25.1351 99.9967 25.5504 100.132 26.0824 100.132ZM34.0238 101.168C33.5012 101.168 33.0345 101.093 32.6238 100.944C32.2132 100.785 31.8632 100.519 31.5738 100.146C31.2845 99.7633 31.0652 99.2547 30.9158 98.62C30.7665 97.976 30.6918 97.1687 30.6918 96.198C30.6918 95.2273 30.7665 94.4247 30.9158 93.79C31.0652 93.146 31.2845 92.6373 31.5738 92.264C31.8632 91.8813 32.2132 91.6153 32.6238 91.466C33.0345 91.3073 33.5012 91.228 34.0238 91.228C34.5465 91.228 35.0085 91.3073 35.4098 91.466C35.8205 91.6153 36.1705 91.8813 36.4598 92.264C36.7492 92.6373 36.9685 93.146 37.1178 93.79C37.2672 94.4247 37.3418 95.2273 37.3418 96.198C37.3418 97.1687 37.2672 97.976 37.1178 98.62C36.9685 99.2547 36.7492 99.7633 36.4598 100.146C36.1705 100.519 35.8205 100.785 35.4098 100.944C35.0085 101.093 34.5465 101.168 34.0238 101.168ZM34.0238 100.132C34.5558 100.132 34.9665 99.9967 35.2558 99.726C35.5545 99.4553 35.7598 99.054 35.8718 98.522C35.9932 97.99 36.0538 97.3273 36.0538 96.534V95.89C36.0538 95.0873 35.9932 94.42 35.8718 93.888C35.7598 93.3467 35.5545 92.9407 35.2558 92.67C34.9665 92.3993 34.5558 92.264 34.0238 92.264C33.4918 92.264 33.0765 92.3993 32.7778 92.67C32.4792 92.9407 32.2692 93.342 32.1478 93.874C32.0358 94.406 31.9798 95.0733 31.9798 95.876V96.506C31.9798 97.2993 32.0358 97.9667 32.1478 98.508C32.2692 99.0493 32.4792 99.4553 32.7778 99.726C33.0765 99.9967 33.4918 100.132 34.0238 100.132ZM42.0072 101.168C41.3352 101.168 40.7472 101.042 40.2432 100.79C39.7392 100.538 39.3472 100.179 39.0672 99.712C38.7872 99.236 38.6472 98.6713 38.6472 98.018H39.8932C39.8932 98.4567 39.9866 98.8347 40.1732 99.152C40.3599 99.4693 40.6119 99.712 40.9292 99.88C41.2559 100.048 41.6152 100.132 42.0072 100.132C42.4086 100.132 42.7632 100.053 43.0712 99.894C43.3792 99.726 43.6172 99.474 43.7852 99.138C43.9626 98.802 44.0512 98.3773 44.0512 97.864C44.0512 97.3973 43.9719 97.0147 43.8132 96.716C43.6546 96.408 43.4259 96.1793 43.1272 96.03C42.8379 95.8807 42.5019 95.806 42.1192 95.806C41.8392 95.806 41.5732 95.8527 41.3212 95.946C41.0692 96.03 40.8406 96.1513 40.6352 96.31C40.4392 96.4687 40.2759 96.6647 40.1452 96.898L38.9832 96.716L39.3892 91.396H44.8352V92.544H40.4672L40.2432 95.54C40.4019 95.4 40.5792 95.274 40.7752 95.162C40.9806 95.0407 41.2139 94.9473 41.4752 94.882C41.7366 94.8073 42.0352 94.77 42.3712 94.77C42.9219 94.77 43.4212 94.8773 43.8692 95.092C44.3172 95.3067 44.6719 95.638 44.9332 96.086C45.1946 96.534 45.3252 97.1127 45.3252 97.822C45.3252 98.522 45.1899 99.124 44.9192 99.628C44.6579 100.132 44.2799 100.515 43.7852 100.776C43.2906 101.037 42.6979 101.168 42.0072 101.168ZM50.0613 101.168C49.5106 101.168 49.0159 101.089 48.5773 100.93C48.1479 100.771 47.7793 100.515 47.4713 100.16C47.1726 99.8053 46.9439 99.3293 46.7853 98.732C46.6266 98.1253 46.5473 97.374 46.5473 96.478C46.5473 95.4887 46.6266 94.6627 46.7853 94C46.9439 93.328 47.1679 92.7913 47.4573 92.39C47.7559 91.9793 48.1199 91.6853 48.5493 91.508C48.9879 91.3213 49.4826 91.228 50.0333 91.228C50.7239 91.228 51.2793 91.3587 51.6993 91.62C52.1286 91.8813 52.4413 92.236 52.6373 92.684C52.8333 93.1227 52.9313 93.6267 52.9313 94.196H51.6713C51.6713 93.7667 51.6106 93.4073 51.4893 93.118C51.3679 92.8287 51.1766 92.614 50.9153 92.474C50.6633 92.334 50.3459 92.264 49.9633 92.264C49.4033 92.264 48.9646 92.4133 48.6473 92.712C48.3393 93.0013 48.1246 93.426 48.0033 93.986C47.8913 94.546 47.8306 95.2133 47.8213 95.988C47.9519 95.7733 48.1339 95.5773 48.3673 95.4C48.6099 95.2227 48.8946 95.0827 49.2213 94.98C49.5479 94.868 49.8933 94.812 50.2573 94.812C50.9479 94.812 51.5173 94.952 51.9653 95.232C52.4133 95.5027 52.7446 95.876 52.9593 96.352C53.1739 96.828 53.2813 97.36 53.2813 97.948C53.2813 98.592 53.1413 99.1567 52.8613 99.642C52.5813 100.127 52.1986 100.505 51.7133 100.776C51.2279 101.037 50.6773 101.168 50.0613 101.168ZM49.9773 100.132C50.4346 100.132 50.8126 100.034 51.1113 99.838C51.4099 99.6327 51.6293 99.3667 51.7693 99.04C51.9186 98.704 51.9933 98.3353 51.9933 97.934C51.9933 97.5513 51.9233 97.2013 51.7833 96.884C51.6433 96.5667 51.4239 96.3147 51.1253 96.128C50.8359 95.932 50.4626 95.834 50.0053 95.834C49.5479 95.834 49.1653 95.932 48.8573 96.128C48.5493 96.324 48.3206 96.5853 48.1713 96.912C48.0219 97.2293 47.9473 97.5933 47.9473 98.004C47.9473 98.3867 48.0219 98.7413 48.1713 99.068C48.3206 99.3947 48.5446 99.656 48.8433 99.852C49.1419 100.039 49.5199 100.132 49.9773 100.132ZM55.0067 101V91.396H62.3987V92.544H56.3367V95.512H61.7827V96.66H56.3367V99.852H62.4827V101H55.0067ZM67.2113 101.168C66.6886 101.168 66.2219 101.093 65.8113 100.944C65.4006 100.785 65.0506 100.519 64.7613 100.146C64.4719 99.7633 64.2526 99.2547 64.1033 98.62C63.9539 97.976 63.8793 97.1687 63.8793 96.198C63.8793 95.2273 63.9539 94.4247 64.1033 93.79C64.2526 93.146 64.4719 92.6373 64.7613 92.264C65.0506 91.8813 65.4006 91.6153 65.8113 91.466C66.2219 91.3073 66.6886 91.228 67.2113 91.228C67.7339 91.228 68.1959 91.3073 68.5973 91.466C69.0079 91.6153 69.3579 91.8813 69.6473 92.264C69.9366 92.6373 70.1559 93.146 70.3053 93.79C70.4546 94.4247 70.5293 95.2273 70.5293 96.198C70.5293 97.1687 70.4546 97.976 70.3053 98.62C70.1559 99.2547 69.9366 99.7633 69.6473 100.146C69.3579 100.519 69.0079 100.785 68.5973 100.944C68.1959 101.093 67.7339 101.168 67.2113 101.168ZM67.2113 100.132C67.7433 100.132 68.1539 99.9967 68.4433 99.726C68.7419 99.4553 68.9473 99.054 69.0593 98.522C69.1806 97.99 69.2413 97.3273 69.2413 96.534V95.89C69.2413 95.0873 69.1806 94.42 69.0593 93.888C68.9473 93.3467 68.7419 92.9407 68.4433 92.67C68.1539 92.3993 67.7433 92.264 67.2113 92.264C66.6793 92.264 66.2639 92.3993 65.9653 92.67C65.6666 92.9407 65.4566 93.342 65.3353 93.874C65.2233 94.406 65.1673 95.0733 65.1673 95.876V96.506C65.1673 97.2993 65.2233 97.9667 65.3353 98.508C65.4566 99.0493 65.6666 99.4553 65.9653 99.726C66.2639 99.9967 66.6793 100.132 67.2113 100.132Z" fill="#272433"/><path d="M38.882 131.168L39.47 128.494H38.336V127.43H39.694L40.17 125.26H38.98V124.196H40.408L41.066 121.228H42.172L41.514 124.196H43.572L44.23 121.228H45.35L44.678 124.196H45.798V125.26H44.468L43.978 127.43H45.168V128.494H43.754L43.166 131.168H42.06L42.648 128.494H40.576L40.002 131.168H38.882ZM40.8 127.43H42.872L43.348 125.26H41.29L40.8 127.43ZM47.2684 131V121.396H54.0724V122.544H48.5984V125.624H53.5824V126.758H48.5984V131H47.2684ZM55.7567 131V121.396H62.5607V122.544H57.0867V125.624H62.0707V126.758H57.0867V131H55.7567ZM64.245 131V121.396H71.049V122.544H65.575V125.624H70.559V126.758H65.575V131H64.245ZM72.7332 131V121.396H79.5372V122.544H74.0632V125.624H79.0472V126.758H74.0632V131H72.7332ZM81.2215 131V121.396H88.0255V122.544H82.5515V125.624H87.5355V126.758H82.5515V131H81.2215ZM89.7098 131V121.396H96.5138V122.544H91.0398V125.624H96.0238V126.758H91.0398V131H89.7098Z" fill="#272433"/><line x1="260" y1="26.5" x2="286" y2="26.5" stroke="#272433"/><line x1="77" y1="26.5" x2="121" y2="26.5" stroke="#272433"/><line x1="88" y1="94.5" x2="119" y2="94.5" stroke="#272433"/><path fill-rule="evenodd" clip-rule="evenodd" d="M135.5 18.5H126.5C124.843 18.5 123.5 19.8431 123.5 21.5V30.5C123.5 32.1569 124.843 33.5 126.5 33.5H135.5C137.157 33.5 138.5 32.1569 138.5 30.5V21.5C138.5 19.8431 137.157 18.5 135.5 18.5ZM126.5 17C124.015 17 122 19.0147 122 21.5V30.5C122 32.9853 124.015 35 126.5 35H135.5C137.985 35 140 32.9853 140 30.5V21.5C140 19.0147 137.985 17 135.5 17H126.5Z" fill="#6C6862"/><path d="M154.233 31V20.8182H160.378V21.9119H155.466V25.3523H160.06V26.446H155.466V29.9062H160.457V31H154.233ZM163.232 23.3636L165.062 26.4858L166.891 23.3636H168.243L165.778 27.1818L168.243 31H166.891L165.062 28.0369L163.232 31H161.88L164.306 27.1818L161.88 23.3636H163.232ZM172.081 31.179C171.597 31.179 171.158 31.0878 170.763 30.9055C170.369 30.7199 170.056 30.4531 169.824 30.1051C169.592 29.7538 169.476 29.3295 169.476 28.8324C169.476 28.3949 169.562 28.0402 169.734 27.7685C169.907 27.4934 170.137 27.2779 170.425 27.1222C170.714 26.9664 171.032 26.8504 171.38 26.7741C171.731 26.6946 172.084 26.6316 172.439 26.5852C172.903 26.5256 173.279 26.4808 173.567 26.451C173.859 26.4179 174.071 26.3632 174.204 26.2869C174.34 26.2107 174.407 26.0781 174.407 25.8892V25.8494C174.407 25.3589 174.273 24.9777 174.005 24.706C173.74 24.4342 173.337 24.2983 172.797 24.2983C172.237 24.2983 171.797 24.4209 171.479 24.6662C171.161 24.9115 170.937 25.1733 170.808 25.4517L169.694 25.054C169.893 24.59 170.158 24.2287 170.49 23.9702C170.825 23.7083 171.189 23.526 171.584 23.4233C171.981 23.3172 172.372 23.2642 172.757 23.2642C173.002 23.2642 173.284 23.294 173.602 23.3537C173.924 23.41 174.233 23.5277 174.532 23.7067C174.833 23.8857 175.084 24.1558 175.282 24.517C175.481 24.8783 175.581 25.3622 175.581 25.9688V31H174.407V29.9659H174.348C174.268 30.1316 174.136 30.3089 173.95 30.4979C173.764 30.6868 173.518 30.8475 173.209 30.9801C172.901 31.1127 172.525 31.179 172.081 31.179ZM172.26 30.125C172.724 30.125 173.115 30.0339 173.433 29.8516C173.755 29.6693 173.996 29.4339 174.159 29.1456C174.325 28.8572 174.407 28.554 174.407 28.2358V27.1619C174.358 27.2216 174.248 27.2763 174.079 27.326C173.914 27.3724 173.721 27.4138 173.503 27.4503C173.287 27.4834 173.077 27.5133 172.871 27.5398C172.669 27.563 172.505 27.5829 172.379 27.5994C172.074 27.6392 171.789 27.7038 171.524 27.7933C171.262 27.8795 171.05 28.0104 170.888 28.1861C170.728 28.3584 170.649 28.5937 170.649 28.892C170.649 29.2997 170.8 29.608 171.101 29.8168C171.406 30.0223 171.792 30.125 172.26 30.125ZM177.638 31V23.3636H178.772V24.5568H178.871C179.03 24.1491 179.287 23.8326 179.642 23.6072C179.996 23.3786 180.422 23.2642 180.92 23.2642C181.423 23.2642 181.843 23.3786 182.177 23.6072C182.515 23.8326 182.779 24.1491 182.968 24.5568H183.047C183.243 24.1624 183.536 23.8492 183.927 23.6172C184.318 23.3819 184.787 23.2642 185.334 23.2642C186.017 23.2642 186.576 23.478 187.01 23.9055C187.444 24.3298 187.661 24.991 187.661 25.8892V31H186.488V25.8892C186.488 25.3258 186.334 24.9231 186.025 24.6811C185.717 24.4392 185.354 24.3182 184.937 24.3182C184.4 24.3182 183.984 24.4806 183.689 24.8054C183.394 25.1269 183.246 25.5346 183.246 26.0284V31H182.053V25.7699C182.053 25.3357 181.912 24.986 181.63 24.7209C181.349 24.4524 180.986 24.3182 180.542 24.3182C180.237 24.3182 179.952 24.3994 179.687 24.5618C179.425 24.7242 179.213 24.9496 179.05 25.2379C178.891 25.523 178.812 25.8527 178.812 26.2273V31H177.638ZM189.722 33.8636V23.3636H190.856V24.5767H190.995C191.081 24.4441 191.2 24.2751 191.353 24.0696C191.509 23.8608 191.731 23.6752 192.019 23.5128C192.311 23.3471 192.705 23.2642 193.202 23.2642C193.845 23.2642 194.412 23.425 194.903 23.7464C195.393 24.0679 195.776 24.5237 196.051 25.1136C196.326 25.7036 196.464 26.3996 196.464 27.2017C196.464 28.0104 196.326 28.7114 196.051 29.3047C195.776 29.8946 195.395 30.352 194.908 30.6768C194.42 30.9983 193.859 31.1591 193.222 31.1591C192.732 31.1591 192.339 31.0779 192.044 30.9155C191.749 30.7498 191.522 30.5625 191.363 30.3537C191.204 30.1416 191.081 29.9659 190.995 29.8267H190.896V33.8636H189.722ZM190.876 27.1818C190.876 27.7585 190.96 28.2673 191.129 28.7081C191.298 29.1456 191.545 29.4886 191.87 29.7372C192.195 29.9825 192.593 30.1051 193.063 30.1051C193.554 30.1051 193.963 29.9759 194.291 29.7173C194.623 29.4555 194.871 29.1042 195.037 28.6634C195.206 28.2192 195.29 27.7254 195.29 27.1818C195.29 26.6449 195.208 26.161 195.042 25.7301C194.879 25.2959 194.633 24.9529 194.301 24.701C193.973 24.4458 193.56 24.3182 193.063 24.3182C192.586 24.3182 192.185 24.4392 191.86 24.6811C191.535 24.9197 191.29 25.2545 191.124 25.6854C190.959 26.1129 190.876 26.6117 190.876 27.1818ZM199.343 20.8182V31H198.169V20.8182H199.343ZM204.609 31.1591C203.874 31.1591 203.239 30.9967 202.705 30.6719C202.175 30.3438 201.766 29.8864 201.477 29.2997C201.192 28.7098 201.05 28.0237 201.05 27.2415C201.05 26.4593 201.192 25.7699 201.477 25.1733C201.766 24.5734 202.167 24.1061 202.68 23.7713C203.198 23.4332 203.801 23.2642 204.49 23.2642C204.888 23.2642 205.281 23.3305 205.668 23.4631C206.056 23.5956 206.409 23.8111 206.727 24.1094C207.046 24.4044 207.299 24.7955 207.488 25.2827C207.677 25.7699 207.771 26.3698 207.771 27.0824V27.5795H201.885V26.5653H206.578C206.578 26.1345 206.492 25.75 206.32 25.4119C206.151 25.0739 205.909 24.8071 205.594 24.6115C205.282 24.416 204.914 24.3182 204.49 24.3182C204.023 24.3182 203.618 24.4342 203.277 24.6662C202.939 24.8949 202.679 25.1932 202.497 25.5611C202.314 25.929 202.223 26.3234 202.223 26.7443V27.4205C202.223 27.9972 202.323 28.486 202.521 28.8871C202.724 29.2848 203.004 29.5881 203.362 29.7969C203.72 30.0024 204.135 30.1051 204.609 30.1051C204.918 30.1051 205.196 30.062 205.445 29.9759C205.697 29.8864 205.914 29.7538 206.096 29.5781C206.278 29.3991 206.419 29.1771 206.519 28.9119L207.652 29.2301C207.533 29.6146 207.332 29.9527 207.051 30.2443C206.769 30.5327 206.421 30.758 206.006 30.9205C205.592 31.0795 205.127 31.1591 204.609 31.1591ZM213.485 31V20.8182H214.718V29.9062H219.451V31H213.485ZM223.364 31.179C222.88 31.179 222.441 31.0878 222.046 30.9055C221.652 30.7199 221.339 30.4531 221.107 30.1051C220.875 29.7538 220.759 29.3295 220.759 28.8324C220.759 28.3949 220.845 28.0402 221.017 27.7685C221.19 27.4934 221.42 27.2779 221.708 27.1222C221.997 26.9664 222.315 26.8504 222.663 26.7741C223.014 26.6946 223.367 26.6316 223.722 26.5852C224.186 26.5256 224.562 26.4808 224.85 26.451C225.142 26.4179 225.354 26.3632 225.487 26.2869C225.623 26.2107 225.691 26.0781 225.691 25.8892V25.8494C225.691 25.3589 225.556 24.9777 225.288 24.706C225.023 24.4342 224.62 24.2983 224.08 24.2983C223.52 24.2983 223.08 24.4209 222.762 24.6662C222.444 24.9115 222.22 25.1733 222.091 25.4517L220.977 25.054C221.176 24.59 221.442 24.2287 221.773 23.9702C222.108 23.7083 222.472 23.526 222.867 23.4233C223.264 23.3172 223.656 23.2642 224.04 23.2642C224.285 23.2642 224.567 23.294 224.885 23.3537C225.207 23.41 225.517 23.5277 225.815 23.7067C226.116 23.8857 226.367 24.1558 226.566 24.517C226.764 24.8783 226.864 25.3622 226.864 25.9688V31H225.691V29.9659H225.631C225.551 30.1316 225.419 30.3089 225.233 30.4979C225.048 30.6868 224.801 30.8475 224.492 30.9801C224.184 31.1127 223.808 31.179 223.364 31.179ZM223.543 30.125C224.007 30.125 224.398 30.0339 224.716 29.8516C225.038 29.6693 225.28 29.4339 225.442 29.1456C225.608 28.8572 225.691 28.554 225.691 28.2358V27.1619C225.641 27.2216 225.531 27.2763 225.362 27.326C225.197 27.3724 225.004 27.4138 224.786 27.4503C224.57 27.4834 224.36 27.5133 224.154 27.5398C223.952 27.563 223.788 27.5829 223.662 27.5994C223.357 27.6392 223.072 27.7038 222.807 27.7933C222.545 27.8795 222.333 28.0104 222.171 28.1861C222.012 28.3584 221.932 28.5937 221.932 28.892C221.932 29.2997 222.083 29.608 222.384 29.8168C222.689 30.0223 223.076 30.125 223.543 30.125ZM229.08 31V20.8182H230.254V24.5767H230.353C230.439 24.4441 230.559 24.2751 230.711 24.0696C230.867 23.8608 231.089 23.6752 231.377 23.5128C231.669 23.3471 232.063 23.2642 232.561 23.2642C233.204 23.2642 233.77 23.425 234.261 23.7464C234.751 24.0679 235.134 24.5237 235.409 25.1136C235.684 25.7036 235.822 26.3996 235.822 27.2017C235.822 28.0104 235.684 28.7114 235.409 29.3047C235.134 29.8946 234.753 30.352 234.266 30.6768C233.779 30.9983 233.217 31.1591 232.58 31.1591C232.09 31.1591 231.697 31.0779 231.402 30.9155C231.107 30.7498 230.88 30.5625 230.721 30.3537C230.562 30.1416 230.439 29.9659 230.353 29.8267H230.214V31H229.08ZM230.234 27.1818C230.234 27.7585 230.318 28.2673 230.487 28.7081C230.656 29.1456 230.903 29.4886 231.228 29.7372C231.553 29.9825 231.951 30.1051 232.421 30.1051C232.912 30.1051 233.321 29.9759 233.649 29.7173C233.981 29.4555 234.229 29.1042 234.395 28.6634C234.564 28.2192 234.649 27.7254 234.649 27.1818C234.649 26.6449 234.566 26.161 234.4 25.7301C234.238 25.2959 233.991 24.9529 233.659 24.701C233.331 24.4458 232.919 24.3182 232.421 24.3182C231.944 24.3182 231.543 24.4392 231.218 24.6811C230.893 24.9197 230.648 25.2545 230.482 25.6854C230.317 26.1129 230.234 26.6117 230.234 27.1818ZM240.734 31.1591C239.999 31.1591 239.364 30.9967 238.83 30.6719C238.3 30.3438 237.891 29.8864 237.602 29.2997C237.317 28.7098 237.175 28.0237 237.175 27.2415C237.175 26.4593 237.317 25.7699 237.602 25.1733C237.891 24.5734 238.292 24.1061 238.805 23.7713C239.322 23.4332 239.926 23.2642 240.615 23.2642C241.013 23.2642 241.406 23.3305 241.793 23.4631C242.181 23.5956 242.534 23.8111 242.852 24.1094C243.17 24.4044 243.424 24.7955 243.613 25.2827C243.802 25.7699 243.896 26.3698 243.896 27.0824V27.5795H238.01V26.5653H242.703C242.703 26.1345 242.617 25.75 242.445 25.4119C242.276 25.0739 242.034 24.8071 241.719 24.6115C241.407 24.416 241.039 24.3182 240.615 24.3182C240.148 24.3182 239.743 24.4342 239.402 24.6662C239.064 24.8949 238.804 25.1932 238.621 25.5611C238.439 25.929 238.348 26.3234 238.348 26.7443V27.4205C238.348 27.9972 238.447 28.486 238.646 28.8871C238.848 29.2848 239.129 29.5881 239.487 29.7969C239.844 30.0024 240.26 30.1051 240.734 30.1051C241.043 30.1051 241.321 30.062 241.57 29.9759C241.821 29.8864 242.039 29.7538 242.221 29.5781C242.403 29.3991 242.544 29.1771 242.643 28.9119L243.777 29.2301C243.658 29.6146 243.457 29.9527 243.175 30.2443C242.894 30.5327 242.546 30.758 242.131 30.9205C241.717 31.0795 241.251 31.1591 240.734 31.1591ZM246.77 20.8182V31H245.597V20.8182H246.77Z" fill="#26252A"/><path fill-rule="evenodd" clip-rule="evenodd" d="M125.5 86C123.015 86 121 88.0147 121 90.5V99.5C121 101.985 123.015 104 125.5 104H134.5C136.985 104 139 101.985 139 99.5V90.5C139 88.0147 136.985 86 134.5 86H125.5ZM135.03 92.5303C135.323 92.2374 135.323 91.7626 135.03 91.4697C134.737 91.1768 134.263 91.1768 133.97 91.4697L128.125 97.3143L126.03 95.2197C125.737 94.9268 125.263 94.9268 124.97 95.2197C124.677 95.5126 124.677 95.9874 124.97 96.2803L127.595 98.9053C127.888 99.1982 128.362 99.1982 128.655 98.9053L135.03 92.5303Z" fill="#0056E0"/><path d="M153.233 100V89.8182H159.378V90.9119H154.466V94.3523H159.06V95.446H154.466V98.9062H159.457V100H153.233ZM162.232 92.3636L164.062 95.4858L165.891 92.3636H167.243L164.778 96.1818L167.243 100H165.891L164.062 97.0369L162.232 100H160.88L163.306 96.1818L160.88 92.3636H162.232ZM171.081 100.179C170.597 100.179 170.158 100.088 169.763 99.9055C169.369 99.7199 169.056 99.4531 168.824 99.1051C168.592 98.7538 168.476 98.3295 168.476 97.8324C168.476 97.3949 168.562 97.0402 168.734 96.7685C168.907 96.4934 169.137 96.2779 169.425 96.1222C169.714 95.9664 170.032 95.8504 170.38 95.7741C170.731 95.6946 171.084 95.6316 171.439 95.5852C171.903 95.5256 172.279 95.4808 172.567 95.451C172.859 95.4179 173.071 95.3632 173.204 95.2869C173.34 95.2107 173.407 95.0781 173.407 94.8892V94.8494C173.407 94.3589 173.273 93.9777 173.005 93.706C172.74 93.4342 172.337 93.2983 171.797 93.2983C171.237 93.2983 170.797 93.4209 170.479 93.6662C170.161 93.9115 169.937 94.1733 169.808 94.4517L168.694 94.054C168.893 93.59 169.158 93.2287 169.49 92.9702C169.825 92.7083 170.189 92.526 170.584 92.4233C170.981 92.3172 171.372 92.2642 171.757 92.2642C172.002 92.2642 172.284 92.294 172.602 92.3537C172.924 92.41 173.233 92.5277 173.532 92.7067C173.833 92.8857 174.084 93.1558 174.282 93.517C174.481 93.8783 174.581 94.3622 174.581 94.9688V100H173.407V98.9659H173.348C173.268 99.1316 173.136 99.3089 172.95 99.4979C172.764 99.6868 172.518 99.8475 172.209 99.9801C171.901 100.113 171.525 100.179 171.081 100.179ZM171.26 99.125C171.724 99.125 172.115 99.0339 172.433 98.8516C172.755 98.6693 172.996 98.4339 173.159 98.1456C173.325 97.8572 173.407 97.554 173.407 97.2358V96.1619C173.358 96.2216 173.248 96.2763 173.079 96.326C172.914 96.3724 172.721 96.4138 172.503 96.4503C172.287 96.4834 172.077 96.5133 171.871 96.5398C171.669 96.563 171.505 96.5829 171.379 96.5994C171.074 96.6392 170.789 96.7038 170.524 96.7933C170.262 96.8795 170.05 97.0104 169.888 97.1861C169.728 97.3584 169.649 97.5937 169.649 97.892C169.649 98.2997 169.8 98.608 170.101 98.8168C170.406 99.0223 170.792 99.125 171.26 99.125ZM176.638 100V92.3636H177.772V93.5568H177.871C178.03 93.1491 178.287 92.8326 178.642 92.6072C178.996 92.3786 179.422 92.2642 179.92 92.2642C180.423 92.2642 180.843 92.3786 181.177 92.6072C181.515 92.8326 181.779 93.1491 181.968 93.5568H182.047C182.243 93.1624 182.536 92.8492 182.927 92.6172C183.318 92.3819 183.787 92.2642 184.334 92.2642C185.017 92.2642 185.576 92.478 186.01 92.9055C186.444 93.3298 186.661 93.991 186.661 94.8892V100H185.488V94.8892C185.488 94.3258 185.334 93.9231 185.025 93.6811C184.717 93.4392 184.354 93.3182 183.937 93.3182C183.4 93.3182 182.984 93.4806 182.689 93.8054C182.394 94.1269 182.246 94.5346 182.246 95.0284V100H181.053V94.7699C181.053 94.3357 180.912 93.986 180.63 93.7209C180.349 93.4524 179.986 93.3182 179.542 93.3182C179.237 93.3182 178.952 93.3994 178.687 93.5618C178.425 93.7242 178.213 93.9496 178.05 94.2379C177.891 94.523 177.812 94.8527 177.812 95.2273V100H176.638ZM188.722 102.864V92.3636H189.856V93.5767H189.995C190.081 93.4441 190.2 93.2751 190.353 93.0696C190.509 92.8608 190.731 92.6752 191.019 92.5128C191.311 92.3471 191.705 92.2642 192.202 92.2642C192.845 92.2642 193.412 92.425 193.903 92.7464C194.393 93.0679 194.776 93.5237 195.051 94.1136C195.326 94.7036 195.464 95.3996 195.464 96.2017C195.464 97.0104 195.326 97.7114 195.051 98.3047C194.776 98.8946 194.395 99.352 193.908 99.6768C193.42 99.9983 192.859 100.159 192.222 100.159C191.732 100.159 191.339 100.078 191.044 99.9155C190.749 99.7498 190.522 99.5625 190.363 99.3537C190.204 99.1416 190.081 98.9659 189.995 98.8267H189.896V102.864H188.722ZM189.876 96.1818C189.876 96.7585 189.96 97.2673 190.129 97.7081C190.298 98.1456 190.545 98.4886 190.87 98.7372C191.195 98.9825 191.593 99.1051 192.063 99.1051C192.554 99.1051 192.963 98.9759 193.291 98.7173C193.623 98.4555 193.871 98.1042 194.037 97.6634C194.206 97.2192 194.29 96.7254 194.29 96.1818C194.29 95.6449 194.208 95.161 194.042 94.7301C193.879 94.2959 193.633 93.9529 193.301 93.701C192.973 93.4458 192.56 93.3182 192.063 93.3182C191.586 93.3182 191.185 93.4392 190.86 93.6811C190.535 93.9197 190.29 94.2545 190.124 94.6854C189.959 95.1129 189.876 95.6117 189.876 96.1818ZM198.343 89.8182V100H197.169V89.8182H198.343ZM203.609 100.159C202.874 100.159 202.239 99.9967 201.705 99.6719C201.175 99.3438 200.766 98.8864 200.477 98.2997C200.192 97.7098 200.05 97.0237 200.05 96.2415C200.05 95.4593 200.192 94.7699 200.477 94.1733C200.766 93.5734 201.167 93.1061 201.68 92.7713C202.198 92.4332 202.801 92.2642 203.49 92.2642C203.888 92.2642 204.281 92.3305 204.668 92.4631C205.056 92.5956 205.409 92.8111 205.727 93.1094C206.046 93.4044 206.299 93.7955 206.488 94.2827C206.677 94.7699 206.771 95.3698 206.771 96.0824V96.5795H200.885V95.5653H205.578C205.578 95.1345 205.492 94.75 205.32 94.4119C205.151 94.0739 204.909 93.8071 204.594 93.6115C204.282 93.416 203.914 93.3182 203.49 93.3182C203.023 93.3182 202.618 93.4342 202.277 93.6662C201.939 93.8949 201.679 94.1932 201.497 94.5611C201.314 94.929 201.223 95.3234 201.223 95.7443V96.4205C201.223 96.9972 201.323 97.486 201.521 97.8871C201.724 98.2848 202.004 98.5881 202.362 98.7969C202.72 99.0024 203.135 99.1051 203.609 99.1051C203.918 99.1051 204.196 99.062 204.445 98.9759C204.697 98.8864 204.914 98.7538 205.096 98.5781C205.278 98.3991 205.419 98.1771 205.519 97.9119L206.652 98.2301C206.533 98.6146 206.332 98.9527 206.051 99.2443C205.769 99.5327 205.421 99.758 205.006 99.9205C204.592 100.08 204.127 100.159 203.609 100.159ZM212.485 100V89.8182H213.718V98.9062H218.451V100H212.485ZM222.364 100.179C221.88 100.179 221.441 100.088 221.046 99.9055C220.652 99.7199 220.339 99.4531 220.107 99.1051C219.875 98.7538 219.759 98.3295 219.759 97.8324C219.759 97.3949 219.845 97.0402 220.017 96.7685C220.19 96.4934 220.42 96.2779 220.708 96.1222C220.997 95.9664 221.315 95.8504 221.663 95.7741C222.014 95.6946 222.367 95.6316 222.722 95.5852C223.186 95.5256 223.562 95.4808 223.85 95.451C224.142 95.4179 224.354 95.3632 224.487 95.2869C224.623 95.2107 224.691 95.0781 224.691 94.8892V94.8494C224.691 94.3589 224.556 93.9777 224.288 93.706C224.023 93.4342 223.62 93.2983 223.08 93.2983C222.52 93.2983 222.08 93.4209 221.762 93.6662C221.444 93.9115 221.22 94.1733 221.091 94.4517L219.977 94.054C220.176 93.59 220.442 93.2287 220.773 92.9702C221.108 92.7083 221.472 92.526 221.867 92.4233C222.264 92.3172 222.656 92.2642 223.04 92.2642C223.285 92.2642 223.567 92.294 223.885 92.3537C224.207 92.41 224.517 92.5277 224.815 92.7067C225.116 92.8857 225.367 93.1558 225.566 93.517C225.764 93.8783 225.864 94.3622 225.864 94.9688V100H224.691V98.9659H224.631C224.551 99.1316 224.419 99.3089 224.233 99.4979C224.048 99.6868 223.801 99.8475 223.492 99.9801C223.184 100.113 222.808 100.179 222.364 100.179ZM222.543 99.125C223.007 99.125 223.398 99.0339 223.716 98.8516C224.038 98.6693 224.28 98.4339 224.442 98.1456C224.608 97.8572 224.691 97.554 224.691 97.2358V96.1619C224.641 96.2216 224.531 96.2763 224.362 96.326C224.197 96.3724 224.004 96.4138 223.786 96.4503C223.57 96.4834 223.36 96.5133 223.154 96.5398C222.952 96.563 222.788 96.5829 222.662 96.5994C222.357 96.6392 222.072 96.7038 221.807 96.7933C221.545 96.8795 221.333 97.0104 221.171 97.1861C221.012 97.3584 220.932 97.5937 220.932 97.892C220.932 98.2997 221.083 98.608 221.384 98.8168C221.689 99.0223 222.076 99.125 222.543 99.125ZM228.08 100V89.8182H229.254V93.5767H229.353C229.439 93.4441 229.559 93.2751 229.711 93.0696C229.867 92.8608 230.089 92.6752 230.377 92.5128C230.669 92.3471 231.063 92.2642 231.561 92.2642C232.204 92.2642 232.77 92.425 233.261 92.7464C233.751 93.0679 234.134 93.5237 234.409 94.1136C234.684 94.7036 234.822 95.3996 234.822 96.2017C234.822 97.0104 234.684 97.7114 234.409 98.3047C234.134 98.8946 233.753 99.352 233.266 99.6768C232.779 99.9983 232.217 100.159 231.58 100.159C231.09 100.159 230.697 100.078 230.402 99.9155C230.107 99.7498 229.88 99.5625 229.721 99.3537C229.562 99.1416 229.439 98.9659 229.353 98.8267H229.214V100H228.08ZM229.234 96.1818C229.234 96.7585 229.318 97.2673 229.487 97.7081C229.656 98.1456 229.903 98.4886 230.228 98.7372C230.553 98.9825 230.951 99.1051 231.421 99.1051C231.912 99.1051 232.321 98.9759 232.649 98.7173C232.981 98.4555 233.229 98.1042 233.395 97.6634C233.564 97.2192 233.649 96.7254 233.649 96.1818C233.649 95.6449 233.566 95.161 233.4 94.7301C233.238 94.2959 232.991 93.9529 232.659 93.701C232.331 93.4458 231.919 93.3182 231.421 93.3182C230.944 93.3182 230.543 93.4392 230.218 93.6811C229.893 93.9197 229.648 94.2545 229.482 94.6854C229.317 95.1129 229.234 95.6117 229.234 96.1818ZM239.734 100.159C238.999 100.159 238.364 99.9967 237.83 99.6719C237.3 99.3438 236.891 98.8864 236.602 98.2997C236.317 97.7098 236.175 97.0237 236.175 96.2415C236.175 95.4593 236.317 94.7699 236.602 94.1733C236.891 93.5734 237.292 93.1061 237.805 92.7713C238.322 92.4332 238.926 92.2642 239.615 92.2642C240.013 92.2642 240.406 92.3305 240.793 92.4631C241.181 92.5956 241.534 92.8111 241.852 93.1094C242.17 93.4044 242.424 93.7955 242.613 94.2827C242.802 94.7699 242.896 95.3698 242.896 96.0824V96.5795H237.01V95.5653H241.703C241.703 95.1345 241.617 94.75 241.445 94.4119C241.276 94.0739 241.034 93.8071 240.719 93.6115C240.407 93.416 240.039 93.3182 239.615 93.3182C239.148 93.3182 238.743 93.4342 238.402 93.6662C238.064 93.8949 237.804 94.1932 237.621 94.5611C237.439 94.929 237.348 95.3234 237.348 95.7443V96.4205C237.348 96.9972 237.447 97.486 237.646 97.8871C237.848 98.2848 238.129 98.5881 238.487 98.7969C238.844 99.0024 239.26 99.1051 239.734 99.1051C240.043 99.1051 240.321 99.062 240.57 98.9759C240.821 98.8864 241.039 98.7538 241.221 98.5781C241.403 98.3991 241.544 98.1771 241.643 97.9119L242.777 98.2301C242.658 98.6146 242.457 98.9527 242.175 99.2443C241.894 99.5327 241.546 99.758 241.131 99.9205C240.717 100.08 240.251 100.159 239.734 100.159ZM245.77 89.8182V100H244.597V89.8182H245.77Z" fill="#26252A"/><line x1="107.646" y1="117.646" x2="125.646" y2="99.6464" stroke="#272433"/></svg>