<svg width="390" height="56" viewBox="0 0 390 56" fill="none" xmlns="http://www.w3.org/2000/svg"><path d="M1.85075 31.168L2.43875 28.494H1.30475V27.43H2.66275L3.13875 25.26H1.94875V24.196H3.37675L4.03475 21.228H5.14075L4.48275 24.196H6.54075L7.19875 21.228H8.31875L7.64675 24.196H8.76675V25.26H7.43675L6.94675 27.43H8.13675V28.494H6.72275L6.13475 31.168H5.02875L5.61675 28.494H3.54475L2.97075 31.168H1.85075ZM3.76875 27.43H5.84075L6.31675 25.26H4.25875L3.76875 27.43ZM14.3392 31.168C13.3592 31.168 12.5285 30.9907 11.8472 30.636C11.1659 30.272 10.6432 29.726 10.2792 28.998C9.92452 28.2607 9.74719 27.3273 9.74719 26.198C9.74719 24.5273 10.1532 23.2813 10.9652 22.46C11.7772 21.6387 12.9065 21.228 14.3532 21.228C15.1745 21.228 15.9025 21.3633 16.5372 21.634C17.1719 21.8953 17.6665 22.2967 18.0212 22.838C18.3852 23.37 18.5672 24.042 18.5672 24.854H17.2232C17.2232 24.294 17.1019 23.832 16.8592 23.468C16.6259 23.104 16.2945 22.8333 15.8652 22.656C15.4359 22.4693 14.9319 22.376 14.3532 22.376C13.6812 22.376 13.1025 22.5067 12.6172 22.768C12.1319 23.0293 11.7632 23.4353 11.5112 23.986C11.2592 24.5273 11.1332 25.2273 11.1332 26.086V26.38C11.1332 27.2293 11.2592 27.9247 11.5112 28.466C11.7632 28.998 12.1272 29.39 12.6032 29.642C13.0885 29.894 13.6719 30.02 14.3532 30.02C14.9505 30.02 15.4639 29.9313 15.8932 29.754C16.3319 29.5767 16.6679 29.306 16.9012 28.942C17.1439 28.5687 17.2652 28.102 17.2652 27.542H18.5672C18.5672 28.3727 18.3805 29.054 18.0072 29.586C17.6432 30.118 17.1439 30.5147 16.5092 30.776C15.8745 31.0373 15.1512 31.168 14.3392 31.168ZM20.3387 31V21.396H25.2947C25.8454 21.396 26.3214 21.494 26.7227 21.69C27.1241 21.8767 27.4321 22.1427 27.6467 22.488C27.8707 22.8333 27.9827 23.244 27.9827 23.72C27.9827 24.084 27.9174 24.42 27.7867 24.728C27.6561 25.036 27.4741 25.2927 27.2407 25.498C27.0074 25.7033 26.7414 25.8573 26.4427 25.96V26.016C26.7787 26.0907 27.0821 26.226 27.3527 26.422C27.6234 26.618 27.8381 26.8793 27.9967 27.206C28.1647 27.5233 28.2487 27.9153 28.2487 28.382C28.2487 29.0073 28.1181 29.5113 27.8567 29.894C27.5954 30.2767 27.2454 30.5567 26.8067 30.734C26.3681 30.9113 25.8641 31 25.2947 31H20.3387ZM21.6687 29.852H25.2807C25.7567 29.852 26.1441 29.7307 26.4427 29.488C26.7414 29.236 26.8907 28.8207 26.8907 28.242C26.8907 27.8873 26.8254 27.5933 26.6947 27.36C26.5641 27.1173 26.3727 26.94 26.1207 26.828C25.8687 26.7067 25.5514 26.646 25.1687 26.646H21.6687V29.852ZM21.6687 25.512H25.0427C25.3601 25.512 25.6354 25.4513 25.8687 25.33C26.1021 25.1993 26.2841 25.022 26.4147 24.798C26.5547 24.5647 26.6247 24.3033 26.6247 24.014C26.6247 23.51 26.4894 23.1413 26.2187 22.908C25.9481 22.6653 25.5887 22.544 25.1407 22.544H21.6687V25.512ZM29.5261 31V30.594C29.5261 30.202 29.6008 29.8427 29.7501 29.516C29.9088 29.18 30.1141 28.8767 30.3661 28.606C30.6275 28.326 30.9215 28.06 31.2481 27.808C31.5748 27.556 31.9061 27.3087 32.2421 27.066C32.6995 26.7487 33.1195 26.4313 33.5021 26.114C33.8941 25.7967 34.2068 25.456 34.4401 25.092C34.6735 24.7187 34.7901 24.3033 34.7901 23.846C34.7901 23.5567 34.7201 23.2953 34.5801 23.062C34.4495 22.8193 34.2488 22.628 33.9781 22.488C33.7075 22.348 33.3621 22.278 32.9421 22.278C32.4475 22.278 32.0508 22.362 31.7521 22.53C31.4535 22.698 31.2341 22.922 31.0941 23.202C30.9635 23.482 30.8981 23.79 30.8981 24.126V24.7H29.6801C29.6708 24.6533 29.6615 24.5833 29.6521 24.49C29.6428 24.3873 29.6381 24.2707 29.6381 24.14C29.6381 23.4493 29.7921 22.894 30.1001 22.474C30.4081 22.0447 30.8188 21.732 31.3321 21.536C31.8455 21.3307 32.4008 21.228 32.9981 21.228C33.5301 21.228 33.9875 21.3027 34.3701 21.452C34.7528 21.592 35.0701 21.788 35.3221 22.04C35.5741 22.292 35.7608 22.5813 35.8821 22.908C36.0035 23.2253 36.0641 23.5613 36.0641 23.916C36.0641 24.3547 35.9848 24.756 35.8261 25.12C35.6768 25.484 35.4621 25.8247 35.1821 26.142C34.9115 26.45 34.5895 26.7487 34.2161 27.038C33.8521 27.3273 33.4555 27.6213 33.0261 27.92C32.7275 28.116 32.4335 28.326 32.1441 28.55C31.8548 28.7647 31.6075 28.984 31.4021 29.208C31.1968 29.432 31.0661 29.6467 31.0101 29.852H36.1201V31H29.5261ZM37.3855 31V30.594C37.3855 30.202 37.4602 29.8427 37.6095 29.516C37.7682 29.18 37.9735 28.8767 38.2255 28.606C38.4868 28.326 38.7808 28.06 39.1075 27.808C39.4342 27.556 39.7655 27.3087 40.1015 27.066C40.5588 26.7487 40.9788 26.4313 41.3615 26.114C41.7535 25.7967 42.0662 25.456 42.2995 25.092C42.5328 24.7187 42.6495 24.3033 42.6495 23.846C42.6495 23.5567 42.5795 23.2953 42.4395 23.062C42.3088 22.8193 42.1082 22.628 41.8375 22.488C41.5668 22.348 41.2215 22.278 40.8015 22.278C40.3068 22.278 39.9102 22.362 39.6115 22.53C39.3128 22.698 39.0935 22.922 38.9535 23.202C38.8228 23.482 38.7575 23.79 38.7575 24.126V24.7H37.5395C37.5302 24.6533 37.5208 24.5833 37.5115 24.49C37.5022 24.3873 37.4975 24.2707 37.4975 24.14C37.4975 23.4493 37.6515 22.894 37.9595 22.474C38.2675 22.0447 38.6782 21.732 39.1915 21.536C39.7048 21.3307 40.2602 21.228 40.8575 21.228C41.3895 21.228 41.8468 21.3027 42.2295 21.452C42.6122 21.592 42.9295 21.788 43.1815 22.04C43.4335 22.292 43.6202 22.5813 43.7415 22.908C43.8628 23.2253 43.9235 23.5613 43.9235 23.916C43.9235 24.3547 43.8442 24.756 43.6855 25.12C43.5362 25.484 43.3215 25.8247 43.0415 26.142C42.7708 26.45 42.4488 26.7487 42.0755 27.038C41.7115 27.3273 41.3148 27.6213 40.8855 27.92C40.5868 28.116 40.2928 28.326 40.0035 28.55C39.7142 28.7647 39.4668 28.984 39.2615 29.208C39.0562 29.432 38.9255 29.6467 38.8695 29.852H43.9795V31H37.3855ZM48.5768 31.168C47.8302 31.168 47.2002 31.056 46.6868 30.832C46.1735 30.5987 45.7862 30.272 45.5248 29.852C45.2635 29.432 45.1328 28.9327 45.1328 28.354V28.172H46.3788V28.354C46.3788 28.9327 46.5608 29.376 46.9248 29.684C47.2982 29.9827 47.8115 30.132 48.4648 30.132C49.1182 30.132 49.6455 29.992 50.0468 29.712C50.4482 29.4227 50.6488 28.9653 50.6488 28.34C50.6488 27.8827 50.5415 27.5327 50.3268 27.29C50.1122 27.0473 49.8322 26.8793 49.4868 26.786C49.1508 26.6833 48.7915 26.632 48.4088 26.632H47.4008V25.596H48.4508C48.8055 25.596 49.1322 25.54 49.4308 25.428C49.7295 25.316 49.9675 25.134 50.1448 24.882C50.3315 24.6207 50.4248 24.2847 50.4248 23.874C50.4248 23.5007 50.3408 23.1973 50.1728 22.964C50.0142 22.7307 49.7948 22.558 49.5148 22.446C49.2348 22.3247 48.9268 22.264 48.5908 22.264C48.2175 22.264 47.8815 22.3293 47.5828 22.46C47.2842 22.5813 47.0462 22.768 46.8688 23.02C46.7008 23.272 46.6168 23.5893 46.6168 23.972V24.154H45.3568V23.902C45.3568 23.37 45.4922 22.9033 45.7628 22.502C46.0428 22.1007 46.4208 21.788 46.8968 21.564C47.3822 21.34 47.9375 21.228 48.5628 21.228C49.1788 21.228 49.7202 21.326 50.1868 21.522C50.6628 21.718 51.0362 22.0073 51.3068 22.39C51.5775 22.7727 51.7128 23.244 51.7128 23.804C51.7128 24.2147 51.6382 24.5647 51.4888 24.854C51.3395 25.134 51.1435 25.3673 50.9008 25.554C50.6582 25.7407 50.3968 25.8947 50.1168 26.016V26.072C50.6302 26.2213 51.0595 26.492 51.4048 26.884C51.7502 27.276 51.9228 27.7893 51.9228 28.424C51.9228 28.9933 51.7782 29.4833 51.4888 29.894C51.2088 30.3047 50.8122 30.622 50.2988 30.846C49.7948 31.0607 49.2208 31.168 48.5768 31.168ZM56.5182 31.168C55.7716 31.168 55.1416 31.056 54.6282 30.832C54.1149 30.5987 53.7276 30.272 53.4662 29.852C53.2049 29.432 53.0742 28.9327 53.0742 28.354V28.172H54.3202V28.354C54.3202 28.9327 54.5022 29.376 54.8662 29.684C55.2396 29.9827 55.7529 30.132 56.4062 30.132C57.0596 30.132 57.5869 29.992 57.9882 29.712C58.3896 29.4227 58.5902 28.9653 58.5902 28.34C58.5902 27.8827 58.4829 27.5327 58.2682 27.29C58.0536 27.0473 57.7736 26.8793 57.4282 26.786C57.0922 26.6833 56.7329 26.632 56.3502 26.632H55.3422V25.596H56.3922C56.7469 25.596 57.0736 25.54 57.3722 25.428C57.6709 25.316 57.9089 25.134 58.0862 24.882C58.2729 24.6207 58.3662 24.2847 58.3662 23.874C58.3662 23.5007 58.2822 23.1973 58.1142 22.964C57.9556 22.7307 57.7362 22.558 57.4562 22.446C57.1762 22.3247 56.8682 22.264 56.5322 22.264C56.1589 22.264 55.8229 22.3293 55.5242 22.46C55.2256 22.5813 54.9876 22.768 54.8102 23.02C54.6422 23.272 54.5582 23.5893 54.5582 23.972V24.154H53.2982V23.902C53.2982 23.37 53.4336 22.9033 53.7042 22.502C53.9842 22.1007 54.3622 21.788 54.8382 21.564C55.3236 21.34 55.8789 21.228 56.5042 21.228C57.1202 21.228 57.6616 21.326 58.1282 21.522C58.6042 21.718 58.9776 22.0073 59.2482 22.39C59.5189 22.7727 59.6542 23.244 59.6542 23.804C59.6542 24.2147 59.5796 24.5647 59.4302 24.854C59.2809 25.134 59.0849 25.3673 58.8422 25.554C58.5996 25.7407 58.3382 25.8947 58.0582 26.016V26.072C58.5716 26.2213 59.0009 26.492 59.3462 26.884C59.6916 27.276 59.8642 27.7893 59.8642 28.424C59.8642 28.9933 59.7196 29.4833 59.4302 29.894C59.1502 30.3047 58.7536 30.622 58.2402 30.846C57.7362 31.0607 57.1622 31.168 56.5182 31.168Z" fill="#272433"/><line x1="67.9688" y1="25.5" x2="111.969" y2="25.5" stroke="#272433"/><rect x="110.469" y="0.5" width="279" height="55" rx="5.5" fill="white"/><rect x="110.469" y="0.5" width="279" height="55" rx="5.5" stroke="#EBEAE1"/><path d="M137.97 25.5C137.625 25.5 137.345 25.7798 137.345 26.125V30.5C137.345 30.8452 137.625 31.125 137.97 31.125C138.316 31.125 138.595 30.8452 138.595 30.5V26.125C138.595 25.7798 138.316 25.5 137.97 25.5Z" fill="#CB2233"/><path d="M138.595 33C138.595 33.3452 138.316 33.625 137.97 33.625C137.625 33.625 137.345 33.3452 137.345 33C137.345 32.6548 137.625 32.375 137.97 32.375C138.316 32.375 138.595 32.6548 138.595 33Z" fill="#CB2233"/><path fill-rule="evenodd" clip-rule="evenodd" d="M146.264 34.2502L139.053 21.7516C138.572 20.9178 137.369 20.9178 136.888 21.7516L129.677 34.2502C129.196 35.0835 129.798 36.1248 130.76 36.1248H145.181C146.143 36.1248 146.745 35.0835 146.264 34.2502ZM137.97 22.3762L145.181 34.8748H130.76L137.97 22.3762Z" fill="#CB2233"/><path d="M158.645 23.9119V22.8182H166.281V23.9119H163.08V33H161.847V23.9119H158.645ZM169.114 28.4062V33H167.941V22.8182H169.114V26.5568H169.214C169.393 26.1624 169.661 25.8492 170.019 25.6172C170.38 25.3819 170.861 25.2642 171.461 25.2642C171.981 25.2642 172.437 25.3686 172.828 25.5774C173.219 25.7829 173.522 26.0994 173.738 26.527C173.957 26.9512 174.066 27.4915 174.066 28.1477V33H172.893V28.2273C172.893 27.6207 172.735 27.1518 172.42 26.8203C172.109 26.4856 171.676 26.3182 171.123 26.3182C170.738 26.3182 170.394 26.3994 170.089 26.5618C169.787 26.7242 169.549 26.9612 169.373 27.2727C169.201 27.5843 169.114 27.9621 169.114 28.4062ZM176.129 33V25.3636H177.302V33H176.129ZM176.725 24.0909C176.496 24.0909 176.299 24.013 176.133 23.8572C175.971 23.7015 175.89 23.5142 175.89 23.2955C175.89 23.0767 175.971 22.8894 176.133 22.7337C176.299 22.5779 176.496 22.5 176.725 22.5C176.954 22.5 177.149 22.5779 177.312 22.7337C177.477 22.8894 177.56 23.0767 177.56 23.2955C177.56 23.5142 177.477 23.7015 177.312 23.8572C177.149 24.013 176.954 24.0909 176.725 24.0909ZM184.776 27.0739L183.722 27.3722C183.656 27.1965 183.558 27.0258 183.429 26.8601C183.303 26.6911 183.13 26.5518 182.912 26.4425C182.693 26.3331 182.413 26.2784 182.071 26.2784C181.604 26.2784 181.215 26.3861 180.903 26.6016C180.595 26.8137 180.441 27.0838 180.441 27.4119C180.441 27.7036 180.547 27.9339 180.759 28.103C180.971 28.272 181.302 28.4129 181.753 28.5256L182.887 28.804C183.569 28.9697 184.078 29.2232 184.413 29.5646C184.748 29.9027 184.915 30.3385 184.915 30.8722C184.915 31.3097 184.789 31.7008 184.537 32.0455C184.289 32.3902 183.941 32.6619 183.493 32.8608C183.046 33.0597 182.525 33.1591 181.932 33.1591C181.153 33.1591 180.509 32.9901 179.998 32.652C179.488 32.3139 179.165 31.8201 179.029 31.1705L180.142 30.892C180.248 31.303 180.449 31.6113 180.744 31.8168C181.042 32.0223 181.432 32.125 181.912 32.125C182.459 32.125 182.893 32.009 183.215 31.777C183.54 31.5417 183.702 31.2599 183.702 30.9318C183.702 30.6667 183.609 30.4446 183.424 30.2656C183.238 30.0833 182.953 29.9474 182.568 29.858L181.296 29.5597C180.596 29.3939 180.083 29.1371 179.755 28.7891C179.43 28.4377 179.267 27.9986 179.267 27.4716C179.267 27.0407 179.388 26.6596 179.63 26.3281C179.876 25.9967 180.209 25.7365 180.63 25.5476C181.054 25.3587 181.534 25.2642 182.071 25.2642C182.827 25.2642 183.42 25.4299 183.851 25.7614C184.285 26.0928 184.594 26.5303 184.776 27.0739ZM190.451 33V25.3636H191.624V33H190.451ZM191.047 24.0909C190.819 24.0909 190.621 24.013 190.456 23.8572C190.293 23.7015 190.212 23.5142 190.212 23.2955C190.212 23.0767 190.293 22.8894 190.456 22.7337C190.621 22.5779 190.819 22.5 191.047 22.5C191.276 22.5 191.472 22.5779 191.634 22.7337C191.8 22.8894 191.883 23.0767 191.883 23.2955C191.883 23.5142 191.8 23.7015 191.634 23.8572C191.472 24.013 191.276 24.0909 191.047 24.0909ZM199.098 27.0739L198.044 27.3722C197.978 27.1965 197.88 27.0258 197.751 26.8601C197.625 26.6911 197.452 26.5518 197.234 26.4425C197.015 26.3331 196.735 26.2784 196.394 26.2784C195.926 26.2784 195.537 26.3861 195.225 26.6016C194.917 26.8137 194.763 27.0838 194.763 27.4119C194.763 27.7036 194.869 27.9339 195.081 28.103C195.293 28.272 195.625 28.4129 196.075 28.5256L197.209 28.804C197.892 28.9697 198.4 29.2232 198.735 29.5646C199.07 29.9027 199.237 30.3385 199.237 30.8722C199.237 31.3097 199.111 31.7008 198.859 32.0455C198.611 32.3902 198.263 32.6619 197.815 32.8608C197.368 33.0597 196.848 33.1591 196.254 33.1591C195.475 33.1591 194.831 32.9901 194.32 32.652C193.81 32.3139 193.487 31.8201 193.351 31.1705L194.465 30.892C194.571 31.303 194.771 31.6113 195.066 31.8168C195.364 32.0223 195.754 32.125 196.234 32.125C196.781 32.125 197.216 32.009 197.537 31.777C197.862 31.5417 198.024 31.2599 198.024 30.9318C198.024 30.6667 197.931 30.4446 197.746 30.2656C197.56 30.0833 197.275 29.9474 196.891 29.858L195.618 29.5597C194.919 29.3939 194.405 29.1371 194.077 28.7891C193.752 28.4377 193.59 27.9986 193.59 27.4716C193.59 27.0407 193.711 26.6596 193.952 26.3281C194.198 25.9967 194.531 25.7365 194.952 25.5476C195.376 25.3587 195.857 25.2642 196.394 25.2642C197.149 25.2642 197.743 25.4299 198.173 25.7614C198.608 26.0928 198.916 26.5303 199.098 27.0739ZM207.02 33.179C206.536 33.179 206.097 33.0878 205.703 32.9055C205.308 32.7199 204.995 32.4531 204.763 32.1051C204.531 31.7538 204.415 31.3295 204.415 30.8324C204.415 30.3949 204.501 30.0402 204.674 29.7685C204.846 29.4934 205.076 29.2779 205.365 29.1222C205.653 28.9664 205.971 28.8504 206.319 28.7741C206.67 28.6946 207.023 28.6316 207.378 28.5852C207.842 28.5256 208.218 28.4808 208.507 28.451C208.798 28.4179 209.01 28.3632 209.143 28.2869C209.279 28.2107 209.347 28.0781 209.347 27.8892V27.8494C209.347 27.3589 209.213 26.9777 208.944 26.706C208.679 26.4342 208.276 26.2983 207.736 26.2983C207.176 26.2983 206.737 26.4209 206.419 26.6662C206.1 26.9115 205.877 27.1733 205.747 27.4517L204.634 27.054C204.833 26.59 205.098 26.2287 205.429 25.9702C205.764 25.7083 206.129 25.526 206.523 25.4233C206.921 25.3172 207.312 25.2642 207.696 25.2642C207.942 25.2642 208.223 25.294 208.541 25.3537C208.863 25.41 209.173 25.5277 209.471 25.7067C209.773 25.8857 210.023 26.1558 210.222 26.517C210.421 26.8783 210.52 27.3622 210.52 27.9688V33H209.347V31.9659H209.287C209.208 32.1316 209.075 32.3089 208.889 32.4979C208.704 32.6868 208.457 32.8475 208.149 32.9801C207.84 33.1127 207.464 33.179 207.02 33.179ZM207.199 32.125C207.663 32.125 208.054 32.0339 208.372 31.8516C208.694 31.6693 208.936 31.4339 209.098 31.1456C209.264 30.8572 209.347 30.554 209.347 30.2358V29.1619C209.297 29.2216 209.188 29.2763 209.019 29.326C208.853 29.3724 208.661 29.4138 208.442 29.4503C208.227 29.4834 208.016 29.5133 207.811 29.5398C207.608 29.563 207.444 29.5829 207.318 29.5994C207.013 29.6392 206.728 29.7038 206.463 29.7933C206.201 29.8795 205.989 30.0104 205.827 30.1861C205.668 30.3584 205.588 30.5937 205.588 30.892C205.588 31.2997 205.739 31.608 206.041 31.8168C206.346 32.0223 206.732 32.125 207.199 32.125ZM216.431 33V25.3636H217.565V26.5568H217.664C217.823 26.1491 218.08 25.8326 218.435 25.6072C218.789 25.3786 219.215 25.2642 219.712 25.2642C220.216 25.2642 220.635 25.3786 220.97 25.6072C221.308 25.8326 221.572 26.1491 221.761 26.5568H221.84C222.036 26.1624 222.329 25.8492 222.72 25.6172C223.111 25.3819 223.58 25.2642 224.127 25.2642C224.81 25.2642 225.368 25.478 225.803 25.9055C226.237 26.3298 226.454 26.991 226.454 27.8892V33H225.281V27.8892C225.281 27.3258 225.126 26.9231 224.818 26.6811C224.51 26.4392 224.147 26.3182 223.729 26.3182C223.192 26.3182 222.777 26.4806 222.482 26.8054C222.187 27.1269 222.039 27.5346 222.039 28.0284V33H220.846V27.7699C220.846 27.3357 220.705 26.986 220.423 26.7209C220.142 26.4524 219.779 26.3182 219.335 26.3182C219.03 26.3182 218.745 26.3994 218.479 26.5618C218.218 26.7242 218.005 26.9496 217.843 27.2379C217.684 27.523 217.604 27.8527 217.604 28.2273V33H216.431ZM231.717 33.1591C230.981 33.1591 230.346 32.9967 229.813 32.6719C229.282 32.3438 228.873 31.8864 228.585 31.2997C228.3 30.7098 228.157 30.0237 228.157 29.2415C228.157 28.4593 228.3 27.7699 228.585 27.1733C228.873 26.5734 229.274 26.1061 229.788 25.7713C230.305 25.4332 230.908 25.2642 231.597 25.2642C231.995 25.2642 232.388 25.3305 232.776 25.4631C233.164 25.5956 233.517 25.8111 233.835 26.1094C234.153 26.4044 234.406 26.7955 234.595 27.2827C234.784 27.7699 234.879 28.3698 234.879 29.0824V29.5795H228.992V28.5653H233.686C233.686 28.1345 233.599 27.75 233.427 27.4119C233.258 27.0739 233.016 26.8071 232.701 26.6115C232.39 26.416 232.022 26.3182 231.597 26.3182C231.13 26.3182 230.726 26.4342 230.384 26.6662C230.046 26.8949 229.786 27.1932 229.604 27.5611C229.422 27.929 229.33 28.3234 229.33 28.7443V29.4205C229.33 29.9972 229.43 30.486 229.629 30.8871C229.831 31.2848 230.111 31.5881 230.469 31.7969C230.827 32.0024 231.243 32.1051 231.717 32.1051C232.025 32.1051 232.303 32.062 232.552 31.9759C232.804 31.8864 233.021 31.7538 233.203 31.5781C233.386 31.3991 233.526 31.1771 233.626 30.9119L234.759 31.2301C234.64 31.6146 234.44 31.9527 234.158 32.2443C233.876 32.5327 233.528 32.758 233.114 32.9205C232.7 33.0795 232.234 33.1591 231.717 33.1591ZM241.989 27.0739L240.935 27.3722C240.868 27.1965 240.771 27.0258 240.641 26.8601C240.515 26.6911 240.343 26.5518 240.124 26.4425C239.906 26.3331 239.625 26.2784 239.284 26.2784C238.817 26.2784 238.427 26.3861 238.116 26.6016C237.808 26.8137 237.653 27.0838 237.653 27.4119C237.653 27.7036 237.759 27.9339 237.972 28.103C238.184 28.272 238.515 28.4129 238.966 28.5256L240.099 28.804C240.782 28.9697 241.291 29.2232 241.626 29.5646C241.96 29.9027 242.128 30.3385 242.128 30.8722C242.128 31.3097 242.002 31.7008 241.75 32.0455C241.501 32.3902 241.153 32.6619 240.706 32.8608C240.259 33.0597 239.738 33.1591 239.145 33.1591C238.366 33.1591 237.721 32.9901 237.211 32.652C236.701 32.3139 236.377 31.8201 236.241 31.1705L237.355 30.892C237.461 31.303 237.662 31.6113 237.957 31.8168C238.255 32.0223 238.644 32.125 239.125 32.125C239.672 32.125 240.106 32.009 240.428 31.777C240.752 31.5417 240.915 31.2599 240.915 30.9318C240.915 30.6667 240.822 30.4446 240.636 30.2656C240.451 30.0833 240.166 29.9474 239.781 29.858L238.509 29.5597C237.809 29.3939 237.295 29.1371 236.967 28.7891C236.643 28.4377 236.48 27.9986 236.48 27.4716C236.48 27.0407 236.601 26.6596 236.843 26.3281C237.088 25.9967 237.421 25.7365 237.842 25.5476C238.267 25.3587 238.747 25.2642 239.284 25.2642C240.04 25.2642 240.633 25.4299 241.064 25.7614C241.498 26.0928 241.806 26.5303 241.989 27.0739ZM249.219 27.0739L248.165 27.3722C248.099 27.1965 248.001 27.0258 247.872 26.8601C247.746 26.6911 247.573 26.5518 247.355 26.4425C247.136 26.3331 246.856 26.2784 246.515 26.2784C246.047 26.2784 245.658 26.3861 245.346 26.6016C245.038 26.8137 244.884 27.0838 244.884 27.4119C244.884 27.7036 244.99 27.9339 245.202 28.103C245.414 28.272 245.746 28.4129 246.196 28.5256L247.33 28.804C248.013 28.9697 248.521 29.2232 248.856 29.5646C249.191 29.9027 249.358 30.3385 249.358 30.8722C249.358 31.3097 249.232 31.7008 248.98 32.0455C248.732 32.3902 248.384 32.6619 247.936 32.8608C247.489 33.0597 246.969 33.1591 246.375 33.1591C245.596 33.1591 244.952 32.9901 244.441 32.652C243.931 32.3139 243.608 31.8201 243.472 31.1705L244.586 30.892C244.692 31.303 244.892 31.6113 245.187 31.8168C245.485 32.0223 245.875 32.125 246.355 32.125C246.902 32.125 247.337 32.009 247.658 31.777C247.983 31.5417 248.145 31.2599 248.145 30.9318C248.145 30.6667 248.052 30.4446 247.867 30.2656C247.681 30.0833 247.396 29.9474 247.012 29.858L245.739 29.5597C245.04 29.3939 244.526 29.1371 244.198 28.7891C243.873 28.4377 243.711 27.9986 243.711 27.4716C243.711 27.0407 243.832 26.6596 244.073 26.3281C244.319 25.9967 244.652 25.7365 245.073 25.5476C245.497 25.3587 245.978 25.2642 246.515 25.2642C247.27 25.2642 247.863 25.4299 248.294 25.7614C248.729 26.0928 249.037 26.5303 249.219 27.0739ZM253.288 33.179C252.804 33.179 252.365 33.0878 251.97 32.9055C251.576 32.7199 251.263 32.4531 251.03 32.1051C250.798 31.7538 250.682 31.3295 250.682 30.8324C250.682 30.3949 250.769 30.0402 250.941 29.7685C251.113 29.4934 251.344 29.2779 251.632 29.1222C251.92 28.9664 252.239 28.8504 252.587 28.7741C252.938 28.6946 253.291 28.6316 253.646 28.5852C254.11 28.5256 254.486 28.4808 254.774 28.451C255.066 28.4179 255.278 28.3632 255.41 28.2869C255.546 28.2107 255.614 28.0781 255.614 27.8892V27.8494C255.614 27.3589 255.48 26.9777 255.212 26.706C254.946 26.4342 254.544 26.2983 254.004 26.2983C253.443 26.2983 253.004 26.4209 252.686 26.6662C252.368 26.9115 252.144 27.1733 252.015 27.4517L250.901 27.054C251.1 26.59 251.365 26.2287 251.697 25.9702C252.031 25.7083 252.396 25.526 252.79 25.4233C253.188 25.3172 253.579 25.2642 253.964 25.2642C254.209 25.2642 254.491 25.294 254.809 25.3537C255.13 25.41 255.44 25.5277 255.739 25.7067C256.04 25.8857 256.29 26.1558 256.489 26.517C256.688 26.8783 256.788 27.3622 256.788 27.9688V33H255.614V31.9659H255.555C255.475 32.1316 255.343 32.3089 255.157 32.4979C254.971 32.6868 254.724 32.8475 254.416 32.9801C254.108 33.1127 253.732 33.179 253.288 33.179ZM253.467 32.125C253.931 32.125 254.322 32.0339 254.64 31.8516C254.961 31.6693 255.203 31.4339 255.366 31.1456C255.531 30.8572 255.614 30.554 255.614 30.2358V29.1619C255.565 29.2216 255.455 29.2763 255.286 29.326C255.12 29.3724 254.928 29.4138 254.709 29.4503C254.494 29.4834 254.284 29.5133 254.078 29.5398C253.876 29.563 253.712 29.5829 253.586 29.5994C253.281 29.6392 252.996 29.7038 252.731 29.7933C252.469 29.8795 252.257 30.0104 252.094 30.1861C251.935 30.3584 251.856 30.5937 251.856 30.892C251.856 31.2997 252.007 31.608 252.308 31.8168C252.613 32.0223 252.999 32.125 253.467 32.125ZM261.927 36.0227C261.361 36.0227 260.874 35.9498 260.466 35.804C260.058 35.6615 259.718 35.4725 259.447 35.2372C259.178 35.0052 258.964 34.7566 258.805 34.4915L259.74 33.8352C259.846 33.9744 259.98 34.1335 260.143 34.3125C260.305 34.4948 260.527 34.6522 260.809 34.7848C261.094 34.9207 261.467 34.9886 261.927 34.9886C262.544 34.9886 263.053 34.8395 263.454 34.5412C263.855 34.2429 264.055 33.7756 264.055 33.1392V31.5881H263.956C263.87 31.7273 263.747 31.8996 263.588 32.1051C263.432 32.3073 263.207 32.4879 262.912 32.647C262.62 32.8028 262.226 32.8807 261.729 32.8807C261.112 32.8807 260.559 32.7348 260.068 32.4432C259.581 32.1515 259.195 31.7273 258.91 31.1705C258.628 30.6136 258.487 29.9375 258.487 29.142C258.487 28.3598 258.625 27.6787 258.9 27.0987C259.175 26.5154 259.558 26.0646 260.048 25.7464C260.539 25.425 261.106 25.2642 261.749 25.2642C262.246 25.2642 262.64 25.3471 262.932 25.5128C263.227 25.6752 263.452 25.8608 263.608 26.0696C263.767 26.2751 263.89 26.4441 263.976 26.5767H264.095V25.3636H265.229V33.2188C265.229 33.875 265.079 34.4086 264.781 34.8196C264.486 35.2339 264.088 35.5372 263.588 35.7294C263.091 35.925 262.537 36.0227 261.927 36.0227ZM261.888 31.8267C262.358 31.8267 262.756 31.719 263.081 31.5036C263.406 31.2881 263.653 30.9782 263.822 30.5739C263.991 30.1695 264.075 29.6856 264.075 29.1222C264.075 28.572 263.992 28.0864 263.827 27.6655C263.661 27.2446 263.416 26.9148 263.091 26.6761C262.766 26.4375 262.365 26.3182 261.888 26.3182C261.391 26.3182 260.976 26.4441 260.645 26.696C260.317 26.9479 260.07 27.286 259.904 27.7102C259.742 28.1345 259.66 28.6051 259.66 29.1222C259.66 29.6525 259.743 30.1214 259.909 30.5291C260.078 30.9335 260.327 31.2517 260.655 31.4837C260.986 31.7124 261.397 31.8267 261.888 31.8267ZM270.494 33.1591C269.758 33.1591 269.124 32.9967 268.59 32.6719C268.06 32.3438 267.65 31.8864 267.362 31.2997C267.077 30.7098 266.934 30.0237 266.934 29.2415C266.934 28.4593 267.077 27.7699 267.362 27.1733C267.65 26.5734 268.051 26.1061 268.565 25.7713C269.082 25.4332 269.685 25.2642 270.375 25.2642C270.772 25.2642 271.165 25.3305 271.553 25.4631C271.941 25.5956 272.294 25.8111 272.612 26.1094C272.93 26.4044 273.184 26.7955 273.373 27.2827C273.562 27.7699 273.656 28.3698 273.656 29.0824V29.5795H267.77V28.5653H272.463C272.463 28.1345 272.377 27.75 272.204 27.4119C272.035 27.0739 271.793 26.8071 271.478 26.6115C271.167 26.416 270.799 26.3182 270.375 26.3182C269.907 26.3182 269.503 26.4342 269.162 26.6662C268.824 26.8949 268.563 27.1932 268.381 27.5611C268.199 27.929 268.108 28.3234 268.108 28.7443V29.4205C268.108 29.9972 268.207 30.486 268.406 30.8871C268.608 31.2848 268.888 31.5881 269.246 31.7969C269.604 32.0024 270.02 32.1051 270.494 32.1051C270.802 32.1051 271.081 32.062 271.329 31.9759C271.581 31.8864 271.798 31.7538 271.981 31.5781C272.163 31.3991 272.304 31.1771 272.403 30.9119L273.537 31.2301C273.417 31.6146 273.217 31.9527 272.935 32.2443C272.653 32.5327 272.305 32.758 271.891 32.9205C271.477 33.0795 271.011 33.1591 270.494 33.1591Z" fill="#26252A"/><path d="M371.411 23.4419C371.655 23.1979 371.655 22.8021 371.411 22.5581C371.167 22.314 370.771 22.314 370.527 22.5581L365.969 27.1161L361.411 22.5581C361.167 22.314 360.771 22.314 360.527 22.5581C360.283 22.8021 360.283 23.1979 360.527 23.4419L365.085 28L360.527 32.5581C360.283 32.8021 360.283 33.1979 360.527 33.4419C360.771 33.686 361.167 33.686 361.411 33.4419L365.969 28.8839L370.527 33.4419C370.771 33.686 371.167 33.686 371.411 33.4419C371.655 33.1979 371.655 32.8021 371.411 32.5581L366.853 28L371.411 23.4419Z" fill="#26252A"/><rect x="109.969" y="8" width="4" height="40" rx="2" fill="#CB2233"/></svg>