<svg width="1081" height="404" viewBox="0 0 1081 404" fill="none" xmlns="http://www.w3.org/2000/svg"><path fill-rule="evenodd" clip-rule="evenodd" d="M19 30C26.732 30 33 23.732 33 16C33 8.26801 26.732 2 19 2C11.268 2 5 8.26801 5 16C5 23.732 11.268 30 19 30ZM28.1631 23.7488C29.9328 21.6582 31 18.9537 31 16C31 13.0463 29.9328 10.3418 28.1631 8.25116L20.4142 16L28.1631 23.7488ZM26.7488 25.1631C24.6582 26.9328 21.9537 28 19 28C12.3726 28 7 22.6274 7 16C7 9.70934 11.8405 4.54922 18 4.04107V16C18 16.2732 18.1112 16.5282 18.2985 16.7127L26.7488 25.1631ZM20 13.5858V4.04107C22.5624 4.25247 24.8965 5.26893 26.7488 6.83695L20 13.5858Z" fill="#3A3A38"/><path fill-rule="evenodd" clip-rule="evenodd" d="M117.327 5.95463L106 10.0001H104C101.791 10.0001 100 11.791 100 14.0001V16.0001C100 17.4807 100.804 18.7734 102 19.465V24.0001C102 25.1047 102.895 26.0001 104 26.0001H106C107.105 26.0001 108 25.1047 108 24.0001V20.7144L117.327 24.0456C118.63 24.5108 120 23.5452 120 22.1621V7.83812C120 6.45505 118.63 5.48946 117.327 5.95463ZM108 18.5907L118 22.1621V7.83812L108 11.4095V18.5907ZM104 12.0001H106V18.0001H104C102.895 18.0001 102 17.1047 102 16.0001V14.0001C102 12.8955 102.895 12.0001 104 12.0001ZM104 20.0001H106V24.0001H104V20.0001Z" fill="#3A3A38"/><path d="M124.879 12.5356L126.707 10.7072C127.098 10.3167 127.098 9.68353 126.707 9.293C126.317 8.90248 125.684 8.90248 125.293 9.293L123.465 11.1214C123.074 11.512 123.074 12.1451 123.465 12.5356C123.855 12.9262 124.488 12.9262 124.879 12.5356Z" fill="#3A3A38"/><path d="M128 15.3282C128 15.8805 127.552 16.3282 127 16.3282H123C122.448 16.3282 122 15.8805 122 15.3282C122 14.7759 122.448 14.3282 123 14.3282H127C127.552 14.3282 128 14.7759 128 15.3282Z" fill="#3A3A38"/><path d="M126.707 20.1211C127.098 20.5116 127.098 21.1448 126.707 21.5353C126.317 21.9259 125.684 21.9259 125.293 21.5353L123.465 19.7069C123.074 19.3164 123.074 18.6832 123.465 18.2927C123.855 17.9022 124.488 17.9022 124.879 18.2927L126.707 20.1211Z" fill="#3A3A38"/><path fill-rule="evenodd" clip-rule="evenodd" d="M219.302 6.81276C219.816 7.53533 220.174 8.37758 220.328 9.29159L220.993 13.2379C221.154 14.1951 220.842 15.1713 220.156 15.8578L218.75 17.2634C217.578 18.435 215.679 18.435 214.507 17.2634L207.436 10.1923C206.265 9.02077 206.265 7.12128 207.436 5.9497L208.842 4.54406C209.528 3.85761 210.505 3.54576 211.462 3.7071L215.408 4.37219C216.322 4.52628 217.165 4.88435 217.888 5.39845L220.518 2.76799C220.909 2.37747 221.542 2.37747 221.932 2.76799C222.323 3.15852 222.323 3.79168 221.932 4.1822L219.302 6.81276ZM215.922 15.8492C216.312 16.2397 216.945 16.2397 217.336 15.8492L218.741 14.4436C218.97 14.2147 219.074 13.8893 219.02 13.5703L218.355 9.62398C218.072 7.94387 216.756 6.62753 215.076 6.34437L211.129 5.67929C210.81 5.62551 210.485 5.72946 210.256 5.95827L208.851 7.36392C208.46 7.75444 208.46 8.38761 208.851 8.77813L215.922 15.8492Z" fill="#3A3A38"/><path fill-rule="evenodd" clip-rule="evenodd" d="M207.083 13.375C206.693 12.9845 206.059 12.9845 205.669 13.375L203.902 15.1419L203.195 14.4348C202.023 13.2632 200.124 13.2632 198.952 14.4348L197.546 15.8407C196.86 16.5271 196.548 17.5032 196.709 18.4605L197.374 22.4068C197.528 23.321 197.886 24.1634 198.4 24.8861L195.769 27.5169C195.379 27.9075 195.379 28.5406 195.769 28.9312C196.16 29.3217 196.793 29.3217 197.184 28.9312L199.815 26.3003C200.537 26.8143 201.38 27.1724 202.294 27.3264L206.24 27.9914C207.197 28.1527 208.174 27.8408 208.86 27.1544L210.266 25.7485C211.438 24.5769 211.438 22.6774 210.266 21.5058L209.559 20.7986L211.326 19.0314C211.716 18.6409 211.716 18.0078 211.326 17.6172C210.935 17.2267 210.302 17.2267 209.912 17.6172L208.144 19.3844L205.316 16.5561L207.083 14.7893C207.474 14.3987 207.474 13.7656 207.083 13.375ZM201.781 15.849C201.39 15.4585 200.757 15.4585 200.366 15.849L198.961 17.2549C198.732 17.4837 198.628 17.8091 198.682 18.1282L199.346 22.0745C199.63 23.7547 200.946 25.0711 202.626 25.3542L206.573 26.0192C206.892 26.0729 207.217 25.969 207.446 25.7402L208.852 24.3343C209.242 23.9437 209.242 23.3106 208.852 22.92L201.781 15.849Z" fill="#3A3A38"/><path d="M300 12C299.448 12 299 12.4477 299 13C299 13.5523 299.448 14 300 14H308C308.552 14 309 13.5523 309 13C309 12.4477 308.552 12 308 12H300Z" fill="#3A3A38"/><path fill-rule="evenodd" clip-rule="evenodd" d="M318 8C318 9.10457 317.105 10 316 10V26C316 27.1046 315.105 28 314 28H294C292.895 28 292 27.1046 292 26V10C290.895 10 290 9.10457 290 8V6C290 4.89543 290.895 4 292 4H316C317.105 4 318 4.89543 318 6V8ZM316 8H292V6H316V8ZM294 10H314V26H294L294 10Z" fill="#3A3A38"/><path d="M411.707 3.29289C412.098 3.68342 412.098 4.31658 411.707 4.70711L403.414 13H409C409.552 13 410 13.4477 410 14C410 14.5523 409.552 15 409 15H401L400.997 15C400.744 14.9992 400.491 14.9031 400.297 14.7117L400.286 14.7005C400.194 14.6062 400.124 14.498 400.076 14.3828C400.027 14.2649 400 14.1356 400 14V6C400 5.44772 400.448 5 401 5C401.552 5 402 5.44772 402 6V11.5858L410.293 3.29289C410.683 2.90237 411.317 2.90237 411.707 3.29289Z" fill="#3A3A38"/><path d="M386.293 28.7071C385.902 28.3166 385.902 27.6834 386.293 27.2929L394.586 19H389C388.448 19 388 18.5523 388 18C388 17.4477 388.448 17 389 17L397 17L397.003 17C397.256 17.0008 397.509 17.0969 397.703 17.2883L397.714 17.2995C397.806 17.3938 397.876 17.502 397.924 17.6172C397.973 17.7351 398 17.8644 398 18L398 26C398 26.5523 397.552 27 397 27C396.448 27 396 26.5523 396 26L396 20.4142L387.707 28.7071C387.317 29.0976 386.683 29.0976 386.293 28.7071Z" fill="#3A3A38"/><path d="M487.757 25C487.757 24.4477 488.205 24 488.757 24H504.757C505.31 24 505.757 24.4477 505.757 25C505.757 25.5523 505.31 26 504.757 26H488.757C488.205 26 487.757 25.5523 487.757 25Z" fill="#3A3A38"/><path fill-rule="evenodd" clip-rule="evenodd" d="M492.757 8.41421L485.586 15.5858C484.805 16.3668 484.805 17.6332 485.586 18.4142L490.343 23.1716C491.124 23.9526 492.391 23.9526 493.172 23.1716L500.343 16L492.757 8.41421ZM491.909 6.43431C492.377 5.96568 493.137 5.96569 493.606 6.43431L501.757 14.5858C502.538 15.3668 502.538 16.6332 501.757 17.4142L494.586 24.5858C493.024 26.1479 490.491 26.1479 488.929 24.5858L484.172 19.8284C482.609 18.2663 482.609 15.7337 484.172 14.1716L491.909 6.43431Z" fill="#3A3A38"/><path fill-rule="evenodd" clip-rule="evenodd" d="M487.757 7C487.757 6.44772 488.205 6 488.757 6H492.757C493.31 6 493.757 6.44772 493.757 7C493.757 7.55228 493.31 8 492.757 8H488.757C488.205 8 487.757 7.55228 487.757 7Z" fill="#3A3A38"/><path fill-rule="evenodd" clip-rule="evenodd" d="M501.307 15C501.86 15 502.307 15.4477 502.307 16V24.5C502.307 25.0523 501.86 25.5 501.307 25.5C500.755 25.5 500.307 25.0523 500.307 24.5V16C500.307 15.4477 500.755 15 501.307 15Z" fill="#3A3A38"/><path fill-rule="evenodd" clip-rule="evenodd" d="M589 2C588.448 2 588 2.44772 588 3V4C588 4.01652 588 4.03294 588.001 4.04926C582.947 4.55043 579 8.81424 579 14V16.1265C579 17.3136 578.473 18.4394 577.561 19.1994L577.103 19.5811C576.404 20.1633 576 21.0259 576 21.9354C576 23.6279 577.372 25 579.065 25H584C584 27.7614 586.239 30 589 30C591.761 30 594 27.7614 594 25H598.818C600.575 25 602 23.5754 602 21.818C602 20.9741 601.665 20.1648 601.068 19.568L600.172 18.6716C599.421 17.9214 599 16.904 599 15.8431V14C599 8.81424 595.053 4.55043 589.999 4.04926C590 4.03294 590 4.01652 590 4V3C590 2.44772 589.552 2 589 2ZM597 14C597 9.58172 593.418 6 589 6C584.582 6 581 9.58172 581 14V17.0633C581 18.2504 580.473 19.3762 579.561 20.1361L578.383 21.1175C578.14 21.3198 578 21.6194 578 21.9354C578 22.5234 578.477 23 579.065 23H598.818C599.471 23 600 22.4708 600 21.818C600 21.5045 599.875 21.2039 599.654 20.9822L598.172 19.5C597.421 18.7499 597 17.7324 597 16.6716V14ZM592 25H586C586 26.6569 587.343 28 589 28C590.657 28 592 26.6569 592 25Z" fill="#3A3A38"/><path fill-rule="evenodd" clip-rule="evenodd" d="M685.038 1.65147C684.718 1.33779 684.241 1.24659 683.828 1.42009C683.415 1.59358 683.146 1.99791 683.146 2.44595V7.81065C683.146 7.82766 683.146 7.84458 683.147 7.8614V13.7294L677.891 8.58216C677.452 8.1522 676.748 8.15956 676.318 8.59861C675.888 9.03765 675.895 9.74212 676.334 10.1721L682.402 16.1147L676.334 22.058C675.895 22.488 675.888 23.1925 676.318 23.6315C676.748 24.0705 677.452 24.0778 677.891 23.6479L683.147 18.5V19.9492C683.146 19.966 683.146 19.9829 683.146 19.9999V29.7841C683.146 30.2322 683.415 30.6365 683.828 30.81C684.241 30.9835 684.718 30.8922 685.038 30.5785L691.879 23.8692C692.092 23.6598 692.212 23.3734 692.212 23.0744C692.212 22.7754 692.092 22.489 691.878 22.2798L685.583 16.1146L691.878 9.94847C692.092 9.73925 692.212 9.45286 692.212 9.15386C692.212 8.85486 692.092 8.56841 691.879 8.35907L685.038 1.65147ZM685.367 13.2108L689.51 9.15313L685.371 5.09521V7.81065C685.371 7.84349 685.37 7.87599 685.367 7.9081V13.2108ZM685.367 19.9025V19.0182L689.51 23.0754L685.371 27.1344V19.9999C685.371 19.9671 685.37 19.9346 685.367 19.9025Z" fill="#3A3A38"/><path d="M770 9C769.448 9 769 9.44772 769 10C769 10.5523 769.448 11 770 11H772C772.552 11 773 10.5523 773 10C773 9.44772 772.552 9 772 9H770Z" fill="#3A3A38"/><path d="M769 14C769 13.4477 769.448 13 770 13H775C775.552 13 776 13.4477 776 14C776 14.5523 775.552 15 775 15H770C769.448 15 769 14.5523 769 14Z" fill="#3A3A38"/><path d="M770 17C769.448 17 769 17.4477 769 18C769 18.5523 769.448 19 770 19H775C775.552 19 776 18.5523 776 18C776 17.4477 775.552 17 775 17H770Z" fill="#3A3A38"/><path fill-rule="evenodd" clip-rule="evenodd" d="M778.127 26.1258L778.564 26.3297C778.672 26.3823 778.789 26.4159 778.911 26.427C778.968 26.4321 779.024 26.4323 779.079 26.4278C779.204 26.4177 779.325 26.3837 779.436 26.3297L779.873 26.1258C781.462 25.3843 783.194 25 784.948 25H791C792.105 25 793 24.1046 793 23V7C793 5.89543 792.105 5 791 5H784.948C783.194 5 781.462 5.38428 779.873 6.1258L779 6.53333L778.127 6.1258C776.538 5.38428 774.806 5 773.052 5H767C765.895 5 765 5.89543 765 7V23C765 24.1046 765.895 25 767 25H773.052C774.806 25 776.538 25.3843 778.127 26.1258ZM778 8.27373L777.281 7.93817C775.957 7.32023 774.513 7 773.052 7H767L767 23H773.052C774.745 23 776.421 23.3071 778 23.9035V8.27373ZM784.948 23C783.255 23 781.579 23.3071 780 23.9035V8.27373L780.719 7.93817C782.043 7.32023 783.487 7 784.948 7H791V23H784.948Z" fill="#3A3A38"/><path fill-rule="evenodd" clip-rule="evenodd" d="M867 8C867 5.79086 868.791 4 871 4H877C879.209 4 881 5.79086 881 8H884C886.209 8 888 9.79086 888 12V24C888 26.2091 886.209 28 884 28H864C861.791 28 860 26.2091 860 24V12C860 9.79086 861.791 8 864 8H867ZM871 6H877C878.105 6 879 6.89543 879 8H869C869 6.89543 869.895 6 871 6ZM864 10C862.895 10 862 10.8954 862 12V24C862 25.1046 862.895 26 864 26H884C885.105 26 886 25.1046 886 24V12C886 10.8954 885.105 10 884 10H864Z" fill="#3A3A38"/><path fill-rule="evenodd" clip-rule="evenodd" d="M961.032 9.44618C960.436 9.79807 959.742 10 959 10C956.791 10 955 8.20914 955 6C955 3.79086 956.791 2 959 2C961.209 2 963 3.79086 963 6C963 6.74181 962.798 7.43645 962.446 8.03197L966.243 11.8284C967.033 11.3049 967.981 11 969 11C970.019 11 970.967 11.3049 971.757 11.8284L974.292 9.29342C974.105 8.90178 974 8.46315 974 8C974 6.34315 975.343 5 977 5C978.657 5 980 6.34315 980 8C980 9.65685 978.657 11 977 11C976.537 11 976.098 10.895 975.707 10.7076L973.172 13.2426C973.695 14.033 974 14.9809 974 16C974 17.0191 973.695 17.967 973.172 18.7574L976.968 22.5538C977.564 22.2019 978.258 22 979 22C981.209 22 983 23.7909 983 26C983 28.2091 981.209 30 979 30C976.791 30 975 28.2091 975 26C975 25.2582 975.202 24.5635 975.554 23.968L971.757 20.1716C970.967 20.6951 970.019 21 969 21C967.981 21 967.033 20.6951 966.243 20.1716L963.708 22.7066C963.895 23.0982 964 23.5369 964 24C964 25.6569 962.657 27 961 27C959.343 27 958 25.6569 958 24C958 22.3431 959.343 21 961 21C961.463 21 961.902 21.105 962.293 21.2924L964.828 18.7574C964.305 17.967 964 17.0191 964 16C964 14.9809 964.305 14.033 964.828 13.2426L961.032 9.44618ZM961 6C961 7.10457 960.105 8 959 8C957.895 8 957 7.10457 957 6C957 4.89543 957.895 4 959 4C960.105 4 961 4.89543 961 6ZM977 9C977.552 9 978 8.55228 978 8C978 7.44772 977.552 7 977 7C976.448 7 976 7.44772 976 8C976 8.55228 976.448 9 977 9ZM969 19C970.657 19 972 17.6569 972 16C972 14.3431 970.657 13 969 13C967.343 13 966 14.3431 966 16C966 17.6569 967.343 19 969 19ZM979 28C980.105 28 981 27.1046 981 26C981 24.8954 980.105 24 979 24C977.895 24 977 24.8954 977 26C977 27.1046 977.895 28 979 28ZM962 24C962 24.5523 961.552 25 961 25C960.448 25 960 24.5523 960 24C960 23.4477 960.448 23 961 23C961.552 23 962 23.4477 962 24Z" fill="#3A3A38"/><path d="M1063 4H1074C1075.1 4 1076 4.89543 1076 6V17C1076 18.1046 1075.1 19 1074 19H1069V21H1074C1076.21 21 1078 19.2091 1078 17V6C1078 3.79086 1076.21 2 1074 2H1063C1060.79 2 1059 3.79086 1059 6V11H1061V6C1061 4.89543 1061.9 4 1063 4Z" fill="#3A3A38"/><path fill-rule="evenodd" clip-rule="evenodd" d="M1065 13H1054C1052.9 13 1052 13.8954 1052 15V26C1052 27.1046 1052.9 28 1054 28H1065C1066.1 28 1067 27.1046 1067 26V15C1067 13.8954 1066.1 13 1065 13ZM1054 11C1051.79 11 1050 12.7909 1050 15V26C1050 28.2091 1051.79 30 1054 30H1065C1067.21 30 1069 28.2091 1069 26V15C1069 12.7909 1067.21 11 1065 11H1054Z" fill="#3A3A38"/><path fill-rule="evenodd" clip-rule="evenodd" d="M6.06693 109C6.06693 102.962 10.9619 98.0667 17.0003 98.0667C23.0386 98.0667 27.9336 102.962 27.9336 109C27.9336 111.801 26.8818 114.354 25.1499 116.289C24.757 116.728 24.7944 117.402 25.2333 117.795C25.6723 118.188 26.3466 118.15 26.7395 117.711C28.8079 115.4 30.0669 112.346 30.0669 109C30.0669 101.783 24.2168 95.9333 17.0003 95.9333C9.78374 95.9333 3.93359 101.783 3.93359 109C3.93359 112.346 5.19259 115.4 7.26102 117.711C7.65391 118.15 8.32825 118.188 8.76721 117.795C9.20617 117.402 9.24353 116.728 8.85065 116.289C7.11875 114.354 6.06693 111.801 6.06693 109ZM17.0003 102.067C13.1711 102.067 10.0669 105.171 10.0669 109C10.0669 110.776 10.7336 112.395 11.8321 113.622C12.225 114.061 12.1876 114.735 11.7487 115.128C11.3097 115.521 10.6354 115.484 10.2425 115.045C8.80746 113.441 7.93359 111.321 7.93359 109C7.93359 103.993 11.9929 99.9333 17.0003 99.9333C22.0076 99.9333 26.0669 103.993 26.0669 109C26.0669 111.321 25.1931 113.441 23.758 115.045C23.3651 115.484 22.6908 115.521 22.2518 115.128C21.8129 114.735 21.7755 114.061 22.1684 113.622C23.2669 112.395 23.9336 110.776 23.9336 109C23.9336 105.171 20.8294 102.067 17.0003 102.067ZM16.0669 109C16.0669 108.485 16.4848 108.067 17.0003 108.067C17.5157 108.067 17.9336 108.485 17.9336 109C17.9336 109.515 17.5157 109.933 17.0003 109.933C16.4848 109.933 16.0669 109.515 16.0669 109ZM17.0003 105.933C15.3066 105.933 13.9336 107.306 13.9336 109C13.9336 110.694 15.3066 112.067 17.0003 112.067C18.6939 112.067 20.0669 110.694 20.0669 109C20.0669 107.306 18.6939 105.933 17.0003 105.933ZM14.4065 119.867L17.0003 116.497L19.594 119.867H14.4065ZM15.9437 114.372C16.4775 113.679 17.5231 113.679 18.0568 114.372L22.276 119.853C22.9509 120.73 22.3259 122 21.2194 122H12.7811C11.6747 122 11.0496 120.73 11.7246 119.853L15.9437 114.372Z" fill="#3A3A38"/><path fill-rule="evenodd" clip-rule="evenodd" d="M98 97C98 95.8954 98.8954 95 100 95H109C110.105 95 111 95.8954 111 97V111C111 112.105 110.105 113 109 113H100C98.8954 113 98 112.105 98 111V97ZM100 97H109V111H100L100 97Z" fill="#3A3A38"/><path fill-rule="evenodd" clip-rule="evenodd" d="M113 97C113 95.8954 113.895 95 115 95H124C125.105 95 126 95.8954 126 97V101C126 102.105 125.105 103 124 103H115C113.895 103 113 102.105 113 101V97ZM115 97H124V101H115V97Z" fill="#3A3A38"/><path fill-rule="evenodd" clip-rule="evenodd" d="M115 105C113.895 105 113 105.895 113 107V121C113 122.105 113.895 123 115 123H124C125.105 123 126 122.105 126 121V107C126 105.895 125.105 105 124 105H115ZM124 107H115V121H124V107Z" fill="#3A3A38"/><path fill-rule="evenodd" clip-rule="evenodd" d="M98 117C98 115.895 98.8954 115 100 115H109C110.105 115 111 115.895 111 117V121C111 122.105 110.105 123 109 123H100C98.8954 123 98 122.105 98 121V117ZM100 117H109V121H100L100 117Z" fill="#3A3A38"/><path fill-rule="evenodd" clip-rule="evenodd" d="M219 96C220.105 96 221 96.8954 221 98V104C221 104.364 220.903 104.706 220.732 105C220.903 105.294 221 105.636 221 106V112C221 112.364 220.903 112.706 220.732 113C220.903 113.294 221 113.636 221 114V120C221 121.105 220.105 122 219 122H195C193.895 122 193 121.105 193 120V114C193 113.636 193.097 113.294 193.268 113C193.097 112.706 193 112.364 193 112V106C193 105.636 193.097 105.294 193.268 105C193.097 104.706 193 104.364 193 104V98C193 96.8954 193.895 96 195 96H219ZM209 98H205V100H209V98ZM203 100V98H199V100H203ZM195 112H219V106H211V108C211 109.105 210.105 110 209 110H199C197.895 110 197 109.105 197 108V106H195L195 112ZM219 114H211V116C211 117.105 210.105 118 209 118H199C197.895 118 197 117.105 197 116V114H195L195 120H219V114ZM199 114V116H203V114H199ZM205 114V116H209V114H205ZM219 98V104H195V98L197 98V100C197 101.105 197.895 102 199 102H209C210.105 102 211 101.105 211 100V98H219ZM199 108V106H203V108H199ZM205 108V106H209V108H205Z" fill="#3A3A38"/><path fill-rule="evenodd" clip-rule="evenodd" d="M307 104C307 106.209 305.209 108 303 108C300.791 108 299 106.209 299 104C299 101.791 300.791 100 303 100C305.209 100 307 101.791 307 104ZM305 104C305 105.105 304.105 106 303 106C301.895 106 301 105.105 301 104C301 102.895 301.895 102 303 102C304.105 102 305 102.895 305 104Z" fill="#3A3A38"/><path fill-rule="evenodd" clip-rule="evenodd" d="M303 118C306.314 118 309 116.209 309 114C309 111.791 306.314 110 303 110C299.686 110 297 111.791 297 114C297 116.209 299.686 118 303 118ZM306.133 115.164C306.861 114.679 307 114.228 307 114C307 113.772 306.861 113.321 306.133 112.836C305.419 112.36 304.317 112 303 112C301.683 112 300.581 112.36 299.867 112.836C299.139 113.321 299 113.772 299 114C299 114.228 299.139 114.679 299.867 115.164C300.581 115.64 301.683 116 303 116C304.317 116 305.419 115.64 306.133 115.164Z" fill="#3A3A38"/><path fill-rule="evenodd" clip-rule="evenodd" d="M290 110V113H289C288.448 113 288 113.448 288 114C288 114.552 288.448 115 289 115H290V117C290 120.314 292.686 123 296 123H310C313.314 123 316 120.314 316 117V101C316 97.6863 313.314 95 310 95H296C292.686 95 290 97.6863 290 101V103H289C288.448 103 288 103.448 288 104C288 104.552 288.448 105 289 105H290V108H289C288.448 108 288 108.448 288 109C288 109.552 288.448 110 289 110H290ZM296 97H310C312.209 97 314 98.7909 314 101V117C314 119.209 312.209 121 310 121H296C293.791 121 292 119.209 292 117V101C292 98.7909 293.791 97 296 97Z" fill="#3A3A38"/><path d="M390.293 108.293C390.683 107.902 391.317 107.902 391.707 108.293L396 112.586L396 95.9286C396 95.4157 396.448 95 397 95C397.552 95 398 95.4157 398 95.9286L398 112.586L402.293 108.293C402.683 107.902 403.317 107.902 403.707 108.293C404.098 108.683 404.098 109.317 403.707 109.707L397.707 115.707C397.317 116.098 396.683 116.098 396.293 115.707L390.293 109.707C389.902 109.317 389.902 108.683 390.293 108.293Z" fill="#3A3A38"/><path d="M386 115C385.448 115 385 115.448 385 116V121C385 122.105 385.895 123 387 123H407C408.105 123 409 122.105 409 121V116C409 115.448 408.552 115 408 115C407.448 115 407 115.448 407 116V121H387V116C387 115.448 386.552 115 386 115Z" fill="#3A3A38"/><path d="M492.001 105C491.449 105 491.001 105.448 491.001 106V113C491.001 113.552 491.449 114 492.001 114C492.554 114 493.001 113.552 493.001 113V106C493.001 105.448 492.554 105 492.001 105Z" fill="#3A3A38"/><path d="M493.001 117C493.001 117.552 492.554 118 492.001 118C491.449 118 491.001 117.552 491.001 117C491.001 116.448 491.449 116 492.001 116C492.554 116 493.001 116.448 493.001 117Z" fill="#3A3A38"/><path fill-rule="evenodd" clip-rule="evenodd" d="M505.271 119L493.733 99.0025C492.964 97.6684 491.038 97.6684 490.269 99.0025L478.732 119C477.962 120.334 478.925 122 480.464 122H503.538C505.078 122 506.04 120.334 505.271 119ZM492.001 100.002L503.538 120H480.464L492.001 100.002Z" fill="#3A3A38"/><path d="M592.994 112.995C593.326 113.327 593.377 113.854 593.071 114.21C591.604 115.918 589.428 117 587 117C584.571 117 582.396 115.918 580.928 114.21C580.623 113.854 580.673 113.327 581.006 112.995C581.449 112.551 582.192 112.644 582.621 113.102C583.716 114.27 585.273 115 587 115C588.727 115 590.284 114.27 591.379 113.102C591.808 112.644 592.551 112.551 592.994 112.995Z" fill="#3A3A38"/><path d="M584 106C584 107.105 583.105 108 582 108C580.895 108 580 107.105 580 106C580 104.895 580.895 104 582 104C583.105 104 584 104.895 584 106Z" fill="#3A3A38"/><path d="M592 108C593.105 108 594 107.105 594 106C594 104.895 593.105 104 592 104C590.895 104 590 104.895 590 106C590 107.105 590.895 108 592 108Z" fill="#3A3A38"/><path fill-rule="evenodd" clip-rule="evenodd" d="M601 109C601 116.732 594.732 123 587 123C579.268 123 573 116.732 573 109C573 101.268 579.268 95 587 95C594.732 95 601 101.268 601 109ZM599 109C599 115.627 593.627 121 587 121C580.373 121 575 115.627 575 109C575 102.373 580.373 97 587 97C593.627 97 599 102.373 599 109Z" fill="#3A3A38"/><path fill-rule="evenodd" clip-rule="evenodd" d="M684.846 97.254C683.134 96.0686 680.866 96.0686 679.154 97.254L670.154 103.485C668.805 104.419 668 105.955 668 107.596V118C668 120.761 670.239 123 673 123H691C693.761 123 696 120.761 696 118V107.596C696 105.955 695.195 104.419 693.846 103.485L684.846 97.254ZM680.292 98.8984C681.32 98.1872 682.68 98.1872 683.708 98.8984L692.708 105.129C692.792 105.188 692.873 105.25 692.95 105.316L683.219 112.8C683.149 112.855 683.075 112.904 683 112.947V105L685.4 106.8C685.842 107.131 686.469 107.042 686.8 106.6C687.131 106.158 687.042 105.531 686.6 105.2L682.6 102.2C682.245 101.933 681.756 101.933 681.4 102.2L677.4 105.2C676.958 105.531 676.869 106.158 677.2 106.6C677.531 107.042 678.158 107.131 678.6 106.8L681 105V112.947C680.924 112.904 680.851 112.855 680.781 112.8L671.05 105.316C671.127 105.25 671.208 105.188 671.292 105.129L680.292 98.8984ZM670.047 107.067C670.016 107.24 670 107.417 670 107.596V118C670 119.657 671.343 121 673 121H691C692.657 121 694 119.657 694 118V107.596C694 107.417 693.984 107.24 693.953 107.067L684.439 114.386C683.001 115.492 680.999 115.492 679.561 114.386L670.047 107.067Z" fill="#3A3A38"/><path fill-rule="evenodd" clip-rule="evenodd" d="M781.998 109C781.998 111.761 779.76 114 776.998 114C774.237 114 771.998 111.761 771.998 109C771.998 106.239 774.237 104 776.998 104C779.76 104 781.998 106.239 781.998 109ZM779.998 109C779.998 110.657 778.655 112 776.998 112C775.342 112 773.998 110.657 773.998 109C773.998 107.343 775.342 106 776.998 106C778.655 106 779.998 107.343 779.998 109Z" fill="#3A3A38"/><path fill-rule="evenodd" clip-rule="evenodd" d="M773.034 97.5966C773.034 96.1711 774.189 95 775.615 95H778.382C779.808 95 780.963 96.1711 780.963 97.5966C780.963 99.5694 783.102 100.826 784.807 99.8328C786.034 99.1181 787.608 99.5399 788.313 100.772L789.72 103.231C790.428 104.467 790.006 106.042 788.775 106.759C787.057 107.76 787.057 110.24 788.775 111.241C790.006 111.958 790.428 113.533 789.72 114.769L788.313 117.228C787.608 118.46 786.034 118.882 784.807 118.167C783.102 117.174 780.963 118.431 780.963 120.403C780.963 121.829 779.808 123 778.382 123H775.615C774.189 123 773.034 121.829 773.034 120.403C773.034 118.431 770.894 117.174 769.19 118.167C767.963 118.882 766.389 118.46 765.683 117.228L764.276 114.769C763.569 113.533 763.991 111.958 765.222 111.241C766.939 110.24 766.939 107.76 765.222 106.759C763.991 106.042 763.569 104.467 764.276 103.231L765.683 100.772C766.389 99.5399 767.963 99.1182 769.19 99.8328C770.894 100.826 773.034 99.5694 773.034 97.5966ZM775.615 97H778.382C778.687 97 778.963 97.2601 778.963 97.5966C778.963 101.077 782.745 103.348 785.814 101.561C786.081 101.405 786.424 101.497 786.577 101.766L787.984 104.224C788.146 104.507 788.05 104.867 787.768 105.031C784.726 106.803 784.726 111.197 787.768 112.969C788.05 113.133 788.146 113.493 787.984 113.776L786.577 116.234C786.424 116.503 786.081 116.595 785.814 116.439C782.745 114.652 778.963 116.923 778.963 120.403C778.963 120.74 778.687 121 778.382 121H775.615C775.309 121 775.034 120.74 775.034 120.403C775.034 116.923 771.252 114.652 768.183 116.439C767.916 116.595 767.573 116.503 767.419 116.234L766.012 113.776C765.851 113.493 765.947 113.133 766.229 112.969C769.27 111.197 769.27 106.803 766.229 105.031C765.947 104.867 765.851 104.507 766.012 104.224L767.419 101.766C767.573 101.497 767.916 101.405 768.183 101.561C771.252 103.348 775.034 101.077 775.034 97.5966C775.034 97.2601 775.309 97 775.615 97Z" fill="#3A3A38"/><path d="M863 103C862.448 103 862 103.448 862 104C862 104.552 862.448 105 863 105H872C872.552 105 873 104.552 873 104C873 103.448 872.552 103 872 103H863Z" fill="#3A3A38"/><path d="M862 112C862 111.448 862.448 111 863 111H865C865.552 111 866 111.448 866 112C866 112.552 865.552 113 865 113H863C862.448 113 862 112.552 862 112Z" fill="#3A3A38"/><path d="M869 111C868.448 111 868 111.448 868 112C868 112.552 868.448 113 869 113H877C877.552 113 878 112.552 878 112C878 111.448 877.552 111 877 111H869Z" fill="#3A3A38"/><path d="M871 108C871 107.448 871.448 107 872 107H881C881.552 107 882 107.448 882 108C882 108.552 881.552 109 881 109H872C871.448 109 871 108.552 871 108Z" fill="#3A3A38"/><path d="M877 115C876.448 115 876 115.448 876 116C876 116.552 876.448 117 877 117H880C880.552 117 881 116.552 881 116C881 115.448 880.552 115 880 115H877Z" fill="#3A3A38"/><path fill-rule="evenodd" clip-rule="evenodd" d="M858 99V119C858 121.209 859.791 123 862 123H882C884.209 123 886 121.209 886 119V99C886 96.7909 884.209 95 882 95H862C859.791 95 858 96.7909 858 99ZM862 97C860.895 97 860 97.8954 860 99L884 99C884 97.8954 883.105 97 882 97H862ZM884 119V101H860V119C860 120.105 860.895 121 862 121H882C883.105 121 884 120.105 884 119Z" fill="#3A3A38"/><path fill-rule="evenodd" clip-rule="evenodd" d="M974.681 97.8359C975.329 97.6176 976 98.0997 976 98.7836V111.535C975.412 111.195 974.729 111 974 111C971.791 111 970 112.791 970 115C970 117.209 971.791 119 974 119C976.209 119 978 117.209 978 115C978 114.806 977.986 114.615 977.959 114.428H978V98.7836C978 96.7321 975.987 95.2857 974.043 95.9404L964.043 99.3078C962.822 99.7188 962 100.863 962 102.151V115.535C961.412 115.195 960.729 115 960 115C957.791 115 956 116.791 956 119C956 121.209 957.791 123 960 123C962.209 123 964 121.209 964 119C964 119 964 119 964 119V102.151C964 101.722 964.274 101.34 964.681 101.203L974.681 97.8359ZM962 119C962 117.895 961.104 117 960 117C958.895 117 958 117.895 958 119C958 120.105 958.895 121 960 121C961.105 121 962 120.104 962 119C962 119 962 119 962 119ZM974 117C975.105 117 976 116.105 976 115C976 113.895 975.105 113 974 113C972.895 113 972 113.895 972 115C972 116.105 972.895 117 974 117Z" fill="#3A3A38"/><path fill-rule="evenodd" clip-rule="evenodd" d="M1068 107C1070.21 107 1072 105.209 1072 103C1072 100.791 1070.21 99 1068 99C1065.79 99 1064 100.791 1064 103C1064 105.209 1065.79 107 1068 107ZM1068 105C1069.1 105 1070 104.105 1070 103C1070 101.895 1069.1 101 1068 101C1066.9 101 1066 101.895 1066 103C1066 104.105 1066.9 105 1068 105Z" fill="#3A3A38"/><path fill-rule="evenodd" clip-rule="evenodd" d="M1048 114V119C1048 121.209 1049.79 123 1052 123H1072C1074.21 123 1076 121.209 1076 119V99C1076 96.7909 1074.21 95 1072 95H1052C1049.79 95 1048 96.7909 1048 99V114C1048 114 1048 114 1048 114ZM1072 97H1052C1050.9 97 1050 97.8954 1050 99V111.586L1055.29 106.293C1055.68 105.902 1056.32 105.902 1056.71 106.293L1062 111.586L1064.29 109.293C1064.68 108.902 1065.32 108.902 1065.71 109.293L1074 117.586V99C1074 97.8954 1073.1 97 1072 97ZM1073.68 120.091L1065 111.414L1062.71 113.707C1062.32 114.098 1061.68 114.098 1061.29 113.707L1056 108.414L1050 114.414V119C1050 120.105 1050.9 121 1052 121H1072C1072.7 121 1073.32 120.638 1073.68 120.091Z" fill="#3A3A38"/><path fill-rule="evenodd" clip-rule="evenodd" d="M4 189C4 188.448 4.44772 188 5 188H27C27.5523 188 28 188.448 28 189C28 189.552 27.5523 190 27 190H25.0001V191.12C25.0001 193.879 23.5791 196.442 21.2401 197.904L20.546 198.338C18.9709 199.322 18.6598 201.487 19.8937 202.875L22.9794 206.346C24.281 207.811 25.0001 209.702 25.0001 211.661V214H27C27.5523 214 28 214.448 28 215C28 215.552 27.5523 216 27 216H5C4.44772 216 4 215.552 4 215C4 214.448 4.44772 214 5 214H6.99992V211.661C6.99992 209.702 7.71895 207.811 9.02065 206.346L12.1063 202.875C13.3402 201.487 13.0291 199.322 11.454 198.338L10.7599 197.904C8.42088 196.442 6.99992 193.879 6.99992 191.12V190H5C4.44772 190 4 189.552 4 189ZM17.8001 209.1L23.0001 213V211.661C23.0001 210.192 22.4608 208.774 21.4845 207.675L18.3989 204.204C18.2861 204.077 18.1811 203.946 18.0837 203.812L17.6641 204.092C16.6564 204.764 15.3436 204.764 14.3359 204.092L13.9163 203.812C13.8189 203.946 13.7139 204.077 13.6011 204.204L10.5155 207.675C9.53919 208.774 8.99992 210.192 8.99992 211.661V213L14.2001 209.1C15.2668 208.3 16.7334 208.3 17.8001 209.1ZM16.6001 210.7L21.0001 214H11.0001L15.4001 210.7C15.7557 210.433 16.2445 210.433 16.6001 210.7ZM17.2521 201.963L16.5547 202.428C16.2188 202.652 15.7812 202.652 15.4453 202.428L14.7479 201.963C15.1848 199.977 14.3837 197.811 12.514 196.642L11.8199 196.208C11.1043 195.761 10.5032 195.176 10.0423 194.5H21.9577C21.4968 195.176 20.8957 195.761 20.1801 196.208L19.486 196.642C17.6163 197.811 16.8152 199.977 17.2521 201.963ZM22.8394 192.5H9.1606C9.05496 192.053 8.99992 191.59 8.99992 191.12V190H23.0001V191.12C23.0001 191.59 22.945 192.053 22.8394 192.5Z" fill="#3A3A38"/><path fill-rule="evenodd" clip-rule="evenodd" d="M106.5 196C108.433 196 110 194.433 110 192.5C110 190.567 108.433 189 106.5 189C104.911 189 103.569 190.059 103.142 191.51C103.096 191.503 103.048 191.5 103 191.5H101C99.8954 191.5 99 192.395 99 193.5V203C99 204.105 99.8954 205 101 205H111.973C111.982 205 111.991 205 112 205C112.009 205 112.018 205 112.027 205H117.5V211.5H111.855C111.425 210.054 110.086 209 108.5 209C106.567 209 105 210.567 105 212.5C105 214.433 106.567 216 108.5 216C110.086 216 111.425 214.946 111.855 213.5H117.5C118.605 213.5 119.5 212.605 119.5 211.5V205C119.5 203.895 118.605 203 117.5 203H113V198.5H115.145C115.575 199.946 116.914 201 118.5 201C120.433 201 122 199.433 122 197.5C122 195.567 120.433 194 118.5 194C116.914 194 115.575 195.054 115.145 196.5H113C111.895 196.5 111 197.395 111 198.5V203H101V193.5H103C103.048 193.5 103.096 193.497 103.142 193.49C103.569 194.941 104.911 196 106.5 196ZM106.5 194C107.328 194 108 193.328 108 192.5C108 191.672 107.328 191 106.5 191C105.672 191 105 191.672 105 192.5C105 193.328 105.672 194 106.5 194ZM117 197.5C117 198.328 117.672 199 118.5 199C119.328 199 120 198.328 120 197.5C120 196.672 119.328 196 118.5 196C117.672 196 117 196.672 117 197.5ZM108.5 211C109.328 211 110 211.672 110 212.5C110 213.328 109.328 214 108.5 214C107.672 214 107 213.328 107 212.5C107 211.672 107.672 211 108.5 211Z" fill="#3A3A38"/><path d="M207 190C207 189.448 206.552 189 206 189C205.448 189 205 189.448 205 190V194C205 194.552 205.448 195 206 195C206.552 195 207 194.552 207 194V190Z" fill="#3A3A38"/><path d="M193 201C192.448 201 192 201.448 192 202C192 202.552 192.448 203 193 203H197C197.552 203 198 202.552 198 202C198 201.448 197.552 201 197 201H193Z" fill="#3A3A38"/><path d="M214 202C214 201.448 214.448 201 215 201H219C219.552 201 220 201.448 220 202C220 202.552 219.552 203 219 203H215C214.448 203 214 202.552 214 202Z" fill="#3A3A38"/><path d="M197.515 192.101C197.124 191.71 196.491 191.71 196.1 192.101C195.71 192.491 195.71 193.124 196.1 193.515L198.929 196.343C199.319 196.734 199.953 196.734 200.343 196.343C200.734 195.953 200.734 195.319 200.343 194.929L197.515 192.101Z" fill="#3A3A38"/><path d="M211.657 196.343C211.266 195.952 211.266 195.319 211.657 194.928L214.485 192.1C214.876 191.71 215.509 191.71 215.9 192.1C216.29 192.491 216.29 193.124 215.9 193.514L213.071 196.343C212.681 196.733 212.047 196.733 211.657 196.343Z" fill="#3A3A38"/><path fill-rule="evenodd" clip-rule="evenodd" d="M212 203C212 205.221 210.793 207.16 209 208.197V214C209 215.105 208.105 216 207 216H205C203.895 216 203 215.105 203 214V208.197C201.207 207.16 200 205.221 200 203C200 199.686 202.686 197 206 197C209.314 197 212 199.686 212 203ZM205 206.874V203C205 202.448 205.448 202 206 202C206.552 202 207 202.448 207 203V206.874C208.725 206.43 210 204.864 210 203C210 200.791 208.209 199 206 199C203.791 199 202 200.791 202 203C202 204.864 203.275 206.43 205 206.874ZM205 209V214H207V209H205Z" fill="#3A3A38"/><path d="M304 200C303.448 200 303 200.448 303 201C303 201.552 303.448 202 304 202C304.552 202 305 201.552 305 201C305 200.448 304.552 200 304 200Z" fill="#3A3A38"/><path d="M293 197C293 196.448 293.448 196 294 196H308C308.552 196 309 196.448 309 197C309 197.552 308.552 198 308 198H294C293.448 198 293 197.552 293 197Z" fill="#3A3A38"/><path d="M294 200C293.448 200 293 200.448 293 201C293 201.552 293.448 202 294 202H300C300.552 202 301 201.552 301 201C301 200.448 300.552 200 300 200H294Z" fill="#3A3A38"/><path fill-rule="evenodd" clip-rule="evenodd" d="M294 189C290.134 189 287 192.134 287 196V205.5C287 207.433 288.567 209 290.5 209C291.328 209 292 209.672 292 210.5V211.625C292 214.13 295.029 215.385 296.801 213.613L299.95 210.464C300.887 209.527 302.159 209 303.485 209H308C311.866 209 315 205.866 315 202V196C315 192.134 311.866 189 308 189H294ZM289 196C289 193.239 291.239 191 294 191H308C310.761 191 313 193.239 313 196V202C313 204.761 310.761 207 308 207H303.485C301.629 207 299.848 207.737 298.536 209.05L295.387 212.199C294.875 212.711 294 212.348 294 211.625V210.5C294 208.567 292.433 207 290.5 207C289.672 207 289 206.328 289 205.5V196Z" fill="#3A3A38"/><path fill-rule="evenodd" clip-rule="evenodd" d="M396 188C392.686 188 390 190.686 390 194V202C390 205.314 392.686 208 396 208C399.314 208 402 205.314 402 202V194C402 190.686 399.314 188 396 188ZM400 202V194C400 191.791 398.209 190 396 190C393.791 190 392 191.791 392 194V202C392 204.209 393.791 206 396 206C398.209 206 400 204.209 400 202Z" fill="#3A3A38"/><path d="M395 211.951C389.947 211.449 386 207.185 386 202V200C386 199.448 386.448 199 387 199C387.552 199 388 199.448 388 200V202C388 206.418 391.582 210 396 210C400.418 210 404 206.418 404 202V200C404 199.448 404.448 199 405 199C405.552 199 406 199.448 406 200V202C406 207.185 402.053 211.449 397 211.951V215C397 215.552 396.552 216 396 216C395.448 216 395 215.552 395 215V211.951Z" fill="#3A3A38"/><path fill-rule="evenodd" clip-rule="evenodd" d="M499.087 188.338L485.542 202.756C485.194 203.127 485 203.617 485 204.126V207.334C485 208.438 485.895 209.334 487 209.334H490.172C490.702 209.334 491.211 209.123 491.586 208.748L505.586 194.748C506.367 193.967 506.367 192.701 505.586 191.92L501.959 188.293C501.161 187.494 499.86 187.515 499.087 188.338ZM504.172 193.334L500.793 196.712L497.272 193.191L500.545 189.707L504.172 193.334ZM490.172 207.334L499.379 198.127L495.902 194.65L487 204.126V207.334L490.172 207.334ZM501 210V202.247L503 200.287V210C503 212.209 501.209 214 499 214H483C480.791 214 479 212.209 479 210V194C479 191.791 480.791 190 483 190H494.527L492.611 192H483C481.895 192 481 192.895 481 194V210C481 211.105 481.895 212 483 212H499C500.105 212 501 211.105 501 210Z" fill="#3A3A38"/><path d="M581 203C581 202.448 581.448 202 582 202H590C590.552 202 591 202.448 591 203C591 203.552 590.552 204 590 204H582C581.448 204 581 203.552 581 203Z" fill="#3A3A38"/><path d="M582 208C581.448 208 581 208.448 581 209C581 209.552 581.448 210 582 210H590C590.552 210 591 209.552 591 209C591 208.448 590.552 208 590 208H582Z" fill="#3A3A38"/><path fill-rule="evenodd" clip-rule="evenodd" d="M581 188C578.239 188 576 190.239 576 193V211C576 213.761 578.239 216 581 216H591C593.761 216 596 213.761 596 211V197.657C596 196.331 595.473 195.059 594.536 194.121L589.879 189.464C588.941 188.527 587.669 188 586.343 188H581ZM578 193C578 191.343 579.343 190 581 190H586.343C586.566 190 586.786 190.025 587 190.073V195C587 196.657 588.343 198 590 198H594V211C594 212.657 592.657 214 591 214H581C579.343 214 578 212.657 578 211V193ZM593.501 196C593.391 195.834 593.264 195.678 593.121 195.536L589 191.414V195C589 195.552 589.448 196 590 196H593.501Z" fill="#3A3A38"/><path d="M677 194C676.448 194 676 194.448 676 195V196C676 196.552 676.448 197 677 197H678C678.552 197 679 196.552 679 196V195C679 194.448 678.552 194 678 194H677Z" fill="#3A3A38"/><path d="M683 195C683 194.448 683.448 194 684 194H685C685.552 194 686 194.448 686 195V196C686 196.552 685.552 197 685 197H684C683.448 197 683 196.552 683 196V195Z" fill="#3A3A38"/><path d="M677 199C676.448 199 676 199.448 676 200V201C676 201.552 676.448 202 677 202H678C678.552 202 679 201.552 679 201V200C679 199.448 678.552 199 678 199H677Z" fill="#3A3A38"/><path d="M683 200C683 199.448 683.448 199 684 199H685C685.552 199 686 199.448 686 200V201C686 201.552 685.552 202 685 202H684C683.448 202 683 201.552 683 201V200Z" fill="#3A3A38"/><path fill-rule="evenodd" clip-rule="evenodd" d="M691 213V193C691 190.791 689.209 189 687 189H675C672.791 189 671 190.791 671 193V213H670C669.448 213 669 213.448 669 214C669 214.552 669.448 215 670 215H692C692.552 215 693 214.552 693 214C693 213.448 692.552 213 692 213H691ZM687 191H675C673.895 191 673 191.895 673 193V213H676V207C676 205.895 676.895 205 678 205H684C685.105 205 686 205.895 686 207V213H689V193C689 191.895 688.105 191 687 191ZM684 213V207H678V213H684Z" fill="#3A3A38"/><path fill-rule="evenodd" clip-rule="evenodd" d="M782.71 192.315C780.926 190.562 778.168 190.562 776.384 192.315L766.965 201.571C764.345 204.146 764.345 208.487 766.965 211.062C769.595 213.646 774.043 213.646 776.673 211.062L787.299 200.619C787.693 200.232 788.326 200.238 788.713 200.632C789.1 201.026 789.095 201.659 788.701 202.046L778.074 212.488C774.667 215.837 768.971 215.837 765.563 212.488C762.146 209.13 762.146 203.503 765.563 200.145L774.982 190.889C777.545 188.37 781.55 188.37 784.112 190.889C786.685 193.417 786.685 197.382 784.112 199.91L784.107 199.915L775.418 208.335C775.417 208.336 775.416 208.337 775.415 208.338C773.846 209.876 771.276 209.937 769.771 208.317C768.212 206.765 768.155 204.221 769.807 202.738L777.035 195.635C777.429 195.248 778.062 195.254 778.449 195.648C778.836 196.042 778.831 196.675 778.437 197.062L771.173 204.2L771.153 204.218C770.418 204.868 770.36 206.092 771.191 206.909L771.21 206.927L771.228 206.946C771.899 207.679 773.176 207.734 774.016 206.909L774.021 206.904L782.71 198.483C782.711 198.483 782.712 198.482 782.713 198.481C784.485 196.737 784.484 194.059 782.71 192.315Z" fill="#3A3A38"/><path fill-rule="evenodd" clip-rule="evenodd" d="M869.894 196.722C870.484 195.742 870.692 195.193 870.554 194.368C870.429 193.628 868.478 190.972 867.555 190.072C867.069 189.599 866.528 189.304 865.891 189.278L865.859 189.278C864.248 189.271 861.892 191.294 860.99 192.726C860.013 194.021 859.926 195.688 860.652 197.582L860.767 197.868C862.673 202.984 870.313 210.571 875.434 212.522C877.388 213.366 879.165 213.308 880.608 212.247C881.869 211.495 883.986 209.08 883.997 207.428C883.97 206.749 883.675 206.207 883.202 205.722C882.304 204.8 879.646 202.847 878.909 202.723C878.151 202.595 877.627 202.759 876.79 203.242L876.479 203.426C875.883 203.785 875.673 203.851 875.402 203.762C872.544 202.697 870.58 200.733 869.501 197.842C869.432 197.627 869.479 197.435 869.751 196.963L869.894 196.722ZM877.505 205.144C877.214 205.318 876.829 205.542 876.414 205.671C875.849 205.848 875.304 205.834 874.783 205.664L874.743 205.651L874.703 205.636C871.298 204.367 868.907 201.971 867.627 198.541L867.611 198.498L867.597 198.454C867.442 197.973 867.43 197.473 867.57 196.966C867.679 196.572 867.87 196.221 868.018 195.965L868.024 195.953L868.181 195.689C868.462 195.224 868.549 195.022 868.581 194.914C868.592 194.876 868.594 194.858 868.595 194.845C868.595 194.838 868.595 194.827 868.595 194.811C868.562 194.743 868.51 194.647 868.437 194.521C868.262 194.222 868.013 193.845 867.725 193.44C867.129 192.604 866.492 191.829 866.159 191.504C866.032 191.38 865.943 191.325 865.895 191.301C865.868 191.288 865.85 191.282 865.834 191.279C865.815 191.281 865.78 191.287 865.729 191.3C865.641 191.323 865.523 191.364 865.377 191.431C865.081 191.566 864.733 191.779 864.366 192.056C863.611 192.628 862.979 193.322 862.683 193.792L862.637 193.864L862.587 193.931C862.155 194.503 861.954 195.382 862.514 196.852L862.632 197.145L862.641 197.169C863.446 199.33 865.596 202.263 868.307 204.966C871.015 207.666 873.969 209.824 876.146 210.653L876.187 210.668L876.227 210.686C877.724 211.332 878.705 211.163 879.423 210.636L879.501 210.579L879.583 210.529C879.926 210.325 880.59 209.739 881.18 208.964C881.461 208.594 881.683 208.236 881.828 207.926C881.899 207.773 881.944 207.648 881.97 207.553C881.982 207.508 881.989 207.474 881.993 207.451C881.987 207.422 881.979 207.398 881.967 207.374C881.945 207.328 881.893 207.244 881.77 207.118C881.446 206.785 880.671 206.148 879.835 205.552C879.43 205.264 879.052 205.015 878.753 204.84C878.628 204.766 878.532 204.715 878.464 204.682C878.451 204.681 878.442 204.681 878.435 204.681C878.42 204.682 878.405 204.683 878.379 204.69C878.311 204.708 878.158 204.763 877.8 204.968L877.505 205.144Z" fill="#3A3A38"/><path d="M961.171 212.759C962.602 213.55 964.249 214 966 214C967.751 214 969.398 213.55 970.829 212.759C971.214 213.34 971.718 213.836 972.305 214.212C970.473 215.346 968.313 216 966 216C963.687 216 961.527 215.346 959.695 214.212C960.282 213.836 960.786 213.34 961.171 212.759Z" fill="#3A3A38"/><path fill-rule="evenodd" clip-rule="evenodd" d="M956.059 205.089C956.363 205.03 956.678 205 957 205C959.761 205 962 207.239 962 210C962 212.761 959.761 215 957 215C954.239 215 952 212.761 952 210C952 208.298 952.85 206.796 954.148 205.892C954.051 205.276 954 204.644 954 204C954 199.157 956.869 194.984 961.001 193.088C961 193.059 961 193.029 961 193C961 190.239 963.239 188 966 188C968.761 188 971 190.239 971 193C971 193.029 971 193.059 970.999 193.088C975.131 194.984 978 199.157 978 204C978 204.644 977.949 205.276 977.852 205.892C979.15 206.796 980 208.298 980 210C980 212.761 977.761 215 975 215C972.239 215 970 212.761 970 210C970 207.239 972.239 205 975 205C975.322 205 975.637 205.03 975.941 205.089C975.98 204.731 976 204.368 976 204C976 200.113 973.783 196.745 970.544 195.09C970.764 194.613 970.91 194.095 970.97 193.551C970.696 196.053 968.575 198 966 198C963.358 198 961.194 195.95 961.012 193.354C961.055 193.97 961.21 194.555 961.456 195.09C958.217 196.745 956 200.113 956 204C956 204.368 956.02 204.731 956.059 205.089ZM957 213C955.343 213 954 211.657 954 210C954 208.343 955.343 207 957 207C958.657 207 960 208.343 960 210C960 211.657 958.657 213 957 213ZM975 213C973.343 213 972 211.657 972 210C972 208.343 973.343 207 975 207C976.657 207 978 208.343 978 210C978 211.657 976.657 213 975 213ZM963 193C963 194.657 964.343 196 966 196C967.657 196 969 194.657 969 193C969 191.343 967.657 190 966 190C964.343 190 963 191.343 963 193Z" fill="#3A3A38"/><path fill-rule="evenodd" clip-rule="evenodd" d="M1054.62 191.029C1052.23 189.928 1049.68 192.209 1050.51 194.702L1052.84 201.684C1052.91 201.889 1052.91 202.111 1052.84 202.316L1050.51 209.298C1049.68 211.791 1052.23 214.072 1054.62 212.971L1074.45 203.816C1076 203.101 1076 200.899 1074.45 200.184L1054.62 191.029ZM1052.41 194.069C1052.13 193.238 1052.98 192.478 1053.78 192.845L1073.61 202L1053.78 211.155C1052.98 211.522 1052.13 210.762 1052.41 209.931L1054.72 203H1066C1066.55 203 1067 202.552 1067 202C1067 201.448 1066.55 201 1066 201H1054.72L1052.41 194.069Z" fill="#3A3A38"/><path fill-rule="evenodd" clip-rule="evenodd" d="M24 289C26.2091 289 28 287.209 28 285C28 282.791 26.2091 281 24 281C21.7909 281 20 282.791 20 285C20 285.42 20.0648 285.825 20.1849 286.206L10.7545 292.1C10.0372 291.418 9.06745 291 8 291C5.79086 291 4 292.791 4 295C4 297.209 5.79086 299 8 299C9.06722 299 10.0368 298.582 10.7541 297.901L20.1847 303.795C20.0647 304.175 20 304.58 20 305C20 307.209 21.7909 309 24 309C26.2091 309 28 307.209 28 305C28 302.791 26.2091 301 24 301C22.9326 301 21.9628 301.418 21.2455 302.1L11.8151 296.206C11.9352 295.825 12 295.42 12 295C12 294.58 11.9353 294.175 11.8153 293.795L21.2459 287.901C21.9632 288.582 22.9328 289 24 289ZM24 287C25.1046 287 26 286.105 26 285C26 283.895 25.1046 283 24 283C22.8954 283 22 283.895 22 285C22 286.105 22.8954 287 24 287ZM8 297C9.10457 297 10 296.105 10 295C10 293.895 9.10457 293 8 293C6.89543 293 6 293.895 6 295C6 296.105 6.89543 297 8 297ZM26 305C26 306.105 25.1046 307 24 307C22.8954 307 22 306.105 22 305C22 303.895 22.8954 303 24 303C25.1046 303 26 303.895 26 305Z" fill="#3A3A38"/><path fill-rule="evenodd" clip-rule="evenodd" d="M97 283C97 282.448 97.4477 282 98 282H100.416C101.808 282 103.017 282.958 103.336 284.313L103.733 286H121.292C123.31 286 124.753 287.953 124.159 289.882L121.39 298.882C121.003 300.141 119.84 301 118.523 301H107.584C106.192 301 104.983 300.042 104.664 298.687L101.389 284.771C101.283 284.319 100.88 284 100.416 284H98C97.4477 284 97 283.552 97 283ZM104.204 288L106.611 298.229C106.717 298.681 107.12 299 107.584 299H118.523C118.962 299 119.35 298.714 119.479 298.294L122.248 289.294C122.446 288.651 121.965 288 121.292 288H104.204Z" fill="#3A3A38"/><path fill-rule="evenodd" clip-rule="evenodd" d="M108 309C109.657 309 111 307.657 111 306C111 304.343 109.657 303 108 303C106.343 303 105 304.343 105 306C105 307.657 106.343 309 108 309ZM108 307C108.552 307 109 306.552 109 306C109 305.448 108.552 305 108 305C107.448 305 107 305.448 107 306C107 306.552 107.448 307 108 307Z" fill="#3A3A38"/><path fill-rule="evenodd" clip-rule="evenodd" d="M121 306C121 307.657 119.657 309 118 309C116.343 309 115 307.657 115 306C115 304.343 116.343 303 118 303C119.657 303 121 304.343 121 306ZM119 306C119 306.552 118.552 307 118 307C117.448 307 117 306.552 117 306C117 305.448 117.448 305 118 305C118.552 305 119 305.448 119 306Z" fill="#3A3A38"/><path fill-rule="evenodd" clip-rule="evenodd" d="M220 295C220 302.732 213.732 309 206 309C198.268 309 192 302.732 192 295C192 287.268 198.268 281 206 281C213.732 281 220 287.268 220 295ZM206.706 306.98C206.473 306.993 206.237 307 206 307C205.763 307 205.527 306.993 205.294 306.98C204.339 306.237 203.516 304.993 202.879 303.356C204.705 302.942 206.846 302.827 209.12 303.358C208.484 304.995 207.66 306.237 206.706 306.98ZM209.855 306.367C210.943 305.998 211.96 305.478 212.883 304.831C212.263 304.484 211.645 304.193 211.034 303.954C210.705 304.819 210.314 305.635 209.855 306.367ZM211.643 302.041C212.588 302.404 213.545 302.873 214.505 303.465C216.445 301.517 217.719 298.905 217.959 296H212.484C212.417 298.09 212.139 300.164 211.643 302.041ZM210.483 296H201.517C201.583 297.909 201.835 299.777 202.269 301.447C204.444 300.927 207.01 300.777 209.732 301.443C210.165 299.774 210.417 297.907 210.483 296ZM210.483 294H201.517C201.581 292.145 201.821 290.328 202.233 288.694C204.425 289.224 207.017 289.379 209.768 288.699C210.179 290.331 210.419 292.147 210.483 294ZM212.484 294H217.959C217.723 291.141 216.485 288.566 214.597 286.628C213.618 287.24 212.642 287.723 211.679 288.095C212.152 289.937 212.419 291.961 212.484 294ZM211.083 286.177C211.717 285.926 212.358 285.62 213.001 285.253C212.047 284.567 210.989 284.017 209.855 283.633C210.338 284.402 210.744 285.263 211.083 286.177ZM206.706 283.02C206.473 283.007 206.237 283 206 283C205.763 283 205.527 283.007 205.294 283.02C204.312 283.784 203.47 285.077 202.826 286.783C204.678 287.21 206.857 287.33 209.173 286.78C208.529 285.075 207.687 283.784 206.706 283.02ZM200.958 303.933C201.288 304.806 201.682 305.629 202.145 306.367C201.045 305.994 200.016 305.466 199.086 304.809C199.62 304.504 200.25 304.201 200.958 303.933ZM200.354 302.028C199.86 300.154 199.583 298.085 199.516 296H194.041C194.28 298.897 195.548 301.501 197.478 303.448C198.237 302.957 199.212 302.451 200.354 302.028ZM199.516 294C199.581 291.966 199.846 289.947 200.318 288.109C199.147 287.672 198.152 287.148 197.388 286.643C195.508 288.58 194.276 291.149 194.041 294H199.516ZM200.909 286.199C201.249 285.277 201.659 284.408 202.145 283.633C200.999 284.021 199.93 284.578 198.969 285.274C199.516 285.595 200.169 285.916 200.909 286.199Z" fill="#3A3A38"/><path fill-rule="evenodd" clip-rule="evenodd" d="M307.177 281.587L303.521 285.243L298.821 287.593C298.223 287.892 297.814 288.47 297.731 289.133L296.609 298.109C296.528 298.756 297.079 299.306 297.726 299.225L306.701 298.103C307.365 298.021 307.943 297.611 308.242 297.013L310.592 292.314L314.248 288.658C315.029 287.877 315.029 286.611 314.248 285.83L310.005 281.587C309.224 280.806 307.958 280.806 307.177 281.587ZM312.833 287.244L308.591 283.001L307.503 284.089L311.746 288.332L312.833 287.244ZM310.332 289.746L306.089 285.503L304.935 286.657L309.178 290.9L310.332 289.746ZM303.126 287.676L303.508 288.058L303.521 288.071L307.764 292.314L307.777 292.327L308.158 292.709L306.453 296.119L300.559 296.856L303.207 294.207C303.598 293.817 303.598 293.184 303.207 292.793C302.817 292.403 302.183 292.403 301.793 292.793L298.932 295.654L299.716 289.381L303.126 287.676Z" fill="#3A3A38"/><path d="M294 299C293.041 299 291.863 299.005 290.925 299.327C290.432 299.497 289.931 299.777 289.557 300.252C289.175 300.738 289 301.335 289 302C289 302.871 289.613 303.368 290.14 303.611C290.65 303.847 291.294 303.961 291.929 304.026C293.001 304.136 294.364 304.132 295.705 304.127C295.972 304.126 296.238 304.125 296.5 304.125C298.141 304.125 299.665 304.16 300.768 304.386C301.323 304.5 301.668 304.643 301.854 304.778C301.996 304.882 302 304.936 302 305C302 305.277 301.849 305.632 300.987 306.004C300.133 306.372 298.871 306.611 297.344 306.755C295.326 306.944 293.08 306.953 291.012 306.962C289.929 306.967 288.895 306.971 287.968 307.001C287.416 307.019 286.983 307.48 287.001 308.032C287.018 308.584 287.48 309.017 288.032 309C288.849 308.973 289.821 308.969 290.87 308.964C292.995 308.954 295.433 308.943 297.531 308.746C299.108 308.598 300.627 308.337 301.779 307.84C302.922 307.347 304 306.473 304 305C304 304.189 303.597 303.572 303.029 303.159C302.504 302.779 301.833 302.563 301.17 302.427C299.835 302.153 298.109 302.125 296.5 302.125C296.217 302.125 295.937 302.126 295.662 302.127C294.319 302.131 293.09 302.135 292.133 302.037C291.581 301.98 291.218 301.897 291.011 301.81C291.034 301.634 291.088 301.541 291.13 301.488C291.194 301.406 291.318 301.307 291.575 301.219C292.137 301.026 292.959 301 294 301C294.552 301 295 300.552 295 300C295 299.448 294.552 299 294 299Z" fill="#3A3A38"/><path d="M403.593 285.418L404.219 283.749C404.316 283.489 404.683 283.489 404.781 283.749L405.406 285.418C405.437 285.499 405.501 285.563 405.582 285.593L407.251 286.219C407.51 286.316 407.51 286.683 407.251 286.781L405.582 287.406C405.501 287.437 405.437 287.501 405.406 287.582L404.781 289.251C404.683 289.51 404.316 289.51 404.219 289.251L403.593 287.582C403.563 287.501 403.499 287.437 403.418 287.406L401.749 286.781C401.489 286.683 401.489 286.316 401.749 286.219L403.418 285.593C403.499 285.563 403.563 285.499 403.593 285.418Z" fill="#3A3A38"/><path fill-rule="evenodd" clip-rule="evenodd" d="M394.936 284.497C394.612 283.632 393.388 283.632 393.063 284.497L390.614 291.029C390.512 291.3 390.299 291.513 390.029 291.614L383.497 294.064C382.631 294.388 382.631 295.612 383.497 295.936L390.029 298.386C390.299 298.487 390.512 298.701 390.614 298.971L393.063 305.503C393.388 306.368 394.612 306.368 394.936 305.503L397.386 298.971C397.487 298.701 397.7 298.487 397.971 298.386L404.503 295.936C405.368 295.612 405.368 294.388 404.503 294.064L397.971 291.614C397.7 291.513 397.487 291.3 397.386 291.029L394.936 284.497ZM397.268 293.487L401.304 295L397.268 296.513C396.457 296.818 395.817 297.458 395.513 298.269L394 302.304L392.486 298.269C392.182 297.458 391.542 296.818 390.731 296.513L386.696 295L390.731 293.487C391.542 293.183 392.182 292.543 392.486 291.731L394 287.696L395.513 291.731C395.817 292.543 396.457 293.183 397.268 293.487Z" fill="#3A3A38"/><path d="M404.219 300.749L403.593 302.418C403.563 302.499 403.499 302.563 403.418 302.593L401.749 303.219C401.489 303.316 401.489 303.683 401.749 303.781L403.418 304.406C403.499 304.437 403.563 304.501 403.593 304.582L404.219 306.251C404.316 306.51 404.683 306.51 404.781 306.251L405.406 304.582C405.437 304.501 405.501 304.437 405.582 304.406L407.251 303.781C407.51 303.683 407.51 303.316 407.251 303.219L405.582 302.593C405.501 302.563 405.437 302.499 405.406 302.418L404.781 300.749C404.683 300.489 404.316 300.489 404.219 300.749Z" fill="#3A3A38"/><path d="M484 290C484 286.134 487.134 283 491 283C494.866 283 498 286.134 498 290V290.431C498 292.469 497.222 294.43 495.826 295.914L495.6 296.154C494.143 297.701 493.143 299.62 492.708 301.7L492.297 303.666C491.89 305.608 490.177 307 488.193 307C485.877 307 484 305.123 484 302.807V301C484 300.448 483.552 300 483 300C482.448 300 482 300.448 482 301V302.807C482 306.227 484.773 309 488.193 309C491.124 309 493.654 306.944 494.254 304.075L494.665 302.109C495.025 300.39 495.852 298.804 497.056 297.525L497.282 297.284C499.028 295.429 500 292.978 500 290.431V290C500 285.029 495.971 281 491 281C486.029 281 482 285.029 482 290C482 290.552 482.448 291 483 291C483.552 291 484 290.552 484 290Z" fill="#3A3A38"/><path d="M491 285C488.239 285 486 287.239 486 290V293.5C486 294.328 486.672 295 487.5 295H488C488.552 295 489 295.448 489 296C489 296.552 488.552 297 488 297H487.5C486.672 297 486 297.672 486 298.5V301C486 301.552 486.448 302 487 302C487.552 302 488 301.552 488 301V299C489.657 299 491 297.657 491 296C491 294.343 489.657 293 488 293V290C488 288.343 489.343 287 491 287C492.657 287 494 288.343 494 290C494 290.552 494.448 291 495 291C495.552 291 496 290.552 496 290C496 287.239 493.761 285 491 285Z" fill="#3A3A38"/><path d="M587 291.5C587 290.948 586.552 290.5 586 290.5C585.448 290.5 585 290.948 585 291.5V296.586C585 297.116 585.211 297.625 585.586 298L589.293 301.707C589.683 302.098 590.317 302.098 590.707 301.707C591.098 301.317 591.098 300.683 590.707 300.293L587 296.586V291.5Z" fill="#3A3A38"/><path fill-rule="evenodd" clip-rule="evenodd" d="M581 282C581 281.448 581.448 281 582 281H590C590.552 281 591 281.448 591 282C591 282.552 590.552 283 590 283H587V285C587 285.014 587 285.027 586.999 285.041C589.116 285.215 591.077 285.939 592.739 287.07C592.565 286.699 592.631 286.244 592.937 285.938C593.328 285.547 593.961 285.547 594.352 285.938L597.078 288.664C597.469 289.055 597.469 289.688 597.078 290.079C596.77 290.387 596.311 290.452 595.939 290.273C597.24 292.192 598 294.507 598 297C598 303.627 592.627 309 586 309C579.373 309 574 303.627 574 297C574 290.709 578.841 285.549 585.001 285.041C585 285.027 585 285.014 585 285V283L582 283C581.448 283 581 282.552 581 282ZM586 307C591.523 307 596 302.523 596 297C596 291.477 591.523 287 586 287C580.477 287 576 291.477 576 297C576 302.523 580.477 307 586 307Z" fill="#3A3A38"/><path fill-rule="evenodd" clip-rule="evenodd" d="M676 305C674.895 305 674 304.105 674 303V291C674 289.895 674.895 289 676 289H678C679.105 289 680 289.895 680 291V295H682C683.105 295 684 295.895 684 297V299H686C687.105 299 688 299.895 688 301V303C688 304.105 687.105 305 686 305H676ZM676 291V303H678V291H676ZM680 297V303H682V297H680ZM684 303V301H686V303H684Z" fill="#3A3A38"/><path fill-rule="evenodd" clip-rule="evenodd" d="M691 281C692.105 281 693 281.895 693 283V307C693 308.105 692.105 309 691 309H671C669.895 309 669 308.105 669 307V283C669 281.895 669.895 281 671 281H691ZM687 283H691V307H671L671 283L675 283V285C675 286.105 675.895 287 677 287H685C686.105 287 687 286.105 687 285V283ZM685 283H677V285H685V283Z" fill="#3A3A38"/><path fill-rule="evenodd" clip-rule="evenodd" d="M773 285C773 285.552 773.448 286 774 286H775V289.041C769.117 289.526 764.437 294.256 764.029 300.161C762.849 300.564 762 301.683 762 303C762 304.657 763.343 306 765 306H787C788.657 306 790 304.657 790 303C790 301.683 789.151 300.564 787.971 300.161C787.563 294.256 782.883 289.526 777 289.041V286L778 286C778.552 286 779 285.552 779 285C779 284.448 778.552 284 778 284H774C773.448 284 773 284.448 773 285ZM766.049 300C766.551 294.947 770.815 291 776 291C781.185 291 785.449 294.947 785.951 300H766.049ZM764 303C764 302.448 764.448 302 765 302H787C787.552 302 788 302.448 788 303C788 303.552 787.552 304 787 304H765C764.448 304 764 303.552 764 303Z" fill="#3A3A38"/><path fill-rule="evenodd" clip-rule="evenodd" d="M881 288.5C881 290.433 879.433 292 877.5 292C875.567 292 874 290.433 874 288.5C874 286.567 875.567 285 877.5 285C879.433 285 881 286.567 881 288.5ZM879 288.5C879 289.328 878.329 290 877.5 290C876.672 290 876 289.328 876 288.5C876 287.672 876.672 287 877.5 287C878.329 287 879 287.672 879 288.5Z" fill="#3A3A38"/><path fill-rule="evenodd" clip-rule="evenodd" d="M873.791 281C873.029 281 872.295 281.29 871.739 281.811L857.823 294.858C856.587 296.017 856.555 297.969 857.754 299.168L866.833 308.247C868.031 309.445 869.983 309.413 871.142 308.177L884.189 294.261C884.71 293.705 885 292.971 885 292.209V284C885 282.343 883.657 281 882 281H873.791ZM873.107 283.27C873.293 283.097 873.537 283 873.791 283H882C882.553 283 883 283.448 883 284V292.209C883 292.463 882.904 292.708 882.73 292.893L869.683 306.809C869.297 307.221 868.646 307.232 868.247 306.832L859.168 297.753C858.768 297.354 858.779 296.703 859.191 296.317L873.107 283.27Z" fill="#3A3A38"/><path fill-rule="evenodd" clip-rule="evenodd" d="M971 292C971 294.761 968.761 297 966 297C963.239 297 961 294.761 961 292C961 289.239 963.239 287 966 287C968.761 287 971 289.239 971 292ZM969 292C969 293.657 967.657 295 966 295C964.343 295 963 293.657 963 292C963 290.343 964.343 289 966 289C967.657 289 969 290.343 969 292Z" fill="#3A3A38"/><path fill-rule="evenodd" clip-rule="evenodd" d="M977 291.667C977 294.189 976.097 296.507 974.587 298.333C973.196 300.016 969.637 304.455 967.563 307.045C966.762 308.047 965.238 308.047 964.437 307.045C962.363 304.455 958.804 300.016 957.413 298.333C955.903 296.507 955 294.189 955 291.667C955 285.776 959.925 281 966 281C972.075 281 977 285.776 977 291.667ZM957 291.667C957 286.938 960.971 283 966 283C971.029 283 975 286.938 975 291.667C975 293.701 974.274 295.573 973.046 297.059C971.642 298.757 968.07 303.211 966.002 305.795L966.001 305.796L966 305.796L965.999 305.796L965.998 305.795C963.93 303.211 960.358 298.757 958.954 297.059C957.726 295.573 957 293.701 957 291.667Z" fill="#3A3A38"/><path fill-rule="evenodd" clip-rule="evenodd" d="M1059 283H1054C1052.9 283 1052 283.895 1052 285V290C1052 291.105 1052.9 292 1054 292H1059C1060.1 292 1061 291.105 1061 290V285C1061 283.895 1060.1 283 1059 283ZM1054 281C1051.79 281 1050 282.791 1050 285V290C1050 292.209 1051.79 294 1054 294H1059C1061.21 294 1063 292.209 1063 290V285C1063 282.791 1061.21 281 1059 281H1054Z" fill="#3A3A38"/><path fill-rule="evenodd" clip-rule="evenodd" d="M1074 283H1069C1067.9 283 1067 283.895 1067 285V290C1067 291.105 1067.9 292 1069 292H1074C1075.1 292 1076 291.105 1076 290V285C1076 283.895 1075.1 283 1074 283ZM1069 281C1066.79 281 1065 282.791 1065 285V290C1065 292.209 1066.79 294 1069 294H1074C1076.21 294 1078 292.209 1078 290V285C1078 282.791 1076.21 281 1074 281H1069Z" fill="#3A3A38"/><path fill-rule="evenodd" clip-rule="evenodd" d="M1059 298H1054C1052.9 298 1052 298.895 1052 300V305C1052 306.105 1052.9 307 1054 307H1059C1060.1 307 1061 306.105 1061 305V300C1061 298.895 1060.1 298 1059 298ZM1054 296C1051.79 296 1050 297.791 1050 300V305C1050 307.209 1051.79 309 1054 309H1059C1061.21 309 1063 307.209 1063 305V300C1063 297.791 1061.21 296 1059 296H1054Z" fill="#3A3A38"/><path fill-rule="evenodd" clip-rule="evenodd" d="M1074 298H1069C1067.9 298 1067 298.895 1067 300V305C1067 306.105 1067.9 307 1069 307H1074C1075.1 307 1076 306.105 1076 305V300C1076 298.895 1075.1 298 1074 298ZM1069 296C1066.79 296 1065 297.791 1065 300V305C1065 307.209 1066.79 309 1069 309H1074C1076.21 309 1078 307.209 1078 305V300C1078 297.791 1076.21 296 1074 296H1069Z" fill="#3A3A38"/><path d="M15.7 376H10V374.3C10 374.134 9.86569 374 9.7 374H8.3C8.13431 374 8 374.134 8 374.3V376H2.3C2.13431 376 2 376.134 2 376.3V377.7C2 377.866 2.13431 378 2.3 378H11.7458C11.3317 379.481 10.5145 381.491 9.10081 383.357C8.2122 382.191 7.53743 380.986 7.03516 379.935C6.96367 379.786 6.78566 379.72 6.63527 379.79L5.36454 380.378C5.21416 380.447 5.14834 380.625 5.21967 380.775C5.7959 381.983 6.61877 383.457 7.75773 384.886C6.41844 386.199 4.70454 387.319 2.5316 387.953C2.37254 387.999 2.27704 388.163 2.31973 388.323L2.68046 389.676C2.72315 389.836 2.88779 389.932 3.04701 389.886C5.57203 389.159 7.55377 387.879 9.09678 386.381C10.6061 387.874 12.5274 389.18 14.9531 389.885C15.1122 389.932 15.2769 389.836 15.3195 389.676L15.6803 388.323C15.723 388.163 15.6275 387.999 15.4686 387.952C13.4064 387.343 11.7544 386.211 10.4402 384.896C12.3818 382.455 13.3822 379.76 13.8111 378H15.7C15.8657 378 16 377.866 16 377.7V376.3C16 376.134 15.8657 376 15.7 376Z" fill="#3A3A38"/><path fill-rule="evenodd" clip-rule="evenodd" d="M23.6598 388C23.7829 388 23.8935 388.075 23.9388 388.19L28.8379 400.59C28.9157 400.787 28.7706 401 28.5589 401H27.2016C27.0797 401 26.9699 400.926 26.9238 400.813L25.7757 398H19.2242L18.0762 400.813C18.0301 400.926 17.9203 401 17.7984 401H16.4411C16.2294 401 16.0843 400.787 16.1621 400.59L21.0611 388.19C21.1063 388.075 21.2169 388 21.3401 388H23.6598ZM22.511 390L24.9596 396H20.0404L22.4888 390H22.511Z" fill="#3A3A38"/><path d="M107 385C107 384.448 107.448 384 108 384C108.552 384 109 384.448 109 385V395C109 395.552 108.552 396 108 396C107.448 396 107 395.552 107 395V385Z" fill="#3A3A38"/><path d="M114 384C113.448 384 113 384.448 113 385V395C113 395.552 113.448 396 114 396C114.552 396 115 395.552 115 395V385C115 384.448 114.552 384 114 384Z" fill="#3A3A38"/><path fill-rule="evenodd" clip-rule="evenodd" d="M116 378C116 375.791 114.209 374 112 374H110C107.791 374 106 375.791 106 378H100C99.4477 378 99 378.448 99 379C99 379.552 99.4477 380 100 380L101 380V398C101 400.209 102.791 402 105 402H117C119.209 402 121 400.209 121 398V380H122C122.552 380 123 379.552 123 379C123 378.448 122.552 378 122 378H116ZM112 376H110C108.895 376 108 376.895 108 378H114C114 376.895 113.105 376 112 376ZM119 380H103V398C103 399.105 103.895 400 105 400H117C118.105 400 119 399.105 119 398V380Z" fill="#3A3A38"/><path d="M204.88 377.393C204.88 376.841 204.432 376.393 203.88 376.393C203.327 376.393 202.88 376.841 202.88 377.393V379.565C202.88 380.117 203.327 380.565 203.88 380.565C204.432 380.565 204.88 380.117 204.88 379.565V377.393Z" fill="#3A3A38"/><path d="M209.536 380.222C210.708 379.05 212.607 379.05 213.779 380.222C214.951 381.393 214.951 383.293 213.779 384.464L211.304 386.939C210.914 387.33 210.914 387.963 211.304 388.353C211.695 388.744 212.328 388.744 212.718 388.353L215.193 385.879C217.146 383.926 217.146 380.76 215.193 378.808C213.241 376.855 210.075 376.855 208.122 378.808L205.647 381.282C205.257 381.673 205.257 382.306 205.647 382.697C206.038 383.087 206.671 383.087 207.061 382.697L209.536 380.222Z" fill="#3A3A38"/><path d="M202.465 395.778C201.294 396.95 199.394 396.95 198.223 395.778C197.051 394.607 197.051 392.707 198.223 391.535L200.698 389.061C201.088 388.67 201.088 388.037 200.698 387.646C200.307 387.256 199.674 387.256 199.283 387.646L196.808 390.121C194.856 392.074 194.856 395.24 196.808 397.192C198.761 399.145 201.927 399.145 203.879 397.192L206.354 394.717C206.745 394.327 206.745 393.694 206.354 393.303C205.964 392.913 205.331 392.913 204.94 393.303L202.465 395.778Z" fill="#3A3A38"/><path d="M198.93 380.929C199.32 380.538 199.953 380.538 200.344 380.929L203.172 383.757C203.563 384.148 203.563 384.781 203.172 385.171C202.782 385.562 202.149 385.562 201.758 385.171L198.93 382.343C198.539 381.953 198.539 381.319 198.93 380.929Z" fill="#3A3A38"/><path d="M194.723 385.55C194.723 386.102 195.17 386.55 195.723 386.55H197.894C198.447 386.55 198.894 386.102 198.894 385.55C198.894 384.998 198.447 384.55 197.894 384.55H195.723C195.17 384.55 194.723 384.998 194.723 385.55Z" fill="#3A3A38"/><path d="M213.072 393.657C213.462 394.047 213.462 394.68 213.072 395.071C212.681 395.461 212.048 395.461 211.658 395.071L208.829 392.243C208.439 391.852 208.439 391.219 208.829 390.828C209.22 390.438 209.853 390.438 210.243 390.828L213.072 393.657Z" fill="#3A3A38"/><path d="M217.607 390.121C217.607 389.569 217.16 389.121 216.607 389.121H214.436C213.884 389.121 213.436 389.569 213.436 390.121C213.436 390.674 213.884 391.121 214.436 391.121H216.607C217.16 391.121 217.607 390.674 217.607 390.121Z" fill="#3A3A38"/><path d="M207.451 398.278C207.451 398.83 207.898 399.278 208.451 399.278C209.003 399.278 209.451 398.83 209.451 398.278V396.107C209.451 395.554 209.003 395.107 208.451 395.107C207.898 395.107 207.451 395.554 207.451 396.107V398.278Z" fill="#3A3A38"/><path d="M302 393.732C302.598 393.387 303 392.74 303 392C303 390.895 302.105 390 301 390C299.895 390 299 390.895 299 392C299 392.74 299.402 393.387 300 393.732V395C300 395.552 300.448 396 301 396C301.552 396 302 395.552 302 395V393.732Z" fill="#3A3A38"/><path fill-rule="evenodd" clip-rule="evenodd" d="M295.774 385H310C311.105 385 312 385.895 312 387V399C312 400.104 311.105 401 310 401H292C290.895 401 290 400.104 290 399V387C290 385.895 290.895 385 292 385H293.54C292.015 381.343 293.405 377.034 296.928 375C300.755 372.791 305.647 374.102 307.856 377.928L308.356 378.794C308.633 379.272 308.469 379.884 307.99 380.16C307.512 380.436 306.901 380.272 306.624 379.794L306.124 378.928C304.468 376.058 300.798 375.075 297.928 376.732C295.058 378.389 294.075 382.058 295.732 384.928L295.774 385ZM292 387H310V399H292L292 387Z" fill="#3A3A38"/><path fill-rule="evenodd" clip-rule="evenodd" d="M402 381C402 384.314 399.314 387 396 387C392.686 387 390 384.314 390 381C390 377.686 392.686 375 396 375C399.314 375 402 377.686 402 381ZM400 381C400 383.209 398.209 385 396 385C393.791 385 392 383.209 392 381C392 378.791 393.791 377 396 377C398.209 377 400 378.791 400 381Z" fill="#3A3A38"/><path fill-rule="evenodd" clip-rule="evenodd" d="M406 395C406 398.314 401.523 401 396 401C390.477 401 386 398.314 386 395C386 391.686 390.477 389 396 389C401.523 389 406 391.686 406 395ZM404 395C404 395.678 403.531 396.634 402.042 397.528C400.593 398.397 398.461 399 396 399C393.539 399 391.407 398.397 389.958 397.528C388.469 396.634 388 395.678 388 395C388 394.322 388.469 393.366 389.958 392.472C391.407 391.603 393.539 391 396 391C398.461 391 400.593 391.603 402.042 392.472C403.531 393.366 404 394.322 404 395Z" fill="#3A3A38"/><path fill-rule="evenodd" clip-rule="evenodd" d="M498 393.634V394C498 396.209 496.209 398 494 398H481C478.791 398 477 396.209 477 394V382C477 379.791 478.791 378 481 378H494C496.209 378 498 379.791 498 382V382.366L501.778 379.451C503.093 378.437 505 379.374 505 381.034V394.966C505 396.626 503.093 397.563 501.778 396.549L498 393.634ZM481 380H494C495.105 380 496 380.895 496 382V394C496 395.105 495.105 396 494 396H481C479.895 396 479 395.105 479 394V382C479 380.895 479.895 380 481 380ZM498 391.108L503 394.966V381.034L498 384.892V391.108Z" fill="#3A3A38"/><path fill-rule="evenodd" clip-rule="evenodd" d="M584 388C584 389.537 583.422 390.938 582.472 392H589.528C588.578 390.938 588 389.537 588 388C588 384.686 590.686 382 594 382C597.314 382 600 384.686 600 388C600 391.314 597.314 394 594 394H578C574.686 394 572 391.314 572 388C572 384.686 574.686 382 578 382C581.314 382 584 384.686 584 388ZM578 392C580.209 392 582 390.209 582 388C582 385.791 580.209 384 578 384C575.791 384 574 385.791 574 388C574 390.209 575.791 392 578 392ZM594 392C596.209 392 598 390.209 598 388C598 385.791 596.209 384 594 384C591.791 384 590 385.791 590 388C590 390.209 591.791 392 594 392Z" fill="#3A3A38"/><path fill-rule="evenodd" clip-rule="evenodd" d="M684.947 375.878C684.817 375.653 684.492 375.656 684.367 375.882L679.494 384.649L673.375 388.182L676.265 393.187L682.384 389.654L692.412 389.818C692.671 389.822 692.836 389.542 692.706 389.318L684.947 375.878ZM682.618 374.911C683.499 373.326 685.772 373.307 686.679 374.878L694.438 388.318C695.345 389.888 694.192 391.847 692.379 391.817L682.904 391.663L681.757 392.325L684.489 397.056C685.372 398.587 684.848 400.544 683.317 401.428C681.957 402.213 680.228 401.895 679.236 400.677L675.357 395.914L674.771 396.252C673.017 397.265 670.775 396.664 669.762 394.91L668.576 392.856C667.564 391.102 668.164 388.86 669.918 387.847L671.483 386.944L671.492 386.96L678.015 383.194L682.618 374.911ZM677.17 394.974L680.787 399.414C681.159 399.871 681.807 399.99 682.317 399.696C682.891 399.364 683.088 398.63 682.757 398.056L680.025 393.325L677.17 394.974ZM671.634 389.166L674.487 394.107L673.771 394.52C672.974 394.98 671.954 394.707 671.494 393.91L670.308 391.856C669.848 391.059 670.121 390.039 670.918 389.579L671.634 389.166Z" fill="#3A3A38"/><path fill-rule="evenodd" clip-rule="evenodd" d="M780 398C787.732 398 794 391.732 794 384C794 376.268 787.732 370 780 370C772.268 370 766 376.268 766 384C766 391.732 772.268 398 780 398ZM789.163 391.749C790.933 389.658 792 386.954 792 384C792 381.046 790.933 378.342 789.163 376.251L781.414 384L789.163 391.749ZM787.749 393.163C785.658 394.933 782.954 396 780 396C773.373 396 768 390.627 768 384C768 377.709 772.84 372.549 779 372.041V384C779 384.273 779.111 384.528 779.298 384.713L787.749 393.163ZM781 381.586V372.041C783.562 372.252 785.897 373.269 787.749 374.837L781 381.586Z" fill="#3A3A38"/><path fill-rule="evenodd" clip-rule="evenodd" d="M880 386C880 388.761 877.761 391 875 391C872.239 391 870 388.761 870 386C870 383.239 872.239 381 875 381C877.761 381 880 383.239 880 386ZM878 386C878 387.657 876.657 389 875 389C873.343 389 872 387.657 872 386C872 384.343 873.343 383 875 383C876.657 383 878 384.343 878 386Z" fill="#3A3A38"/><path fill-rule="evenodd" clip-rule="evenodd" d="M869.553 374.658L868.382 377H865C862.791 377 861 378.791 861 381V391C861 393.209 862.791 395 865 395H885C887.209 395 889 393.209 889 391V381C889 378.791 887.209 377 885 377H881.618L880.447 374.658C879.939 373.642 878.9 373 877.764 373H872.236C871.1 373 870.061 373.642 869.553 374.658ZM872.236 375C871.857 375 871.511 375.214 871.342 375.553L870.618 377H879.382L878.658 375.553C878.489 375.214 878.143 375 877.764 375H872.236ZM869.02 379C869.006 379 868.992 379 868.978 379H865C863.895 379 863 379.895 863 381V391C863 392.105 863.895 393 865 393H885C886.105 393 887 392.105 887 391V381C887 379.895 886.105 379 885 379H881.022C881.008 379 880.994 379 880.98 379H869.02Z" fill="#3A3A38"/><path fill-rule="evenodd" clip-rule="evenodd" d="M960 392H967V396H963C962.448 396 962 396.448 962 397C962 397.552 962.448 398 963 398H977C977.552 398 978 397.552 978 397C978 396.448 977.552 396 977 396H973V392H980C982.209 392 984 390.209 984 388V374C984 371.791 982.209 370 980 370H960C957.791 370 956 371.791 956 374V388C956 390.209 957.791 392 960 392ZM960 372H980C981.105 372 982 372.895 982 374V386H958V374C958 372.895 958.895 372 960 372ZM958 388C958 389.105 958.895 390 960 390H980C981.105 390 982 389.105 982 388H958ZM971 396V392H969V396H971Z" fill="#3A3A38"/><path fill-rule="evenodd" clip-rule="evenodd" d="M1073 370C1073.55 370 1074 370.448 1074 371V377C1074 377.552 1073.55 378 1073 378C1072.45 378 1072 377.552 1072 377V375H1065V383H1072V381C1072 380.448 1072.45 380 1073 380C1073.55 380 1074 380.448 1074 381V387C1074 387.552 1073.55 388 1073 388C1072.45 388 1072 387.552 1072 387V385H1065V393H1071V392C1071 390.895 1071.9 390 1073 390H1077C1078.1 390 1079 390.895 1079 392V396C1079 397.105 1078.1 398 1077 398H1073C1071.9 398 1071 397.105 1071 396V395H1065C1063.9 395 1063 394.105 1063 393V385H1059V386C1059 387.105 1058.1 388 1057 388H1053C1051.9 388 1051 387.105 1051 386V382C1051 380.895 1051.9 380 1053 380H1057C1058.1 380 1059 380.895 1059 382V383H1063V375C1063 373.895 1063.9 373 1065 373H1072V371C1072 370.448 1072.45 370 1073 370ZM1073 396H1077V392H1073V396ZM1053 382H1057V386H1053V382Z" fill="#3A3A38"/></svg>