<svg width="389" height="57" viewBox="0 0 389 57" fill="none" xmlns="http://www.w3.org/2000/svg"><path d="M0.882 31.9661L1.47 29.2921H0.336V28.2281H1.694L2.17 26.0581H0.98V24.9941H2.408L3.066 22.0261H4.172L3.514 24.9941H5.572L6.23 22.0261H7.35L6.678 24.9941H7.798V26.0581H6.468L5.978 28.2281H7.168V29.2921H5.754L5.166 31.9661H4.06L4.648 29.2921H2.576L2.002 31.9661H0.882ZM2.8 28.2281H4.872L5.348 26.0581H3.29L2.8 28.2281ZM12.2644 31.9661C11.7138 31.9661 11.2191 31.8868 10.7804 31.7281C10.3511 31.5694 9.98244 31.3128 9.67444 30.9581C9.37577 30.6034 9.1471 30.1274 8.98844 29.5301C8.82977 28.9234 8.75044 28.1721 8.75044 27.2761C8.75044 26.2868 8.82977 25.4608 8.98844 24.7981C9.1471 24.1261 9.3711 23.5894 9.66044 23.1881C9.9591 22.7774 10.3231 22.4834 10.7524 22.3061C11.1911 22.1194 11.6858 22.0261 12.2364 22.0261C12.9271 22.0261 13.4824 22.1568 13.9024 22.4181C14.3318 22.6794 14.6444 23.0341 14.8404 23.4821C15.0364 23.9208 15.1344 24.4248 15.1344 24.9941H13.8744C13.8744 24.5648 13.8138 24.2054 13.6924 23.9161C13.5711 23.6268 13.3798 23.4121 13.1184 23.2721C12.8664 23.1321 12.5491 23.0621 12.1664 23.0621C11.6064 23.0621 11.1678 23.2114 10.8504 23.5101C10.5424 23.7994 10.3278 24.2241 10.2064 24.7841C10.0944 25.3441 10.0338 26.0114 10.0244 26.7861C10.1551 26.5714 10.3371 26.3754 10.5704 26.1981C10.8131 26.0208 11.0978 25.8808 11.4244 25.7781C11.7511 25.6661 12.0964 25.6101 12.4604 25.6101C13.1511 25.6101 13.7204 25.7501 14.1684 26.0301C14.6164 26.3008 14.9478 26.6741 15.1624 27.1501C15.3771 27.6261 15.4844 28.1581 15.4844 28.7461C15.4844 29.3901 15.3444 29.9548 15.0644 30.4401C14.7844 30.9254 14.4018 31.3034 13.9164 31.5741C13.4311 31.8354 12.8804 31.9661 12.2644 31.9661ZM12.1804 30.9301C12.6378 30.9301 13.0158 30.8321 13.3144 30.6361C13.6131 30.4308 13.8324 30.1648 13.9724 29.8381C14.1218 29.5021 14.1964 29.1334 14.1964 28.7321C14.1964 28.3494 14.1264 27.9994 13.9864 27.6821C13.8464 27.3648 13.6271 27.1128 13.3284 26.9261C13.0391 26.7301 12.6658 26.6321 12.2084 26.6321C11.7511 26.6321 11.3684 26.7301 11.0604 26.9261C10.7524 27.1221 10.5238 27.3834 10.3744 27.7101C10.2251 28.0274 10.1504 28.3914 10.1504 28.8021C10.1504 29.1848 10.2251 29.5394 10.3744 29.8661C10.5238 30.1928 10.7478 30.4541 11.0464 30.6501C11.3451 30.8368 11.7231 30.9301 12.1804 30.9301ZM21.3118 31.9661C20.3318 31.9661 19.5012 31.7888 18.8198 31.4341C18.1385 31.0701 17.6158 30.5241 17.2518 29.7961C16.8972 29.0588 16.7198 28.1254 16.7198 26.9961C16.7198 25.3254 17.1258 24.0794 17.9378 23.2581C18.7498 22.4368 19.8792 22.0261 21.3258 22.0261C22.1472 22.0261 22.8752 22.1614 23.5098 22.4321C24.1445 22.6934 24.6392 23.0948 24.9938 23.6361C25.3578 24.1681 25.5398 24.8401 25.5398 25.6521H24.1958C24.1958 25.0921 24.0745 24.6301 23.8318 24.2661C23.5985 23.9021 23.2672 23.6314 22.8378 23.4541C22.4085 23.2674 21.9045 23.1741 21.3258 23.1741C20.6538 23.1741 20.0752 23.3048 19.5898 23.5661C19.1045 23.8274 18.7358 24.2334 18.4838 24.7841C18.2318 25.3254 18.1058 26.0254 18.1058 26.8841V27.1781C18.1058 28.0274 18.2318 28.7228 18.4838 29.2641C18.7358 29.7961 19.0998 30.1881 19.5758 30.4401C20.0612 30.6921 20.6445 30.8181 21.3258 30.8181C21.9232 30.8181 22.4365 30.7294 22.8658 30.5521C23.3045 30.3748 23.6405 30.1041 23.8738 29.7401C24.1165 29.3668 24.2378 28.9001 24.2378 28.3401H25.5398C25.5398 29.1708 25.3532 29.8521 24.9798 30.3841C24.6158 30.9161 24.1165 31.3128 23.4818 31.5741C22.8472 31.8354 22.1238 31.9661 21.3118 31.9661ZM30.3074 31.9661C29.7567 31.9661 29.262 31.8868 28.8234 31.7281C28.394 31.5694 28.0254 31.3128 27.7174 30.9581C27.4187 30.6034 27.19 30.1274 27.0314 29.5301C26.8727 28.9234 26.7934 28.1721 26.7934 27.2761C26.7934 26.2868 26.8727 25.4608 27.0314 24.7981C27.19 24.1261 27.414 23.5894 27.7034 23.1881C28.002 22.7774 28.366 22.4834 28.7954 22.3061C29.234 22.1194 29.7287 22.0261 30.2794 22.0261C30.97 22.0261 31.5254 22.1568 31.9454 22.4181C32.3747 22.6794 32.6874 23.0341 32.8834 23.4821C33.0794 23.9208 33.1774 24.4248 33.1774 24.9941H31.9174C31.9174 24.5648 31.8567 24.2054 31.7354 23.9161C31.614 23.6268 31.4227 23.4121 31.1614 23.2721C30.9094 23.1321 30.592 23.0621 30.2094 23.0621C29.6494 23.0621 29.2107 23.2114 28.8934 23.5101C28.5854 23.7994 28.3707 24.2241 28.2494 24.7841C28.1374 25.3441 28.0767 26.0114 28.0674 26.7861C28.198 26.5714 28.38 26.3754 28.6134 26.1981C28.856 26.0208 29.1407 25.8808 29.4674 25.7781C29.794 25.6661 30.1394 25.6101 30.5034 25.6101C31.194 25.6101 31.7634 25.7501 32.2114 26.0301C32.6594 26.3008 32.9907 26.6741 33.2054 27.1501C33.42 27.6261 33.5274 28.1581 33.5274 28.7461C33.5274 29.3901 33.3874 29.9548 33.1074 30.4401C32.8274 30.9254 32.4447 31.3034 31.9594 31.5741C31.474 31.8354 30.9234 31.9661 30.3074 31.9661ZM30.2234 30.9301C30.6807 30.9301 31.0587 30.8321 31.3574 30.6361C31.656 30.4308 31.8754 30.1648 32.0154 29.8381C32.1647 29.5021 32.2394 29.1334 32.2394 28.7321C32.2394 28.3494 32.1694 27.9994 32.0294 27.6821C31.8894 27.3648 31.67 27.1128 31.3714 26.9261C31.082 26.7301 30.7087 26.6321 30.2514 26.6321C29.794 26.6321 29.4114 26.7301 29.1034 26.9261C28.7954 27.1221 28.5667 27.3834 28.4174 27.7101C28.268 28.0274 28.1934 28.3914 28.1934 28.8021C28.1934 29.1848 28.268 29.5394 28.4174 29.8661C28.5667 30.1928 28.7907 30.4541 29.0894 30.6501C29.388 30.8368 29.766 30.9301 30.2234 30.9301ZM38.0668 31.9661C37.2734 31.9661 36.6294 31.8401 36.1348 31.5881C35.6401 31.3361 35.2761 31.0001 35.0428 30.5801C34.8188 30.1601 34.7068 29.6934 34.7068 29.1801C34.7068 28.6574 34.8374 28.1954 35.0988 27.7941C35.3601 27.3928 35.7708 27.0848 36.3308 26.8701C35.8828 26.6368 35.5421 26.3288 35.3088 25.9461C35.0848 25.5634 34.9728 25.1388 34.9728 24.6721C34.9728 24.1774 35.0848 23.7341 35.3088 23.3421C35.5421 22.9408 35.8874 22.6234 36.3448 22.3901C36.8114 22.1474 37.3854 22.0261 38.0668 22.0261C38.7481 22.0261 39.3174 22.1474 39.7748 22.3901C40.2321 22.6234 40.5774 22.9408 40.8108 23.3421C41.0441 23.7341 41.1608 24.1774 41.1608 24.6721C41.1608 25.1388 41.0441 25.5634 40.8108 25.9461C40.5774 26.3288 40.2368 26.6368 39.7888 26.8701C40.3581 27.0848 40.7688 27.3928 41.0208 27.7941C41.2821 28.1954 41.4128 28.6574 41.4128 29.1801C41.4128 29.6934 41.2961 30.1601 41.0628 30.5801C40.8388 31.0001 40.4794 31.3361 39.9848 31.5881C39.4994 31.8401 38.8601 31.9661 38.0668 31.9661ZM38.0668 30.9441C38.7481 30.9441 39.2614 30.7854 39.6068 30.4681C39.9521 30.1508 40.1248 29.7168 40.1248 29.1661C40.1248 28.6248 39.9521 28.1954 39.6068 27.8781C39.2614 27.5608 38.7481 27.4021 38.0668 27.4021C37.3854 27.4021 36.8674 27.5608 36.5128 27.8781C36.1674 28.1954 35.9948 28.6248 35.9948 29.1661C35.9948 29.7168 36.1674 30.1508 36.5128 30.4681C36.8674 30.7854 37.3854 30.9441 38.0668 30.9441ZM38.0668 26.3801C38.6361 26.3801 39.0841 26.2354 39.4108 25.9461C39.7374 25.6474 39.9008 25.2321 39.9008 24.7001C39.9008 24.1774 39.7374 23.7714 39.4108 23.4821C39.0841 23.1928 38.6361 23.0481 38.0668 23.0481C37.4974 23.0481 37.0494 23.1928 36.7228 23.4821C36.3961 23.7714 36.2328 24.1774 36.2328 24.7001C36.2328 25.2321 36.3961 25.6474 36.7228 25.9461C37.0494 26.2354 37.4974 26.3801 38.0668 26.3801ZM46.2038 31.9661C45.6532 31.9661 45.1585 31.8868 44.7198 31.7281C44.2905 31.5694 43.9218 31.3128 43.6138 30.9581C43.3152 30.6034 43.0865 30.1274 42.9278 29.5301C42.7692 28.9234 42.6898 28.1721 42.6898 27.2761C42.6898 26.2868 42.7692 25.4608 42.9278 24.7981C43.0865 24.1261 43.3105 23.5894 43.5998 23.1881C43.8985 22.7774 44.2625 22.4834 44.6918 22.3061C45.1305 22.1194 45.6252 22.0261 46.1758 22.0261C46.8665 22.0261 47.4218 22.1568 47.8418 22.4181C48.2712 22.6794 48.5838 23.0341 48.7798 23.4821C48.9758 23.9208 49.0738 24.4248 49.0738 24.9941H47.8138C47.8138 24.5648 47.7532 24.2054 47.6318 23.9161C47.5105 23.6268 47.3192 23.4121 47.0578 23.2721C46.8058 23.1321 46.4885 23.0621 46.1058 23.0621C45.5458 23.0621 45.1072 23.2114 44.7898 23.5101C44.4818 23.7994 44.2672 24.2241 44.1458 24.7841C44.0338 25.3441 43.9732 26.0114 43.9638 26.7861C44.0945 26.5714 44.2765 26.3754 44.5098 26.1981C44.7525 26.0208 45.0372 25.8808 45.3638 25.7781C45.6905 25.6661 46.0358 25.6101 46.3998 25.6101C47.0905 25.6101 47.6598 25.7501 48.1078 26.0301C48.5558 26.3008 48.8872 26.6741 49.1018 27.1501C49.3165 27.6261 49.4238 28.1581 49.4238 28.7461C49.4238 29.3901 49.2838 29.9548 49.0038 30.4401C48.7238 30.9254 48.3412 31.3034 47.8558 31.5741C47.3705 31.8354 46.8198 31.9661 46.2038 31.9661ZM46.1198 30.9301C46.5772 30.9301 46.9552 30.8321 47.2538 30.6361C47.5525 30.4308 47.7718 30.1648 47.9118 29.8381C48.0612 29.5021 48.1358 29.1334 48.1358 28.7321C48.1358 28.3494 48.0658 27.9994 47.9258 27.6821C47.7858 27.3648 47.5665 27.1128 47.2678 26.9261C46.9785 26.7301 46.6052 26.6321 46.1478 26.6321C45.6905 26.6321 45.3078 26.7301 44.9998 26.9261C44.6918 27.1221 44.4632 27.3834 44.3138 27.7101C44.1645 28.0274 44.0898 28.3914 44.0898 28.8021C44.0898 29.1848 44.1645 29.5394 44.3138 29.8661C44.4632 30.1928 44.6872 30.4541 44.9858 30.6501C45.2845 30.8368 45.6625 30.9301 46.1198 30.9301ZM50.6452 31.7981V31.3921C50.6452 31.0001 50.7199 30.6408 50.8692 30.3141C51.0279 29.9781 51.2332 29.6748 51.4852 29.4041C51.7466 29.1241 52.0406 28.8581 52.3672 28.6061C52.6939 28.3541 53.0252 28.1068 53.3612 27.8641C53.8186 27.5468 54.2386 27.2294 54.6212 26.9121C55.0132 26.5948 55.3259 26.2541 55.5592 25.8901C55.7926 25.5168 55.9092 25.1014 55.9092 24.6441C55.9092 24.3548 55.8392 24.0934 55.6992 23.8601C55.5686 23.6174 55.3679 23.4261 55.0972 23.2861C54.8266 23.1461 54.4812 23.0761 54.0612 23.0761C53.5666 23.0761 53.1699 23.1601 52.8712 23.3281C52.5726 23.4961 52.3532 23.7201 52.2132 24.0001C52.0826 24.2801 52.0172 24.5881 52.0172 24.9241V25.4981H50.7992C50.7899 25.4514 50.7806 25.3814 50.7712 25.2881C50.7619 25.1854 50.7572 25.0688 50.7572 24.9381C50.7572 24.2474 50.9112 23.6921 51.2192 23.2721C51.5272 22.8428 51.9379 22.5301 52.4512 22.3341C52.9646 22.1288 53.5199 22.0261 54.1172 22.0261C54.6492 22.0261 55.1066 22.1008 55.4892 22.2501C55.8719 22.3901 56.1892 22.5861 56.4412 22.8381C56.6932 23.0901 56.8799 23.3794 57.0012 23.7061C57.1226 24.0234 57.1832 24.3594 57.1832 24.7141C57.1832 25.1528 57.1039 25.5541 56.9452 25.9181C56.7959 26.2821 56.5812 26.6228 56.3012 26.9401C56.0306 27.2481 55.7086 27.5468 55.3352 27.8361C54.9712 28.1254 54.5746 28.4194 54.1452 28.7181C53.8466 28.9141 53.5526 29.1241 53.2632 29.3481C52.9739 29.5628 52.7266 29.7821 52.5212 30.0061C52.3159 30.2301 52.1852 30.4448 52.1292 30.6501H57.2392V31.7981H50.6452Z" fill="#272433"/><line x1="67" y1="26.2981" x2="111" y2="26.2981" stroke="#272433"/><rect x="109.5" y="1.2981" width="279" height="55" rx="5.5" fill="white"/><rect x="109.5" y="1.2981" width="279" height="55" rx="5.5" stroke="#EBEAE1"/><path d="M137 25.6731C137.345 25.6731 137.625 25.3933 137.625 25.0481C137.625 24.7029 137.345 24.4231 137 24.4231C136.655 24.4231 136.375 24.7029 136.375 25.0481C136.375 25.3933 136.655 25.6731 137 25.6731Z" fill="#666666"/><path d="M135.75 28.7981H136.375V33.1731C136.375 33.5183 136.655 33.7981 137 33.7981H138.25C138.595 33.7981 138.875 33.5183 138.875 33.1731C138.875 32.8279 138.595 32.5481 138.25 32.5481H137.625V28.1731C137.625 27.8279 137.345 27.5481 137 27.5481H135.75C135.405 27.5481 135.125 27.8279 135.125 28.1731C135.125 28.5183 135.405 28.7981 135.75 28.7981Z" fill="#666666"/><path fill-rule="evenodd" clip-rule="evenodd" d="M137 37.5481C141.832 37.5481 145.75 33.6306 145.75 28.7981C145.75 23.9656 141.832 20.0481 137 20.0481C132.168 20.0481 128.25 23.9656 128.25 28.7981C128.25 33.6306 132.168 37.5481 137 37.5481ZM137 36.2981C141.142 36.2981 144.5 32.9402 144.5 28.7981C144.5 24.656 141.142 21.2981 137 21.2981C132.858 21.2981 129.5 24.656 129.5 28.7981C129.5 32.9402 132.858 36.2981 137 36.2981Z" fill="#666666"/><path d="M157.676 24.71V23.6163H165.312V24.71H162.111V33.7981H160.878V24.71H157.676ZM168.146 29.2043V33.7981H166.972V23.6163H168.146V27.3549H168.245C168.424 26.9605 168.692 26.6473 169.05 26.4153C169.412 26.18 169.892 26.0623 170.492 26.0623C171.013 26.0623 171.468 26.1667 171.859 26.3755C172.25 26.581 172.554 26.8975 172.769 27.3251C172.988 27.7493 173.097 28.2896 173.097 28.9458V33.7981H171.924V29.0254C171.924 28.4188 171.767 27.9498 171.452 27.6184C171.14 27.2837 170.708 27.1163 170.154 27.1163C169.77 27.1163 169.425 27.1975 169.12 27.3599C168.818 27.5223 168.58 27.7593 168.404 28.0708C168.232 28.3824 168.146 28.7602 168.146 29.2043ZM175.16 33.7981V26.1617H176.333V33.7981H175.16ZM175.756 24.889C175.528 24.889 175.33 24.8111 175.165 24.6553C175.002 24.4996 174.921 24.3123 174.921 24.0936C174.921 23.8748 175.002 23.6875 175.165 23.5318C175.33 23.376 175.528 23.2981 175.756 23.2981C175.985 23.2981 176.181 23.376 176.343 23.5318C176.509 23.6875 176.592 23.8748 176.592 24.0936C176.592 24.3123 176.509 24.4996 176.343 24.6553C176.181 24.8111 175.985 24.889 175.756 24.889ZM183.807 27.872L182.753 28.1703C182.687 27.9946 182.589 27.8239 182.46 27.6582C182.334 27.4891 182.162 27.3499 181.943 27.2406C181.724 27.1312 181.444 27.0765 181.103 27.0765C180.635 27.0765 180.246 27.1842 179.934 27.3997C179.626 27.6118 179.472 27.8819 179.472 28.21C179.472 28.5017 179.578 28.732 179.79 28.9011C180.002 29.0701 180.334 29.211 180.784 29.3237L181.918 29.6021C182.601 29.7678 183.109 30.0213 183.444 30.3627C183.779 30.7008 183.946 31.1366 183.946 31.6703C183.946 32.1078 183.82 32.4989 183.568 32.8436C183.32 33.1882 182.972 33.46 182.524 33.6589C182.077 33.8578 181.557 33.9572 180.963 33.9572C180.184 33.9572 179.54 33.7882 179.029 33.4501C178.519 33.112 178.196 32.6182 178.06 31.9686L179.174 31.6901C179.28 32.1011 179.48 32.4094 179.775 32.6149C180.073 32.8203 180.463 32.9231 180.943 32.9231C181.49 32.9231 181.925 32.8071 182.246 32.5751C182.571 32.3398 182.733 32.058 182.733 31.7299C182.733 31.4648 182.64 31.2427 182.455 31.0637C182.269 30.8814 181.984 30.7455 181.6 30.6561L180.327 30.3578C179.628 30.192 179.114 29.9352 178.786 29.5872C178.461 29.2358 178.299 28.7967 178.299 28.2697C178.299 27.8388 178.42 27.4577 178.662 27.1262C178.907 26.7948 179.24 26.5346 179.661 26.3457C180.085 26.1568 180.566 26.0623 181.103 26.0623C181.858 26.0623 182.452 26.228 182.882 26.5595C183.317 26.8909 183.625 27.3284 183.807 27.872ZM189.482 33.7981V26.1617H190.655V33.7981H189.482ZM190.079 24.889C189.85 24.889 189.653 24.8111 189.487 24.6553C189.325 24.4996 189.243 24.3123 189.243 24.0936C189.243 23.8748 189.325 23.6875 189.487 23.5318C189.653 23.376 189.85 23.2981 190.079 23.2981C190.307 23.2981 190.503 23.376 190.665 23.5318C190.831 23.6875 190.914 23.8748 190.914 24.0936C190.914 24.3123 190.831 24.4996 190.665 24.6553C190.503 24.8111 190.307 24.889 190.079 24.889ZM198.129 27.872L197.075 28.1703C197.009 27.9946 196.911 27.8239 196.782 27.6582C196.656 27.4891 196.484 27.3499 196.265 27.2406C196.046 27.1312 195.766 27.0765 195.425 27.0765C194.957 27.0765 194.568 27.1842 194.256 27.3997C193.948 27.6118 193.794 27.8819 193.794 28.21C193.794 28.5017 193.9 28.732 194.112 28.9011C194.324 29.0701 194.656 29.211 195.107 29.3237L196.24 29.6021C196.923 29.7678 197.432 30.0213 197.766 30.3627C198.101 30.7008 198.269 31.1366 198.269 31.6703C198.269 32.1078 198.143 32.4989 197.891 32.8436C197.642 33.1882 197.294 33.46 196.847 33.6589C196.399 33.8578 195.879 33.9572 195.286 33.9572C194.507 33.9572 193.862 33.7882 193.352 33.4501C192.841 33.112 192.518 32.6182 192.382 31.9686L193.496 31.6901C193.602 32.1011 193.802 32.4094 194.097 32.6149C194.396 32.8203 194.785 32.9231 195.266 32.9231C195.813 32.9231 196.247 32.8071 196.568 32.5751C196.893 32.3398 197.055 32.058 197.055 31.7299C197.055 31.4648 196.963 31.2427 196.777 31.0637C196.591 30.8814 196.306 30.7455 195.922 30.6561L194.649 30.3578C193.95 30.192 193.436 29.9352 193.108 29.5872C192.783 29.2358 192.621 28.7967 192.621 28.2697C192.621 27.8388 192.742 27.4577 192.984 27.1262C193.229 26.7948 193.562 26.5346 193.983 26.3457C194.407 26.1568 194.888 26.0623 195.425 26.0623C196.18 26.0623 196.774 26.228 197.205 26.5595C197.639 26.8909 197.947 27.3284 198.129 27.872ZM206.051 33.9771C205.567 33.9771 205.128 33.8859 204.734 33.7036C204.339 33.518 204.026 33.2512 203.794 32.9032C203.562 32.5519 203.446 32.1276 203.446 31.6305C203.446 31.193 203.532 30.8383 203.705 30.5666C203.877 30.2915 204.107 30.076 204.396 29.9203C204.684 29.7645 205.002 29.6485 205.35 29.5722C205.702 29.4927 206.055 29.4297 206.409 29.3833C206.873 29.3237 207.25 29.2789 207.538 29.2491C207.83 29.2159 208.042 29.1613 208.174 29.085C208.31 29.0088 208.378 28.8762 208.378 28.6873V28.6475C208.378 28.157 208.244 27.7758 207.975 27.5041C207.71 27.2323 207.308 27.0964 206.767 27.0964C206.207 27.0964 205.768 27.219 205.45 27.4643C205.132 27.7096 204.908 27.9714 204.779 28.2498L203.665 27.8521C203.864 27.3881 204.129 27.0268 204.46 26.7683C204.795 26.5064 205.16 26.3241 205.554 26.2214C205.952 26.1153 206.343 26.0623 206.728 26.0623C206.973 26.0623 207.254 26.0921 207.573 26.1518C207.894 26.2081 208.204 26.3258 208.502 26.5048C208.804 26.6837 209.054 26.9539 209.253 27.3151C209.452 27.6764 209.551 28.1603 209.551 28.7668V33.7981H208.378V32.764H208.318C208.239 32.9297 208.106 33.107 207.921 33.296C207.735 33.4849 207.488 33.6456 207.18 33.7782C206.872 33.9108 206.495 33.9771 206.051 33.9771ZM206.23 32.9231C206.694 32.9231 207.085 32.8319 207.404 32.6497C207.725 32.4674 207.967 32.232 208.129 31.9437C208.295 31.6553 208.378 31.3521 208.378 31.0339V29.96C208.328 30.0197 208.219 30.0744 208.05 30.1241C207.884 30.1705 207.692 30.2119 207.473 30.2484C207.258 30.2815 207.047 30.3114 206.842 30.3379C206.64 30.3611 206.476 30.381 206.35 30.3975C206.045 30.4373 205.76 30.5019 205.495 30.5914C205.233 30.6776 205.021 30.8085 204.858 30.9842C204.699 31.1565 204.62 31.3918 204.62 31.6901C204.62 32.0978 204.77 32.4061 205.072 32.6149C205.377 32.8203 205.763 32.9231 206.23 32.9231ZM215.462 33.7981V26.1617H216.596V27.3549H216.695C216.854 26.9472 217.111 26.6307 217.466 26.4053C217.821 26.1766 218.246 26.0623 218.744 26.0623C219.247 26.0623 219.667 26.1766 220.001 26.4053C220.34 26.6307 220.603 26.9472 220.792 27.3549H220.871C221.067 26.9605 221.36 26.6473 221.751 26.4153C222.143 26.18 222.612 26.0623 223.158 26.0623C223.841 26.0623 224.4 26.2761 224.834 26.7036C225.268 27.1279 225.485 27.7891 225.485 28.6873V33.7981H224.312V28.6873C224.312 28.1239 224.158 27.7212 223.849 27.4792C223.541 27.2373 223.178 27.1163 222.761 27.1163C222.224 27.1163 221.808 27.2787 221.513 27.6035C221.218 27.925 221.07 28.3327 221.07 28.8265V33.7981H219.877V28.568C219.877 28.1338 219.736 27.7841 219.455 27.519C219.173 27.2505 218.81 27.1163 218.366 27.1163C218.061 27.1163 217.776 27.1975 217.511 27.3599C217.249 27.5223 217.037 27.7477 216.874 28.036C216.715 28.3211 216.636 28.6508 216.636 29.0254V33.7981H215.462ZM230.748 33.9572C230.012 33.9572 229.378 33.7948 228.844 33.47C228.314 33.1418 227.904 32.6845 227.616 32.0978C227.331 31.5078 227.188 30.8218 227.188 30.0396C227.188 29.2574 227.331 28.568 227.616 27.9714C227.904 27.3715 228.305 26.9042 228.819 26.5694C229.336 26.2313 229.939 26.0623 230.629 26.0623C231.026 26.0623 231.419 26.1286 231.807 26.2612C232.195 26.3937 232.548 26.6092 232.866 26.9075C233.184 27.2025 233.438 27.5936 233.627 28.0808C233.816 28.568 233.91 29.1679 233.91 29.8805V30.3776H228.024V29.3634H232.717C232.717 28.9326 232.631 28.5481 232.458 28.21C232.289 27.872 232.047 27.6052 231.732 27.4096C231.421 27.2141 231.053 27.1163 230.629 27.1163C230.161 27.1163 229.757 27.2323 229.416 27.4643C229.078 27.693 228.817 27.9913 228.635 28.3592C228.453 28.7271 228.362 29.1215 228.362 29.5424V30.2186C228.362 30.7953 228.461 31.2841 228.66 31.6852C228.862 32.0829 229.142 32.3862 229.5 32.595C229.858 32.8005 230.274 32.9032 230.748 32.9032C231.056 32.9032 231.335 32.8601 231.583 32.7739C231.835 32.6845 232.052 32.5519 232.235 32.3762C232.417 32.1972 232.558 31.9752 232.657 31.71L233.791 32.0282C233.671 32.4127 233.471 32.7507 233.189 33.0424C232.907 33.3308 232.559 33.5561 232.145 33.7186C231.731 33.8776 231.265 33.9572 230.748 33.9572ZM241.02 27.872L239.966 28.1703C239.9 27.9946 239.802 27.8239 239.673 27.6582C239.547 27.4891 239.374 27.3499 239.156 27.2406C238.937 27.1312 238.657 27.0765 238.315 27.0765C237.848 27.0765 237.459 27.1842 237.147 27.3997C236.839 27.6118 236.685 27.8819 236.685 28.21C236.685 28.5017 236.791 28.732 237.003 28.9011C237.215 29.0701 237.546 29.211 237.997 29.3237L239.131 29.6021C239.813 29.7678 240.322 30.0213 240.657 30.3627C240.992 30.7008 241.159 31.1366 241.159 31.6703C241.159 32.1078 241.033 32.4989 240.781 32.8436C240.533 33.1882 240.185 33.46 239.737 33.6589C239.29 33.8578 238.769 33.9572 238.176 33.9572C237.397 33.9572 236.753 33.7882 236.242 33.4501C235.732 33.112 235.409 32.6182 235.273 31.9686L236.386 31.6901C236.492 32.1011 236.693 32.4094 236.988 32.6149C237.286 32.8203 237.676 32.9231 238.156 32.9231C238.703 32.9231 239.137 32.8071 239.459 32.5751C239.784 32.3398 239.946 32.058 239.946 31.7299C239.946 31.4648 239.853 31.2427 239.668 31.0637C239.482 30.8814 239.197 30.7455 238.812 30.6561L237.54 30.3578C236.84 30.192 236.327 29.9352 235.999 29.5872C235.674 29.2358 235.511 28.7967 235.511 28.2697C235.511 27.8388 235.632 27.4577 235.874 27.1262C236.12 26.7948 236.453 26.5346 236.874 26.3457C237.298 26.1568 237.778 26.0623 238.315 26.0623C239.071 26.0623 239.664 26.228 240.095 26.5595C240.529 26.8909 240.838 27.3284 241.02 27.872ZM248.25 27.872L247.196 28.1703C247.13 27.9946 247.032 27.8239 246.903 27.6582C246.777 27.4891 246.605 27.3499 246.386 27.2406C246.167 27.1312 245.887 27.0765 245.546 27.0765C245.078 27.0765 244.689 27.1842 244.377 27.3997C244.069 27.6118 243.915 27.8819 243.915 28.21C243.915 28.5017 244.021 28.732 244.233 28.9011C244.445 29.0701 244.777 29.211 245.228 29.3237L246.361 29.6021C247.044 29.7678 247.553 30.0213 247.887 30.3627C248.222 30.7008 248.39 31.1366 248.39 31.6703C248.39 32.1078 248.264 32.4989 248.012 32.8436C247.763 33.1882 247.415 33.46 246.968 33.6589C246.52 33.8578 246 33.9572 245.407 33.9572C244.628 33.9572 243.983 33.7882 243.473 33.4501C242.962 33.112 242.639 32.6182 242.503 31.9686L243.617 31.6901C243.723 32.1011 243.923 32.4094 244.218 32.6149C244.517 32.8203 244.906 32.9231 245.387 32.9231C245.934 32.9231 246.368 32.8071 246.689 32.5751C247.014 32.3398 247.176 32.058 247.176 31.7299C247.176 31.4648 247.084 31.2427 246.898 31.0637C246.712 30.8814 246.427 30.7455 246.043 30.6561L244.77 30.3578C244.071 30.192 243.557 29.9352 243.229 29.5872C242.904 29.2358 242.742 28.7967 242.742 28.2697C242.742 27.8388 242.863 27.4577 243.105 27.1262C243.35 26.7948 243.683 26.5346 244.104 26.3457C244.528 26.1568 245.009 26.0623 245.546 26.0623C246.301 26.0623 246.895 26.228 247.326 26.5595C247.76 26.8909 248.068 27.3284 248.25 27.872ZM252.319 33.9771C251.835 33.9771 251.396 33.8859 251.001 33.7036C250.607 33.518 250.294 33.2512 250.062 32.9032C249.83 32.5519 249.714 32.1276 249.714 31.6305C249.714 31.193 249.8 30.8383 249.972 30.5666C250.145 30.2915 250.375 30.076 250.663 29.9203C250.952 29.7645 251.27 29.6485 251.618 29.5722C251.969 29.4927 252.322 29.4297 252.677 29.3833C253.141 29.3237 253.517 29.2789 253.805 29.2491C254.097 29.2159 254.309 29.1613 254.442 29.085C254.578 29.0088 254.646 28.8762 254.646 28.6873V28.6475C254.646 28.157 254.511 27.7758 254.243 27.5041C253.978 27.2323 253.575 27.0964 253.035 27.0964C252.475 27.0964 252.035 27.219 251.717 27.4643C251.399 27.7096 251.175 27.9714 251.046 28.2498L249.932 27.8521C250.131 27.3881 250.396 27.0268 250.728 26.7683C251.063 26.5064 251.427 26.3241 251.822 26.2214C252.219 26.1153 252.611 26.0623 252.995 26.0623C253.24 26.0623 253.522 26.0921 253.84 26.1518C254.162 26.2081 254.472 26.3258 254.77 26.5048C255.071 26.6837 255.322 26.9539 255.521 27.3151C255.719 27.6764 255.819 28.1603 255.819 28.7668V33.7981H254.646V32.764H254.586C254.506 32.9297 254.374 33.107 254.188 33.296C254.003 33.4849 253.756 33.6456 253.447 33.7782C253.139 33.9108 252.763 33.9771 252.319 33.9771ZM252.498 32.9231C252.962 32.9231 253.353 32.8319 253.671 32.6497C253.993 32.4674 254.235 32.232 254.397 31.9437C254.563 31.6553 254.646 31.3521 254.646 31.0339V29.96C254.596 30.0197 254.486 30.0744 254.317 30.1241C254.152 30.1705 253.959 30.2119 253.741 30.2484C253.525 30.2815 253.315 30.3114 253.109 30.3379C252.907 30.3611 252.743 30.381 252.617 30.3975C252.312 30.4373 252.027 30.5019 251.762 30.5914C251.5 30.6776 251.288 30.8085 251.126 30.9842C250.967 31.1565 250.887 31.3918 250.887 31.6901C250.887 32.0978 251.038 32.4061 251.339 32.6149C251.644 32.8203 252.03 32.9231 252.498 32.9231ZM260.959 36.8208C260.392 36.8208 259.905 36.7479 259.497 36.6021C259.089 36.4596 258.75 36.2706 258.478 36.0353C258.209 35.8033 257.996 35.5547 257.837 35.2896L258.771 34.6333C258.877 34.7725 259.012 34.9316 259.174 35.1106C259.336 35.2929 259.558 35.4503 259.84 35.5829C260.125 35.7188 260.498 35.7867 260.959 35.7867C261.575 35.7867 262.084 35.6376 262.485 35.3393C262.886 35.041 263.087 34.5737 263.087 33.9373V32.3862H262.987C262.901 32.5254 262.778 32.6977 262.619 32.9032C262.463 33.1054 262.238 33.286 261.943 33.4451C261.651 33.6009 261.257 33.6788 260.76 33.6788C260.143 33.6788 259.59 33.5329 259.099 33.2413C258.612 32.9496 258.226 32.5254 257.941 31.9686C257.659 31.4117 257.518 30.7356 257.518 29.9401C257.518 29.1579 257.656 28.4768 257.931 27.8968C258.206 27.3135 258.589 26.8627 259.079 26.5445C259.57 26.223 260.137 26.0623 260.78 26.0623C261.277 26.0623 261.671 26.1452 261.963 26.3109C262.258 26.4733 262.483 26.6589 262.639 26.8677C262.798 27.0732 262.921 27.2422 263.007 27.3748H263.126V26.1617H264.26V34.0168C264.26 34.6731 264.111 35.2067 263.812 35.6177C263.517 36.032 263.12 36.3353 262.619 36.5275C262.122 36.723 261.569 36.8208 260.959 36.8208ZM260.919 32.6248C261.39 32.6248 261.787 32.5171 262.112 32.3016C262.437 32.0862 262.684 31.7763 262.853 31.372C263.022 30.9676 263.106 30.4837 263.106 29.9203C263.106 29.3701 263.024 28.8845 262.858 28.4636C262.692 28.0427 262.447 27.7129 262.122 27.4742C261.797 27.2356 261.396 27.1163 260.919 27.1163C260.422 27.1163 260.008 27.2422 259.676 27.4941C259.348 27.746 259.101 28.0841 258.935 28.5083C258.773 28.9326 258.692 29.4032 258.692 29.9203C258.692 30.4506 258.775 30.9195 258.94 31.3272C259.109 31.7316 259.358 32.0498 259.686 32.2818C260.017 32.5105 260.428 32.6248 260.919 32.6248ZM269.525 33.9572C268.79 33.9572 268.155 33.7948 267.621 33.47C267.091 33.1418 266.682 32.6845 266.393 32.0978C266.108 31.5078 265.966 30.8218 265.966 30.0396C265.966 29.2574 266.108 28.568 266.393 27.9714C266.682 27.3715 267.083 26.9042 267.596 26.5694C268.113 26.2313 268.717 26.0623 269.406 26.0623C269.804 26.0623 270.196 26.1286 270.584 26.2612C270.972 26.3937 271.325 26.6092 271.643 26.9075C271.961 27.2025 272.215 27.5936 272.404 28.0808C272.593 28.568 272.687 29.1679 272.687 29.8805V30.3776H266.801V29.3634H271.494C271.494 28.9326 271.408 28.5481 271.236 28.21C271.067 27.872 270.825 27.6052 270.51 27.4096C270.198 27.2141 269.83 27.1163 269.406 27.1163C268.939 27.1163 268.534 27.2323 268.193 27.4643C267.855 27.693 267.595 27.9913 267.412 28.3592C267.23 28.7271 267.139 29.1215 267.139 29.5424V30.2186C267.139 30.7953 267.238 31.2841 267.437 31.6852C267.639 32.0829 267.919 32.3862 268.277 32.595C268.635 32.8005 269.051 32.9032 269.525 32.9032C269.834 32.9032 270.112 32.8601 270.361 32.7739C270.612 32.6845 270.83 32.5519 271.012 32.3762C271.194 32.1972 271.335 31.9752 271.434 31.71L272.568 32.0282C272.449 32.4127 272.248 32.7507 271.966 33.0424C271.685 33.3308 271.337 33.5561 270.922 33.7186C270.508 33.8776 270.042 33.9572 269.525 33.9572Z" fill="#26252A"/><path d="M370.442 24.24C370.686 23.996 370.686 23.6002 370.442 23.3562C370.198 23.1121 369.802 23.1121 369.558 23.3562L365 27.9142L360.442 23.3562C360.198 23.1121 359.802 23.1121 359.558 23.3562C359.314 23.6002 359.314 23.996 359.558 24.24L364.116 28.7981L359.558 33.3562C359.314 33.6002 359.314 33.996 359.558 34.24C359.802 34.4841 360.198 34.4841 360.442 34.24L365 29.682L369.558 34.24C369.802 34.4841 370.198 34.4841 370.442 34.24C370.686 33.996 370.686 33.6002 370.442 33.3562L365.884 28.7981L370.442 24.24Z" fill="#26252A"/><rect x="109" y="8.7981" width="4" height="40" rx="2" fill="#666666"/></svg>