<svg width="361" height="102" viewBox="0 0 361 102" fill="none" xmlns="http://www.w3.org/2000/svg"><path d="M16.882 93.168L17.47 90.494H16.336V89.43H17.694L18.17 87.26H16.98V86.196H18.408L19.066 83.228H20.172L19.514 86.196H21.572L22.23 83.228H23.35L22.678 86.196H23.798V87.26H22.468L21.978 89.43H23.168V90.494H21.754L21.166 93.168H20.06L20.648 90.494H18.576L18.002 93.168H16.882ZM18.8 89.43H20.872L21.348 87.26H19.29L18.8 89.43ZM28.0824 93.168C27.5598 93.168 27.0931 93.0933 26.6824 92.944C26.2718 92.7853 25.9218 92.5193 25.6324 92.146C25.3431 91.7633 25.1238 91.2547 24.9744 90.62C24.8251 89.976 24.7504 89.1687 24.7504 88.198C24.7504 87.2273 24.8251 86.4247 24.9744 85.79C25.1238 85.146 25.3431 84.6373 25.6324 84.264C25.9218 83.8813 26.2718 83.6153 26.6824 83.466C27.0931 83.3073 27.5598 83.228 28.0824 83.228C28.6051 83.228 29.0671 83.3073 29.4684 83.466C29.8791 83.6153 30.2291 83.8813 30.5184 84.264C30.8078 84.6373 31.0271 85.146 31.1764 85.79C31.3258 86.4247 31.4004 87.2273 31.4004 88.198C31.4004 89.1687 31.3258 89.976 31.1764 90.62C31.0271 91.2547 30.8078 91.7633 30.5184 92.146C30.2291 92.5193 29.8791 92.7853 29.4684 92.944C29.0671 93.0933 28.6051 93.168 28.0824 93.168ZM28.0824 92.132C28.6144 92.132 29.0251 91.9967 29.3144 91.726C29.6131 91.4553 29.8184 91.054 29.9304 90.522C30.0518 89.99 30.1124 89.3273 30.1124 88.534V87.89C30.1124 87.0873 30.0518 86.42 29.9304 85.888C29.8184 85.3467 29.6131 84.9407 29.3144 84.67C29.0251 84.3993 28.6144 84.264 28.0824 84.264C27.5504 84.264 27.1351 84.3993 26.8364 84.67C26.5378 84.9407 26.3278 85.342 26.2064 85.874C26.0944 86.406 26.0384 87.0733 26.0384 87.876V88.506C26.0384 89.2993 26.0944 89.9667 26.2064 90.508C26.3278 91.0493 26.5378 91.4553 26.8364 91.726C27.1351 91.9967 27.5504 92.132 28.0824 92.132ZM36.0238 93.168C35.5012 93.168 35.0345 93.0933 34.6238 92.944C34.2132 92.7853 33.8632 92.5193 33.5738 92.146C33.2845 91.7633 33.0652 91.2547 32.9158 90.62C32.7665 89.976 32.6918 89.1687 32.6918 88.198C32.6918 87.2273 32.7665 86.4247 32.9158 85.79C33.0652 85.146 33.2845 84.6373 33.5738 84.264C33.8632 83.8813 34.2132 83.6153 34.6238 83.466C35.0345 83.3073 35.5012 83.228 36.0238 83.228C36.5465 83.228 37.0085 83.3073 37.4098 83.466C37.8205 83.6153 38.1705 83.8813 38.4598 84.264C38.7492 84.6373 38.9685 85.146 39.1178 85.79C39.2672 86.4247 39.3418 87.2273 39.3418 88.198C39.3418 89.1687 39.2672 89.976 39.1178 90.62C38.9685 91.2547 38.7492 91.7633 38.4598 92.146C38.1705 92.5193 37.8205 92.7853 37.4098 92.944C37.0085 93.0933 36.5465 93.168 36.0238 93.168ZM36.0238 92.132C36.5558 92.132 36.9665 91.9967 37.2558 91.726C37.5545 91.4553 37.7598 91.054 37.8718 90.522C37.9932 89.99 38.0538 89.3273 38.0538 88.534V87.89C38.0538 87.0873 37.9932 86.42 37.8718 85.888C37.7598 85.3467 37.5545 84.9407 37.2558 84.67C36.9665 84.3993 36.5558 84.264 36.0238 84.264C35.4918 84.264 35.0765 84.3993 34.7778 84.67C34.4792 84.9407 34.2692 85.342 34.1478 85.874C34.0358 86.406 33.9798 87.0733 33.9798 87.876V88.506C33.9798 89.2993 34.0358 89.9667 34.1478 90.508C34.2692 91.0493 34.4792 91.4553 34.7778 91.726C35.0765 91.9967 35.4918 92.132 36.0238 92.132ZM44.0072 93.168C43.3352 93.168 42.7472 93.042 42.2432 92.79C41.7392 92.538 41.3472 92.1787 41.0672 91.712C40.7872 91.236 40.6472 90.6713 40.6472 90.018H41.8932C41.8932 90.4567 41.9866 90.8347 42.1732 91.152C42.3599 91.4693 42.6119 91.712 42.9292 91.88C43.2559 92.048 43.6152 92.132 44.0072 92.132C44.4086 92.132 44.7632 92.0527 45.0712 91.894C45.3792 91.726 45.6172 91.474 45.7852 91.138C45.9626 90.802 46.0512 90.3773 46.0512 89.864C46.0512 89.3973 45.9719 89.0147 45.8132 88.716C45.6546 88.408 45.4259 88.1793 45.1272 88.03C44.8379 87.8807 44.5019 87.806 44.1192 87.806C43.8392 87.806 43.5732 87.8527 43.3212 87.946C43.0692 88.03 42.8406 88.1513 42.6352 88.31C42.4392 88.4687 42.2759 88.6647 42.1452 88.898L40.9832 88.716L41.3892 83.396H46.8352V84.544H42.4672L42.2432 87.54C42.4019 87.4 42.5792 87.274 42.7752 87.162C42.9806 87.0407 43.2139 86.9473 43.4752 86.882C43.7366 86.8073 44.0352 86.77 44.3712 86.77C44.9219 86.77 45.4212 86.8773 45.8692 87.092C46.3172 87.3067 46.6719 87.638 46.9332 88.086C47.1946 88.534 47.3252 89.1127 47.3252 89.822C47.3252 90.522 47.1899 91.124 46.9192 91.628C46.6579 92.132 46.2799 92.5147 45.7852 92.776C45.2906 93.0373 44.6979 93.168 44.0072 93.168ZM52.0613 93.168C51.5106 93.168 51.0159 93.0887 50.5773 92.93C50.1479 92.7713 49.7793 92.5147 49.4713 92.16C49.1726 91.8053 48.9439 91.3293 48.7853 90.732C48.6266 90.1253 48.5473 89.374 48.5473 88.478C48.5473 87.4887 48.6266 86.6627 48.7853 86C48.9439 85.328 49.1679 84.7913 49.4573 84.39C49.7559 83.9793 50.1199 83.6853 50.5493 83.508C50.9879 83.3213 51.4826 83.228 52.0333 83.228C52.7239 83.228 53.2793 83.3587 53.6993 83.62C54.1286 83.8813 54.4413 84.236 54.6373 84.684C54.8333 85.1227 54.9313 85.6267 54.9313 86.196H53.6713C53.6713 85.7667 53.6106 85.4073 53.4893 85.118C53.3679 84.8287 53.1766 84.614 52.9153 84.474C52.6633 84.334 52.3459 84.264 51.9633 84.264C51.4033 84.264 50.9646 84.4133 50.6473 84.712C50.3393 85.0013 50.1246 85.426 50.0033 85.986C49.8913 86.546 49.8306 87.2133 49.8213 87.988C49.9519 87.7733 50.1339 87.5773 50.3673 87.4C50.6099 87.2227 50.8946 87.0827 51.2213 86.98C51.5479 86.868 51.8933 86.812 52.2573 86.812C52.9479 86.812 53.5173 86.952 53.9653 87.232C54.4133 87.5027 54.7446 87.876 54.9593 88.352C55.1739 88.828 55.2813 89.36 55.2813 89.948C55.2813 90.592 55.1413 91.1567 54.8613 91.642C54.5813 92.1273 54.1986 92.5053 53.7133 92.776C53.2279 93.0373 52.6773 93.168 52.0613 93.168ZM51.9773 92.132C52.4346 92.132 52.8126 92.034 53.1113 91.838C53.4099 91.6327 53.6293 91.3667 53.7693 91.04C53.9186 90.704 53.9933 90.3353 53.9933 89.934C53.9933 89.5513 53.9233 89.2013 53.7833 88.884C53.6433 88.5667 53.4239 88.3147 53.1253 88.128C52.8359 87.932 52.4626 87.834 52.0053 87.834C51.5479 87.834 51.1653 87.932 50.8573 88.128C50.5493 88.324 50.3206 88.5853 50.1713 88.912C50.0219 89.2293 49.9473 89.5933 49.9473 90.004C49.9473 90.3867 50.0219 90.7413 50.1713 91.068C50.3206 91.3947 50.5446 91.656 50.8433 91.852C51.1419 92.0387 51.5199 92.132 51.9773 92.132ZM57.0067 93V83.396H64.3987V84.544H58.3367V87.512H63.7827V88.66H58.3367V91.852H64.4827V93H57.0067ZM69.2113 93.168C68.6886 93.168 68.2219 93.0933 67.8113 92.944C67.4006 92.7853 67.0506 92.5193 66.7613 92.146C66.4719 91.7633 66.2526 91.2547 66.1033 90.62C65.9539 89.976 65.8793 89.1687 65.8793 88.198C65.8793 87.2273 65.9539 86.4247 66.1033 85.79C66.2526 85.146 66.4719 84.6373 66.7613 84.264C67.0506 83.8813 67.4006 83.6153 67.8113 83.466C68.2219 83.3073 68.6886 83.228 69.2113 83.228C69.7339 83.228 70.1959 83.3073 70.5973 83.466C71.0079 83.6153 71.3579 83.8813 71.6473 84.264C71.9366 84.6373 72.1559 85.146 72.3053 85.79C72.4546 86.4247 72.5293 87.2273 72.5293 88.198C72.5293 89.1687 72.4546 89.976 72.3053 90.62C72.1559 91.2547 71.9366 91.7633 71.6473 92.146C71.3579 92.5193 71.0079 92.7853 70.5973 92.944C70.1959 93.0933 69.7339 93.168 69.2113 93.168ZM69.2113 92.132C69.7433 92.132 70.1539 91.9967 70.4433 91.726C70.7419 91.4553 70.9473 91.054 71.0593 90.522C71.1806 89.99 71.2413 89.3273 71.2413 88.534V87.89C71.2413 87.0873 71.1806 86.42 71.0593 85.888C70.9473 85.3467 70.7419 84.9407 70.4433 84.67C70.1539 84.3993 69.7433 84.264 69.2113 84.264C68.6793 84.264 68.2639 84.3993 67.9653 84.67C67.6666 84.9407 67.4566 85.342 67.3353 85.874C67.2233 86.406 67.1673 87.0733 67.1673 87.876V88.506C67.1673 89.2993 67.2233 89.9667 67.3353 90.508C67.4566 91.0493 67.6666 91.4553 67.9653 91.726C68.2639 91.9967 68.6793 92.132 69.2113 92.132Z" fill="#272433"/><line x1="90" y1="86.5" x2="121" y2="86.5" stroke="#272433"/><path d="M304.841 31.168L305.429 28.494H304.295V27.43H305.653L306.129 25.26H304.939V24.196H306.367L307.025 21.228H308.131L307.473 24.196H309.531L310.189 21.228H311.309L310.637 24.196H311.757V25.26H310.427L309.937 27.43H311.127V28.494H309.713L309.125 31.168H308.019L308.607 28.494H306.535L305.961 31.168H304.841ZM306.759 27.43H308.831L309.307 25.26H307.249L306.759 27.43ZM312.724 31V30.594C312.724 30.202 312.798 29.8427 312.948 29.516C313.106 29.18 313.312 28.8767 313.564 28.606C313.825 28.326 314.119 28.06 314.446 27.808C314.772 27.556 315.104 27.3087 315.44 27.066C315.897 26.7487 316.317 26.4313 316.7 26.114C317.092 25.7967 317.404 25.456 317.638 25.092C317.871 24.7187 317.988 24.3033 317.988 23.846C317.988 23.5567 317.918 23.2953 317.778 23.062C317.647 22.8193 317.446 22.628 317.176 22.488C316.905 22.348 316.56 22.278 316.14 22.278C315.645 22.278 315.248 22.362 314.95 22.53C314.651 22.698 314.432 22.922 314.292 23.202C314.161 23.482 314.096 23.79 314.096 24.126V24.7H312.878C312.868 24.6533 312.859 24.5833 312.85 24.49C312.84 24.3873 312.836 24.2707 312.836 24.14C312.836 23.4493 312.99 22.894 313.298 22.474C313.606 22.0447 314.016 21.732 314.53 21.536C315.043 21.3307 315.598 21.228 316.196 21.228C316.728 21.228 317.185 21.3027 317.568 21.452C317.95 21.592 318.268 21.788 318.52 22.04C318.772 22.292 318.958 22.5813 319.08 22.908C319.201 23.2253 319.262 23.5613 319.262 23.916C319.262 24.3547 319.182 24.756 319.024 25.12C318.874 25.484 318.66 25.8247 318.38 26.142C318.109 26.45 317.787 26.7487 317.414 27.038C317.05 27.3273 316.653 27.6213 316.224 27.92C315.925 28.116 315.631 28.326 315.342 28.55C315.052 28.7647 314.805 28.984 314.6 29.208C314.394 29.432 314.264 29.6467 314.208 29.852H319.318V31H312.724ZM324.083 31.168C323.532 31.168 323.038 31.0887 322.599 30.93C322.17 30.7713 321.801 30.5147 321.493 30.16C321.194 29.8053 320.966 29.3293 320.807 28.732C320.648 28.1253 320.569 27.374 320.569 26.478C320.569 25.4887 320.648 24.6627 320.807 24C320.966 23.328 321.19 22.7913 321.479 22.39C321.778 21.9793 322.142 21.6853 322.571 21.508C323.01 21.3213 323.504 21.228 324.055 21.228C324.746 21.228 325.301 21.3587 325.721 21.62C326.15 21.8813 326.463 22.236 326.659 22.684C326.855 23.1227 326.953 23.6267 326.953 24.196H325.693C325.693 23.7667 325.632 23.4073 325.511 23.118C325.39 22.8287 325.198 22.614 324.937 22.474C324.685 22.334 324.368 22.264 323.985 22.264C323.425 22.264 322.986 22.4133 322.669 22.712C322.361 23.0013 322.146 23.426 322.025 23.986C321.913 24.546 321.852 25.2133 321.843 25.988C321.974 25.7733 322.156 25.5773 322.389 25.4C322.632 25.2227 322.916 25.0827 323.243 24.98C323.57 24.868 323.915 24.812 324.279 24.812C324.97 24.812 325.539 24.952 325.987 25.232C326.435 25.5027 326.766 25.876 326.981 26.352C327.196 26.828 327.303 27.36 327.303 27.948C327.303 28.592 327.163 29.1567 326.883 29.642C326.603 30.1273 326.22 30.5053 325.735 30.776C325.25 31.0373 324.699 31.168 324.083 31.168ZM323.999 30.132C324.456 30.132 324.834 30.034 325.133 29.838C325.432 29.6327 325.651 29.3667 325.791 29.04C325.94 28.704 326.015 28.3353 326.015 27.934C326.015 27.5513 325.945 27.2013 325.805 26.884C325.665 26.5667 325.446 26.3147 325.147 26.128C324.858 25.932 324.484 25.834 324.027 25.834C323.57 25.834 323.187 25.932 322.879 26.128C322.571 26.324 322.342 26.5853 322.193 26.912C322.044 27.2293 321.969 27.5933 321.969 28.004C321.969 28.3867 322.044 28.7413 322.193 29.068C322.342 29.3947 322.566 29.656 322.865 29.852C323.164 30.0387 323.542 30.132 323.999 30.132ZM328.524 31V30.594C328.524 30.202 328.599 29.8427 328.748 29.516C328.907 29.18 329.112 28.8767 329.364 28.606C329.626 28.326 329.92 28.06 330.246 27.808C330.573 27.556 330.904 27.3087 331.24 27.066C331.698 26.7487 332.118 26.4313 332.5 26.114C332.892 25.7967 333.205 25.456 333.438 25.092C333.672 24.7187 333.788 24.3033 333.788 23.846C333.788 23.5567 333.718 23.2953 333.578 23.062C333.448 22.8193 333.247 22.628 332.976 22.488C332.706 22.348 332.36 22.278 331.94 22.278C331.446 22.278 331.049 22.362 330.75 22.53C330.452 22.698 330.232 22.922 330.092 23.202C329.962 23.482 329.896 23.79 329.896 24.126V24.7H328.678C328.669 24.6533 328.66 24.5833 328.65 24.49C328.641 24.3873 328.636 24.2707 328.636 24.14C328.636 23.4493 328.79 22.894 329.098 22.474C329.406 22.0447 329.817 21.732 330.33 21.536C330.844 21.3307 331.399 21.228 331.996 21.228C332.528 21.228 332.986 21.3027 333.368 21.452C333.751 21.592 334.068 21.788 334.32 22.04C334.572 22.292 334.759 22.5813 334.88 22.908C335.002 23.2253 335.062 23.5613 335.062 23.916C335.062 24.3547 334.983 24.756 334.824 25.12C334.675 25.484 334.46 25.8247 334.18 26.142C333.91 26.45 333.588 26.7487 333.214 27.038C332.85 27.3273 332.454 27.6213 332.024 27.92C331.726 28.116 331.432 28.326 331.142 28.55C330.853 28.7647 330.606 28.984 330.4 29.208C330.195 29.432 330.064 29.6467 330.008 29.852H335.118V31H328.524ZM339.744 31.168C339.072 31.168 338.484 31.042 337.98 30.79C337.476 30.538 337.084 30.1787 336.804 29.712C336.524 29.236 336.384 28.6713 336.384 28.018H337.63C337.63 28.4567 337.723 28.8347 337.91 29.152C338.096 29.4693 338.348 29.712 338.666 29.88C338.992 30.048 339.352 30.132 339.744 30.132C340.145 30.132 340.5 30.0527 340.808 29.894C341.116 29.726 341.354 29.474 341.522 29.138C341.699 28.802 341.788 28.3773 341.788 27.864C341.788 27.3973 341.708 27.0147 341.55 26.716C341.391 26.408 341.162 26.1793 340.864 26.03C340.574 25.8807 340.238 25.806 339.856 25.806C339.576 25.806 339.31 25.8527 339.058 25.946C338.806 26.03 338.577 26.1513 338.372 26.31C338.176 26.4687 338.012 26.6647 337.882 26.898L336.72 26.716L337.126 21.396H342.572V22.544H338.204L337.98 25.54C338.138 25.4 338.316 25.274 338.512 25.162C338.717 25.0407 338.95 24.9473 339.212 24.882C339.473 24.8073 339.772 24.77 340.108 24.77C340.658 24.77 341.158 24.8773 341.606 25.092C342.054 25.3067 342.408 25.638 342.67 26.086C342.931 26.534 343.062 27.1127 343.062 27.822C343.062 28.522 342.926 29.124 342.656 29.628C342.394 30.132 342.016 30.5147 341.522 30.776C341.027 31.0373 340.434 31.168 339.744 31.168ZM344.298 31V30.594C344.298 30.202 344.372 29.8427 344.522 29.516C344.68 29.18 344.886 28.8767 345.138 28.606C345.399 28.326 345.693 28.06 346.02 27.808C346.346 27.556 346.678 27.3087 347.014 27.066C347.471 26.7487 347.891 26.4313 348.274 26.114C348.666 25.7967 348.978 25.456 349.212 25.092C349.445 24.7187 349.562 24.3033 349.562 23.846C349.562 23.5567 349.492 23.2953 349.352 23.062C349.221 22.8193 349.02 22.628 348.75 22.488C348.479 22.348 348.134 22.278 347.714 22.278C347.219 22.278 346.822 22.362 346.524 22.53C346.225 22.698 346.006 22.922 345.866 23.202C345.735 23.482 345.67 23.79 345.67 24.126V24.7H344.452C344.442 24.6533 344.433 24.5833 344.424 24.49C344.414 24.3873 344.41 24.2707 344.41 24.14C344.41 23.4493 344.564 22.894 344.872 22.474C345.18 22.0447 345.59 21.732 346.104 21.536C346.617 21.3307 347.172 21.228 347.77 21.228C348.302 21.228 348.759 21.3027 349.142 21.452C349.524 21.592 349.842 21.788 350.094 22.04C350.346 22.292 350.532 22.5813 350.654 22.908C350.775 23.2253 350.836 23.5613 350.836 23.916C350.836 24.3547 350.756 24.756 350.598 25.12C350.448 25.484 350.234 25.8247 349.954 26.142C349.683 26.45 349.361 26.7487 348.988 27.038C348.624 27.3273 348.227 27.6213 347.798 27.92C347.499 28.116 347.205 28.326 346.916 28.55C346.626 28.7647 346.379 28.984 346.174 29.208C345.968 29.432 345.838 29.6467 345.782 29.852H350.892V31H344.298ZM351.555 31L355.349 21.396H357.099L360.907 31H359.465L358.527 28.62H353.851L352.927 31H351.555ZM354.285 27.486H358.079L356.917 24.476C356.889 24.392 356.847 24.2753 356.791 24.126C356.735 23.9767 356.674 23.8133 356.609 23.636C356.544 23.4493 356.478 23.2627 356.413 23.076C356.348 22.88 356.287 22.7027 356.231 22.544H356.147C356.082 22.7307 356.007 22.9453 355.923 23.188C355.839 23.4307 355.755 23.6687 355.671 23.902C355.587 24.126 355.517 24.3173 355.461 24.476L354.285 27.486ZM332.29 51V49.95H334.712V43.3H332.276V42.516C332.621 42.488 332.976 42.4367 333.34 42.362C333.713 42.2873 334.077 42.1707 334.432 42.012C334.786 41.844 335.108 41.6293 335.398 41.368H335.958V49.95H338.24V51H332.29ZM343.426 51V48.648H338.96V47.612C339.352 46.94 339.707 46.2633 340.024 45.582C340.351 44.9007 340.64 44.2007 340.892 43.482C341.154 42.7633 341.368 42.012 341.536 41.228H342.852C342.731 41.7413 342.582 42.2687 342.404 42.81C342.227 43.342 342.031 43.86 341.816 44.364C341.602 44.868 341.387 45.3393 341.172 45.778C340.967 46.2167 340.771 46.5947 340.584 46.912C340.407 47.2293 340.262 47.4627 340.15 47.612H343.426V44.56C343.482 44.4107 343.538 44.2567 343.594 44.098C343.66 43.93 343.72 43.762 343.776 43.594C343.832 43.4167 343.884 43.2533 343.93 43.104C343.977 42.9453 344.014 42.796 344.042 42.656H344.658V47.612H345.932V48.648H344.658V51H343.426ZM347.216 53.422V43.636H348.196L348.322 44.686H348.42C348.672 44.2753 348.994 43.972 349.386 43.776C349.778 43.5707 350.221 43.468 350.716 43.468C351.332 43.468 351.855 43.6033 352.284 43.874C352.713 44.1447 353.045 44.5693 353.278 45.148C353.511 45.7173 353.628 46.4593 353.628 47.374C353.628 48.2327 353.507 48.9467 353.264 49.516C353.031 50.076 352.699 50.4913 352.27 50.762C351.841 51.0327 351.341 51.168 350.772 51.168C350.455 51.168 350.156 51.1307 349.876 51.056C349.596 50.9813 349.344 50.8647 349.12 50.706C348.896 50.538 348.7 50.328 348.532 50.076H348.448V53.422H347.216ZM350.38 50.09C350.837 50.09 351.211 50.0013 351.5 49.824C351.789 49.6373 352.004 49.3527 352.144 48.97C352.284 48.578 352.354 48.0787 352.354 47.472V47.178C352.354 46.534 352.279 46.0207 352.13 45.638C351.981 45.246 351.761 44.966 351.472 44.798C351.192 44.63 350.842 44.546 350.422 44.546C349.965 44.546 349.587 44.6487 349.288 44.854C348.999 45.05 348.784 45.3487 348.644 45.75C348.513 46.1513 348.448 46.6413 348.448 47.22V47.43C348.448 47.9433 348.495 48.3727 348.588 48.718C348.691 49.054 348.831 49.3247 349.008 49.53C349.195 49.7353 349.405 49.88 349.638 49.964C349.871 50.048 350.119 50.09 350.38 50.09ZM354.018 51L356.664 47.234L354.144 43.636H355.628L357.42 46.268H357.49L359.282 43.636H360.682L358.162 47.192L360.822 51H359.352L357.42 48.158H357.35L355.418 51H354.018Z" fill="#272433"/><line x1="260" y1="25.5" x2="286" y2="25.5" stroke="#272433"/><path d="M0.882 15.168L1.47 12.494H0.336V11.43H1.694L2.17 9.26H0.98V8.196H2.408L3.066 5.228H4.172L3.514 8.196H5.572L6.23 5.228H7.35L6.678 8.196H7.798V9.26H6.468L5.978 11.43H7.168V12.494H5.754L5.166 15.168H4.06L4.648 12.494H2.576L2.002 15.168H0.882ZM2.8 11.43H4.872L5.348 9.26H3.29L2.8 11.43ZM12.2644 15.168C11.7138 15.168 11.2191 15.0887 10.7804 14.93C10.3511 14.7713 9.98244 14.5147 9.67444 14.16C9.37577 13.8053 9.1471 13.3293 8.98844 12.732C8.82977 12.1253 8.75044 11.374 8.75044 10.478C8.75044 9.48867 8.82977 8.66267 8.98844 8C9.1471 7.328 9.3711 6.79133 9.66044 6.39C9.9591 5.97933 10.3231 5.68533 10.7524 5.508C11.1911 5.32133 11.6858 5.228 12.2364 5.228C12.9271 5.228 13.4824 5.35867 13.9024 5.62C14.3318 5.88133 14.6444 6.236 14.8404 6.684C15.0364 7.12267 15.1344 7.62667 15.1344 8.196H13.8744C13.8744 7.76667 13.8138 7.40733 13.6924 7.118C13.5711 6.82867 13.3798 6.614 13.1184 6.474C12.8664 6.334 12.5491 6.264 12.1664 6.264C11.6064 6.264 11.1678 6.41333 10.8504 6.712C10.5424 7.00133 10.3278 7.426 10.2064 7.986C10.0944 8.546 10.0338 9.21333 10.0244 9.988C10.1551 9.77333 10.3371 9.57733 10.5704 9.4C10.8131 9.22267 11.0978 9.08267 11.4244 8.98C11.7511 8.868 12.0964 8.812 12.4604 8.812C13.1511 8.812 13.7204 8.952 14.1684 9.232C14.6164 9.50267 14.9478 9.876 15.1624 10.352C15.3771 10.828 15.4844 11.36 15.4844 11.948C15.4844 12.592 15.3444 13.1567 15.0644 13.642C14.7844 14.1273 14.4018 14.5053 13.9164 14.776C13.4311 15.0373 12.8804 15.168 12.2644 15.168ZM12.1804 14.132C12.6378 14.132 13.0158 14.034 13.3144 13.838C13.6131 13.6327 13.8324 13.3667 13.9724 13.04C14.1218 12.704 14.1964 12.3353 14.1964 11.934C14.1964 11.5513 14.1264 11.2013 13.9864 10.884C13.8464 10.5667 13.6271 10.3147 13.3284 10.128C13.0391 9.932 12.6658 9.834 12.2084 9.834C11.7511 9.834 11.3684 9.932 11.0604 10.128C10.7524 10.324 10.5238 10.5853 10.3744 10.912C10.2251 11.2293 10.1504 11.5933 10.1504 12.004C10.1504 12.3867 10.2251 12.7413 10.3744 13.068C10.5238 13.3947 10.7478 13.656 11.0464 13.852C11.3451 14.0387 11.7231 14.132 12.1804 14.132ZM21.3118 15.168C20.3318 15.168 19.5012 14.9907 18.8198 14.636C18.1385 14.272 17.6158 13.726 17.2518 12.998C16.8972 12.2607 16.7198 11.3273 16.7198 10.198C16.7198 8.52733 17.1258 7.28133 17.9378 6.46C18.7498 5.63867 19.8792 5.228 21.3258 5.228C22.1472 5.228 22.8752 5.36333 23.5098 5.634C24.1445 5.89533 24.6392 6.29667 24.9938 6.838C25.3578 7.37 25.5398 8.042 25.5398 8.854H24.1958C24.1958 8.294 24.0745 7.832 23.8318 7.468C23.5985 7.104 23.2672 6.83333 22.8378 6.656C22.4085 6.46933 21.9045 6.376 21.3258 6.376C20.6538 6.376 20.0752 6.50667 19.5898 6.768C19.1045 7.02933 18.7358 7.43533 18.4838 7.986C18.2318 8.52733 18.1058 9.22733 18.1058 10.086V10.38C18.1058 11.2293 18.2318 11.9247 18.4838 12.466C18.7358 12.998 19.0998 13.39 19.5758 13.642C20.0612 13.894 20.6445 14.02 21.3258 14.02C21.9232 14.02 22.4365 13.9313 22.8658 13.754C23.3045 13.5767 23.6405 13.306 23.8738 12.942C24.1165 12.5687 24.2378 12.102 24.2378 11.542H25.5398C25.5398 12.3727 25.3532 13.054 24.9798 13.586C24.6158 14.118 24.1165 14.5147 23.4818 14.776C22.8472 15.0373 22.1238 15.168 21.3118 15.168ZM30.3074 15.168C29.7567 15.168 29.262 15.0887 28.8234 14.93C28.394 14.7713 28.0254 14.5147 27.7174 14.16C27.4187 13.8053 27.19 13.3293 27.0314 12.732C26.8727 12.1253 26.7934 11.374 26.7934 10.478C26.7934 9.48867 26.8727 8.66267 27.0314 8C27.19 7.328 27.414 6.79133 27.7034 6.39C28.002 5.97933 28.366 5.68533 28.7954 5.508C29.234 5.32133 29.7287 5.228 30.2794 5.228C30.97 5.228 31.5254 5.35867 31.9454 5.62C32.3747 5.88133 32.6874 6.236 32.8834 6.684C33.0794 7.12267 33.1774 7.62667 33.1774 8.196H31.9174C31.9174 7.76667 31.8567 7.40733 31.7354 7.118C31.614 6.82867 31.4227 6.614 31.1614 6.474C30.9094 6.334 30.592 6.264 30.2094 6.264C29.6494 6.264 29.2107 6.41333 28.8934 6.712C28.5854 7.00133 28.3707 7.426 28.2494 7.986C28.1374 8.546 28.0767 9.21333 28.0674 9.988C28.198 9.77333 28.38 9.57733 28.6134 9.4C28.856 9.22267 29.1407 9.08267 29.4674 8.98C29.794 8.868 30.1394 8.812 30.5034 8.812C31.194 8.812 31.7634 8.952 32.2114 9.232C32.6594 9.50267 32.9907 9.876 33.2054 10.352C33.42 10.828 33.5274 11.36 33.5274 11.948C33.5274 12.592 33.3874 13.1567 33.1074 13.642C32.8274 14.1273 32.4447 14.5053 31.9594 14.776C31.474 15.0373 30.9234 15.168 30.3074 15.168ZM30.2234 14.132C30.6807 14.132 31.0587 14.034 31.3574 13.838C31.656 13.6327 31.8754 13.3667 32.0154 13.04C32.1647 12.704 32.2394 12.3353 32.2394 11.934C32.2394 11.5513 32.1694 11.2013 32.0294 10.884C31.8894 10.5667 31.67 10.3147 31.3714 10.128C31.082 9.932 30.7087 9.834 30.2514 9.834C29.794 9.834 29.4114 9.932 29.1034 10.128C28.7954 10.324 28.5667 10.5853 28.4174 10.912C28.268 11.2293 28.1934 11.5933 28.1934 12.004C28.1934 12.3867 28.268 12.7413 28.4174 13.068C28.5667 13.3947 28.7907 13.656 29.0894 13.852C29.388 14.0387 29.766 14.132 30.2234 14.132ZM38.0668 15.168C37.2734 15.168 36.6294 15.042 36.1348 14.79C35.6401 14.538 35.2761 14.202 35.0428 13.782C34.8188 13.362 34.7068 12.8953 34.7068 12.382C34.7068 11.8593 34.8374 11.3973 35.0988 10.996C35.3601 10.5947 35.7708 10.2867 36.3308 10.072C35.8828 9.83867 35.5421 9.53067 35.3088 9.148C35.0848 8.76533 34.9728 8.34067 34.9728 7.874C34.9728 7.37933 35.0848 6.936 35.3088 6.544C35.5421 6.14267 35.8874 5.82533 36.3448 5.592C36.8114 5.34933 37.3854 5.228 38.0668 5.228C38.7481 5.228 39.3174 5.34933 39.7748 5.592C40.2321 5.82533 40.5774 6.14267 40.8108 6.544C41.0441 6.936 41.1608 7.37933 41.1608 7.874C41.1608 8.34067 41.0441 8.76533 40.8108 9.148C40.5774 9.53067 40.2368 9.83867 39.7888 10.072C40.3581 10.2867 40.7688 10.5947 41.0208 10.996C41.2821 11.3973 41.4128 11.8593 41.4128 12.382C41.4128 12.8953 41.2961 13.362 41.0628 13.782C40.8388 14.202 40.4794 14.538 39.9848 14.79C39.4994 15.042 38.8601 15.168 38.0668 15.168ZM38.0668 14.146C38.7481 14.146 39.2614 13.9873 39.6068 13.67C39.9521 13.3527 40.1248 12.9187 40.1248 12.368C40.1248 11.8267 39.9521 11.3973 39.6068 11.08C39.2614 10.7627 38.7481 10.604 38.0668 10.604C37.3854 10.604 36.8674 10.7627 36.5128 11.08C36.1674 11.3973 35.9948 11.8267 35.9948 12.368C35.9948 12.9187 36.1674 13.3527 36.5128 13.67C36.8674 13.9873 37.3854 14.146 38.0668 14.146ZM38.0668 9.582C38.6361 9.582 39.0841 9.43733 39.4108 9.148C39.7374 8.84933 39.9008 8.434 39.9008 7.902C39.9008 7.37933 39.7374 6.97333 39.4108 6.684C39.0841 6.39467 38.6361 6.25 38.0668 6.25C37.4974 6.25 37.0494 6.39467 36.7228 6.684C36.3961 6.97333 36.2328 7.37933 36.2328 7.902C36.2328 8.434 36.3961 8.84933 36.7228 9.148C37.0494 9.43733 37.4974 9.582 38.0668 9.582ZM46.2038 15.168C45.6532 15.168 45.1585 15.0887 44.7198 14.93C44.2905 14.7713 43.9218 14.5147 43.6138 14.16C43.3152 13.8053 43.0865 13.3293 42.9278 12.732C42.7692 12.1253 42.6898 11.374 42.6898 10.478C42.6898 9.48867 42.7692 8.66267 42.9278 8C43.0865 7.328 43.3105 6.79133 43.5998 6.39C43.8985 5.97933 44.2625 5.68533 44.6918 5.508C45.1305 5.32133 45.6252 5.228 46.1758 5.228C46.8665 5.228 47.4218 5.35867 47.8418 5.62C48.2712 5.88133 48.5838 6.236 48.7798 6.684C48.9758 7.12267 49.0738 7.62667 49.0738 8.196H47.8138C47.8138 7.76667 47.7532 7.40733 47.6318 7.118C47.5105 6.82867 47.3192 6.614 47.0578 6.474C46.8058 6.334 46.4885 6.264 46.1058 6.264C45.5458 6.264 45.1072 6.41333 44.7898 6.712C44.4818 7.00133 44.2672 7.426 44.1458 7.986C44.0338 8.546 43.9732 9.21333 43.9638 9.988C44.0945 9.77333 44.2765 9.57733 44.5098 9.4C44.7525 9.22267 45.0372 9.08267 45.3638 8.98C45.6905 8.868 46.0358 8.812 46.3998 8.812C47.0905 8.812 47.6598 8.952 48.1078 9.232C48.5558 9.50267 48.8872 9.876 49.1018 10.352C49.3165 10.828 49.4238 11.36 49.4238 11.948C49.4238 12.592 49.2838 13.1567 49.0038 13.642C48.7238 14.1273 48.3412 14.5053 47.8558 14.776C47.3705 15.0373 46.8198 15.168 46.2038 15.168ZM46.1198 14.132C46.5772 14.132 46.9552 14.034 47.2538 13.838C47.5525 13.6327 47.7718 13.3667 47.9118 13.04C48.0612 12.704 48.1358 12.3353 48.1358 11.934C48.1358 11.5513 48.0658 11.2013 47.9258 10.884C47.7858 10.5667 47.5665 10.3147 47.2678 10.128C46.9785 9.932 46.6052 9.834 46.1478 9.834C45.6905 9.834 45.3078 9.932 44.9998 10.128C44.6918 10.324 44.4632 10.5853 44.3138 10.912C44.1645 11.2293 44.0898 11.5933 44.0898 12.004C44.0898 12.3867 44.1645 12.7413 44.3138 13.068C44.4632 13.3947 44.6872 13.656 44.9858 13.852C45.2845 14.0387 45.6625 14.132 46.1198 14.132ZM50.6452 15V14.594C50.6452 14.202 50.7199 13.8427 50.8692 13.516C51.0279 13.18 51.2332 12.8767 51.4852 12.606C51.7466 12.326 52.0406 12.06 52.3672 11.808C52.6939 11.556 53.0252 11.3087 53.3612 11.066C53.8186 10.7487 54.2386 10.4313 54.6212 10.114C55.0132 9.79667 55.3259 9.456 55.5592 9.092C55.7926 8.71867 55.9092 8.30333 55.9092 7.846C55.9092 7.55667 55.8392 7.29533 55.6992 7.062C55.5686 6.81933 55.3679 6.628 55.0972 6.488C54.8266 6.348 54.4812 6.278 54.0612 6.278C53.5666 6.278 53.1699 6.362 52.8712 6.53C52.5726 6.698 52.3532 6.922 52.2132 7.202C52.0826 7.482 52.0172 7.79 52.0172 8.126V8.7H50.7992C50.7899 8.65333 50.7806 8.58333 50.7712 8.49C50.7619 8.38733 50.7572 8.27067 50.7572 8.14C50.7572 7.44933 50.9112 6.894 51.2192 6.474C51.5272 6.04467 51.9379 5.732 52.4512 5.536C52.9646 5.33067 53.5199 5.228 54.1172 5.228C54.6492 5.228 55.1066 5.30267 55.4892 5.452C55.8719 5.592 56.1892 5.788 56.4412 6.04C56.6932 6.292 56.8799 6.58133 57.0012 6.908C57.1226 7.22533 57.1832 7.56133 57.1832 7.916C57.1832 8.35467 57.1039 8.756 56.9452 9.12C56.7959 9.484 56.5812 9.82467 56.3012 10.142C56.0306 10.45 55.7086 10.7487 55.3352 11.038C54.9712 11.3273 54.5746 11.6213 54.1452 11.92C53.8466 12.116 53.5526 12.326 53.2632 12.55C52.9739 12.7647 52.7266 12.984 52.5212 13.208C52.3159 13.432 52.1852 13.6467 52.1292 13.852H57.2392V15H50.6452ZM0.938 35V33.95H3.36V27.3H0.924V26.516C1.26933 26.488 1.624 26.4367 1.988 26.362C2.36133 26.2873 2.72533 26.1707 3.08 26.012C3.43467 25.844 3.75667 25.6293 4.046 25.368H4.606V33.95H6.888V35H0.938ZM11.2348 35.168C10.4414 35.168 9.79745 35.042 9.30278 34.79C8.80811 34.538 8.44411 34.202 8.21078 33.782C7.98678 33.362 7.87478 32.8953 7.87478 32.382C7.87478 31.8593 8.00545 31.3973 8.26678 30.996C8.52811 30.5947 8.93878 30.2867 9.49878 30.072C9.05078 29.8387 8.71011 29.5307 8.47678 29.148C8.25278 28.7653 8.14078 28.3407 8.14078 27.874C8.14078 27.3793 8.25278 26.936 8.47678 26.544C8.71011 26.1427 9.05545 25.8253 9.51278 25.592C9.97945 25.3493 10.5534 25.228 11.2348 25.228C11.9161 25.228 12.4854 25.3493 12.9428 25.592C13.4001 25.8253 13.7454 26.1427 13.9788 26.544C14.2121 26.936 14.3288 27.3793 14.3288 27.874C14.3288 28.3407 14.2121 28.7653 13.9788 29.148C13.7454 29.5307 13.4048 29.8387 12.9568 30.072C13.5261 30.2867 13.9368 30.5947 14.1888 30.996C14.4501 31.3973 14.5808 31.8593 14.5808 32.382C14.5808 32.8953 14.4641 33.362 14.2308 33.782C14.0068 34.202 13.6474 34.538 13.1528 34.79C12.6674 35.042 12.0281 35.168 11.2348 35.168ZM11.2348 34.146C11.9161 34.146 12.4294 33.9873 12.7748 33.67C13.1201 33.3527 13.2928 32.9187 13.2928 32.368C13.2928 31.8267 13.1201 31.3973 12.7748 31.08C12.4294 30.7627 11.9161 30.604 11.2348 30.604C10.5534 30.604 10.0354 30.7627 9.68078 31.08C9.33545 31.3973 9.16278 31.8267 9.16278 32.368C9.16278 32.9187 9.33545 33.3527 9.68078 33.67C10.0354 33.9873 10.5534 34.146 11.2348 34.146ZM11.2348 29.582C11.8041 29.582 12.2521 29.4373 12.5788 29.148C12.9054 28.8493 13.0688 28.434 13.0688 27.902C13.0688 27.3793 12.9054 26.9733 12.5788 26.684C12.2521 26.3947 11.8041 26.25 11.2348 26.25C10.6654 26.25 10.2174 26.3947 9.89078 26.684C9.56411 26.9733 9.40078 27.3793 9.40078 27.902C9.40078 28.434 9.56411 28.8493 9.89078 29.148C10.2174 29.4373 10.6654 29.582 11.2348 29.582ZM16.1378 37.422V27.636H17.1178L17.2438 28.686H17.3418C17.5938 28.2753 17.9158 27.972 18.3078 27.776C18.6998 27.5707 19.1432 27.468 19.6378 27.468C20.2538 27.468 20.7765 27.6033 21.2058 27.874C21.6352 28.1447 21.9665 28.5693 22.1998 29.148C22.4332 29.7173 22.5498 30.4593 22.5498 31.374C22.5498 32.2327 22.4285 32.9467 22.1858 33.516C21.9525 34.076 21.6212 34.4913 21.1918 34.762C20.7625 35.0327 20.2632 35.168 19.6938 35.168C19.3765 35.168 19.0778 35.1307 18.7978 35.056C18.5178 34.9813 18.2658 34.8647 18.0418 34.706C17.8178 34.538 17.6218 34.328 17.4538 34.076H17.3698V37.422H16.1378ZM19.3018 34.09C19.7592 34.09 20.1325 34.0013 20.4218 33.824C20.7112 33.6373 20.9258 33.3527 21.0658 32.97C21.2058 32.578 21.2758 32.0787 21.2758 31.472V31.178C21.2758 30.534 21.2012 30.0207 21.0518 29.638C20.9025 29.246 20.6832 28.966 20.3938 28.798C20.1138 28.63 19.7638 28.546 19.3438 28.546C18.8865 28.546 18.5085 28.6487 18.2098 28.854C17.9205 29.05 17.7058 29.3487 17.5658 29.75C17.4352 30.1513 17.3698 30.6413 17.3698 31.22V31.43C17.3698 31.9433 17.4165 32.3727 17.5098 32.718C17.6125 33.054 17.7525 33.3247 17.9298 33.53C18.1165 33.7353 18.3265 33.88 18.5598 33.964C18.7932 34.048 19.0405 34.09 19.3018 34.09ZM22.9401 35L25.5861 31.234L23.0661 27.636H24.5501L26.3421 30.268H26.4121L28.2041 27.636H29.6041L27.0841 31.192L29.7441 35H28.2741L26.3421 32.158H26.2721L24.3401 35H22.9401ZM33.6456 35V24.878H34.8776V28.56H34.9756C35.1623 28.308 35.3723 28.1027 35.6056 27.944C35.8389 27.7853 36.0956 27.6687 36.3756 27.594C36.6649 27.51 36.9776 27.468 37.3136 27.468C37.7803 27.468 38.1863 27.5473 38.5316 27.706C38.8863 27.8647 39.1616 28.1213 39.3576 28.476C39.5629 28.8307 39.6656 29.3113 39.6656 29.918V35H38.4336V30.086C38.4336 29.778 38.3916 29.526 38.3076 29.33C38.2329 29.134 38.1256 28.98 37.9856 28.868C37.8549 28.756 37.6916 28.6767 37.4956 28.63C37.3089 28.5833 37.0989 28.56 36.8656 28.56C36.5203 28.56 36.1936 28.644 35.8856 28.812C35.5776 28.9707 35.3303 29.2087 35.1436 29.526C34.9663 29.834 34.8776 30.2167 34.8776 30.674V35H33.6456ZM44.3903 35.168C43.6623 35.168 43.0463 35.0327 42.5423 34.762C42.0476 34.482 41.6696 34.0573 41.4083 33.488C41.1563 32.9187 41.0303 32.1953 41.0303 31.318C41.0303 30.4313 41.1563 29.708 41.4083 29.148C41.6696 28.5787 42.0523 28.1587 42.5563 27.888C43.0603 27.608 43.6903 27.468 44.4463 27.468C45.1369 27.468 45.7156 27.6033 46.1823 27.874C46.6489 28.1353 46.9989 28.532 47.2323 29.064C47.4749 29.5867 47.5963 30.2447 47.5963 31.038V31.626H42.3043C42.3229 32.214 42.4069 32.6993 42.5563 33.082C42.7149 33.4553 42.9483 33.7307 43.2563 33.908C43.5643 34.076 43.9516 34.16 44.4183 34.16C44.7356 34.16 45.0109 34.1227 45.2443 34.048C45.4869 33.964 45.6876 33.8473 45.8463 33.698C46.0143 33.5487 46.1403 33.3713 46.2243 33.166C46.3083 32.9607 46.3549 32.7367 46.3643 32.494H47.5683C47.5589 32.886 47.4843 33.25 47.3443 33.586C47.2043 33.9127 46.9989 34.1927 46.7283 34.426C46.4576 34.6593 46.1263 34.8413 45.7343 34.972C45.3423 35.1027 44.8943 35.168 44.3903 35.168ZM42.3323 30.702H46.3223C46.3223 30.2913 46.2756 29.946 46.1823 29.666C46.0889 29.386 45.9536 29.1573 45.7763 28.98C45.6083 28.8027 45.4076 28.6767 45.1743 28.602C44.9503 28.518 44.6936 28.476 44.4043 28.476C43.9749 28.476 43.6109 28.5553 43.3123 28.714C43.0136 28.8727 42.7849 29.1153 42.6263 29.442C42.4676 29.7687 42.3696 30.1887 42.3323 30.702ZM49.0362 26.25V24.878H50.2682V26.25H49.0362ZM49.0362 35V27.636H50.2682V35H49.0362ZM53.3427 37.548C52.9881 37.548 52.6614 37.4733 52.3627 37.324C52.0641 37.184 51.8261 36.9787 51.6487 36.708C51.4714 36.4373 51.3827 36.1153 51.3827 35.742C51.3827 35.3313 51.4947 34.9907 51.7187 34.72C51.9521 34.4493 52.2274 34.2487 52.5447 34.118C52.3114 34.006 52.1294 33.852 51.9987 33.656C51.8681 33.4507 51.8027 33.2267 51.8027 32.984C51.8027 32.6573 51.9194 32.382 52.1527 32.158C52.3954 31.934 52.6894 31.7847 53.0347 31.71C52.7174 31.5047 52.4654 31.2433 52.2787 30.926C52.1014 30.5993 52.0127 30.24 52.0127 29.848C52.0127 29.3813 52.1201 28.9707 52.3347 28.616C52.5587 28.2613 52.8947 27.9813 53.3427 27.776C53.8001 27.5707 54.3554 27.468 55.0087 27.468C55.3074 27.468 55.5874 27.4913 55.8487 27.538C56.1101 27.5753 56.3434 27.6407 56.5487 27.734C56.8754 27.5847 57.1181 27.3933 57.2767 27.16C57.4447 26.9267 57.5474 26.6887 57.5847 26.446H58.8027C58.8027 26.726 58.7374 26.992 58.6067 27.244C58.4854 27.4867 58.3174 27.692 58.1027 27.86C57.8881 28.0187 57.6267 28.126 57.3187 28.182C57.5521 28.406 57.7247 28.658 57.8367 28.938C57.9581 29.218 58.0187 29.5213 58.0187 29.848C58.0187 30.3147 57.9067 30.73 57.6827 31.094C57.4681 31.4487 57.1414 31.7287 56.7027 31.934C56.2641 32.1393 55.7134 32.242 55.0507 32.242H53.9027C53.6507 32.242 53.4454 32.2933 53.2867 32.396C53.1281 32.4893 53.0487 32.6433 53.0487 32.858C53.0487 33.0447 53.1281 33.1987 53.2867 33.32C53.4454 33.432 53.6507 33.488 53.9027 33.488H56.8987C57.4401 33.488 57.8834 33.67 58.2287 34.034C58.5741 34.3887 58.7467 34.846 58.7467 35.406C58.7467 35.8073 58.6441 36.1667 58.4387 36.484C58.2427 36.8107 57.9627 37.0673 57.5987 37.254C57.2441 37.45 56.8287 37.548 56.3527 37.548H53.3427ZM53.6927 36.61H56.3387C56.5534 36.61 56.7494 36.5633 56.9267 36.47C57.1041 36.386 57.2441 36.2647 57.3467 36.106C57.4494 35.9473 57.5007 35.7747 57.5007 35.588C57.5007 35.2707 57.4074 35.0187 57.2207 34.832C57.0341 34.6453 56.8007 34.552 56.5207 34.552H53.6927C53.3941 34.552 53.1421 34.6547 52.9367 34.86C52.7314 35.056 52.6287 35.2987 52.6287 35.588C52.6287 35.896 52.7314 36.1433 52.9367 36.33C53.1421 36.5167 53.3941 36.61 53.6927 36.61ZM55.0227 31.318C55.6201 31.318 56.0634 31.1873 56.3527 30.926C56.6421 30.6647 56.7867 30.3053 56.7867 29.848C56.7867 29.4 56.6421 29.0453 56.3527 28.784C56.0634 28.5227 55.6201 28.392 55.0227 28.392C54.4254 28.392 53.9774 28.5227 53.6787 28.784C53.3894 29.0453 53.2447 29.4 53.2447 29.848C53.2447 30.1373 53.3101 30.394 53.4407 30.618C53.5714 30.842 53.7674 31.0147 54.0287 31.136C54.2901 31.2573 54.6214 31.318 55.0227 31.318ZM59.792 35V24.878H61.024V28.56H61.122C61.3087 28.308 61.5187 28.1027 61.752 27.944C61.9854 27.7853 62.242 27.6687 62.522 27.594C62.8114 27.51 63.124 27.468 63.46 27.468C63.9267 27.468 64.3327 27.5473 64.678 27.706C65.0327 27.8647 65.308 28.1213 65.504 28.476C65.7094 28.8307 65.812 29.3113 65.812 29.918V35H64.58V30.086C64.58 29.778 64.538 29.526 64.454 29.33C64.3794 29.134 64.272 28.98 64.132 28.868C64.0014 28.756 63.838 28.6767 63.642 28.63C63.4554 28.5833 63.2454 28.56 63.012 28.56C62.6667 28.56 62.34 28.644 62.032 28.812C61.724 28.9707 61.4767 29.2087 61.29 29.526C61.1127 29.834 61.024 30.2167 61.024 30.674V35H59.792ZM69.3187 35.168C68.936 35.168 68.6374 35.098 68.4227 34.958C68.208 34.8087 68.054 34.6173 67.9607 34.384C67.8674 34.1413 67.8207 33.8847 67.8207 33.614V28.672H66.8687V27.636H67.8487L68.0727 25.578H69.0527V27.636H70.4387V28.672H69.0527V33.432C69.0527 33.6653 69.0947 33.8427 69.1787 33.964C69.2627 34.076 69.4214 34.132 69.6547 34.132H70.4387V34.944C70.3454 34.9907 70.2334 35.028 70.1027 35.056C69.972 35.084 69.8367 35.1073 69.6967 35.126C69.566 35.154 69.44 35.168 69.3187 35.168ZM4.858 55V52.648H0.392V51.612C0.784 50.94 1.13867 50.2633 1.456 49.582C1.78267 48.9007 2.072 48.2007 2.324 47.482C2.58533 46.7633 2.8 46.012 2.968 45.228H4.284C4.16267 45.7413 4.01333 46.2687 3.836 46.81C3.65867 47.342 3.46267 47.86 3.248 48.364C3.03333 48.868 2.81867 49.3393 2.604 49.778C2.39867 50.2167 2.20267 50.5947 2.016 50.912C1.83867 51.2293 1.694 51.4627 1.582 51.612H4.858V48.56C4.914 48.4107 4.97 48.2567 5.026 48.098C5.09133 47.93 5.152 47.762 5.208 47.594C5.264 47.4167 5.31533 47.2533 5.362 47.104C5.40867 46.9453 5.446 46.796 5.474 46.656H6.09V51.612H7.364V52.648H6.09V55H4.858ZM8.64762 57.422V47.636H9.62763L9.75362 48.686H9.85162C10.1036 48.2753 10.4256 47.972 10.8176 47.776C11.2096 47.5707 11.653 47.468 12.1476 47.468C12.7636 47.468 13.2863 47.6033 13.7156 47.874C14.145 48.1447 14.4763 48.5693 14.7096 49.148C14.943 49.7173 15.0596 50.4593 15.0596 51.374C15.0596 52.2327 14.9383 52.9467 14.6956 53.516C14.4623 54.076 14.131 54.4913 13.7016 54.762C13.2723 55.0327 12.773 55.168 12.2036 55.168C11.8863 55.168 11.5876 55.1307 11.3076 55.056C11.0276 54.9813 10.7756 54.8647 10.5516 54.706C10.3276 54.538 10.1316 54.328 9.96362 54.076H9.87962V57.422H8.64762ZM11.8116 54.09C12.269 54.09 12.6423 54.0013 12.9316 53.824C13.221 53.6373 13.4356 53.3527 13.5756 52.97C13.7156 52.578 13.7856 52.0787 13.7856 51.472V51.178C13.7856 50.534 13.711 50.0207 13.5616 49.638C13.4123 49.246 13.193 48.966 12.9036 48.798C12.6236 48.63 12.2736 48.546 11.8536 48.546C11.3963 48.546 11.0183 48.6487 10.7196 48.854C10.4303 49.05 10.2156 49.3487 10.0756 49.75C9.94496 50.1513 9.87962 50.6413 9.87962 51.22V51.43C9.87962 51.9433 9.92629 52.3727 10.0196 52.718C10.1223 53.054 10.2623 53.3247 10.4396 53.53C10.6263 53.7353 10.8363 53.88 11.0696 53.964C11.303 54.048 11.5503 54.09 11.8116 54.09ZM15.4499 55L18.0959 51.234L15.5759 47.636H17.0599L18.8519 50.268H18.9219L20.7139 47.636H22.1139L19.5939 51.192L22.2539 55H20.7839L18.8519 52.158H18.7819L16.8499 55H15.4499ZM26.1554 55V47.636H27.1494L27.2614 48.854H27.3594C27.4341 48.6207 27.5367 48.4013 27.6674 48.196C27.7981 47.9813 27.9754 47.8087 28.1994 47.678C28.4234 47.538 28.6987 47.468 29.0254 47.468C29.1654 47.468 29.2914 47.482 29.4034 47.51C29.5247 47.5287 29.6134 47.552 29.6694 47.58V48.714H29.2074C28.8901 48.714 28.6147 48.77 28.3814 48.882C28.1574 48.9847 27.9707 49.134 27.8214 49.33C27.6721 49.526 27.5601 49.7593 27.4854 50.03C27.4201 50.3007 27.3874 50.59 27.3874 50.898V55H26.1554ZM32.4311 55.168C32.1604 55.168 31.8898 55.1353 31.6191 55.07C31.3484 55.0047 31.0964 54.8973 30.8631 54.748C30.6298 54.5987 30.4431 54.3933 30.3031 54.132C30.1631 53.8613 30.0931 53.5253 30.0931 53.124C30.0931 52.62 30.2144 52.2047 30.4571 51.878C30.6998 51.5513 31.0358 51.2993 31.4651 51.122C31.9038 50.9353 32.4218 50.8093 33.0191 50.744C33.6164 50.6693 34.2651 50.632 34.9651 50.632V49.792C34.9651 49.5213 34.9184 49.288 34.8251 49.092C34.7318 48.896 34.5638 48.7467 34.3211 48.644C34.0878 48.532 33.7518 48.476 33.3131 48.476C32.8931 48.476 32.5571 48.532 32.3051 48.644C32.0624 48.7467 31.8898 48.882 31.7871 49.05C31.6938 49.218 31.6471 49.4047 31.6471 49.61V49.82H30.4571C30.4478 49.7733 30.4431 49.7267 30.4431 49.68C30.4431 49.6333 30.4431 49.5773 30.4431 49.512C30.4431 49.064 30.5644 48.6907 30.8071 48.392C31.0591 48.084 31.4091 47.8553 31.8571 47.706C32.3051 47.5473 32.8184 47.468 33.3971 47.468C34.0131 47.468 34.5264 47.5567 34.9371 47.734C35.3571 47.9113 35.6698 48.1633 35.8751 48.49C36.0898 48.8167 36.1971 49.2087 36.1971 49.666V53.656C36.1971 53.8333 36.2391 53.9593 36.3231 54.034C36.4071 54.0993 36.5098 54.132 36.6311 54.132H37.1771V54.944C37.0464 55 36.9018 55.0467 36.7431 55.084C36.5844 55.1307 36.4024 55.154 36.1971 55.154C35.9544 55.154 35.7538 55.1027 35.5951 55C35.4364 54.9067 35.3151 54.776 35.2311 54.608C35.1471 54.4307 35.0911 54.2347 35.0631 54.02H34.9651C34.7971 54.2533 34.5824 54.4587 34.3211 54.636C34.0691 54.804 33.7844 54.9347 33.4671 55.028C33.1498 55.1213 32.8044 55.168 32.4311 55.168ZM32.7391 54.132C33.0378 54.132 33.3178 54.0853 33.5791 53.992C33.8498 53.8987 34.0878 53.768 34.2931 53.6C34.4984 53.4227 34.6618 53.2127 34.7831 52.97C34.9044 52.7273 34.9651 52.4613 34.9651 52.172V51.556C34.2091 51.556 33.5651 51.598 33.0331 51.682C32.5011 51.766 32.0904 51.9153 31.8011 52.13C31.5211 52.3447 31.3811 52.648 31.3811 53.04C31.3811 53.292 31.4371 53.4973 31.5491 53.656C31.6611 53.8147 31.8198 53.936 32.0251 54.02C32.2304 54.0947 32.4684 54.132 32.7391 54.132ZM40.634 55.168C40.0273 55.168 39.5047 55.0327 39.066 54.762C38.6367 54.4913 38.3007 54.0713 38.058 53.502C37.8247 52.9233 37.708 52.1767 37.708 51.262C37.708 50.394 37.8293 49.68 38.072 49.12C38.3147 48.56 38.6507 48.1447 39.08 47.874C39.5093 47.6033 40.0087 47.468 40.578 47.468C40.9047 47.468 41.208 47.5053 41.488 47.58C41.768 47.6547 42.0153 47.7713 42.23 47.93C42.454 48.0887 42.65 48.2987 42.818 48.56H42.902V44.878H44.134V55H43.14L43.028 53.95H42.93C42.678 54.3607 42.3513 54.6687 41.95 54.874C41.5487 55.07 41.11 55.168 40.634 55.168ZM40.928 54.09C41.3947 54.09 41.7727 53.9873 42.062 53.782C42.3513 53.5767 42.5613 53.278 42.692 52.886C42.832 52.494 42.902 52.0087 42.902 51.43V51.206C42.902 50.702 42.8507 50.2773 42.748 49.932C42.6453 49.5867 42.5053 49.3113 42.328 49.106C42.1507 48.9007 41.9453 48.756 41.712 48.672C41.4787 48.588 41.2313 48.546 40.97 48.546C40.5127 48.546 40.1393 48.6393 39.85 48.826C39.5607 49.0033 39.346 49.288 39.206 49.68C39.066 50.0627 38.996 50.562 38.996 51.178V51.472C38.996 52.1067 39.0707 52.62 39.22 53.012C39.3693 53.3947 39.584 53.67 39.864 53.838C40.1533 54.006 40.508 54.09 40.928 54.09ZM45.9874 46.25V44.878H47.2194V46.25H45.9874ZM45.9874 55V47.636H47.2194V55H45.9874ZM51.3299 55.168C50.6206 55.168 50.0512 54.986 49.6219 54.622C49.1926 54.258 48.9779 53.6233 48.9779 52.718V47.636H50.2099V52.55C50.2099 52.858 50.2472 53.11 50.3219 53.306C50.3966 53.502 50.5039 53.656 50.6439 53.768C50.7839 53.88 50.9472 53.9593 51.1339 54.006C51.3299 54.0527 51.5399 54.076 51.7639 54.076C52.1186 54.076 52.4452 53.992 52.7439 53.824C53.0426 53.656 53.2852 53.4133 53.4719 53.096C53.6679 52.7693 53.7659 52.3913 53.7659 51.962V47.636H54.9979V55H54.0039L53.8919 53.894H53.7939C53.5979 54.1927 53.3739 54.4353 53.1219 54.622C52.8792 54.8087 52.6039 54.944 52.2959 55.028C51.9972 55.1213 51.6752 55.168 51.3299 55.168ZM59.4012 55.168C58.8972 55.168 58.4539 55.1167 58.0712 55.014C57.6886 54.9113 57.3712 54.762 57.1192 54.566C56.8672 54.37 56.6759 54.1367 56.5452 53.866C56.4146 53.5953 56.3492 53.2873 56.3492 52.942C56.3492 52.8953 56.3492 52.8533 56.3492 52.816C56.3492 52.7693 56.3539 52.732 56.3632 52.704H57.5812C57.5719 52.7413 57.5672 52.774 57.5672 52.802C57.5672 52.83 57.5672 52.858 57.5672 52.886C57.5766 53.2127 57.6606 53.4693 57.8192 53.656C57.9872 53.8427 58.2159 53.9733 58.5052 54.048C58.7946 54.1227 59.1166 54.16 59.4712 54.16C59.7792 54.16 60.0639 54.1227 60.3252 54.048C60.5866 53.964 60.7919 53.8427 60.9412 53.684C61.0999 53.516 61.1792 53.306 61.1792 53.054C61.1792 52.746 61.0766 52.5127 60.8712 52.354C60.6752 52.186 60.4139 52.0553 60.0872 51.962C59.7606 51.8687 59.4199 51.7707 59.0652 51.668C58.7666 51.584 58.4679 51.4907 58.1692 51.388C57.8706 51.2853 57.5999 51.1593 57.3572 51.01C57.1239 50.8607 56.9326 50.6693 56.7832 50.436C56.6432 50.1933 56.5732 49.89 56.5732 49.526C56.5732 49.1993 56.6386 48.91 56.7692 48.658C56.9092 48.406 57.1052 48.1913 57.3572 48.014C57.6092 47.8367 57.9126 47.706 58.2672 47.622C58.6312 47.5287 59.0326 47.482 59.4712 47.482C59.9379 47.482 60.3439 47.5333 60.6892 47.636C61.0439 47.7387 61.3379 47.8833 61.5712 48.07C61.8046 48.2567 61.9772 48.4713 62.0892 48.714C62.2012 48.9473 62.2572 49.1993 62.2572 49.47C62.2572 49.526 62.2572 49.582 62.2572 49.638C62.2572 49.6847 62.2526 49.722 62.2432 49.75H61.0392V49.596C61.0392 49.4093 60.9879 49.232 60.8852 49.064C60.7919 48.8867 60.6239 48.7467 60.3812 48.644C60.1479 48.532 59.8212 48.476 59.4012 48.476C59.1306 48.476 58.8972 48.4993 58.7012 48.546C58.5052 48.5833 58.3419 48.6487 58.2112 48.742C58.0806 48.826 57.9826 48.9287 57.9172 49.05C57.8519 49.162 57.8192 49.2927 57.8192 49.442C57.8192 49.6847 57.8986 49.8713 58.0572 50.002C58.2159 50.1327 58.4259 50.24 58.6872 50.324C58.9579 50.408 59.2472 50.5013 59.5552 50.604C59.8819 50.6973 60.2132 50.7953 60.5492 50.898C60.8946 50.9913 61.2072 51.1127 61.4872 51.262C61.7766 51.4113 62.0052 51.6167 62.1732 51.878C62.3506 52.13 62.4392 52.466 62.4392 52.886C62.4392 53.278 62.3646 53.6187 62.2152 53.908C62.0659 54.1973 61.8512 54.4353 61.5712 54.622C61.3006 54.8087 60.9786 54.944 60.6052 55.028C60.2412 55.1213 59.8399 55.168 59.4012 55.168Z" fill="#272433"/><line x1="77" y1="26.5" x2="121" y2="26.5" stroke="#272433"/><path fill-rule="evenodd" clip-rule="evenodd" d="M130 33.5C134.142 33.5 137.5 30.1421 137.5 26C137.5 21.8579 134.142 18.5 130 18.5C125.858 18.5 122.5 21.8579 122.5 26C122.5 30.1421 125.858 33.5 130 33.5ZM130 35C134.971 35 139 30.9706 139 26C139 21.0294 134.971 17 130 17C125.029 17 121 21.0294 121 26C121 30.9706 125.029 35 130 35Z" fill="#6C6862"/><path d="M153.233 31V20.8182H159.378V21.9119H154.466V25.3523H159.06V26.446H154.466V29.9062H159.457V31H153.233ZM162.232 23.3636L164.062 26.4858L165.891 23.3636H167.243L164.778 27.1818L167.243 31H165.891L164.062 28.0369L162.232 31H160.88L163.306 27.1818L160.88 23.3636H162.232ZM171.081 31.179C170.597 31.179 170.158 31.0878 169.763 30.9055C169.369 30.7199 169.056 30.4531 168.824 30.1051C168.592 29.7538 168.476 29.3295 168.476 28.8324C168.476 28.3949 168.562 28.0402 168.734 27.7685C168.907 27.4934 169.137 27.2779 169.425 27.1222C169.714 26.9664 170.032 26.8504 170.38 26.7741C170.731 26.6946 171.084 26.6316 171.439 26.5852C171.903 26.5256 172.279 26.4808 172.567 26.451C172.859 26.4179 173.071 26.3632 173.204 26.2869C173.34 26.2107 173.407 26.0781 173.407 25.8892V25.8494C173.407 25.3589 173.273 24.9777 173.005 24.706C172.74 24.4342 172.337 24.2983 171.797 24.2983C171.237 24.2983 170.797 24.4209 170.479 24.6662C170.161 24.9115 169.937 25.1733 169.808 25.4517L168.694 25.054C168.893 24.59 169.158 24.2287 169.49 23.9702C169.825 23.7083 170.189 23.526 170.584 23.4233C170.981 23.3172 171.372 23.2642 171.757 23.2642C172.002 23.2642 172.284 23.294 172.602 23.3537C172.924 23.41 173.233 23.5277 173.532 23.7067C173.833 23.8857 174.084 24.1558 174.282 24.517C174.481 24.8783 174.581 25.3622 174.581 25.9688V31H173.407V29.9659H173.348C173.268 30.1316 173.136 30.3089 172.95 30.4979C172.764 30.6868 172.518 30.8475 172.209 30.9801C171.901 31.1127 171.525 31.179 171.081 31.179ZM171.26 30.125C171.724 30.125 172.115 30.0339 172.433 29.8516C172.755 29.6693 172.996 29.4339 173.159 29.1456C173.325 28.8572 173.407 28.554 173.407 28.2358V27.1619C173.358 27.2216 173.248 27.2763 173.079 27.326C172.914 27.3724 172.721 27.4138 172.503 27.4503C172.287 27.4834 172.077 27.5133 171.871 27.5398C171.669 27.563 171.505 27.5829 171.379 27.5994C171.074 27.6392 170.789 27.7038 170.524 27.7933C170.262 27.8795 170.05 28.0104 169.888 28.1861C169.728 28.3584 169.649 28.5937 169.649 28.892C169.649 29.2997 169.8 29.608 170.101 29.8168C170.406 30.0223 170.792 30.125 171.26 30.125ZM176.638 31V23.3636H177.772V24.5568H177.871C178.03 24.1491 178.287 23.8326 178.642 23.6072C178.996 23.3786 179.422 23.2642 179.92 23.2642C180.423 23.2642 180.843 23.3786 181.177 23.6072C181.515 23.8326 181.779 24.1491 181.968 24.5568H182.047C182.243 24.1624 182.536 23.8492 182.927 23.6172C183.318 23.3819 183.787 23.2642 184.334 23.2642C185.017 23.2642 185.576 23.478 186.01 23.9055C186.444 24.3298 186.661 24.991 186.661 25.8892V31H185.488V25.8892C185.488 25.3258 185.334 24.9231 185.025 24.6811C184.717 24.4392 184.354 24.3182 183.937 24.3182C183.4 24.3182 182.984 24.4806 182.689 24.8054C182.394 25.1269 182.246 25.5346 182.246 26.0284V31H181.053V25.7699C181.053 25.3357 180.912 24.986 180.63 24.7209C180.349 24.4524 179.986 24.3182 179.542 24.3182C179.237 24.3182 178.952 24.3994 178.687 24.5618C178.425 24.7242 178.213 24.9496 178.05 25.2379C177.891 25.523 177.812 25.8527 177.812 26.2273V31H176.638ZM188.722 33.8636V23.3636H189.856V24.5767H189.995C190.081 24.4441 190.2 24.2751 190.353 24.0696C190.509 23.8608 190.731 23.6752 191.019 23.5128C191.311 23.3471 191.705 23.2642 192.202 23.2642C192.845 23.2642 193.412 23.425 193.903 23.7464C194.393 24.0679 194.776 24.5237 195.051 25.1136C195.326 25.7036 195.464 26.3996 195.464 27.2017C195.464 28.0104 195.326 28.7114 195.051 29.3047C194.776 29.8946 194.395 30.352 193.908 30.6768C193.42 30.9983 192.859 31.1591 192.222 31.1591C191.732 31.1591 191.339 31.0779 191.044 30.9155C190.749 30.7498 190.522 30.5625 190.363 30.3537C190.204 30.1416 190.081 29.9659 189.995 29.8267H189.896V33.8636H188.722ZM189.876 27.1818C189.876 27.7585 189.96 28.2673 190.129 28.7081C190.298 29.1456 190.545 29.4886 190.87 29.7372C191.195 29.9825 191.593 30.1051 192.063 30.1051C192.554 30.1051 192.963 29.9759 193.291 29.7173C193.623 29.4555 193.871 29.1042 194.037 28.6634C194.206 28.2192 194.29 27.7254 194.29 27.1818C194.29 26.6449 194.208 26.161 194.042 25.7301C193.879 25.2959 193.633 24.9529 193.301 24.701C192.973 24.4458 192.56 24.3182 192.063 24.3182C191.586 24.3182 191.185 24.4392 190.86 24.6811C190.535 24.9197 190.29 25.2545 190.124 25.6854C189.959 26.1129 189.876 26.6117 189.876 27.1818ZM198.343 20.8182V31H197.169V20.8182H198.343ZM203.609 31.1591C202.874 31.1591 202.239 30.9967 201.705 30.6719C201.175 30.3438 200.766 29.8864 200.477 29.2997C200.192 28.7098 200.05 28.0237 200.05 27.2415C200.05 26.4593 200.192 25.7699 200.477 25.1733C200.766 24.5734 201.167 24.1061 201.68 23.7713C202.198 23.4332 202.801 23.2642 203.49 23.2642C203.888 23.2642 204.281 23.3305 204.668 23.4631C205.056 23.5956 205.409 23.8111 205.727 24.1094C206.046 24.4044 206.299 24.7955 206.488 25.2827C206.677 25.7699 206.771 26.3698 206.771 27.0824V27.5795H200.885V26.5653H205.578C205.578 26.1345 205.492 25.75 205.32 25.4119C205.151 25.0739 204.909 24.8071 204.594 24.6115C204.282 24.416 203.914 24.3182 203.49 24.3182C203.023 24.3182 202.618 24.4342 202.277 24.6662C201.939 24.8949 201.679 25.1932 201.497 25.5611C201.314 25.929 201.223 26.3234 201.223 26.7443V27.4205C201.223 27.9972 201.323 28.486 201.521 28.8871C201.724 29.2848 202.004 29.5881 202.362 29.7969C202.72 30.0024 203.135 30.1051 203.609 30.1051C203.918 30.1051 204.196 30.062 204.445 29.9759C204.697 29.8864 204.914 29.7538 205.096 29.5781C205.278 29.3991 205.419 29.1771 205.519 28.9119L206.652 29.2301C206.533 29.6146 206.332 29.9527 206.051 30.2443C205.769 30.5327 205.421 30.758 205.006 30.9205C204.592 31.0795 204.127 31.1591 203.609 31.1591ZM212.485 31V20.8182H213.718V29.9062H218.451V31H212.485ZM222.364 31.179C221.88 31.179 221.441 31.0878 221.046 30.9055C220.652 30.7199 220.339 30.4531 220.107 30.1051C219.875 29.7538 219.759 29.3295 219.759 28.8324C219.759 28.3949 219.845 28.0402 220.017 27.7685C220.19 27.4934 220.42 27.2779 220.708 27.1222C220.997 26.9664 221.315 26.8504 221.663 26.7741C222.014 26.6946 222.367 26.6316 222.722 26.5852C223.186 26.5256 223.562 26.4808 223.85 26.451C224.142 26.4179 224.354 26.3632 224.487 26.2869C224.623 26.2107 224.691 26.0781 224.691 25.8892V25.8494C224.691 25.3589 224.556 24.9777 224.288 24.706C224.023 24.4342 223.62 24.2983 223.08 24.2983C222.52 24.2983 222.08 24.4209 221.762 24.6662C221.444 24.9115 221.22 25.1733 221.091 25.4517L219.977 25.054C220.176 24.59 220.442 24.2287 220.773 23.9702C221.108 23.7083 221.472 23.526 221.867 23.4233C222.264 23.3172 222.656 23.2642 223.04 23.2642C223.285 23.2642 223.567 23.294 223.885 23.3537C224.207 23.41 224.517 23.5277 224.815 23.7067C225.116 23.8857 225.367 24.1558 225.566 24.517C225.764 24.8783 225.864 25.3622 225.864 25.9688V31H224.691V29.9659H224.631C224.551 30.1316 224.419 30.3089 224.233 30.4979C224.048 30.6868 223.801 30.8475 223.492 30.9801C223.184 31.1127 222.808 31.179 222.364 31.179ZM222.543 30.125C223.007 30.125 223.398 30.0339 223.716 29.8516C224.038 29.6693 224.28 29.4339 224.442 29.1456C224.608 28.8572 224.691 28.554 224.691 28.2358V27.1619C224.641 27.2216 224.531 27.2763 224.362 27.326C224.197 27.3724 224.004 27.4138 223.786 27.4503C223.57 27.4834 223.36 27.5133 223.154 27.5398C222.952 27.563 222.788 27.5829 222.662 27.5994C222.357 27.6392 222.072 27.7038 221.807 27.7933C221.545 27.8795 221.333 28.0104 221.171 28.1861C221.012 28.3584 220.932 28.5937 220.932 28.892C220.932 29.2997 221.083 29.608 221.384 29.8168C221.689 30.0223 222.076 30.125 222.543 30.125ZM228.08 31V20.8182H229.254V24.5767H229.353C229.439 24.4441 229.559 24.2751 229.711 24.0696C229.867 23.8608 230.089 23.6752 230.377 23.5128C230.669 23.3471 231.063 23.2642 231.561 23.2642C232.204 23.2642 232.77 23.425 233.261 23.7464C233.751 24.0679 234.134 24.5237 234.409 25.1136C234.684 25.7036 234.822 26.3996 234.822 27.2017C234.822 28.0104 234.684 28.7114 234.409 29.3047C234.134 29.8946 233.753 30.352 233.266 30.6768C232.779 30.9983 232.217 31.1591 231.58 31.1591C231.09 31.1591 230.697 31.0779 230.402 30.9155C230.107 30.7498 229.88 30.5625 229.721 30.3537C229.562 30.1416 229.439 29.9659 229.353 29.8267H229.214V31H228.08ZM229.234 27.1818C229.234 27.7585 229.318 28.2673 229.487 28.7081C229.656 29.1456 229.903 29.4886 230.228 29.7372C230.553 29.9825 230.951 30.1051 231.421 30.1051C231.912 30.1051 232.321 29.9759 232.649 29.7173C232.981 29.4555 233.229 29.1042 233.395 28.6634C233.564 28.2192 233.649 27.7254 233.649 27.1818C233.649 26.6449 233.566 26.161 233.4 25.7301C233.238 25.2959 232.991 24.9529 232.659 24.701C232.331 24.4458 231.919 24.3182 231.421 24.3182C230.944 24.3182 230.543 24.4392 230.218 24.6811C229.893 24.9197 229.648 25.2545 229.482 25.6854C229.317 26.1129 229.234 26.6117 229.234 27.1818ZM239.734 31.1591C238.999 31.1591 238.364 30.9967 237.83 30.6719C237.3 30.3438 236.891 29.8864 236.602 29.2997C236.317 28.7098 236.175 28.0237 236.175 27.2415C236.175 26.4593 236.317 25.7699 236.602 25.1733C236.891 24.5734 237.292 24.1061 237.805 23.7713C238.322 23.4332 238.926 23.2642 239.615 23.2642C240.013 23.2642 240.406 23.3305 240.793 23.4631C241.181 23.5956 241.534 23.8111 241.852 24.1094C242.17 24.4044 242.424 24.7955 242.613 25.2827C242.802 25.7699 242.896 26.3698 242.896 27.0824V27.5795H237.01V26.5653H241.703C241.703 26.1345 241.617 25.75 241.445 25.4119C241.276 25.0739 241.034 24.8071 240.719 24.6115C240.407 24.416 240.039 24.3182 239.615 24.3182C239.148 24.3182 238.743 24.4342 238.402 24.6662C238.064 24.8949 237.804 25.1932 237.621 25.5611C237.439 25.929 237.348 26.3234 237.348 26.7443V27.4205C237.348 27.9972 237.447 28.486 237.646 28.8871C237.848 29.2848 238.129 29.5881 238.487 29.7969C238.844 30.0024 239.26 30.1051 239.734 30.1051C240.043 30.1051 240.321 30.062 240.57 29.9759C240.821 29.8864 241.039 29.7538 241.221 29.5781C241.403 29.3991 241.544 29.1771 241.643 28.9119L242.777 29.2301C242.658 29.6146 242.457 29.9527 242.175 30.2443C241.894 30.5327 241.546 30.758 241.131 30.9205C240.717 31.0795 240.251 31.1591 239.734 31.1591ZM245.77 20.8182V31H244.597V20.8182H245.77Z" fill="#26252A"/><path d="M130 91.25C132.899 91.25 135.25 88.8995 135.25 86C135.25 83.1005 132.899 80.75 130 80.75C127.101 80.75 124.75 83.1005 124.75 86C124.75 88.8995 127.101 91.25 130 91.25Z" fill="#0056E0"/><path fill-rule="evenodd" clip-rule="evenodd" d="M139 86C139 90.9706 134.971 95 130 95C125.029 95 121 90.9706 121 86C121 81.0294 125.029 77 130 77C134.971 77 139 81.0294 139 86ZM137.5 86C137.5 90.1421 134.142 93.5 130 93.5C125.858 93.5 122.5 90.1421 122.5 86C122.5 81.8579 125.858 78.5 130 78.5C134.142 78.5 137.5 81.8579 137.5 86Z" fill="#0056E0"/><path d="M153.233 91V80.8182H159.378V81.9119H154.466V85.3523H159.06V86.446H154.466V89.9062H159.457V91H153.233ZM162.232 83.3636L164.062 86.4858L165.891 83.3636H167.243L164.778 87.1818L167.243 91H165.891L164.062 88.0369L162.232 91H160.88L163.306 87.1818L160.88 83.3636H162.232ZM171.081 91.179C170.597 91.179 170.158 91.0878 169.763 90.9055C169.369 90.7199 169.056 90.4531 168.824 90.1051C168.592 89.7538 168.476 89.3295 168.476 88.8324C168.476 88.3949 168.562 88.0402 168.734 87.7685C168.907 87.4934 169.137 87.2779 169.425 87.1222C169.714 86.9664 170.032 86.8504 170.38 86.7741C170.731 86.6946 171.084 86.6316 171.439 86.5852C171.903 86.5256 172.279 86.4808 172.567 86.451C172.859 86.4179 173.071 86.3632 173.204 86.2869C173.34 86.2107 173.407 86.0781 173.407 85.8892V85.8494C173.407 85.3589 173.273 84.9777 173.005 84.706C172.74 84.4342 172.337 84.2983 171.797 84.2983C171.237 84.2983 170.797 84.4209 170.479 84.6662C170.161 84.9115 169.937 85.1733 169.808 85.4517L168.694 85.054C168.893 84.59 169.158 84.2287 169.49 83.9702C169.825 83.7083 170.189 83.526 170.584 83.4233C170.981 83.3172 171.372 83.2642 171.757 83.2642C172.002 83.2642 172.284 83.294 172.602 83.3537C172.924 83.41 173.233 83.5277 173.532 83.7067C173.833 83.8857 174.084 84.1558 174.282 84.517C174.481 84.8783 174.581 85.3622 174.581 85.9688V91H173.407V89.9659H173.348C173.268 90.1316 173.136 90.3089 172.95 90.4979C172.764 90.6868 172.518 90.8475 172.209 90.9801C171.901 91.1127 171.525 91.179 171.081 91.179ZM171.26 90.125C171.724 90.125 172.115 90.0339 172.433 89.8516C172.755 89.6693 172.996 89.4339 173.159 89.1456C173.325 88.8572 173.407 88.554 173.407 88.2358V87.1619C173.358 87.2216 173.248 87.2763 173.079 87.326C172.914 87.3724 172.721 87.4138 172.503 87.4503C172.287 87.4834 172.077 87.5133 171.871 87.5398C171.669 87.563 171.505 87.5829 171.379 87.5994C171.074 87.6392 170.789 87.7038 170.524 87.7933C170.262 87.8795 170.05 88.0104 169.888 88.1861C169.728 88.3584 169.649 88.5937 169.649 88.892C169.649 89.2997 169.8 89.608 170.101 89.8168C170.406 90.0223 170.792 90.125 171.26 90.125ZM176.638 91V83.3636H177.772V84.5568H177.871C178.03 84.1491 178.287 83.8326 178.642 83.6072C178.996 83.3786 179.422 83.2642 179.92 83.2642C180.423 83.2642 180.843 83.3786 181.177 83.6072C181.515 83.8326 181.779 84.1491 181.968 84.5568H182.047C182.243 84.1624 182.536 83.8492 182.927 83.6172C183.318 83.3819 183.787 83.2642 184.334 83.2642C185.017 83.2642 185.576 83.478 186.01 83.9055C186.444 84.3298 186.661 84.991 186.661 85.8892V91H185.488V85.8892C185.488 85.3258 185.334 84.9231 185.025 84.6811C184.717 84.4392 184.354 84.3182 183.937 84.3182C183.4 84.3182 182.984 84.4806 182.689 84.8054C182.394 85.1269 182.246 85.5346 182.246 86.0284V91H181.053V85.7699C181.053 85.3357 180.912 84.986 180.63 84.7209C180.349 84.4524 179.986 84.3182 179.542 84.3182C179.237 84.3182 178.952 84.3994 178.687 84.5618C178.425 84.7242 178.213 84.9496 178.05 85.2379C177.891 85.523 177.812 85.8527 177.812 86.2273V91H176.638ZM188.722 93.8636V83.3636H189.856V84.5767H189.995C190.081 84.4441 190.2 84.2751 190.353 84.0696C190.509 83.8608 190.731 83.6752 191.019 83.5128C191.311 83.3471 191.705 83.2642 192.202 83.2642C192.845 83.2642 193.412 83.425 193.903 83.7464C194.393 84.0679 194.776 84.5237 195.051 85.1136C195.326 85.7036 195.464 86.3996 195.464 87.2017C195.464 88.0104 195.326 88.7114 195.051 89.3047C194.776 89.8946 194.395 90.352 193.908 90.6768C193.42 90.9983 192.859 91.1591 192.222 91.1591C191.732 91.1591 191.339 91.0779 191.044 90.9155C190.749 90.7498 190.522 90.5625 190.363 90.3537C190.204 90.1416 190.081 89.9659 189.995 89.8267H189.896V93.8636H188.722ZM189.876 87.1818C189.876 87.7585 189.96 88.2673 190.129 88.7081C190.298 89.1456 190.545 89.4886 190.87 89.7372C191.195 89.9825 191.593 90.1051 192.063 90.1051C192.554 90.1051 192.963 89.9759 193.291 89.7173C193.623 89.4555 193.871 89.1042 194.037 88.6634C194.206 88.2192 194.29 87.7254 194.29 87.1818C194.29 86.6449 194.208 86.161 194.042 85.7301C193.879 85.2959 193.633 84.9529 193.301 84.701C192.973 84.4458 192.56 84.3182 192.063 84.3182C191.586 84.3182 191.185 84.4392 190.86 84.6811C190.535 84.9197 190.29 85.2545 190.124 85.6854C189.959 86.1129 189.876 86.6117 189.876 87.1818ZM198.343 80.8182V91H197.169V80.8182H198.343ZM203.609 91.1591C202.874 91.1591 202.239 90.9967 201.705 90.6719C201.175 90.3438 200.766 89.8864 200.477 89.2997C200.192 88.7098 200.05 88.0237 200.05 87.2415C200.05 86.4593 200.192 85.7699 200.477 85.1733C200.766 84.5734 201.167 84.1061 201.68 83.7713C202.198 83.4332 202.801 83.2642 203.49 83.2642C203.888 83.2642 204.281 83.3305 204.668 83.4631C205.056 83.5956 205.409 83.8111 205.727 84.1094C206.046 84.4044 206.299 84.7955 206.488 85.2827C206.677 85.7699 206.771 86.3698 206.771 87.0824V87.5795H200.885V86.5653H205.578C205.578 86.1345 205.492 85.75 205.32 85.4119C205.151 85.0739 204.909 84.8071 204.594 84.6115C204.282 84.416 203.914 84.3182 203.49 84.3182C203.023 84.3182 202.618 84.4342 202.277 84.6662C201.939 84.8949 201.679 85.1932 201.497 85.5611C201.314 85.929 201.223 86.3234 201.223 86.7443V87.4205C201.223 87.9972 201.323 88.486 201.521 88.8871C201.724 89.2848 202.004 89.5881 202.362 89.7969C202.72 90.0024 203.135 90.1051 203.609 90.1051C203.918 90.1051 204.196 90.062 204.445 89.9759C204.697 89.8864 204.914 89.7538 205.096 89.5781C205.278 89.3991 205.419 89.1771 205.519 88.9119L206.652 89.2301C206.533 89.6146 206.332 89.9527 206.051 90.2443C205.769 90.5327 205.421 90.758 205.006 90.9205C204.592 91.0795 204.127 91.1591 203.609 91.1591ZM212.485 91V80.8182H213.718V89.9062H218.451V91H212.485ZM222.364 91.179C221.88 91.179 221.441 91.0878 221.046 90.9055C220.652 90.7199 220.339 90.4531 220.107 90.1051C219.875 89.7538 219.759 89.3295 219.759 88.8324C219.759 88.3949 219.845 88.0402 220.017 87.7685C220.19 87.4934 220.42 87.2779 220.708 87.1222C220.997 86.9664 221.315 86.8504 221.663 86.7741C222.014 86.6946 222.367 86.6316 222.722 86.5852C223.186 86.5256 223.562 86.4808 223.85 86.451C224.142 86.4179 224.354 86.3632 224.487 86.2869C224.623 86.2107 224.691 86.0781 224.691 85.8892V85.8494C224.691 85.3589 224.556 84.9777 224.288 84.706C224.023 84.4342 223.62 84.2983 223.08 84.2983C222.52 84.2983 222.08 84.4209 221.762 84.6662C221.444 84.9115 221.22 85.1733 221.091 85.4517L219.977 85.054C220.176 84.59 220.442 84.2287 220.773 83.9702C221.108 83.7083 221.472 83.526 221.867 83.4233C222.264 83.3172 222.656 83.2642 223.04 83.2642C223.285 83.2642 223.567 83.294 223.885 83.3537C224.207 83.41 224.517 83.5277 224.815 83.7067C225.116 83.8857 225.367 84.1558 225.566 84.517C225.764 84.8783 225.864 85.3622 225.864 85.9688V91H224.691V89.9659H224.631C224.551 90.1316 224.419 90.3089 224.233 90.4979C224.048 90.6868 223.801 90.8475 223.492 90.9801C223.184 91.1127 222.808 91.179 222.364 91.179ZM222.543 90.125C223.007 90.125 223.398 90.0339 223.716 89.8516C224.038 89.6693 224.28 89.4339 224.442 89.1456C224.608 88.8572 224.691 88.554 224.691 88.2358V87.1619C224.641 87.2216 224.531 87.2763 224.362 87.326C224.197 87.3724 224.004 87.4138 223.786 87.4503C223.57 87.4834 223.36 87.5133 223.154 87.5398C222.952 87.563 222.788 87.5829 222.662 87.5994C222.357 87.6392 222.072 87.7038 221.807 87.7933C221.545 87.8795 221.333 88.0104 221.171 88.1861C221.012 88.3584 220.932 88.5937 220.932 88.892C220.932 89.2997 221.083 89.608 221.384 89.8168C221.689 90.0223 222.076 90.125 222.543 90.125ZM228.08 91V80.8182H229.254V84.5767H229.353C229.439 84.4441 229.559 84.2751 229.711 84.0696C229.867 83.8608 230.089 83.6752 230.377 83.5128C230.669 83.3471 231.063 83.2642 231.561 83.2642C232.204 83.2642 232.77 83.425 233.261 83.7464C233.751 84.0679 234.134 84.5237 234.409 85.1136C234.684 85.7036 234.822 86.3996 234.822 87.2017C234.822 88.0104 234.684 88.7114 234.409 89.3047C234.134 89.8946 233.753 90.352 233.266 90.6768C232.779 90.9983 232.217 91.1591 231.58 91.1591C231.09 91.1591 230.697 91.0779 230.402 90.9155C230.107 90.7498 229.88 90.5625 229.721 90.3537C229.562 90.1416 229.439 89.9659 229.353 89.8267H229.214V91H228.08ZM229.234 87.1818C229.234 87.7585 229.318 88.2673 229.487 88.7081C229.656 89.1456 229.903 89.4886 230.228 89.7372C230.553 89.9825 230.951 90.1051 231.421 90.1051C231.912 90.1051 232.321 89.9759 232.649 89.7173C232.981 89.4555 233.229 89.1042 233.395 88.6634C233.564 88.2192 233.649 87.7254 233.649 87.1818C233.649 86.6449 233.566 86.161 233.4 85.7301C233.238 85.2959 232.991 84.9529 232.659 84.701C232.331 84.4458 231.919 84.3182 231.421 84.3182C230.944 84.3182 230.543 84.4392 230.218 84.6811C229.893 84.9197 229.648 85.2545 229.482 85.6854C229.317 86.1129 229.234 86.6117 229.234 87.1818ZM239.734 91.1591C238.999 91.1591 238.364 90.9967 237.83 90.6719C237.3 90.3438 236.891 89.8864 236.602 89.2997C236.317 88.7098 236.175 88.0237 236.175 87.2415C236.175 86.4593 236.317 85.7699 236.602 85.1733C236.891 84.5734 237.292 84.1061 237.805 83.7713C238.322 83.4332 238.926 83.2642 239.615 83.2642C240.013 83.2642 240.406 83.3305 240.793 83.4631C241.181 83.5956 241.534 83.8111 241.852 84.1094C242.17 84.4044 242.424 84.7955 242.613 85.2827C242.802 85.7699 242.896 86.3698 242.896 87.0824V87.5795H237.01V86.5653H241.703C241.703 86.1345 241.617 85.75 241.445 85.4119C241.276 85.0739 241.034 84.8071 240.719 84.6115C240.407 84.416 240.039 84.3182 239.615 84.3182C239.148 84.3182 238.743 84.4342 238.402 84.6662C238.064 84.8949 237.804 85.1932 237.621 85.5611C237.439 85.929 237.348 86.3234 237.348 86.7443V87.4205C237.348 87.9972 237.447 88.486 237.646 88.8871C237.848 89.2848 238.129 89.5881 238.487 89.7969C238.844 90.0024 239.26 90.1051 239.734 90.1051C240.043 90.1051 240.321 90.062 240.57 89.9759C240.821 89.8864 241.039 89.7538 241.221 89.5781C241.403 89.3991 241.544 89.1771 241.643 88.9119L242.777 89.2301C242.658 89.6146 242.457 89.9527 242.175 90.2443C241.894 90.5327 241.546 90.758 241.131 90.9205C240.717 91.0795 240.251 91.1591 239.734 91.1591ZM245.77 80.8182V91H244.597V80.8182H245.77Z" fill="#26252A"/></svg>