<svg width="337" height="99" viewBox="0 0 337 99" fill="none" xmlns="http://www.w3.org/2000/svg"><path d="M232.882 88.168L233.47 85.494H232.336V84.43H233.694L234.17 82.26H232.98V81.196H234.408L235.066 78.228H236.172L235.514 81.196H237.572L238.23 78.228H239.35L238.678 81.196H239.798V82.26H238.468L237.978 84.43H239.168V85.494H237.754L237.166 88.168H236.06L236.648 85.494H234.576L234.002 88.168H232.882ZM234.8 84.43H236.872L237.348 82.26H235.29L234.8 84.43ZM244.124 88.168C243.452 88.168 242.864 88.042 242.36 87.79C241.856 87.538 241.464 87.1787 241.184 86.712C240.904 86.236 240.764 85.6713 240.764 85.018H242.01C242.01 85.4567 242.104 85.8347 242.29 86.152C242.477 86.4693 242.729 86.712 243.046 86.88C243.373 87.048 243.732 87.132 244.124 87.132C244.526 87.132 244.88 87.0527 245.188 86.894C245.496 86.726 245.734 86.474 245.902 86.138C246.08 85.802 246.168 85.3773 246.168 84.864C246.168 84.3973 246.089 84.0147 245.93 83.716C245.772 83.408 245.543 83.1793 245.244 83.03C244.955 82.8807 244.619 82.806 244.236 82.806C243.956 82.806 243.69 82.8527 243.438 82.946C243.186 83.03 242.958 83.1513 242.752 83.31C242.556 83.4687 242.393 83.6647 242.262 83.898L241.1 83.716L241.506 78.396H246.952V79.544H242.584L242.36 82.54C242.519 82.4 242.696 82.274 242.892 82.162C243.098 82.0407 243.331 81.9473 243.592 81.882C243.854 81.8073 244.152 81.77 244.488 81.77C245.039 81.77 245.538 81.8773 245.986 82.092C246.434 82.3067 246.789 82.638 247.05 83.086C247.312 83.534 247.442 84.1127 247.442 84.822C247.442 85.522 247.307 86.124 247.036 86.628C246.775 87.132 246.397 87.5147 245.902 87.776C245.408 88.0373 244.815 88.168 244.124 88.168ZM248.678 88V87.594C248.678 87.202 248.753 86.8427 248.902 86.516C249.061 86.18 249.266 85.8767 249.518 85.606C249.78 85.326 250.074 85.06 250.4 84.808C250.727 84.556 251.058 84.3087 251.394 84.066C251.852 83.7487 252.272 83.4313 252.654 83.114C253.046 82.7967 253.359 82.456 253.592 82.092C253.826 81.7187 253.942 81.3033 253.942 80.846C253.942 80.5567 253.872 80.2953 253.732 80.062C253.602 79.8193 253.401 79.628 253.13 79.488C252.86 79.348 252.514 79.278 252.094 79.278C251.6 79.278 251.203 79.362 250.904 79.53C250.606 79.698 250.386 79.922 250.246 80.202C250.116 80.482 250.05 80.79 250.05 81.126V81.7H248.832C248.823 81.6533 248.814 81.5833 248.804 81.49C248.795 81.3873 248.79 81.2707 248.79 81.14C248.79 80.4493 248.944 79.894 249.252 79.474C249.56 79.0447 249.971 78.732 250.484 78.536C250.998 78.3307 251.553 78.228 252.15 78.228C252.682 78.228 253.14 78.3027 253.522 78.452C253.905 78.592 254.222 78.788 254.474 79.04C254.726 79.292 254.913 79.5813 255.034 79.908C255.156 80.2253 255.216 80.5613 255.216 80.916C255.216 81.3547 255.137 81.756 254.978 82.12C254.829 82.484 254.614 82.8247 254.334 83.142C254.064 83.45 253.742 83.7487 253.368 84.038C253.004 84.3273 252.608 84.6213 252.178 84.92C251.88 85.116 251.586 85.326 251.296 85.55C251.007 85.7647 250.76 85.984 250.554 86.208C250.349 86.432 250.218 86.6467 250.162 86.852H255.272V88H248.678ZM259.898 88.168C259.226 88.168 258.638 88.042 258.134 87.79C257.63 87.538 257.238 87.1787 256.958 86.712C256.678 86.236 256.538 85.6713 256.538 85.018H257.784C257.784 85.4567 257.877 85.8347 258.064 86.152C258.251 86.4693 258.503 86.712 258.82 86.88C259.147 87.048 259.506 87.132 259.898 87.132C260.299 87.132 260.654 87.0527 260.962 86.894C261.27 86.726 261.508 86.474 261.676 86.138C261.853 85.802 261.942 85.3773 261.942 84.864C261.942 84.3973 261.863 84.0147 261.704 83.716C261.545 83.408 261.317 83.1793 261.018 83.03C260.729 82.8807 260.393 82.806 260.01 82.806C259.73 82.806 259.464 82.8527 259.212 82.946C258.96 83.03 258.731 83.1513 258.526 83.31C258.33 83.4687 258.167 83.6647 258.036 83.898L256.874 83.716L257.28 78.396H262.726V79.544H258.358L258.134 82.54C258.293 82.4 258.47 82.274 258.666 82.162C258.871 82.0407 259.105 81.9473 259.366 81.882C259.627 81.8073 259.926 81.77 260.262 81.77C260.813 81.77 261.312 81.8773 261.76 82.092C262.208 82.3067 262.563 82.638 262.824 83.086C263.085 83.534 263.216 84.1127 263.216 84.822C263.216 85.522 263.081 86.124 262.81 86.628C262.549 87.132 262.171 87.5147 261.676 87.776C261.181 88.0373 260.589 88.168 259.898 88.168ZM264.452 88V87.594C264.452 87.202 264.527 86.8427 264.676 86.516C264.835 86.18 265.04 85.8767 265.292 85.606C265.553 85.326 265.847 85.06 266.174 84.808C266.501 84.556 266.832 84.3087 267.168 84.066C267.625 83.7487 268.045 83.4313 268.428 83.114C268.82 82.7967 269.133 82.456 269.366 82.092C269.599 81.7187 269.716 81.3033 269.716 80.846C269.716 80.5567 269.646 80.2953 269.506 80.062C269.375 79.8193 269.175 79.628 268.904 79.488C268.633 79.348 268.288 79.278 267.868 79.278C267.373 79.278 266.977 79.362 266.678 79.53C266.379 79.698 266.16 79.922 266.02 80.202C265.889 80.482 265.824 80.79 265.824 81.126V81.7H264.606C264.597 81.6533 264.587 81.5833 264.578 81.49C264.569 81.3873 264.564 81.2707 264.564 81.14C264.564 80.4493 264.718 79.894 265.026 79.474C265.334 79.0447 265.745 78.732 266.258 78.536C266.771 78.3307 267.327 78.228 267.924 78.228C268.456 78.228 268.913 78.3027 269.296 78.452C269.679 78.592 269.996 78.788 270.248 79.04C270.5 79.292 270.687 79.5813 270.808 79.908C270.929 80.2253 270.99 80.5613 270.99 80.916C270.99 81.3547 270.911 81.756 270.752 82.12C270.603 82.484 270.388 82.8247 270.108 83.142C269.837 83.45 269.515 83.7487 269.142 84.038C268.778 84.3273 268.381 84.6213 267.952 84.92C267.653 85.116 267.359 85.326 267.07 85.55C266.781 85.7647 266.533 85.984 266.328 86.208C266.123 86.432 265.992 86.6467 265.936 86.852H271.046V88H264.452ZM275.671 88.168C274.999 88.168 274.411 88.042 273.907 87.79C273.403 87.538 273.011 87.1787 272.731 86.712C272.451 86.236 272.311 85.6713 272.311 85.018H273.557C273.557 85.4567 273.651 85.8347 273.837 86.152C274.024 86.4693 274.276 86.712 274.593 86.88C274.92 87.048 275.279 87.132 275.671 87.132C276.073 87.132 276.427 87.0527 276.735 86.894C277.043 86.726 277.281 86.474 277.449 86.138C277.627 85.802 277.715 85.3773 277.715 84.864C277.715 84.3973 277.636 84.0147 277.477 83.716C277.319 83.408 277.09 83.1793 276.791 83.03C276.502 82.8807 276.166 82.806 275.783 82.806C275.503 82.806 275.237 82.8527 274.985 82.946C274.733 83.03 274.505 83.1513 274.299 83.31C274.103 83.4687 273.94 83.6647 273.809 83.898L272.647 83.716L273.053 78.396H278.499V79.544H274.131L273.907 82.54C274.066 82.4 274.243 82.274 274.439 82.162C274.645 82.0407 274.878 81.9473 275.139 81.882C275.401 81.8073 275.699 81.77 276.035 81.77C276.586 81.77 277.085 81.8773 277.533 82.092C277.981 82.3067 278.336 82.638 278.597 83.086C278.859 83.534 278.989 84.1127 278.989 84.822C278.989 85.522 278.854 86.124 278.583 86.628C278.322 87.132 277.944 87.5147 277.449 87.776C276.955 88.0373 276.362 88.168 275.671 88.168ZM280.225 88V87.594C280.225 87.202 280.3 86.8427 280.449 86.516C280.608 86.18 280.813 85.8767 281.065 85.606C281.327 85.326 281.621 85.06 281.947 84.808C282.274 84.556 282.605 84.3087 282.941 84.066C283.399 83.7487 283.819 83.4313 284.201 83.114C284.593 82.7967 284.906 82.456 285.139 82.092C285.373 81.7187 285.489 81.3033 285.489 80.846C285.489 80.5567 285.419 80.2953 285.279 80.062C285.149 79.8193 284.948 79.628 284.677 79.488C284.407 79.348 284.061 79.278 283.641 79.278C283.147 79.278 282.75 79.362 282.451 79.53C282.153 79.698 281.933 79.922 281.793 80.202C281.663 80.482 281.597 80.79 281.597 81.126V81.7H280.379C280.37 81.6533 280.361 81.5833 280.351 81.49C280.342 81.3873 280.337 81.2707 280.337 81.14C280.337 80.4493 280.491 79.894 280.799 79.474C281.107 79.0447 281.518 78.732 282.031 78.536C282.545 78.3307 283.1 78.228 283.697 78.228C284.229 78.228 284.687 78.3027 285.069 78.452C285.452 78.592 285.769 78.788 286.021 79.04C286.273 79.292 286.46 79.5813 286.581 79.908C286.703 80.2253 286.763 80.5613 286.763 80.916C286.763 81.3547 286.684 81.756 286.525 82.12C286.376 82.484 286.161 82.8247 285.881 83.142C285.611 83.45 285.289 83.7487 284.915 84.038C284.551 84.3273 284.155 84.6213 283.725 84.92C283.427 85.116 283.133 85.326 282.843 85.55C282.554 85.7647 282.307 85.984 282.101 86.208C281.896 86.432 281.765 86.6467 281.709 86.852H286.819V88H280.225Z" fill="#3A3A38"/><path d="M258.858 27V24.648H254.392V23.612C254.784 22.94 255.139 22.2633 255.456 21.582C255.783 20.9007 256.072 20.2007 256.324 19.482C256.585 18.7633 256.8 18.012 256.968 17.228H258.284C258.163 17.7413 258.013 18.2687 257.836 18.81C257.659 19.342 257.463 19.86 257.248 20.364C257.033 20.868 256.819 21.3393 256.604 21.778C256.399 22.2167 256.203 22.5947 256.016 22.912C255.839 23.2293 255.694 23.4627 255.582 23.612H258.858V20.56C258.914 20.4107 258.97 20.2567 259.026 20.098C259.091 19.93 259.152 19.762 259.208 19.594C259.264 19.4167 259.315 19.2533 259.362 19.104C259.409 18.9453 259.446 18.796 259.474 18.656H260.09V23.612H261.364V24.648H260.09V27H258.858ZM265.7 27.168C264.906 27.168 264.262 27.042 263.768 26.79C263.273 26.538 262.909 26.202 262.676 25.782C262.452 25.362 262.34 24.8953 262.34 24.382C262.34 23.8593 262.47 23.3973 262.732 22.996C262.993 22.5947 263.404 22.2867 263.964 22.072C263.516 21.8387 263.175 21.5307 262.942 21.148C262.718 20.7653 262.606 20.3407 262.606 19.874C262.606 19.3793 262.718 18.936 262.942 18.544C263.175 18.1427 263.52 17.8253 263.978 17.592C264.444 17.3493 265.018 17.228 265.7 17.228C266.381 17.228 266.95 17.3493 267.408 17.592C267.865 17.8253 268.21 18.1427 268.444 18.544C268.677 18.936 268.794 19.3793 268.794 19.874C268.794 20.3407 268.677 20.7653 268.444 21.148C268.21 21.5307 267.87 21.8387 267.422 22.072C267.991 22.2867 268.402 22.5947 268.654 22.996C268.915 23.3973 269.046 23.8593 269.046 24.382C269.046 24.8953 268.929 25.362 268.696 25.782C268.472 26.202 268.112 26.538 267.618 26.79C267.132 27.042 266.493 27.168 265.7 27.168ZM265.7 26.146C266.381 26.146 266.894 25.9873 267.24 25.67C267.585 25.3527 267.758 24.9187 267.758 24.368C267.758 23.8267 267.585 23.3973 267.24 23.08C266.894 22.7627 266.381 22.604 265.7 22.604C265.018 22.604 264.5 22.7627 264.146 23.08C263.8 23.3973 263.628 23.8267 263.628 24.368C263.628 24.9187 263.8 25.3527 264.146 25.67C264.5 25.9873 265.018 26.146 265.7 26.146ZM265.7 21.582C266.269 21.582 266.717 21.4373 267.044 21.148C267.37 20.8493 267.534 20.434 267.534 19.902C267.534 19.3793 267.37 18.9733 267.044 18.684C266.717 18.3947 266.269 18.25 265.7 18.25C265.13 18.25 264.682 18.3947 264.356 18.684C264.029 18.9733 263.866 19.3793 263.866 19.902C263.866 20.434 264.029 20.8493 264.356 21.148C264.682 21.4373 265.13 21.582 265.7 21.582ZM270.603 29.422V19.636H271.583L271.709 20.686H271.807C272.059 20.2753 272.381 19.972 272.773 19.776C273.165 19.5707 273.608 19.468 274.103 19.468C274.719 19.468 275.241 19.6033 275.671 19.874C276.1 20.1447 276.431 20.5693 276.665 21.148C276.898 21.7173 277.015 22.4593 277.015 23.374C277.015 24.2327 276.893 24.9467 276.651 25.516C276.417 26.076 276.086 26.4913 275.657 26.762C275.227 27.0327 274.728 27.168 274.159 27.168C273.841 27.168 273.543 27.1307 273.263 27.056C272.983 26.9813 272.731 26.8647 272.507 26.706C272.283 26.538 272.087 26.328 271.919 26.076H271.835V29.422H270.603ZM273.767 26.09C274.224 26.09 274.597 26.0013 274.887 25.824C275.176 25.6373 275.391 25.3527 275.531 24.97C275.671 24.578 275.741 24.0787 275.741 23.472V23.178C275.741 22.534 275.666 22.0207 275.517 21.638C275.367 21.246 275.148 20.966 274.859 20.798C274.579 20.63 274.229 20.546 273.809 20.546C273.351 20.546 272.973 20.6487 272.675 20.854C272.385 21.05 272.171 21.3487 272.031 21.75C271.9 22.1513 271.835 22.6413 271.835 23.22V23.43C271.835 23.9433 271.881 24.3727 271.975 24.718C272.077 25.054 272.217 25.3247 272.395 25.53C272.581 25.7353 272.791 25.88 273.025 25.964C273.258 26.048 273.505 26.09 273.767 26.09ZM277.405 27L280.051 23.234L277.531 19.636H279.015L280.807 22.268H280.877L282.669 19.636H284.069L281.549 23.192L284.209 27H282.739L280.807 24.158H280.737L278.805 27H277.405ZM288.11 27V16.878H289.342V20.56H289.44C289.627 20.308 289.837 20.1027 290.07 19.944C290.304 19.7853 290.56 19.6687 290.84 19.594C291.13 19.51 291.442 19.468 291.778 19.468C292.245 19.468 292.651 19.5473 292.996 19.706C293.351 19.8647 293.626 20.1213 293.822 20.476C294.028 20.8307 294.13 21.3113 294.13 21.918V27H292.898V22.086C292.898 21.778 292.856 21.526 292.772 21.33C292.698 21.134 292.59 20.98 292.45 20.868C292.32 20.756 292.156 20.6767 291.96 20.63C291.774 20.5833 291.564 20.56 291.33 20.56C290.985 20.56 290.658 20.644 290.35 20.812C290.042 20.9707 289.795 21.2087 289.608 21.526C289.431 21.834 289.342 22.2167 289.342 22.674V27H288.11ZM298.855 27.168C298.127 27.168 297.511 27.0327 297.007 26.762C296.512 26.482 296.134 26.0573 295.873 25.488C295.621 24.9187 295.495 24.1953 295.495 23.318C295.495 22.4313 295.621 21.708 295.873 21.148C296.134 20.5787 296.517 20.1587 297.021 19.888C297.525 19.608 298.155 19.468 298.911 19.468C299.602 19.468 300.18 19.6033 300.647 19.874C301.114 20.1353 301.464 20.532 301.697 21.064C301.94 21.5867 302.061 22.2447 302.061 23.038V23.626H296.769C296.788 24.214 296.872 24.6993 297.021 25.082C297.18 25.4553 297.413 25.7307 297.721 25.908C298.029 26.076 298.416 26.16 298.883 26.16C299.2 26.16 299.476 26.1227 299.709 26.048C299.952 25.964 300.152 25.8473 300.311 25.698C300.479 25.5487 300.605 25.3713 300.689 25.166C300.773 24.9607 300.82 24.7367 300.829 24.494H302.033C302.024 24.886 301.949 25.25 301.809 25.586C301.669 25.9127 301.464 26.1927 301.193 26.426C300.922 26.6593 300.591 26.8413 300.199 26.972C299.807 27.1027 299.359 27.168 298.855 27.168ZM296.797 22.702H300.787C300.787 22.2913 300.74 21.946 300.647 21.666C300.554 21.386 300.418 21.1573 300.241 20.98C300.073 20.8027 299.872 20.6767 299.639 20.602C299.415 20.518 299.158 20.476 298.869 20.476C298.44 20.476 298.076 20.5553 297.777 20.714C297.478 20.8727 297.25 21.1153 297.091 21.442C296.932 21.7687 296.834 22.1887 296.797 22.702ZM303.501 18.25V16.878H304.733V18.25H303.501ZM303.501 27V19.636H304.733V27H303.501ZM307.808 29.548C307.453 29.548 307.126 29.4733 306.828 29.324C306.529 29.184 306.291 28.9787 306.114 28.708C305.936 28.4373 305.848 28.1153 305.848 27.742C305.848 27.3313 305.96 26.9907 306.184 26.72C306.417 26.4493 306.692 26.2487 307.01 26.118C306.776 26.006 306.594 25.852 306.464 25.656C306.333 25.4507 306.268 25.2267 306.268 24.984C306.268 24.6573 306.384 24.382 306.618 24.158C306.86 23.934 307.154 23.7847 307.5 23.71C307.182 23.5047 306.93 23.2433 306.744 22.926C306.566 22.5993 306.478 22.24 306.478 21.848C306.478 21.3813 306.585 20.9707 306.8 20.616C307.024 20.2613 307.36 19.9813 307.808 19.776C308.265 19.5707 308.82 19.468 309.474 19.468C309.772 19.468 310.052 19.4913 310.314 19.538C310.575 19.5753 310.808 19.6407 311.014 19.734C311.34 19.5847 311.583 19.3933 311.742 19.16C311.91 18.9267 312.012 18.6887 312.05 18.446H313.268C313.268 18.726 313.202 18.992 313.072 19.244C312.95 19.4867 312.782 19.692 312.568 19.86C312.353 20.0187 312.092 20.126 311.784 20.182C312.017 20.406 312.19 20.658 312.302 20.938C312.423 21.218 312.484 21.5213 312.484 21.848C312.484 22.3147 312.372 22.73 312.148 23.094C311.933 23.4487 311.606 23.7287 311.168 23.934C310.729 24.1393 310.178 24.242 309.516 24.242H308.368C308.116 24.242 307.91 24.2933 307.752 24.396C307.593 24.4893 307.514 24.6433 307.514 24.858C307.514 25.0447 307.593 25.1987 307.752 25.32C307.91 25.432 308.116 25.488 308.368 25.488H311.364C311.905 25.488 312.348 25.67 312.694 26.034C313.039 26.3887 313.212 26.846 313.212 27.406C313.212 27.8073 313.109 28.1667 312.904 28.484C312.708 28.8107 312.428 29.0673 312.064 29.254C311.709 29.45 311.294 29.548 310.818 29.548H307.808ZM308.158 28.61H310.804C311.018 28.61 311.214 28.5633 311.392 28.47C311.569 28.386 311.709 28.2647 311.812 28.106C311.914 27.9473 311.966 27.7747 311.966 27.588C311.966 27.2707 311.872 27.0187 311.686 26.832C311.499 26.6453 311.266 26.552 310.986 26.552H308.158C307.859 26.552 307.607 26.6547 307.402 26.86C307.196 27.056 307.094 27.2987 307.094 27.588C307.094 27.896 307.196 28.1433 307.402 28.33C307.607 28.5167 307.859 28.61 308.158 28.61ZM309.488 23.318C310.085 23.318 310.528 23.1873 310.818 22.926C311.107 22.6647 311.252 22.3053 311.252 21.848C311.252 21.4 311.107 21.0453 310.818 20.784C310.528 20.5227 310.085 20.392 309.488 20.392C308.89 20.392 308.442 20.5227 308.144 20.784C307.854 21.0453 307.71 21.4 307.71 21.848C307.71 22.1373 307.775 22.394 307.906 22.618C308.036 22.842 308.232 23.0147 308.494 23.136C308.755 23.2573 309.086 23.318 309.488 23.318ZM314.257 27V16.878H315.489V20.56H315.587C315.774 20.308 315.984 20.1027 316.217 19.944C316.45 19.7853 316.707 19.6687 316.987 19.594C317.276 19.51 317.589 19.468 317.925 19.468C318.392 19.468 318.798 19.5473 319.143 19.706C319.498 19.8647 319.773 20.1213 319.969 20.476C320.174 20.8307 320.277 21.3113 320.277 21.918V27H319.045V22.086C319.045 21.778 319.003 21.526 318.919 21.33C318.844 21.134 318.737 20.98 318.597 20.868C318.466 20.756 318.303 20.6767 318.107 20.63C317.92 20.5833 317.71 20.56 317.477 20.56C317.132 20.56 316.805 20.644 316.497 20.812C316.189 20.9707 315.942 21.2087 315.755 21.526C315.578 21.834 315.489 22.2167 315.489 22.674V27H314.257ZM323.784 27.168C323.401 27.168 323.102 27.098 322.888 26.958C322.673 26.8087 322.519 26.6173 322.426 26.384C322.332 26.1413 322.286 25.8847 322.286 25.614V20.672H321.334V19.636H322.314L322.538 17.578H323.518V19.636H324.904V20.672H323.518V25.432C323.518 25.6653 323.56 25.8427 323.644 25.964C323.728 26.076 323.886 26.132 324.12 26.132H324.904V26.944C324.81 26.9907 324.698 27.028 324.568 27.056C324.437 27.084 324.302 27.1073 324.162 27.126C324.031 27.154 323.905 27.168 323.784 27.168Z" fill="#3A3A38"/><rect x="116" y="9" width="83" height="48" rx="6" fill="#26252A"/><path d="M133.189 39V27.3636H137.644C138.485 27.3636 139.184 27.4962 139.74 27.7614C140.301 28.0227 140.72 28.3807 140.996 28.8352C141.276 29.2898 141.417 29.8049 141.417 30.3807C141.417 30.8542 141.326 31.2595 141.144 31.5966C140.962 31.9299 140.718 32.2008 140.411 32.4091C140.104 32.6174 139.761 32.767 139.382 32.858V32.9716C139.795 32.9943 140.191 33.1212 140.57 33.3523C140.953 33.5795 141.265 33.9015 141.507 34.3182C141.75 34.7348 141.871 35.2386 141.871 35.8295C141.871 36.4318 141.725 36.9735 141.434 37.4545C141.142 37.9318 140.703 38.3087 140.115 38.5852C139.528 38.8617 138.79 39 137.9 39H133.189ZM135.297 37.2386H137.564C138.329 37.2386 138.881 37.0928 139.218 36.8011C139.559 36.5057 139.729 36.1269 139.729 35.6648C139.729 35.3201 139.644 35.0095 139.473 34.733C139.303 34.4527 139.061 34.233 138.746 34.0739C138.432 33.911 138.057 33.8295 137.621 33.8295H135.297V37.2386ZM135.297 32.3125H137.382C137.746 32.3125 138.074 32.2462 138.365 32.1136C138.657 31.9773 138.886 31.786 139.053 31.5398C139.223 31.2898 139.309 30.9943 139.309 30.6534C139.309 30.2027 139.15 29.8314 138.831 29.5398C138.517 29.2481 138.049 29.1023 137.428 29.1023H135.297V32.3125ZM149.001 35.3295V30.2727H151.057V39H149.063V37.4489H148.972C148.775 37.9375 148.451 38.3371 148.001 38.6477C147.554 38.9583 147.002 39.1136 146.347 39.1136C145.775 39.1136 145.269 38.9867 144.83 38.733C144.394 38.4754 144.054 38.1023 143.807 37.6136C143.561 37.1212 143.438 36.5265 143.438 35.8295V30.2727H145.495V35.5114C145.495 36.0644 145.646 36.5038 145.949 36.8295C146.252 37.1553 146.65 37.3182 147.143 37.3182C147.446 37.3182 147.739 37.2443 148.023 37.0966C148.307 36.9489 148.54 36.7292 148.722 36.4375C148.908 36.142 149.001 35.7727 149.001 35.3295ZM157.354 30.2727V31.8636H152.337V30.2727H157.354ZM153.576 28.1818H155.633V36.375C155.633 36.6515 155.674 36.8636 155.758 37.0114C155.845 37.1553 155.959 37.2538 156.099 37.3068C156.239 37.3598 156.394 37.3864 156.565 37.3864C156.693 37.3864 156.811 37.3769 156.917 37.358C157.027 37.339 157.11 37.322 157.167 37.3068L157.513 38.9148C157.404 38.9527 157.246 38.9943 157.042 39.0398C156.841 39.0852 156.595 39.1117 156.303 39.1193C155.788 39.1345 155.324 39.0568 154.911 38.8864C154.498 38.7121 154.171 38.4432 153.928 38.0795C153.69 37.7159 153.572 37.2614 153.576 36.7159V28.1818ZM163.256 30.2727V31.8636H158.239V30.2727H163.256ZM159.478 28.1818H161.535V36.375C161.535 36.6515 161.577 36.8636 161.66 37.0114C161.747 37.1553 161.861 37.2538 162.001 37.3068C162.141 37.3598 162.296 37.3864 162.467 37.3864C162.595 37.3864 162.713 37.3769 162.819 37.358C162.929 37.339 163.012 37.322 163.069 37.3068L163.416 38.9148C163.306 38.9527 163.149 38.9943 162.944 39.0398C162.743 39.0852 162.497 39.1117 162.205 39.1193C161.69 39.1345 161.226 39.0568 160.813 38.8864C160.4 38.7121 160.073 38.4432 159.83 38.0795C159.592 37.7159 159.474 37.2614 159.478 36.7159V28.1818ZM168.514 39.1705C167.661 39.1705 166.923 38.983 166.298 38.608C165.673 38.233 165.188 37.7083 164.843 37.0341C164.502 36.3598 164.332 35.572 164.332 34.6705C164.332 33.7689 164.502 32.9792 164.843 32.3011C165.188 31.6231 165.673 31.0966 166.298 30.7216C166.923 30.3466 167.661 30.1591 168.514 30.1591C169.366 30.1591 170.105 30.3466 170.73 30.7216C171.355 31.0966 171.838 31.6231 172.178 32.3011C172.523 32.9792 172.696 33.7689 172.696 34.6705C172.696 35.572 172.523 36.3598 172.178 37.0341C171.838 37.7083 171.355 38.233 170.73 38.608C170.105 38.983 169.366 39.1705 168.514 39.1705ZM168.525 37.5227C168.987 37.5227 169.374 37.3958 169.684 37.142C169.995 36.8845 170.226 36.5398 170.377 36.108C170.533 35.6761 170.61 35.1951 170.61 34.6648C170.61 34.1307 170.533 33.6477 170.377 33.2159C170.226 32.7803 169.995 32.4337 169.684 32.1761C169.374 31.9186 168.987 31.7898 168.525 31.7898C168.052 31.7898 167.658 31.9186 167.343 32.1761C167.033 32.4337 166.8 32.7803 166.644 33.2159C166.493 33.6477 166.417 34.1307 166.417 34.6648C166.417 35.1951 166.493 35.6761 166.644 36.108C166.8 36.5398 167.033 36.8845 167.343 37.142C167.658 37.3958 168.052 37.5227 168.525 37.5227ZM176.322 33.8864V39H174.265V30.2727H176.231V31.7557H176.333C176.534 31.267 176.854 30.8788 177.294 30.5909C177.737 30.303 178.284 30.1591 178.936 30.1591C179.538 30.1591 180.063 30.2879 180.51 30.5455C180.96 30.803 181.309 31.1761 181.555 31.6648C181.805 32.1534 181.928 32.7462 181.924 33.4432V39H179.868V33.7614C179.868 33.178 179.716 32.7216 179.413 32.392C179.114 32.0625 178.699 31.8977 178.169 31.8977C177.809 31.8977 177.489 31.9773 177.208 32.1364C176.932 32.2917 176.714 32.517 176.555 32.8125C176.4 33.108 176.322 33.4659 176.322 33.8864Z" fill="white"/><path d="M89.858 90V87.648H85.392V86.612C85.784 85.94 86.1387 85.2633 86.456 84.582C86.7827 83.9007 87.072 83.2007 87.324 82.482C87.5853 81.7633 87.8 81.012 87.968 80.228H89.284C89.1627 80.7413 89.0133 81.2687 88.836 81.81C88.6587 82.342 88.4627 82.86 88.248 83.364C88.0333 83.868 87.8187 84.3393 87.604 84.778C87.3987 85.2167 87.2027 85.5947 87.016 85.912C86.8387 86.2293 86.694 86.4627 86.582 86.612H89.858V83.56C89.914 83.4107 89.97 83.2567 90.026 83.098C90.0913 82.93 90.152 82.762 90.208 82.594C90.264 82.4167 90.3153 82.2533 90.362 82.104C90.4087 81.9453 90.446 81.796 90.474 81.656H91.09V86.612H92.364V87.648H91.09V90H89.858ZM93.6476 92.422V82.636H94.6276L94.7536 83.686H94.8516C95.1036 83.2753 95.4256 82.972 95.8176 82.776C96.2096 82.5707 96.653 82.468 97.1476 82.468C97.7636 82.468 98.2863 82.6033 98.7156 82.874C99.145 83.1447 99.4763 83.5693 99.7096 84.148C99.943 84.7173 100.06 85.4593 100.06 86.374C100.06 87.2327 99.9383 87.9467 99.6956 88.516C99.4623 89.076 99.131 89.4913 98.7016 89.762C98.2723 90.0327 97.773 90.168 97.2036 90.168C96.8863 90.168 96.5876 90.1307 96.3076 90.056C96.0276 89.9813 95.7756 89.8647 95.5516 89.706C95.3276 89.538 95.1316 89.328 94.9636 89.076H94.8796V92.422H93.6476ZM96.8116 89.09C97.269 89.09 97.6423 89.0013 97.9316 88.824C98.221 88.6373 98.4356 88.3527 98.5756 87.97C98.7156 87.578 98.7856 87.0787 98.7856 86.472V86.178C98.7856 85.534 98.711 85.0207 98.5616 84.638C98.4123 84.246 98.193 83.966 97.9036 83.798C97.6236 83.63 97.2736 83.546 96.8536 83.546C96.3963 83.546 96.0183 83.6487 95.7196 83.854C95.4303 84.05 95.2156 84.3487 95.0756 84.75C94.945 85.1513 94.8796 85.6413 94.8796 86.22V86.43C94.8796 86.9433 94.9263 87.3727 95.0196 87.718C95.1223 88.054 95.2623 88.3247 95.4396 88.53C95.6263 88.7353 95.8363 88.88 96.0696 88.964C96.303 89.048 96.5503 89.09 96.8116 89.09ZM100.45 90L103.096 86.234L100.576 82.636H102.06L103.852 85.268H103.922L105.714 82.636H107.114L104.594 86.192L107.254 90H105.784L103.852 87.158H103.782L101.85 90H100.45ZM111.155 90V82.636H112.149L112.261 83.854H112.359C112.434 83.6207 112.537 83.4013 112.667 83.196C112.798 82.9813 112.975 82.8087 113.199 82.678C113.423 82.538 113.699 82.468 114.025 82.468C114.165 82.468 114.291 82.482 114.403 82.51C114.525 82.5287 114.613 82.552 114.669 82.58V83.714H114.207C113.89 83.714 113.615 83.77 113.381 83.882C113.157 83.9847 112.971 84.134 112.821 84.33C112.672 84.526 112.56 84.7593 112.485 85.03C112.42 85.3007 112.387 85.59 112.387 85.898V90H111.155ZM117.431 90.168C117.16 90.168 116.89 90.1353 116.619 90.07C116.348 90.0047 116.096 89.8973 115.863 89.748C115.63 89.5987 115.443 89.3933 115.303 89.132C115.163 88.8613 115.093 88.5253 115.093 88.124C115.093 87.62 115.214 87.2047 115.457 86.878C115.7 86.5513 116.036 86.2993 116.465 86.122C116.904 85.9353 117.422 85.8093 118.019 85.744C118.616 85.6693 119.265 85.632 119.965 85.632V84.792C119.965 84.5213 119.918 84.288 119.825 84.092C119.732 83.896 119.564 83.7467 119.321 83.644C119.088 83.532 118.752 83.476 118.313 83.476C117.893 83.476 117.557 83.532 117.305 83.644C117.062 83.7467 116.89 83.882 116.787 84.05C116.694 84.218 116.647 84.4047 116.647 84.61V84.82H115.457C115.448 84.7733 115.443 84.7267 115.443 84.68C115.443 84.6333 115.443 84.5773 115.443 84.512C115.443 84.064 115.564 83.6907 115.807 83.392C116.059 83.084 116.409 82.8553 116.857 82.706C117.305 82.5473 117.818 82.468 118.397 82.468C119.013 82.468 119.526 82.5567 119.937 82.734C120.357 82.9113 120.67 83.1633 120.875 83.49C121.09 83.8167 121.197 84.2087 121.197 84.666V88.656C121.197 88.8333 121.239 88.9593 121.323 89.034C121.407 89.0993 121.51 89.132 121.631 89.132H122.177V89.944C122.046 90 121.902 90.0467 121.743 90.084C121.584 90.1307 121.402 90.154 121.197 90.154C120.954 90.154 120.754 90.1027 120.595 90C120.436 89.9067 120.315 89.776 120.231 89.608C120.147 89.4307 120.091 89.2347 120.063 89.02H119.965C119.797 89.2533 119.582 89.4587 119.321 89.636C119.069 89.804 118.784 89.9347 118.467 90.028C118.15 90.1213 117.804 90.168 117.431 90.168ZM117.739 89.132C118.038 89.132 118.318 89.0853 118.579 88.992C118.85 88.8987 119.088 88.768 119.293 88.6C119.498 88.4227 119.662 88.2127 119.783 87.97C119.904 87.7273 119.965 87.4613 119.965 87.172V86.556C119.209 86.556 118.565 86.598 118.033 86.682C117.501 86.766 117.09 86.9153 116.801 87.13C116.521 87.3447 116.381 87.648 116.381 88.04C116.381 88.292 116.437 88.4973 116.549 88.656C116.661 88.8147 116.82 88.936 117.025 89.02C117.23 89.0947 117.468 89.132 117.739 89.132ZM125.634 90.168C125.027 90.168 124.505 90.0327 124.066 89.762C123.637 89.4913 123.301 89.0713 123.058 88.502C122.825 87.9233 122.708 87.1767 122.708 86.262C122.708 85.394 122.829 84.68 123.072 84.12C123.315 83.56 123.651 83.1447 124.08 82.874C124.509 82.6033 125.009 82.468 125.578 82.468C125.905 82.468 126.208 82.5053 126.488 82.58C126.768 82.6547 127.015 82.7713 127.23 82.93C127.454 83.0887 127.65 83.2987 127.818 83.56H127.902V79.878H129.134V90H128.14L128.028 88.95H127.93C127.678 89.3607 127.351 89.6687 126.95 89.874C126.549 90.07 126.11 90.168 125.634 90.168ZM125.928 89.09C126.395 89.09 126.773 88.9873 127.062 88.782C127.351 88.5767 127.561 88.278 127.692 87.886C127.832 87.494 127.902 87.0087 127.902 86.43V86.206C127.902 85.702 127.851 85.2773 127.748 84.932C127.645 84.5867 127.505 84.3113 127.328 84.106C127.151 83.9007 126.945 83.756 126.712 83.672C126.479 83.588 126.231 83.546 125.97 83.546C125.513 83.546 125.139 83.6393 124.85 83.826C124.561 84.0033 124.346 84.288 124.206 84.68C124.066 85.0627 123.996 85.562 123.996 86.178V86.472C123.996 87.1067 124.071 87.62 124.22 88.012C124.369 88.3947 124.584 88.67 124.864 88.838C125.153 89.006 125.508 89.09 125.928 89.09ZM130.987 81.25V79.878H132.219V81.25H130.987ZM130.987 90V82.636H132.219V90H130.987ZM136.33 90.168C135.621 90.168 135.051 89.986 134.622 89.622C134.193 89.258 133.978 88.6233 133.978 87.718V82.636H135.21V87.55C135.21 87.858 135.247 88.11 135.322 88.306C135.397 88.502 135.504 88.656 135.644 88.768C135.784 88.88 135.947 88.9593 136.134 89.006C136.33 89.0527 136.54 89.076 136.764 89.076C137.119 89.076 137.445 88.992 137.744 88.824C138.043 88.656 138.285 88.4133 138.472 88.096C138.668 87.7693 138.766 87.3913 138.766 86.962V82.636H139.998V90H139.004L138.892 88.894H138.794C138.598 89.1927 138.374 89.4353 138.122 89.622C137.879 89.8087 137.604 89.944 137.296 90.028C136.997 90.1213 136.675 90.168 136.33 90.168ZM144.401 90.168C143.897 90.168 143.454 90.1167 143.071 90.014C142.689 89.9113 142.371 89.762 142.119 89.566C141.867 89.37 141.676 89.1367 141.545 88.866C141.415 88.5953 141.349 88.2873 141.349 87.942C141.349 87.8953 141.349 87.8533 141.349 87.816C141.349 87.7693 141.354 87.732 141.363 87.704H142.581C142.572 87.7413 142.567 87.774 142.567 87.802C142.567 87.83 142.567 87.858 142.567 87.886C142.577 88.2127 142.661 88.4693 142.819 88.656C142.987 88.8427 143.216 88.9733 143.505 89.048C143.795 89.1227 144.117 89.16 144.471 89.16C144.779 89.16 145.064 89.1227 145.325 89.048C145.587 88.964 145.792 88.8427 145.941 88.684C146.1 88.516 146.179 88.306 146.179 88.054C146.179 87.746 146.077 87.5127 145.871 87.354C145.675 87.186 145.414 87.0553 145.087 86.962C144.761 86.8687 144.42 86.7707 144.065 86.668C143.767 86.584 143.468 86.4907 143.169 86.388C142.871 86.2853 142.6 86.1593 142.357 86.01C142.124 85.8607 141.933 85.6693 141.783 85.436C141.643 85.1933 141.573 84.89 141.573 84.526C141.573 84.1993 141.639 83.91 141.769 83.658C141.909 83.406 142.105 83.1913 142.357 83.014C142.609 82.8367 142.913 82.706 143.267 82.622C143.631 82.5287 144.033 82.482 144.471 82.482C144.938 82.482 145.344 82.5333 145.689 82.636C146.044 82.7387 146.338 82.8833 146.571 83.07C146.805 83.2567 146.977 83.4713 147.089 83.714C147.201 83.9473 147.257 84.1993 147.257 84.47C147.257 84.526 147.257 84.582 147.257 84.638C147.257 84.6847 147.253 84.722 147.243 84.75H146.039V84.596C146.039 84.4093 145.988 84.232 145.885 84.064C145.792 83.8867 145.624 83.7467 145.381 83.644C145.148 83.532 144.821 83.476 144.401 83.476C144.131 83.476 143.897 83.4993 143.701 83.546C143.505 83.5833 143.342 83.6487 143.211 83.742C143.081 83.826 142.983 83.9287 142.917 84.05C142.852 84.162 142.819 84.2927 142.819 84.442C142.819 84.6847 142.899 84.8713 143.057 85.002C143.216 85.1327 143.426 85.24 143.687 85.324C143.958 85.408 144.247 85.5013 144.555 85.604C144.882 85.6973 145.213 85.7953 145.549 85.898C145.895 85.9913 146.207 86.1127 146.487 86.262C146.777 86.4113 147.005 86.6167 147.173 86.878C147.351 87.13 147.439 87.466 147.439 87.886C147.439 88.278 147.365 88.6187 147.215 88.908C147.066 89.1973 146.851 89.4353 146.571 89.622C146.301 89.8087 145.979 89.944 145.605 90.028C145.241 90.1213 144.84 90.168 144.401 90.168Z" fill="#3A3A38"/><path d="M16.804 15.168L17.392 12.494H16.258V11.43H17.616L18.092 9.26H16.902V8.196H18.33L18.988 5.228H20.094L19.436 8.196H21.494L22.152 5.228H23.272L22.6 8.196H23.72V9.26H22.39L21.9 11.43H23.09V12.494H21.676L21.088 15.168H19.982L20.57 12.494H18.498L17.924 15.168H16.804ZM18.722 11.43H20.794L21.27 9.26H19.212L18.722 11.43ZM25.1904 15V5.396H31.9944V6.544H26.5204V9.624H31.5044V10.758H26.5204V15H25.1904ZM33.6787 15V5.396H40.4827V6.544H35.0087V9.624H39.9927V10.758H35.0087V15H33.6787ZM42.1669 15V5.396H48.9709V6.544H43.4969V9.624H48.4809V10.758H43.4969V15H42.1669ZM50.6552 15V5.396H57.4592V6.544H51.9852V9.624H56.9692V10.758H51.9852V15H50.6552ZM59.1435 15V5.396H65.9475V6.544H60.4735V9.624H65.4575V10.758H60.4735V15H59.1435ZM67.6317 15V5.396H74.4357V6.544H68.9617V9.624H73.9457V10.758H68.9617V15H67.6317ZM46.0298 35V33.95H48.4518V27.3H46.0158V26.516C46.3612 26.488 46.7158 26.4367 47.0798 26.362C47.4532 26.2873 47.8172 26.1707 48.1718 26.012C48.5265 25.844 48.8485 25.6293 49.1378 25.368H49.6978V33.95H51.9798V35H46.0298ZM56.5086 35.168C55.958 35.168 55.4633 35.0887 55.0246 34.93C54.5953 34.7713 54.2266 34.5147 53.9186 34.16C53.62 33.8053 53.3913 33.3293 53.2326 32.732C53.074 32.1253 52.9946 31.374 52.9946 30.478C52.9946 29.4887 53.074 28.6627 53.2326 28C53.3913 27.328 53.6153 26.7913 53.9046 26.39C54.2033 25.9793 54.5673 25.6853 54.9966 25.508C55.4353 25.3213 55.93 25.228 56.4806 25.228C57.1713 25.228 57.7266 25.3587 58.1466 25.62C58.576 25.8813 58.8886 26.236 59.0846 26.684C59.2806 27.1227 59.3786 27.6267 59.3786 28.196H58.1186C58.1186 27.7667 58.058 27.4073 57.9366 27.118C57.8153 26.8287 57.624 26.614 57.3626 26.474C57.1106 26.334 56.7933 26.264 56.4106 26.264C55.8506 26.264 55.412 26.4133 55.0946 26.712C54.7866 27.0013 54.572 27.426 54.4506 27.986C54.3386 28.546 54.278 29.2133 54.2686 29.988C54.3993 29.7733 54.5813 29.5773 54.8146 29.4C55.0573 29.2227 55.342 29.0827 55.6686 28.98C55.9953 28.868 56.3406 28.812 56.7046 28.812C57.3953 28.812 57.9646 28.952 58.4126 29.232C58.8606 29.5027 59.192 29.876 59.4066 30.352C59.6213 30.828 59.7286 31.36 59.7286 31.948C59.7286 32.592 59.5886 33.1567 59.3086 33.642C59.0286 34.1273 58.646 34.5053 58.1606 34.776C57.6753 35.0373 57.1246 35.168 56.5086 35.168ZM56.4246 34.132C56.882 34.132 57.26 34.034 57.5586 33.838C57.8573 33.6327 58.0766 33.3667 58.2166 33.04C58.366 32.704 58.4406 32.3353 58.4406 31.934C58.4406 31.5513 58.3706 31.2013 58.2306 30.884C58.0906 30.5667 57.8713 30.3147 57.5726 30.128C57.2833 29.932 56.91 29.834 56.4526 29.834C55.9953 29.834 55.6126 29.932 55.3046 30.128C54.9966 30.324 54.768 30.5853 54.6186 30.912C54.4693 31.2293 54.3946 31.5933 54.3946 32.004C54.3946 32.3867 54.4693 32.7413 54.6186 33.068C54.768 33.3947 54.992 33.656 55.2906 33.852C55.5893 34.0387 55.9673 34.132 56.4246 34.132ZM61.216 37.422V27.636H62.196L62.322 28.686H62.42C62.672 28.2753 62.994 27.972 63.386 27.776C63.778 27.5707 64.2213 27.468 64.716 27.468C65.332 27.468 65.8547 27.6033 66.284 27.874C66.7133 28.1447 67.0447 28.5693 67.278 29.148C67.5113 29.7173 67.628 30.4593 67.628 31.374C67.628 32.2327 67.5067 32.9467 67.264 33.516C67.0307 34.076 66.6993 34.4913 66.27 34.762C65.8407 35.0327 65.3413 35.168 64.772 35.168C64.4547 35.168 64.156 35.1307 63.876 35.056C63.596 34.9813 63.344 34.8647 63.12 34.706C62.896 34.538 62.7 34.328 62.532 34.076H62.448V37.422H61.216ZM64.38 34.09C64.8373 34.09 65.2107 34.0013 65.5 33.824C65.7893 33.6373 66.004 33.3527 66.144 32.97C66.284 32.578 66.354 32.0787 66.354 31.472V31.178C66.354 30.534 66.2793 30.0207 66.13 29.638C65.9807 29.246 65.7613 28.966 65.472 28.798C65.192 28.63 64.842 28.546 64.422 28.546C63.9647 28.546 63.5867 28.6487 63.288 28.854C62.9987 29.05 62.784 29.3487 62.644 29.75C62.5133 30.1513 62.448 30.6413 62.448 31.22V31.43C62.448 31.9433 62.4947 32.3727 62.588 32.718C62.6907 33.054 62.8307 33.3247 63.008 33.53C63.1947 33.7353 63.4047 33.88 63.638 33.964C63.8713 34.048 64.1187 34.09 64.38 34.09ZM68.0183 35L70.6643 31.234L68.1443 27.636H69.6283L71.4203 30.268H71.4903L73.2823 27.636H74.6823L72.1623 31.192L74.8223 35H73.3523L71.4203 32.158H71.3503L69.4183 35H68.0183ZM12.2665 55.168C11.7159 55.168 11.2212 55.0887 10.7825 54.93C10.3532 54.7713 9.98454 54.5147 9.67654 54.16C9.37788 53.8053 9.14921 53.3293 8.99054 52.732C8.83188 52.1253 8.75254 51.374 8.75254 50.478C8.75254 49.4887 8.83188 48.6627 8.99054 48C9.14921 47.328 9.37321 46.7913 9.66254 46.39C9.96121 45.9793 10.3252 45.6853 10.7545 45.508C11.1932 45.3213 11.6879 45.228 12.2385 45.228C12.9292 45.228 13.4845 45.3587 13.9045 45.62C14.3339 45.8813 14.6465 46.236 14.8425 46.684C15.0385 47.1227 15.1365 47.6267 15.1365 48.196H13.8765C13.8765 47.7667 13.8159 47.4073 13.6945 47.118C13.5732 46.8287 13.3819 46.614 13.1205 46.474C12.8685 46.334 12.5512 46.264 12.1685 46.264C11.6085 46.264 11.1699 46.4133 10.8525 46.712C10.5445 47.0013 10.3299 47.426 10.2085 47.986C10.0965 48.546 10.0359 49.2133 10.0265 49.988C10.1572 49.7733 10.3392 49.5773 10.5725 49.4C10.8152 49.2227 11.0999 49.0827 11.4265 48.98C11.7532 48.868 12.0985 48.812 12.4625 48.812C13.1532 48.812 13.7225 48.952 14.1705 49.232C14.6185 49.5027 14.9499 49.876 15.1645 50.352C15.3792 50.828 15.4865 51.36 15.4865 51.948C15.4865 52.592 15.3465 53.1567 15.0665 53.642C14.7865 54.1273 14.4039 54.5053 13.9185 54.776C13.4332 55.0373 12.8825 55.168 12.2665 55.168ZM12.1825 54.132C12.6399 54.132 13.0179 54.034 13.3165 53.838C13.6152 53.6327 13.8345 53.3667 13.9745 53.04C14.1239 52.704 14.1985 52.3353 14.1985 51.934C14.1985 51.5513 14.1285 51.2013 13.9885 50.884C13.8485 50.5667 13.6292 50.3147 13.3305 50.128C13.0412 49.932 12.6679 49.834 12.2105 49.834C11.7532 49.834 11.3705 49.932 11.0625 50.128C10.7545 50.324 10.5259 50.5853 10.3765 50.912C10.2272 51.2293 10.1525 51.5933 10.1525 52.004C10.1525 52.3867 10.2272 52.7413 10.3765 53.068C10.5259 53.3947 10.7499 53.656 11.0485 53.852C11.3472 54.0387 11.7252 54.132 12.1825 54.132ZM20.0259 55.168C19.5033 55.168 19.0366 55.0933 18.6259 54.944C18.2153 54.7853 17.8653 54.5193 17.5759 54.146C17.2866 53.7633 17.0673 53.2547 16.9179 52.62C16.7686 51.976 16.6939 51.1687 16.6939 50.198C16.6939 49.2273 16.7686 48.4247 16.9179 47.79C17.0673 47.146 17.2866 46.6373 17.5759 46.264C17.8653 45.8813 18.2153 45.6153 18.6259 45.466C19.0366 45.3073 19.5033 45.228 20.0259 45.228C20.5486 45.228 21.0106 45.3073 21.4119 45.466C21.8226 45.6153 22.1726 45.8813 22.4619 46.264C22.7513 46.6373 22.9706 47.146 23.1199 47.79C23.2693 48.4247 23.3439 49.2273 23.3439 50.198C23.3439 51.1687 23.2693 51.976 23.1199 52.62C22.9706 53.2547 22.7513 53.7633 22.4619 54.146C22.1726 54.5193 21.8226 54.7853 21.4119 54.944C21.0106 55.0933 20.5486 55.168 20.0259 55.168ZM20.0259 54.132C20.5579 54.132 20.9686 53.9967 21.2579 53.726C21.5566 53.4553 21.7619 53.054 21.8739 52.522C21.9953 51.99 22.0559 51.3273 22.0559 50.534V49.89C22.0559 49.0873 21.9953 48.42 21.8739 47.888C21.7619 47.3467 21.5566 46.9407 21.2579 46.67C20.9686 46.3993 20.5579 46.264 20.0259 46.264C19.4939 46.264 19.0786 46.3993 18.7799 46.67C18.4813 46.9407 18.2713 47.342 18.1499 47.874C18.0379 48.406 17.9819 49.0733 17.9819 49.876V50.506C17.9819 51.2993 18.0379 51.9667 18.1499 52.508C18.2713 53.0493 18.4813 53.4553 18.7799 53.726C19.0786 53.9967 19.4939 54.132 20.0259 54.132ZM27.9673 55.168C27.4447 55.168 26.978 55.0933 26.5673 54.944C26.1567 54.7853 25.8067 54.5193 25.5173 54.146C25.228 53.7633 25.0087 53.2547 24.8593 52.62C24.71 51.976 24.6353 51.1687 24.6353 50.198C24.6353 49.2273 24.71 48.4247 24.8593 47.79C25.0087 47.146 25.228 46.6373 25.5173 46.264C25.8067 45.8813 26.1567 45.6153 26.5673 45.466C26.978 45.3073 27.4447 45.228 27.9673 45.228C28.49 45.228 28.952 45.3073 29.3533 45.466C29.764 45.6153 30.114 45.8813 30.4033 46.264C30.6927 46.6373 30.912 47.146 31.0613 47.79C31.2107 48.4247 31.2853 49.2273 31.2853 50.198C31.2853 51.1687 31.2107 51.976 31.0613 52.62C30.912 53.2547 30.6927 53.7633 30.4033 54.146C30.114 54.5193 29.764 54.7853 29.3533 54.944C28.952 55.0933 28.49 55.168 27.9673 55.168ZM27.9673 54.132C28.4993 54.132 28.91 53.9967 29.1993 53.726C29.498 53.4553 29.7033 53.054 29.8153 52.522C29.9367 51.99 29.9973 51.3273 29.9973 50.534V49.89C29.9973 49.0873 29.9367 48.42 29.8153 47.888C29.7033 47.3467 29.498 46.9407 29.1993 46.67C28.91 46.3993 28.4993 46.264 27.9673 46.264C27.4353 46.264 27.02 46.3993 26.7213 46.67C26.4227 46.9407 26.2127 47.342 26.0913 47.874C25.9793 48.406 25.9233 49.0733 25.9233 49.876V50.506C25.9233 51.2993 25.9793 51.9667 26.0913 52.508C26.2127 53.0493 26.4227 53.4553 26.7213 53.726C27.02 53.9967 27.4353 54.132 27.9673 54.132ZM37.1125 55L34.8865 47.636H36.1605L37.2805 51.682C37.3365 51.878 37.3878 52.0927 37.4345 52.326C37.4905 52.55 37.5418 52.76 37.5885 52.956C37.6445 53.1427 37.6818 53.2873 37.7005 53.39H37.7845C37.8218 53.2127 37.8638 53.012 37.9105 52.788C37.9665 52.564 38.0132 52.3493 38.0505 52.144C38.0972 51.9387 38.1345 51.78 38.1625 51.668L39.1705 47.636H40.5005L41.5225 51.668C41.5598 51.8267 41.6018 52.0133 41.6485 52.228C41.6952 52.4333 41.7418 52.6387 41.7885 52.844C41.8445 53.0493 41.8818 53.2313 41.9005 53.39H41.9845C42.0218 53.2407 42.0638 53.068 42.1105 52.872C42.1572 52.6667 42.2085 52.4613 42.2645 52.256C42.3205 52.0413 42.3718 51.8547 42.4185 51.696L43.5245 47.636H44.7005L42.4885 55H41.2285L40.2765 51.192C40.2392 51.0147 40.1925 50.8093 40.1365 50.576C40.0805 50.3333 40.0245 50.0907 39.9685 49.848C39.9218 49.596 39.8798 49.3767 39.8425 49.19H39.7585C39.7398 49.33 39.7072 49.5073 39.6605 49.722C39.6232 49.9367 39.5765 50.1747 39.5205 50.436C39.4645 50.688 39.3992 50.94 39.3245 51.192L38.3725 55H37.1125ZM48.6033 55.168C47.8753 55.168 47.2593 55.0327 46.7553 54.762C46.2607 54.482 45.8827 54.0573 45.6213 53.488C45.3693 52.9187 45.2433 52.1953 45.2433 51.318C45.2433 50.4313 45.3693 49.708 45.6213 49.148C45.8827 48.5787 46.2653 48.1587 46.7693 47.888C47.2733 47.608 47.9033 47.468 48.6593 47.468C49.35 47.468 49.9287 47.6033 50.3953 47.874C50.862 48.1353 51.212 48.532 51.4453 49.064C51.688 49.5867 51.8093 50.2447 51.8093 51.038V51.626H46.5173C46.536 52.214 46.62 52.6993 46.7693 53.082C46.928 53.4553 47.1613 53.7307 47.4693 53.908C47.7773 54.076 48.1647 54.16 48.6313 54.16C48.9487 54.16 49.224 54.1227 49.4573 54.048C49.7 53.964 49.9007 53.8473 50.0593 53.698C50.2273 53.5487 50.3533 53.3713 50.4373 53.166C50.5213 52.9607 50.568 52.7367 50.5773 52.494H51.7813C51.772 52.886 51.6973 53.25 51.5573 53.586C51.4173 53.9127 51.212 54.1927 50.9413 54.426C50.6707 54.6593 50.3393 54.8413 49.9473 54.972C49.5553 55.1027 49.1073 55.168 48.6033 55.168ZM46.5453 50.702H50.5353C50.5353 50.2913 50.4887 49.946 50.3953 49.666C50.302 49.386 50.1667 49.1573 49.9893 48.98C49.8213 48.8027 49.6207 48.6767 49.3873 48.602C49.1633 48.518 48.9067 48.476 48.6173 48.476C48.188 48.476 47.824 48.5553 47.5253 48.714C47.2267 48.8727 46.998 49.1153 46.8393 49.442C46.6807 49.7687 46.5827 50.1887 46.5453 50.702ZM53.2492 46.25V44.878H54.4812V46.25H53.2492ZM53.2492 55V47.636H54.4812V55H53.2492ZM57.5558 57.548C57.2011 57.548 56.8744 57.4733 56.5758 57.324C56.2771 57.184 56.0391 56.9787 55.8618 56.708C55.6844 56.4373 55.5958 56.1153 55.5958 55.742C55.5958 55.3313 55.7078 54.9907 55.9318 54.72C56.1651 54.4493 56.4404 54.2487 56.7578 54.118C56.5244 54.006 56.3424 53.852 56.2118 53.656C56.0811 53.4507 56.0158 53.2267 56.0158 52.984C56.0158 52.6573 56.1324 52.382 56.3658 52.158C56.6084 51.934 56.9024 51.7847 57.2478 51.71C56.9304 51.5047 56.6784 51.2433 56.4918 50.926C56.3144 50.5993 56.2258 50.24 56.2258 49.848C56.2258 49.3813 56.3331 48.9707 56.5478 48.616C56.7718 48.2613 57.1078 47.9813 57.5558 47.776C58.0131 47.5707 58.5684 47.468 59.2218 47.468C59.5204 47.468 59.8004 47.4913 60.0618 47.538C60.3231 47.5753 60.5564 47.6407 60.7618 47.734C61.0884 47.5847 61.3311 47.3933 61.4898 47.16C61.6578 46.9267 61.7604 46.6887 61.7978 46.446H63.0158C63.0158 46.726 62.9504 46.992 62.8198 47.244C62.6984 47.4867 62.5304 47.692 62.3158 47.86C62.1011 48.0187 61.8398 48.126 61.5318 48.182C61.7651 48.406 61.9378 48.658 62.0498 48.938C62.1711 49.218 62.2318 49.5213 62.2318 49.848C62.2318 50.3147 62.1198 50.73 61.8958 51.094C61.6811 51.4487 61.3544 51.7287 60.9158 51.934C60.4771 52.1393 59.9264 52.242 59.2638 52.242H58.1158C57.8638 52.242 57.6584 52.2933 57.4998 52.396C57.3411 52.4893 57.2618 52.6433 57.2618 52.858C57.2618 53.0447 57.3411 53.1987 57.4998 53.32C57.6584 53.432 57.8638 53.488 58.1158 53.488H61.1118C61.6531 53.488 62.0964 53.67 62.4418 54.034C62.7871 54.3887 62.9598 54.846 62.9598 55.406C62.9598 55.8073 62.8571 56.1667 62.6518 56.484C62.4558 56.8107 62.1758 57.0673 61.8118 57.254C61.4571 57.45 61.0418 57.548 60.5658 57.548H57.5558ZM57.9058 56.61H60.5518C60.7664 56.61 60.9624 56.5633 61.1398 56.47C61.3171 56.386 61.4571 56.2647 61.5598 56.106C61.6624 55.9473 61.7138 55.7747 61.7138 55.588C61.7138 55.2707 61.6204 55.0187 61.4338 54.832C61.2471 54.6453 61.0138 54.552 60.7338 54.552H57.9058C57.6071 54.552 57.3551 54.6547 57.1498 54.86C56.9444 55.056 56.8418 55.2987 56.8418 55.588C56.8418 55.896 56.9444 56.1433 57.1498 56.33C57.3551 56.5167 57.6071 56.61 57.9058 56.61ZM59.2358 51.318C59.8331 51.318 60.2764 51.1873 60.5658 50.926C60.8551 50.6647 60.9998 50.3053 60.9998 49.848C60.9998 49.4 60.8551 49.0453 60.5658 48.784C60.2764 48.5227 59.8331 48.392 59.2358 48.392C58.6384 48.392 58.1904 48.5227 57.8918 48.784C57.6024 49.0453 57.4578 49.4 57.4578 49.848C57.4578 50.1373 57.5231 50.394 57.6538 50.618C57.7844 50.842 57.9804 51.0147 58.2418 51.136C58.5031 51.2573 58.8344 51.318 59.2358 51.318ZM64.0051 55V44.878H65.2371V48.56H65.3351C65.5217 48.308 65.7317 48.1027 65.9651 47.944C66.1984 47.7853 66.4551 47.6687 66.7351 47.594C67.0244 47.51 67.3371 47.468 67.6731 47.468C68.1397 47.468 68.5457 47.5473 68.8911 47.706C69.2457 47.8647 69.5211 48.1213 69.7171 48.476C69.9224 48.8307 70.0251 49.3113 70.0251 49.918V55H68.7931V50.086C68.7931 49.778 68.7511 49.526 68.6671 49.33C68.5924 49.134 68.4851 48.98 68.3451 48.868C68.2144 48.756 68.0511 48.6767 67.8551 48.63C67.6684 48.5833 67.4584 48.56 67.2251 48.56C66.8797 48.56 66.5531 48.644 66.2451 48.812C65.9371 48.9707 65.6897 49.2087 65.5031 49.526C65.3257 49.834 65.2371 50.2167 65.2371 50.674V55H64.0051ZM73.5318 55.168C73.1491 55.168 72.8504 55.098 72.6358 54.958C72.4211 54.8087 72.2671 54.6173 72.1738 54.384C72.0804 54.1413 72.0338 53.8847 72.0338 53.614V48.672H71.0818V47.636H72.0618L72.2858 45.578H73.2658V47.636H74.6518V48.672H73.2658V53.432C73.2658 53.6653 73.3078 53.8427 73.3918 53.964C73.4758 54.076 73.6344 54.132 73.8678 54.132H74.6518V54.944C74.5584 54.9907 74.4464 55.028 74.3158 55.056C74.1851 55.084 74.0498 55.1073 73.9098 55.126C73.7791 55.154 73.6531 55.168 73.5318 55.168Z" fill="#3A3A38"/><line x1="117.5" y1="55" x2="117.5" y2="74.799" stroke="#3A3A38"/><line x1="89" y1="33.5" x2="132" y2="33.5" stroke="#3A3A38"/><line x1="190.76" y1="49.052" x2="219.76" y2="78.052" stroke="#3A3A38"/><line x1="199" y1="23.5" x2="242" y2="23.5" stroke="#3A3A38"/></svg>