<svg width="389" height="155" viewBox="0 0 389 155" fill="none" xmlns="http://www.w3.org/2000/svg"><path d="M0.882 85.168L1.47 82.494H0.336V81.43H1.694L2.17 79.26H0.98V78.196H2.408L3.066 75.228H4.172L3.514 78.196H5.572L6.23 75.228H7.35L6.678 78.196H7.798V79.26H6.468L5.978 81.43H7.168V82.494H5.754L5.166 85.168H4.06L4.648 82.494H2.576L2.002 85.168H0.882ZM2.8 81.43H4.872L5.348 79.26H3.29L2.8 81.43ZM9.00244 85V83.95H11.4244V77.3H8.98844V76.516C9.33377 76.488 9.68844 76.4367 10.0524 76.362C10.4258 76.2873 10.7898 76.1707 11.1444 76.012C11.4991 75.844 11.8211 75.6293 12.1104 75.368H12.6704V83.95H14.9524V85H9.00244ZM15.9812 85V84.594C15.9812 84.202 16.0559 83.8427 16.2052 83.516C16.3639 83.18 16.5692 82.8767 16.8212 82.606C17.0826 82.326 17.3766 82.06 17.7032 81.808C18.0299 81.556 18.3612 81.3087 18.6972 81.066C19.1546 80.7487 19.5746 80.4313 19.9572 80.114C20.3492 79.7967 20.6619 79.456 20.8952 79.092C21.1286 78.7187 21.2452 78.3033 21.2452 77.846C21.2452 77.5567 21.1752 77.2953 21.0352 77.062C20.9046 76.8193 20.7039 76.628 20.4332 76.488C20.1626 76.348 19.8172 76.278 19.3972 76.278C18.9026 76.278 18.5059 76.362 18.2072 76.53C17.9086 76.698 17.6892 76.922 17.5492 77.202C17.4186 77.482 17.3532 77.79 17.3532 78.126V78.7H16.1352C16.1259 78.6533 16.1166 78.5833 16.1072 78.49C16.0979 78.3873 16.0932 78.2707 16.0932 78.14C16.0932 77.4493 16.2472 76.894 16.5552 76.474C16.8632 76.0447 17.2739 75.732 17.7872 75.536C18.3006 75.3307 18.8559 75.228 19.4532 75.228C19.9852 75.228 20.4426 75.3027 20.8252 75.452C21.2079 75.592 21.5252 75.788 21.7772 76.04C22.0292 76.292 22.2159 76.5813 22.3372 76.908C22.4586 77.2253 22.5192 77.5613 22.5192 77.916C22.5192 78.3547 22.4399 78.756 22.2812 79.12C22.1319 79.484 21.9172 79.8247 21.6372 80.142C21.3666 80.45 21.0446 80.7487 20.6712 81.038C20.3072 81.3273 19.9106 81.6213 19.4812 81.92C19.1826 82.116 18.8886 82.326 18.5992 82.55C18.3099 82.7647 18.0626 82.984 17.8572 83.208C17.6519 83.432 17.5212 83.6467 17.4652 83.852H22.5752V85H15.9812ZM25.1706 85C25.1706 84.132 25.2826 83.2967 25.5066 82.494C25.7306 81.6913 26.0199 80.9307 26.3746 80.212C26.7386 79.4933 27.1352 78.826 27.5646 78.21C27.9939 77.594 28.4139 77.0387 28.8246 76.544H23.6866V75.396H30.4486V76.166C30.1032 76.5673 29.7439 77.0153 29.3706 77.51C29.0066 77.9953 28.6566 78.5133 28.3206 79.064C27.9846 79.6053 27.6812 80.17 27.4106 80.758C27.1399 81.346 26.9252 81.9433 26.7666 82.55C26.6079 83.1473 26.5286 83.7447 26.5286 84.342V85H25.1706ZM35.6529 85V82.648H31.1869V81.612C31.5789 80.94 31.9335 80.2633 32.2509 79.582C32.5775 78.9007 32.8669 78.2007 33.1189 77.482C33.3802 76.7633 33.5949 76.012 33.7629 75.228H35.0789C34.9575 75.7413 34.8082 76.2687 34.6309 76.81C34.4535 77.342 34.2575 77.86 34.0429 78.364C33.8282 78.868 33.6135 79.3393 33.3989 79.778C33.1935 80.2167 32.9975 80.5947 32.8109 80.912C32.6335 81.2293 32.4889 81.4627 32.3769 81.612H35.6529V78.56C35.7089 78.4107 35.7649 78.2567 35.8209 78.098C35.8862 77.93 35.9469 77.762 36.0029 77.594C36.0589 77.4167 36.1102 77.2533 36.1569 77.104C36.2035 76.9453 36.2409 76.796 36.2689 76.656H36.8849V81.612H38.1589V82.648H36.8849V85H35.6529ZM42.4945 85.168C41.9718 85.168 41.5052 85.0933 41.0945 84.944C40.6838 84.7853 40.3338 84.5193 40.0445 84.146C39.7552 83.7633 39.5358 83.2547 39.3865 82.62C39.2372 81.976 39.1625 81.1687 39.1625 80.198C39.1625 79.2273 39.2372 78.4247 39.3865 77.79C39.5358 77.146 39.7552 76.6373 40.0445 76.264C40.3338 75.8813 40.6838 75.6153 41.0945 75.466C41.5052 75.3073 41.9718 75.228 42.4945 75.228C43.0172 75.228 43.4792 75.3073 43.8805 75.466C44.2912 75.6153 44.6412 75.8813 44.9305 76.264C45.2198 76.6373 45.4392 77.146 45.5885 77.79C45.7378 78.4247 45.8125 79.2273 45.8125 80.198C45.8125 81.1687 45.7378 81.976 45.5885 82.62C45.4392 83.2547 45.2198 83.7633 44.9305 84.146C44.6412 84.5193 44.2912 84.7853 43.8805 84.944C43.4792 85.0933 43.0172 85.168 42.4945 85.168ZM42.4945 84.132C43.0265 84.132 43.4372 83.9967 43.7265 83.726C44.0252 83.4553 44.2305 83.054 44.3425 82.522C44.4638 81.99 44.5245 81.3273 44.5245 80.534V79.89C44.5245 79.0873 44.4638 78.42 44.3425 77.888C44.2305 77.3467 44.0252 76.9407 43.7265 76.67C43.4372 76.3993 43.0265 76.264 42.4945 76.264C41.9625 76.264 41.5472 76.3993 41.2485 76.67C40.9498 76.9407 40.7398 77.342 40.6185 77.874C40.5065 78.406 40.4505 79.0733 40.4505 79.876V80.506C40.4505 81.2993 40.5065 81.9667 40.6185 82.508C40.7398 83.0493 40.9498 83.4553 41.2485 83.726C41.5472 83.9967 41.9625 84.132 42.4945 84.132ZM50.4359 85.168C49.9132 85.168 49.4465 85.0933 49.0359 84.944C48.6252 84.7853 48.2752 84.5193 47.9859 84.146C47.6965 83.7633 47.4772 83.2547 47.3279 82.62C47.1785 81.976 47.1039 81.1687 47.1039 80.198C47.1039 79.2273 47.1785 78.4247 47.3279 77.79C47.4772 77.146 47.6965 76.6373 47.9859 76.264C48.2752 75.8813 48.6252 75.6153 49.0359 75.466C49.4465 75.3073 49.9132 75.228 50.4359 75.228C50.9585 75.228 51.4205 75.3073 51.8219 75.466C52.2325 75.6153 52.5825 75.8813 52.8719 76.264C53.1612 76.6373 53.3805 77.146 53.5299 77.79C53.6792 78.4247 53.7539 79.2273 53.7539 80.198C53.7539 81.1687 53.6792 81.976 53.5299 82.62C53.3805 83.2547 53.1612 83.7633 52.8719 84.146C52.5825 84.5193 52.2325 84.7853 51.8219 84.944C51.4205 85.0933 50.9585 85.168 50.4359 85.168ZM50.4359 84.132C50.9679 84.132 51.3785 83.9967 51.6679 83.726C51.9665 83.4553 52.1719 83.054 52.2839 82.522C52.4052 81.99 52.4659 81.3273 52.4659 80.534V79.89C52.4659 79.0873 52.4052 78.42 52.2839 77.888C52.1719 77.3467 51.9665 76.9407 51.6679 76.67C51.3785 76.3993 50.9679 76.264 50.4359 76.264C49.9039 76.264 49.4885 76.3993 49.1899 76.67C48.8912 76.9407 48.6812 77.342 48.5599 77.874C48.4479 78.406 48.3919 79.0733 48.3919 79.876V80.506C48.3919 81.2993 48.4479 81.9667 48.5599 82.508C48.6812 83.0493 48.8912 83.4553 49.1899 83.726C49.4885 83.9967 49.9039 84.132 50.4359 84.132Z" fill="#272433"/><line x1="67" y1="79.5" x2="111" y2="79.5" stroke="#272433"/><path d="M67.882 146.168L68.47 143.494H67.336V142.43H68.694L69.17 140.26H67.98V139.196H69.408L70.066 136.228H71.172L70.514 139.196H72.572L73.23 136.228H74.35L73.678 139.196H74.798V140.26H73.468L72.978 142.43H74.168V143.494H72.754L72.166 146.168H71.06L71.648 143.494H69.576L69.002 146.168H67.882ZM69.8 142.43H71.872L72.348 140.26H70.29L69.8 142.43ZM76.2684 146V136.396H83.0724V137.544H77.5984V140.624H82.5824V141.758H77.5984V146H76.2684ZM84.7567 146V136.396H91.5607V137.544H86.0867V140.624H91.0707V141.758H86.0867V146H84.7567ZM93.245 146V136.396H100.049V137.544H94.575V140.624H99.559V141.758H94.575V146H93.245ZM101.733 146V136.396H108.537V137.544H103.063V140.624H108.047V141.758H103.063V146H101.733ZM110.222 146V136.396H117.026V137.544H111.552V140.624H116.536V141.758H111.552V146H110.222ZM118.71 146V136.396H125.514V137.544H120.04V140.624H125.024V141.758H120.04V146H118.71Z" fill="#272433"/><line x1="138.646" y1="136.759" x2="169.759" y2="105.647" stroke="#272433"/><path d="M239.882 146.168L240.47 143.494H239.336V142.43H240.694L241.17 140.26H239.98V139.196H241.408L242.066 136.228H243.172L242.514 139.196H244.572L245.23 136.228H246.35L245.678 139.196H246.798V140.26H245.468L244.978 142.43H246.168V143.494H244.754L244.166 146.168H243.06L243.648 143.494H241.576L241.002 146.168H239.882ZM241.8 142.43H243.872L244.348 140.26H242.29L241.8 142.43ZM247.764 146V145.594C247.764 145.202 247.839 144.843 247.988 144.516C248.147 144.18 248.352 143.877 248.604 143.606C248.866 143.326 249.16 143.06 249.486 142.808C249.813 142.556 250.144 142.309 250.48 142.066C250.938 141.749 251.358 141.431 251.74 141.114C252.132 140.797 252.445 140.456 252.678 140.092C252.912 139.719 253.028 139.303 253.028 138.846C253.028 138.557 252.958 138.295 252.818 138.062C252.688 137.819 252.487 137.628 252.216 137.488C251.946 137.348 251.6 137.278 251.18 137.278C250.686 137.278 250.289 137.362 249.99 137.53C249.692 137.698 249.472 137.922 249.332 138.202C249.202 138.482 249.136 138.79 249.136 139.126V139.7H247.918C247.909 139.653 247.9 139.583 247.89 139.49C247.881 139.387 247.876 139.271 247.876 139.14C247.876 138.449 248.03 137.894 248.338 137.474C248.646 137.045 249.057 136.732 249.57 136.536C250.084 136.331 250.639 136.228 251.236 136.228C251.768 136.228 252.226 136.303 252.608 136.452C252.991 136.592 253.308 136.788 253.56 137.04C253.812 137.292 253.999 137.581 254.12 137.908C254.242 138.225 254.302 138.561 254.302 138.916C254.302 139.355 254.223 139.756 254.064 140.12C253.915 140.484 253.7 140.825 253.42 141.142C253.15 141.45 252.828 141.749 252.454 142.038C252.09 142.327 251.694 142.621 251.264 142.92C250.966 143.116 250.672 143.326 250.382 143.55C250.093 143.765 249.846 143.984 249.64 144.208C249.435 144.432 249.304 144.647 249.248 144.852H254.358V146H247.764ZM259.124 146.168C258.573 146.168 258.078 146.089 257.64 145.93C257.21 145.771 256.842 145.515 256.534 145.16C256.235 144.805 256.006 144.329 255.848 143.732C255.689 143.125 255.61 142.374 255.61 141.478C255.61 140.489 255.689 139.663 255.848 139C256.006 138.328 256.23 137.791 256.52 137.39C256.818 136.979 257.182 136.685 257.612 136.508C258.05 136.321 258.545 136.228 259.096 136.228C259.786 136.228 260.342 136.359 260.762 136.62C261.191 136.881 261.504 137.236 261.7 137.684C261.896 138.123 261.994 138.627 261.994 139.196H260.734C260.734 138.767 260.673 138.407 260.552 138.118C260.43 137.829 260.239 137.614 259.978 137.474C259.726 137.334 259.408 137.264 259.026 137.264C258.466 137.264 258.027 137.413 257.71 137.712C257.402 138.001 257.187 138.426 257.066 138.986C256.954 139.546 256.893 140.213 256.884 140.988C257.014 140.773 257.196 140.577 257.43 140.4C257.672 140.223 257.957 140.083 258.284 139.98C258.61 139.868 258.956 139.812 259.32 139.812C260.01 139.812 260.58 139.952 261.028 140.232C261.476 140.503 261.807 140.876 262.022 141.352C262.236 141.828 262.344 142.36 262.344 142.948C262.344 143.592 262.204 144.157 261.924 144.642C261.644 145.127 261.261 145.505 260.776 145.776C260.29 146.037 259.74 146.168 259.124 146.168ZM259.04 145.132C259.497 145.132 259.875 145.034 260.174 144.838C260.472 144.633 260.692 144.367 260.832 144.04C260.981 143.704 261.056 143.335 261.056 142.934C261.056 142.551 260.986 142.201 260.846 141.884C260.706 141.567 260.486 141.315 260.188 141.128C259.898 140.932 259.525 140.834 259.068 140.834C258.61 140.834 258.228 140.932 257.92 141.128C257.612 141.324 257.383 141.585 257.234 141.912C257.084 142.229 257.01 142.593 257.01 143.004C257.01 143.387 257.084 143.741 257.234 144.068C257.383 144.395 257.607 144.656 257.906 144.852C258.204 145.039 258.582 145.132 259.04 145.132ZM263.565 146V145.594C263.565 145.202 263.64 144.843 263.789 144.516C263.948 144.18 264.153 143.877 264.405 143.606C264.667 143.326 264.961 143.06 265.287 142.808C265.614 142.556 265.945 142.309 266.281 142.066C266.739 141.749 267.159 141.431 267.541 141.114C267.933 140.797 268.246 140.456 268.479 140.092C268.713 139.719 268.829 139.303 268.829 138.846C268.829 138.557 268.759 138.295 268.619 138.062C268.489 137.819 268.288 137.628 268.017 137.488C267.747 137.348 267.401 137.278 266.981 137.278C266.487 137.278 266.09 137.362 265.791 137.53C265.493 137.698 265.273 137.922 265.133 138.202C265.003 138.482 264.937 138.79 264.937 139.126V139.7H263.719C263.71 139.653 263.701 139.583 263.691 139.49C263.682 139.387 263.677 139.271 263.677 139.14C263.677 138.449 263.831 137.894 264.139 137.474C264.447 137.045 264.858 136.732 265.371 136.536C265.885 136.331 266.44 136.228 267.037 136.228C267.569 136.228 268.027 136.303 268.409 136.452C268.792 136.592 269.109 136.788 269.361 137.04C269.613 137.292 269.8 137.581 269.921 137.908C270.043 138.225 270.103 138.561 270.103 138.916C270.103 139.355 270.024 139.756 269.865 140.12C269.716 140.484 269.501 140.825 269.221 141.142C268.951 141.45 268.629 141.749 268.255 142.038C267.891 142.327 267.495 142.621 267.065 142.92C266.767 143.116 266.473 143.326 266.183 143.55C265.894 143.765 265.647 143.984 265.441 144.208C265.236 144.432 265.105 144.647 265.049 144.852H270.159V146H263.565ZM274.785 146.168C274.113 146.168 273.525 146.042 273.021 145.79C272.517 145.538 272.125 145.179 271.845 144.712C271.565 144.236 271.425 143.671 271.425 143.018H272.671C272.671 143.457 272.764 143.835 272.951 144.152C273.137 144.469 273.389 144.712 273.707 144.88C274.033 145.048 274.393 145.132 274.785 145.132C275.186 145.132 275.541 145.053 275.849 144.894C276.157 144.726 276.395 144.474 276.563 144.138C276.74 143.802 276.829 143.377 276.829 142.864C276.829 142.397 276.749 142.015 276.591 141.716C276.432 141.408 276.203 141.179 275.905 141.03C275.615 140.881 275.279 140.806 274.897 140.806C274.617 140.806 274.351 140.853 274.099 140.946C273.847 141.03 273.618 141.151 273.413 141.31C273.217 141.469 273.053 141.665 272.923 141.898L271.761 141.716L272.167 136.396H277.613V137.544H273.245L273.021 140.54C273.179 140.4 273.357 140.274 273.553 140.162C273.758 140.041 273.991 139.947 274.253 139.882C274.514 139.807 274.813 139.77 275.149 139.77C275.699 139.77 276.199 139.877 276.647 140.092C277.095 140.307 277.449 140.638 277.711 141.086C277.972 141.534 278.103 142.113 278.103 142.822C278.103 143.522 277.967 144.124 277.697 144.628C277.435 145.132 277.057 145.515 276.563 145.776C276.068 146.037 275.475 146.168 274.785 146.168ZM279.339 146V145.594C279.339 145.202 279.413 144.843 279.563 144.516C279.721 144.18 279.927 143.877 280.179 143.606C280.44 143.326 280.734 143.06 281.061 142.808C281.387 142.556 281.719 142.309 282.055 142.066C282.512 141.749 282.932 141.431 283.315 141.114C283.707 140.797 284.019 140.456 284.253 140.092C284.486 139.719 284.603 139.303 284.603 138.846C284.603 138.557 284.533 138.295 284.393 138.062C284.262 137.819 284.061 137.628 283.791 137.488C283.52 137.348 283.175 137.278 282.755 137.278C282.26 137.278 281.863 137.362 281.565 137.53C281.266 137.698 281.047 137.922 280.907 138.202C280.776 138.482 280.711 138.79 280.711 139.126V139.7H279.493C279.483 139.653 279.474 139.583 279.465 139.49C279.455 139.387 279.451 139.271 279.451 139.14C279.451 138.449 279.605 137.894 279.913 137.474C280.221 137.045 280.631 136.732 281.145 136.536C281.658 136.331 282.213 136.228 282.811 136.228C283.343 136.228 283.8 136.303 284.183 136.452C284.565 136.592 284.883 136.788 285.135 137.04C285.387 137.292 285.573 137.581 285.695 137.908C285.816 138.225 285.877 138.561 285.877 138.916C285.877 139.355 285.797 139.756 285.639 140.12C285.489 140.484 285.275 140.825 284.995 141.142C284.724 141.45 284.402 141.749 284.029 142.038C283.665 142.327 283.268 142.621 282.839 142.92C282.54 143.116 282.246 143.326 281.957 143.55C281.667 143.765 281.42 143.984 281.215 144.208C281.009 144.432 280.879 144.647 280.823 144.852H285.933V146H279.339ZM286.596 146L290.39 136.396H292.14L295.948 146H294.506L293.568 143.62H288.892L287.968 146H286.596ZM289.326 142.486H293.12L291.958 139.476C291.93 139.392 291.888 139.275 291.832 139.126C291.776 138.977 291.715 138.813 291.65 138.636C291.585 138.449 291.519 138.263 291.454 138.076C291.389 137.88 291.328 137.703 291.272 137.544H291.188C291.123 137.731 291.048 137.945 290.964 138.188C290.88 138.431 290.796 138.669 290.712 138.902C290.628 139.126 290.558 139.317 290.502 139.476L289.326 142.486Z" fill="#272433"/><path d="M259.882 15.168L260.47 12.494H259.336V11.43H260.694L261.17 9.26H259.98V8.196H261.408L262.066 5.228H263.172L262.514 8.196H264.572L265.23 5.228H266.35L265.678 8.196H266.798V9.26H265.468L264.978 11.43H266.168V12.494H264.754L264.166 15.168H263.06L263.648 12.494H261.576L261.002 15.168H259.882ZM261.8 11.43H263.872L264.348 9.26H262.29L261.8 11.43ZM267.764 15V14.594C267.764 14.202 267.839 13.8427 267.988 13.516C268.147 13.18 268.352 12.8767 268.604 12.606C268.866 12.326 269.16 12.06 269.486 11.808C269.813 11.556 270.144 11.3087 270.48 11.066C270.938 10.7487 271.358 10.4313 271.74 10.114C272.132 9.79667 272.445 9.456 272.678 9.092C272.912 8.71867 273.028 8.30333 273.028 7.846C273.028 7.55667 272.958 7.29533 272.818 7.062C272.688 6.81933 272.487 6.628 272.216 6.488C271.946 6.348 271.6 6.278 271.18 6.278C270.686 6.278 270.289 6.362 269.99 6.53C269.692 6.698 269.472 6.922 269.332 7.202C269.202 7.482 269.136 7.79 269.136 8.126V8.7H267.918C267.909 8.65333 267.9 8.58333 267.89 8.49C267.881 8.38733 267.876 8.27067 267.876 8.14C267.876 7.44933 268.03 6.894 268.338 6.474C268.646 6.04467 269.057 5.732 269.57 5.536C270.084 5.33067 270.639 5.228 271.236 5.228C271.768 5.228 272.226 5.30267 272.608 5.452C272.991 5.592 273.308 5.788 273.56 6.04C273.812 6.292 273.999 6.58133 274.12 6.908C274.242 7.22533 274.302 7.56133 274.302 7.916C274.302 8.35467 274.223 8.756 274.064 9.12C273.915 9.484 273.7 9.82467 273.42 10.142C273.15 10.45 272.828 10.7487 272.454 11.038C272.09 11.3273 271.694 11.6213 271.264 11.92C270.966 12.116 270.672 12.326 270.382 12.55C270.093 12.7647 269.846 12.984 269.64 13.208C269.435 13.432 269.304 13.6467 269.248 13.852H274.358V15H267.764ZM279.124 15.168C278.573 15.168 278.078 15.0887 277.64 14.93C277.21 14.7713 276.842 14.5147 276.534 14.16C276.235 13.8053 276.006 13.3293 275.848 12.732C275.689 12.1253 275.61 11.374 275.61 10.478C275.61 9.48867 275.689 8.66267 275.848 8C276.006 7.328 276.23 6.79133 276.52 6.39C276.818 5.97933 277.182 5.68533 277.612 5.508C278.05 5.32133 278.545 5.228 279.096 5.228C279.786 5.228 280.342 5.35867 280.762 5.62C281.191 5.88133 281.504 6.236 281.7 6.684C281.896 7.12267 281.994 7.62667 281.994 8.196H280.734C280.734 7.76667 280.673 7.40733 280.552 7.118C280.43 6.82867 280.239 6.614 279.978 6.474C279.726 6.334 279.408 6.264 279.026 6.264C278.466 6.264 278.027 6.41333 277.71 6.712C277.402 7.00133 277.187 7.426 277.066 7.986C276.954 8.546 276.893 9.21333 276.884 9.988C277.014 9.77333 277.196 9.57733 277.43 9.4C277.672 9.22267 277.957 9.08267 278.284 8.98C278.61 8.868 278.956 8.812 279.32 8.812C280.01 8.812 280.58 8.952 281.028 9.232C281.476 9.50267 281.807 9.876 282.022 10.352C282.236 10.828 282.344 11.36 282.344 11.948C282.344 12.592 282.204 13.1567 281.924 13.642C281.644 14.1273 281.261 14.5053 280.776 14.776C280.29 15.0373 279.74 15.168 279.124 15.168ZM279.04 14.132C279.497 14.132 279.875 14.034 280.174 13.838C280.472 13.6327 280.692 13.3667 280.832 13.04C280.981 12.704 281.056 12.3353 281.056 11.934C281.056 11.5513 280.986 11.2013 280.846 10.884C280.706 10.5667 280.486 10.3147 280.188 10.128C279.898 9.932 279.525 9.834 279.068 9.834C278.61 9.834 278.228 9.932 277.92 10.128C277.612 10.324 277.383 10.5853 277.234 10.912C277.084 11.2293 277.01 11.5933 277.01 12.004C277.01 12.3867 277.084 12.7413 277.234 13.068C277.383 13.3947 277.607 13.656 277.906 13.852C278.204 14.0387 278.582 14.132 279.04 14.132ZM283.565 15V14.594C283.565 14.202 283.64 13.8427 283.789 13.516C283.948 13.18 284.153 12.8767 284.405 12.606C284.667 12.326 284.961 12.06 285.287 11.808C285.614 11.556 285.945 11.3087 286.281 11.066C286.739 10.7487 287.159 10.4313 287.541 10.114C287.933 9.79667 288.246 9.456 288.479 9.092C288.713 8.71867 288.829 8.30333 288.829 7.846C288.829 7.55667 288.759 7.29533 288.619 7.062C288.489 6.81933 288.288 6.628 288.017 6.488C287.747 6.348 287.401 6.278 286.981 6.278C286.487 6.278 286.09 6.362 285.791 6.53C285.493 6.698 285.273 6.922 285.133 7.202C285.003 7.482 284.937 7.79 284.937 8.126V8.7H283.719C283.71 8.65333 283.701 8.58333 283.691 8.49C283.682 8.38733 283.677 8.27067 283.677 8.14C283.677 7.44933 283.831 6.894 284.139 6.474C284.447 6.04467 284.858 5.732 285.371 5.536C285.885 5.33067 286.44 5.228 287.037 5.228C287.569 5.228 288.027 5.30267 288.409 5.452C288.792 5.592 289.109 5.788 289.361 6.04C289.613 6.292 289.8 6.58133 289.921 6.908C290.043 7.22533 290.103 7.56133 290.103 7.916C290.103 8.35467 290.024 8.756 289.865 9.12C289.716 9.484 289.501 9.82467 289.221 10.142C288.951 10.45 288.629 10.7487 288.255 11.038C287.891 11.3273 287.495 11.6213 287.065 11.92C286.767 12.116 286.473 12.326 286.183 12.55C285.894 12.7647 285.647 12.984 285.441 13.208C285.236 13.432 285.105 13.6467 285.049 13.852H290.159V15H283.565ZM294.785 15.168C294.113 15.168 293.525 15.042 293.021 14.79C292.517 14.538 292.125 14.1787 291.845 13.712C291.565 13.236 291.425 12.6713 291.425 12.018H292.671C292.671 12.4567 292.764 12.8347 292.951 13.152C293.137 13.4693 293.389 13.712 293.707 13.88C294.033 14.048 294.393 14.132 294.785 14.132C295.186 14.132 295.541 14.0527 295.849 13.894C296.157 13.726 296.395 13.474 296.563 13.138C296.74 12.802 296.829 12.3773 296.829 11.864C296.829 11.3973 296.749 11.0147 296.591 10.716C296.432 10.408 296.203 10.1793 295.905 10.03C295.615 9.88067 295.279 9.806 294.897 9.806C294.617 9.806 294.351 9.85267 294.099 9.946C293.847 10.03 293.618 10.1513 293.413 10.31C293.217 10.4687 293.053 10.6647 292.923 10.898L291.761 10.716L292.167 5.396H297.613V6.544H293.245L293.021 9.54C293.179 9.4 293.357 9.274 293.553 9.162C293.758 9.04067 293.991 8.94733 294.253 8.882C294.514 8.80733 294.813 8.77 295.149 8.77C295.699 8.77 296.199 8.87733 296.647 9.092C297.095 9.30667 297.449 9.638 297.711 10.086C297.972 10.534 298.103 11.1127 298.103 11.822C298.103 12.522 297.967 13.124 297.697 13.628C297.435 14.132 297.057 14.5147 296.563 14.776C296.068 15.0373 295.475 15.168 294.785 15.168ZM299.339 15V14.594C299.339 14.202 299.413 13.8427 299.563 13.516C299.721 13.18 299.927 12.8767 300.179 12.606C300.44 12.326 300.734 12.06 301.061 11.808C301.387 11.556 301.719 11.3087 302.055 11.066C302.512 10.7487 302.932 10.4313 303.315 10.114C303.707 9.79667 304.019 9.456 304.253 9.092C304.486 8.71867 304.603 8.30333 304.603 7.846C304.603 7.55667 304.533 7.29533 304.393 7.062C304.262 6.81933 304.061 6.628 303.791 6.488C303.52 6.348 303.175 6.278 302.755 6.278C302.26 6.278 301.863 6.362 301.565 6.53C301.266 6.698 301.047 6.922 300.907 7.202C300.776 7.482 300.711 7.79 300.711 8.126V8.7H299.493C299.483 8.65333 299.474 8.58333 299.465 8.49C299.455 8.38733 299.451 8.27067 299.451 8.14C299.451 7.44933 299.605 6.894 299.913 6.474C300.221 6.04467 300.631 5.732 301.145 5.536C301.658 5.33067 302.213 5.228 302.811 5.228C303.343 5.228 303.8 5.30267 304.183 5.452C304.565 5.592 304.883 5.788 305.135 6.04C305.387 6.292 305.573 6.58133 305.695 6.908C305.816 7.22533 305.877 7.56133 305.877 7.916C305.877 8.35467 305.797 8.756 305.639 9.12C305.489 9.484 305.275 9.82467 304.995 10.142C304.724 10.45 304.402 10.7487 304.029 11.038C303.665 11.3273 303.268 11.6213 302.839 11.92C302.54 12.116 302.246 12.326 301.957 12.55C301.667 12.7647 301.42 12.984 301.215 13.208C301.009 13.432 300.879 13.6467 300.823 13.852H305.933V15H299.339ZM306.596 15L310.39 5.396H312.14L315.948 15H314.506L313.568 12.62H308.892L307.968 15H306.596ZM309.326 11.486H313.12L311.958 8.476C311.93 8.392 311.888 8.27533 311.832 8.126C311.776 7.97667 311.715 7.81333 311.65 7.636C311.585 7.44933 311.519 7.26267 311.454 7.076C311.389 6.88 311.328 6.70267 311.272 6.544H311.188C311.123 6.73067 311.048 6.94533 310.964 7.188C310.88 7.43067 310.796 7.66867 310.712 7.902C310.628 8.126 310.558 8.31733 310.502 8.476L309.326 11.486ZM259.938 35V33.95H262.36V27.3H259.924V26.516C260.269 26.488 260.624 26.4367 260.988 26.362C261.361 26.2873 261.725 26.1707 262.08 26.012C262.435 25.844 262.757 25.6293 263.046 25.368H263.606V33.95H265.888V35H259.938ZM271.075 35V32.648H266.609V31.612C267.001 30.94 267.355 30.2633 267.673 29.582C267.999 28.9007 268.289 28.2007 268.541 27.482C268.802 26.7633 269.017 26.012 269.185 25.228H270.501C270.379 25.7413 270.23 26.2687 270.053 26.81C269.875 27.342 269.679 27.86 269.465 28.364C269.25 28.868 269.035 29.3393 268.821 29.778C268.615 30.2167 268.419 30.5947 268.233 30.912C268.055 31.2293 267.911 31.4627 267.799 31.612H271.075V28.56C271.131 28.4107 271.187 28.2567 271.243 28.098C271.308 27.93 271.369 27.762 271.425 27.594C271.481 27.4167 271.532 27.2533 271.579 27.104C271.625 26.9453 271.663 26.796 271.691 26.656H272.307V31.612H273.581V32.648H272.307V35H271.075ZM274.864 37.422V27.636H275.844L275.97 28.686H276.068C276.32 28.2753 276.642 27.972 277.034 27.776C277.426 27.5707 277.87 27.468 278.364 27.468C278.98 27.468 279.503 27.6033 279.932 27.874C280.362 28.1447 280.693 28.5693 280.926 29.148C281.16 29.7173 281.276 30.4593 281.276 31.374C281.276 32.2327 281.155 32.9467 280.912 33.516C280.679 34.076 280.348 34.4913 279.918 34.762C279.489 35.0327 278.99 35.168 278.42 35.168C278.103 35.168 277.804 35.1307 277.524 35.056C277.244 34.9813 276.992 34.8647 276.768 34.706C276.544 34.538 276.348 34.328 276.18 34.076H276.096V37.422H274.864ZM278.028 34.09C278.486 34.09 278.859 34.0013 279.148 33.824C279.438 33.6373 279.652 33.3527 279.792 32.97C279.932 32.578 280.002 32.0787 280.002 31.472V31.178C280.002 30.534 279.928 30.0207 279.778 29.638C279.629 29.246 279.41 28.966 279.12 28.798C278.84 28.63 278.49 28.546 278.07 28.546C277.613 28.546 277.235 28.6487 276.936 28.854C276.647 29.05 276.432 29.3487 276.292 29.75C276.162 30.1513 276.096 30.6413 276.096 31.22V31.43C276.096 31.9433 276.143 32.3727 276.236 32.718C276.339 33.054 276.479 33.3247 276.656 33.53C276.843 33.7353 277.053 33.88 277.286 33.964C277.52 34.048 277.767 34.09 278.028 34.09ZM281.667 35L284.313 31.234L281.793 27.636H283.277L285.069 30.268H285.139L286.931 27.636H288.331L285.811 31.192L288.471 35H287.001L285.069 32.158H284.999L283.067 35H281.667Z" fill="#272433"/><rect x="109.5" y="50.5" width="279" height="55" rx="5.5" fill="white"/><rect x="109.5" y="50.5" width="279" height="55" rx="5.5" stroke="#EBEAE1"/><path fill-rule="evenodd" clip-rule="evenodd" d="M143.067 73.8081C143.311 74.0521 143.311 74.4479 143.067 74.6919L135.696 82.0625C135.208 82.5507 134.417 82.5507 133.929 82.0625L130.933 79.0669C130.689 78.8229 130.689 78.4271 130.933 78.1831C131.177 77.939 131.573 77.939 131.817 78.1831L134.812 81.1786L142.183 73.8081C142.427 73.564 142.823 73.564 143.067 73.8081Z" fill="#127440"/><path d="M157.676 73.9119V72.8182H165.312V73.9119H162.111V83H160.878V73.9119H157.676ZM168.146 78.4062V83H166.972V72.8182H168.146V76.5568H168.245C168.424 76.1624 168.692 75.8492 169.05 75.6172C169.412 75.3819 169.892 75.2642 170.492 75.2642C171.013 75.2642 171.468 75.3686 171.859 75.5774C172.25 75.7829 172.554 76.0994 172.769 76.527C172.988 76.9512 173.097 77.4915 173.097 78.1477V83H171.924V78.2273C171.924 77.6207 171.767 77.1518 171.452 76.8203C171.14 76.4856 170.708 76.3182 170.154 76.3182C169.77 76.3182 169.425 76.3994 169.12 76.5618C168.818 76.7242 168.58 76.9612 168.404 77.2727C168.232 77.5843 168.146 77.9621 168.146 78.4062ZM175.16 83V75.3636H176.333V83H175.16ZM175.756 74.0909C175.528 74.0909 175.33 74.013 175.165 73.8572C175.002 73.7015 174.921 73.5142 174.921 73.2955C174.921 73.0767 175.002 72.8894 175.165 72.7337C175.33 72.5779 175.528 72.5 175.756 72.5C175.985 72.5 176.181 72.5779 176.343 72.7337C176.509 72.8894 176.592 73.0767 176.592 73.2955C176.592 73.5142 176.509 73.7015 176.343 73.8572C176.181 74.013 175.985 74.0909 175.756 74.0909ZM183.807 77.0739L182.753 77.3722C182.687 77.1965 182.589 77.0258 182.46 76.8601C182.334 76.6911 182.162 76.5518 181.943 76.4425C181.724 76.3331 181.444 76.2784 181.103 76.2784C180.635 76.2784 180.246 76.3861 179.934 76.6016C179.626 76.8137 179.472 77.0838 179.472 77.4119C179.472 77.7036 179.578 77.9339 179.79 78.103C180.002 78.272 180.334 78.4129 180.784 78.5256L181.918 78.804C182.601 78.9697 183.109 79.2232 183.444 79.5646C183.779 79.9027 183.946 80.3385 183.946 80.8722C183.946 81.3097 183.82 81.7008 183.568 82.0455C183.32 82.3902 182.972 82.6619 182.524 82.8608C182.077 83.0597 181.557 83.1591 180.963 83.1591C180.184 83.1591 179.54 82.9901 179.029 82.652C178.519 82.3139 178.196 81.8201 178.06 81.1705L179.174 80.892C179.28 81.303 179.48 81.6113 179.775 81.8168C180.073 82.0223 180.463 82.125 180.943 82.125C181.49 82.125 181.925 82.009 182.246 81.777C182.571 81.5417 182.733 81.2599 182.733 80.9318C182.733 80.6667 182.64 80.4446 182.455 80.2656C182.269 80.0833 181.984 79.9474 181.6 79.858L180.327 79.5597C179.628 79.3939 179.114 79.1371 178.786 78.7891C178.461 78.4377 178.299 77.9986 178.299 77.4716C178.299 77.0407 178.42 76.6596 178.662 76.3281C178.907 75.9967 179.24 75.7365 179.661 75.5476C180.085 75.3587 180.566 75.2642 181.103 75.2642C181.858 75.2642 182.452 75.4299 182.882 75.7614C183.317 76.0928 183.625 76.5303 183.807 77.0739ZM189.482 83V75.3636H190.655V83H189.482ZM190.079 74.0909C189.85 74.0909 189.653 74.013 189.487 73.8572C189.325 73.7015 189.243 73.5142 189.243 73.2955C189.243 73.0767 189.325 72.8894 189.487 72.7337C189.653 72.5779 189.85 72.5 190.079 72.5C190.307 72.5 190.503 72.5779 190.665 72.7337C190.831 72.8894 190.914 73.0767 190.914 73.2955C190.914 73.5142 190.831 73.7015 190.665 73.8572C190.503 74.013 190.307 74.0909 190.079 74.0909ZM198.129 77.0739L197.075 77.3722C197.009 77.1965 196.911 77.0258 196.782 76.8601C196.656 76.6911 196.484 76.5518 196.265 76.4425C196.046 76.3331 195.766 76.2784 195.425 76.2784C194.957 76.2784 194.568 76.3861 194.256 76.6016C193.948 76.8137 193.794 77.0838 193.794 77.4119C193.794 77.7036 193.9 77.9339 194.112 78.103C194.324 78.272 194.656 78.4129 195.107 78.5256L196.24 78.804C196.923 78.9697 197.432 79.2232 197.766 79.5646C198.101 79.9027 198.269 80.3385 198.269 80.8722C198.269 81.3097 198.143 81.7008 197.891 82.0455C197.642 82.3902 197.294 82.6619 196.847 82.8608C196.399 83.0597 195.879 83.1591 195.286 83.1591C194.507 83.1591 193.862 82.9901 193.352 82.652C192.841 82.3139 192.518 81.8201 192.382 81.1705L193.496 80.892C193.602 81.303 193.802 81.6113 194.097 81.8168C194.396 82.0223 194.785 82.125 195.266 82.125C195.813 82.125 196.247 82.009 196.568 81.777C196.893 81.5417 197.055 81.2599 197.055 80.9318C197.055 80.6667 196.963 80.4446 196.777 80.2656C196.591 80.0833 196.306 79.9474 195.922 79.858L194.649 79.5597C193.95 79.3939 193.436 79.1371 193.108 78.7891C192.783 78.4377 192.621 77.9986 192.621 77.4716C192.621 77.0407 192.742 76.6596 192.984 76.3281C193.229 75.9967 193.562 75.7365 193.983 75.5476C194.407 75.3587 194.888 75.2642 195.425 75.2642C196.18 75.2642 196.774 75.4299 197.205 75.7614C197.639 76.0928 197.947 76.5303 198.129 77.0739ZM206.051 83.179C205.567 83.179 205.128 83.0878 204.734 82.9055C204.339 82.7199 204.026 82.4531 203.794 82.1051C203.562 81.7538 203.446 81.3295 203.446 80.8324C203.446 80.3949 203.532 80.0402 203.705 79.7685C203.877 79.4934 204.107 79.2779 204.396 79.1222C204.684 78.9664 205.002 78.8504 205.35 78.7741C205.702 78.6946 206.055 78.6316 206.409 78.5852C206.873 78.5256 207.25 78.4808 207.538 78.451C207.83 78.4179 208.042 78.3632 208.174 78.2869C208.31 78.2107 208.378 78.0781 208.378 77.8892V77.8494C208.378 77.3589 208.244 76.9777 207.975 76.706C207.71 76.4342 207.308 76.2983 206.767 76.2983C206.207 76.2983 205.768 76.4209 205.45 76.6662C205.132 76.9115 204.908 77.1733 204.779 77.4517L203.665 77.054C203.864 76.59 204.129 76.2287 204.46 75.9702C204.795 75.7083 205.16 75.526 205.554 75.4233C205.952 75.3172 206.343 75.2642 206.728 75.2642C206.973 75.2642 207.254 75.294 207.573 75.3537C207.894 75.41 208.204 75.5277 208.502 75.7067C208.804 75.8857 209.054 76.1558 209.253 76.517C209.452 76.8783 209.551 77.3622 209.551 77.9688V83H208.378V81.9659H208.318C208.239 82.1316 208.106 82.3089 207.921 82.4979C207.735 82.6868 207.488 82.8475 207.18 82.9801C206.872 83.1127 206.495 83.179 206.051 83.179ZM206.23 82.125C206.694 82.125 207.085 82.0339 207.404 81.8516C207.725 81.6693 207.967 81.4339 208.129 81.1456C208.295 80.8572 208.378 80.554 208.378 80.2358V79.1619C208.328 79.2216 208.219 79.2763 208.05 79.326C207.884 79.3724 207.692 79.4138 207.473 79.4503C207.258 79.4834 207.047 79.5133 206.842 79.5398C206.64 79.563 206.476 79.5829 206.35 79.5994C206.045 79.6392 205.76 79.7038 205.495 79.7933C205.233 79.8795 205.021 80.0104 204.858 80.1861C204.699 80.3584 204.62 80.5937 204.62 80.892C204.62 81.2997 204.77 81.608 205.072 81.8168C205.377 82.0223 205.763 82.125 206.23 82.125ZM215.462 83V75.3636H216.596V76.5568H216.695C216.854 76.1491 217.111 75.8326 217.466 75.6072C217.821 75.3786 218.246 75.2642 218.744 75.2642C219.247 75.2642 219.667 75.3786 220.001 75.6072C220.34 75.8326 220.603 76.1491 220.792 76.5568H220.871C221.067 76.1624 221.36 75.8492 221.751 75.6172C222.143 75.3819 222.612 75.2642 223.158 75.2642C223.841 75.2642 224.4 75.478 224.834 75.9055C225.268 76.3298 225.485 76.991 225.485 77.8892V83H224.312V77.8892C224.312 77.3258 224.158 76.9231 223.849 76.6811C223.541 76.4392 223.178 76.3182 222.761 76.3182C222.224 76.3182 221.808 76.4806 221.513 76.8054C221.218 77.1269 221.07 77.5346 221.07 78.0284V83H219.877V77.7699C219.877 77.3357 219.736 76.986 219.455 76.7209C219.173 76.4524 218.81 76.3182 218.366 76.3182C218.061 76.3182 217.776 76.3994 217.511 76.5618C217.249 76.7242 217.037 76.9496 216.874 77.2379C216.715 77.523 216.636 77.8527 216.636 78.2273V83H215.462ZM230.748 83.1591C230.012 83.1591 229.378 82.9967 228.844 82.6719C228.314 82.3438 227.904 81.8864 227.616 81.2997C227.331 80.7098 227.188 80.0237 227.188 79.2415C227.188 78.4593 227.331 77.7699 227.616 77.1733C227.904 76.5734 228.305 76.1061 228.819 75.7713C229.336 75.4332 229.939 75.2642 230.629 75.2642C231.026 75.2642 231.419 75.3305 231.807 75.4631C232.195 75.5956 232.548 75.8111 232.866 76.1094C233.184 76.4044 233.438 76.7955 233.627 77.2827C233.816 77.7699 233.91 78.3698 233.91 79.0824V79.5795H228.024V78.5653H232.717C232.717 78.1345 232.631 77.75 232.458 77.4119C232.289 77.0739 232.047 76.8071 231.732 76.6115C231.421 76.416 231.053 76.3182 230.629 76.3182C230.161 76.3182 229.757 76.4342 229.416 76.6662C229.078 76.8949 228.817 77.1932 228.635 77.5611C228.453 77.929 228.362 78.3234 228.362 78.7443V79.4205C228.362 79.9972 228.461 80.486 228.66 80.8871C228.862 81.2848 229.142 81.5881 229.5 81.7969C229.858 82.0024 230.274 82.1051 230.748 82.1051C231.056 82.1051 231.335 82.062 231.583 81.9759C231.835 81.8864 232.052 81.7538 232.235 81.5781C232.417 81.3991 232.558 81.1771 232.657 80.9119L233.791 81.2301C233.671 81.6146 233.471 81.9527 233.189 82.2443C232.907 82.5327 232.559 82.758 232.145 82.9205C231.731 83.0795 231.265 83.1591 230.748 83.1591ZM241.02 77.0739L239.966 77.3722C239.9 77.1965 239.802 77.0258 239.673 76.8601C239.547 76.6911 239.374 76.5518 239.156 76.4425C238.937 76.3331 238.657 76.2784 238.315 76.2784C237.848 76.2784 237.459 76.3861 237.147 76.6016C236.839 76.8137 236.685 77.0838 236.685 77.4119C236.685 77.7036 236.791 77.9339 237.003 78.103C237.215 78.272 237.546 78.4129 237.997 78.5256L239.131 78.804C239.813 78.9697 240.322 79.2232 240.657 79.5646C240.992 79.9027 241.159 80.3385 241.159 80.8722C241.159 81.3097 241.033 81.7008 240.781 82.0455C240.533 82.3902 240.185 82.6619 239.737 82.8608C239.29 83.0597 238.769 83.1591 238.176 83.1591C237.397 83.1591 236.753 82.9901 236.242 82.652C235.732 82.3139 235.409 81.8201 235.273 81.1705L236.386 80.892C236.492 81.303 236.693 81.6113 236.988 81.8168C237.286 82.0223 237.676 82.125 238.156 82.125C238.703 82.125 239.137 82.009 239.459 81.777C239.784 81.5417 239.946 81.2599 239.946 80.9318C239.946 80.6667 239.853 80.4446 239.668 80.2656C239.482 80.0833 239.197 79.9474 238.812 79.858L237.54 79.5597C236.84 79.3939 236.327 79.1371 235.999 78.7891C235.674 78.4377 235.511 77.9986 235.511 77.4716C235.511 77.0407 235.632 76.6596 235.874 76.3281C236.12 75.9967 236.453 75.7365 236.874 75.5476C237.298 75.3587 237.778 75.2642 238.315 75.2642C239.071 75.2642 239.664 75.4299 240.095 75.7614C240.529 76.0928 240.838 76.5303 241.02 77.0739ZM248.25 77.0739L247.196 77.3722C247.13 77.1965 247.032 77.0258 246.903 76.8601C246.777 76.6911 246.605 76.5518 246.386 76.4425C246.167 76.3331 245.887 76.2784 245.546 76.2784C245.078 76.2784 244.689 76.3861 244.377 76.6016C244.069 76.8137 243.915 77.0838 243.915 77.4119C243.915 77.7036 244.021 77.9339 244.233 78.103C244.445 78.272 244.777 78.4129 245.228 78.5256L246.361 78.804C247.044 78.9697 247.553 79.2232 247.887 79.5646C248.222 79.9027 248.39 80.3385 248.39 80.8722C248.39 81.3097 248.264 81.7008 248.012 82.0455C247.763 82.3902 247.415 82.6619 246.968 82.8608C246.52 83.0597 246 83.1591 245.407 83.1591C244.628 83.1591 243.983 82.9901 243.473 82.652C242.962 82.3139 242.639 81.8201 242.503 81.1705L243.617 80.892C243.723 81.303 243.923 81.6113 244.218 81.8168C244.517 82.0223 244.906 82.125 245.387 82.125C245.934 82.125 246.368 82.009 246.689 81.777C247.014 81.5417 247.176 81.2599 247.176 80.9318C247.176 80.6667 247.084 80.4446 246.898 80.2656C246.712 80.0833 246.427 79.9474 246.043 79.858L244.77 79.5597C244.071 79.3939 243.557 79.1371 243.229 78.7891C242.904 78.4377 242.742 77.9986 242.742 77.4716C242.742 77.0407 242.863 76.6596 243.105 76.3281C243.35 75.9967 243.683 75.7365 244.104 75.5476C244.528 75.3587 245.009 75.2642 245.546 75.2642C246.301 75.2642 246.895 75.4299 247.326 75.7614C247.76 76.0928 248.068 76.5303 248.25 77.0739ZM252.319 83.179C251.835 83.179 251.396 83.0878 251.001 82.9055C250.607 82.7199 250.294 82.4531 250.062 82.1051C249.83 81.7538 249.714 81.3295 249.714 80.8324C249.714 80.3949 249.8 80.0402 249.972 79.7685C250.145 79.4934 250.375 79.2779 250.663 79.1222C250.952 78.9664 251.27 78.8504 251.618 78.7741C251.969 78.6946 252.322 78.6316 252.677 78.5852C253.141 78.5256 253.517 78.4808 253.805 78.451C254.097 78.4179 254.309 78.3632 254.442 78.2869C254.578 78.2107 254.646 78.0781 254.646 77.8892V77.8494C254.646 77.3589 254.511 76.9777 254.243 76.706C253.978 76.4342 253.575 76.2983 253.035 76.2983C252.475 76.2983 252.035 76.4209 251.717 76.6662C251.399 76.9115 251.175 77.1733 251.046 77.4517L249.932 77.054C250.131 76.59 250.396 76.2287 250.728 75.9702C251.063 75.7083 251.427 75.526 251.822 75.4233C252.219 75.3172 252.611 75.2642 252.995 75.2642C253.24 75.2642 253.522 75.294 253.84 75.3537C254.162 75.41 254.472 75.5277 254.77 75.7067C255.071 75.8857 255.322 76.1558 255.521 76.517C255.719 76.8783 255.819 77.3622 255.819 77.9688V83H254.646V81.9659H254.586C254.506 82.1316 254.374 82.3089 254.188 82.4979C254.003 82.6868 253.756 82.8475 253.447 82.9801C253.139 83.1127 252.763 83.179 252.319 83.179ZM252.498 82.125C252.962 82.125 253.353 82.0339 253.671 81.8516C253.993 81.6693 254.235 81.4339 254.397 81.1456C254.563 80.8572 254.646 80.554 254.646 80.2358V79.1619C254.596 79.2216 254.486 79.2763 254.317 79.326C254.152 79.3724 253.959 79.4138 253.741 79.4503C253.525 79.4834 253.315 79.5133 253.109 79.5398C252.907 79.563 252.743 79.5829 252.617 79.5994C252.312 79.6392 252.027 79.7038 251.762 79.7933C251.5 79.8795 251.288 80.0104 251.126 80.1861C250.967 80.3584 250.887 80.5937 250.887 80.892C250.887 81.2997 251.038 81.608 251.339 81.8168C251.644 82.0223 252.03 82.125 252.498 82.125ZM260.959 86.0227C260.392 86.0227 259.905 85.9498 259.497 85.804C259.089 85.6615 258.75 85.4725 258.478 85.2372C258.209 85.0052 257.996 84.7566 257.837 84.4915L258.771 83.8352C258.877 83.9744 259.012 84.1335 259.174 84.3125C259.336 84.4948 259.558 84.6522 259.84 84.7848C260.125 84.9207 260.498 84.9886 260.959 84.9886C261.575 84.9886 262.084 84.8395 262.485 84.5412C262.886 84.2429 263.087 83.7756 263.087 83.1392V81.5881H262.987C262.901 81.7273 262.778 81.8996 262.619 82.1051C262.463 82.3073 262.238 82.4879 261.943 82.647C261.651 82.8028 261.257 82.8807 260.76 82.8807C260.143 82.8807 259.59 82.7348 259.099 82.4432C258.612 82.1515 258.226 81.7273 257.941 81.1705C257.659 80.6136 257.518 79.9375 257.518 79.142C257.518 78.3598 257.656 77.6787 257.931 77.0987C258.206 76.5154 258.589 76.0646 259.079 75.7464C259.57 75.425 260.137 75.2642 260.78 75.2642C261.277 75.2642 261.671 75.3471 261.963 75.5128C262.258 75.6752 262.483 75.8608 262.639 76.0696C262.798 76.2751 262.921 76.4441 263.007 76.5767H263.126V75.3636H264.26V83.2188C264.26 83.875 264.111 84.4086 263.812 84.8196C263.517 85.2339 263.12 85.5372 262.619 85.7294C262.122 85.925 261.569 86.0227 260.959 86.0227ZM260.919 81.8267C261.39 81.8267 261.787 81.719 262.112 81.5036C262.437 81.2881 262.684 80.9782 262.853 80.5739C263.022 80.1695 263.106 79.6856 263.106 79.1222C263.106 78.572 263.024 78.0864 262.858 77.6655C262.692 77.2446 262.447 76.9148 262.122 76.6761C261.797 76.4375 261.396 76.3182 260.919 76.3182C260.422 76.3182 260.008 76.4441 259.676 76.696C259.348 76.9479 259.101 77.286 258.935 77.7102C258.773 78.1345 258.692 78.6051 258.692 79.1222C258.692 79.6525 258.775 80.1214 258.94 80.5291C259.109 80.9335 259.358 81.2517 259.686 81.4837C260.017 81.7124 260.428 81.8267 260.919 81.8267ZM269.525 83.1591C268.79 83.1591 268.155 82.9967 267.621 82.6719C267.091 82.3438 266.682 81.8864 266.393 81.2997C266.108 80.7098 265.966 80.0237 265.966 79.2415C265.966 78.4593 266.108 77.7699 266.393 77.1733C266.682 76.5734 267.083 76.1061 267.596 75.7713C268.113 75.4332 268.717 75.2642 269.406 75.2642C269.804 75.2642 270.196 75.3305 270.584 75.4631C270.972 75.5956 271.325 75.8111 271.643 76.1094C271.961 76.4044 272.215 76.7955 272.404 77.2827C272.593 77.7699 272.687 78.3698 272.687 79.0824V79.5795H266.801V78.5653H271.494C271.494 78.1345 271.408 77.75 271.236 77.4119C271.067 77.0739 270.825 76.8071 270.51 76.6115C270.198 76.416 269.83 76.3182 269.406 76.3182C268.939 76.3182 268.534 76.4342 268.193 76.6662C267.855 76.8949 267.595 77.1932 267.412 77.5611C267.23 77.929 267.139 78.3234 267.139 78.7443V79.4205C267.139 79.9972 267.238 80.486 267.437 80.8871C267.639 81.2848 267.919 81.5881 268.277 81.7969C268.635 82.0024 269.051 82.1051 269.525 82.1051C269.834 82.1051 270.112 82.062 270.361 81.9759C270.612 81.8864 270.83 81.7538 271.012 81.5781C271.194 81.3991 271.335 81.1771 271.434 80.9119L272.568 81.2301C272.449 81.6146 272.248 81.9527 271.966 82.2443C271.685 82.5327 271.337 82.758 270.922 82.9205C270.508 83.0795 270.042 83.1591 269.525 83.1591Z" fill="#26252A"/><path d="M370.442 73.4419C370.686 73.1979 370.686 72.8021 370.442 72.5581C370.198 72.314 369.802 72.314 369.558 72.5581L365 77.1161L360.442 72.5581C360.198 72.314 359.802 72.314 359.558 72.5581C359.314 72.8021 359.314 73.1979 359.558 73.4419L364.116 78L359.558 82.5581C359.314 82.8021 359.314 83.1979 359.558 83.4419C359.802 83.686 360.198 83.686 360.442 83.4419L365 78.8839L369.558 83.4419C369.802 83.686 370.198 83.686 370.442 83.4419C370.686 83.1979 370.686 82.8021 370.442 82.5581L365.884 78L370.442 73.4419Z" fill="#26252A"/><rect x="109" y="58" width="4" height="40" rx="2" fill="#127440"/><line x1="310.646" y1="136.759" x2="353.646" y2="93.7592" stroke="#272433"/><line x1="220.646" y1="64.6464" x2="250.646" y2="34.6464" stroke="#272433"/></svg>