<svg width="210" height="58" viewBox="0 0 210 58" fill="none" xmlns="http://www.w3.org/2000/svg"><path d="M28.6633 15.168L29.2513 12.494H28.1173V11.43H29.4753L29.9513 9.26H28.7613V8.196H30.1893L30.8473 5.228H31.9533L31.2953 8.196H33.3533L34.0113 5.228H35.1313L34.4593 8.196H35.5793V9.26H34.2493L33.7593 11.43H34.9493V12.494H33.5353L32.9473 15.168H31.8413L32.4293 12.494H30.3573L29.7833 15.168H28.6633ZM30.5813 11.43H32.6533L33.1293 9.26H31.0713L30.5813 11.43ZM39.8638 15.168C39.3411 15.168 38.8744 15.0933 38.4638 14.944C38.0531 14.7853 37.7031 14.5193 37.4138 14.146C37.1244 13.7633 36.9051 13.2547 36.7558 12.62C36.6064 11.976 36.5318 11.1687 36.5318 10.198C36.5318 9.22733 36.6064 8.42467 36.7558 7.79C36.9051 7.146 37.1244 6.63733 37.4138 6.264C37.7031 5.88133 38.0531 5.61533 38.4638 5.466C38.8744 5.30733 39.3411 5.228 39.8638 5.228C40.3865 5.228 40.8485 5.30733 41.2498 5.466C41.6605 5.61533 42.0105 5.88133 42.2998 6.264C42.5891 6.63733 42.8085 7.146 42.9578 7.79C43.1071 8.42467 43.1818 9.22733 43.1818 10.198C43.1818 11.1687 43.1071 11.976 42.9578 12.62C42.8085 13.2547 42.5891 13.7633 42.2998 14.146C42.0105 14.5193 41.6605 14.7853 41.2498 14.944C40.8485 15.0933 40.3865 15.168 39.8638 15.168ZM39.8638 14.132C40.3958 14.132 40.8065 13.9967 41.0958 13.726C41.3945 13.4553 41.5998 13.054 41.7118 12.522C41.8331 11.99 41.8938 11.3273 41.8938 10.534V9.89C41.8938 9.08733 41.8331 8.42 41.7118 7.888C41.5998 7.34667 41.3945 6.94067 41.0958 6.67C40.8065 6.39933 40.3958 6.264 39.8638 6.264C39.3318 6.264 38.9165 6.39933 38.6178 6.67C38.3191 6.94067 38.1091 7.342 37.9878 7.874C37.8758 8.406 37.8198 9.07333 37.8198 9.876V10.506C37.8198 11.2993 37.8758 11.9667 37.9878 12.508C38.1091 13.0493 38.3191 13.4553 38.6178 13.726C38.9165 13.9967 39.3318 14.132 39.8638 14.132ZM47.8052 15.168C47.2825 15.168 46.8158 15.0933 46.4052 14.944C45.9945 14.7853 45.6445 14.5193 45.3552 14.146C45.0658 13.7633 44.8465 13.2547 44.6972 12.62C44.5478 11.976 44.4732 11.1687 44.4732 10.198C44.4732 9.22733 44.5478 8.42467 44.6972 7.79C44.8465 7.146 45.0658 6.63733 45.3552 6.264C45.6445 5.88133 45.9945 5.61533 46.4052 5.466C46.8158 5.30733 47.2825 5.228 47.8052 5.228C48.3278 5.228 48.7898 5.30733 49.1912 5.466C49.6018 5.61533 49.9518 5.88133 50.2412 6.264C50.5305 6.63733 50.7498 7.146 50.8992 7.79C51.0485 8.42467 51.1232 9.22733 51.1232 10.198C51.1232 11.1687 51.0485 11.976 50.8992 12.62C50.7498 13.2547 50.5305 13.7633 50.2412 14.146C49.9518 14.5193 49.6018 14.7853 49.1912 14.944C48.7898 15.0933 48.3278 15.168 47.8052 15.168ZM47.8052 14.132C48.3372 14.132 48.7478 13.9967 49.0372 13.726C49.3358 13.4553 49.5412 13.054 49.6532 12.522C49.7745 11.99 49.8352 11.3273 49.8352 10.534V9.89C49.8352 9.08733 49.7745 8.42 49.6532 7.888C49.5412 7.34667 49.3358 6.94067 49.0372 6.67C48.7478 6.39933 48.3372 6.264 47.8052 6.264C47.2732 6.264 46.8578 6.39933 46.5592 6.67C46.2605 6.94067 46.0505 7.342 45.9292 7.874C45.8172 8.406 45.7612 9.07333 45.7612 9.876V10.506C45.7612 11.2993 45.8172 11.9667 45.9292 12.508C46.0505 13.0493 46.2605 13.4553 46.5592 13.726C46.8578 13.9967 47.2732 14.132 47.8052 14.132ZM55.7886 15.168C55.1166 15.168 54.5286 15.042 54.0246 14.79C53.5206 14.538 53.1286 14.1787 52.8486 13.712C52.5686 13.236 52.4286 12.6713 52.4286 12.018H53.6746C53.6746 12.4567 53.7679 12.8347 53.9546 13.152C54.1412 13.4693 54.3932 13.712 54.7106 13.88C55.0372 14.048 55.3966 14.132 55.7886 14.132C56.1899 14.132 56.5446 14.0527 56.8526 13.894C57.1606 13.726 57.3986 13.474 57.5666 13.138C57.7439 12.802 57.8326 12.3773 57.8326 11.864C57.8326 11.3973 57.7532 11.0147 57.5946 10.716C57.4359 10.408 57.2072 10.1793 56.9086 10.03C56.6192 9.88067 56.2832 9.806 55.9006 9.806C55.6206 9.806 55.3546 9.85267 55.1026 9.946C54.8506 10.03 54.6219 10.1513 54.4166 10.31C54.2206 10.4687 54.0572 10.6647 53.9266 10.898L52.7646 10.716L53.1706 5.396H58.6166V6.544H54.2486L54.0246 9.54C54.1832 9.4 54.3606 9.274 54.5566 9.162C54.7619 9.04067 54.9952 8.94733 55.2566 8.882C55.5179 8.80733 55.8166 8.77 56.1526 8.77C56.7032 8.77 57.2026 8.87733 57.6506 9.092C58.0986 9.30667 58.4532 9.638 58.7146 10.086C58.9759 10.534 59.1066 11.1127 59.1066 11.822C59.1066 12.522 58.9712 13.124 58.7006 13.628C58.4392 14.132 58.0612 14.5147 57.5666 14.776C57.0719 15.0373 56.4792 15.168 55.7886 15.168ZM63.8426 15.168C63.2919 15.168 62.7973 15.0887 62.3586 14.93C61.9293 14.7713 61.5606 14.5147 61.2526 14.16C60.9539 13.8053 60.7253 13.3293 60.5666 12.732C60.4079 12.1253 60.3286 11.374 60.3286 10.478C60.3286 9.48867 60.4079 8.66267 60.5666 8C60.7253 7.328 60.9493 6.79133 61.2386 6.39C61.5373 5.97933 61.9013 5.68533 62.3306 5.508C62.7693 5.32133 63.2639 5.228 63.8146 5.228C64.5053 5.228 65.0606 5.35867 65.4806 5.62C65.9099 5.88133 66.2226 6.236 66.4186 6.684C66.6146 7.12267 66.7126 7.62667 66.7126 8.196H65.4526C65.4526 7.76667 65.3919 7.40733 65.2706 7.118C65.1493 6.82867 64.9579 6.614 64.6966 6.474C64.4446 6.334 64.1273 6.264 63.7446 6.264C63.1846 6.264 62.7459 6.41333 62.4286 6.712C62.1206 7.00133 61.9059 7.426 61.7846 7.986C61.6726 8.546 61.6119 9.21333 61.6026 9.988C61.7333 9.77333 61.9153 9.57733 62.1486 9.4C62.3913 9.22267 62.6759 9.08267 63.0026 8.98C63.3293 8.868 63.6746 8.812 64.0386 8.812C64.7293 8.812 65.2986 8.952 65.7466 9.232C66.1946 9.50267 66.5259 9.876 66.7406 10.352C66.9553 10.828 67.0626 11.36 67.0626 11.948C67.0626 12.592 66.9226 13.1567 66.6426 13.642C66.3626 14.1273 65.9799 14.5053 65.4946 14.776C65.0093 15.0373 64.4586 15.168 63.8426 15.168ZM63.7586 14.132C64.2159 14.132 64.5939 14.034 64.8926 13.838C65.1913 13.6327 65.4106 13.3667 65.5506 13.04C65.6999 12.704 65.7746 12.3353 65.7746 11.934C65.7746 11.5513 65.7046 11.2013 65.5646 10.884C65.4246 10.5667 65.2053 10.3147 64.9066 10.128C64.6173 9.932 64.2439 9.834 63.7866 9.834C63.3293 9.834 62.9466 9.932 62.6386 10.128C62.3306 10.324 62.1019 10.5853 61.9526 10.912C61.8033 11.2293 61.7286 11.5933 61.7286 12.004C61.7286 12.3867 61.8033 12.7413 61.9526 13.068C62.1019 13.3947 62.3259 13.656 62.6246 13.852C62.9233 14.0387 63.3013 14.132 63.7586 14.132ZM68.788 15V5.396H76.18V6.544H70.118V9.512H75.564V10.66H70.118V13.852H76.264V15H68.788ZM80.9926 15.168C80.4699 15.168 80.0033 15.0933 79.5926 14.944C79.1819 14.7853 78.8319 14.5193 78.5426 14.146C78.2533 13.7633 78.0339 13.2547 77.8846 12.62C77.7353 11.976 77.6606 11.1687 77.6606 10.198C77.6606 9.22733 77.7353 8.42467 77.8846 7.79C78.0339 7.146 78.2533 6.63733 78.5426 6.264C78.8319 5.88133 79.1819 5.61533 79.5926 5.466C80.0033 5.30733 80.4699 5.228 80.9926 5.228C81.5153 5.228 81.9773 5.30733 82.3786 5.466C82.7893 5.61533 83.1393 5.88133 83.4286 6.264C83.7179 6.63733 83.9373 7.146 84.0866 7.79C84.2359 8.42467 84.3106 9.22733 84.3106 10.198C84.3106 11.1687 84.2359 11.976 84.0866 12.62C83.9373 13.2547 83.7179 13.7633 83.4286 14.146C83.1393 14.5193 82.7893 14.7853 82.3786 14.944C81.9773 15.0933 81.5153 15.168 80.9926 15.168ZM80.9926 14.132C81.5246 14.132 81.9353 13.9967 82.2246 13.726C82.5233 13.4553 82.7286 13.054 82.8406 12.522C82.9619 11.99 83.0226 11.3273 83.0226 10.534V9.89C83.0226 9.08733 82.9619 8.42 82.8406 7.888C82.7286 7.34667 82.5233 6.94067 82.2246 6.67C81.9353 6.39933 81.5246 6.264 80.9926 6.264C80.4606 6.264 80.0453 6.39933 79.7466 6.67C79.4479 6.94067 79.2379 7.342 79.1166 7.874C79.0046 8.406 78.9486 9.07333 78.9486 9.876V10.506C78.9486 11.2993 79.0046 11.9667 79.1166 12.508C79.2379 13.0493 79.4479 13.4553 79.7466 13.726C80.0453 13.9967 80.4606 14.132 80.9926 14.132ZM56.0298 35V33.95H58.4518V27.3H56.0158V26.516C56.3612 26.488 56.7158 26.4367 57.0798 26.362C57.4532 26.2873 57.8172 26.1707 58.1718 26.012C58.5265 25.844 58.8485 25.6293 59.1378 25.368H59.6978V33.95H61.9798V35H56.0298ZM66.5086 35.168C65.958 35.168 65.4633 35.0887 65.0246 34.93C64.5953 34.7713 64.2266 34.5147 63.9186 34.16C63.62 33.8053 63.3913 33.3293 63.2326 32.732C63.074 32.1253 62.9946 31.374 62.9946 30.478C62.9946 29.4887 63.074 28.6627 63.2326 28C63.3913 27.328 63.6153 26.7913 63.9046 26.39C64.2033 25.9793 64.5673 25.6853 64.9966 25.508C65.4353 25.3213 65.93 25.228 66.4806 25.228C67.1713 25.228 67.7266 25.3587 68.1466 25.62C68.576 25.8813 68.8886 26.236 69.0846 26.684C69.2806 27.1227 69.3786 27.6267 69.3786 28.196H68.1186C68.1186 27.7667 68.058 27.4073 67.9366 27.118C67.8153 26.8287 67.624 26.614 67.3626 26.474C67.1106 26.334 66.7933 26.264 66.4106 26.264C65.8506 26.264 65.412 26.4133 65.0946 26.712C64.7866 27.0013 64.572 27.426 64.4506 27.986C64.3386 28.546 64.278 29.2133 64.2686 29.988C64.3993 29.7733 64.5813 29.5773 64.8146 29.4C65.0573 29.2227 65.342 29.0827 65.6686 28.98C65.9953 28.868 66.3406 28.812 66.7046 28.812C67.3953 28.812 67.9646 28.952 68.4126 29.232C68.8606 29.5027 69.192 29.876 69.4066 30.352C69.6213 30.828 69.7286 31.36 69.7286 31.948C69.7286 32.592 69.5886 33.1567 69.3086 33.642C69.0286 34.1273 68.646 34.5053 68.1606 34.776C67.6753 35.0373 67.1246 35.168 66.5086 35.168ZM66.4246 34.132C66.882 34.132 67.26 34.034 67.5586 33.838C67.8573 33.6327 68.0766 33.3667 68.2166 33.04C68.366 32.704 68.4406 32.3353 68.4406 31.934C68.4406 31.5513 68.3706 31.2013 68.2306 30.884C68.0906 30.5667 67.8713 30.3147 67.5726 30.128C67.2833 29.932 66.91 29.834 66.4526 29.834C65.9953 29.834 65.6126 29.932 65.3046 30.128C64.9966 30.324 64.768 30.5853 64.6186 30.912C64.4693 31.2293 64.3946 31.5933 64.3946 32.004C64.3946 32.3867 64.4693 32.7413 64.6186 33.068C64.768 33.3947 64.992 33.656 65.2906 33.852C65.5893 34.0387 65.9673 34.132 66.4246 34.132ZM71.216 37.422V27.636H72.196L72.322 28.686H72.42C72.672 28.2753 72.994 27.972 73.386 27.776C73.778 27.5707 74.2213 27.468 74.716 27.468C75.332 27.468 75.8547 27.6033 76.284 27.874C76.7133 28.1447 77.0447 28.5693 77.278 29.148C77.5113 29.7173 77.628 30.4593 77.628 31.374C77.628 32.2327 77.5067 32.9467 77.264 33.516C77.0307 34.076 76.6993 34.4913 76.27 34.762C75.8407 35.0327 75.3413 35.168 74.772 35.168C74.4547 35.168 74.156 35.1307 73.876 35.056C73.596 34.9813 73.344 34.8647 73.12 34.706C72.896 34.538 72.7 34.328 72.532 34.076H72.448V37.422H71.216ZM74.38 34.09C74.8373 34.09 75.2107 34.0013 75.5 33.824C75.7893 33.6373 76.004 33.3527 76.144 32.97C76.284 32.578 76.354 32.0787 76.354 31.472V31.178C76.354 30.534 76.2793 30.0207 76.13 29.638C75.9807 29.246 75.7613 28.966 75.472 28.798C75.192 28.63 74.842 28.546 74.422 28.546C73.9647 28.546 73.5867 28.6487 73.288 28.854C72.9987 29.05 72.784 29.3487 72.644 29.75C72.5133 30.1513 72.448 30.6413 72.448 31.22V31.43C72.448 31.9433 72.4947 32.3727 72.588 32.718C72.6907 33.054 72.8307 33.3247 73.008 33.53C73.1947 33.7353 73.4047 33.88 73.638 33.964C73.8713 34.048 74.1187 34.09 74.38 34.09ZM78.0183 35L80.6643 31.234L78.1443 27.636H79.6283L81.4203 30.268H81.4903L83.2823 27.636H84.6823L82.1623 31.192L84.8223 35H83.3523L81.4203 32.158H81.3503L79.4183 35H78.0183ZM22.2665 55.168C21.7159 55.168 21.2212 55.0887 20.7825 54.93C20.3532 54.7713 19.9845 54.5147 19.6765 54.16C19.3779 53.8053 19.1492 53.3293 18.9905 52.732C18.8319 52.1253 18.7525 51.374 18.7525 50.478C18.7525 49.4887 18.8319 48.6627 18.9905 48C19.1492 47.328 19.3732 46.7913 19.6625 46.39C19.9612 45.9793 20.3252 45.6853 20.7545 45.508C21.1932 45.3213 21.6879 45.228 22.2385 45.228C22.9292 45.228 23.4845 45.3587 23.9045 45.62C24.3339 45.8813 24.6465 46.236 24.8425 46.684C25.0385 47.1227 25.1365 47.6267 25.1365 48.196H23.8765C23.8765 47.7667 23.8159 47.4073 23.6945 47.118C23.5732 46.8287 23.3819 46.614 23.1205 46.474C22.8685 46.334 22.5512 46.264 22.1685 46.264C21.6085 46.264 21.1699 46.4133 20.8525 46.712C20.5445 47.0013 20.3299 47.426 20.2085 47.986C20.0965 48.546 20.0359 49.2133 20.0265 49.988C20.1572 49.7733 20.3392 49.5773 20.5725 49.4C20.8152 49.2227 21.0999 49.0827 21.4265 48.98C21.7532 48.868 22.0985 48.812 22.4625 48.812C23.1532 48.812 23.7225 48.952 24.1705 49.232C24.6185 49.5027 24.9499 49.876 25.1645 50.352C25.3792 50.828 25.4865 51.36 25.4865 51.948C25.4865 52.592 25.3465 53.1567 25.0665 53.642C24.7865 54.1273 24.4039 54.5053 23.9185 54.776C23.4332 55.0373 22.8825 55.168 22.2665 55.168ZM22.1825 54.132C22.6399 54.132 23.0179 54.034 23.3165 53.838C23.6152 53.6327 23.8345 53.3667 23.9745 53.04C24.1239 52.704 24.1985 52.3353 24.1985 51.934C24.1985 51.5513 24.1285 51.2013 23.9885 50.884C23.8485 50.5667 23.6292 50.3147 23.3305 50.128C23.0412 49.932 22.6679 49.834 22.2105 49.834C21.7532 49.834 21.3705 49.932 21.0625 50.128C20.7545 50.324 20.5259 50.5853 20.3765 50.912C20.2272 51.2293 20.1525 51.5933 20.1525 52.004C20.1525 52.3867 20.2272 52.7413 20.3765 53.068C20.5259 53.3947 20.7499 53.656 21.0485 53.852C21.3472 54.0387 21.7252 54.132 22.1825 54.132ZM30.0259 55.168C29.5033 55.168 29.0366 55.0933 28.6259 54.944C28.2153 54.7853 27.8653 54.5193 27.5759 54.146C27.2866 53.7633 27.0673 53.2547 26.9179 52.62C26.7686 51.976 26.6939 51.1687 26.6939 50.198C26.6939 49.2273 26.7686 48.4247 26.9179 47.79C27.0673 47.146 27.2866 46.6373 27.5759 46.264C27.8653 45.8813 28.2153 45.6153 28.6259 45.466C29.0366 45.3073 29.5033 45.228 30.0259 45.228C30.5486 45.228 31.0106 45.3073 31.4119 45.466C31.8226 45.6153 32.1726 45.8813 32.4619 46.264C32.7513 46.6373 32.9706 47.146 33.1199 47.79C33.2693 48.4247 33.3439 49.2273 33.3439 50.198C33.3439 51.1687 33.2693 51.976 33.1199 52.62C32.9706 53.2547 32.7513 53.7633 32.4619 54.146C32.1726 54.5193 31.8226 54.7853 31.4119 54.944C31.0106 55.0933 30.5486 55.168 30.0259 55.168ZM30.0259 54.132C30.5579 54.132 30.9686 53.9967 31.2579 53.726C31.5566 53.4553 31.7619 53.054 31.8739 52.522C31.9953 51.99 32.0559 51.3273 32.0559 50.534V49.89C32.0559 49.0873 31.9953 48.42 31.8739 47.888C31.7619 47.3467 31.5566 46.9407 31.2579 46.67C30.9686 46.3993 30.5579 46.264 30.0259 46.264C29.4939 46.264 29.0786 46.3993 28.7799 46.67C28.4813 46.9407 28.2713 47.342 28.1499 47.874C28.0379 48.406 27.9819 49.0733 27.9819 49.876V50.506C27.9819 51.2993 28.0379 51.9667 28.1499 52.508C28.2713 53.0493 28.4813 53.4553 28.7799 53.726C29.0786 53.9967 29.4939 54.132 30.0259 54.132ZM37.9673 55.168C37.4447 55.168 36.978 55.0933 36.5673 54.944C36.1567 54.7853 35.8067 54.5193 35.5173 54.146C35.228 53.7633 35.0087 53.2547 34.8593 52.62C34.71 51.976 34.6353 51.1687 34.6353 50.198C34.6353 49.2273 34.71 48.4247 34.8593 47.79C35.0087 47.146 35.228 46.6373 35.5173 46.264C35.8067 45.8813 36.1567 45.6153 36.5673 45.466C36.978 45.3073 37.4447 45.228 37.9673 45.228C38.49 45.228 38.952 45.3073 39.3533 45.466C39.764 45.6153 40.114 45.8813 40.4033 46.264C40.6927 46.6373 40.912 47.146 41.0613 47.79C41.2107 48.4247 41.2853 49.2273 41.2853 50.198C41.2853 51.1687 41.2107 51.976 41.0613 52.62C40.912 53.2547 40.6927 53.7633 40.4033 54.146C40.114 54.5193 39.764 54.7853 39.3533 54.944C38.952 55.0933 38.49 55.168 37.9673 55.168ZM37.9673 54.132C38.4993 54.132 38.91 53.9967 39.1993 53.726C39.498 53.4553 39.7033 53.054 39.8153 52.522C39.9367 51.99 39.9973 51.3273 39.9973 50.534V49.89C39.9973 49.0873 39.9367 48.42 39.8153 47.888C39.7033 47.3467 39.498 46.9407 39.1993 46.67C38.91 46.3993 38.4993 46.264 37.9673 46.264C37.4353 46.264 37.02 46.3993 36.7213 46.67C36.4227 46.9407 36.2127 47.342 36.0913 47.874C35.9793 48.406 35.9233 49.0733 35.9233 49.876V50.506C35.9233 51.2993 35.9793 51.9667 36.0913 52.508C36.2127 53.0493 36.4227 53.4553 36.7213 53.726C37.02 53.9967 37.4353 54.132 37.9673 54.132ZM47.1125 55L44.8865 47.636H46.1605L47.2805 51.682C47.3365 51.878 47.3878 52.0927 47.4345 52.326C47.4905 52.55 47.5418 52.76 47.5885 52.956C47.6445 53.1427 47.6818 53.2873 47.7005 53.39H47.7845C47.8218 53.2127 47.8638 53.012 47.9105 52.788C47.9665 52.564 48.0132 52.3493 48.0505 52.144C48.0972 51.9387 48.1345 51.78 48.1625 51.668L49.1705 47.636H50.5005L51.5225 51.668C51.5598 51.8267 51.6018 52.0133 51.6485 52.228C51.6952 52.4333 51.7418 52.6387 51.7885 52.844C51.8445 53.0493 51.8818 53.2313 51.9005 53.39H51.9845C52.0218 53.2407 52.0638 53.068 52.1105 52.872C52.1572 52.6667 52.2085 52.4613 52.2645 52.256C52.3205 52.0413 52.3718 51.8547 52.4185 51.696L53.5245 47.636H54.7005L52.4885 55H51.2285L50.2765 51.192C50.2392 51.0147 50.1925 50.8093 50.1365 50.576C50.0805 50.3333 50.0245 50.0907 49.9685 49.848C49.9218 49.596 49.8798 49.3767 49.8425 49.19H49.7585C49.7398 49.33 49.7072 49.5073 49.6605 49.722C49.6232 49.9367 49.5765 50.1747 49.5205 50.436C49.4645 50.688 49.3992 50.94 49.3245 51.192L48.3725 55H47.1125ZM58.6033 55.168C57.8753 55.168 57.2593 55.0327 56.7553 54.762C56.2607 54.482 55.8827 54.0573 55.6213 53.488C55.3693 52.9187 55.2433 52.1953 55.2433 51.318C55.2433 50.4313 55.3693 49.708 55.6213 49.148C55.8827 48.5787 56.2653 48.1587 56.7693 47.888C57.2733 47.608 57.9033 47.468 58.6593 47.468C59.35 47.468 59.9287 47.6033 60.3953 47.874C60.862 48.1353 61.212 48.532 61.4453 49.064C61.688 49.5867 61.8093 50.2447 61.8093 51.038V51.626H56.5173C56.536 52.214 56.62 52.6993 56.7693 53.082C56.928 53.4553 57.1613 53.7307 57.4693 53.908C57.7773 54.076 58.1647 54.16 58.6313 54.16C58.9487 54.16 59.224 54.1227 59.4573 54.048C59.7 53.964 59.9007 53.8473 60.0593 53.698C60.2273 53.5487 60.3533 53.3713 60.4373 53.166C60.5213 52.9607 60.568 52.7367 60.5773 52.494H61.7813C61.772 52.886 61.6973 53.25 61.5573 53.586C61.4173 53.9127 61.212 54.1927 60.9413 54.426C60.6707 54.6593 60.3393 54.8413 59.9473 54.972C59.5553 55.1027 59.1073 55.168 58.6033 55.168ZM56.5453 50.702H60.5353C60.5353 50.2913 60.4887 49.946 60.3953 49.666C60.302 49.386 60.1667 49.1573 59.9893 48.98C59.8213 48.8027 59.6207 48.6767 59.3873 48.602C59.1633 48.518 58.9067 48.476 58.6173 48.476C58.188 48.476 57.824 48.5553 57.5253 48.714C57.2267 48.8727 56.998 49.1153 56.8393 49.442C56.6807 49.7687 56.5827 50.1887 56.5453 50.702ZM63.2492 46.25V44.878H64.4812V46.25H63.2492ZM63.2492 55V47.636H64.4812V55H63.2492ZM67.5558 57.548C67.2011 57.548 66.8744 57.4733 66.5758 57.324C66.2771 57.184 66.0391 56.9787 65.8618 56.708C65.6844 56.4373 65.5958 56.1153 65.5958 55.742C65.5958 55.3313 65.7078 54.9907 65.9318 54.72C66.1651 54.4493 66.4404 54.2487 66.7578 54.118C66.5244 54.006 66.3424 53.852 66.2118 53.656C66.0811 53.4507 66.0158 53.2267 66.0158 52.984C66.0158 52.6573 66.1324 52.382 66.3658 52.158C66.6084 51.934 66.9024 51.7847 67.2478 51.71C66.9304 51.5047 66.6784 51.2433 66.4918 50.926C66.3144 50.5993 66.2258 50.24 66.2258 49.848C66.2258 49.3813 66.3331 48.9707 66.5478 48.616C66.7718 48.2613 67.1078 47.9813 67.5558 47.776C68.0131 47.5707 68.5684 47.468 69.2218 47.468C69.5204 47.468 69.8004 47.4913 70.0618 47.538C70.3231 47.5753 70.5564 47.6407 70.7618 47.734C71.0884 47.5847 71.3311 47.3933 71.4898 47.16C71.6578 46.9267 71.7604 46.6887 71.7978 46.446H73.0158C73.0158 46.726 72.9504 46.992 72.8198 47.244C72.6984 47.4867 72.5304 47.692 72.3158 47.86C72.1011 48.0187 71.8398 48.126 71.5318 48.182C71.7651 48.406 71.9378 48.658 72.0498 48.938C72.1711 49.218 72.2318 49.5213 72.2318 49.848C72.2318 50.3147 72.1198 50.73 71.8958 51.094C71.6811 51.4487 71.3544 51.7287 70.9158 51.934C70.4771 52.1393 69.9264 52.242 69.2638 52.242H68.1158C67.8638 52.242 67.6584 52.2933 67.4998 52.396C67.3411 52.4893 67.2618 52.6433 67.2618 52.858C67.2618 53.0447 67.3411 53.1987 67.4998 53.32C67.6584 53.432 67.8638 53.488 68.1158 53.488H71.1118C71.6531 53.488 72.0964 53.67 72.4418 54.034C72.7871 54.3887 72.9598 54.846 72.9598 55.406C72.9598 55.8073 72.8571 56.1667 72.6518 56.484C72.4558 56.8107 72.1758 57.0673 71.8118 57.254C71.4571 57.45 71.0418 57.548 70.5658 57.548H67.5558ZM67.9058 56.61H70.5518C70.7664 56.61 70.9624 56.5633 71.1398 56.47C71.3171 56.386 71.4571 56.2647 71.5598 56.106C71.6624 55.9473 71.7138 55.7747 71.7138 55.588C71.7138 55.2707 71.6204 55.0187 71.4338 54.832C71.2471 54.6453 71.0138 54.552 70.7338 54.552H67.9058C67.6071 54.552 67.3551 54.6547 67.1498 54.86C66.9444 55.056 66.8418 55.2987 66.8418 55.588C66.8418 55.896 66.9444 56.1433 67.1498 56.33C67.3551 56.5167 67.6071 56.61 67.9058 56.61ZM69.2358 51.318C69.8331 51.318 70.2764 51.1873 70.5658 50.926C70.8551 50.6647 70.9998 50.3053 70.9998 49.848C70.9998 49.4 70.8551 49.0453 70.5658 48.784C70.2764 48.5227 69.8331 48.392 69.2358 48.392C68.6384 48.392 68.1904 48.5227 67.8918 48.784C67.6024 49.0453 67.4578 49.4 67.4578 49.848C67.4578 50.1373 67.5231 50.394 67.6538 50.618C67.7844 50.842 67.9804 51.0147 68.2418 51.136C68.5031 51.2573 68.8344 51.318 69.2358 51.318ZM74.0051 55V44.878H75.2371V48.56H75.3351C75.5217 48.308 75.7317 48.1027 75.9651 47.944C76.1984 47.7853 76.4551 47.6687 76.7351 47.594C77.0244 47.51 77.3371 47.468 77.6731 47.468C78.1397 47.468 78.5457 47.5473 78.8911 47.706C79.2457 47.8647 79.5211 48.1213 79.7171 48.476C79.9224 48.8307 80.0251 49.3113 80.0251 49.918V55H78.7931V50.086C78.7931 49.778 78.7511 49.526 78.6671 49.33C78.5924 49.134 78.4851 48.98 78.3451 48.868C78.2144 48.756 78.0511 48.6767 77.8551 48.63C77.6684 48.5833 77.4584 48.56 77.2251 48.56C76.8797 48.56 76.5531 48.644 76.2451 48.812C75.9371 48.9707 75.6897 49.2087 75.5031 49.526C75.3257 49.834 75.2371 50.2167 75.2371 50.674V55H74.0051ZM83.5318 55.168C83.1491 55.168 82.8504 55.098 82.6358 54.958C82.4211 54.8087 82.2671 54.6173 82.1738 54.384C82.0804 54.1413 82.0338 53.8847 82.0338 53.614V48.672H81.0818V47.636H82.0618L82.2858 45.578H83.2658V47.636H84.6518V48.672H83.2658V53.432C83.2658 53.6653 83.3078 53.8427 83.3918 53.964C83.4758 54.076 83.6344 54.132 83.8678 54.132H84.6518V54.944C84.5584 54.9907 84.4464 55.028 84.3158 55.056C84.1851 55.084 84.0498 55.1073 83.9098 55.126C83.7791 55.154 83.6531 55.168 83.5318 55.168Z" fill="#3A3A38"/><path d="M144.189 35V23.3636H148.644C149.485 23.3636 150.184 23.4962 150.74 23.7614C151.301 24.0227 151.72 24.3807 151.996 24.8352C152.276 25.2898 152.417 25.8049 152.417 26.3807C152.417 26.8542 152.326 27.2595 152.144 27.5966C151.962 27.9299 151.718 28.2008 151.411 28.4091C151.104 28.6174 150.761 28.767 150.382 28.858V28.9716C150.795 28.9943 151.191 29.1212 151.57 29.3523C151.953 29.5795 152.265 29.9015 152.507 30.3182C152.75 30.7348 152.871 31.2386 152.871 31.8295C152.871 32.4318 152.725 32.9735 152.434 33.4545C152.142 33.9318 151.703 34.3087 151.115 34.5852C150.528 34.8617 149.79 35 148.9 35H144.189ZM146.297 33.2386H148.564C149.329 33.2386 149.881 33.0928 150.218 32.8011C150.559 32.5057 150.729 32.1269 150.729 31.6648C150.729 31.3201 150.644 31.0095 150.473 30.733C150.303 30.4527 150.061 30.233 149.746 30.0739C149.432 29.911 149.057 29.8295 148.621 29.8295H146.297V33.2386ZM146.297 28.3125H148.382C148.746 28.3125 149.074 28.2462 149.365 28.1136C149.657 27.9773 149.886 27.786 150.053 27.5398C150.223 27.2898 150.309 26.9943 150.309 26.6534C150.309 26.2027 150.15 25.8314 149.831 25.5398C149.517 25.2481 149.049 25.1023 148.428 25.1023H146.297V28.3125ZM160.001 31.3295V26.2727H162.057V35H160.063V33.4489H159.972C159.775 33.9375 159.451 34.3371 159.001 34.6477C158.554 34.9583 158.002 35.1136 157.347 35.1136C156.775 35.1136 156.269 34.9867 155.83 34.733C155.394 34.4754 155.054 34.1023 154.807 33.6136C154.561 33.1212 154.438 32.5265 154.438 31.8295V26.2727H156.495V31.5114C156.495 32.0644 156.646 32.5038 156.949 32.8295C157.252 33.1553 157.65 33.3182 158.143 33.3182C158.446 33.3182 158.739 33.2443 159.023 33.0966C159.307 32.9489 159.54 32.7292 159.722 32.4375C159.908 32.142 160.001 31.7727 160.001 31.3295ZM168.354 26.2727V27.8636H163.337V26.2727H168.354ZM164.576 24.1818H166.633V32.375C166.633 32.6515 166.674 32.8636 166.758 33.0114C166.845 33.1553 166.959 33.2538 167.099 33.3068C167.239 33.3598 167.394 33.3864 167.565 33.3864C167.693 33.3864 167.811 33.3769 167.917 33.358C168.027 33.339 168.11 33.322 168.167 33.3068L168.513 34.9148C168.404 34.9527 168.246 34.9943 168.042 35.0398C167.841 35.0852 167.595 35.1117 167.303 35.1193C166.788 35.1345 166.324 35.0568 165.911 34.8864C165.498 34.7121 165.171 34.4432 164.928 34.0795C164.69 33.7159 164.572 33.2614 164.576 32.7159V24.1818ZM174.256 26.2727V27.8636H169.239V26.2727H174.256ZM170.478 24.1818H172.535V32.375C172.535 32.6515 172.577 32.8636 172.66 33.0114C172.747 33.1553 172.861 33.2538 173.001 33.3068C173.141 33.3598 173.296 33.3864 173.467 33.3864C173.595 33.3864 173.713 33.3769 173.819 33.358C173.929 33.339 174.012 33.322 174.069 33.3068L174.416 34.9148C174.306 34.9527 174.149 34.9943 173.944 35.0398C173.743 35.0852 173.497 35.1117 173.205 35.1193C172.69 35.1345 172.226 35.0568 171.813 34.8864C171.4 34.7121 171.073 34.4432 170.83 34.0795C170.592 33.7159 170.474 33.2614 170.478 32.7159V24.1818ZM179.514 35.1705C178.661 35.1705 177.923 34.983 177.298 34.608C176.673 34.233 176.188 33.7083 175.843 33.0341C175.502 32.3598 175.332 31.572 175.332 30.6705C175.332 29.7689 175.502 28.9792 175.843 28.3011C176.188 27.6231 176.673 27.0966 177.298 26.7216C177.923 26.3466 178.661 26.1591 179.514 26.1591C180.366 26.1591 181.105 26.3466 181.73 26.7216C182.355 27.0966 182.838 27.6231 183.178 28.3011C183.523 28.9792 183.696 29.7689 183.696 30.6705C183.696 31.572 183.523 32.3598 183.178 33.0341C182.838 33.7083 182.355 34.233 181.73 34.608C181.105 34.983 180.366 35.1705 179.514 35.1705ZM179.525 33.5227C179.987 33.5227 180.374 33.3958 180.684 33.142C180.995 32.8845 181.226 32.5398 181.377 32.108C181.533 31.6761 181.61 31.1951 181.61 30.6648C181.61 30.1307 181.533 29.6477 181.377 29.2159C181.226 28.7803 180.995 28.4337 180.684 28.1761C180.374 27.9186 179.987 27.7898 179.525 27.7898C179.052 27.7898 178.658 27.9186 178.343 28.1761C178.033 28.4337 177.8 28.7803 177.644 29.2159C177.493 29.6477 177.417 30.1307 177.417 30.6648C177.417 31.1951 177.493 31.6761 177.644 32.108C177.8 32.5398 178.033 32.8845 178.343 33.142C178.658 33.3958 179.052 33.5227 179.525 33.5227ZM187.322 29.8864V35H185.265V26.2727H187.231V27.7557H187.333C187.534 27.267 187.854 26.8788 188.294 26.5909C188.737 26.303 189.284 26.1591 189.936 26.1591C190.538 26.1591 191.063 26.2879 191.51 26.5455C191.96 26.803 192.309 27.1761 192.555 27.6648C192.805 28.1534 192.928 28.7462 192.924 29.4432V35H190.868V29.7614C190.868 29.178 190.716 28.7216 190.413 28.392C190.114 28.0625 189.699 27.8977 189.169 27.8977C188.809 27.8977 188.489 27.9773 188.208 28.1364C187.932 28.2917 187.714 28.517 187.555 28.8125C187.4 29.108 187.322 29.4659 187.322 29.8864Z" fill="#0056E0"/><line x1="100" y1="29.5" x2="131" y2="29.5" stroke="#3A3A38"/></svg>