<svg width="439" height="154" viewBox="0 0 439 154" fill="none" xmlns="http://www.w3.org/2000/svg"><path d="M103.612 53V42.8182H104.845V51.9062H109.578V53H103.612ZM113.491 53.179C113.007 53.179 112.568 53.0878 112.173 52.9055C111.779 52.7199 111.466 52.4531 111.234 52.1051C111.002 51.7538 110.886 51.3295 110.886 50.8324C110.886 50.3949 110.972 50.0402 111.144 49.7685C111.317 49.4934 111.547 49.2779 111.835 49.1222C112.124 48.9664 112.442 48.8504 112.79 48.7741C113.141 48.6946 113.494 48.6316 113.849 48.5852C114.313 48.5256 114.689 48.4808 114.977 48.451C115.269 48.4179 115.481 48.3632 115.614 48.2869C115.75 48.2107 115.818 48.0781 115.818 47.8892V47.8494C115.818 47.3589 115.683 46.9777 115.415 46.706C115.15 46.4342 114.747 46.2983 114.207 46.2983C113.647 46.2983 113.208 46.4209 112.889 46.6662C112.571 46.9115 112.347 47.1733 112.218 47.4517L111.105 47.054C111.303 46.59 111.569 46.2287 111.9 45.9702C112.235 45.7083 112.599 45.526 112.994 45.4233C113.391 45.3172 113.783 45.2642 114.167 45.2642C114.412 45.2642 114.694 45.294 115.012 45.3537C115.334 45.41 115.644 45.5277 115.942 45.7067C116.244 45.8857 116.494 46.1558 116.693 46.517C116.891 46.8783 116.991 47.3622 116.991 47.9688V53H115.818V51.9659H115.758C115.678 52.1316 115.546 52.3089 115.36 52.4979C115.175 52.6868 114.928 52.8475 114.619 52.9801C114.311 53.1127 113.935 53.179 113.491 53.179ZM113.67 52.125C114.134 52.125 114.525 52.0339 114.843 51.8516C115.165 51.6693 115.407 51.4339 115.569 51.1456C115.735 50.8572 115.818 50.554 115.818 50.2358V49.1619C115.768 49.2216 115.659 49.2763 115.49 49.326C115.324 49.3724 115.132 49.4138 114.913 49.4503C114.697 49.4834 114.487 49.5133 114.281 49.5398C114.079 49.563 113.915 49.5829 113.789 49.5994C113.484 49.6392 113.199 49.7038 112.934 49.7933C112.672 49.8795 112.46 50.0104 112.298 50.1861C112.139 50.3584 112.059 50.5937 112.059 50.892C112.059 51.2997 112.21 51.608 112.512 51.8168C112.816 52.0223 113.203 52.125 113.67 52.125ZM119.208 53V42.8182H120.381V46.5767H120.48C120.566 46.4441 120.686 46.2751 120.838 46.0696C120.994 45.8608 121.216 45.6752 121.504 45.5128C121.796 45.3471 122.19 45.2642 122.688 45.2642C123.331 45.2642 123.897 45.425 124.388 45.7464C124.878 46.0679 125.261 46.5237 125.536 47.1136C125.811 47.7036 125.949 48.3996 125.949 49.2017C125.949 50.0104 125.811 50.7114 125.536 51.3047C125.261 51.8946 124.88 52.352 124.393 52.6768C123.906 52.9983 123.344 53.1591 122.708 53.1591C122.217 53.1591 121.824 53.0779 121.529 52.9155C121.234 52.7498 121.007 52.5625 120.848 52.3537C120.689 52.1416 120.566 51.9659 120.48 51.8267H120.341V53H119.208ZM120.361 49.1818C120.361 49.7585 120.445 50.2673 120.614 50.7081C120.784 51.1456 121.03 51.4886 121.355 51.7372C121.68 51.9825 122.078 52.1051 122.548 52.1051C123.039 52.1051 123.448 51.9759 123.776 51.7173C124.108 51.4555 124.356 51.1042 124.522 50.6634C124.691 50.2192 124.776 49.7254 124.776 49.1818C124.776 48.6449 124.693 48.161 124.527 47.7301C124.365 47.2959 124.118 46.9529 123.786 46.701C123.458 46.4458 123.046 46.3182 122.548 46.3182C122.071 46.3182 121.67 46.4392 121.345 46.6811C121.021 46.9197 120.775 47.2545 120.61 47.6854C120.444 48.1129 120.361 48.6117 120.361 49.1818ZM130.861 53.1591C130.126 53.1591 129.491 52.9967 128.957 52.6719C128.427 52.3438 128.018 51.8864 127.729 51.2997C127.444 50.7098 127.302 50.0237 127.302 49.2415C127.302 48.4593 127.444 47.7699 127.729 47.1733C128.018 46.5734 128.419 46.1061 128.932 45.7713C129.45 45.4332 130.053 45.2642 130.742 45.2642C131.14 45.2642 131.533 45.3305 131.92 45.4631C132.308 45.5956 132.661 45.8111 132.979 46.1094C133.298 46.4044 133.551 46.7955 133.74 47.2827C133.929 47.7699 134.023 48.3698 134.023 49.0824V49.5795H128.137V48.5653H132.83C132.83 48.1345 132.744 47.75 132.572 47.4119C132.403 47.0739 132.161 46.8071 131.846 46.6115C131.534 46.416 131.166 46.3182 130.742 46.3182C130.275 46.3182 129.87 46.4342 129.529 46.6662C129.191 46.8949 128.931 47.1932 128.749 47.5611C128.566 47.929 128.475 48.3234 128.475 48.7443V49.4205C128.475 49.9972 128.575 50.486 128.773 50.8871C128.976 51.2848 129.256 51.5881 129.614 51.7969C129.972 52.0024 130.387 52.1051 130.861 52.1051C131.17 52.1051 131.448 52.062 131.697 51.9759C131.949 51.8864 132.166 51.7538 132.348 51.5781C132.53 51.3991 132.671 51.1771 132.771 50.9119L133.904 51.2301C133.785 51.6146 133.584 51.9527 133.303 52.2443C133.021 52.5327 132.673 52.758 132.258 52.9205C131.844 53.0795 131.379 53.1591 130.861 53.1591ZM136.897 42.8182V53H135.724V42.8182H136.897Z" fill="#26252A"/><path d="M141.576 48.5455L141.69 46.532L140 47.6406L139.393 46.5866L141.198 45.6818L139.393 44.777L140 43.723L141.69 44.8317L141.576 42.8182H142.784L142.674 44.8317L144.365 43.723L144.971 44.777L143.162 45.6818L144.971 46.5866L144.365 47.6406L142.674 46.532L142.784 48.5455H141.576Z" fill="#CB2233"/><path d="M160.879 51C160.879 51.2761 160.655 51.5 160.379 51.5C160.103 51.5 159.879 51.2761 159.879 51C159.879 50.7239 160.103 50.5 160.379 50.5C160.655 50.5 160.879 50.7239 160.879 51Z" fill="#26252A"/><path d="M160.379 45C159.827 45 159.379 45.4477 159.379 46C159.379 46.2761 159.155 46.5 158.879 46.5C158.603 46.5 158.379 46.2761 158.379 46C158.379 44.8954 159.274 44 160.379 44H160.704C161.767 44 162.629 44.8619 162.629 45.9251V46.09C162.629 46.8519 162.124 47.5215 161.391 47.7308C161.088 47.8174 160.879 48.0946 160.879 48.41V48.5C160.879 48.7761 160.655 49 160.379 49C160.103 49 159.879 48.7761 159.879 48.5V48.41C159.879 47.6481 160.384 46.9785 161.117 46.7692C161.42 46.6826 161.629 46.4054 161.629 46.09V45.9251C161.629 45.4142 161.215 45 160.704 45H160.379Z" fill="#26252A"/><path fill-rule="evenodd" clip-rule="evenodd" d="M160.379 55C164.245 55 167.379 51.866 167.379 48C167.379 44.134 164.245 41 160.379 41C156.513 41 153.379 44.134 153.379 48C153.379 51.866 156.513 55 160.379 55ZM160.379 54C163.693 54 166.379 51.3137 166.379 48C166.379 44.6863 163.693 42 160.379 42C157.065 42 154.379 44.6863 154.379 48C154.379 51.3137 157.065 54 160.379 54Z" fill="#26252A"/><rect x="102.379" y="62" width="320" height="48" rx="6" fill="#F4F3EE"/><path d="M119.788 92V80.3636H123.72C124.633 80.3636 125.379 80.5284 125.958 80.858C126.542 81.1837 126.974 81.625 127.254 82.1818C127.534 82.7386 127.674 83.3598 127.674 84.0455C127.674 84.7311 127.534 85.3542 127.254 85.9148C126.977 86.4754 126.549 86.9223 125.97 87.2557C125.39 87.5852 124.648 87.75 123.743 87.75H120.924V86.5H123.697C124.322 86.5 124.824 86.392 125.203 86.1761C125.582 85.9602 125.856 85.6686 126.027 85.3011C126.201 84.9299 126.288 84.5114 126.288 84.0455C126.288 83.5795 126.201 83.1629 126.027 82.7955C125.856 82.428 125.58 82.1402 125.197 81.9318C124.815 81.7197 124.307 81.6136 123.674 81.6136H121.197V92H119.788ZM130.927 80.3636V92H129.586V80.3636H130.927ZM135.775 92.2045C135.222 92.2045 134.721 92.1004 134.27 91.892C133.819 91.6799 133.461 91.375 133.196 90.9773C132.931 90.5758 132.798 90.0909 132.798 89.5227C132.798 89.0227 132.897 88.6174 133.094 88.3068C133.291 87.9924 133.554 87.7462 133.883 87.5682C134.213 87.3902 134.577 87.2576 134.974 87.1705C135.376 87.0795 135.779 87.0076 136.185 86.9545C136.715 86.8864 137.145 86.8352 137.474 86.8011C137.808 86.7633 138.05 86.7008 138.202 86.6136C138.357 86.5265 138.435 86.375 138.435 86.1591V86.1136C138.435 85.553 138.281 85.1174 137.974 84.8068C137.671 84.4962 137.211 84.3409 136.594 84.3409C135.954 84.3409 135.452 84.4811 135.088 84.7614C134.724 85.0417 134.469 85.3409 134.321 85.6591L133.048 85.2045C133.275 84.6742 133.579 84.2614 133.957 83.9659C134.34 83.6667 134.757 83.4583 135.207 83.3409C135.662 83.2197 136.109 83.1591 136.548 83.1591C136.829 83.1591 137.15 83.1932 137.514 83.2614C137.882 83.3258 138.236 83.4602 138.577 83.6648C138.921 83.8693 139.207 84.178 139.435 84.5909C139.662 85.0038 139.775 85.5568 139.775 86.25V92H138.435V90.8182H138.366C138.275 91.0076 138.124 91.2102 137.912 91.4261C137.7 91.642 137.418 91.8258 137.065 91.9773C136.713 92.1288 136.283 92.2045 135.775 92.2045ZM135.98 91C136.51 91 136.957 90.8958 137.321 90.6875C137.688 90.4792 137.965 90.2102 138.15 89.8807C138.34 89.5511 138.435 89.2045 138.435 88.8409V87.6136C138.378 87.6818 138.253 87.7443 138.06 87.8011C137.87 87.8542 137.65 87.9015 137.4 87.9432C137.154 87.9811 136.914 88.0152 136.679 88.0455C136.448 88.072 136.26 88.0947 136.116 88.1136C135.768 88.1591 135.442 88.233 135.139 88.3352C134.84 88.4337 134.597 88.5833 134.412 88.7841C134.23 88.9811 134.139 89.25 134.139 89.5909C134.139 90.0568 134.311 90.4091 134.656 90.6477C135.005 90.8826 135.446 91 135.98 91ZM145.592 92.1818C144.774 92.1818 144.07 91.9886 143.479 91.6023C142.888 91.2159 142.433 90.6837 142.115 90.0057C141.797 89.3277 141.638 88.553 141.638 87.6818C141.638 86.7955 141.801 86.0133 142.126 85.3352C142.456 84.6534 142.914 84.1212 143.501 83.7386C144.092 83.3523 144.782 83.1591 145.57 83.1591C146.183 83.1591 146.736 83.2727 147.229 83.5C147.721 83.7273 148.125 84.0455 148.439 84.4545C148.753 84.8636 148.948 85.3409 149.024 85.8864H147.683C147.581 85.4886 147.354 85.1364 147.001 84.8295C146.653 84.5189 146.183 84.3636 145.592 84.3636C145.07 84.3636 144.611 84.5 144.217 84.7727C143.827 85.0417 143.522 85.4223 143.303 85.9148C143.087 86.4034 142.979 86.9773 142.979 87.6364C142.979 88.3106 143.085 88.8977 143.297 89.3977C143.513 89.8977 143.816 90.286 144.206 90.5625C144.6 90.839 145.062 90.9773 145.592 90.9773C145.941 90.9773 146.257 90.9167 146.541 90.7955C146.825 90.6742 147.066 90.5 147.263 90.2727C147.46 90.0455 147.6 89.7727 147.683 89.4545H149.024C148.948 89.9697 148.761 90.4337 148.462 90.8466C148.166 91.2557 147.774 91.5814 147.286 91.8239C146.801 92.0625 146.236 92.1818 145.592 92.1818ZM154.468 92.1818C153.627 92.1818 152.901 91.9962 152.291 91.625C151.685 91.25 151.218 90.7273 150.888 90.0568C150.562 89.3826 150.399 88.5985 150.399 87.7045C150.399 86.8106 150.562 86.0227 150.888 85.3409C151.218 84.6553 151.676 84.1212 152.263 83.7386C152.854 83.3523 153.543 83.1591 154.331 83.1591C154.786 83.1591 155.235 83.2348 155.678 83.3864C156.121 83.5379 156.524 83.7841 156.888 84.125C157.252 84.4621 157.541 84.9091 157.757 85.4659C157.973 86.0227 158.081 86.7083 158.081 87.5227V88.0909H151.354V86.9318H156.718C156.718 86.4394 156.619 86 156.422 85.6136C156.229 85.2273 155.952 84.9223 155.593 84.6989C155.236 84.4754 154.816 84.3636 154.331 84.3636C153.797 84.3636 153.335 84.4962 152.945 84.7614C152.558 85.0227 152.261 85.3636 152.053 85.7841C151.844 86.2045 151.74 86.6553 151.74 87.1364V87.9091C151.74 88.5682 151.854 89.1269 152.081 89.5852C152.312 90.0398 152.632 90.3864 153.041 90.625C153.45 90.8598 153.926 90.9773 154.468 90.9773C154.82 90.9773 155.138 90.928 155.422 90.8295C155.71 90.7273 155.958 90.5758 156.166 90.375C156.375 90.1705 156.536 89.9167 156.649 89.6136L157.945 89.9773C157.808 90.4167 157.579 90.803 157.257 91.1364C156.935 91.4659 156.538 91.7235 156.064 91.9091C155.591 92.0909 155.058 92.1818 154.468 92.1818ZM161.286 86.75V92H159.945V80.3636H161.286V84.6364H161.399C161.604 84.1856 161.911 83.8277 162.32 83.5625C162.733 83.2936 163.282 83.1591 163.968 83.1591C164.562 83.1591 165.083 83.2784 165.53 83.517C165.977 83.7519 166.324 84.1136 166.57 84.6023C166.82 85.0871 166.945 85.7045 166.945 86.4545V92H165.604V86.5455C165.604 85.8523 165.424 85.3163 165.064 84.9375C164.708 84.5549 164.214 84.3636 163.581 84.3636C163.142 84.3636 162.748 84.4564 162.399 84.642C162.055 84.8277 161.782 85.0985 161.581 85.4545C161.384 85.8106 161.286 86.2424 161.286 86.75ZM172.768 92.1818C171.98 92.1818 171.288 91.9943 170.694 91.6193C170.103 91.2443 169.641 90.7197 169.307 90.0455C168.978 89.3712 168.813 88.5833 168.813 87.6818C168.813 86.7727 168.978 85.9792 169.307 85.3011C169.641 84.6231 170.103 84.0966 170.694 83.7216C171.288 83.3466 171.98 83.1591 172.768 83.1591C173.555 83.1591 174.245 83.3466 174.836 83.7216C175.43 84.0966 175.893 84.6231 176.222 85.3011C176.555 85.9792 176.722 86.7727 176.722 87.6818C176.722 88.5833 176.555 89.3712 176.222 90.0455C175.893 90.7197 175.43 91.2443 174.836 91.6193C174.245 91.9943 173.555 92.1818 172.768 92.1818ZM172.768 90.9773C173.366 90.9773 173.858 90.8239 174.245 90.517C174.631 90.2102 174.917 89.8068 175.103 89.3068C175.288 88.8068 175.381 88.2652 175.381 87.6818C175.381 87.0985 175.288 86.5549 175.103 86.0511C174.917 85.5473 174.631 85.1402 174.245 84.8295C173.858 84.5189 173.366 84.3636 172.768 84.3636C172.169 84.3636 171.677 84.5189 171.29 84.8295C170.904 85.1402 170.618 85.5473 170.432 86.0511C170.247 86.5549 170.154 87.0985 170.154 87.6818C170.154 88.2652 170.247 88.8068 170.432 89.3068C170.618 89.8068 170.904 90.2102 171.29 90.517C171.677 90.8239 172.169 90.9773 172.768 90.9773ZM179.934 80.3636V92H178.593V80.3636H179.934ZM185.509 92.1818C184.782 92.1818 184.14 91.9981 183.583 91.6307C183.026 91.2595 182.591 90.7367 182.276 90.0625C181.962 89.3845 181.805 88.5833 181.805 87.6591C181.805 86.7424 181.962 85.947 182.276 85.2727C182.591 84.5985 183.028 84.0777 183.589 83.7102C184.149 83.3428 184.797 83.1591 185.532 83.1591C186.1 83.1591 186.549 83.2538 186.879 83.4432C187.212 83.6288 187.466 83.8409 187.64 84.0795C187.818 84.3144 187.956 84.5076 188.055 84.6591H188.168V80.3636H189.509V92H188.214V90.6591H188.055C187.956 90.8182 187.816 91.0189 187.634 91.2614C187.452 91.5 187.193 91.714 186.856 91.9034C186.519 92.089 186.07 92.1818 185.509 92.1818ZM185.691 90.9773C186.229 90.9773 186.684 90.8371 187.055 90.5568C187.426 90.2727 187.708 89.8807 187.901 89.3807C188.094 88.8769 188.191 88.2955 188.191 87.6364C188.191 86.9848 188.096 86.4148 187.907 85.9261C187.718 85.4337 187.437 85.0511 187.066 84.7784C186.695 84.5019 186.237 84.3636 185.691 84.3636C185.123 84.3636 184.649 84.5095 184.271 84.8011C183.896 85.089 183.613 85.4811 183.424 85.9773C183.238 86.4697 183.146 87.0227 183.146 87.6364C183.146 88.2576 183.24 88.822 183.43 89.3295C183.623 89.8333 183.907 90.2348 184.282 90.5341C184.661 90.8295 185.13 90.9773 185.691 90.9773ZM195.634 92.1818C194.793 92.1818 194.068 91.9962 193.458 91.625C192.852 91.25 192.384 90.7273 192.055 90.0568C191.729 89.3826 191.566 88.5985 191.566 87.7045C191.566 86.8106 191.729 86.0227 192.055 85.3409C192.384 84.6553 192.843 84.1212 193.43 83.7386C194.021 83.3523 194.71 83.1591 195.498 83.1591C195.953 83.1591 196.401 83.2348 196.845 83.3864C197.288 83.5379 197.691 83.7841 198.055 84.125C198.418 84.4621 198.708 84.9091 198.924 85.4659C199.14 86.0227 199.248 86.7083 199.248 87.5227V88.0909H192.521V86.9318H197.884C197.884 86.4394 197.786 86 197.589 85.6136C197.396 85.2273 197.119 84.9223 196.759 84.6989C196.403 84.4754 195.983 84.3636 195.498 84.3636C194.964 84.3636 194.502 84.4962 194.112 84.7614C193.725 85.0227 193.428 85.3636 193.22 85.7841C193.011 86.2045 192.907 86.6553 192.907 87.1364V87.9091C192.907 88.5682 193.021 89.1269 193.248 89.5852C193.479 90.0398 193.799 90.3864 194.208 90.625C194.617 90.8598 195.093 90.9773 195.634 90.9773C195.987 90.9773 196.305 90.928 196.589 90.8295C196.877 90.7273 197.125 90.5758 197.333 90.375C197.542 90.1705 197.703 89.9167 197.816 89.6136L199.112 89.9773C198.975 90.4167 198.746 90.803 198.424 91.1364C198.102 91.4659 197.704 91.7235 197.231 91.9091C196.758 92.0909 196.225 92.1818 195.634 92.1818ZM201.112 92V83.2727H202.407V84.5909H202.498C202.657 84.1591 202.945 83.8087 203.362 83.5398C203.778 83.2708 204.248 83.1364 204.771 83.1364C204.869 83.1364 204.992 83.1383 205.14 83.142C205.288 83.1458 205.4 83.1515 205.475 83.1591V84.5227C205.43 84.5114 205.326 84.4943 205.163 84.4716C205.004 84.4451 204.835 84.4318 204.657 84.4318C204.233 84.4318 203.854 84.5208 203.521 84.6989C203.191 84.8731 202.93 85.1155 202.737 85.4261C202.547 85.733 202.453 86.0833 202.453 86.4773V92H201.112Z" fill="#6C6862"/><path d="M102.958 118.21V117.273H109.504V118.21H106.76V126H105.703V118.21H102.958ZM112.004 122.062V126H110.999V117.273H112.004V120.477H112.089C112.243 120.139 112.473 119.871 112.78 119.672C113.089 119.47 113.501 119.369 114.016 119.369C114.462 119.369 114.852 119.459 115.188 119.638C115.523 119.814 115.783 120.085 115.967 120.452C116.155 120.815 116.249 121.278 116.249 121.841V126H115.243V121.909C115.243 121.389 115.108 120.987 114.838 120.703C114.571 120.416 114.2 120.273 113.726 120.273C113.396 120.273 113.101 120.342 112.839 120.482C112.581 120.621 112.376 120.824 112.226 121.091C112.078 121.358 112.004 121.682 112.004 122.062ZM118.088 126V119.455H119.094V126H118.088ZM118.6 118.364C118.404 118.364 118.235 118.297 118.093 118.163C117.953 118.03 117.884 117.869 117.884 117.682C117.884 117.494 117.953 117.334 118.093 117.2C118.235 117.067 118.404 117 118.6 117C118.796 117 118.963 117.067 119.103 117.2C119.245 117.334 119.316 117.494 119.316 117.682C119.316 117.869 119.245 118.03 119.103 118.163C118.963 118.297 118.796 118.364 118.6 118.364ZM125.572 120.92L124.669 121.176C124.612 121.026 124.528 120.879 124.418 120.737C124.31 120.592 124.162 120.473 123.974 120.379C123.787 120.286 123.547 120.239 123.254 120.239C122.854 120.239 122.52 120.331 122.253 120.516C121.989 120.697 121.857 120.929 121.857 121.21C121.857 121.46 121.947 121.658 122.129 121.803C122.311 121.947 122.595 122.068 122.982 122.165L123.953 122.403C124.538 122.545 124.974 122.763 125.261 123.055C125.548 123.345 125.692 123.719 125.692 124.176C125.692 124.551 125.584 124.886 125.368 125.182C125.155 125.477 124.857 125.71 124.473 125.881C124.089 126.051 123.643 126.136 123.135 126.136C122.467 126.136 121.915 125.991 121.477 125.702C121.04 125.412 120.763 124.989 120.646 124.432L121.601 124.193C121.692 124.545 121.864 124.81 122.116 124.986C122.372 125.162 122.706 125.25 123.118 125.25C123.587 125.25 123.959 125.151 124.234 124.952C124.513 124.75 124.652 124.509 124.652 124.227C124.652 124 124.572 123.81 124.413 123.656C124.254 123.5 124.01 123.384 123.68 123.307L122.589 123.051C121.99 122.909 121.55 122.689 121.268 122.391C120.99 122.089 120.851 121.713 120.851 121.261C120.851 120.892 120.955 120.565 121.162 120.281C121.372 119.997 121.658 119.774 122.018 119.612C122.382 119.45 122.794 119.369 123.254 119.369C123.902 119.369 124.411 119.511 124.78 119.795C125.152 120.08 125.416 120.455 125.572 120.92ZM130.581 126V119.455H131.586V126H130.581ZM131.092 118.364C130.896 118.364 130.727 118.297 130.585 118.163C130.446 118.03 130.376 117.869 130.376 117.682C130.376 117.494 130.446 117.334 130.585 117.2C130.727 117.067 130.896 117 131.092 117C131.288 117 131.456 117.067 131.595 117.2C131.737 117.334 131.808 117.494 131.808 117.682C131.808 117.869 131.737 118.03 131.595 118.163C131.456 118.297 131.288 118.364 131.092 118.364ZM138.065 120.92L137.161 121.176C137.104 121.026 137.021 120.879 136.91 120.737C136.802 120.592 136.654 120.473 136.467 120.379C136.279 120.286 136.039 120.239 135.746 120.239C135.346 120.239 135.012 120.331 134.745 120.516C134.481 120.697 134.349 120.929 134.349 121.21C134.349 121.46 134.44 121.658 134.621 121.803C134.803 121.947 135.087 122.068 135.474 122.165L136.445 122.403C137.031 122.545 137.467 122.763 137.754 123.055C138.04 123.345 138.184 123.719 138.184 124.176C138.184 124.551 138.076 124.886 137.86 125.182C137.647 125.477 137.349 125.71 136.965 125.881C136.582 126.051 136.136 126.136 135.627 126.136C134.96 126.136 134.407 125.991 133.969 125.702C133.532 125.412 133.255 124.989 133.138 124.432L134.093 124.193C134.184 124.545 134.356 124.81 134.609 124.986C134.864 125.162 135.198 125.25 135.61 125.25C136.079 125.25 136.451 125.151 136.727 124.952C137.005 124.75 137.144 124.509 137.144 124.227C137.144 124 137.065 123.81 136.906 123.656C136.746 123.5 136.502 123.384 136.173 123.307L135.082 123.051C134.482 122.909 134.042 122.689 133.761 122.391C133.482 122.089 133.343 121.713 133.343 121.261C133.343 120.892 133.447 120.565 133.654 120.281C133.864 119.997 134.15 119.774 134.511 119.612C134.874 119.45 135.286 119.369 135.746 119.369C136.394 119.369 136.903 119.511 137.272 119.795C137.644 120.08 137.908 120.455 138.065 120.92ZM144.999 126.153C144.584 126.153 144.208 126.075 143.87 125.919C143.532 125.76 143.263 125.531 143.064 125.233C142.865 124.932 142.766 124.568 142.766 124.142C142.766 123.767 142.84 123.463 142.988 123.23C143.135 122.994 143.333 122.81 143.58 122.676C143.827 122.543 144.1 122.443 144.398 122.378C144.699 122.31 145.002 122.256 145.306 122.216C145.703 122.165 146.026 122.126 146.273 122.101C146.523 122.072 146.705 122.026 146.819 121.96C146.935 121.895 146.993 121.781 146.993 121.619V121.585C146.993 121.165 146.878 120.838 146.648 120.605C146.421 120.372 146.076 120.256 145.613 120.256C145.132 120.256 144.756 120.361 144.483 120.571C144.211 120.781 144.019 121.006 143.908 121.244L142.953 120.903C143.124 120.506 143.351 120.196 143.635 119.974C143.922 119.75 144.235 119.594 144.573 119.506C144.914 119.415 145.249 119.369 145.578 119.369C145.789 119.369 146.03 119.395 146.303 119.446C146.578 119.494 146.844 119.595 147.1 119.749C147.358 119.902 147.573 120.134 147.743 120.443C147.914 120.753 147.999 121.168 147.999 121.688V126H146.993V125.114H146.942C146.874 125.256 146.76 125.408 146.601 125.57C146.442 125.732 146.23 125.869 145.966 125.983C145.702 126.097 145.38 126.153 144.999 126.153ZM145.152 125.25C145.55 125.25 145.885 125.172 146.158 125.016C146.434 124.859 146.641 124.658 146.78 124.411C146.922 124.163 146.993 123.903 146.993 123.631V122.71C146.951 122.761 146.857 122.808 146.712 122.851C146.57 122.891 146.405 122.926 146.218 122.957C146.033 122.986 145.853 123.011 145.676 123.034C145.503 123.054 145.363 123.071 145.255 123.085C144.993 123.119 144.749 123.175 144.522 123.251C144.297 123.325 144.115 123.437 143.976 123.588C143.84 123.736 143.772 123.937 143.772 124.193C143.772 124.543 143.901 124.807 144.159 124.986C144.421 125.162 144.752 125.25 145.152 125.25ZM154.215 122.062V126H153.21V117.273H154.215V120.477H154.3C154.454 120.139 154.684 119.871 154.991 119.672C155.3 119.47 155.712 119.369 156.227 119.369C156.673 119.369 157.063 119.459 157.398 119.638C157.734 119.814 157.994 120.085 158.178 120.452C158.366 120.815 158.46 121.278 158.46 121.841V126H157.454V121.909C157.454 121.389 157.319 120.987 157.049 120.703C156.782 120.416 156.411 120.273 155.937 120.273C155.607 120.273 155.312 120.342 155.05 120.482C154.792 120.621 154.587 120.824 154.437 121.091C154.289 121.358 154.215 121.682 154.215 122.062ZM160.299 126V119.455H161.305V126H160.299ZM160.811 118.364C160.615 118.364 160.446 118.297 160.304 118.163C160.164 118.03 160.095 117.869 160.095 117.682C160.095 117.494 160.164 117.334 160.304 117.2C160.446 117.067 160.615 117 160.811 117C161.007 117 161.174 117.067 161.314 117.2C161.456 117.334 161.527 117.494 161.527 117.682C161.527 117.869 161.456 118.03 161.314 118.163C161.174 118.297 161.007 118.364 160.811 118.364ZM164.153 122.062V126H163.147V119.455H164.119V120.477H164.204C164.357 120.145 164.59 119.878 164.903 119.676C165.215 119.472 165.619 119.369 166.113 119.369C166.556 119.369 166.944 119.46 167.276 119.642C167.609 119.821 167.867 120.094 168.052 120.46C168.237 120.824 168.329 121.284 168.329 121.841V126H167.323V121.909C167.323 121.395 167.19 120.994 166.923 120.707C166.656 120.418 166.289 120.273 165.823 120.273C165.502 120.273 165.215 120.342 164.962 120.482C164.712 120.621 164.515 120.824 164.37 121.091C164.225 121.358 164.153 121.682 164.153 122.062ZM173.013 119.455V120.307H169.621V119.455H173.013ZM170.61 117.886H171.615V124.125C171.615 124.409 171.657 124.622 171.739 124.764C171.824 124.903 171.932 124.997 172.063 125.045C172.196 125.091 172.337 125.114 172.485 125.114C172.596 125.114 172.686 125.108 172.757 125.097C172.828 125.082 172.885 125.071 172.928 125.062L173.132 125.966C173.064 125.991 172.969 126.017 172.847 126.043C172.725 126.071 172.57 126.085 172.382 126.085C172.098 126.085 171.82 126.024 171.547 125.902C171.277 125.78 171.053 125.594 170.874 125.344C170.698 125.094 170.61 124.778 170.61 124.398V117.886ZM180.748 119.455V120.307H177.355V119.455H180.748ZM178.344 117.886H179.35V124.125C179.35 124.409 179.391 124.622 179.473 124.764C179.559 124.903 179.667 124.997 179.797 125.045C179.931 125.091 180.071 125.114 180.219 125.114C180.33 125.114 180.421 125.108 180.492 125.097C180.563 125.082 180.62 125.071 180.662 125.062L180.867 125.966C180.799 125.991 180.703 126.017 180.581 126.043C180.459 126.071 180.304 126.085 180.117 126.085C179.833 126.085 179.554 126.024 179.282 125.902C179.012 125.78 178.787 125.594 178.608 125.344C178.432 125.094 178.344 124.778 178.344 124.398V117.886ZM184.849 126.136C184.258 126.136 183.74 125.996 183.294 125.714C182.85 125.433 182.504 125.04 182.254 124.534C182.007 124.028 181.883 123.437 181.883 122.761C181.883 122.08 182.007 121.484 182.254 120.976C182.504 120.467 182.85 120.072 183.294 119.791C183.74 119.51 184.258 119.369 184.849 119.369C185.44 119.369 185.957 119.51 186.4 119.791C186.846 120.072 187.193 120.467 187.44 120.976C187.69 121.484 187.815 122.08 187.815 122.761C187.815 123.437 187.69 124.028 187.44 124.534C187.193 125.04 186.846 125.433 186.4 125.714C185.957 125.996 185.44 126.136 184.849 126.136ZM184.849 125.233C185.298 125.233 185.667 125.118 185.957 124.888C186.247 124.658 186.461 124.355 186.6 123.98C186.74 123.605 186.809 123.199 186.809 122.761C186.809 122.324 186.74 121.916 186.6 121.538C186.461 121.161 186.247 120.855 185.957 120.622C185.667 120.389 185.298 120.273 184.849 120.273C184.4 120.273 184.031 120.389 183.741 120.622C183.451 120.855 183.237 121.161 183.098 121.538C182.958 121.916 182.889 122.324 182.889 122.761C182.889 123.199 182.958 123.605 183.098 123.98C183.237 124.355 183.451 124.658 183.741 124.888C184.031 125.118 184.4 125.233 184.849 125.233ZM193.731 122.062V126H192.725V117.273H193.731V120.477H193.816C193.969 120.139 194.2 119.871 194.506 119.672C194.816 119.47 195.228 119.369 195.742 119.369C196.188 119.369 196.579 119.459 196.914 119.638C197.249 119.814 197.509 120.085 197.694 120.452C197.881 120.815 197.975 121.278 197.975 121.841V126H196.969V121.909C196.969 121.389 196.835 120.987 196.565 120.703C196.298 120.416 195.927 120.273 195.452 120.273C195.123 120.273 194.827 120.342 194.566 120.482C194.308 120.621 194.103 120.824 193.952 121.091C193.805 121.358 193.731 121.682 193.731 122.062ZM202.559 126.136C201.929 126.136 201.385 125.997 200.927 125.719C200.473 125.438 200.122 125.045 199.875 124.543C199.63 124.037 199.508 123.449 199.508 122.778C199.508 122.108 199.63 121.517 199.875 121.006C200.122 120.491 200.466 120.091 200.906 119.804C201.349 119.514 201.866 119.369 202.457 119.369C202.798 119.369 203.135 119.426 203.467 119.54C203.799 119.653 204.102 119.838 204.375 120.094C204.647 120.347 204.865 120.682 205.027 121.099C205.189 121.517 205.27 122.031 205.27 122.642V123.068H200.224V122.199H204.247C204.247 121.83 204.173 121.5 204.025 121.21C203.88 120.92 203.673 120.692 203.403 120.524C203.136 120.357 202.821 120.273 202.457 120.273C202.056 120.273 201.71 120.372 201.417 120.571C201.127 120.767 200.904 121.023 200.748 121.338C200.592 121.653 200.514 121.991 200.514 122.352V122.932C200.514 123.426 200.599 123.845 200.77 124.189C200.943 124.53 201.183 124.79 201.49 124.969C201.797 125.145 202.153 125.233 202.559 125.233C202.824 125.233 203.062 125.196 203.275 125.122C203.491 125.045 203.677 124.932 203.833 124.781C203.99 124.628 204.11 124.437 204.196 124.21L205.167 124.483C205.065 124.812 204.893 125.102 204.652 125.352C204.41 125.599 204.112 125.793 203.757 125.932C203.402 126.068 203.002 126.136 202.559 126.136ZM207.805 117.273V126H206.799V117.273H207.805ZM209.647 128.455V119.455H210.619V120.494H210.738C210.812 120.381 210.914 120.236 211.045 120.06C211.178 119.881 211.369 119.722 211.616 119.582C211.866 119.44 212.204 119.369 212.63 119.369C213.181 119.369 213.667 119.507 214.087 119.783C214.508 120.058 214.836 120.449 215.072 120.955C215.308 121.46 215.425 122.057 215.425 122.744C215.425 123.438 215.308 124.038 215.072 124.547C214.836 125.053 214.509 125.445 214.092 125.723C213.674 125.999 213.192 126.136 212.647 126.136C212.227 126.136 211.89 126.067 211.637 125.928C211.384 125.786 211.19 125.625 211.053 125.446C210.917 125.264 210.812 125.114 210.738 124.994H210.653V128.455H209.647ZM210.636 122.727C210.636 123.222 210.708 123.658 210.853 124.036C210.998 124.411 211.21 124.705 211.488 124.918C211.766 125.128 212.107 125.233 212.511 125.233C212.931 125.233 213.282 125.122 213.563 124.901C213.847 124.676 214.06 124.375 214.202 123.997C214.347 123.616 214.42 123.193 214.42 122.727C214.42 122.267 214.349 121.852 214.207 121.483C214.067 121.111 213.856 120.817 213.572 120.601C213.29 120.382 212.937 120.273 212.511 120.273C212.102 120.273 211.758 120.376 211.479 120.584C211.201 120.788 210.991 121.075 210.849 121.445C210.707 121.811 210.636 122.239 210.636 122.727ZM224.46 123.324V119.455H225.465V126H224.46V124.892H224.391C224.238 125.224 223.999 125.507 223.675 125.74C223.352 125.97 222.942 126.085 222.448 126.085C222.039 126.085 221.675 125.996 221.357 125.817C221.039 125.635 220.789 125.362 220.607 124.999C220.425 124.632 220.335 124.17 220.335 123.614V119.455H221.34V123.545C221.34 124.023 221.474 124.403 221.741 124.688C222.011 124.972 222.354 125.114 222.772 125.114C223.022 125.114 223.276 125.05 223.535 124.922C223.796 124.794 224.015 124.598 224.191 124.334C224.37 124.07 224.46 123.733 224.46 123.324ZM231.944 120.92L231.04 121.176C230.983 121.026 230.9 120.879 230.789 120.737C230.681 120.592 230.533 120.473 230.346 120.379C230.158 120.286 229.918 120.239 229.625 120.239C229.225 120.239 228.891 120.331 228.624 120.516C228.36 120.697 228.228 120.929 228.228 121.21C228.228 121.46 228.319 121.658 228.5 121.803C228.682 121.947 228.966 122.068 229.353 122.165L230.324 122.403C230.909 122.545 231.346 122.763 231.632 123.055C231.919 123.345 232.063 123.719 232.063 124.176C232.063 124.551 231.955 124.886 231.739 125.182C231.526 125.477 231.228 125.71 230.844 125.881C230.461 126.051 230.015 126.136 229.506 126.136C228.838 126.136 228.286 125.991 227.848 125.702C227.411 125.412 227.134 124.989 227.017 124.432L227.972 124.193C228.063 124.545 228.235 124.81 228.488 124.986C228.743 125.162 229.077 125.25 229.489 125.25C229.958 125.25 230.33 125.151 230.605 124.952C230.884 124.75 231.023 124.509 231.023 124.227C231.023 124 230.944 123.81 230.784 123.656C230.625 123.5 230.381 123.384 230.051 123.307L228.961 123.051C228.361 122.909 227.921 122.689 227.64 122.391C227.361 122.089 227.222 121.713 227.222 121.261C227.222 120.892 227.326 120.565 227.533 120.281C227.743 119.997 228.029 119.774 228.39 119.612C228.753 119.45 229.165 119.369 229.625 119.369C230.273 119.369 230.782 119.511 231.151 119.795C231.523 120.08 231.787 120.455 231.944 120.92ZM236.321 126.136C235.69 126.136 235.146 125.997 234.689 125.719C234.234 125.438 233.884 125.045 233.636 124.543C233.392 124.037 233.27 123.449 233.27 122.778C233.27 122.108 233.392 121.517 233.636 121.006C233.884 120.491 234.227 120.091 234.668 119.804C235.111 119.514 235.628 119.369 236.219 119.369C236.56 119.369 236.896 119.426 237.229 119.54C237.561 119.653 237.864 119.838 238.136 120.094C238.409 120.347 238.626 120.682 238.788 121.099C238.95 121.517 239.031 122.031 239.031 122.642V123.068H233.986V122.199H238.009C238.009 121.83 237.935 121.5 237.787 121.21C237.642 120.92 237.435 120.692 237.165 120.524C236.898 120.357 236.582 120.273 236.219 120.273C235.818 120.273 235.472 120.372 235.179 120.571C234.889 120.767 234.666 121.023 234.51 121.338C234.354 121.653 234.276 121.991 234.276 122.352V122.932C234.276 123.426 234.361 123.845 234.531 124.189C234.705 124.53 234.945 124.79 235.251 124.969C235.558 125.145 235.915 125.233 236.321 125.233C236.585 125.233 236.824 125.196 237.037 125.122C237.253 125.045 237.439 124.932 237.595 124.781C237.751 124.628 237.872 124.437 237.957 124.21L238.929 124.483C238.827 124.812 238.655 125.102 238.413 125.352C238.172 125.599 237.874 125.793 237.518 125.932C237.163 126.068 236.764 126.136 236.321 126.136ZM240.561 126V119.455H241.533V120.443H241.601C241.72 120.119 241.936 119.857 242.249 119.655C242.561 119.453 242.913 119.352 243.305 119.352C243.379 119.352 243.472 119.354 243.582 119.357C243.693 119.359 243.777 119.364 243.834 119.369V120.392C243.8 120.384 243.722 120.371 243.599 120.354C243.48 120.334 243.354 120.324 243.22 120.324C242.902 120.324 242.618 120.391 242.368 120.524C242.121 120.655 241.925 120.837 241.78 121.07C241.638 121.3 241.567 121.562 241.567 121.858V126H240.561ZM249.662 120.92L248.759 121.176C248.702 121.026 248.618 120.879 248.507 120.737C248.4 120.592 248.252 120.473 248.064 120.379C247.877 120.286 247.637 120.239 247.344 120.239C246.944 120.239 246.61 120.331 246.343 120.516C246.078 120.697 245.946 120.929 245.946 121.21C245.946 121.46 246.037 121.658 246.219 121.803C246.401 121.947 246.685 122.068 247.071 122.165L248.043 122.403C248.628 122.545 249.064 122.763 249.351 123.055C249.638 123.345 249.782 123.719 249.782 124.176C249.782 124.551 249.674 124.886 249.458 125.182C249.245 125.477 248.946 125.71 248.563 125.881C248.179 126.051 247.733 126.136 247.225 126.136C246.557 126.136 246.005 125.991 245.567 125.702C245.13 125.412 244.853 124.989 244.736 124.432L245.691 124.193C245.782 124.545 245.953 124.81 246.206 124.986C246.462 125.162 246.796 125.25 247.208 125.25C247.676 125.25 248.049 125.151 248.324 124.952C248.603 124.75 248.742 124.509 248.742 124.227C248.742 124 248.662 123.81 248.503 123.656C248.344 123.5 248.1 123.384 247.77 123.307L246.679 123.051C246.08 122.909 245.64 122.689 245.358 122.391C245.08 122.089 244.941 121.713 244.941 121.261C244.941 120.892 245.044 120.565 245.252 120.281C245.462 119.997 245.748 119.774 246.108 119.612C246.472 119.45 246.884 119.369 247.344 119.369C247.992 119.369 248.5 119.511 248.87 119.795C249.242 120.08 249.506 120.455 249.662 120.92ZM252.028 126.068C251.818 126.068 251.638 125.993 251.487 125.842C251.337 125.692 251.261 125.511 251.261 125.301C251.261 125.091 251.337 124.911 251.487 124.76C251.638 124.609 251.818 124.534 252.028 124.534C252.239 124.534 252.419 124.609 252.57 124.76C252.72 124.911 252.795 125.091 252.795 125.301C252.795 125.44 252.76 125.568 252.689 125.685C252.621 125.801 252.528 125.895 252.412 125.966C252.298 126.034 252.17 126.068 252.028 126.068Z" fill="#6C6862"/><path d="M1.26091 53.168L1.84891 50.494H0.714906V49.43H2.07291L2.54891 47.26H1.35891V46.196H2.78691L3.44491 43.228H4.55091L3.89291 46.196H5.95091L6.60891 43.228H7.72891L7.05691 46.196H8.17691V47.26H6.84691L6.35691 49.43H7.54691V50.494H6.13291L5.54491 53.168H4.43891L5.02691 50.494H2.95491L2.38091 53.168H1.26091ZM3.17891 49.43H5.25091L5.72691 47.26H3.66891L3.17891 49.43ZM9.14334 53V52.594C9.14334 52.202 9.21801 51.8427 9.36734 51.516C9.52601 51.18 9.73134 50.8767 9.98334 50.606C10.2447 50.326 10.5387 50.06 10.8653 49.808C11.192 49.556 11.5233 49.3087 11.8593 49.066C12.3167 48.7487 12.7367 48.4313 13.1193 48.114C13.5113 47.7967 13.824 47.456 14.0573 47.092C14.2907 46.7187 14.4073 46.3033 14.4073 45.846C14.4073 45.5567 14.3373 45.2953 14.1973 45.062C14.0667 44.8193 13.866 44.628 13.5953 44.488C13.3247 44.348 12.9793 44.278 12.5593 44.278C12.0647 44.278 11.668 44.362 11.3693 44.53C11.0707 44.698 10.8513 44.922 10.7113 45.202C10.5807 45.482 10.5153 45.79 10.5153 46.126V46.7H9.29734C9.28801 46.6533 9.27868 46.5833 9.26934 46.49C9.26001 46.3873 9.25534 46.2707 9.25534 46.14C9.25534 45.4493 9.40934 44.894 9.71734 44.474C10.0253 44.0447 10.436 43.732 10.9493 43.536C11.4627 43.3307 12.018 43.228 12.6153 43.228C13.1473 43.228 13.6047 43.3027 13.9873 43.452C14.37 43.592 14.6873 43.788 14.9393 44.04C15.1913 44.292 15.378 44.5813 15.4993 44.908C15.6207 45.2253 15.6813 45.5613 15.6813 45.916C15.6813 46.3547 15.602 46.756 15.4433 47.12C15.294 47.484 15.0793 47.8247 14.7993 48.142C14.5287 48.45 14.2067 48.7487 13.8333 49.038C13.4693 49.3273 13.0727 49.6213 12.6433 49.92C12.3447 50.116 12.0507 50.326 11.7613 50.55C11.472 50.7647 11.2247 50.984 11.0193 51.208C10.814 51.432 10.6833 51.6467 10.6273 51.852H15.7373V53H9.14334ZM20.5027 53.168C19.952 53.168 19.4574 53.0887 19.0187 52.93C18.5894 52.7713 18.2207 52.5147 17.9127 52.16C17.614 51.8053 17.3854 51.3293 17.2267 50.732C17.068 50.1253 16.9887 49.374 16.9887 48.478C16.9887 47.4887 17.068 46.6627 17.2267 46C17.3854 45.328 17.6094 44.7913 17.8987 44.39C18.1974 43.9793 18.5614 43.6853 18.9907 43.508C19.4294 43.3213 19.924 43.228 20.4747 43.228C21.1654 43.228 21.7207 43.3587 22.1407 43.62C22.57 43.8813 22.8827 44.236 23.0787 44.684C23.2747 45.1227 23.3727 45.6267 23.3727 46.196H22.1127C22.1127 45.7667 22.052 45.4073 21.9307 45.118C21.8094 44.8287 21.618 44.614 21.3567 44.474C21.1047 44.334 20.7874 44.264 20.4047 44.264C19.8447 44.264 19.406 44.4133 19.0887 44.712C18.7807 45.0013 18.566 45.426 18.4447 45.986C18.3327 46.546 18.272 47.2133 18.2627 47.988C18.3934 47.7733 18.5754 47.5773 18.8087 47.4C19.0514 47.2227 19.336 47.0827 19.6627 46.98C19.9894 46.868 20.3347 46.812 20.6987 46.812C21.3894 46.812 21.9587 46.952 22.4067 47.232C22.8547 47.5027 23.186 47.876 23.4007 48.352C23.6154 48.828 23.7227 49.36 23.7227 49.948C23.7227 50.592 23.5827 51.1567 23.3027 51.642C23.0227 52.1273 22.64 52.5053 22.1547 52.776C21.6694 53.0373 21.1187 53.168 20.5027 53.168ZM20.4187 52.132C20.876 52.132 21.254 52.034 21.5527 51.838C21.8514 51.6327 22.0707 51.3667 22.2107 51.04C22.36 50.704 22.4347 50.3353 22.4347 49.934C22.4347 49.5513 22.3647 49.2013 22.2247 48.884C22.0847 48.5667 21.8654 48.3147 21.5667 48.128C21.2774 47.932 20.904 47.834 20.4467 47.834C19.9894 47.834 19.6067 47.932 19.2987 48.128C18.9907 48.324 18.762 48.5853 18.6127 48.912C18.4634 49.2293 18.3887 49.5933 18.3887 50.004C18.3887 50.3867 18.4634 50.7413 18.6127 51.068C18.762 51.3947 18.986 51.656 19.2847 51.852C19.5834 52.0387 19.9614 52.132 20.4187 52.132ZM24.9441 53V52.594C24.9441 52.202 25.0188 51.8427 25.1681 51.516C25.3268 51.18 25.5321 50.8767 25.7841 50.606C26.0454 50.326 26.3394 50.06 26.6661 49.808C26.9928 49.556 27.3241 49.3087 27.6601 49.066C28.1174 48.7487 28.5374 48.4313 28.9201 48.114C29.3121 47.7967 29.6248 47.456 29.8581 47.092C30.0914 46.7187 30.2081 46.3033 30.2081 45.846C30.2081 45.5567 30.1381 45.2953 29.9981 45.062C29.8674 44.8193 29.6668 44.628 29.3961 44.488C29.1254 44.348 28.7801 44.278 28.3601 44.278C27.8654 44.278 27.4688 44.362 27.1701 44.53C26.8714 44.698 26.6521 44.922 26.5121 45.202C26.3814 45.482 26.3161 45.79 26.3161 46.126V46.7H25.0981C25.0888 46.6533 25.0794 46.5833 25.0701 46.49C25.0608 46.3873 25.0561 46.2707 25.0561 46.14C25.0561 45.4493 25.2101 44.894 25.5181 44.474C25.8261 44.0447 26.2368 43.732 26.7501 43.536C27.2634 43.3307 27.8188 43.228 28.4161 43.228C28.9481 43.228 29.4054 43.3027 29.7881 43.452C30.1708 43.592 30.4881 43.788 30.7401 44.04C30.9921 44.292 31.1788 44.5813 31.3001 44.908C31.4214 45.2253 31.4821 45.5613 31.4821 45.916C31.4821 46.3547 31.4028 46.756 31.2441 47.12C31.0948 47.484 30.8801 47.8247 30.6001 48.142C30.3294 48.45 30.0074 48.7487 29.6341 49.038C29.2701 49.3273 28.8734 49.6213 28.4441 49.92C28.1454 50.116 27.8514 50.326 27.5621 50.55C27.2728 50.7647 27.0254 50.984 26.8201 51.208C26.6148 51.432 26.4841 51.6467 26.4281 51.852H31.5381V53H24.9441ZM36.1635 53.168C35.4915 53.168 34.9035 53.042 34.3995 52.79C33.8955 52.538 33.5035 52.1787 33.2235 51.712C32.9435 51.236 32.8035 50.6713 32.8035 50.018H34.0495C34.0495 50.4567 34.1428 50.8347 34.3295 51.152C34.5161 51.4693 34.7681 51.712 35.0855 51.88C35.4121 52.048 35.7715 52.132 36.1635 52.132C36.5648 52.132 36.9195 52.0527 37.2275 51.894C37.5355 51.726 37.7735 51.474 37.9415 51.138C38.1188 50.802 38.2075 50.3773 38.2075 49.864C38.2075 49.3973 38.1281 49.0147 37.9695 48.716C37.8108 48.408 37.5821 48.1793 37.2835 48.03C36.9941 47.8807 36.6581 47.806 36.2755 47.806C35.9955 47.806 35.7295 47.8527 35.4775 47.946C35.2255 48.03 34.9968 48.1513 34.7915 48.31C34.5955 48.4687 34.4321 48.6647 34.3015 48.898L33.1395 48.716L33.5455 43.396H38.9915V44.544H34.6235L34.3995 47.54C34.5581 47.4 34.7355 47.274 34.9315 47.162C35.1368 47.0407 35.3701 46.9473 35.6315 46.882C35.8928 46.8073 36.1915 46.77 36.5275 46.77C37.0781 46.77 37.5775 46.8773 38.0255 47.092C38.4735 47.3067 38.8281 47.638 39.0895 48.086C39.3508 48.534 39.4815 49.1127 39.4815 49.822C39.4815 50.522 39.3461 51.124 39.0755 51.628C38.8141 52.132 38.4361 52.5147 37.9415 52.776C37.4468 53.0373 36.8541 53.168 36.1635 53.168ZM40.7175 53V52.594C40.7175 52.202 40.7922 51.8427 40.9415 51.516C41.1002 51.18 41.3055 50.8767 41.5575 50.606C41.8188 50.326 42.1128 50.06 42.4395 49.808C42.7662 49.556 43.0975 49.3087 43.4335 49.066C43.8908 48.7487 44.3108 48.4313 44.6935 48.114C45.0855 47.7967 45.3982 47.456 45.6315 47.092C45.8648 46.7187 45.9815 46.3033 45.9815 45.846C45.9815 45.5567 45.9115 45.2953 45.7715 45.062C45.6408 44.8193 45.4402 44.628 45.1695 44.488C44.8988 44.348 44.5535 44.278 44.1335 44.278C43.6388 44.278 43.2422 44.362 42.9435 44.53C42.6448 44.698 42.4255 44.922 42.2855 45.202C42.1548 45.482 42.0895 45.79 42.0895 46.126V46.7H40.8715C40.8622 46.6533 40.8528 46.5833 40.8435 46.49C40.8342 46.3873 40.8295 46.2707 40.8295 46.14C40.8295 45.4493 40.9835 44.894 41.2915 44.474C41.5995 44.0447 42.0102 43.732 42.5235 43.536C43.0368 43.3307 43.5922 43.228 44.1895 43.228C44.7215 43.228 45.1788 43.3027 45.5615 43.452C45.9442 43.592 46.2615 43.788 46.5135 44.04C46.7655 44.292 46.9522 44.5813 47.0735 44.908C47.1948 45.2253 47.2555 45.5613 47.2555 45.916C47.2555 46.3547 47.1762 46.756 47.0175 47.12C46.8682 47.484 46.6535 47.8247 46.3735 48.142C46.1028 48.45 45.7808 48.7487 45.4075 49.038C45.0435 49.3273 44.6468 49.6213 44.2175 49.92C43.9188 50.116 43.6248 50.326 43.3355 50.55C43.0462 50.7647 42.7988 50.984 42.5935 51.208C42.3882 51.432 42.2575 51.6467 42.2015 51.852H47.3115V53H40.7175ZM47.9749 53L51.7689 43.396H53.5189L57.3269 53H55.8849L54.9469 50.62H50.2709L49.3469 53H47.9749ZM50.7049 49.486H54.4989L53.3369 46.476C53.3089 46.392 53.2669 46.2753 53.2109 46.126C53.1549 45.9767 53.0942 45.8133 53.0289 45.636C52.9635 45.4493 52.8982 45.2627 52.8329 45.076C52.7675 44.88 52.7069 44.7027 52.6509 44.544H52.5669C52.5015 44.7307 52.4269 44.9453 52.3429 45.188C52.2589 45.4307 52.1749 45.6687 52.0909 45.902C52.0069 46.126 51.9369 46.3173 51.8809 46.476L50.7049 49.486ZM1.31691 73V71.95H3.73891V65.3H1.30291V64.516C1.64824 64.488 2.00291 64.4367 2.36691 64.362C2.74024 64.2873 3.10424 64.1707 3.45891 64.012C3.81357 63.844 4.13557 63.6293 4.42491 63.368H4.98491V71.95H7.26691V73H1.31691ZM12.4537 73V70.648H7.98769V69.612C8.37969 68.94 8.73435 68.2633 9.05169 67.582C9.37835 66.9007 9.66769 66.2007 9.91969 65.482C10.181 64.7633 10.3957 64.012 10.5637 63.228H11.8797C11.7584 63.7413 11.609 64.2687 11.4317 64.81C11.2544 65.342 11.0584 65.86 10.8437 66.364C10.629 66.868 10.4144 67.3393 10.1997 67.778C9.99435 68.2167 9.79835 68.5947 9.61169 68.912C9.43435 69.2293 9.28969 69.4627 9.17769 69.612H12.4537V66.56C12.5097 66.4107 12.5657 66.2567 12.6217 66.098C12.687 65.93 12.7477 65.762 12.8037 65.594C12.8597 65.4167 12.911 65.2533 12.9577 65.104C13.0044 64.9453 13.0417 64.796 13.0697 64.656H13.6857V69.612H14.9597V70.648H13.6857V73H12.4537ZM16.2433 75.422V65.636H17.2233L17.3493 66.686H17.4473C17.6993 66.2753 18.0213 65.972 18.4133 65.776C18.8053 65.5707 19.2486 65.468 19.7433 65.468C20.3593 65.468 20.882 65.6033 21.3113 65.874C21.7406 66.1447 22.072 66.5693 22.3053 67.148C22.5386 67.7173 22.6553 68.4593 22.6553 69.374C22.6553 70.2327 22.534 70.9467 22.2913 71.516C22.058 72.076 21.7266 72.4913 21.2973 72.762C20.868 73.0327 20.3686 73.168 19.7993 73.168C19.482 73.168 19.1833 73.1307 18.9033 73.056C18.6233 72.9813 18.3713 72.8647 18.1473 72.706C17.9233 72.538 17.7273 72.328 17.5593 72.076H17.4753V75.422H16.2433ZM19.4073 72.09C19.8646 72.09 20.238 72.0013 20.5273 71.824C20.8166 71.6373 21.0313 71.3527 21.1713 70.97C21.3113 70.578 21.3813 70.0787 21.3813 69.472V69.178C21.3813 68.534 21.3066 68.0207 21.1573 67.638C21.008 67.246 20.7886 66.966 20.4993 66.798C20.2193 66.63 19.8693 66.546 19.4493 66.546C18.992 66.546 18.614 66.6487 18.3153 66.854C18.026 67.05 17.8113 67.3487 17.6713 67.75C17.5406 68.1513 17.4753 68.6413 17.4753 69.22V69.43C17.4753 69.9433 17.522 70.3727 17.6153 70.718C17.718 71.054 17.858 71.3247 18.0353 71.53C18.222 71.7353 18.432 71.88 18.6653 71.964C18.8986 72.048 19.146 72.09 19.4073 72.09ZM23.0456 73L25.6916 69.234L23.1716 65.636H24.6556L26.4476 68.268H26.5176L28.3096 65.636H29.7096L27.1896 69.192L29.8496 73H28.3796L26.4476 70.158H26.3776L24.4456 73H23.0456Z" fill="#272433"/><path d="M50.2609 15.168L50.8489 12.494H49.7149V11.43H51.0729L51.5489 9.26H50.3589V8.196H51.7869L52.4449 5.228H53.5509L52.8929 8.196H54.9509L55.6089 5.228H56.7289L56.0569 8.196H57.1769V9.26H55.8469L55.3569 11.43H56.5469V12.494H55.1329L54.5449 15.168H53.4389L54.0269 12.494H51.9549L51.3809 15.168H50.2609ZM52.1789 11.43H54.2509L54.7269 9.26H52.6689L52.1789 11.43ZM62.7493 15.168C61.7693 15.168 60.9387 14.9907 60.2573 14.636C59.576 14.272 59.0533 13.726 58.6893 12.998C58.3347 12.2607 58.1573 11.3273 58.1573 10.198C58.1573 8.52733 58.5633 7.28133 59.3753 6.46C60.1873 5.63867 61.3167 5.228 62.7633 5.228C63.5847 5.228 64.3127 5.36333 64.9473 5.634C65.582 5.89533 66.0767 6.29667 66.4313 6.838C66.7953 7.37 66.9773 8.042 66.9773 8.854H65.6333C65.6333 8.294 65.512 7.832 65.2693 7.468C65.036 7.104 64.7047 6.83333 64.2753 6.656C63.846 6.46933 63.342 6.376 62.7633 6.376C62.0913 6.376 61.5127 6.50667 61.0273 6.768C60.542 7.02933 60.1733 7.43533 59.9213 7.986C59.6693 8.52733 59.5433 9.22733 59.5433 10.086V10.38C59.5433 11.2293 59.6693 11.9247 59.9213 12.466C60.1733 12.998 60.5373 13.39 61.0133 13.642C61.4987 13.894 62.082 14.02 62.7633 14.02C63.3607 14.02 63.874 13.9313 64.3033 13.754C64.742 13.5767 65.078 13.306 65.3113 12.942C65.554 12.5687 65.6753 12.102 65.6753 11.542H66.9773C66.9773 12.3727 66.7907 13.054 66.4173 13.586C66.0533 14.118 65.554 14.5147 64.9193 14.776C64.2847 15.0373 63.5613 15.168 62.7493 15.168ZM68.7489 15V5.396H73.7049C74.2556 5.396 74.7316 5.494 75.1329 5.69C75.5342 5.87667 75.8422 6.14267 76.0569 6.488C76.2809 6.83333 76.3929 7.244 76.3929 7.72C76.3929 8.084 76.3276 8.42 76.1969 8.728C76.0662 9.036 75.8842 9.29267 75.6509 9.498C75.4176 9.70333 75.1516 9.85733 74.8529 9.96V10.016C75.1889 10.0907 75.4922 10.226 75.7629 10.422C76.0336 10.618 76.2482 10.8793 76.4069 11.206C76.5749 11.5233 76.6589 11.9153 76.6589 12.382C76.6589 13.0073 76.5282 13.5113 76.2669 13.894C76.0056 14.2767 75.6556 14.5567 75.2169 14.734C74.7782 14.9113 74.2742 15 73.7049 15H68.7489ZM70.0789 13.852H73.6909C74.1669 13.852 74.5542 13.7307 74.8529 13.488C75.1516 13.236 75.3009 12.8207 75.3009 12.242C75.3009 11.8873 75.2356 11.5933 75.1049 11.36C74.9742 11.1173 74.7829 10.94 74.5309 10.828C74.2789 10.7067 73.9616 10.646 73.5789 10.646H70.0789V13.852ZM70.0789 9.512H73.4529C73.7702 9.512 74.0456 9.45133 74.2789 9.33C74.5122 9.19933 74.6942 9.022 74.8249 8.798C74.9649 8.56467 75.0349 8.30333 75.0349 8.014C75.0349 7.51 74.8996 7.14133 74.6289 6.908C74.3582 6.66533 73.9989 6.544 73.5509 6.544H70.0789V9.512ZM77.9363 15V14.594C77.9363 14.202 78.0109 13.8427 78.1603 13.516C78.3189 13.18 78.5243 12.8767 78.7763 12.606C79.0376 12.326 79.3316 12.06 79.6583 11.808C79.9849 11.556 80.3163 11.3087 80.6523 11.066C81.1096 10.7487 81.5296 10.4313 81.9123 10.114C82.3043 9.79667 82.6169 9.456 82.8503 9.092C83.0836 8.71867 83.2003 8.30333 83.2003 7.846C83.2003 7.55667 83.1303 7.29533 82.9903 7.062C82.8596 6.81933 82.6589 6.628 82.3883 6.488C82.1176 6.348 81.7723 6.278 81.3523 6.278C80.8576 6.278 80.4609 6.362 80.1623 6.53C79.8636 6.698 79.6443 6.922 79.5043 7.202C79.3736 7.482 79.3083 7.79 79.3083 8.126V8.7H78.0903C78.0809 8.65333 78.0716 8.58333 78.0623 8.49C78.0529 8.38733 78.0483 8.27067 78.0483 8.14C78.0483 7.44933 78.2023 6.894 78.5103 6.474C78.8183 6.04467 79.2289 5.732 79.7423 5.536C80.2556 5.33067 80.8109 5.228 81.4083 5.228C81.9403 5.228 82.3976 5.30267 82.7803 5.452C83.1629 5.592 83.4803 5.788 83.7323 6.04C83.9843 6.292 84.1709 6.58133 84.2923 6.908C84.4136 7.22533 84.4743 7.56133 84.4743 7.916C84.4743 8.35467 84.3949 8.756 84.2363 9.12C84.0869 9.484 83.8723 9.82467 83.5923 10.142C83.3216 10.45 82.9996 10.7487 82.6263 11.038C82.2623 11.3273 81.8656 11.6213 81.4363 11.92C81.1376 12.116 80.8436 12.326 80.5543 12.55C80.2649 12.7647 80.0176 12.984 79.8123 13.208C79.6069 13.432 79.4763 13.6467 79.4203 13.852H84.5303V15H77.9363ZM85.7956 15V14.594C85.7956 14.202 85.8703 13.8427 86.0196 13.516C86.1783 13.18 86.3836 12.8767 86.6356 12.606C86.897 12.326 87.191 12.06 87.5176 11.808C87.8443 11.556 88.1756 11.3087 88.5116 11.066C88.969 10.7487 89.389 10.4313 89.7716 10.114C90.1636 9.79667 90.4763 9.456 90.7096 9.092C90.943 8.71867 91.0596 8.30333 91.0596 7.846C91.0596 7.55667 90.9896 7.29533 90.8496 7.062C90.719 6.81933 90.5183 6.628 90.2476 6.488C89.977 6.348 89.6316 6.278 89.2116 6.278C88.717 6.278 88.3203 6.362 88.0216 6.53C87.723 6.698 87.5036 6.922 87.3636 7.202C87.233 7.482 87.1676 7.79 87.1676 8.126V8.7H85.9496C85.9403 8.65333 85.931 8.58333 85.9216 8.49C85.9123 8.38733 85.9076 8.27067 85.9076 8.14C85.9076 7.44933 86.0616 6.894 86.3696 6.474C86.6776 6.04467 87.0883 5.732 87.6016 5.536C88.115 5.33067 88.6703 5.228 89.2676 5.228C89.7996 5.228 90.257 5.30267 90.6396 5.452C91.0223 5.592 91.3396 5.788 91.5916 6.04C91.8436 6.292 92.0303 6.58133 92.1516 6.908C92.273 7.22533 92.3336 7.56133 92.3336 7.916C92.3336 8.35467 92.2543 8.756 92.0956 9.12C91.9463 9.484 91.7316 9.82467 91.4516 10.142C91.181 10.45 90.859 10.7487 90.4856 11.038C90.1216 11.3273 89.725 11.6213 89.2956 11.92C88.997 12.116 88.703 12.326 88.4136 12.55C88.1243 12.7647 87.877 12.984 87.6716 13.208C87.4663 13.432 87.3356 13.6467 87.2796 13.852H92.3896V15H85.7956ZM96.987 15.168C96.2403 15.168 95.6103 15.056 95.097 14.832C94.5837 14.5987 94.1963 14.272 93.935 13.852C93.6737 13.432 93.543 12.9327 93.543 12.354V12.172H94.789V12.354C94.789 12.9327 94.971 13.376 95.335 13.684C95.7083 13.9827 96.2217 14.132 96.875 14.132C97.5283 14.132 98.0557 13.992 98.457 13.712C98.8583 13.4227 99.059 12.9653 99.059 12.34C99.059 11.8827 98.9517 11.5327 98.737 11.29C98.5223 11.0473 98.2423 10.8793 97.897 10.786C97.561 10.6833 97.2017 10.632 96.819 10.632H95.811V9.596H96.861C97.2157 9.596 97.5423 9.54 97.841 9.428C98.1397 9.316 98.3777 9.134 98.555 8.882C98.7417 8.62067 98.835 8.28467 98.835 7.874C98.835 7.50067 98.751 7.19733 98.583 6.964C98.4243 6.73067 98.205 6.558 97.925 6.446C97.645 6.32467 97.337 6.264 97.001 6.264C96.6277 6.264 96.2917 6.32933 95.993 6.46C95.6943 6.58133 95.4563 6.768 95.279 7.02C95.111 7.272 95.027 7.58933 95.027 7.972V8.154H93.767V7.902C93.767 7.37 93.9023 6.90333 94.173 6.502C94.453 6.10067 94.831 5.788 95.307 5.564C95.7923 5.34 96.3477 5.228 96.973 5.228C97.589 5.228 98.1303 5.326 98.597 5.522C99.073 5.718 99.4463 6.00733 99.717 6.39C99.9877 6.77267 100.123 7.244 100.123 7.804C100.123 8.21467 100.048 8.56467 99.899 8.854C99.7497 9.134 99.5537 9.36733 99.311 9.554C99.0683 9.74067 98.807 9.89467 98.527 10.016V10.072C99.0403 10.2213 99.4697 10.492 99.815 10.884C100.16 11.276 100.333 11.7893 100.333 12.424C100.333 12.9933 100.188 13.4833 99.899 13.894C99.619 14.3047 99.2223 14.622 98.709 14.846C98.205 15.0607 97.631 15.168 96.987 15.168ZM104.928 15.168C104.182 15.168 103.552 15.056 103.038 14.832C102.525 14.5987 102.138 14.272 101.876 13.852C101.615 13.432 101.484 12.9327 101.484 12.354V12.172H102.73V12.354C102.73 12.9327 102.912 13.376 103.276 13.684C103.65 13.9827 104.163 14.132 104.816 14.132C105.47 14.132 105.997 13.992 106.398 13.712C106.8 13.4227 107 12.9653 107 12.34C107 11.8827 106.893 11.5327 106.678 11.29C106.464 11.0473 106.184 10.8793 105.838 10.786C105.502 10.6833 105.143 10.632 104.76 10.632H103.752V9.596H104.802C105.157 9.596 105.484 9.54 105.782 9.428C106.081 9.316 106.319 9.134 106.496 8.882C106.683 8.62067 106.776 8.28467 106.776 7.874C106.776 7.50067 106.692 7.19733 106.524 6.964C106.366 6.73067 106.146 6.558 105.866 6.446C105.586 6.32467 105.278 6.264 104.942 6.264C104.569 6.264 104.233 6.32933 103.934 6.46C103.636 6.58133 103.398 6.768 103.22 7.02C103.052 7.272 102.968 7.58933 102.968 7.972V8.154H101.708V7.902C101.708 7.37 101.844 6.90333 102.114 6.502C102.394 6.10067 102.772 5.788 103.248 5.564C103.734 5.34 104.289 5.228 104.914 5.228C105.53 5.228 106.072 5.326 106.538 5.522C107.014 5.718 107.388 6.00733 107.658 6.39C107.929 6.77267 108.064 7.244 108.064 7.804C108.064 8.21467 107.99 8.56467 107.84 8.854C107.691 9.134 107.495 9.36733 107.252 9.554C107.01 9.74067 106.748 9.89467 106.468 10.016V10.072C106.982 10.2213 107.411 10.492 107.756 10.884C108.102 11.276 108.274 11.7893 108.274 12.424C108.274 12.9933 108.13 13.4833 107.84 13.894C107.56 14.3047 107.164 14.622 106.65 14.846C106.146 15.0607 105.572 15.168 104.928 15.168Z" fill="#272433"/><line x1="71.3789" y1="47.5" x2="93.3789" y2="47.5" stroke="#272433"/><path d="M0.882 128.79L1.47 126.116H0.336V125.052H1.694L2.17 122.882H0.98V121.818H2.408L3.066 118.85H4.172L3.514 121.818H5.572L6.23 118.85H7.35L6.678 121.818H7.798V122.882H6.468L5.978 125.052H7.168V126.116H5.754L5.166 128.79H4.06L4.648 126.116H2.576L2.002 128.79H0.882ZM2.8 125.052H4.872L5.348 122.882H3.29L2.8 125.052ZM12.2644 128.79C11.7138 128.79 11.2191 128.71 10.7804 128.552C10.3511 128.393 9.98244 128.136 9.67444 127.782C9.37577 127.427 9.1471 126.951 8.98844 126.354C8.82977 125.747 8.75044 124.996 8.75044 124.1C8.75044 123.11 8.82977 122.284 8.98844 121.622C9.1471 120.95 9.3711 120.413 9.66044 120.012C9.9591 119.601 10.3231 119.307 10.7524 119.13C11.1911 118.943 11.6858 118.85 12.2364 118.85C12.9271 118.85 13.4824 118.98 13.9024 119.242C14.3318 119.503 14.6444 119.858 14.8404 120.306C15.0364 120.744 15.1344 121.248 15.1344 121.818H13.8744C13.8744 121.388 13.8138 121.029 13.6924 120.74C13.5711 120.45 13.3798 120.236 13.1184 120.096C12.8664 119.956 12.5491 119.886 12.1664 119.886C11.6064 119.886 11.1678 120.035 10.8504 120.334C10.5424 120.623 10.3278 121.048 10.2064 121.608C10.0944 122.168 10.0338 122.835 10.0244 123.61C10.1551 123.395 10.3371 123.199 10.5704 123.022C10.8131 122.844 11.0978 122.704 11.4244 122.602C11.7511 122.49 12.0964 122.434 12.4604 122.434C13.1511 122.434 13.7204 122.574 14.1684 122.854C14.6164 123.124 14.9478 123.498 15.1624 123.974C15.3771 124.45 15.4844 124.982 15.4844 125.57C15.4844 126.214 15.3444 126.778 15.0644 127.264C14.7844 127.749 14.4018 128.127 13.9164 128.398C13.4311 128.659 12.8804 128.79 12.2644 128.79ZM12.1804 127.754C12.6378 127.754 13.0158 127.656 13.3144 127.46C13.6131 127.254 13.8324 126.988 13.9724 126.662C14.1218 126.326 14.1964 125.957 14.1964 125.556C14.1964 125.173 14.1264 124.823 13.9864 124.506C13.8464 124.188 13.6271 123.936 13.3284 123.75C13.0391 123.554 12.6658 123.456 12.2084 123.456C11.7511 123.456 11.3684 123.554 11.0604 123.75C10.7524 123.946 10.5238 124.207 10.3744 124.534C10.2251 124.851 10.1504 125.215 10.1504 125.626C10.1504 126.008 10.2251 126.363 10.3744 126.69C10.5238 127.016 10.7478 127.278 11.0464 127.474C11.3451 127.66 11.7231 127.754 12.1804 127.754ZM21.3118 128.79C20.3318 128.79 19.5012 128.612 18.8198 128.258C18.1385 127.894 17.6158 127.348 17.2518 126.62C16.8972 125.882 16.7198 124.949 16.7198 123.82C16.7198 122.149 17.1258 120.903 17.9378 120.082C18.7498 119.26 19.8792 118.85 21.3258 118.85C22.1472 118.85 22.8752 118.985 23.5098 119.256C24.1445 119.517 24.6392 119.918 24.9938 120.46C25.3578 120.992 25.5398 121.664 25.5398 122.476H24.1958C24.1958 121.916 24.0745 121.454 23.8318 121.09C23.5985 120.726 23.2672 120.455 22.8378 120.278C22.4085 120.091 21.9045 119.998 21.3258 119.998C20.6538 119.998 20.0752 120.128 19.5898 120.39C19.1045 120.651 18.7358 121.057 18.4838 121.608C18.2318 122.149 18.1058 122.849 18.1058 123.708V124.002C18.1058 124.851 18.2318 125.546 18.4838 126.088C18.7358 126.62 19.0998 127.012 19.5758 127.264C20.0612 127.516 20.6445 127.642 21.3258 127.642C21.9232 127.642 22.4365 127.553 22.8658 127.376C23.3045 127.198 23.6405 126.928 23.8738 126.564C24.1165 126.19 24.2378 125.724 24.2378 125.164H25.5398C25.5398 125.994 25.3532 126.676 24.9798 127.208C24.6158 127.74 24.1165 128.136 23.4818 128.398C22.8472 128.659 22.1238 128.79 21.3118 128.79ZM30.3074 128.79C29.7567 128.79 29.262 128.71 28.8234 128.552C28.394 128.393 28.0254 128.136 27.7174 127.782C27.4187 127.427 27.19 126.951 27.0314 126.354C26.8727 125.747 26.7934 124.996 26.7934 124.1C26.7934 123.11 26.8727 122.284 27.0314 121.622C27.19 120.95 27.414 120.413 27.7034 120.012C28.002 119.601 28.366 119.307 28.7954 119.13C29.234 118.943 29.7287 118.85 30.2794 118.85C30.97 118.85 31.5254 118.98 31.9454 119.242C32.3747 119.503 32.6874 119.858 32.8834 120.306C33.0794 120.744 33.1774 121.248 33.1774 121.818H31.9174C31.9174 121.388 31.8567 121.029 31.7354 120.74C31.614 120.45 31.4227 120.236 31.1614 120.096C30.9094 119.956 30.592 119.886 30.2094 119.886C29.6494 119.886 29.2107 120.035 28.8934 120.334C28.5854 120.623 28.3707 121.048 28.2494 121.608C28.1374 122.168 28.0767 122.835 28.0674 123.61C28.198 123.395 28.38 123.199 28.6134 123.022C28.856 122.844 29.1407 122.704 29.4674 122.602C29.794 122.49 30.1394 122.434 30.5034 122.434C31.194 122.434 31.7634 122.574 32.2114 122.854C32.6594 123.124 32.9907 123.498 33.2054 123.974C33.42 124.45 33.5274 124.982 33.5274 125.57C33.5274 126.214 33.3874 126.778 33.1074 127.264C32.8274 127.749 32.4447 128.127 31.9594 128.398C31.474 128.659 30.9234 128.79 30.3074 128.79ZM30.2234 127.754C30.6807 127.754 31.0587 127.656 31.3574 127.46C31.656 127.254 31.8754 126.988 32.0154 126.662C32.1647 126.326 32.2394 125.957 32.2394 125.556C32.2394 125.173 32.1694 124.823 32.0294 124.506C31.8894 124.188 31.67 123.936 31.3714 123.75C31.082 123.554 30.7087 123.456 30.2514 123.456C29.794 123.456 29.4114 123.554 29.1034 123.75C28.7954 123.946 28.5667 124.207 28.4174 124.534C28.268 124.851 28.1934 125.215 28.1934 125.626C28.1934 126.008 28.268 126.363 28.4174 126.69C28.5667 127.016 28.7907 127.278 29.0894 127.474C29.388 127.66 29.766 127.754 30.2234 127.754ZM38.0668 128.79C37.2734 128.79 36.6294 128.664 36.1348 128.412C35.6401 128.16 35.2761 127.824 35.0428 127.404C34.8188 126.984 34.7068 126.517 34.7068 126.004C34.7068 125.481 34.8374 125.019 35.0988 124.618C35.3601 124.216 35.7708 123.908 36.3308 123.694C35.8828 123.46 35.5421 123.152 35.3088 122.77C35.0848 122.387 34.9728 121.962 34.9728 121.496C34.9728 121.001 35.0848 120.558 35.3088 120.166C35.5421 119.764 35.8874 119.447 36.3448 119.214C36.8114 118.971 37.3854 118.85 38.0668 118.85C38.7481 118.85 39.3174 118.971 39.7748 119.214C40.2321 119.447 40.5774 119.764 40.8108 120.166C41.0441 120.558 41.1608 121.001 41.1608 121.496C41.1608 121.962 41.0441 122.387 40.8108 122.77C40.5774 123.152 40.2368 123.46 39.7888 123.694C40.3581 123.908 40.7688 124.216 41.0208 124.618C41.2821 125.019 41.4128 125.481 41.4128 126.004C41.4128 126.517 41.2961 126.984 41.0628 127.404C40.8388 127.824 40.4794 128.16 39.9848 128.412C39.4994 128.664 38.8601 128.79 38.0668 128.79ZM38.0668 127.768C38.7481 127.768 39.2614 127.609 39.6068 127.292C39.9521 126.974 40.1248 126.54 40.1248 125.99C40.1248 125.448 39.9521 125.019 39.6068 124.702C39.2614 124.384 38.7481 124.226 38.0668 124.226C37.3854 124.226 36.8674 124.384 36.5128 124.702C36.1674 125.019 35.9948 125.448 35.9948 125.99C35.9948 126.54 36.1674 126.974 36.5128 127.292C36.8674 127.609 37.3854 127.768 38.0668 127.768ZM38.0668 123.204C38.6361 123.204 39.0841 123.059 39.4108 122.77C39.7374 122.471 39.9008 122.056 39.9008 121.524C39.9008 121.001 39.7374 120.595 39.4108 120.306C39.0841 120.016 38.6361 119.872 38.0668 119.872C37.4974 119.872 37.0494 120.016 36.7228 120.306C36.3961 120.595 36.2328 121.001 36.2328 121.524C36.2328 122.056 36.3961 122.471 36.7228 122.77C37.0494 123.059 37.4974 123.204 38.0668 123.204ZM46.2038 128.79C45.6532 128.79 45.1585 128.71 44.7198 128.552C44.2905 128.393 43.9218 128.136 43.6138 127.782C43.3152 127.427 43.0865 126.951 42.9278 126.354C42.7692 125.747 42.6898 124.996 42.6898 124.1C42.6898 123.11 42.7692 122.284 42.9278 121.622C43.0865 120.95 43.3105 120.413 43.5998 120.012C43.8985 119.601 44.2625 119.307 44.6918 119.13C45.1305 118.943 45.6252 118.85 46.1758 118.85C46.8665 118.85 47.4218 118.98 47.8418 119.242C48.2712 119.503 48.5838 119.858 48.7798 120.306C48.9758 120.744 49.0738 121.248 49.0738 121.818H47.8138C47.8138 121.388 47.7532 121.029 47.6318 120.74C47.5105 120.45 47.3192 120.236 47.0578 120.096C46.8058 119.956 46.4885 119.886 46.1058 119.886C45.5458 119.886 45.1072 120.035 44.7898 120.334C44.4818 120.623 44.2672 121.048 44.1458 121.608C44.0338 122.168 43.9732 122.835 43.9638 123.61C44.0945 123.395 44.2765 123.199 44.5098 123.022C44.7525 122.844 45.0372 122.704 45.3638 122.602C45.6905 122.49 46.0358 122.434 46.3998 122.434C47.0905 122.434 47.6598 122.574 48.1078 122.854C48.5558 123.124 48.8872 123.498 49.1018 123.974C49.3165 124.45 49.4238 124.982 49.4238 125.57C49.4238 126.214 49.2838 126.778 49.0038 127.264C48.7238 127.749 48.3412 128.127 47.8558 128.398C47.3705 128.659 46.8198 128.79 46.2038 128.79ZM46.1198 127.754C46.5772 127.754 46.9552 127.656 47.2538 127.46C47.5525 127.254 47.7718 126.988 47.9118 126.662C48.0612 126.326 48.1358 125.957 48.1358 125.556C48.1358 125.173 48.0658 124.823 47.9258 124.506C47.7858 124.188 47.5665 123.936 47.2678 123.75C46.9785 123.554 46.6052 123.456 46.1478 123.456C45.6905 123.456 45.3078 123.554 44.9998 123.75C44.6918 123.946 44.4632 124.207 44.3138 124.534C44.1645 124.851 44.0898 125.215 44.0898 125.626C44.0898 126.008 44.1645 126.363 44.3138 126.69C44.4632 127.016 44.6872 127.278 44.9858 127.474C45.2845 127.66 45.6625 127.754 46.1198 127.754ZM50.6452 128.622V128.216C50.6452 127.824 50.7199 127.464 50.8692 127.138C51.0279 126.802 51.2332 126.498 51.4852 126.228C51.7466 125.948 52.0406 125.682 52.3672 125.43C52.6939 125.178 53.0252 124.93 53.3612 124.688C53.8186 124.37 54.2386 124.053 54.6212 123.736C55.0132 123.418 55.3259 123.078 55.5592 122.714C55.7926 122.34 55.9092 121.925 55.9092 121.468C55.9092 121.178 55.8392 120.917 55.6992 120.684C55.5686 120.441 55.3679 120.25 55.0972 120.11C54.8266 119.97 54.4812 119.9 54.0612 119.9C53.5666 119.9 53.1699 119.984 52.8712 120.152C52.5726 120.32 52.3532 120.544 52.2132 120.824C52.0826 121.104 52.0172 121.412 52.0172 121.748V122.322H50.7992C50.7899 122.275 50.7806 122.205 50.7712 122.112C50.7619 122.009 50.7572 121.892 50.7572 121.762C50.7572 121.071 50.9112 120.516 51.2192 120.096C51.5272 119.666 51.9379 119.354 52.4512 119.158C52.9646 118.952 53.5199 118.85 54.1172 118.85C54.6492 118.85 55.1066 118.924 55.4892 119.074C55.8719 119.214 56.1892 119.41 56.4412 119.662C56.6932 119.914 56.8799 120.203 57.0012 120.53C57.1226 120.847 57.1832 121.183 57.1832 121.538C57.1832 121.976 57.1039 122.378 56.9452 122.742C56.7959 123.106 56.5812 123.446 56.3012 123.764C56.0306 124.072 55.7086 124.37 55.3352 124.66C54.9712 124.949 54.5746 125.243 54.1452 125.542C53.8466 125.738 53.5526 125.948 53.2632 126.172C52.9739 126.386 52.7266 126.606 52.5212 126.83C52.3159 127.054 52.1852 127.268 52.1292 127.474H57.2392V128.622H50.6452ZM0.938 148.622V147.572H3.36V140.922H0.924V140.138C1.26933 140.11 1.624 140.058 1.988 139.984C2.36133 139.909 2.72533 139.792 3.08 139.634C3.43467 139.466 3.75667 139.251 4.046 138.99H4.606V147.572H6.888V148.622H0.938ZM7.91678 148.622V148.216C7.91678 147.824 7.99145 147.464 8.14078 147.138C8.29945 146.802 8.50478 146.498 8.75678 146.228C9.01811 145.948 9.31211 145.682 9.63878 145.43C9.96545 145.178 10.2968 144.93 10.6328 144.688C11.0901 144.37 11.5101 144.053 11.8928 143.736C12.2848 143.418 12.5974 143.078 12.8308 142.714C13.0641 142.34 13.1808 141.925 13.1808 141.468C13.1808 141.178 13.1108 140.917 12.9708 140.684C12.8401 140.441 12.6394 140.25 12.3688 140.11C12.0981 139.97 11.7528 139.9 11.3328 139.9C10.8381 139.9 10.4414 139.984 10.1428 140.152C9.84411 140.32 9.62478 140.544 9.48478 140.824C9.35411 141.104 9.28878 141.412 9.28878 141.748V142.322H8.07078C8.06145 142.275 8.05211 142.205 8.04278 142.112C8.03345 142.009 8.02878 141.892 8.02878 141.762C8.02878 141.071 8.18278 140.516 8.49078 140.096C8.79878 139.666 9.20945 139.354 9.72278 139.158C10.2361 138.952 10.7914 138.85 11.3888 138.85C11.9208 138.85 12.3781 138.924 12.7608 139.074C13.1434 139.214 13.4608 139.41 13.7128 139.662C13.9648 139.914 14.1514 140.203 14.2728 140.53C14.3941 140.847 14.4548 141.183 14.4548 141.538C14.4548 141.976 14.3754 142.378 14.2168 142.742C14.0674 143.106 13.8528 143.446 13.5728 143.764C13.3021 144.072 12.9801 144.37 12.6068 144.66C12.2428 144.949 11.8461 145.243 11.4168 145.542C11.1181 145.738 10.8241 145.948 10.5348 146.172C10.2454 146.386 9.99811 146.606 9.79278 146.83C9.58745 147.054 9.45678 147.268 9.40078 147.474H14.5108V148.622H7.91678ZM16.0421 151.044V141.258H17.0221L17.1481 142.308H17.2461C17.4981 141.897 17.8201 141.594 18.2121 141.398C18.6041 141.192 19.0475 141.09 19.5421 141.09C20.1581 141.09 20.6808 141.225 21.1101 141.496C21.5395 141.766 21.8708 142.191 22.1041 142.77C22.3375 143.339 22.4541 144.081 22.4541 144.996C22.4541 145.854 22.3328 146.568 22.0901 147.138C21.8568 147.698 21.5255 148.113 21.0961 148.384C20.6668 148.654 20.1675 148.79 19.5981 148.79C19.2808 148.79 18.9821 148.752 18.7021 148.678C18.4221 148.603 18.1701 148.486 17.9461 148.328C17.7221 148.16 17.5261 147.95 17.3581 147.698H17.2741V151.044H16.0421ZM19.2061 147.712C19.6635 147.712 20.0368 147.623 20.3261 147.446C20.6155 147.259 20.8301 146.974 20.9701 146.592C21.1101 146.2 21.1801 145.7 21.1801 145.094V144.8C21.1801 144.156 21.1055 143.642 20.9561 143.26C20.8068 142.868 20.5875 142.588 20.2981 142.42C20.0181 142.252 19.6681 142.168 19.2481 142.168C18.7908 142.168 18.4128 142.27 18.1141 142.476C17.8248 142.672 17.6101 142.97 17.4701 143.372C17.3395 143.773 17.2741 144.263 17.2741 144.842V145.052C17.2741 145.565 17.3208 145.994 17.4141 146.34C17.5168 146.676 17.6568 146.946 17.8341 147.152C18.0208 147.357 18.2308 147.502 18.4641 147.586C18.6975 147.67 18.9448 147.712 19.2061 147.712ZM22.8444 148.622L25.4904 144.856L22.9704 141.258H24.4544L26.2464 143.89H26.3164L28.1084 141.258H29.5084L26.9884 144.814L29.6484 148.622H28.1784L26.2464 145.78H26.1764L24.2444 148.622H22.8444Z" fill="#272433"/><path d="M237.882 23.7896L238.47 21.1156H237.336V20.0516H238.694L239.17 17.8816H237.98V16.8176H239.408L240.066 13.8496H241.172L240.514 16.8176H242.572L243.23 13.8496H244.35L243.678 16.8176H244.798V17.8816H243.468L242.978 20.0516H244.168V21.1156H242.754L242.166 23.7896H241.06L241.648 21.1156H239.576L239.002 23.7896H237.882ZM239.8 20.0516H241.872L242.348 17.8816H240.29L239.8 20.0516ZM249.264 23.7896C248.714 23.7896 248.219 23.7102 247.78 23.5516C247.351 23.3929 246.982 23.1362 246.674 22.7816C246.376 22.4269 246.147 21.9509 245.988 21.3536C245.83 20.7469 245.75 19.9956 245.75 19.0996C245.75 18.1102 245.83 17.2842 245.988 16.6216C246.147 15.9496 246.371 15.4129 246.66 15.0116C246.959 14.6009 247.323 14.3069 247.752 14.1296C248.191 13.9429 248.686 13.8496 249.236 13.8496C249.927 13.8496 250.482 13.9802 250.902 14.2416C251.332 14.5029 251.644 14.8576 251.84 15.3056C252.036 15.7442 252.134 16.2482 252.134 16.8176H250.874C250.874 16.3882 250.814 16.0289 250.692 15.7396C250.571 15.4502 250.38 15.2356 250.118 15.0956C249.866 14.9556 249.549 14.8856 249.166 14.8856C248.606 14.8856 248.168 15.0349 247.85 15.3336C247.542 15.6229 247.328 16.0476 247.206 16.6076C247.094 17.1676 247.034 17.8349 247.024 18.6096C247.155 18.3949 247.337 18.1989 247.57 18.0216C247.813 17.8442 248.098 17.7042 248.424 17.6016C248.751 17.4896 249.096 17.4336 249.46 17.4336C250.151 17.4336 250.72 17.5736 251.168 17.8536C251.616 18.1242 251.948 18.4976 252.162 18.9736C252.377 19.4496 252.484 19.9816 252.484 20.5696C252.484 21.2136 252.344 21.7782 252.064 22.2636C251.784 22.7489 251.402 23.1269 250.916 23.3976C250.431 23.6589 249.88 23.7896 249.264 23.7896ZM249.18 22.7536C249.638 22.7536 250.016 22.6556 250.314 22.4596C250.613 22.2542 250.832 21.9882 250.972 21.6616C251.122 21.3256 251.196 20.9569 251.196 20.5556C251.196 20.1729 251.126 19.8229 250.986 19.5056C250.846 19.1882 250.627 18.9362 250.328 18.7496C250.039 18.5536 249.666 18.4556 249.208 18.4556C248.751 18.4556 248.368 18.5536 248.06 18.7496C247.752 18.9456 247.524 19.2069 247.374 19.5336C247.225 19.8509 247.15 20.2149 247.15 20.6256C247.15 21.0082 247.225 21.3629 247.374 21.6896C247.524 22.0162 247.748 22.2776 248.046 22.4736C248.345 22.6602 248.723 22.7536 249.18 22.7536ZM258.312 23.7896C257.332 23.7896 256.501 23.6122 255.82 23.2576C255.138 22.8936 254.616 22.3476 254.252 21.6196C253.897 20.8822 253.72 19.9489 253.72 18.8196C253.72 17.1489 254.126 15.9029 254.938 15.0816C255.75 14.2602 256.879 13.8496 258.326 13.8496C259.147 13.8496 259.875 13.9849 260.51 14.2556C261.144 14.5169 261.639 14.9182 261.994 15.4596C262.358 15.9916 262.54 16.6636 262.54 17.4756H261.196C261.196 16.9156 261.074 16.4536 260.832 16.0896C260.598 15.7256 260.267 15.4549 259.838 15.2776C259.408 15.0909 258.904 14.9976 258.326 14.9976C257.654 14.9976 257.075 15.1282 256.59 15.3896C256.104 15.6509 255.736 16.0569 255.484 16.6076C255.232 17.1489 255.106 17.8489 255.106 18.7076V19.0016C255.106 19.8509 255.232 20.5462 255.484 21.0876C255.736 21.6196 256.1 22.0116 256.576 22.2636C257.061 22.5156 257.644 22.6416 258.326 22.6416C258.923 22.6416 259.436 22.5529 259.866 22.3756C260.304 22.1982 260.64 21.9276 260.874 21.5636C261.116 21.1902 261.238 20.7236 261.238 20.1636H262.54C262.54 20.9942 262.353 21.6756 261.98 22.2076C261.616 22.7396 261.116 23.1362 260.482 23.3976C259.847 23.6589 259.124 23.7896 258.312 23.7896ZM267.307 23.7896C266.757 23.7896 266.262 23.7102 265.823 23.5516C265.394 23.3929 265.025 23.1362 264.717 22.7816C264.419 22.4269 264.19 21.9509 264.031 21.3536C263.873 20.7469 263.793 19.9956 263.793 19.0996C263.793 18.1102 263.873 17.2842 264.031 16.6216C264.19 15.9496 264.414 15.4129 264.703 15.0116C265.002 14.6009 265.366 14.3069 265.795 14.1296C266.234 13.9429 266.729 13.8496 267.279 13.8496C267.97 13.8496 268.525 13.9802 268.945 14.2416C269.375 14.5029 269.687 14.8576 269.883 15.3056C270.079 15.7442 270.177 16.2482 270.177 16.8176H268.917C268.917 16.3882 268.857 16.0289 268.735 15.7396C268.614 15.4502 268.423 15.2356 268.161 15.0956C267.909 14.9556 267.592 14.8856 267.209 14.8856C266.649 14.8856 266.211 15.0349 265.893 15.3336C265.585 15.6229 265.371 16.0476 265.249 16.6076C265.137 17.1676 265.077 17.8349 265.067 18.6096C265.198 18.3949 265.38 18.1989 265.613 18.0216C265.856 17.8442 266.141 17.7042 266.467 17.6016C266.794 17.4896 267.139 17.4336 267.503 17.4336C268.194 17.4336 268.763 17.5736 269.211 17.8536C269.659 18.1242 269.991 18.4976 270.205 18.9736C270.42 19.4496 270.527 19.9816 270.527 20.5696C270.527 21.2136 270.387 21.7782 270.107 22.2636C269.827 22.7489 269.445 23.1269 268.959 23.3976C268.474 23.6589 267.923 23.7896 267.307 23.7896ZM267.223 22.7536C267.681 22.7536 268.059 22.6556 268.357 22.4596C268.656 22.2542 268.875 21.9882 269.015 21.6616C269.165 21.3256 269.239 20.9569 269.239 20.5556C269.239 20.1729 269.169 19.8229 269.029 19.5056C268.889 19.1882 268.67 18.9362 268.371 18.7496C268.082 18.5536 267.709 18.4556 267.251 18.4556C266.794 18.4556 266.411 18.5536 266.103 18.7496C265.795 18.9456 265.567 19.2069 265.417 19.5336C265.268 19.8509 265.193 20.2149 265.193 20.6256C265.193 21.0082 265.268 21.3629 265.417 21.6896C265.567 22.0162 265.791 22.2776 266.089 22.4736C266.388 22.6602 266.766 22.7536 267.223 22.7536ZM275.067 23.7896C274.273 23.7896 273.629 23.6636 273.135 23.4116C272.64 23.1596 272.276 22.8236 272.043 22.4036C271.819 21.9836 271.707 21.5169 271.707 21.0036C271.707 20.4809 271.837 20.0189 272.099 19.6176C272.36 19.2162 272.771 18.9082 273.331 18.6936C272.883 18.4602 272.542 18.1522 272.309 17.7696C272.085 17.3869 271.973 16.9622 271.973 16.4956C271.973 16.0009 272.085 15.5576 272.309 15.1656C272.542 14.7642 272.887 14.4469 273.345 14.2136C273.811 13.9709 274.385 13.8496 275.067 13.8496C275.748 13.8496 276.317 13.9709 276.775 14.2136C277.232 14.4469 277.577 14.7642 277.811 15.1656C278.044 15.5576 278.161 16.0009 278.161 16.4956C278.161 16.9622 278.044 17.3869 277.811 17.7696C277.577 18.1522 277.237 18.4602 276.789 18.6936C277.358 18.9082 277.769 19.2162 278.021 19.6176C278.282 20.0189 278.413 20.4809 278.413 21.0036C278.413 21.5169 278.296 21.9836 278.063 22.4036C277.839 22.8236 277.479 23.1596 276.985 23.4116C276.499 23.6636 275.86 23.7896 275.067 23.7896ZM275.067 22.7676C275.748 22.7676 276.261 22.6089 276.607 22.2916C276.952 21.9742 277.125 21.5402 277.125 20.9896C277.125 20.4482 276.952 20.0189 276.607 19.7016C276.261 19.3842 275.748 19.2256 275.067 19.2256C274.385 19.2256 273.867 19.3842 273.513 19.7016C273.167 20.0189 272.995 20.4482 272.995 20.9896C272.995 21.5402 273.167 21.9742 273.513 22.2916C273.867 22.6089 274.385 22.7676 275.067 22.7676ZM275.067 18.2036C275.636 18.2036 276.084 18.0589 276.411 17.7696C276.737 17.4709 276.901 17.0556 276.901 16.5236C276.901 16.0009 276.737 15.5949 276.411 15.3056C276.084 15.0162 275.636 14.8716 275.067 14.8716C274.497 14.8716 274.049 15.0162 273.723 15.3056C273.396 15.5949 273.233 16.0009 273.233 16.5236C273.233 17.0556 273.396 17.4709 273.723 17.7696C274.049 18.0589 274.497 18.2036 275.067 18.2036ZM283.204 23.7896C282.653 23.7896 282.158 23.7102 281.72 23.5516C281.29 23.3929 280.922 23.1362 280.614 22.7816C280.315 22.4269 280.086 21.9509 279.928 21.3536C279.769 20.7469 279.69 19.9956 279.69 19.0996C279.69 18.1102 279.769 17.2842 279.928 16.6216C280.086 15.9496 280.31 15.4129 280.6 15.0116C280.898 14.6009 281.262 14.3069 281.692 14.1296C282.13 13.9429 282.625 13.8496 283.176 13.8496C283.866 13.8496 284.422 13.9802 284.842 14.2416C285.271 14.5029 285.584 14.8576 285.78 15.3056C285.976 15.7442 286.074 16.2482 286.074 16.8176H284.814C284.814 16.3882 284.753 16.0289 284.632 15.7396C284.51 15.4502 284.319 15.2356 284.058 15.0956C283.806 14.9556 283.488 14.8856 283.106 14.8856C282.546 14.8856 282.107 15.0349 281.79 15.3336C281.482 15.6229 281.267 16.0476 281.146 16.6076C281.034 17.1676 280.973 17.8349 280.964 18.6096C281.094 18.3949 281.276 18.1989 281.51 18.0216C281.752 17.8442 282.037 17.7042 282.364 17.6016C282.69 17.4896 283.036 17.4336 283.4 17.4336C284.09 17.4336 284.66 17.5736 285.108 17.8536C285.556 18.1242 285.887 18.4976 286.102 18.9736C286.316 19.4496 286.424 19.9816 286.424 20.5696C286.424 21.2136 286.284 21.7782 286.004 22.2636C285.724 22.7489 285.341 23.1269 284.856 23.3976C284.37 23.6589 283.82 23.7896 283.204 23.7896ZM283.12 22.7536C283.577 22.7536 283.955 22.6556 284.254 22.4596C284.552 22.2542 284.772 21.9882 284.912 21.6616C285.061 21.3256 285.136 20.9569 285.136 20.5556C285.136 20.1729 285.066 19.8229 284.926 19.5056C284.786 19.1882 284.566 18.9362 284.268 18.7496C283.978 18.5536 283.605 18.4556 283.148 18.4556C282.69 18.4556 282.308 18.5536 282 18.7496C281.692 18.9456 281.463 19.2069 281.314 19.5336C281.164 19.8509 281.09 20.2149 281.09 20.6256C281.09 21.0082 281.164 21.3629 281.314 21.6896C281.463 22.0162 281.687 22.2776 281.986 22.4736C282.284 22.6602 282.662 22.7536 283.12 22.7536ZM287.645 23.6216V23.2156C287.645 22.8236 287.72 22.4642 287.869 22.1376C288.028 21.8016 288.233 21.4982 288.485 21.2276C288.747 20.9476 289.041 20.6816 289.367 20.4296C289.694 20.1776 290.025 19.9302 290.361 19.6876C290.819 19.3702 291.239 19.0529 291.621 18.7356C292.013 18.4182 292.326 18.0776 292.559 17.7136C292.793 17.3402 292.909 16.9249 292.909 16.4676C292.909 16.1782 292.839 15.9169 292.699 15.6836C292.569 15.4409 292.368 15.2496 292.097 15.1096C291.827 14.9696 291.481 14.8996 291.061 14.8996C290.567 14.8996 290.17 14.9836 289.871 15.1516C289.573 15.3196 289.353 15.5436 289.213 15.8236C289.083 16.1036 289.017 16.4116 289.017 16.7476V17.3216H287.799C287.79 17.2749 287.781 17.2049 287.771 17.1116C287.762 17.0089 287.757 16.8922 287.757 16.7616C287.757 16.0709 287.911 15.5156 288.219 15.0956C288.527 14.6662 288.938 14.3536 289.451 14.1576C289.965 13.9522 290.52 13.8496 291.117 13.8496C291.649 13.8496 292.107 13.9242 292.489 14.0736C292.872 14.2136 293.189 14.4096 293.441 14.6616C293.693 14.9136 293.88 15.2029 294.001 15.5296C294.123 15.8469 294.183 16.1829 294.183 16.5376C294.183 16.9762 294.104 17.3776 293.945 17.7416C293.796 18.1056 293.581 18.4462 293.301 18.7636C293.031 19.0716 292.709 19.3702 292.335 19.6596C291.971 19.9489 291.575 20.2429 291.145 20.5416C290.847 20.7376 290.553 20.9476 290.263 21.1716C289.974 21.3862 289.727 21.6056 289.521 21.8296C289.316 22.0536 289.185 22.2682 289.129 22.4736H294.239V23.6216H287.645ZM237.938 43.6216V42.5716H240.36V35.9216H237.924V35.1376C238.269 35.1096 238.624 35.0582 238.988 34.9836C239.361 34.9089 239.725 34.7922 240.08 34.6336C240.435 34.4656 240.757 34.2509 241.046 33.9896H241.606V42.5716H243.888V43.6216H237.938ZM249.075 43.6216V41.2696H244.609V40.2336C245.001 39.5616 245.355 38.8849 245.673 38.2036C245.999 37.5222 246.289 36.8222 246.541 36.1036C246.802 35.3849 247.017 34.6336 247.185 33.8496H248.501C248.379 34.3629 248.23 34.8902 248.053 35.4316C247.875 35.9636 247.679 36.4816 247.465 36.9856C247.25 37.4896 247.035 37.9609 246.821 38.3996C246.615 38.8382 246.419 39.2162 246.233 39.5336C246.055 39.8509 245.911 40.0842 245.799 40.2336H249.075V37.1816C249.131 37.0322 249.187 36.8782 249.243 36.7196C249.308 36.5516 249.369 36.3836 249.425 36.2156C249.481 36.0382 249.532 35.8749 249.579 35.7256C249.625 35.5669 249.663 35.4176 249.691 35.2776H250.307V40.2336H251.581V41.2696H250.307V43.6216H249.075ZM252.864 46.0436V36.2576H253.844L253.97 37.3076H254.068C254.32 36.8969 254.642 36.5936 255.034 36.3976C255.426 36.1922 255.87 36.0896 256.364 36.0896C256.98 36.0896 257.503 36.2249 257.932 36.4956C258.362 36.7662 258.693 37.1909 258.926 37.7696C259.16 38.3389 259.276 39.0809 259.276 39.9956C259.276 40.8542 259.155 41.5682 258.912 42.1376C258.679 42.6976 258.348 43.1129 257.918 43.3836C257.489 43.6542 256.99 43.7896 256.42 43.7896C256.103 43.7896 255.804 43.7522 255.524 43.6776C255.244 43.6029 254.992 43.4862 254.768 43.3276C254.544 43.1596 254.348 42.9496 254.18 42.6976H254.096V46.0436H252.864ZM256.028 42.7116C256.486 42.7116 256.859 42.6229 257.148 42.4456C257.438 42.2589 257.652 41.9742 257.792 41.5916C257.932 41.1996 258.002 40.7002 258.002 40.0936V39.7996C258.002 39.1556 257.928 38.6422 257.778 38.2596C257.629 37.8676 257.41 37.5876 257.12 37.4196C256.84 37.2516 256.49 37.1676 256.07 37.1676C255.613 37.1676 255.235 37.2702 254.936 37.4756C254.647 37.6716 254.432 37.9702 254.292 38.3716C254.162 38.7729 254.096 39.2629 254.096 39.8416V40.0516C254.096 40.5649 254.143 40.9942 254.236 41.3396C254.339 41.6756 254.479 41.9462 254.656 42.1516C254.843 42.3569 255.053 42.5016 255.286 42.5856C255.52 42.6696 255.767 42.7116 256.028 42.7116ZM259.667 43.6216L262.313 39.8556L259.793 36.2576H261.277L263.069 38.8896H263.139L264.931 36.2576H266.331L263.811 39.8136L266.471 43.6216H265.001L263.069 40.7796H262.999L261.067 43.6216H259.667Z" fill="#272433"/><line x1="71.3789" y1="123.122" x2="93.3789" y2="123.122" stroke="#272433"/><line x1="191.869" y1="73.0463" x2="230.869" y2="34.0463" stroke="#272433"/><path d="M374.659 23.7896L375.247 21.1156H374.113V20.0516H375.471L375.947 17.8816H374.757V16.8176H376.185L376.843 13.8496H377.949L377.291 16.8176H379.349L380.007 13.8496H381.127L380.455 16.8176H381.575V17.8816H380.245L379.755 20.0516H380.945V21.1156H379.531L378.943 23.7896H377.837L378.425 21.1156H376.353L375.779 23.7896H374.659ZM376.577 20.0516H378.649L379.125 17.8816H377.067L376.577 20.0516ZM383.046 23.6216V14.0176H389.85V15.1656H384.376V18.2456H389.36V19.3796H384.376V23.6216H383.046ZM395.188 23.6216V21.2696H390.722V20.2336C391.114 19.5616 391.469 18.8849 391.786 18.2036C392.113 17.5222 392.402 16.8222 392.654 16.1036C392.915 15.3849 393.13 14.6336 393.298 13.8496H394.614C394.493 14.3629 394.343 14.8902 394.166 15.4316C393.989 15.9636 393.793 16.4816 393.578 16.9856C393.363 17.4896 393.149 17.9609 392.934 18.3996C392.729 18.8382 392.533 19.2162 392.346 19.5336C392.169 19.8509 392.024 20.0842 391.912 20.2336H395.188V17.1816C395.244 17.0322 395.3 16.8782 395.356 16.7196C395.421 16.5516 395.482 16.3836 395.538 16.2156C395.594 16.0382 395.645 15.8749 395.692 15.7256C395.739 15.5669 395.776 15.4176 395.804 15.2776H396.42V20.2336H397.694V21.2696H396.42V23.6216H395.188ZM399.216 23.6216V14.0176H406.02V15.1656H400.546V18.2456H405.53V19.3796H400.546V23.6216H399.216ZM410.532 23.7896C409.785 23.7896 409.155 23.6776 408.642 23.4536C408.129 23.2202 407.741 22.8936 407.48 22.4736C407.219 22.0536 407.088 21.5542 407.088 20.9756V20.7936H408.334V20.9756C408.334 21.5542 408.516 21.9976 408.88 22.3056C409.253 22.6042 409.767 22.7536 410.42 22.7536C411.073 22.7536 411.601 22.6136 412.002 22.3336C412.403 22.0442 412.604 21.5869 412.604 20.9616C412.604 20.5042 412.497 20.1542 412.282 19.9116C412.067 19.6689 411.787 19.5009 411.442 19.4076C411.106 19.3049 410.747 19.2536 410.364 19.2536H409.356V18.2176H410.406C410.761 18.2176 411.087 18.1616 411.386 18.0496C411.685 17.9376 411.923 17.7556 412.1 17.5036C412.287 17.2422 412.38 16.9062 412.38 16.4956C412.38 16.1222 412.296 15.8189 412.128 15.5856C411.969 15.3522 411.75 15.1796 411.47 15.0676C411.19 14.9462 410.882 14.8856 410.546 14.8856C410.173 14.8856 409.837 14.9509 409.538 15.0816C409.239 15.2029 409.001 15.3896 408.824 15.6416C408.656 15.8936 408.572 16.2109 408.572 16.5936V16.7756H407.312V16.5236C407.312 15.9916 407.447 15.5249 407.718 15.1236C407.998 14.7222 408.376 14.4096 408.852 14.1856C409.337 13.9616 409.893 13.8496 410.518 13.8496C411.134 13.8496 411.675 13.9476 412.142 14.1436C412.618 14.3396 412.991 14.6289 413.262 15.0116C413.533 15.3942 413.668 15.8656 413.668 16.4256C413.668 16.8362 413.593 17.1862 413.444 17.4756C413.295 17.7556 413.099 17.9889 412.856 18.1756C412.613 18.3622 412.352 18.5162 412.072 18.6376V18.6936C412.585 18.8429 413.015 19.1136 413.36 19.5056C413.705 19.8976 413.878 20.4109 413.878 21.0456C413.878 21.6149 413.733 22.1049 413.444 22.5156C413.164 22.9262 412.767 23.2436 412.254 23.4676C411.75 23.6822 411.176 23.7896 410.532 23.7896ZM415.645 23.6216V14.0176H423.037V15.1656H416.975V18.1336H422.421V19.2816H416.975V22.4736H423.121V23.6216H415.645ZM425.036 23.6216V14.0176H432.428V15.1656H426.366V18.1336H431.812V19.2816H426.366V22.4736H432.512V23.6216H425.036Z" fill="#272433"/><line x1="328.646" y1="73.0463" x2="367.646" y2="34.0463" stroke="#272433"/><line x1="120.732" y1="18.6464" x2="136.289" y2="34.2028" stroke="#272433"/></svg>