<svg width="401" height="85" viewBox="0 0 401 85" fill="none" xmlns="http://www.w3.org/2000/svg"><path d="M344.841 23.168L345.429 20.494H344.295V19.43H345.653L346.129 17.26H344.939V16.196H346.367L347.025 13.228H348.131L347.473 16.196H349.531L350.189 13.228H351.309L350.637 16.196H351.757V17.26H350.427L349.937 19.43H351.127V20.494H349.713L349.125 23.168H348.019L348.607 20.494H346.535L345.961 23.168H344.841ZM346.759 19.43H348.831L349.307 17.26H347.249L346.759 19.43ZM352.724 23V22.594C352.724 22.202 352.798 21.8427 352.948 21.516C353.106 21.18 353.312 20.8767 353.564 20.606C353.825 20.326 354.119 20.06 354.446 19.808C354.772 19.556 355.104 19.3087 355.44 19.066C355.897 18.7487 356.317 18.4313 356.7 18.114C357.092 17.7967 357.404 17.456 357.638 17.092C357.871 16.7187 357.988 16.3033 357.988 15.846C357.988 15.5567 357.918 15.2953 357.778 15.062C357.647 14.8193 357.446 14.628 357.176 14.488C356.905 14.348 356.56 14.278 356.14 14.278C355.645 14.278 355.248 14.362 354.95 14.53C354.651 14.698 354.432 14.922 354.292 15.202C354.161 15.482 354.096 15.79 354.096 16.126V16.7H352.878C352.868 16.6533 352.859 16.5833 352.85 16.49C352.84 16.3873 352.836 16.2707 352.836 16.14C352.836 15.4493 352.99 14.894 353.298 14.474C353.606 14.0447 354.016 13.732 354.53 13.536C355.043 13.3307 355.598 13.228 356.196 13.228C356.728 13.228 357.185 13.3027 357.568 13.452C357.95 13.592 358.268 13.788 358.52 14.04C358.772 14.292 358.958 14.5813 359.08 14.908C359.201 15.2253 359.262 15.5613 359.262 15.916C359.262 16.3547 359.182 16.756 359.024 17.12C358.874 17.484 358.66 17.8247 358.38 18.142C358.109 18.45 357.787 18.7487 357.414 19.038C357.05 19.3273 356.653 19.6213 356.224 19.92C355.925 20.116 355.631 20.326 355.342 20.55C355.052 20.7647 354.805 20.984 354.6 21.208C354.394 21.432 354.264 21.6467 354.208 21.852H359.318V23H352.724ZM364.083 23.168C363.532 23.168 363.038 23.0887 362.599 22.93C362.17 22.7713 361.801 22.5147 361.493 22.16C361.194 21.8053 360.966 21.3293 360.807 20.732C360.648 20.1253 360.569 19.374 360.569 18.478C360.569 17.4887 360.648 16.6627 360.807 16C360.966 15.328 361.19 14.7913 361.479 14.39C361.778 13.9793 362.142 13.6853 362.571 13.508C363.01 13.3213 363.504 13.228 364.055 13.228C364.746 13.228 365.301 13.3587 365.721 13.62C366.15 13.8813 366.463 14.236 366.659 14.684C366.855 15.1227 366.953 15.6267 366.953 16.196H365.693C365.693 15.7667 365.632 15.4073 365.511 15.118C365.39 14.8287 365.198 14.614 364.937 14.474C364.685 14.334 364.368 14.264 363.985 14.264C363.425 14.264 362.986 14.4133 362.669 14.712C362.361 15.0013 362.146 15.426 362.025 15.986C361.913 16.546 361.852 17.2133 361.843 17.988C361.974 17.7733 362.156 17.5773 362.389 17.4C362.632 17.2227 362.916 17.0827 363.243 16.98C363.57 16.868 363.915 16.812 364.279 16.812C364.97 16.812 365.539 16.952 365.987 17.232C366.435 17.5027 366.766 17.876 366.981 18.352C367.196 18.828 367.303 19.36 367.303 19.948C367.303 20.592 367.163 21.1567 366.883 21.642C366.603 22.1273 366.22 22.5053 365.735 22.776C365.25 23.0373 364.699 23.168 364.083 23.168ZM363.999 22.132C364.456 22.132 364.834 22.034 365.133 21.838C365.432 21.6327 365.651 21.3667 365.791 21.04C365.94 20.704 366.015 20.3353 366.015 19.934C366.015 19.5513 365.945 19.2013 365.805 18.884C365.665 18.5667 365.446 18.3147 365.147 18.128C364.858 17.932 364.484 17.834 364.027 17.834C363.57 17.834 363.187 17.932 362.879 18.128C362.571 18.324 362.342 18.5853 362.193 18.912C362.044 19.2293 361.969 19.5933 361.969 20.004C361.969 20.3867 362.044 20.7413 362.193 21.068C362.342 21.3947 362.566 21.656 362.865 21.852C363.164 22.0387 363.542 22.132 363.999 22.132ZM368.524 23V22.594C368.524 22.202 368.599 21.8427 368.748 21.516C368.907 21.18 369.112 20.8767 369.364 20.606C369.626 20.326 369.92 20.06 370.246 19.808C370.573 19.556 370.904 19.3087 371.24 19.066C371.698 18.7487 372.118 18.4313 372.5 18.114C372.892 17.7967 373.205 17.456 373.438 17.092C373.672 16.7187 373.788 16.3033 373.788 15.846C373.788 15.5567 373.718 15.2953 373.578 15.062C373.448 14.8193 373.247 14.628 372.976 14.488C372.706 14.348 372.36 14.278 371.94 14.278C371.446 14.278 371.049 14.362 370.75 14.53C370.452 14.698 370.232 14.922 370.092 15.202C369.962 15.482 369.896 15.79 369.896 16.126V16.7H368.678C368.669 16.6533 368.66 16.5833 368.65 16.49C368.641 16.3873 368.636 16.2707 368.636 16.14C368.636 15.4493 368.79 14.894 369.098 14.474C369.406 14.0447 369.817 13.732 370.33 13.536C370.844 13.3307 371.399 13.228 371.996 13.228C372.528 13.228 372.986 13.3027 373.368 13.452C373.751 13.592 374.068 13.788 374.32 14.04C374.572 14.292 374.759 14.5813 374.88 14.908C375.002 15.2253 375.062 15.5613 375.062 15.916C375.062 16.3547 374.983 16.756 374.824 17.12C374.675 17.484 374.46 17.8247 374.18 18.142C373.91 18.45 373.588 18.7487 373.214 19.038C372.85 19.3273 372.454 19.6213 372.024 19.92C371.726 20.116 371.432 20.326 371.142 20.55C370.853 20.7647 370.606 20.984 370.4 21.208C370.195 21.432 370.064 21.6467 370.008 21.852H375.118V23H368.524ZM379.744 23.168C379.072 23.168 378.484 23.042 377.98 22.79C377.476 22.538 377.084 22.1787 376.804 21.712C376.524 21.236 376.384 20.6713 376.384 20.018H377.63C377.63 20.4567 377.723 20.8347 377.91 21.152C378.096 21.4693 378.348 21.712 378.666 21.88C378.992 22.048 379.352 22.132 379.744 22.132C380.145 22.132 380.5 22.0527 380.808 21.894C381.116 21.726 381.354 21.474 381.522 21.138C381.699 20.802 381.788 20.3773 381.788 19.864C381.788 19.3973 381.708 19.0147 381.55 18.716C381.391 18.408 381.162 18.1793 380.864 18.03C380.574 17.8807 380.238 17.806 379.856 17.806C379.576 17.806 379.31 17.8527 379.058 17.946C378.806 18.03 378.577 18.1513 378.372 18.31C378.176 18.4687 378.012 18.6647 377.882 18.898L376.72 18.716L377.126 13.396H382.572V14.544H378.204L377.98 17.54C378.138 17.4 378.316 17.274 378.512 17.162C378.717 17.0407 378.95 16.9473 379.212 16.882C379.473 16.8073 379.772 16.77 380.108 16.77C380.658 16.77 381.158 16.8773 381.606 17.092C382.054 17.3067 382.408 17.638 382.67 18.086C382.931 18.534 383.062 19.1127 383.062 19.822C383.062 20.522 382.926 21.124 382.656 21.628C382.394 22.132 382.016 22.5147 381.522 22.776C381.027 23.0373 380.434 23.168 379.744 23.168ZM384.298 23V22.594C384.298 22.202 384.372 21.8427 384.522 21.516C384.68 21.18 384.886 20.8767 385.138 20.606C385.399 20.326 385.693 20.06 386.02 19.808C386.346 19.556 386.678 19.3087 387.014 19.066C387.471 18.7487 387.891 18.4313 388.274 18.114C388.666 17.7967 388.978 17.456 389.212 17.092C389.445 16.7187 389.562 16.3033 389.562 15.846C389.562 15.5567 389.492 15.2953 389.352 15.062C389.221 14.8193 389.02 14.628 388.75 14.488C388.479 14.348 388.134 14.278 387.714 14.278C387.219 14.278 386.822 14.362 386.524 14.53C386.225 14.698 386.006 14.922 385.866 15.202C385.735 15.482 385.67 15.79 385.67 16.126V16.7H384.452C384.442 16.6533 384.433 16.5833 384.424 16.49C384.414 16.3873 384.41 16.2707 384.41 16.14C384.41 15.4493 384.564 14.894 384.872 14.474C385.18 14.0447 385.59 13.732 386.104 13.536C386.617 13.3307 387.172 13.228 387.77 13.228C388.302 13.228 388.759 13.3027 389.142 13.452C389.524 13.592 389.842 13.788 390.094 14.04C390.346 14.292 390.532 14.5813 390.654 14.908C390.775 15.2253 390.836 15.5613 390.836 15.916C390.836 16.3547 390.756 16.756 390.598 17.12C390.448 17.484 390.234 17.8247 389.954 18.142C389.683 18.45 389.361 18.7487 388.988 19.038C388.624 19.3273 388.227 19.6213 387.798 19.92C387.499 20.116 387.205 20.326 386.916 20.55C386.626 20.7647 386.379 20.984 386.174 21.208C385.968 21.432 385.838 21.6467 385.782 21.852H390.892V23H384.298ZM391.555 23L395.349 13.396H397.099L400.907 23H399.465L398.527 20.62H393.851L392.927 23H391.555ZM394.285 19.486H398.079L396.917 16.476C396.889 16.392 396.847 16.2753 396.791 16.126C396.735 15.9767 396.674 15.8133 396.609 15.636C396.544 15.4493 396.478 15.2627 396.413 15.076C396.348 14.88 396.287 14.7027 396.231 14.544H396.147C396.082 14.7307 396.007 14.9453 395.923 15.188C395.839 15.4307 395.755 15.6687 395.671 15.902C395.587 16.126 395.517 16.3173 395.461 16.476L394.285 19.486ZM372.29 43V41.95H374.712V35.3H372.276V34.516C372.621 34.488 372.976 34.4367 373.34 34.362C373.713 34.2873 374.077 34.1707 374.432 34.012C374.786 33.844 375.108 33.6293 375.398 33.368H375.958V41.95H378.24V43H372.29ZM383.426 43V40.648H378.96V39.612C379.352 38.94 379.707 38.2633 380.024 37.582C380.351 36.9007 380.64 36.2007 380.892 35.482C381.154 34.7633 381.368 34.012 381.536 33.228H382.852C382.731 33.7413 382.582 34.2687 382.404 34.81C382.227 35.342 382.031 35.86 381.816 36.364C381.602 36.868 381.387 37.3393 381.172 37.778C380.967 38.2167 380.771 38.5947 380.584 38.912C380.407 39.2293 380.262 39.4627 380.15 39.612H383.426V36.56C383.482 36.4107 383.538 36.2567 383.594 36.098C383.66 35.93 383.72 35.762 383.776 35.594C383.832 35.4167 383.884 35.2533 383.93 35.104C383.977 34.9453 384.014 34.796 384.042 34.656H384.658V39.612H385.932V40.648H384.658V43H383.426ZM387.216 45.422V35.636H388.196L388.322 36.686H388.42C388.672 36.2753 388.994 35.972 389.386 35.776C389.778 35.5707 390.221 35.468 390.716 35.468C391.332 35.468 391.855 35.6033 392.284 35.874C392.713 36.1447 393.045 36.5693 393.278 37.148C393.511 37.7173 393.628 38.4593 393.628 39.374C393.628 40.2327 393.507 40.9467 393.264 41.516C393.031 42.076 392.699 42.4913 392.27 42.762C391.841 43.0327 391.341 43.168 390.772 43.168C390.455 43.168 390.156 43.1307 389.876 43.056C389.596 42.9813 389.344 42.8647 389.12 42.706C388.896 42.538 388.7 42.328 388.532 42.076H388.448V45.422H387.216ZM390.38 42.09C390.837 42.09 391.211 42.0013 391.5 41.824C391.789 41.6373 392.004 41.3527 392.144 40.97C392.284 40.578 392.354 40.0787 392.354 39.472V39.178C392.354 38.534 392.279 38.0207 392.13 37.638C391.981 37.246 391.761 36.966 391.472 36.798C391.192 36.63 390.842 36.546 390.422 36.546C389.965 36.546 389.587 36.6487 389.288 36.854C388.999 37.05 388.784 37.3487 388.644 37.75C388.513 38.1513 388.448 38.6413 388.448 39.22V39.43C388.448 39.9433 388.495 40.3727 388.588 40.718C388.691 41.054 388.831 41.3247 389.008 41.53C389.195 41.7353 389.405 41.88 389.638 41.964C389.871 42.048 390.119 42.09 390.38 42.09ZM394.018 43L396.664 39.234L394.144 35.636H395.628L397.42 38.268H397.49L399.282 35.636H400.682L398.162 39.192L400.822 43H399.352L397.42 40.158H397.35L395.418 43H394.018Z" fill="#272433"/><path d="M0.882 15.168L1.47 12.494H0.336V11.43H1.694L2.17 9.26H0.98V8.196H2.408L3.066 5.228H4.172L3.514 8.196H5.572L6.23 5.228H7.35L6.678 8.196H7.798V9.26H6.468L5.978 11.43H7.168V12.494H5.754L5.166 15.168H4.06L4.648 12.494H2.576L2.002 15.168H0.882ZM2.8 11.43H4.872L5.348 9.26H3.29L2.8 11.43ZM8.16244 15L11.9564 5.396H13.7064L17.5144 15H16.0724L15.1344 12.62H10.4584L9.53444 15H8.16244ZM10.8924 11.486H14.6864L13.5244 8.476C13.4964 8.392 13.4544 8.27533 13.3984 8.126C13.3424 7.97667 13.2818 7.81333 13.2164 7.636C13.1511 7.44933 13.0858 7.26267 13.0204 7.076C12.9551 6.88 12.8944 6.70267 12.8384 6.544H12.7544C12.6891 6.73067 12.6144 6.94533 12.5304 7.188C12.4464 7.43067 12.3624 7.66867 12.2784 7.902C12.1944 8.126 12.1244 8.31733 12.0684 8.476L10.8924 11.486ZM18.7274 15V5.396H23.6834C24.2341 5.396 24.7101 5.494 25.1114 5.69C25.5127 5.87667 25.8207 6.14267 26.0354 6.488C26.2594 6.83333 26.3714 7.244 26.3714 7.72C26.3714 8.084 26.3061 8.42 26.1754 8.728C26.0447 9.036 25.8627 9.29267 25.6294 9.498C25.3961 9.70333 25.1301 9.85733 24.8314 9.96V10.016C25.1674 10.0907 25.4707 10.226 25.7414 10.422C26.0121 10.618 26.2267 10.8793 26.3854 11.206C26.5534 11.5233 26.6374 11.9153 26.6374 12.382C26.6374 13.0073 26.5067 13.5113 26.2454 13.894C25.9841 14.2767 25.6341 14.5567 25.1954 14.734C24.7567 14.9113 24.2527 15 23.6834 15H18.7274ZM20.0574 13.852H23.6694C24.1454 13.852 24.5327 13.7307 24.8314 13.488C25.1301 13.236 25.2794 12.8207 25.2794 12.242C25.2794 11.8873 25.2141 11.5933 25.0834 11.36C24.9527 11.1173 24.7614 10.94 24.5094 10.828C24.2574 10.7067 23.9401 10.646 23.5574 10.646H20.0574V13.852ZM20.0574 9.512H23.4314C23.7487 9.512 24.0241 9.45133 24.2574 9.33C24.4907 9.19933 24.6727 9.022 24.8034 8.798C24.9434 8.56467 25.0134 8.30333 25.0134 8.014C25.0134 7.51 24.8781 7.14133 24.6074 6.908C24.3367 6.66533 23.9774 6.544 23.5294 6.544H20.0574V9.512ZM27.3128 15L31.1068 5.396H32.8568L36.6648 15H35.2228L34.2848 12.62H29.6088L28.6848 15H27.3128ZM30.0428 11.486H33.8368L32.6748 8.476C32.6468 8.392 32.6048 8.27533 32.5488 8.126C32.4928 7.97667 32.4321 7.81333 32.3668 7.636C32.3015 7.44933 32.2361 7.26267 32.1708 7.076C32.1055 6.88 32.0448 6.70267 31.9888 6.544H31.9048C31.8395 6.73067 31.7648 6.94533 31.6808 7.188C31.5968 7.43067 31.5128 7.66867 31.4288 7.902C31.3448 8.126 31.2748 8.31733 31.2188 8.476L30.0428 11.486ZM40.5238 15.168C39.8424 15.168 39.2871 15.0373 38.8578 14.776C38.4284 14.5147 38.1158 14.16 37.9198 13.712C37.7238 13.264 37.6258 12.76 37.6258 12.2H38.8858C38.8858 12.6293 38.9464 12.9887 39.0678 13.278C39.1984 13.5673 39.3898 13.782 39.6418 13.922C39.8938 14.062 40.2111 14.132 40.5938 14.132C41.1631 14.132 41.5971 13.9873 41.8958 13.698C42.2038 13.3993 42.4184 12.97 42.5398 12.41C42.6611 11.85 42.7264 11.1827 42.7358 10.408C42.6144 10.6133 42.4324 10.8093 42.1898 10.996C41.9471 11.1733 41.6624 11.318 41.3358 11.43C41.0184 11.5327 40.6778 11.584 40.3138 11.584C39.6231 11.584 39.0538 11.4487 38.6058 11.178C38.1578 10.898 37.8218 10.52 37.5978 10.044C37.3831 9.568 37.2758 9.036 37.2758 8.448C37.2758 7.79467 37.4158 7.23 37.6958 6.754C37.9758 6.26867 38.3584 5.89533 38.8438 5.634C39.3291 5.36333 39.8751 5.228 40.4818 5.228C41.0324 5.228 41.5271 5.30733 41.9658 5.466C42.4044 5.62467 42.7731 5.88133 43.0718 6.236C43.3798 6.59067 43.6131 7.07133 43.7718 7.678C43.9304 8.27533 44.0098 9.022 44.0098 9.918C44.0098 10.898 43.9304 11.724 43.7718 12.396C43.6224 13.068 43.3984 13.6093 43.0998 14.02C42.8011 14.4213 42.4324 14.7153 41.9938 14.902C41.5644 15.0793 41.0744 15.168 40.5238 15.168ZM40.5658 10.562C41.0231 10.562 41.4011 10.464 41.6998 10.268C42.0078 10.072 42.2364 9.81067 42.3858 9.484C42.5351 9.15733 42.6098 8.79333 42.6098 8.392C42.6098 8 42.5351 7.64533 42.3858 7.328C42.2458 7.00133 42.0218 6.74467 41.7138 6.558C41.4151 6.362 41.0371 6.264 40.5798 6.264C40.1224 6.264 39.7444 6.36667 39.4458 6.572C39.1471 6.768 38.9231 7.02933 38.7738 7.356C38.6338 7.68267 38.5638 8.05133 38.5638 8.462C38.5638 8.84467 38.6338 9.19467 38.7738 9.512C38.9138 9.82933 39.1284 10.086 39.4178 10.282C39.7164 10.4687 40.0991 10.562 40.5658 10.562ZM48.4652 15.168C47.7838 15.168 47.2285 15.0373 46.7992 14.776C46.3698 14.5147 46.0572 14.16 45.8612 13.712C45.6652 13.264 45.5672 12.76 45.5672 12.2H46.8272C46.8272 12.6293 46.8878 12.9887 47.0092 13.278C47.1398 13.5673 47.3312 13.782 47.5832 13.922C47.8352 14.062 48.1525 14.132 48.5352 14.132C49.1045 14.132 49.5385 13.9873 49.8372 13.698C50.1452 13.3993 50.3598 12.97 50.4812 12.41C50.6025 11.85 50.6678 11.1827 50.6772 10.408C50.5558 10.6133 50.3738 10.8093 50.1312 10.996C49.8885 11.1733 49.6038 11.318 49.2772 11.43C48.9598 11.5327 48.6192 11.584 48.2552 11.584C47.5645 11.584 46.9952 11.4487 46.5472 11.178C46.0992 10.898 45.7632 10.52 45.5392 10.044C45.3245 9.568 45.2172 9.036 45.2172 8.448C45.2172 7.79467 45.3572 7.23 45.6372 6.754C45.9172 6.26867 46.2998 5.89533 46.7852 5.634C47.2705 5.36333 47.8165 5.228 48.4232 5.228C48.9738 5.228 49.4685 5.30733 49.9072 5.466C50.3458 5.62467 50.7145 5.88133 51.0132 6.236C51.3212 6.59067 51.5545 7.07133 51.7132 7.678C51.8718 8.27533 51.9512 9.022 51.9512 9.918C51.9512 10.898 51.8718 11.724 51.7132 12.396C51.5638 13.068 51.3398 13.6093 51.0412 14.02C50.7425 14.4213 50.3738 14.7153 49.9352 14.902C49.5058 15.0793 49.0158 15.168 48.4652 15.168ZM48.5072 10.562C48.9645 10.562 49.3425 10.464 49.6412 10.268C49.9492 10.072 50.1778 9.81067 50.3272 9.484C50.4765 9.15733 50.5512 8.79333 50.5512 8.392C50.5512 8 50.4765 7.64533 50.3272 7.328C50.1872 7.00133 49.9632 6.74467 49.6552 6.558C49.3565 6.362 48.9785 6.264 48.5212 6.264C48.0638 6.264 47.6858 6.36667 47.3872 6.572C47.0885 6.768 46.8645 7.02933 46.7152 7.356C46.5752 7.68267 46.5052 8.05133 46.5052 8.462C46.5052 8.84467 46.5752 9.19467 46.7152 9.512C46.8552 9.82933 47.0698 10.086 47.3592 10.282C47.6578 10.4687 48.0405 10.562 48.5072 10.562ZM56.4065 15.168C55.7252 15.168 55.1699 15.0373 54.7405 14.776C54.3112 14.5147 53.9985 14.16 53.8025 13.712C53.6065 13.264 53.5085 12.76 53.5085 12.2H54.7685C54.7685 12.6293 54.8292 12.9887 54.9505 13.278C55.0812 13.5673 55.2725 13.782 55.5245 13.922C55.7765 14.062 56.0939 14.132 56.4765 14.132C57.0459 14.132 57.4799 13.9873 57.7785 13.698C58.0865 13.3993 58.3012 12.97 58.4225 12.41C58.5439 11.85 58.6092 11.1827 58.6185 10.408C58.4972 10.6133 58.3152 10.8093 58.0725 10.996C57.8299 11.1733 57.5452 11.318 57.2185 11.43C56.9012 11.5327 56.5605 11.584 56.1965 11.584C55.5059 11.584 54.9365 11.4487 54.4885 11.178C54.0405 10.898 53.7045 10.52 53.4805 10.044C53.2659 9.568 53.1585 9.036 53.1585 8.448C53.1585 7.79467 53.2985 7.23 53.5785 6.754C53.8585 6.26867 54.2412 5.89533 54.7265 5.634C55.2119 5.36333 55.7579 5.228 56.3645 5.228C56.9152 5.228 57.4099 5.30733 57.8485 5.466C58.2872 5.62467 58.6559 5.88133 58.9545 6.236C59.2625 6.59067 59.4959 7.07133 59.6545 7.678C59.8132 8.27533 59.8925 9.022 59.8925 9.918C59.8925 10.898 59.8132 11.724 59.6545 12.396C59.5052 13.068 59.2812 13.6093 58.9825 14.02C58.6839 14.4213 58.3152 14.7153 57.8765 14.902C57.4472 15.0793 56.9572 15.168 56.4065 15.168ZM56.4485 10.562C56.9059 10.562 57.2839 10.464 57.5825 10.268C57.8905 10.072 58.1192 9.81067 58.2685 9.484C58.4179 9.15733 58.4925 8.79333 58.4925 8.392C58.4925 8 58.4179 7.64533 58.2685 7.328C58.1285 7.00133 57.9045 6.74467 57.5965 6.558C57.2979 6.362 56.9199 6.264 56.4625 6.264C56.0052 6.264 55.6272 6.36667 55.3285 6.572C55.0299 6.768 54.8059 7.02933 54.6565 7.356C54.5165 7.68267 54.4465 8.05133 54.4465 8.462C54.4465 8.84467 54.5165 9.19467 54.6565 9.512C54.7965 9.82933 55.0112 10.086 55.3005 10.282C55.5992 10.4687 55.9819 10.562 56.4485 10.562ZM4.858 35V32.648H0.392V31.612C0.784 30.94 1.13867 30.2633 1.456 29.582C1.78267 28.9007 2.072 28.2007 2.324 27.482C2.58533 26.7633 2.8 26.012 2.968 25.228H4.284C4.16267 25.7413 4.01333 26.2687 3.836 26.81C3.65867 27.342 3.46267 27.86 3.248 28.364C3.03333 28.868 2.81867 29.3393 2.604 29.778C2.39867 30.2167 2.20267 30.5947 2.016 30.912C1.83867 31.2293 1.694 31.4627 1.582 31.612H4.858V28.56C4.914 28.4107 4.97 28.2567 5.026 28.098C5.09133 27.93 5.152 27.762 5.208 27.594C5.264 27.4167 5.31533 27.2533 5.362 27.104C5.40867 26.9453 5.446 26.796 5.474 26.656H6.09V31.612H7.364V32.648H6.09V35H4.858ZM11.6996 35.168C11.177 35.168 10.7103 35.0933 10.2996 34.944C9.88896 34.7853 9.53896 34.5193 9.24962 34.146C8.96029 33.7633 8.74096 33.2547 8.59162 32.62C8.44229 31.976 8.36762 31.1687 8.36762 30.198C8.36762 29.2273 8.44229 28.4247 8.59162 27.79C8.74096 27.146 8.96029 26.6373 9.24962 26.264C9.53896 25.8813 9.88896 25.6153 10.2996 25.466C10.7103 25.3073 11.177 25.228 11.6996 25.228C12.2223 25.228 12.6843 25.3073 13.0856 25.466C13.4963 25.6153 13.8463 25.8813 14.1356 26.264C14.425 26.6373 14.6443 27.146 14.7936 27.79C14.943 28.4247 15.0176 29.2273 15.0176 30.198C15.0176 31.1687 14.943 31.976 14.7936 32.62C14.6443 33.2547 14.425 33.7633 14.1356 34.146C13.8463 34.5193 13.4963 34.7853 13.0856 34.944C12.6843 35.0933 12.2223 35.168 11.6996 35.168ZM11.6996 34.132C12.2316 34.132 12.6423 33.9967 12.9316 33.726C13.2303 33.4553 13.4356 33.054 13.5476 32.522C13.669 31.99 13.7296 31.3273 13.7296 30.534V29.89C13.7296 29.0873 13.669 28.42 13.5476 27.888C13.4356 27.3467 13.2303 26.9407 12.9316 26.67C12.6423 26.3993 12.2316 26.264 11.6996 26.264C11.1676 26.264 10.7523 26.3993 10.4536 26.67C10.155 26.9407 9.94496 27.342 9.82363 27.874C9.71162 28.406 9.65562 29.0733 9.65562 29.876V30.506C9.65562 31.2993 9.71162 31.9667 9.82363 32.508C9.94496 33.0493 10.155 33.4553 10.4536 33.726C10.7523 33.9967 11.1676 34.132 11.6996 34.132ZM16.589 37.422V27.636H17.569L17.695 28.686H17.793C18.045 28.2753 18.367 27.972 18.759 27.776C19.151 27.5707 19.5943 27.468 20.089 27.468C20.705 27.468 21.2277 27.6033 21.657 27.874C22.0863 28.1447 22.4177 28.5693 22.651 29.148C22.8843 29.7173 23.001 30.4593 23.001 31.374C23.001 32.2327 22.8797 32.9467 22.637 33.516C22.4037 34.076 22.0723 34.4913 21.643 34.762C21.2137 35.0327 20.7143 35.168 20.145 35.168C19.8277 35.168 19.529 35.1307 19.249 35.056C18.969 34.9813 18.717 34.8647 18.493 34.706C18.269 34.538 18.073 34.328 17.905 34.076H17.821V37.422H16.589ZM19.753 34.09C20.2103 34.09 20.5837 34.0013 20.873 33.824C21.1623 33.6373 21.377 33.3527 21.517 32.97C21.657 32.578 21.727 32.0787 21.727 31.472V31.178C21.727 30.534 21.6523 30.0207 21.503 29.638C21.3537 29.246 21.1343 28.966 20.845 28.798C20.565 28.63 20.215 28.546 19.795 28.546C19.3377 28.546 18.9597 28.6487 18.661 28.854C18.3717 29.05 18.157 29.3487 18.017 29.75C17.8863 30.1513 17.821 30.6413 17.821 31.22V31.43C17.821 31.9433 17.8677 32.3727 17.961 32.718C18.0637 33.054 18.2037 33.3247 18.381 33.53C18.5677 33.7353 18.7777 33.88 19.011 33.964C19.2443 34.048 19.4917 34.09 19.753 34.09ZM23.3913 35L26.0373 31.234L23.5173 27.636H25.0013L26.7933 30.268H26.8633L28.6553 27.636H30.0553L27.5353 31.192L30.1953 35H28.7253L26.7933 32.158H26.7233L24.7913 35H23.3913ZM34.0968 35V24.878H35.3288V28.56H35.4268C35.6134 28.308 35.8234 28.1027 36.0568 27.944C36.2901 27.7853 36.5468 27.6687 36.8268 27.594C37.1161 27.51 37.4288 27.468 37.7648 27.468C38.2315 27.468 38.6374 27.5473 38.9828 27.706C39.3375 27.8647 39.6128 28.1213 39.8088 28.476C40.0141 28.8307 40.1168 29.3113 40.1168 29.918V35H38.8848V30.086C38.8848 29.778 38.8428 29.526 38.7588 29.33C38.6841 29.134 38.5768 28.98 38.4368 28.868C38.3061 28.756 38.1428 28.6767 37.9468 28.63C37.7601 28.5833 37.5501 28.56 37.3168 28.56C36.9715 28.56 36.6448 28.644 36.3368 28.812C36.0288 28.9707 35.7814 29.2087 35.5948 29.526C35.4174 29.834 35.3288 30.2167 35.3288 30.674V35H34.0968ZM44.8415 35.168C44.1135 35.168 43.4975 35.0327 42.9935 34.762C42.4988 34.482 42.1208 34.0573 41.8595 33.488C41.6075 32.9187 41.4815 32.1953 41.4815 31.318C41.4815 30.4313 41.6075 29.708 41.8595 29.148C42.1208 28.5787 42.5035 28.1587 43.0075 27.888C43.5115 27.608 44.1415 27.468 44.8975 27.468C45.5881 27.468 46.1668 27.6033 46.6335 27.874C47.1001 28.1353 47.4501 28.532 47.6835 29.064C47.9261 29.5867 48.0475 30.2447 48.0475 31.038V31.626H42.7555C42.7741 32.214 42.8581 32.6993 43.0075 33.082C43.1661 33.4553 43.3995 33.7307 43.7075 33.908C44.0155 34.076 44.4028 34.16 44.8695 34.16C45.1868 34.16 45.4621 34.1227 45.6955 34.048C45.9381 33.964 46.1388 33.8473 46.2975 33.698C46.4655 33.5487 46.5915 33.3713 46.6755 33.166C46.7595 32.9607 46.8061 32.7367 46.8155 32.494H48.0195C48.0101 32.886 47.9355 33.25 47.7955 33.586C47.6555 33.9127 47.4501 34.1927 47.1795 34.426C46.9088 34.6593 46.5775 34.8413 46.1855 34.972C45.7935 35.1027 45.3455 35.168 44.8415 35.168ZM42.7835 30.702H46.7735C46.7735 30.2913 46.7268 29.946 46.6335 29.666C46.5401 29.386 46.4048 29.1573 46.2275 28.98C46.0595 28.8027 45.8588 28.6767 45.6255 28.602C45.4015 28.518 45.1448 28.476 44.8555 28.476C44.4261 28.476 44.0621 28.5553 43.7635 28.714C43.4648 28.8727 43.2361 29.1153 43.0775 29.442C42.9188 29.7687 42.8208 30.1887 42.7835 30.702ZM49.4874 26.25V24.878H50.7194V26.25H49.4874ZM49.4874 35V27.636H50.7194V35H49.4874ZM53.7939 37.548C53.4392 37.548 53.1126 37.4733 52.8139 37.324C52.5152 37.184 52.2772 36.9787 52.0999 36.708C51.9226 36.4373 51.8339 36.1153 51.8339 35.742C51.8339 35.3313 51.9459 34.9907 52.1699 34.72C52.4032 34.4493 52.6786 34.2487 52.9959 34.118C52.7626 34.006 52.5806 33.852 52.4499 33.656C52.3192 33.4507 52.2539 33.2267 52.2539 32.984C52.2539 32.6573 52.3706 32.382 52.6039 32.158C52.8466 31.934 53.1406 31.7847 53.4859 31.71C53.1686 31.5047 52.9166 31.2433 52.7299 30.926C52.5526 30.5993 52.4639 30.24 52.4639 29.848C52.4639 29.3813 52.5712 28.9707 52.7859 28.616C53.0099 28.2613 53.3459 27.9813 53.7939 27.776C54.2512 27.5707 54.8066 27.468 55.4599 27.468C55.7586 27.468 56.0386 27.4913 56.2999 27.538C56.5612 27.5753 56.7946 27.6407 56.9999 27.734C57.3266 27.5847 57.5692 27.3933 57.7279 27.16C57.8959 26.9267 57.9986 26.6887 58.0359 26.446H59.2539C59.2539 26.726 59.1886 26.992 59.0579 27.244C58.9366 27.4867 58.7686 27.692 58.5539 27.86C58.3392 28.0187 58.0779 28.126 57.7699 28.182C58.0032 28.406 58.1759 28.658 58.2879 28.938C58.4092 29.218 58.4699 29.5213 58.4699 29.848C58.4699 30.3147 58.3579 30.73 58.1339 31.094C57.9192 31.4487 57.5926 31.7287 57.1539 31.934C56.7152 32.1393 56.1646 32.242 55.5019 32.242H54.3539C54.1019 32.242 53.8966 32.2933 53.7379 32.396C53.5792 32.4893 53.4999 32.6433 53.4999 32.858C53.4999 33.0447 53.5792 33.1987 53.7379 33.32C53.8966 33.432 54.1019 33.488 54.3539 33.488H57.3499C57.8912 33.488 58.3346 33.67 58.6799 34.034C59.0252 34.3887 59.1979 34.846 59.1979 35.406C59.1979 35.8073 59.0952 36.1667 58.8899 36.484C58.6939 36.8107 58.4139 37.0673 58.0499 37.254C57.6952 37.45 57.2799 37.548 56.8039 37.548H53.7939ZM54.1439 36.61H56.7899C57.0046 36.61 57.2006 36.5633 57.3779 36.47C57.5552 36.386 57.6952 36.2647 57.7979 36.106C57.9006 35.9473 57.9519 35.7747 57.9519 35.588C57.9519 35.2707 57.8586 35.0187 57.6719 34.832C57.4852 34.6453 57.2519 34.552 56.9719 34.552H54.1439C53.8452 34.552 53.5932 34.6547 53.3879 34.86C53.1826 35.056 53.0799 35.2987 53.0799 35.588C53.0799 35.896 53.1826 36.1433 53.3879 36.33C53.5932 36.5167 53.8452 36.61 54.1439 36.61ZM55.4739 31.318C56.0712 31.318 56.5146 31.1873 56.8039 30.926C57.0932 30.6647 57.2379 30.3053 57.2379 29.848C57.2379 29.4 57.0932 29.0453 56.8039 28.784C56.5146 28.5227 56.0712 28.392 55.4739 28.392C54.8766 28.392 54.4286 28.5227 54.1299 28.784C53.8406 29.0453 53.6959 29.4 53.6959 29.848C53.6959 30.1373 53.7612 30.394 53.8919 30.618C54.0226 30.842 54.2186 31.0147 54.4799 31.136C54.7412 31.2573 55.0726 31.318 55.4739 31.318ZM60.2432 35V24.878H61.4752V28.56H61.5732C61.7599 28.308 61.9699 28.1027 62.2032 27.944C62.4365 27.7853 62.6932 27.6687 62.9732 27.594C63.2625 27.51 63.5752 27.468 63.9112 27.468C64.3779 27.468 64.7839 27.5473 65.1292 27.706C65.4839 27.8647 65.7592 28.1213 65.9552 28.476C66.1605 28.8307 66.2632 29.3113 66.2632 29.918V35H65.0312V30.086C65.0312 29.778 64.9892 29.526 64.9052 29.33C64.8305 29.134 64.7232 28.98 64.5832 28.868C64.4525 28.756 64.2892 28.6767 64.0932 28.63C63.9065 28.5833 63.6965 28.56 63.4632 28.56C63.1179 28.56 62.7912 28.644 62.4832 28.812C62.1752 28.9707 61.9279 29.2087 61.7412 29.526C61.5639 29.834 61.4752 30.2167 61.4752 30.674V35H60.2432ZM69.7699 35.168C69.3872 35.168 69.0885 35.098 68.8739 34.958C68.6592 34.8087 68.5052 34.6173 68.4119 34.384C68.3185 34.1413 68.2719 33.8847 68.2719 33.614V28.672H67.3199V27.636H68.2999L68.5239 25.578H69.5039V27.636H70.8899V28.672H69.5039V33.432C69.5039 33.6653 69.5459 33.8427 69.6299 33.964C69.7139 34.076 69.8725 34.132 70.1059 34.132H70.8899V34.944C70.7965 34.9907 70.6845 35.028 70.5539 35.056C70.4232 35.084 70.2879 35.1073 70.1479 35.126C70.0172 35.154 69.8912 35.168 69.7699 35.168Z" fill="#272433"/><line x1="300" y1="17.5" x2="326" y2="17.5" stroke="#272433"/><line x1="91" y1="19.5" x2="135" y2="19.5" stroke="#272433"/><path d="M16.882 76.168L17.47 73.494H16.336V72.43H17.694L18.17 70.26H16.98V69.196H18.408L19.066 66.228H20.172L19.514 69.196H21.572L22.23 66.228H23.35L22.678 69.196H23.798V70.26H22.468L21.978 72.43H23.168V73.494H21.754L21.166 76.168H20.06L20.648 73.494H18.576L18.002 76.168H16.882ZM18.8 72.43H20.872L21.348 70.26H19.29L18.8 72.43ZM28.0824 76.168C27.5598 76.168 27.0931 76.0933 26.6824 75.944C26.2718 75.7853 25.9218 75.5193 25.6324 75.146C25.3431 74.7633 25.1238 74.2547 24.9744 73.62C24.8251 72.976 24.7504 72.1687 24.7504 71.198C24.7504 70.2273 24.8251 69.4247 24.9744 68.79C25.1238 68.146 25.3431 67.6373 25.6324 67.264C25.9218 66.8813 26.2718 66.6153 26.6824 66.466C27.0931 66.3073 27.5598 66.228 28.0824 66.228C28.6051 66.228 29.0671 66.3073 29.4684 66.466C29.8791 66.6153 30.2291 66.8813 30.5184 67.264C30.8078 67.6373 31.0271 68.146 31.1764 68.79C31.3258 69.4247 31.4004 70.2273 31.4004 71.198C31.4004 72.1687 31.3258 72.976 31.1764 73.62C31.0271 74.2547 30.8078 74.7633 30.5184 75.146C30.2291 75.5193 29.8791 75.7853 29.4684 75.944C29.0671 76.0933 28.6051 76.168 28.0824 76.168ZM28.0824 75.132C28.6144 75.132 29.0251 74.9967 29.3144 74.726C29.6131 74.4553 29.8184 74.054 29.9304 73.522C30.0518 72.99 30.1124 72.3273 30.1124 71.534V70.89C30.1124 70.0873 30.0518 69.42 29.9304 68.888C29.8184 68.3467 29.6131 67.9407 29.3144 67.67C29.0251 67.3993 28.6144 67.264 28.0824 67.264C27.5504 67.264 27.1351 67.3993 26.8364 67.67C26.5378 67.9407 26.3278 68.342 26.2064 68.874C26.0944 69.406 26.0384 70.0733 26.0384 70.876V71.506C26.0384 72.2993 26.0944 72.9667 26.2064 73.508C26.3278 74.0493 26.5378 74.4553 26.8364 74.726C27.1351 74.9967 27.5504 75.132 28.0824 75.132ZM36.0238 76.168C35.5012 76.168 35.0345 76.0933 34.6238 75.944C34.2132 75.7853 33.8632 75.5193 33.5738 75.146C33.2845 74.7633 33.0652 74.2547 32.9158 73.62C32.7665 72.976 32.6918 72.1687 32.6918 71.198C32.6918 70.2273 32.7665 69.4247 32.9158 68.79C33.0652 68.146 33.2845 67.6373 33.5738 67.264C33.8632 66.8813 34.2132 66.6153 34.6238 66.466C35.0345 66.3073 35.5012 66.228 36.0238 66.228C36.5465 66.228 37.0085 66.3073 37.4098 66.466C37.8205 66.6153 38.1705 66.8813 38.4598 67.264C38.7492 67.6373 38.9685 68.146 39.1178 68.79C39.2672 69.4247 39.3418 70.2273 39.3418 71.198C39.3418 72.1687 39.2672 72.976 39.1178 73.62C38.9685 74.2547 38.7492 74.7633 38.4598 75.146C38.1705 75.5193 37.8205 75.7853 37.4098 75.944C37.0085 76.0933 36.5465 76.168 36.0238 76.168ZM36.0238 75.132C36.5558 75.132 36.9665 74.9967 37.2558 74.726C37.5545 74.4553 37.7598 74.054 37.8718 73.522C37.9932 72.99 38.0538 72.3273 38.0538 71.534V70.89C38.0538 70.0873 37.9932 69.42 37.8718 68.888C37.7598 68.3467 37.5545 67.9407 37.2558 67.67C36.9665 67.3993 36.5558 67.264 36.0238 67.264C35.4918 67.264 35.0765 67.3993 34.7778 67.67C34.4792 67.9407 34.2692 68.342 34.1478 68.874C34.0358 69.406 33.9798 70.0733 33.9798 70.876V71.506C33.9798 72.2993 34.0358 72.9667 34.1478 73.508C34.2692 74.0493 34.4792 74.4553 34.7778 74.726C35.0765 74.9967 35.4918 75.132 36.0238 75.132ZM44.0072 76.168C43.3352 76.168 42.7472 76.042 42.2432 75.79C41.7392 75.538 41.3472 75.1787 41.0672 74.712C40.7872 74.236 40.6472 73.6713 40.6472 73.018H41.8932C41.8932 73.4567 41.9866 73.8347 42.1732 74.152C42.3599 74.4693 42.6119 74.712 42.9292 74.88C43.2559 75.048 43.6152 75.132 44.0072 75.132C44.4086 75.132 44.7632 75.0527 45.0712 74.894C45.3792 74.726 45.6172 74.474 45.7852 74.138C45.9626 73.802 46.0512 73.3773 46.0512 72.864C46.0512 72.3973 45.9719 72.0147 45.8132 71.716C45.6546 71.408 45.4259 71.1793 45.1272 71.03C44.8379 70.8807 44.5019 70.806 44.1192 70.806C43.8392 70.806 43.5732 70.8527 43.3212 70.946C43.0692 71.03 42.8406 71.1513 42.6352 71.31C42.4392 71.4687 42.2759 71.6647 42.1452 71.898L40.9832 71.716L41.3892 66.396H46.8352V67.544H42.4672L42.2432 70.54C42.4019 70.4 42.5792 70.274 42.7752 70.162C42.9806 70.0407 43.2139 69.9473 43.4752 69.882C43.7366 69.8073 44.0352 69.77 44.3712 69.77C44.9219 69.77 45.4212 69.8773 45.8692 70.092C46.3172 70.3067 46.6719 70.638 46.9332 71.086C47.1946 71.534 47.3252 72.1127 47.3252 72.822C47.3252 73.522 47.1899 74.124 46.9192 74.628C46.6579 75.132 46.2799 75.5147 45.7852 75.776C45.2906 76.0373 44.6979 76.168 44.0072 76.168ZM52.0613 76.168C51.5106 76.168 51.0159 76.0887 50.5773 75.93C50.1479 75.7713 49.7793 75.5147 49.4713 75.16C49.1726 74.8053 48.9439 74.3293 48.7853 73.732C48.6266 73.1253 48.5473 72.374 48.5473 71.478C48.5473 70.4887 48.6266 69.6627 48.7853 69C48.9439 68.328 49.1679 67.7913 49.4573 67.39C49.7559 66.9793 50.1199 66.6853 50.5493 66.508C50.9879 66.3213 51.4826 66.228 52.0333 66.228C52.7239 66.228 53.2793 66.3587 53.6993 66.62C54.1286 66.8813 54.4413 67.236 54.6373 67.684C54.8333 68.1227 54.9313 68.6267 54.9313 69.196H53.6713C53.6713 68.7667 53.6106 68.4073 53.4893 68.118C53.3679 67.8287 53.1766 67.614 52.9153 67.474C52.6633 67.334 52.3459 67.264 51.9633 67.264C51.4033 67.264 50.9646 67.4133 50.6473 67.712C50.3393 68.0013 50.1246 68.426 50.0033 68.986C49.8913 69.546 49.8306 70.2133 49.8213 70.988C49.9519 70.7733 50.1339 70.5773 50.3673 70.4C50.6099 70.2227 50.8946 70.0827 51.2213 69.98C51.5479 69.868 51.8933 69.812 52.2573 69.812C52.9479 69.812 53.5173 69.952 53.9653 70.232C54.4133 70.5027 54.7446 70.876 54.9593 71.352C55.1739 71.828 55.2813 72.36 55.2813 72.948C55.2813 73.592 55.1413 74.1567 54.8613 74.642C54.5813 75.1273 54.1986 75.5053 53.7133 75.776C53.2279 76.0373 52.6773 76.168 52.0613 76.168ZM51.9773 75.132C52.4346 75.132 52.8126 75.034 53.1113 74.838C53.4099 74.6327 53.6293 74.3667 53.7693 74.04C53.9186 73.704 53.9933 73.3353 53.9933 72.934C53.9933 72.5513 53.9233 72.2013 53.7833 71.884C53.6433 71.5667 53.4239 71.3147 53.1253 71.128C52.8359 70.932 52.4626 70.834 52.0053 70.834C51.5479 70.834 51.1653 70.932 50.8573 71.128C50.5493 71.324 50.3206 71.5853 50.1713 71.912C50.0219 72.2293 49.9473 72.5933 49.9473 73.004C49.9473 73.3867 50.0219 73.7413 50.1713 74.068C50.3206 74.3947 50.5446 74.656 50.8433 74.852C51.1419 75.0387 51.5199 75.132 51.9773 75.132ZM57.0067 76V66.396H64.3987V67.544H58.3367V70.512H63.7827V71.66H58.3367V74.852H64.4827V76H57.0067ZM69.2113 76.168C68.6886 76.168 68.2219 76.0933 67.8113 75.944C67.4006 75.7853 67.0506 75.5193 66.7613 75.146C66.4719 74.7633 66.2526 74.2547 66.1033 73.62C65.9539 72.976 65.8793 72.1687 65.8793 71.198C65.8793 70.2273 65.9539 69.4247 66.1033 68.79C66.2526 68.146 66.4719 67.6373 66.7613 67.264C67.0506 66.8813 67.4006 66.6153 67.8113 66.466C68.2219 66.3073 68.6886 66.228 69.2113 66.228C69.7339 66.228 70.1959 66.3073 70.5973 66.466C71.0079 66.6153 71.3579 66.8813 71.6473 67.264C71.9366 67.6373 72.1559 68.146 72.3053 68.79C72.4546 69.4247 72.5293 70.2273 72.5293 71.198C72.5293 72.1687 72.4546 72.976 72.3053 73.62C72.1559 74.2547 71.9366 74.7633 71.6473 75.146C71.3579 75.5193 71.0079 75.7853 70.5973 75.944C70.1959 76.0933 69.7339 76.168 69.2113 76.168ZM69.2113 75.132C69.7433 75.132 70.1539 74.9967 70.4433 74.726C70.7419 74.4553 70.9473 74.054 71.0593 73.522C71.1806 72.99 71.2413 72.3273 71.2413 71.534V70.89C71.2413 70.0873 71.1806 69.42 71.0593 68.888C70.9473 68.3467 70.7419 67.9407 70.4433 67.67C70.1539 67.3993 69.7433 67.264 69.2113 67.264C68.6793 67.264 68.2639 67.3993 67.9653 67.67C67.6666 67.9407 67.4566 68.342 67.3353 68.874C67.2233 69.406 67.1673 70.0733 67.1673 70.876V71.506C67.1673 72.2993 67.2233 72.9667 67.3353 73.508C67.4566 74.0493 67.6666 74.4553 67.9653 74.726C68.2639 74.9967 68.6793 75.132 69.2113 75.132Z" fill="#272433"/><line x1="91" y1="69.5" x2="135" y2="69.5" stroke="#272433"/><rect x="135" y="6" width="40" height="24" rx="12" fill="#ABA999"/><circle cx="147" cy="18" r="8" fill="white"/><path d="M188.233 23V12.8182H194.378V13.9119H189.466V17.3523H194.06V18.446H189.466V21.9062H194.457V23H188.233ZM197.232 15.3636L199.062 18.4858L200.891 15.3636H202.243L199.778 19.1818L202.243 23H200.891L199.062 20.0369L197.232 23H195.88L198.306 19.1818L195.88 15.3636H197.232ZM206.081 23.179C205.597 23.179 205.158 23.0878 204.763 22.9055C204.369 22.7199 204.056 22.4531 203.824 22.1051C203.592 21.7538 203.476 21.3295 203.476 20.8324C203.476 20.3949 203.562 20.0402 203.734 19.7685C203.907 19.4934 204.137 19.2779 204.425 19.1222C204.714 18.9664 205.032 18.8504 205.38 18.7741C205.731 18.6946 206.084 18.6316 206.439 18.5852C206.903 18.5256 207.279 18.4808 207.567 18.451C207.859 18.4179 208.071 18.3632 208.204 18.2869C208.34 18.2107 208.407 18.0781 208.407 17.8892V17.8494C208.407 17.3589 208.273 16.9777 208.005 16.706C207.74 16.4342 207.337 16.2983 206.797 16.2983C206.237 16.2983 205.797 16.4209 205.479 16.6662C205.161 16.9115 204.937 17.1733 204.808 17.4517L203.694 17.054C203.893 16.59 204.158 16.2287 204.49 15.9702C204.825 15.7083 205.189 15.526 205.584 15.4233C205.981 15.3172 206.372 15.2642 206.757 15.2642C207.002 15.2642 207.284 15.294 207.602 15.3537C207.924 15.41 208.233 15.5277 208.532 15.7067C208.833 15.8857 209.084 16.1558 209.282 16.517C209.481 16.8783 209.581 17.3622 209.581 17.9688V23H208.407V21.9659H208.348C208.268 22.1316 208.136 22.3089 207.95 22.4979C207.764 22.6868 207.518 22.8475 207.209 22.9801C206.901 23.1127 206.525 23.179 206.081 23.179ZM206.26 22.125C206.724 22.125 207.115 22.0339 207.433 21.8516C207.755 21.6693 207.996 21.4339 208.159 21.1456C208.325 20.8572 208.407 20.554 208.407 20.2358V19.1619C208.358 19.2216 208.248 19.2763 208.079 19.326C207.914 19.3724 207.721 19.4138 207.503 19.4503C207.287 19.4834 207.077 19.5133 206.871 19.5398C206.669 19.563 206.505 19.5829 206.379 19.5994C206.074 19.6392 205.789 19.7038 205.524 19.7933C205.262 19.8795 205.05 20.0104 204.888 20.1861C204.728 20.3584 204.649 20.5937 204.649 20.892C204.649 21.2997 204.8 21.608 205.101 21.8168C205.406 22.0223 205.792 22.125 206.26 22.125ZM211.638 23V15.3636H212.772V16.5568H212.871C213.03 16.1491 213.287 15.8326 213.642 15.6072C213.996 15.3786 214.422 15.2642 214.92 15.2642C215.423 15.2642 215.843 15.3786 216.177 15.6072C216.515 15.8326 216.779 16.1491 216.968 16.5568H217.047C217.243 16.1624 217.536 15.8492 217.927 15.6172C218.318 15.3819 218.787 15.2642 219.334 15.2642C220.017 15.2642 220.576 15.478 221.01 15.9055C221.444 16.3298 221.661 16.991 221.661 17.8892V23H220.488V17.8892C220.488 17.3258 220.334 16.9231 220.025 16.6811C219.717 16.4392 219.354 16.3182 218.937 16.3182C218.4 16.3182 217.984 16.4806 217.689 16.8054C217.394 17.1269 217.246 17.5346 217.246 18.0284V23H216.053V17.7699C216.053 17.3357 215.912 16.986 215.63 16.7209C215.349 16.4524 214.986 16.3182 214.542 16.3182C214.237 16.3182 213.952 16.3994 213.687 16.5618C213.425 16.7242 213.213 16.9496 213.05 17.2379C212.891 17.523 212.812 17.8527 212.812 18.2273V23H211.638ZM223.722 25.8636V15.3636H224.856V16.5767H224.995C225.081 16.4441 225.2 16.2751 225.353 16.0696C225.509 15.8608 225.731 15.6752 226.019 15.5128C226.311 15.3471 226.705 15.2642 227.202 15.2642C227.845 15.2642 228.412 15.425 228.903 15.7464C229.393 16.0679 229.776 16.5237 230.051 17.1136C230.326 17.7036 230.464 18.3996 230.464 19.2017C230.464 20.0104 230.326 20.7114 230.051 21.3047C229.776 21.8946 229.395 22.352 228.908 22.6768C228.42 22.9983 227.859 23.1591 227.222 23.1591C226.732 23.1591 226.339 23.0779 226.044 22.9155C225.749 22.7498 225.522 22.5625 225.363 22.3537C225.204 22.1416 225.081 21.9659 224.995 21.8267H224.896V25.8636H223.722ZM224.876 19.1818C224.876 19.7585 224.96 20.2673 225.129 20.7081C225.298 21.1456 225.545 21.4886 225.87 21.7372C226.195 21.9825 226.593 22.1051 227.063 22.1051C227.554 22.1051 227.963 21.9759 228.291 21.7173C228.623 21.4555 228.871 21.1042 229.037 20.6634C229.206 20.2192 229.29 19.7254 229.29 19.1818C229.29 18.6449 229.208 18.161 229.042 17.7301C228.879 17.2959 228.633 16.9529 228.301 16.701C227.973 16.4458 227.56 16.3182 227.063 16.3182C226.586 16.3182 226.185 16.4392 225.86 16.6811C225.535 16.9197 225.29 17.2545 225.124 17.6854C224.959 18.1129 224.876 18.6117 224.876 19.1818ZM233.343 12.8182V23H232.169V12.8182H233.343ZM238.609 23.1591C237.874 23.1591 237.239 22.9967 236.705 22.6719C236.175 22.3438 235.766 21.8864 235.477 21.2997C235.192 20.7098 235.05 20.0237 235.05 19.2415C235.05 18.4593 235.192 17.7699 235.477 17.1733C235.766 16.5734 236.167 16.1061 236.68 15.7713C237.198 15.4332 237.801 15.2642 238.49 15.2642C238.888 15.2642 239.281 15.3305 239.668 15.4631C240.056 15.5956 240.409 15.8111 240.727 16.1094C241.046 16.4044 241.299 16.7955 241.488 17.2827C241.677 17.7699 241.771 18.3698 241.771 19.0824V19.5795H235.885V18.5653H240.578C240.578 18.1345 240.492 17.75 240.32 17.4119C240.151 17.0739 239.909 16.8071 239.594 16.6115C239.282 16.416 238.914 16.3182 238.49 16.3182C238.023 16.3182 237.618 16.4342 237.277 16.6662C236.939 16.8949 236.679 17.1932 236.497 17.5611C236.314 17.929 236.223 18.3234 236.223 18.7443V19.4205C236.223 19.9972 236.323 20.486 236.521 20.8871C236.724 21.2848 237.004 21.5881 237.362 21.7969C237.72 22.0024 238.135 22.1051 238.609 22.1051C238.918 22.1051 239.196 22.062 239.445 21.9759C239.697 21.8864 239.914 21.7538 240.096 21.5781C240.278 21.3991 240.419 21.1771 240.519 20.9119L241.652 21.2301C241.533 21.6146 241.332 21.9527 241.051 22.2443C240.769 22.5327 240.421 22.758 240.006 22.9205C239.592 23.0795 239.127 23.1591 238.609 23.1591ZM247.485 23V12.8182H248.718V21.9062H253.451V23H247.485ZM257.364 23.179C256.88 23.179 256.441 23.0878 256.046 22.9055C255.652 22.7199 255.339 22.4531 255.107 22.1051C254.875 21.7538 254.759 21.3295 254.759 20.8324C254.759 20.3949 254.845 20.0402 255.017 19.7685C255.19 19.4934 255.42 19.2779 255.708 19.1222C255.997 18.9664 256.315 18.8504 256.663 18.7741C257.014 18.6946 257.367 18.6316 257.722 18.5852C258.186 18.5256 258.562 18.4808 258.85 18.451C259.142 18.4179 259.354 18.3632 259.487 18.2869C259.623 18.2107 259.691 18.0781 259.691 17.8892V17.8494C259.691 17.3589 259.556 16.9777 259.288 16.706C259.023 16.4342 258.62 16.2983 258.08 16.2983C257.52 16.2983 257.08 16.4209 256.762 16.6662C256.444 16.9115 256.22 17.1733 256.091 17.4517L254.977 17.054C255.176 16.59 255.442 16.2287 255.773 15.9702C256.108 15.7083 256.472 15.526 256.867 15.4233C257.264 15.3172 257.656 15.2642 258.04 15.2642C258.285 15.2642 258.567 15.294 258.885 15.3537C259.207 15.41 259.517 15.5277 259.815 15.7067C260.116 15.8857 260.367 16.1558 260.566 16.517C260.764 16.8783 260.864 17.3622 260.864 17.9688V23H259.691V21.9659H259.631C259.551 22.1316 259.419 22.3089 259.233 22.4979C259.048 22.6868 258.801 22.8475 258.492 22.9801C258.184 23.1127 257.808 23.179 257.364 23.179ZM257.543 22.125C258.007 22.125 258.398 22.0339 258.716 21.8516C259.038 21.6693 259.28 21.4339 259.442 21.1456C259.608 20.8572 259.691 20.554 259.691 20.2358V19.1619C259.641 19.2216 259.531 19.2763 259.362 19.326C259.197 19.3724 259.004 19.4138 258.786 19.4503C258.57 19.4834 258.36 19.5133 258.154 19.5398C257.952 19.563 257.788 19.5829 257.662 19.5994C257.357 19.6392 257.072 19.7038 256.807 19.7933C256.545 19.8795 256.333 20.0104 256.171 20.1861C256.012 20.3584 255.932 20.5937 255.932 20.892C255.932 21.2997 256.083 21.608 256.384 21.8168C256.689 22.0223 257.076 22.125 257.543 22.125ZM263.08 23V12.8182H264.254V16.5767H264.353C264.439 16.4441 264.559 16.2751 264.711 16.0696C264.867 15.8608 265.089 15.6752 265.377 15.5128C265.669 15.3471 266.063 15.2642 266.561 15.2642C267.204 15.2642 267.77 15.425 268.261 15.7464C268.751 16.0679 269.134 16.5237 269.409 17.1136C269.684 17.7036 269.822 18.3996 269.822 19.2017C269.822 20.0104 269.684 20.7114 269.409 21.3047C269.134 21.8946 268.753 22.352 268.266 22.6768C267.779 22.9983 267.217 23.1591 266.58 23.1591C266.09 23.1591 265.697 23.0779 265.402 22.9155C265.107 22.7498 264.88 22.5625 264.721 22.3537C264.562 22.1416 264.439 21.9659 264.353 21.8267H264.214V23H263.08ZM264.234 19.1818C264.234 19.7585 264.318 20.2673 264.487 20.7081C264.656 21.1456 264.903 21.4886 265.228 21.7372C265.553 21.9825 265.951 22.1051 266.421 22.1051C266.912 22.1051 267.321 21.9759 267.649 21.7173C267.981 21.4555 268.229 21.1042 268.395 20.6634C268.564 20.2192 268.649 19.7254 268.649 19.1818C268.649 18.6449 268.566 18.161 268.4 17.7301C268.238 17.2959 267.991 16.9529 267.659 16.701C267.331 16.4458 266.919 16.3182 266.421 16.3182C265.944 16.3182 265.543 16.4392 265.218 16.6811C264.893 16.9197 264.648 17.2545 264.482 17.6854C264.317 18.1129 264.234 18.6117 264.234 19.1818ZM274.734 23.1591C273.999 23.1591 273.364 22.9967 272.83 22.6719C272.3 22.3438 271.891 21.8864 271.602 21.2997C271.317 20.7098 271.175 20.0237 271.175 19.2415C271.175 18.4593 271.317 17.7699 271.602 17.1733C271.891 16.5734 272.292 16.1061 272.805 15.7713C273.322 15.4332 273.926 15.2642 274.615 15.2642C275.013 15.2642 275.406 15.3305 275.793 15.4631C276.181 15.5956 276.534 15.8111 276.852 16.1094C277.17 16.4044 277.424 16.7955 277.613 17.2827C277.802 17.7699 277.896 18.3698 277.896 19.0824V19.5795H272.01V18.5653H276.703C276.703 18.1345 276.617 17.75 276.445 17.4119C276.276 17.0739 276.034 16.8071 275.719 16.6115C275.407 16.416 275.039 16.3182 274.615 16.3182C274.148 16.3182 273.743 16.4342 273.402 16.6662C273.064 16.8949 272.804 17.1932 272.621 17.5611C272.439 17.929 272.348 18.3234 272.348 18.7443V19.4205C272.348 19.9972 272.447 20.486 272.646 20.8871C272.848 21.2848 273.129 21.5881 273.487 21.7969C273.844 22.0024 274.26 22.1051 274.734 22.1051C275.043 22.1051 275.321 22.062 275.57 21.9759C275.821 21.8864 276.039 21.7538 276.221 21.5781C276.403 21.3991 276.544 21.1771 276.643 20.9119L277.777 21.2301C277.658 21.6146 277.457 21.9527 277.175 22.2443C276.894 22.5327 276.546 22.758 276.131 22.9205C275.717 23.0795 275.251 23.1591 274.734 23.1591ZM280.77 12.8182V23H279.597V12.8182H280.77Z" fill="#26252A"/><rect x="135" y="57" width="40" height="24" rx="12" fill="#0056E0"/><circle cx="163" cy="69" r="8" fill="white"/><path d="M188.233 74V63.8182H194.378V64.9119H189.466V68.3523H194.06V69.446H189.466V72.9062H194.457V74H188.233ZM197.232 66.3636L199.062 69.4858L200.891 66.3636H202.243L199.778 70.1818L202.243 74H200.891L199.062 71.0369L197.232 74H195.88L198.306 70.1818L195.88 66.3636H197.232ZM206.081 74.179C205.597 74.179 205.158 74.0878 204.763 73.9055C204.369 73.7199 204.056 73.4531 203.824 73.1051C203.592 72.7538 203.476 72.3295 203.476 71.8324C203.476 71.3949 203.562 71.0402 203.734 70.7685C203.907 70.4934 204.137 70.2779 204.425 70.1222C204.714 69.9664 205.032 69.8504 205.38 69.7741C205.731 69.6946 206.084 69.6316 206.439 69.5852C206.903 69.5256 207.279 69.4808 207.567 69.451C207.859 69.4179 208.071 69.3632 208.204 69.2869C208.34 69.2107 208.407 69.0781 208.407 68.8892V68.8494C208.407 68.3589 208.273 67.9777 208.005 67.706C207.74 67.4342 207.337 67.2983 206.797 67.2983C206.237 67.2983 205.797 67.4209 205.479 67.6662C205.161 67.9115 204.937 68.1733 204.808 68.4517L203.694 68.054C203.893 67.59 204.158 67.2287 204.49 66.9702C204.825 66.7083 205.189 66.526 205.584 66.4233C205.981 66.3172 206.372 66.2642 206.757 66.2642C207.002 66.2642 207.284 66.294 207.602 66.3537C207.924 66.41 208.233 66.5277 208.532 66.7067C208.833 66.8857 209.084 67.1558 209.282 67.517C209.481 67.8783 209.581 68.3622 209.581 68.9688V74H208.407V72.9659H208.348C208.268 73.1316 208.136 73.3089 207.95 73.4979C207.764 73.6868 207.518 73.8475 207.209 73.9801C206.901 74.1127 206.525 74.179 206.081 74.179ZM206.26 73.125C206.724 73.125 207.115 73.0339 207.433 72.8516C207.755 72.6693 207.996 72.4339 208.159 72.1456C208.325 71.8572 208.407 71.554 208.407 71.2358V70.1619C208.358 70.2216 208.248 70.2763 208.079 70.326C207.914 70.3724 207.721 70.4138 207.503 70.4503C207.287 70.4834 207.077 70.5133 206.871 70.5398C206.669 70.563 206.505 70.5829 206.379 70.5994C206.074 70.6392 205.789 70.7038 205.524 70.7933C205.262 70.8795 205.05 71.0104 204.888 71.1861C204.728 71.3584 204.649 71.5937 204.649 71.892C204.649 72.2997 204.8 72.608 205.101 72.8168C205.406 73.0223 205.792 73.125 206.26 73.125ZM211.638 74V66.3636H212.772V67.5568H212.871C213.03 67.1491 213.287 66.8326 213.642 66.6072C213.996 66.3786 214.422 66.2642 214.92 66.2642C215.423 66.2642 215.843 66.3786 216.177 66.6072C216.515 66.8326 216.779 67.1491 216.968 67.5568H217.047C217.243 67.1624 217.536 66.8492 217.927 66.6172C218.318 66.3819 218.787 66.2642 219.334 66.2642C220.017 66.2642 220.576 66.478 221.01 66.9055C221.444 67.3298 221.661 67.991 221.661 68.8892V74H220.488V68.8892C220.488 68.3258 220.334 67.9231 220.025 67.6811C219.717 67.4392 219.354 67.3182 218.937 67.3182C218.4 67.3182 217.984 67.4806 217.689 67.8054C217.394 68.1269 217.246 68.5346 217.246 69.0284V74H216.053V68.7699C216.053 68.3357 215.912 67.986 215.63 67.7209C215.349 67.4524 214.986 67.3182 214.542 67.3182C214.237 67.3182 213.952 67.3994 213.687 67.5618C213.425 67.7242 213.213 67.9496 213.05 68.2379C212.891 68.523 212.812 68.8527 212.812 69.2273V74H211.638ZM223.722 76.8636V66.3636H224.856V67.5767H224.995C225.081 67.4441 225.2 67.2751 225.353 67.0696C225.509 66.8608 225.731 66.6752 226.019 66.5128C226.311 66.3471 226.705 66.2642 227.202 66.2642C227.845 66.2642 228.412 66.425 228.903 66.7464C229.393 67.0679 229.776 67.5237 230.051 68.1136C230.326 68.7036 230.464 69.3996 230.464 70.2017C230.464 71.0104 230.326 71.7114 230.051 72.3047C229.776 72.8946 229.395 73.352 228.908 73.6768C228.42 73.9983 227.859 74.1591 227.222 74.1591C226.732 74.1591 226.339 74.0779 226.044 73.9155C225.749 73.7498 225.522 73.5625 225.363 73.3537C225.204 73.1416 225.081 72.9659 224.995 72.8267H224.896V76.8636H223.722ZM224.876 70.1818C224.876 70.7585 224.96 71.2673 225.129 71.7081C225.298 72.1456 225.545 72.4886 225.87 72.7372C226.195 72.9825 226.593 73.1051 227.063 73.1051C227.554 73.1051 227.963 72.9759 228.291 72.7173C228.623 72.4555 228.871 72.1042 229.037 71.6634C229.206 71.2192 229.29 70.7254 229.29 70.1818C229.29 69.6449 229.208 69.161 229.042 68.7301C228.879 68.2959 228.633 67.9529 228.301 67.701C227.973 67.4458 227.56 67.3182 227.063 67.3182C226.586 67.3182 226.185 67.4392 225.86 67.6811C225.535 67.9197 225.29 68.2545 225.124 68.6854C224.959 69.1129 224.876 69.6117 224.876 70.1818ZM233.343 63.8182V74H232.169V63.8182H233.343ZM238.609 74.1591C237.874 74.1591 237.239 73.9967 236.705 73.6719C236.175 73.3438 235.766 72.8864 235.477 72.2997C235.192 71.7098 235.05 71.0237 235.05 70.2415C235.05 69.4593 235.192 68.7699 235.477 68.1733C235.766 67.5734 236.167 67.1061 236.68 66.7713C237.198 66.4332 237.801 66.2642 238.49 66.2642C238.888 66.2642 239.281 66.3305 239.668 66.4631C240.056 66.5956 240.409 66.8111 240.727 67.1094C241.046 67.4044 241.299 67.7955 241.488 68.2827C241.677 68.7699 241.771 69.3698 241.771 70.0824V70.5795H235.885V69.5653H240.578C240.578 69.1345 240.492 68.75 240.32 68.4119C240.151 68.0739 239.909 67.8071 239.594 67.6115C239.282 67.416 238.914 67.3182 238.49 67.3182C238.023 67.3182 237.618 67.4342 237.277 67.6662C236.939 67.8949 236.679 68.1932 236.497 68.5611C236.314 68.929 236.223 69.3234 236.223 69.7443V70.4205C236.223 70.9972 236.323 71.486 236.521 71.8871C236.724 72.2848 237.004 72.5881 237.362 72.7969C237.72 73.0024 238.135 73.1051 238.609 73.1051C238.918 73.1051 239.196 73.062 239.445 72.9759C239.697 72.8864 239.914 72.7538 240.096 72.5781C240.278 72.3991 240.419 72.1771 240.519 71.9119L241.652 72.2301C241.533 72.6146 241.332 72.9527 241.051 73.2443C240.769 73.5327 240.421 73.758 240.006 73.9205C239.592 74.0795 239.127 74.1591 238.609 74.1591ZM247.485 74V63.8182H248.718V72.9062H253.451V74H247.485ZM257.364 74.179C256.88 74.179 256.441 74.0878 256.046 73.9055C255.652 73.7199 255.339 73.4531 255.107 73.1051C254.875 72.7538 254.759 72.3295 254.759 71.8324C254.759 71.3949 254.845 71.0402 255.017 70.7685C255.19 70.4934 255.42 70.2779 255.708 70.1222C255.997 69.9664 256.315 69.8504 256.663 69.7741C257.014 69.6946 257.367 69.6316 257.722 69.5852C258.186 69.5256 258.562 69.4808 258.85 69.451C259.142 69.4179 259.354 69.3632 259.487 69.2869C259.623 69.2107 259.691 69.0781 259.691 68.8892V68.8494C259.691 68.3589 259.556 67.9777 259.288 67.706C259.023 67.4342 258.62 67.2983 258.08 67.2983C257.52 67.2983 257.08 67.4209 256.762 67.6662C256.444 67.9115 256.22 68.1733 256.091 68.4517L254.977 68.054C255.176 67.59 255.442 67.2287 255.773 66.9702C256.108 66.7083 256.472 66.526 256.867 66.4233C257.264 66.3172 257.656 66.2642 258.04 66.2642C258.285 66.2642 258.567 66.294 258.885 66.3537C259.207 66.41 259.517 66.5277 259.815 66.7067C260.116 66.8857 260.367 67.1558 260.566 67.517C260.764 67.8783 260.864 68.3622 260.864 68.9688V74H259.691V72.9659H259.631C259.551 73.1316 259.419 73.3089 259.233 73.4979C259.048 73.6868 258.801 73.8475 258.492 73.9801C258.184 74.1127 257.808 74.179 257.364 74.179ZM257.543 73.125C258.007 73.125 258.398 73.0339 258.716 72.8516C259.038 72.6693 259.28 72.4339 259.442 72.1456C259.608 71.8572 259.691 71.554 259.691 71.2358V70.1619C259.641 70.2216 259.531 70.2763 259.362 70.326C259.197 70.3724 259.004 70.4138 258.786 70.4503C258.57 70.4834 258.36 70.5133 258.154 70.5398C257.952 70.563 257.788 70.5829 257.662 70.5994C257.357 70.6392 257.072 70.7038 256.807 70.7933C256.545 70.8795 256.333 71.0104 256.171 71.1861C256.012 71.3584 255.932 71.5937 255.932 71.892C255.932 72.2997 256.083 72.608 256.384 72.8168C256.689 73.0223 257.076 73.125 257.543 73.125ZM263.08 74V63.8182H264.254V67.5767H264.353C264.439 67.4441 264.559 67.2751 264.711 67.0696C264.867 66.8608 265.089 66.6752 265.377 66.5128C265.669 66.3471 266.063 66.2642 266.561 66.2642C267.204 66.2642 267.77 66.425 268.261 66.7464C268.751 67.0679 269.134 67.5237 269.409 68.1136C269.684 68.7036 269.822 69.3996 269.822 70.2017C269.822 71.0104 269.684 71.7114 269.409 72.3047C269.134 72.8946 268.753 73.352 268.266 73.6768C267.779 73.9983 267.217 74.1591 266.58 74.1591C266.09 74.1591 265.697 74.0779 265.402 73.9155C265.107 73.7498 264.88 73.5625 264.721 73.3537C264.562 73.1416 264.439 72.9659 264.353 72.8267H264.214V74H263.08ZM264.234 70.1818C264.234 70.7585 264.318 71.2673 264.487 71.7081C264.656 72.1456 264.903 72.4886 265.228 72.7372C265.553 72.9825 265.951 73.1051 266.421 73.1051C266.912 73.1051 267.321 72.9759 267.649 72.7173C267.981 72.4555 268.229 72.1042 268.395 71.6634C268.564 71.2192 268.649 70.7254 268.649 70.1818C268.649 69.6449 268.566 69.161 268.4 68.7301C268.238 68.2959 267.991 67.9529 267.659 67.701C267.331 67.4458 266.919 67.3182 266.421 67.3182C265.944 67.3182 265.543 67.4392 265.218 67.6811C264.893 67.9197 264.648 68.2545 264.482 68.6854C264.317 69.1129 264.234 69.6117 264.234 70.1818ZM274.734 74.1591C273.999 74.1591 273.364 73.9967 272.83 73.6719C272.3 73.3438 271.891 72.8864 271.602 72.2997C271.317 71.7098 271.175 71.0237 271.175 70.2415C271.175 69.4593 271.317 68.7699 271.602 68.1733C271.891 67.5734 272.292 67.1061 272.805 66.7713C273.322 66.4332 273.926 66.2642 274.615 66.2642C275.013 66.2642 275.406 66.3305 275.793 66.4631C276.181 66.5956 276.534 66.8111 276.852 67.1094C277.17 67.4044 277.424 67.7955 277.613 68.2827C277.802 68.7699 277.896 69.3698 277.896 70.0824V70.5795H272.01V69.5653H276.703C276.703 69.1345 276.617 68.75 276.445 68.4119C276.276 68.0739 276.034 67.8071 275.719 67.6115C275.407 67.416 275.039 67.3182 274.615 67.3182C274.148 67.3182 273.743 67.4342 273.402 67.6662C273.064 67.8949 272.804 68.1932 272.621 68.5611C272.439 68.929 272.348 69.3234 272.348 69.7443V70.4205C272.348 70.9972 272.447 71.486 272.646 71.8871C272.848 72.2848 273.129 72.5881 273.487 72.7969C273.844 73.0024 274.26 73.1051 274.734 73.1051C275.043 73.1051 275.321 73.062 275.57 72.9759C275.821 72.8864 276.039 72.7538 276.221 72.5781C276.403 72.3991 276.544 72.1771 276.643 71.9119L277.777 72.2301C277.658 72.6146 277.457 72.9527 277.175 73.2443C276.894 73.5327 276.546 73.758 276.131 73.9205C275.717 74.0795 275.251 74.1591 274.734 74.1591ZM280.77 63.8182V74H279.597V63.8182H280.77Z" fill="#26252A"/></svg>