<svg width="390" height="57" viewBox="0 0 390 57" fill="none" xmlns="http://www.w3.org/2000/svg"><path d="M1.85075 31.9661L2.43875 29.2921H1.30475V28.2281H2.66275L3.13875 26.0581H1.94875V24.9941H3.37675L4.03475 22.0261H5.14075L4.48275 24.9941H6.54075L7.19875 22.0261H8.31875L7.64675 24.9941H8.76675V26.0581H7.43675L6.94675 28.2281H8.13675V29.2921H6.72275L6.13475 31.9661H5.02875L5.61675 29.2921H3.54475L2.97075 31.9661H1.85075ZM3.76875 28.2281H5.84075L6.31675 26.0581H4.25875L3.76875 28.2281ZM10.2372 31.7981V22.1941H17.0412V23.3421H11.5672V26.4221H16.5512V27.5561H11.5672V31.7981H10.2372ZM21.5395 31.9661C20.7461 31.9661 20.1021 31.8401 19.6075 31.5881C19.1128 31.3361 18.7488 31.0001 18.5155 30.5801C18.2915 30.1601 18.1795 29.6934 18.1795 29.1801C18.1795 28.6574 18.3101 28.1954 18.5715 27.7941C18.8328 27.3928 19.2435 27.0848 19.8035 26.8701C19.3555 26.6368 19.0148 26.3288 18.7815 25.9461C18.5575 25.5634 18.4455 25.1388 18.4455 24.6721C18.4455 24.1774 18.5575 23.7341 18.7815 23.3421C19.0148 22.9408 19.3601 22.6234 19.8175 22.3901C20.2841 22.1474 20.8581 22.0261 21.5395 22.0261C22.2208 22.0261 22.7901 22.1474 23.2475 22.3901C23.7048 22.6234 24.0501 22.9408 24.2835 23.3421C24.5168 23.7341 24.6335 24.1774 24.6335 24.6721C24.6335 25.1388 24.5168 25.5634 24.2835 25.9461C24.0501 26.3288 23.7095 26.6368 23.2615 26.8701C23.8308 27.0848 24.2415 27.3928 24.4935 27.7941C24.7548 28.1954 24.8855 28.6574 24.8855 29.1801C24.8855 29.6934 24.7688 30.1601 24.5355 30.5801C24.3115 31.0001 23.9521 31.3361 23.4575 31.5881C22.9721 31.8401 22.3328 31.9661 21.5395 31.9661ZM21.5395 30.9441C22.2208 30.9441 22.7341 30.7854 23.0795 30.4681C23.4248 30.1508 23.5975 29.7168 23.5975 29.1661C23.5975 28.6248 23.4248 28.1954 23.0795 27.8781C22.7341 27.5608 22.2208 27.4021 21.5395 27.4021C20.8581 27.4021 20.3401 27.5608 19.9855 27.8781C19.6401 28.1954 19.4675 28.6248 19.4675 29.1661C19.4675 29.7168 19.6401 30.1508 19.9855 30.4681C20.3401 30.7854 20.8581 30.9441 21.5395 30.9441ZM21.5395 26.3801C22.1088 26.3801 22.5568 26.2354 22.8835 25.9461C23.2101 25.6474 23.3735 25.2321 23.3735 24.7001C23.3735 24.1774 23.2101 23.7714 22.8835 23.4821C22.5568 23.1928 22.1088 23.0481 21.5395 23.0481C20.9701 23.0481 20.5221 23.1928 20.1955 23.4821C19.8688 23.7714 19.7055 24.1774 19.7055 24.7001C19.7055 25.2321 19.8688 25.6474 20.1955 25.9461C20.5221 26.2354 20.9701 26.3801 21.5395 26.3801ZM25.5745 31.7981L29.3685 22.1941H31.1185L34.9265 31.7981H33.4845L32.5465 29.4181H27.8705L26.9465 31.7981H25.5745ZM28.3045 28.2841H32.0985L30.9365 25.2741C30.9085 25.1901 30.8665 25.0734 30.8105 24.9241C30.7545 24.7748 30.6938 24.6114 30.6285 24.4341C30.5632 24.2474 30.4978 24.0608 30.4325 23.8741C30.3672 23.6781 30.3065 23.5008 30.2505 23.3421H30.1665C30.1012 23.5288 30.0265 23.7434 29.9425 23.9861C29.8585 24.2288 29.7745 24.4668 29.6905 24.7001C29.6065 24.9241 29.5365 25.1154 29.4805 25.2741L28.3045 28.2841ZM36.1395 31.7981V22.1941H43.5315V23.3421H37.4695V26.3101H42.9155V27.4581H37.4695V30.6501H43.6155V31.7981H36.1395ZM45.2641 31.7981V30.7481H47.6861V24.0981H45.2501V23.3141C45.5954 23.2861 45.9501 23.2348 46.3141 23.1601C46.6874 23.0854 47.0514 22.9688 47.4061 22.8101C47.7608 22.6421 48.0828 22.4274 48.3721 22.1661H48.9321V30.7481H51.2141V31.7981H45.2641ZM51.6409 31.7981L55.4349 22.1941H57.1849L60.9929 31.7981H59.5509L58.6129 29.4181H53.9369L53.0129 31.7981H51.6409ZM54.3709 28.2841H58.1649L57.0029 25.2741C56.9749 25.1901 56.9329 25.0734 56.8769 24.9241C56.8209 24.7748 56.7602 24.6114 56.6949 24.4341C56.6295 24.2474 56.5642 24.0608 56.4989 23.8741C56.4335 23.6781 56.3729 23.5008 56.3169 23.3421H56.2329C56.1675 23.5288 56.0929 23.7434 56.0089 23.9861C55.9249 24.2288 55.8409 24.4668 55.7569 24.7001C55.6729 24.9241 55.6029 25.1154 55.5469 25.2741L54.3709 28.2841Z" fill="#272433"/><line x1="67.9688" y1="26.2981" x2="111.969" y2="26.2981" stroke="#272433"/><rect x="110.469" y="1.2981" width="279" height="55" rx="5.5" fill="white"/><rect x="110.469" y="1.2981" width="279" height="55" rx="5.5" stroke="#EBEAE1"/><path d="M137.344 24.4231C137.344 24.0779 137.624 23.7981 137.969 23.7981C138.314 23.7981 138.594 24.0779 138.594 24.4231V29.4231C138.594 29.7683 138.314 30.0481 137.969 30.0481C137.624 30.0481 137.344 29.7683 137.344 29.4231V24.4231Z" fill="#9F701C"/><path d="M137.969 33.1731C138.314 33.1731 138.594 32.8933 138.594 32.5481C138.594 32.2029 138.314 31.9231 137.969 31.9231C137.624 31.9231 137.344 32.2029 137.344 32.5481C137.344 32.8933 137.624 33.1731 137.969 33.1731Z" fill="#9F701C"/><path fill-rule="evenodd" clip-rule="evenodd" d="M146.719 28.7981C146.719 33.6306 142.801 37.5481 137.969 37.5481C133.136 37.5481 129.219 33.6306 129.219 28.7981C129.219 23.9656 133.136 20.0481 137.969 20.0481C142.801 20.0481 146.719 23.9656 146.719 28.7981ZM145.469 28.7981C145.469 32.9402 142.111 36.2981 137.969 36.2981C133.827 36.2981 130.469 32.9402 130.469 28.7981C130.469 24.656 133.827 21.2981 137.969 21.2981C142.111 21.2981 145.469 24.656 145.469 28.7981Z" fill="#9F701C"/><path d="M158.645 24.71V23.6163H166.281V24.71H163.08V33.7981H161.847V24.71H158.645ZM169.114 29.2043V33.7981H167.941V23.6163H169.114V27.3549H169.214C169.393 26.9605 169.661 26.6473 170.019 26.4153C170.38 26.18 170.861 26.0623 171.461 26.0623C171.981 26.0623 172.437 26.1667 172.828 26.3755C173.219 26.581 173.522 26.8975 173.738 27.3251C173.957 27.7493 174.066 28.2896 174.066 28.9458V33.7981H172.893V29.0254C172.893 28.4188 172.735 27.9498 172.42 27.6184C172.109 27.2837 171.676 27.1163 171.123 27.1163C170.738 27.1163 170.394 27.1975 170.089 27.3599C169.787 27.5223 169.549 27.7593 169.373 28.0708C169.201 28.3824 169.114 28.7602 169.114 29.2043ZM176.129 33.7981V26.1617H177.302V33.7981H176.129ZM176.725 24.889C176.496 24.889 176.299 24.8111 176.133 24.6553C175.971 24.4996 175.89 24.3123 175.89 24.0936C175.89 23.8748 175.971 23.6875 176.133 23.5318C176.299 23.376 176.496 23.2981 176.725 23.2981C176.954 23.2981 177.149 23.376 177.312 23.5318C177.477 23.6875 177.56 23.8748 177.56 24.0936C177.56 24.3123 177.477 24.4996 177.312 24.6553C177.149 24.8111 176.954 24.889 176.725 24.889ZM184.776 27.872L183.722 28.1703C183.656 27.9946 183.558 27.8239 183.429 27.6582C183.303 27.4891 183.13 27.3499 182.912 27.2406C182.693 27.1312 182.413 27.0765 182.071 27.0765C181.604 27.0765 181.215 27.1842 180.903 27.3997C180.595 27.6118 180.441 27.8819 180.441 28.21C180.441 28.5017 180.547 28.732 180.759 28.9011C180.971 29.0701 181.302 29.211 181.753 29.3237L182.887 29.6021C183.569 29.7678 184.078 30.0213 184.413 30.3627C184.748 30.7008 184.915 31.1366 184.915 31.6703C184.915 32.1078 184.789 32.4989 184.537 32.8436C184.289 33.1882 183.941 33.46 183.493 33.6589C183.046 33.8578 182.525 33.9572 181.932 33.9572C181.153 33.9572 180.509 33.7882 179.998 33.4501C179.488 33.112 179.165 32.6182 179.029 31.9686L180.142 31.6901C180.248 32.1011 180.449 32.4094 180.744 32.6149C181.042 32.8203 181.432 32.9231 181.912 32.9231C182.459 32.9231 182.893 32.8071 183.215 32.5751C183.54 32.3398 183.702 32.058 183.702 31.7299C183.702 31.4648 183.609 31.2427 183.424 31.0637C183.238 30.8814 182.953 30.7455 182.568 30.6561L181.296 30.3578C180.596 30.192 180.083 29.9352 179.755 29.5872C179.43 29.2358 179.267 28.7967 179.267 28.2697C179.267 27.8388 179.388 27.4577 179.63 27.1262C179.876 26.7948 180.209 26.5346 180.63 26.3457C181.054 26.1568 181.534 26.0623 182.071 26.0623C182.827 26.0623 183.42 26.228 183.851 26.5595C184.285 26.8909 184.594 27.3284 184.776 27.872ZM190.451 33.7981V26.1617H191.624V33.7981H190.451ZM191.047 24.889C190.819 24.889 190.621 24.8111 190.456 24.6553C190.293 24.4996 190.212 24.3123 190.212 24.0936C190.212 23.8748 190.293 23.6875 190.456 23.5318C190.621 23.376 190.819 23.2981 191.047 23.2981C191.276 23.2981 191.472 23.376 191.634 23.5318C191.8 23.6875 191.883 23.8748 191.883 24.0936C191.883 24.3123 191.8 24.4996 191.634 24.6553C191.472 24.8111 191.276 24.889 191.047 24.889ZM199.098 27.872L198.044 28.1703C197.978 27.9946 197.88 27.8239 197.751 27.6582C197.625 27.4891 197.452 27.3499 197.234 27.2406C197.015 27.1312 196.735 27.0765 196.394 27.0765C195.926 27.0765 195.537 27.1842 195.225 27.3997C194.917 27.6118 194.763 27.8819 194.763 28.21C194.763 28.5017 194.869 28.732 195.081 28.9011C195.293 29.0701 195.625 29.211 196.075 29.3237L197.209 29.6021C197.892 29.7678 198.4 30.0213 198.735 30.3627C199.07 30.7008 199.237 31.1366 199.237 31.6703C199.237 32.1078 199.111 32.4989 198.859 32.8436C198.611 33.1882 198.263 33.46 197.815 33.6589C197.368 33.8578 196.848 33.9572 196.254 33.9572C195.475 33.9572 194.831 33.7882 194.32 33.4501C193.81 33.112 193.487 32.6182 193.351 31.9686L194.465 31.6901C194.571 32.1011 194.771 32.4094 195.066 32.6149C195.364 32.8203 195.754 32.9231 196.234 32.9231C196.781 32.9231 197.216 32.8071 197.537 32.5751C197.862 32.3398 198.024 32.058 198.024 31.7299C198.024 31.4648 197.931 31.2427 197.746 31.0637C197.56 30.8814 197.275 30.7455 196.891 30.6561L195.618 30.3578C194.919 30.192 194.405 29.9352 194.077 29.5872C193.752 29.2358 193.59 28.7967 193.59 28.2697C193.59 27.8388 193.711 27.4577 193.952 27.1262C194.198 26.7948 194.531 26.5346 194.952 26.3457C195.376 26.1568 195.857 26.0623 196.394 26.0623C197.149 26.0623 197.743 26.228 198.173 26.5595C198.608 26.8909 198.916 27.3284 199.098 27.872ZM207.02 33.9771C206.536 33.9771 206.097 33.8859 205.703 33.7036C205.308 33.518 204.995 33.2512 204.763 32.9032C204.531 32.5519 204.415 32.1276 204.415 31.6305C204.415 31.193 204.501 30.8383 204.674 30.5666C204.846 30.2915 205.076 30.076 205.365 29.9203C205.653 29.7645 205.971 29.6485 206.319 29.5722C206.67 29.4927 207.023 29.4297 207.378 29.3833C207.842 29.3237 208.218 29.2789 208.507 29.2491C208.798 29.2159 209.01 29.1613 209.143 29.085C209.279 29.0088 209.347 28.8762 209.347 28.6873V28.6475C209.347 28.157 209.213 27.7758 208.944 27.5041C208.679 27.2323 208.276 27.0964 207.736 27.0964C207.176 27.0964 206.737 27.219 206.419 27.4643C206.1 27.7096 205.877 27.9714 205.747 28.2498L204.634 27.8521C204.833 27.3881 205.098 27.0268 205.429 26.7683C205.764 26.5064 206.129 26.3241 206.523 26.2214C206.921 26.1153 207.312 26.0623 207.696 26.0623C207.942 26.0623 208.223 26.0921 208.541 26.1518C208.863 26.2081 209.173 26.3258 209.471 26.5048C209.773 26.6837 210.023 26.9539 210.222 27.3151C210.421 27.6764 210.52 28.1603 210.52 28.7668V33.7981H209.347V32.764H209.287C209.208 32.9297 209.075 33.107 208.889 33.296C208.704 33.4849 208.457 33.6456 208.149 33.7782C207.84 33.9108 207.464 33.9771 207.02 33.9771ZM207.199 32.9231C207.663 32.9231 208.054 32.8319 208.372 32.6497C208.694 32.4674 208.936 32.232 209.098 31.9437C209.264 31.6553 209.347 31.3521 209.347 31.0339V29.96C209.297 30.0197 209.188 30.0744 209.019 30.1241C208.853 30.1705 208.661 30.2119 208.442 30.2484C208.227 30.2815 208.016 30.3114 207.811 30.3379C207.608 30.3611 207.444 30.381 207.318 30.3975C207.013 30.4373 206.728 30.5019 206.463 30.5914C206.201 30.6776 205.989 30.8085 205.827 30.9842C205.668 31.1565 205.588 31.3918 205.588 31.6901C205.588 32.0978 205.739 32.4061 206.041 32.6149C206.346 32.8203 206.732 32.9231 207.199 32.9231ZM216.431 33.7981V26.1617H217.565V27.3549H217.664C217.823 26.9472 218.08 26.6307 218.435 26.4053C218.789 26.1766 219.215 26.0623 219.712 26.0623C220.216 26.0623 220.635 26.1766 220.97 26.4053C221.308 26.6307 221.572 26.9472 221.761 27.3549H221.84C222.036 26.9605 222.329 26.6473 222.72 26.4153C223.111 26.18 223.58 26.0623 224.127 26.0623C224.81 26.0623 225.368 26.2761 225.803 26.7036C226.237 27.1279 226.454 27.7891 226.454 28.6873V33.7981H225.281V28.6873C225.281 28.1239 225.126 27.7212 224.818 27.4792C224.51 27.2373 224.147 27.1163 223.729 27.1163C223.192 27.1163 222.777 27.2787 222.482 27.6035C222.187 27.925 222.039 28.3327 222.039 28.8265V33.7981H220.846V28.568C220.846 28.1338 220.705 27.7841 220.423 27.519C220.142 27.2505 219.779 27.1163 219.335 27.1163C219.03 27.1163 218.745 27.1975 218.479 27.3599C218.218 27.5223 218.005 27.7477 217.843 28.036C217.684 28.3211 217.604 28.6508 217.604 29.0254V33.7981H216.431ZM231.717 33.9572C230.981 33.9572 230.346 33.7948 229.813 33.47C229.282 33.1418 228.873 32.6845 228.585 32.0978C228.3 31.5078 228.157 30.8218 228.157 30.0396C228.157 29.2574 228.3 28.568 228.585 27.9714C228.873 27.3715 229.274 26.9042 229.788 26.5694C230.305 26.2313 230.908 26.0623 231.597 26.0623C231.995 26.0623 232.388 26.1286 232.776 26.2612C233.164 26.3937 233.517 26.6092 233.835 26.9075C234.153 27.2025 234.406 27.5936 234.595 28.0808C234.784 28.568 234.879 29.1679 234.879 29.8805V30.3776H228.992V29.3634H233.686C233.686 28.9326 233.599 28.5481 233.427 28.21C233.258 27.872 233.016 27.6052 232.701 27.4096C232.39 27.2141 232.022 27.1163 231.597 27.1163C231.13 27.1163 230.726 27.2323 230.384 27.4643C230.046 27.693 229.786 27.9913 229.604 28.3592C229.422 28.7271 229.33 29.1215 229.33 29.5424V30.2186C229.33 30.7953 229.43 31.2841 229.629 31.6852C229.831 32.0829 230.111 32.3862 230.469 32.595C230.827 32.8005 231.243 32.9032 231.717 32.9032C232.025 32.9032 232.303 32.8601 232.552 32.7739C232.804 32.6845 233.021 32.5519 233.203 32.3762C233.386 32.1972 233.526 31.9752 233.626 31.71L234.759 32.0282C234.64 32.4127 234.44 32.7507 234.158 33.0424C233.876 33.3308 233.528 33.5561 233.114 33.7186C232.7 33.8776 232.234 33.9572 231.717 33.9572ZM241.989 27.872L240.935 28.1703C240.868 27.9946 240.771 27.8239 240.641 27.6582C240.515 27.4891 240.343 27.3499 240.124 27.2406C239.906 27.1312 239.625 27.0765 239.284 27.0765C238.817 27.0765 238.427 27.1842 238.116 27.3997C237.808 27.6118 237.653 27.8819 237.653 28.21C237.653 28.5017 237.759 28.732 237.972 28.9011C238.184 29.0701 238.515 29.211 238.966 29.3237L240.099 29.6021C240.782 29.7678 241.291 30.0213 241.626 30.3627C241.96 30.7008 242.128 31.1366 242.128 31.6703C242.128 32.1078 242.002 32.4989 241.75 32.8436C241.501 33.1882 241.153 33.46 240.706 33.6589C240.259 33.8578 239.738 33.9572 239.145 33.9572C238.366 33.9572 237.721 33.7882 237.211 33.4501C236.701 33.112 236.377 32.6182 236.241 31.9686L237.355 31.6901C237.461 32.1011 237.662 32.4094 237.957 32.6149C238.255 32.8203 238.644 32.9231 239.125 32.9231C239.672 32.9231 240.106 32.8071 240.428 32.5751C240.752 32.3398 240.915 32.058 240.915 31.7299C240.915 31.4648 240.822 31.2427 240.636 31.0637C240.451 30.8814 240.166 30.7455 239.781 30.6561L238.509 30.3578C237.809 30.192 237.295 29.9352 236.967 29.5872C236.643 29.2358 236.48 28.7967 236.48 28.2697C236.48 27.8388 236.601 27.4577 236.843 27.1262C237.088 26.7948 237.421 26.5346 237.842 26.3457C238.267 26.1568 238.747 26.0623 239.284 26.0623C240.04 26.0623 240.633 26.228 241.064 26.5595C241.498 26.8909 241.806 27.3284 241.989 27.872ZM249.219 27.872L248.165 28.1703C248.099 27.9946 248.001 27.8239 247.872 27.6582C247.746 27.4891 247.573 27.3499 247.355 27.2406C247.136 27.1312 246.856 27.0765 246.515 27.0765C246.047 27.0765 245.658 27.1842 245.346 27.3997C245.038 27.6118 244.884 27.8819 244.884 28.21C244.884 28.5017 244.99 28.732 245.202 28.9011C245.414 29.0701 245.746 29.211 246.196 29.3237L247.33 29.6021C248.013 29.7678 248.521 30.0213 248.856 30.3627C249.191 30.7008 249.358 31.1366 249.358 31.6703C249.358 32.1078 249.232 32.4989 248.98 32.8436C248.732 33.1882 248.384 33.46 247.936 33.6589C247.489 33.8578 246.969 33.9572 246.375 33.9572C245.596 33.9572 244.952 33.7882 244.441 33.4501C243.931 33.112 243.608 32.6182 243.472 31.9686L244.586 31.6901C244.692 32.1011 244.892 32.4094 245.187 32.6149C245.485 32.8203 245.875 32.9231 246.355 32.9231C246.902 32.9231 247.337 32.8071 247.658 32.5751C247.983 32.3398 248.145 32.058 248.145 31.7299C248.145 31.4648 248.052 31.2427 247.867 31.0637C247.681 30.8814 247.396 30.7455 247.012 30.6561L245.739 30.3578C245.04 30.192 244.526 29.9352 244.198 29.5872C243.873 29.2358 243.711 28.7967 243.711 28.2697C243.711 27.8388 243.832 27.4577 244.073 27.1262C244.319 26.7948 244.652 26.5346 245.073 26.3457C245.497 26.1568 245.978 26.0623 246.515 26.0623C247.27 26.0623 247.863 26.228 248.294 26.5595C248.729 26.8909 249.037 27.3284 249.219 27.872ZM253.288 33.9771C252.804 33.9771 252.365 33.8859 251.97 33.7036C251.576 33.518 251.263 33.2512 251.03 32.9032C250.798 32.5519 250.682 32.1276 250.682 31.6305C250.682 31.193 250.769 30.8383 250.941 30.5666C251.113 30.2915 251.344 30.076 251.632 29.9203C251.92 29.7645 252.239 29.6485 252.587 29.5722C252.938 29.4927 253.291 29.4297 253.646 29.3833C254.11 29.3237 254.486 29.2789 254.774 29.2491C255.066 29.2159 255.278 29.1613 255.41 29.085C255.546 29.0088 255.614 28.8762 255.614 28.6873V28.6475C255.614 28.157 255.48 27.7758 255.212 27.5041C254.946 27.2323 254.544 27.0964 254.004 27.0964C253.443 27.0964 253.004 27.219 252.686 27.4643C252.368 27.7096 252.144 27.9714 252.015 28.2498L250.901 27.8521C251.1 27.3881 251.365 27.0268 251.697 26.7683C252.031 26.5064 252.396 26.3241 252.79 26.2214C253.188 26.1153 253.579 26.0623 253.964 26.0623C254.209 26.0623 254.491 26.0921 254.809 26.1518C255.13 26.2081 255.44 26.3258 255.739 26.5048C256.04 26.6837 256.29 26.9539 256.489 27.3151C256.688 27.6764 256.788 28.1603 256.788 28.7668V33.7981H255.614V32.764H255.555C255.475 32.9297 255.343 33.107 255.157 33.296C254.971 33.4849 254.724 33.6456 254.416 33.7782C254.108 33.9108 253.732 33.9771 253.288 33.9771ZM253.467 32.9231C253.931 32.9231 254.322 32.8319 254.64 32.6497C254.961 32.4674 255.203 32.232 255.366 31.9437C255.531 31.6553 255.614 31.3521 255.614 31.0339V29.96C255.565 30.0197 255.455 30.0744 255.286 30.1241C255.12 30.1705 254.928 30.2119 254.709 30.2484C254.494 30.2815 254.284 30.3114 254.078 30.3379C253.876 30.3611 253.712 30.381 253.586 30.3975C253.281 30.4373 252.996 30.5019 252.731 30.5914C252.469 30.6776 252.257 30.8085 252.094 30.9842C251.935 31.1565 251.856 31.3918 251.856 31.6901C251.856 32.0978 252.007 32.4061 252.308 32.6149C252.613 32.8203 252.999 32.9231 253.467 32.9231ZM261.927 36.8208C261.361 36.8208 260.874 36.7479 260.466 36.6021C260.058 36.4596 259.718 36.2706 259.447 36.0353C259.178 35.8033 258.964 35.5547 258.805 35.2896L259.74 34.6333C259.846 34.7725 259.98 34.9316 260.143 35.1106C260.305 35.2929 260.527 35.4503 260.809 35.5829C261.094 35.7188 261.467 35.7867 261.927 35.7867C262.544 35.7867 263.053 35.6376 263.454 35.3393C263.855 35.041 264.055 34.5737 264.055 33.9373V32.3862H263.956C263.87 32.5254 263.747 32.6977 263.588 32.9032C263.432 33.1054 263.207 33.286 262.912 33.4451C262.62 33.6009 262.226 33.6788 261.729 33.6788C261.112 33.6788 260.559 33.5329 260.068 33.2413C259.581 32.9496 259.195 32.5254 258.91 31.9686C258.628 31.4117 258.487 30.7356 258.487 29.9401C258.487 29.1579 258.625 28.4768 258.9 27.8968C259.175 27.3135 259.558 26.8627 260.048 26.5445C260.539 26.223 261.106 26.0623 261.749 26.0623C262.246 26.0623 262.64 26.1452 262.932 26.3109C263.227 26.4733 263.452 26.6589 263.608 26.8677C263.767 27.0732 263.89 27.2422 263.976 27.3748H264.095V26.1617H265.229V34.0168C265.229 34.6731 265.079 35.2067 264.781 35.6177C264.486 36.032 264.088 36.3353 263.588 36.5275C263.091 36.723 262.537 36.8208 261.927 36.8208ZM261.888 32.6248C262.358 32.6248 262.756 32.5171 263.081 32.3016C263.406 32.0862 263.653 31.7763 263.822 31.372C263.991 30.9676 264.075 30.4837 264.075 29.9203C264.075 29.3701 263.992 28.8845 263.827 28.4636C263.661 28.0427 263.416 27.7129 263.091 27.4742C262.766 27.2356 262.365 27.1163 261.888 27.1163C261.391 27.1163 260.976 27.2422 260.645 27.4941C260.317 27.746 260.07 28.0841 259.904 28.5083C259.742 28.9326 259.66 29.4032 259.66 29.9203C259.66 30.4506 259.743 30.9195 259.909 31.3272C260.078 31.7316 260.327 32.0498 260.655 32.2818C260.986 32.5105 261.397 32.6248 261.888 32.6248ZM270.494 33.9572C269.758 33.9572 269.124 33.7948 268.59 33.47C268.06 33.1418 267.65 32.6845 267.362 32.0978C267.077 31.5078 266.934 30.8218 266.934 30.0396C266.934 29.2574 267.077 28.568 267.362 27.9714C267.65 27.3715 268.051 26.9042 268.565 26.5694C269.082 26.2313 269.685 26.0623 270.375 26.0623C270.772 26.0623 271.165 26.1286 271.553 26.2612C271.941 26.3937 272.294 26.6092 272.612 26.9075C272.93 27.2025 273.184 27.5936 273.373 28.0808C273.562 28.568 273.656 29.1679 273.656 29.8805V30.3776H267.77V29.3634H272.463C272.463 28.9326 272.377 28.5481 272.204 28.21C272.035 27.872 271.793 27.6052 271.478 27.4096C271.167 27.2141 270.799 27.1163 270.375 27.1163C269.907 27.1163 269.503 27.2323 269.162 27.4643C268.824 27.693 268.563 27.9913 268.381 28.3592C268.199 28.7271 268.108 29.1215 268.108 29.5424V30.2186C268.108 30.7953 268.207 31.2841 268.406 31.6852C268.608 32.0829 268.888 32.3862 269.246 32.595C269.604 32.8005 270.02 32.9032 270.494 32.9032C270.802 32.9032 271.081 32.8601 271.329 32.7739C271.581 32.6845 271.798 32.5519 271.981 32.3762C272.163 32.1972 272.304 31.9752 272.403 31.71L273.537 32.0282C273.417 32.4127 273.217 32.7507 272.935 33.0424C272.653 33.3308 272.305 33.5561 271.891 33.7186C271.477 33.8776 271.011 33.9572 270.494 33.9572Z" fill="#26252A"/><path d="M371.411 24.24C371.655 23.996 371.655 23.6002 371.411 23.3562C371.167 23.1121 370.771 23.1121 370.527 23.3562L365.969 27.9142L361.411 23.3562C361.167 23.1121 360.771 23.1121 360.527 23.3562C360.283 23.6002 360.283 23.996 360.527 24.24L365.085 28.7981L360.527 33.3562C360.283 33.6002 360.283 33.996 360.527 34.24C360.771 34.4841 361.167 34.4841 361.411 34.24L365.969 29.682L370.527 34.24C370.771 34.4841 371.167 34.4841 371.411 34.24C371.655 33.996 371.655 33.6002 371.411 33.3562L366.853 28.7981L371.411 24.24Z" fill="#26252A"/><rect x="109.969" y="8.7981" width="4" height="40" rx="2" fill="#F8AE1A"/></svg>