<svg width="32" height="32" viewBox="0 0 32 32" fill="none" xmlns="http://www.w3.org/2000/svg"><path d="M9.75736 25C9.75736 24.4477 10.2051 24 10.7574 24H26.7574C27.3096 24 27.7574 24.4477 27.7574 25C27.7574 25.5523 27.3096 26 26.7574 26H10.7574C10.2051 26 9.75736 25.5523 9.75736 25Z" fill="#3A3A38"/><path fill-rule="evenodd" clip-rule="evenodd" d="M14.7574 8.41421L7.58579 15.5858C6.80474 16.3668 6.80474 17.6332 7.58579 18.4142L12.3431 23.1716C13.1242 23.9526 14.3905 23.9526 15.1716 23.1716L22.3431 16L14.7574 8.41421ZM13.9088 6.43431C14.3775 5.96568 15.1373 5.96569 15.6059 6.43431L23.7574 14.5858C24.5384 15.3668 24.5384 16.6332 23.7574 17.4142L16.5858 24.5858C15.0237 26.1479 12.491 26.1479 10.9289 24.5858L6.17157 19.8284C4.60947 18.2663 4.60948 15.7337 6.17157 14.1716L13.9088 6.43431Z" fill="#3A3A38"/><path fill-rule="evenodd" clip-rule="evenodd" d="M9.75736 7C9.75736 6.44772 10.2051 6 10.7574 6H14.7574C15.3096 6 15.7574 6.44772 15.7574 7C15.7574 7.55228 15.3096 8 14.7574 8H10.7574C10.2051 8 9.75736 7.55228 9.75736 7Z" fill="#3A3A38"/><path fill-rule="evenodd" clip-rule="evenodd" d="M23.3074 15C23.8596 15 24.3074 15.4477 24.3074 16V24.5C24.3074 25.0523 23.8596 25.5 23.3074 25.5C22.7551 25.5 22.3074 25.0523 22.3074 24.5V16C22.3074 15.4477 22.7551 15 23.3074 15Z" fill="#3A3A38"/></svg>