<svg width="197" height="225" viewBox="0 0 197 225" fill="none" xmlns="http://www.w3.org/2000/svg"><rect width="83" height="48" rx="6" fill="#0056E0"/><path d="M17.1893 30V18.3636H21.6438C22.4847 18.3636 23.1836 18.4962 23.7404 18.7614C24.301 19.0227 24.7196 19.3807 24.9961 19.8352C25.2764 20.2898 25.4166 20.8049 25.4166 21.3807C25.4166 21.8542 25.3257 22.2595 25.1438 22.5966C24.962 22.9299 24.7177 23.2008 24.4109 23.4091C24.1041 23.6174 23.7613 23.767 23.3825 23.858V23.9716C23.7954 23.9943 24.1912 24.1212 24.57 24.3523C24.9525 24.5795 25.265 24.9015 25.5075 25.3182C25.7499 25.7348 25.8711 26.2386 25.8711 26.8295C25.8711 27.4318 25.7253 27.9735 25.4336 28.4545C25.1419 28.9318 24.7025 29.3087 24.1154 29.5852C23.5283 29.8617 22.7897 30 21.8995 30H17.1893ZM19.2972 28.2386H21.5643C22.3294 28.2386 22.8806 28.0928 23.2177 27.8011C23.5586 27.5057 23.7291 27.1269 23.7291 26.6648C23.7291 26.3201 23.6438 26.0095 23.4734 25.733C23.3029 25.4527 23.0605 25.233 22.7461 25.0739C22.4317 24.911 22.0567 24.8295 21.6211 24.8295H19.2972V28.2386ZM19.2972 23.3125H21.3825C21.7461 23.3125 22.0738 23.2462 22.3654 23.1136C22.6571 22.9773 22.8863 22.786 23.0529 22.5398C23.2234 22.2898 23.3086 21.9943 23.3086 21.6534C23.3086 21.2027 23.1495 20.8314 22.8313 20.5398C22.5169 20.2481 22.0491 20.1023 21.4279 20.1023H19.2972V23.3125ZM33.0005 26.3295V21.2727H35.0573V30H33.063V28.4489H32.9721C32.7751 28.9375 32.4513 29.3371 32.0005 29.6477C31.5535 29.9583 31.0024 30.1136 30.3471 30.1136C29.7751 30.1136 29.2694 29.9867 28.8301 29.733C28.3944 29.4754 28.0535 29.1023 27.8073 28.6136C27.5611 28.1212 27.438 27.5265 27.438 26.8295V21.2727H29.4948V26.5114C29.4948 27.0644 29.6463 27.5038 29.9494 27.8295C30.2524 28.1553 30.6501 28.3182 31.1426 28.3182C31.4456 28.3182 31.7391 28.2443 32.0232 28.0966C32.3073 27.9489 32.5403 27.7292 32.7221 27.4375C32.9077 27.142 33.0005 26.7727 33.0005 26.3295ZM41.3543 21.2727V22.8636H36.3373V21.2727H41.3543ZM37.5759 19.1818H39.6327V27.375C39.6327 27.6515 39.6744 27.8636 39.7577 28.0114C39.8449 28.1553 39.9585 28.2538 40.0987 28.3068C40.2388 28.3598 40.3941 28.3864 40.5646 28.3864C40.6934 28.3864 40.8108 28.3769 40.9168 28.358C41.0267 28.339 41.11 28.322 41.1668 28.3068L41.5134 29.9148C41.4036 29.9527 41.2464 29.9943 41.0418 30.0398C40.8411 30.0852 40.5949 30.1117 40.3032 30.1193C39.788 30.1345 39.324 30.0568 38.9112 29.8864C38.4983 29.7121 38.1706 29.4432 37.9282 29.0795C37.6896 28.7159 37.5721 28.2614 37.5759 27.7159V19.1818ZM47.2565 21.2727V22.8636H42.2394V21.2727H47.2565ZM43.4781 19.1818H45.5349V27.375C45.5349 27.6515 45.5765 27.8636 45.6599 28.0114C45.747 28.1553 45.8606 28.2538 46.0008 28.3068C46.1409 28.3598 46.2962 28.3864 46.4667 28.3864C46.5955 28.3864 46.7129 28.3769 46.819 28.358C46.9288 28.339 47.0121 28.322 47.069 28.3068L47.4156 29.9148C47.3057 29.9527 47.1485 29.9943 46.944 30.0398C46.7432 30.0852 46.497 30.1117 46.2053 30.1193C45.6902 30.1345 45.2262 30.0568 44.8133 29.8864C44.4004 29.7121 44.0727 29.4432 43.8303 29.0795C43.5917 28.7159 43.4743 28.2614 43.4781 27.7159V19.1818ZM52.5137 30.1705C51.6614 30.1705 50.9228 29.983 50.2978 29.608C49.6728 29.233 49.1879 28.7083 48.8432 28.0341C48.5023 27.3598 48.3319 26.572 48.3319 25.6705C48.3319 24.7689 48.5023 23.9792 48.8432 23.3011C49.1879 22.6231 49.6728 22.0966 50.2978 21.7216C50.9228 21.3466 51.6614 21.1591 52.5137 21.1591C53.366 21.1591 54.1046 21.3466 54.7296 21.7216C55.3546 22.0966 55.8376 22.6231 56.1785 23.3011C56.5232 23.9792 56.6955 24.7689 56.6955 25.6705C56.6955 26.572 56.5232 27.3598 56.1785 28.0341C55.8376 28.7083 55.3546 29.233 54.7296 29.608C54.1046 29.983 53.366 30.1705 52.5137 30.1705ZM52.5251 28.5227C52.9872 28.5227 53.3735 28.3958 53.6842 28.142C53.9948 27.8845 54.2258 27.5398 54.3773 27.108C54.5326 26.6761 54.6103 26.1951 54.6103 25.6648C54.6103 25.1307 54.5326 24.6477 54.3773 24.2159C54.2258 23.7803 53.9948 23.4337 53.6842 23.1761C53.3735 22.9186 52.9872 22.7898 52.5251 22.7898C52.0516 22.7898 51.6576 22.9186 51.3432 23.1761C51.0326 23.4337 50.7997 23.7803 50.6444 24.2159C50.4929 24.6477 50.4171 25.1307 50.4171 25.6648C50.4171 26.1951 50.4929 26.6761 50.6444 27.108C50.7997 27.5398 51.0326 27.8845 51.3432 28.142C51.6576 28.3958 52.0516 28.5227 52.5251 28.5227ZM60.3221 24.8864V30H58.2653V21.2727H60.2312V22.7557H60.3334C60.5342 22.267 60.8543 21.8788 61.2937 21.5909C61.7368 21.303 62.2842 21.1591 62.9357 21.1591C63.538 21.1591 64.0626 21.2879 64.5096 21.5455C64.9603 21.803 65.3088 22.1761 65.555 22.6648C65.805 23.1534 65.9281 23.7462 65.9243 24.4432V30H63.8675V24.7614C63.8675 24.178 63.716 23.7216 63.413 23.392C63.1137 23.0625 62.699 22.8977 62.1687 22.8977C61.8088 22.8977 61.4887 22.9773 61.2084 23.1364C60.9319 23.2917 60.7141 23.517 60.555 23.8125C60.3997 24.108 60.3221 24.4659 60.3221 24.8864Z" fill="white"/><rect x="114" width="83" height="48" rx="6" fill="#26252A"/><path d="M131.189 30V18.3636H135.644C136.485 18.3636 137.184 18.4962 137.74 18.7614C138.301 19.0227 138.72 19.3807 138.996 19.8352C139.276 20.2898 139.417 20.8049 139.417 21.3807C139.417 21.8542 139.326 22.2595 139.144 22.5966C138.962 22.9299 138.718 23.2008 138.411 23.4091C138.104 23.6174 137.761 23.767 137.382 23.858V23.9716C137.795 23.9943 138.191 24.1212 138.57 24.3523C138.953 24.5795 139.265 24.9015 139.507 25.3182C139.75 25.7348 139.871 26.2386 139.871 26.8295C139.871 27.4318 139.725 27.9735 139.434 28.4545C139.142 28.9318 138.703 29.3087 138.115 29.5852C137.528 29.8617 136.79 30 135.9 30H131.189ZM133.297 28.2386H135.564C136.329 28.2386 136.881 28.0928 137.218 27.8011C137.559 27.5057 137.729 27.1269 137.729 26.6648C137.729 26.3201 137.644 26.0095 137.473 25.733C137.303 25.4527 137.061 25.233 136.746 25.0739C136.432 24.911 136.057 24.8295 135.621 24.8295H133.297V28.2386ZM133.297 23.3125H135.382C135.746 23.3125 136.074 23.2462 136.365 23.1136C136.657 22.9773 136.886 22.786 137.053 22.5398C137.223 22.2898 137.309 21.9943 137.309 21.6534C137.309 21.2027 137.15 20.8314 136.831 20.5398C136.517 20.2481 136.049 20.1023 135.428 20.1023H133.297V23.3125ZM147.001 26.3295V21.2727H149.057V30H147.063V28.4489H146.972C146.775 28.9375 146.451 29.3371 146.001 29.6477C145.554 29.9583 145.002 30.1136 144.347 30.1136C143.775 30.1136 143.269 29.9867 142.83 29.733C142.394 29.4754 142.054 29.1023 141.807 28.6136C141.561 28.1212 141.438 27.5265 141.438 26.8295V21.2727H143.495V26.5114C143.495 27.0644 143.646 27.5038 143.949 27.8295C144.252 28.1553 144.65 28.3182 145.143 28.3182C145.446 28.3182 145.739 28.2443 146.023 28.0966C146.307 27.9489 146.54 27.7292 146.722 27.4375C146.908 27.142 147.001 26.7727 147.001 26.3295ZM155.354 21.2727V22.8636H150.337V21.2727H155.354ZM151.576 19.1818H153.633V27.375C153.633 27.6515 153.674 27.8636 153.758 28.0114C153.845 28.1553 153.959 28.2538 154.099 28.3068C154.239 28.3598 154.394 28.3864 154.565 28.3864C154.693 28.3864 154.811 28.3769 154.917 28.358C155.027 28.339 155.11 28.322 155.167 28.3068L155.513 29.9148C155.404 29.9527 155.246 29.9943 155.042 30.0398C154.841 30.0852 154.595 30.1117 154.303 30.1193C153.788 30.1345 153.324 30.0568 152.911 29.8864C152.498 29.7121 152.171 29.4432 151.928 29.0795C151.69 28.7159 151.572 28.2614 151.576 27.7159V19.1818ZM161.256 21.2727V22.8636H156.239V21.2727H161.256ZM157.478 19.1818H159.535V27.375C159.535 27.6515 159.577 27.8636 159.66 28.0114C159.747 28.1553 159.861 28.2538 160.001 28.3068C160.141 28.3598 160.296 28.3864 160.467 28.3864C160.595 28.3864 160.713 28.3769 160.819 28.358C160.929 28.339 161.012 28.322 161.069 28.3068L161.416 29.9148C161.306 29.9527 161.149 29.9943 160.944 30.0398C160.743 30.0852 160.497 30.1117 160.205 30.1193C159.69 30.1345 159.226 30.0568 158.813 29.8864C158.4 29.7121 158.073 29.4432 157.83 29.0795C157.592 28.7159 157.474 28.2614 157.478 27.7159V19.1818ZM166.514 30.1705C165.661 30.1705 164.923 29.983 164.298 29.608C163.673 29.233 163.188 28.7083 162.843 28.0341C162.502 27.3598 162.332 26.572 162.332 25.6705C162.332 24.7689 162.502 23.9792 162.843 23.3011C163.188 22.6231 163.673 22.0966 164.298 21.7216C164.923 21.3466 165.661 21.1591 166.514 21.1591C167.366 21.1591 168.105 21.3466 168.73 21.7216C169.355 22.0966 169.838 22.6231 170.178 23.3011C170.523 23.9792 170.696 24.7689 170.696 25.6705C170.696 26.572 170.523 27.3598 170.178 28.0341C169.838 28.7083 169.355 29.233 168.73 29.608C168.105 29.983 167.366 30.1705 166.514 30.1705ZM166.525 28.5227C166.987 28.5227 167.374 28.3958 167.684 28.142C167.995 27.8845 168.226 27.5398 168.377 27.108C168.533 26.6761 168.61 26.1951 168.61 25.6648C168.61 25.1307 168.533 24.6477 168.377 24.2159C168.226 23.7803 167.995 23.4337 167.684 23.1761C167.374 22.9186 166.987 22.7898 166.525 22.7898C166.052 22.7898 165.658 22.9186 165.343 23.1761C165.033 23.4337 164.8 23.7803 164.644 24.2159C164.493 24.6477 164.417 25.1307 164.417 25.6648C164.417 26.1951 164.493 26.6761 164.644 27.108C164.8 27.5398 165.033 27.8845 165.343 28.142C165.658 28.3958 166.052 28.5227 166.525 28.5227ZM174.322 24.8864V30H172.265V21.2727H174.231V22.7557H174.333C174.534 22.267 174.854 21.8788 175.294 21.5909C175.737 21.303 176.284 21.1591 176.936 21.1591C177.538 21.1591 178.063 21.2879 178.51 21.5455C178.96 21.803 179.309 22.1761 179.555 22.6648C179.805 23.1534 179.928 23.7462 179.924 24.4432V30H177.868V24.7614C177.868 24.178 177.716 23.7216 177.413 23.392C177.114 23.0625 176.699 22.8977 176.169 22.8977C175.809 22.8977 175.489 22.9773 175.208 23.1364C174.932 23.2917 174.714 23.517 174.555 23.8125C174.4 24.108 174.322 24.4659 174.322 24.8864Z" fill="white"/><path d="M17.1893 207V195.364H21.6438C22.4847 195.364 23.1836 195.496 23.7404 195.761C24.301 196.023 24.7196 196.381 24.9961 196.835C25.2764 197.29 25.4166 197.805 25.4166 198.381C25.4166 198.854 25.3257 199.259 25.1438 199.597C24.962 199.93 24.7177 200.201 24.4109 200.409C24.1041 200.617 23.7613 200.767 23.3825 200.858V200.972C23.7954 200.994 24.1912 201.121 24.57 201.352C24.9525 201.58 25.265 201.902 25.5075 202.318C25.7499 202.735 25.8711 203.239 25.8711 203.83C25.8711 204.432 25.7253 204.973 25.4336 205.455C25.1419 205.932 24.7025 206.309 24.1154 206.585C23.5283 206.862 22.7897 207 21.8995 207H17.1893ZM19.2972 205.239H21.5643C22.3294 205.239 22.8806 205.093 23.2177 204.801C23.5586 204.506 23.7291 204.127 23.7291 203.665C23.7291 203.32 23.6438 203.009 23.4734 202.733C23.3029 202.453 23.0605 202.233 22.7461 202.074C22.4317 201.911 22.0567 201.83 21.6211 201.83H19.2972V205.239ZM19.2972 200.312H21.3825C21.7461 200.312 22.0738 200.246 22.3654 200.114C22.6571 199.977 22.8863 199.786 23.0529 199.54C23.2234 199.29 23.3086 198.994 23.3086 198.653C23.3086 198.203 23.1495 197.831 22.8313 197.54C22.5169 197.248 22.0491 197.102 21.4279 197.102H19.2972V200.312ZM33.0005 203.33V198.273H35.0573V207H33.063V205.449H32.9721C32.7751 205.937 32.4513 206.337 32.0005 206.648C31.5535 206.958 31.0024 207.114 30.3471 207.114C29.7751 207.114 29.2694 206.987 28.8301 206.733C28.3944 206.475 28.0535 206.102 27.8073 205.614C27.5611 205.121 27.438 204.527 27.438 203.83V198.273H29.4948V203.511C29.4948 204.064 29.6463 204.504 29.9494 204.83C30.2524 205.155 30.6501 205.318 31.1426 205.318C31.4456 205.318 31.7391 205.244 32.0232 205.097C32.3073 204.949 32.5403 204.729 32.7221 204.438C32.9077 204.142 33.0005 203.773 33.0005 203.33ZM41.3543 198.273V199.864H36.3373V198.273H41.3543ZM37.5759 196.182H39.6327V204.375C39.6327 204.652 39.6744 204.864 39.7577 205.011C39.8449 205.155 39.9585 205.254 40.0987 205.307C40.2388 205.36 40.3941 205.386 40.5646 205.386C40.6934 205.386 40.8108 205.377 40.9168 205.358C41.0267 205.339 41.11 205.322 41.1668 205.307L41.5134 206.915C41.4036 206.953 41.2464 206.994 41.0418 207.04C40.8411 207.085 40.5949 207.112 40.3032 207.119C39.788 207.134 39.324 207.057 38.9112 206.886C38.4983 206.712 38.1706 206.443 37.9282 206.08C37.6896 205.716 37.5721 205.261 37.5759 204.716V196.182ZM47.2565 198.273V199.864H42.2394V198.273H47.2565ZM43.4781 196.182H45.5349V204.375C45.5349 204.652 45.5765 204.864 45.6599 205.011C45.747 205.155 45.8606 205.254 46.0008 205.307C46.1409 205.36 46.2962 205.386 46.4667 205.386C46.5955 205.386 46.7129 205.377 46.819 205.358C46.9288 205.339 47.0121 205.322 47.069 205.307L47.4156 206.915C47.3057 206.953 47.1485 206.994 46.944 207.04C46.7432 207.085 46.497 207.112 46.2053 207.119C45.6902 207.134 45.2262 207.057 44.8133 206.886C44.4004 206.712 44.0727 206.443 43.8303 206.08C43.5917 205.716 43.4743 205.261 43.4781 204.716V196.182ZM52.5137 207.17C51.6614 207.17 50.9228 206.983 50.2978 206.608C49.6728 206.233 49.1879 205.708 48.8432 205.034C48.5023 204.36 48.3319 203.572 48.3319 202.67C48.3319 201.769 48.5023 200.979 48.8432 200.301C49.1879 199.623 49.6728 199.097 50.2978 198.722C50.9228 198.347 51.6614 198.159 52.5137 198.159C53.366 198.159 54.1046 198.347 54.7296 198.722C55.3546 199.097 55.8376 199.623 56.1785 200.301C56.5232 200.979 56.6955 201.769 56.6955 202.67C56.6955 203.572 56.5232 204.36 56.1785 205.034C55.8376 205.708 55.3546 206.233 54.7296 206.608C54.1046 206.983 53.366 207.17 52.5137 207.17ZM52.5251 205.523C52.9872 205.523 53.3735 205.396 53.6842 205.142C53.9948 204.884 54.2258 204.54 54.3773 204.108C54.5326 203.676 54.6103 203.195 54.6103 202.665C54.6103 202.131 54.5326 201.648 54.3773 201.216C54.2258 200.78 53.9948 200.434 53.6842 200.176C53.3735 199.919 52.9872 199.79 52.5251 199.79C52.0516 199.79 51.6576 199.919 51.3432 200.176C51.0326 200.434 50.7997 200.78 50.6444 201.216C50.4929 201.648 50.4171 202.131 50.4171 202.665C50.4171 203.195 50.4929 203.676 50.6444 204.108C50.7997 204.54 51.0326 204.884 51.3432 205.142C51.6576 205.396 52.0516 205.523 52.5251 205.523ZM60.3221 201.886V207H58.2653V198.273H60.2312V199.756H60.3334C60.5342 199.267 60.8543 198.879 61.2937 198.591C61.7368 198.303 62.2842 198.159 62.9357 198.159C63.538 198.159 64.0626 198.288 64.5096 198.545C64.9603 198.803 65.3088 199.176 65.555 199.665C65.805 200.153 65.9281 200.746 65.9243 201.443V207H63.8675V201.761C63.8675 201.178 63.716 200.722 63.413 200.392C63.1137 200.062 62.699 199.898 62.1687 199.898C61.8088 199.898 61.4887 199.977 61.2084 200.136C60.9319 200.292 60.7141 200.517 60.555 200.812C60.3997 201.108 60.3221 201.466 60.3221 201.886Z" fill="#4687ED"/><rect y="90" width="83" height="48" rx="6" fill="#CB2233"/><path d="M17.1893 120V108.364H21.6438C22.4847 108.364 23.1836 108.496 23.7404 108.761C24.301 109.023 24.7196 109.381 24.9961 109.835C25.2764 110.29 25.4166 110.805 25.4166 111.381C25.4166 111.854 25.3257 112.259 25.1438 112.597C24.962 112.93 24.7177 113.201 24.4109 113.409C24.1041 113.617 23.7613 113.767 23.3825 113.858V113.972C23.7954 113.994 24.1912 114.121 24.57 114.352C24.9525 114.58 25.265 114.902 25.5075 115.318C25.7499 115.735 25.8711 116.239 25.8711 116.83C25.8711 117.432 25.7253 117.973 25.4336 118.455C25.1419 118.932 24.7025 119.309 24.1154 119.585C23.5283 119.862 22.7897 120 21.8995 120H17.1893ZM19.2972 118.239H21.5643C22.3294 118.239 22.8806 118.093 23.2177 117.801C23.5586 117.506 23.7291 117.127 23.7291 116.665C23.7291 116.32 23.6438 116.009 23.4734 115.733C23.3029 115.453 23.0605 115.233 22.7461 115.074C22.4317 114.911 22.0567 114.83 21.6211 114.83H19.2972V118.239ZM19.2972 113.312H21.3825C21.7461 113.312 22.0738 113.246 22.3654 113.114C22.6571 112.977 22.8863 112.786 23.0529 112.54C23.2234 112.29 23.3086 111.994 23.3086 111.653C23.3086 111.203 23.1495 110.831 22.8313 110.54C22.5169 110.248 22.0491 110.102 21.4279 110.102H19.2972V113.312ZM33.0005 116.33V111.273H35.0573V120H33.063V118.449H32.9721C32.7751 118.937 32.4513 119.337 32.0005 119.648C31.5535 119.958 31.0024 120.114 30.3471 120.114C29.7751 120.114 29.2694 119.987 28.8301 119.733C28.3944 119.475 28.0535 119.102 27.8073 118.614C27.5611 118.121 27.438 117.527 27.438 116.83V111.273H29.4948V116.511C29.4948 117.064 29.6463 117.504 29.9494 117.83C30.2524 118.155 30.6501 118.318 31.1426 118.318C31.4456 118.318 31.7391 118.244 32.0232 118.097C32.3073 117.949 32.5403 117.729 32.7221 117.438C32.9077 117.142 33.0005 116.773 33.0005 116.33ZM41.3543 111.273V112.864H36.3373V111.273H41.3543ZM37.5759 109.182H39.6327V117.375C39.6327 117.652 39.6744 117.864 39.7577 118.011C39.8449 118.155 39.9585 118.254 40.0987 118.307C40.2388 118.36 40.3941 118.386 40.5646 118.386C40.6934 118.386 40.8108 118.377 40.9168 118.358C41.0267 118.339 41.11 118.322 41.1668 118.307L41.5134 119.915C41.4036 119.953 41.2464 119.994 41.0418 120.04C40.8411 120.085 40.5949 120.112 40.3032 120.119C39.788 120.134 39.324 120.057 38.9112 119.886C38.4983 119.712 38.1706 119.443 37.9282 119.08C37.6896 118.716 37.5721 118.261 37.5759 117.716V109.182ZM47.2565 111.273V112.864H42.2394V111.273H47.2565ZM43.4781 109.182H45.5349V117.375C45.5349 117.652 45.5765 117.864 45.6599 118.011C45.747 118.155 45.8606 118.254 46.0008 118.307C46.1409 118.36 46.2962 118.386 46.4667 118.386C46.5955 118.386 46.7129 118.377 46.819 118.358C46.9288 118.339 47.0121 118.322 47.069 118.307L47.4156 119.915C47.3057 119.953 47.1485 119.994 46.944 120.04C46.7432 120.085 46.497 120.112 46.2053 120.119C45.6902 120.134 45.2262 120.057 44.8133 119.886C44.4004 119.712 44.0727 119.443 43.8303 119.08C43.5917 118.716 43.4743 118.261 43.4781 117.716V109.182ZM52.5137 120.17C51.6614 120.17 50.9228 119.983 50.2978 119.608C49.6728 119.233 49.1879 118.708 48.8432 118.034C48.5023 117.36 48.3319 116.572 48.3319 115.67C48.3319 114.769 48.5023 113.979 48.8432 113.301C49.1879 112.623 49.6728 112.097 50.2978 111.722C50.9228 111.347 51.6614 111.159 52.5137 111.159C53.366 111.159 54.1046 111.347 54.7296 111.722C55.3546 112.097 55.8376 112.623 56.1785 113.301C56.5232 113.979 56.6955 114.769 56.6955 115.67C56.6955 116.572 56.5232 117.36 56.1785 118.034C55.8376 118.708 55.3546 119.233 54.7296 119.608C54.1046 119.983 53.366 120.17 52.5137 120.17ZM52.5251 118.523C52.9872 118.523 53.3735 118.396 53.6842 118.142C53.9948 117.884 54.2258 117.54 54.3773 117.108C54.5326 116.676 54.6103 116.195 54.6103 115.665C54.6103 115.131 54.5326 114.648 54.3773 114.216C54.2258 113.78 53.9948 113.434 53.6842 113.176C53.3735 112.919 52.9872 112.79 52.5251 112.79C52.0516 112.79 51.6576 112.919 51.3432 113.176C51.0326 113.434 50.7997 113.78 50.6444 114.216C50.4929 114.648 50.4171 115.131 50.4171 115.665C50.4171 116.195 50.4929 116.676 50.6444 117.108C50.7997 117.54 51.0326 117.884 51.3432 118.142C51.6576 118.396 52.0516 118.523 52.5251 118.523ZM60.3221 114.886V120H58.2653V111.273H60.2312V112.756H60.3334C60.5342 112.267 60.8543 111.879 61.2937 111.591C61.7368 111.303 62.2842 111.159 62.9357 111.159C63.538 111.159 64.0626 111.288 64.5096 111.545C64.9603 111.803 65.3088 112.176 65.555 112.665C65.805 113.153 65.9281 113.746 65.9243 114.443V120H63.8675V114.761C63.8675 114.178 63.716 113.722 63.413 113.392C63.1137 113.062 62.699 112.898 62.1687 112.898C61.8088 112.898 61.4887 112.977 61.2084 113.136C60.9319 113.292 60.7141 113.517 60.555 113.812C60.3997 114.108 60.3221 114.466 60.3221 114.886Z" fill="white"/></svg>