<svg width="32" height="32" viewBox="0 0 32 32" fill="none" xmlns="http://www.w3.org/2000/svg"><path d="M13.7071 9.70711C14.0976 9.31658 14.0976 8.68342 13.7071 8.29289C13.3166 7.90237 12.6834 7.90237 12.2929 8.29289L9 11.5858L9 3C9 2.44772 8.55229 2 8 2C7.44772 2 7 2.44772 7 3L7 11.5858L3.70711 8.29289C3.31658 7.90237 2.68342 7.90237 2.29289 8.29289C1.90237 8.68342 1.90237 9.31658 2.29289 9.70711L7.29289 14.7071C7.68342 15.0976 8.31658 15.0976 8.70711 14.7071L13.7071 9.70711Z" fill="#3A3A38"/><path fill-rule="evenodd" clip-rule="evenodd" d="M18 29C16.8954 29 16 28.1046 16 27V4C16 2.89543 16.8954 2 18 2H28C29.1046 2 30 2.89543 30 4V27C30 28.1046 29.1046 29 28 29H18ZM18 4H22V27H18V4ZM24 27H28V4H24V27Z" fill="#3A3A38"/><path fill-rule="evenodd" clip-rule="evenodd" d="M4 19C4 17.8954 4.89543 17 6 17H10C11.1046 17 12 17.8954 12 19V29C12 30.1046 11.1046 31 10 31H6C4.89543 31 4 30.1046 4 29V19ZM6 19H10V29H6V19Z" fill="#3A3A38"/></svg>