<svg width="389" height="355" viewBox="0 0 389 355" fill="none" xmlns="http://www.w3.org/2000/svg"><rect y="79" width="57" height="24" rx="12" fill="#666666"/><path d="M18.9972 92.9973C19.1632 93.1633 19.1887 93.4268 19.0357 93.6049C18.3021 94.459 17.2142 95.0001 16 95.0001C14.7857 95.0001 13.6978 94.459 12.9642 93.6049C12.8113 93.4268 12.8367 93.1633 13.0028 92.9973C13.2246 92.7755 13.5959 92.822 13.8105 93.051C14.3578 93.6351 15.1363 94.0001 16 94.0001C16.8637 94.0001 17.6421 93.6351 18.1895 93.051C18.404 92.822 18.7754 92.7755 18.9972 92.9973Z" fill="white"/><path d="M14.5 89.5C14.5 90.0523 14.0523 90.5 13.5 90.5C12.9477 90.5 12.5 90.0523 12.5 89.5C12.5 88.9477 12.9477 88.5 13.5 88.5C14.0523 88.5 14.5 88.9477 14.5 89.5Z" fill="white"/><path d="M18.5 90.5C19.0523 90.5 19.5 90.0523 19.5 89.5C19.5 88.9477 19.0523 88.5 18.5 88.5C17.9477 88.5 17.5 88.9477 17.5 89.5C17.5 90.0523 17.9477 90.5 18.5 90.5Z" fill="white"/><path fill-rule="evenodd" clip-rule="evenodd" d="M23 91C23 94.866 19.866 98 16 98C12.134 98 9 94.866 9 91C9 87.134 12.134 84 16 84C19.866 84 23 87.134 23 91ZM22 91C22 94.3137 19.3137 97 16 97C12.6863 97 10 94.3137 10 91C10 87.6863 12.6863 85 16 85C19.3137 85 22 87.6863 22 91Z" fill="white"/><path d="M28.5795 87.2102V86.2727H35.125V87.2102H32.3807V95H31.3239V87.2102H28.5795ZM37.6552 95.1534C37.2404 95.1534 36.864 95.0753 36.5259 94.919C36.1879 94.7599 35.9194 94.5312 35.7205 94.233C35.5217 93.9318 35.4222 93.5682 35.4222 93.142C35.4222 92.767 35.4961 92.4631 35.6438 92.2301C35.7915 91.9943 35.989 91.8097 36.2362 91.6761C36.4833 91.5426 36.756 91.4432 37.0543 91.3778C37.3555 91.3097 37.658 91.2557 37.962 91.2159C38.3597 91.1648 38.6822 91.1264 38.9293 91.1009C39.1793 91.0724 39.3612 91.0256 39.4748 90.9602C39.5913 90.8949 39.6495 90.7812 39.6495 90.6193V90.5852C39.6495 90.1648 39.5344 89.8381 39.3043 89.6051C39.0771 89.3722 38.7319 89.2557 38.2688 89.2557C37.7887 89.2557 37.4123 89.3608 37.1396 89.571C36.8668 89.7812 36.6751 90.0057 36.5643 90.2443L35.6097 89.9034C35.7802 89.5057 36.0075 89.196 36.2915 88.9744C36.5785 88.75 36.891 88.5937 37.229 88.5057C37.57 88.4148 37.9052 88.3693 38.2347 88.3693C38.445 88.3693 38.6864 88.3949 38.9592 88.446C39.2347 88.4943 39.5004 88.5952 39.756 88.7486C40.0146 88.902 40.229 89.1335 40.3995 89.4432C40.57 89.7528 40.6552 90.1676 40.6552 90.6875V95H39.6495V94.1136H39.5984C39.5302 94.2557 39.4165 94.4077 39.2575 94.5696C39.0984 94.7315 38.8867 94.8693 38.6225 94.983C38.3583 95.0966 38.0359 95.1534 37.6552 95.1534ZM37.8086 94.25C38.2063 94.25 38.5415 94.1719 38.8143 94.0156C39.0898 93.8594 39.2972 93.6577 39.4364 93.4105C39.5785 93.1634 39.6495 92.9034 39.6495 92.6307V91.7102C39.6069 91.7614 39.5131 91.8082 39.3683 91.8509C39.2262 91.8906 39.0614 91.9261 38.8739 91.9574C38.6893 91.9858 38.5089 92.0114 38.3327 92.0341C38.1594 92.054 38.0188 92.071 37.9109 92.0852C37.6495 92.1193 37.4052 92.1747 37.1779 92.2514C36.9535 92.3253 36.7717 92.4375 36.6325 92.5881C36.4961 92.7358 36.4279 92.9375 36.4279 93.1932C36.4279 93.5426 36.5572 93.8068 36.8157 93.9858C37.0771 94.1619 37.408 94.25 37.8086 94.25ZM45.1328 97.5909C44.647 97.5909 44.2294 97.5284 43.88 97.4034C43.5305 97.2812 43.2393 97.1193 43.0064 96.9176C42.7763 96.7188 42.593 96.5057 42.4567 96.2784L43.2578 95.7159C43.3487 95.8352 43.4638 95.9716 43.603 96.125C43.7422 96.2812 43.9325 96.4162 44.174 96.5298C44.4183 96.6463 44.7379 96.7045 45.1328 96.7045C45.6612 96.7045 46.0973 96.5767 46.4411 96.321C46.7848 96.0653 46.9567 95.6648 46.9567 95.1193V93.7898H46.8714C46.7976 93.9091 46.6925 94.0568 46.5561 94.233C46.4226 94.4062 46.2294 94.5611 45.9766 94.6974C45.7266 94.831 45.3885 94.8977 44.9624 94.8977C44.4339 94.8977 43.9595 94.7727 43.5391 94.5227C43.1214 94.2727 42.7905 93.9091 42.5462 93.4318C42.3047 92.9545 42.1839 92.375 42.1839 91.6932C42.1839 91.0227 42.3018 90.4389 42.5376 89.9418C42.7734 89.4418 43.1016 89.0554 43.522 88.7827C43.9425 88.5071 44.4283 88.3693 44.9794 88.3693C45.4055 88.3693 45.7436 88.4403 45.9936 88.5824C46.2464 88.7216 46.4396 88.8807 46.5732 89.0597C46.7095 89.2358 46.8146 89.3807 46.8885 89.4943H46.9908V88.4545H47.9624V95.1875C47.9624 95.75 47.8345 96.2074 47.5788 96.5597C47.326 96.9148 46.9851 97.1747 46.5561 97.3395C46.13 97.5071 45.6555 97.5909 45.1328 97.5909ZM45.0987 93.9943C45.5021 93.9943 45.843 93.902 46.1214 93.7173C46.3999 93.5327 46.6115 93.267 46.7564 92.9205C46.9013 92.5739 46.9737 92.1591 46.9737 91.6761C46.9737 91.2045 46.9027 90.7884 46.7607 90.4276C46.6186 90.0668 46.4084 89.7841 46.13 89.5795C45.8516 89.375 45.5078 89.2727 45.0987 89.2727C44.6726 89.2727 44.3175 89.3807 44.0334 89.5966C43.7521 89.8125 43.5405 90.1023 43.3984 90.4659C43.2592 90.8295 43.1896 91.233 43.1896 91.6761C43.1896 92.1307 43.2607 92.5327 43.4027 92.8821C43.5476 93.2287 43.7607 93.5014 44.0419 93.7003C44.326 93.8963 44.6783 93.9943 45.0987 93.9943Z" fill="white"/><rect x="83" y="79" width="57" height="24" rx="12" fill="#CCDDF9"/><path d="M101.997 92.9973C102.163 93.1633 102.189 93.4268 102.036 93.6049C101.302 94.459 100.214 95.0001 99 95.0001C97.7857 95.0001 96.6978 94.459 95.9642 93.6049C95.8113 93.4268 95.8367 93.1633 96.0028 92.9973C96.2246 92.7755 96.5959 92.822 96.8105 93.051C97.3578 93.6351 98.1363 94.0001 99 94.0001C99.8637 94.0001 100.642 93.6351 101.189 93.051C101.404 92.822 101.775 92.7755 101.997 92.9973Z" fill="#292929"/><path d="M97.5 89.5C97.5 90.0523 97.0523 90.5 96.5 90.5C95.9477 90.5 95.5 90.0523 95.5 89.5C95.5 88.9477 95.9477 88.5 96.5 88.5C97.0523 88.5 97.5 88.9477 97.5 89.5Z" fill="#292929"/><path d="M101.5 90.5C102.052 90.5 102.5 90.0523 102.5 89.5C102.5 88.9477 102.052 88.5 101.5 88.5C100.948 88.5 100.5 88.9477 100.5 89.5C100.5 90.0523 100.948 90.5 101.5 90.5Z" fill="#292929"/><path fill-rule="evenodd" clip-rule="evenodd" d="M106 91C106 94.866 102.866 98 99 98C95.134 98 92 94.866 92 91C92 87.134 95.134 84 99 84C102.866 84 106 87.134 106 91ZM105 91C105 94.3137 102.314 97 99 97C95.6863 97 93 94.3137 93 91C93 87.6863 95.6863 85 99 85C102.314 85 105 87.6863 105 91Z" fill="#292929"/><path d="M111.58 87.2102V86.2727H118.125V87.2102H115.381V95H114.324V87.2102H111.58ZM120.655 95.1534C120.24 95.1534 119.864 95.0753 119.526 94.919C119.188 94.7599 118.919 94.5312 118.721 94.233C118.522 93.9318 118.422 93.5682 118.422 93.142C118.422 92.767 118.496 92.4631 118.644 92.2301C118.792 91.9943 118.989 91.8097 119.236 91.6761C119.483 91.5426 119.756 91.4432 120.054 91.3778C120.355 91.3097 120.658 91.2557 120.962 91.2159C121.36 91.1648 121.682 91.1264 121.929 91.1009C122.179 91.0724 122.361 91.0256 122.475 90.9602C122.591 90.8949 122.65 90.7812 122.65 90.6193V90.5852C122.65 90.1648 122.534 89.8381 122.304 89.6051C122.077 89.3722 121.732 89.2557 121.269 89.2557C120.789 89.2557 120.412 89.3608 120.14 89.571C119.867 89.7812 119.675 90.0057 119.564 90.2443L118.61 89.9034C118.78 89.5057 119.007 89.196 119.292 88.9744C119.578 88.75 119.891 88.5937 120.229 88.5057C120.57 88.4148 120.905 88.3693 121.235 88.3693C121.445 88.3693 121.686 88.3949 121.959 88.446C122.235 88.4943 122.5 88.5952 122.756 88.7486C123.015 88.902 123.229 89.1335 123.4 89.4432C123.57 89.7528 123.655 90.1676 123.655 90.6875V95H122.65V94.1136H122.598C122.53 94.2557 122.417 94.4077 122.257 94.5696C122.098 94.7315 121.887 94.8693 121.623 94.983C121.358 95.0966 121.036 95.1534 120.655 95.1534ZM120.809 94.25C121.206 94.25 121.542 94.1719 121.814 94.0156C122.09 93.8594 122.297 93.6577 122.436 93.4105C122.578 93.1634 122.65 92.9034 122.65 92.6307V91.7102C122.607 91.7614 122.513 91.8082 122.368 91.8509C122.226 91.8906 122.061 91.9261 121.874 91.9574C121.689 91.9858 121.509 92.0114 121.333 92.0341C121.159 92.054 121.019 92.071 120.911 92.0852C120.65 92.1193 120.405 92.1747 120.178 92.2514C119.953 92.3253 119.772 92.4375 119.632 92.5881C119.496 92.7358 119.428 92.9375 119.428 93.1932C119.428 93.5426 119.557 93.8068 119.816 93.9858C120.077 94.1619 120.408 94.25 120.809 94.25ZM128.133 97.5909C127.647 97.5909 127.229 97.5284 126.88 97.4034C126.531 97.2812 126.239 97.1193 126.006 96.9176C125.776 96.7188 125.593 96.5057 125.457 96.2784L126.258 95.7159C126.349 95.8352 126.464 95.9716 126.603 96.125C126.742 96.2812 126.933 96.4162 127.174 96.5298C127.418 96.6463 127.738 96.7045 128.133 96.7045C128.661 96.7045 129.097 96.5767 129.441 96.321C129.785 96.0653 129.957 95.6648 129.957 95.1193V93.7898H129.871C129.798 93.9091 129.692 94.0568 129.556 94.233C129.423 94.4062 129.229 94.5611 128.977 94.6974C128.727 94.831 128.388 94.8977 127.962 94.8977C127.434 94.8977 126.96 94.7727 126.539 94.5227C126.121 94.2727 125.79 93.9091 125.546 93.4318C125.305 92.9545 125.184 92.375 125.184 91.6932C125.184 91.0227 125.302 90.4389 125.538 89.9418C125.773 89.4418 126.102 89.0554 126.522 88.7827C126.942 88.5071 127.428 88.3693 127.979 88.3693C128.406 88.3693 128.744 88.4403 128.994 88.5824C129.246 88.7216 129.44 88.8807 129.573 89.0597C129.71 89.2358 129.815 89.3807 129.888 89.4943H129.991V88.4545H130.962V95.1875C130.962 95.75 130.835 96.2074 130.579 96.5597C130.326 96.9148 129.985 97.1747 129.556 97.3395C129.13 97.5071 128.656 97.5909 128.133 97.5909ZM128.099 93.9943C128.502 93.9943 128.843 93.902 129.121 93.7173C129.4 93.5327 129.612 93.267 129.756 92.9205C129.901 92.5739 129.974 92.1591 129.974 91.6761C129.974 91.2045 129.903 90.7884 129.761 90.4276C129.619 90.0668 129.408 89.7841 129.13 89.5795C128.852 89.375 128.508 89.2727 128.099 89.2727C127.673 89.2727 127.317 89.3807 127.033 89.5966C126.752 89.8125 126.54 90.1023 126.398 90.4659C126.259 90.8295 126.19 91.233 126.19 91.6761C126.19 92.1307 126.261 92.5327 126.403 92.8821C126.548 93.2287 126.761 93.5014 127.042 93.7003C127.326 93.8963 127.678 93.9943 128.099 93.9943Z" fill="#292929"/><rect x="166" y="79" width="57" height="24" rx="12" fill="#666666"/><path d="M184.997 92.9973C185.163 93.1633 185.189 93.4268 185.036 93.6049C184.302 94.459 183.214 95.0001 182 95.0001C180.786 95.0001 179.698 94.459 178.964 93.6049C178.811 93.4268 178.837 93.1633 179.003 92.9973C179.225 92.7755 179.596 92.822 179.81 93.051C180.358 93.6351 181.136 94.0001 182 94.0001C182.864 94.0001 183.642 93.6351 184.189 93.051C184.404 92.822 184.775 92.7755 184.997 92.9973Z" fill="white"/><path d="M180.5 89.5C180.5 90.0523 180.052 90.5 179.5 90.5C178.948 90.5 178.5 90.0523 178.5 89.5C178.5 88.9477 178.948 88.5 179.5 88.5C180.052 88.5 180.5 88.9477 180.5 89.5Z" fill="white"/><path d="M184.5 90.5C185.052 90.5 185.5 90.0523 185.5 89.5C185.5 88.9477 185.052 88.5 184.5 88.5C183.948 88.5 183.5 88.9477 183.5 89.5C183.5 90.0523 183.948 90.5 184.5 90.5Z" fill="white"/><path fill-rule="evenodd" clip-rule="evenodd" d="M189 91C189 94.866 185.866 98 182 98C178.134 98 175 94.866 175 91C175 87.134 178.134 84 182 84C185.866 84 189 87.134 189 91ZM188 91C188 94.3137 185.314 97 182 97C178.686 97 176 94.3137 176 91C176 87.6863 178.686 85 182 85C185.314 85 188 87.6863 188 91Z" fill="white"/><path d="M194.58 87.2102V86.2727H201.125V87.2102H198.381V95H197.324V87.2102H194.58ZM203.655 95.1534C203.24 95.1534 202.864 95.0753 202.526 94.919C202.188 94.7599 201.919 94.5312 201.721 94.233C201.522 93.9318 201.422 93.5682 201.422 93.142C201.422 92.767 201.496 92.4631 201.644 92.2301C201.792 91.9943 201.989 91.8097 202.236 91.6761C202.483 91.5426 202.756 91.4432 203.054 91.3778C203.355 91.3097 203.658 91.2557 203.962 91.2159C204.36 91.1648 204.682 91.1264 204.929 91.1009C205.179 91.0724 205.361 91.0256 205.475 90.9602C205.591 90.8949 205.65 90.7812 205.65 90.6193V90.5852C205.65 90.1648 205.534 89.8381 205.304 89.6051C205.077 89.3722 204.732 89.2557 204.269 89.2557C203.789 89.2557 203.412 89.3608 203.14 89.571C202.867 89.7812 202.675 90.0057 202.564 90.2443L201.61 89.9034C201.78 89.5057 202.007 89.196 202.292 88.9744C202.578 88.75 202.891 88.5937 203.229 88.5057C203.57 88.4148 203.905 88.3693 204.235 88.3693C204.445 88.3693 204.686 88.3949 204.959 88.446C205.235 88.4943 205.5 88.5952 205.756 88.7486C206.015 88.902 206.229 89.1335 206.4 89.4432C206.57 89.7528 206.655 90.1676 206.655 90.6875V95H205.65V94.1136H205.598C205.53 94.2557 205.417 94.4077 205.257 94.5696C205.098 94.7315 204.887 94.8693 204.623 94.983C204.358 95.0966 204.036 95.1534 203.655 95.1534ZM203.809 94.25C204.206 94.25 204.542 94.1719 204.814 94.0156C205.09 93.8594 205.297 93.6577 205.436 93.4105C205.578 93.1634 205.65 92.9034 205.65 92.6307V91.7102C205.607 91.7614 205.513 91.8082 205.368 91.8509C205.226 91.8906 205.061 91.9261 204.874 91.9574C204.689 91.9858 204.509 92.0114 204.333 92.0341C204.159 92.054 204.019 92.071 203.911 92.0852C203.65 92.1193 203.405 92.1747 203.178 92.2514C202.953 92.3253 202.772 92.4375 202.632 92.5881C202.496 92.7358 202.428 92.9375 202.428 93.1932C202.428 93.5426 202.557 93.8068 202.816 93.9858C203.077 94.1619 203.408 94.25 203.809 94.25ZM211.133 97.5909C210.647 97.5909 210.229 97.5284 209.88 97.4034C209.531 97.2812 209.239 97.1193 209.006 96.9176C208.776 96.7188 208.593 96.5057 208.457 96.2784L209.258 95.7159C209.349 95.8352 209.464 95.9716 209.603 96.125C209.742 96.2812 209.933 96.4162 210.174 96.5298C210.418 96.6463 210.738 96.7045 211.133 96.7045C211.661 96.7045 212.097 96.5767 212.441 96.321C212.785 96.0653 212.957 95.6648 212.957 95.1193V93.7898H212.871C212.798 93.9091 212.692 94.0568 212.556 94.233C212.423 94.4062 212.229 94.5611 211.977 94.6974C211.727 94.831 211.388 94.8977 210.962 94.8977C210.434 94.8977 209.96 94.7727 209.539 94.5227C209.121 94.2727 208.79 93.9091 208.546 93.4318C208.305 92.9545 208.184 92.375 208.184 91.6932C208.184 91.0227 208.302 90.4389 208.538 89.9418C208.773 89.4418 209.102 89.0554 209.522 88.7827C209.942 88.5071 210.428 88.3693 210.979 88.3693C211.406 88.3693 211.744 88.4403 211.994 88.5824C212.246 88.7216 212.44 88.8807 212.573 89.0597C212.71 89.2358 212.815 89.3807 212.888 89.4943H212.991V88.4545H213.962V95.1875C213.962 95.75 213.835 96.2074 213.579 96.5597C213.326 96.9148 212.985 97.1747 212.556 97.3395C212.13 97.5071 211.656 97.5909 211.133 97.5909ZM211.099 93.9943C211.502 93.9943 211.843 93.902 212.121 93.7173C212.4 93.5327 212.612 93.267 212.756 92.9205C212.901 92.5739 212.974 92.1591 212.974 91.6761C212.974 91.2045 212.903 90.7884 212.761 90.4276C212.619 90.0668 212.408 89.7841 212.13 89.5795C211.852 89.375 211.508 89.2727 211.099 89.2727C210.673 89.2727 210.317 89.3807 210.033 89.5966C209.752 89.8125 209.54 90.1023 209.398 90.4659C209.259 90.8295 209.19 91.233 209.19 91.6761C209.19 92.1307 209.261 92.5327 209.403 92.8821C209.548 93.2287 209.761 93.5014 210.042 93.7003C210.326 93.8963 210.678 93.9943 211.099 93.9943Z" fill="white"/><rect x="249" y="79" width="57" height="24" rx="12" fill="#F8AE1A"/><path d="M267.997 92.9973C268.163 93.1633 268.189 93.4268 268.036 93.6049C267.302 94.459 266.214 95.0001 265 95.0001C263.786 95.0001 262.698 94.459 261.964 93.6049C261.811 93.4268 261.837 93.1633 262.003 92.9973C262.225 92.7755 262.596 92.822 262.81 93.051C263.358 93.6351 264.136 94.0001 265 94.0001C265.864 94.0001 266.642 93.6351 267.189 93.051C267.404 92.822 267.775 92.7755 267.997 92.9973Z" fill="#292929"/><path d="M263.5 89.5C263.5 90.0523 263.052 90.5 262.5 90.5C261.948 90.5 261.5 90.0523 261.5 89.5C261.5 88.9477 261.948 88.5 262.5 88.5C263.052 88.5 263.5 88.9477 263.5 89.5Z" fill="#292929"/><path d="M267.5 90.5C268.052 90.5 268.5 90.0523 268.5 89.5C268.5 88.9477 268.052 88.5 267.5 88.5C266.948 88.5 266.5 88.9477 266.5 89.5C266.5 90.0523 266.948 90.5 267.5 90.5Z" fill="#292929"/><path fill-rule="evenodd" clip-rule="evenodd" d="M272 91C272 94.866 268.866 98 265 98C261.134 98 258 94.866 258 91C258 87.134 261.134 84 265 84C268.866 84 272 87.134 272 91ZM271 91C271 94.3137 268.314 97 265 97C261.686 97 259 94.3137 259 91C259 87.6863 261.686 85 265 85C268.314 85 271 87.6863 271 91Z" fill="#292929"/><path d="M277.58 87.2102V86.2727H284.125V87.2102H281.381V95H280.324V87.2102H277.58ZM286.655 95.1534C286.24 95.1534 285.864 95.0753 285.526 94.919C285.188 94.7599 284.919 94.5312 284.721 94.233C284.522 93.9318 284.422 93.5682 284.422 93.142C284.422 92.767 284.496 92.4631 284.644 92.2301C284.792 91.9943 284.989 91.8097 285.236 91.6761C285.483 91.5426 285.756 91.4432 286.054 91.3778C286.355 91.3097 286.658 91.2557 286.962 91.2159C287.36 91.1648 287.682 91.1264 287.929 91.1009C288.179 91.0724 288.361 91.0256 288.475 90.9602C288.591 90.8949 288.65 90.7812 288.65 90.6193V90.5852C288.65 90.1648 288.534 89.8381 288.304 89.6051C288.077 89.3722 287.732 89.2557 287.269 89.2557C286.789 89.2557 286.412 89.3608 286.14 89.571C285.867 89.7812 285.675 90.0057 285.564 90.2443L284.61 89.9034C284.78 89.5057 285.007 89.196 285.292 88.9744C285.578 88.75 285.891 88.5937 286.229 88.5057C286.57 88.4148 286.905 88.3693 287.235 88.3693C287.445 88.3693 287.686 88.3949 287.959 88.446C288.235 88.4943 288.5 88.5952 288.756 88.7486C289.015 88.902 289.229 89.1335 289.4 89.4432C289.57 89.7528 289.655 90.1676 289.655 90.6875V95H288.65V94.1136H288.598C288.53 94.2557 288.417 94.4077 288.257 94.5696C288.098 94.7315 287.887 94.8693 287.623 94.983C287.358 95.0966 287.036 95.1534 286.655 95.1534ZM286.809 94.25C287.206 94.25 287.542 94.1719 287.814 94.0156C288.09 93.8594 288.297 93.6577 288.436 93.4105C288.578 93.1634 288.65 92.9034 288.65 92.6307V91.7102C288.607 91.7614 288.513 91.8082 288.368 91.8509C288.226 91.8906 288.061 91.9261 287.874 91.9574C287.689 91.9858 287.509 92.0114 287.333 92.0341C287.159 92.054 287.019 92.071 286.911 92.0852C286.65 92.1193 286.405 92.1747 286.178 92.2514C285.953 92.3253 285.772 92.4375 285.632 92.5881C285.496 92.7358 285.428 92.9375 285.428 93.1932C285.428 93.5426 285.557 93.8068 285.816 93.9858C286.077 94.1619 286.408 94.25 286.809 94.25ZM294.133 97.5909C293.647 97.5909 293.229 97.5284 292.88 97.4034C292.531 97.2812 292.239 97.1193 292.006 96.9176C291.776 96.7188 291.593 96.5057 291.457 96.2784L292.258 95.7159C292.349 95.8352 292.464 95.9716 292.603 96.125C292.742 96.2812 292.933 96.4162 293.174 96.5298C293.418 96.6463 293.738 96.7045 294.133 96.7045C294.661 96.7045 295.097 96.5767 295.441 96.321C295.785 96.0653 295.957 95.6648 295.957 95.1193V93.7898H295.871C295.798 93.9091 295.692 94.0568 295.556 94.233C295.423 94.4062 295.229 94.5611 294.977 94.6974C294.727 94.831 294.388 94.8977 293.962 94.8977C293.434 94.8977 292.96 94.7727 292.539 94.5227C292.121 94.2727 291.79 93.9091 291.546 93.4318C291.305 92.9545 291.184 92.375 291.184 91.6932C291.184 91.0227 291.302 90.4389 291.538 89.9418C291.773 89.4418 292.102 89.0554 292.522 88.7827C292.942 88.5071 293.428 88.3693 293.979 88.3693C294.406 88.3693 294.744 88.4403 294.994 88.5824C295.246 88.7216 295.44 88.8807 295.573 89.0597C295.71 89.2358 295.815 89.3807 295.888 89.4943H295.991V88.4545H296.962V95.1875C296.962 95.75 296.835 96.2074 296.579 96.5597C296.326 96.9148 295.985 97.1747 295.556 97.3395C295.13 97.5071 294.656 97.5909 294.133 97.5909ZM294.099 93.9943C294.502 93.9943 294.843 93.902 295.121 93.7173C295.4 93.5327 295.612 93.267 295.756 92.9205C295.901 92.5739 295.974 92.1591 295.974 91.6761C295.974 91.2045 295.903 90.7884 295.761 90.4276C295.619 90.0668 295.408 89.7841 295.13 89.5795C294.852 89.375 294.508 89.2727 294.099 89.2727C293.673 89.2727 293.317 89.3807 293.033 89.5966C292.752 89.8125 292.54 90.1023 292.398 90.4659C292.259 90.8295 292.19 91.233 292.19 91.6761C292.19 92.1307 292.261 92.5327 292.403 92.8821C292.548 93.2287 292.761 93.5014 293.042 93.7003C293.326 93.8963 293.678 93.9943 294.099 93.9943Z" fill="#292929"/><rect x="332" y="79" width="57" height="24" rx="12" fill="#F5D3D6"/><path d="M350.997 92.9973C351.163 93.1633 351.189 93.4268 351.036 93.6049C350.302 94.459 349.214 95.0001 348 95.0001C346.786 95.0001 345.698 94.459 344.964 93.6049C344.811 93.4268 344.837 93.1633 345.003 92.9973C345.225 92.7755 345.596 92.822 345.81 93.051C346.358 93.6351 347.136 94.0001 348 94.0001C348.864 94.0001 349.642 93.6351 350.189 93.051C350.404 92.822 350.775 92.7755 350.997 92.9973Z" fill="#292929"/><path d="M346.5 89.5C346.5 90.0523 346.052 90.5 345.5 90.5C344.948 90.5 344.5 90.0523 344.5 89.5C344.5 88.9477 344.948 88.5 345.5 88.5C346.052 88.5 346.5 88.9477 346.5 89.5Z" fill="#292929"/><path d="M350.5 90.5C351.052 90.5 351.5 90.0523 351.5 89.5C351.5 88.9477 351.052 88.5 350.5 88.5C349.948 88.5 349.5 88.9477 349.5 89.5C349.5 90.0523 349.948 90.5 350.5 90.5Z" fill="#292929"/><path fill-rule="evenodd" clip-rule="evenodd" d="M355 91C355 94.866 351.866 98 348 98C344.134 98 341 94.866 341 91C341 87.134 344.134 84 348 84C351.866 84 355 87.134 355 91ZM354 91C354 94.3137 351.314 97 348 97C344.686 97 342 94.3137 342 91C342 87.6863 344.686 85 348 85C351.314 85 354 87.6863 354 91Z" fill="#292929"/><path d="M360.58 87.2102V86.2727H367.125V87.2102H364.381V95H363.324V87.2102H360.58ZM369.655 95.1534C369.24 95.1534 368.864 95.0753 368.526 94.919C368.188 94.7599 367.919 94.5312 367.721 94.233C367.522 93.9318 367.422 93.5682 367.422 93.142C367.422 92.767 367.496 92.4631 367.644 92.2301C367.792 91.9943 367.989 91.8097 368.236 91.6761C368.483 91.5426 368.756 91.4432 369.054 91.3778C369.355 91.3097 369.658 91.2557 369.962 91.2159C370.36 91.1648 370.682 91.1264 370.929 91.1009C371.179 91.0724 371.361 91.0256 371.475 90.9602C371.591 90.8949 371.65 90.7812 371.65 90.6193V90.5852C371.65 90.1648 371.534 89.8381 371.304 89.6051C371.077 89.3722 370.732 89.2557 370.269 89.2557C369.789 89.2557 369.412 89.3608 369.14 89.571C368.867 89.7812 368.675 90.0057 368.564 90.2443L367.61 89.9034C367.78 89.5057 368.007 89.196 368.292 88.9744C368.578 88.75 368.891 88.5937 369.229 88.5057C369.57 88.4148 369.905 88.3693 370.235 88.3693C370.445 88.3693 370.686 88.3949 370.959 88.446C371.235 88.4943 371.5 88.5952 371.756 88.7486C372.015 88.902 372.229 89.1335 372.4 89.4432C372.57 89.7528 372.655 90.1676 372.655 90.6875V95H371.65V94.1136H371.598C371.53 94.2557 371.417 94.4077 371.257 94.5696C371.098 94.7315 370.887 94.8693 370.623 94.983C370.358 95.0966 370.036 95.1534 369.655 95.1534ZM369.809 94.25C370.206 94.25 370.542 94.1719 370.814 94.0156C371.09 93.8594 371.297 93.6577 371.436 93.4105C371.578 93.1634 371.65 92.9034 371.65 92.6307V91.7102C371.607 91.7614 371.513 91.8082 371.368 91.8509C371.226 91.8906 371.061 91.9261 370.874 91.9574C370.689 91.9858 370.509 92.0114 370.333 92.0341C370.159 92.054 370.019 92.071 369.911 92.0852C369.65 92.1193 369.405 92.1747 369.178 92.2514C368.953 92.3253 368.772 92.4375 368.632 92.5881C368.496 92.7358 368.428 92.9375 368.428 93.1932C368.428 93.5426 368.557 93.8068 368.816 93.9858C369.077 94.1619 369.408 94.25 369.809 94.25ZM377.133 97.5909C376.647 97.5909 376.229 97.5284 375.88 97.4034C375.531 97.2812 375.239 97.1193 375.006 96.9176C374.776 96.7188 374.593 96.5057 374.457 96.2784L375.258 95.7159C375.349 95.8352 375.464 95.9716 375.603 96.125C375.742 96.2812 375.933 96.4162 376.174 96.5298C376.418 96.6463 376.738 96.7045 377.133 96.7045C377.661 96.7045 378.097 96.5767 378.441 96.321C378.785 96.0653 378.957 95.6648 378.957 95.1193V93.7898H378.871C378.798 93.9091 378.692 94.0568 378.556 94.233C378.423 94.4062 378.229 94.5611 377.977 94.6974C377.727 94.831 377.388 94.8977 376.962 94.8977C376.434 94.8977 375.96 94.7727 375.539 94.5227C375.121 94.2727 374.79 93.9091 374.546 93.4318C374.305 92.9545 374.184 92.375 374.184 91.6932C374.184 91.0227 374.302 90.4389 374.538 89.9418C374.773 89.4418 375.102 89.0554 375.522 88.7827C375.942 88.5071 376.428 88.3693 376.979 88.3693C377.406 88.3693 377.744 88.4403 377.994 88.5824C378.246 88.7216 378.44 88.8807 378.573 89.0597C378.71 89.2358 378.815 89.3807 378.888 89.4943H378.991V88.4545H379.962V95.1875C379.962 95.75 379.835 96.2074 379.579 96.5597C379.326 96.9148 378.985 97.1747 378.556 97.3395C378.13 97.5071 377.656 97.5909 377.133 97.5909ZM377.099 93.9943C377.502 93.9943 377.843 93.902 378.121 93.7173C378.4 93.5327 378.612 93.267 378.756 92.9205C378.901 92.5739 378.974 92.1591 378.974 91.6761C378.974 91.2045 378.903 90.7884 378.761 90.4276C378.619 90.0668 378.408 89.7841 378.13 89.5795C377.852 89.375 377.508 89.2727 377.099 89.2727C376.673 89.2727 376.317 89.3807 376.033 89.5966C375.752 89.8125 375.54 90.1023 375.398 90.4659C375.259 90.8295 375.19 91.233 375.19 91.6761C375.19 92.1307 375.261 92.5327 375.403 92.8821C375.548 93.2287 375.761 93.5014 376.042 93.7003C376.326 93.8963 376.678 93.9943 377.099 93.9943Z" fill="#292929"/><rect width="83" height="48" rx="6" fill="#4687ED"/><path d="M17.1893 30V18.3636H21.6438C22.4847 18.3636 23.1836 18.4962 23.7404 18.7614C24.301 19.0227 24.7196 19.3807 24.9961 19.8352C25.2764 20.2898 25.4166 20.8049 25.4166 21.3807C25.4166 21.8542 25.3257 22.2595 25.1438 22.5966C24.962 22.9299 24.7177 23.2008 24.4109 23.4091C24.1041 23.6174 23.7613 23.767 23.3825 23.858V23.9716C23.7954 23.9943 24.1912 24.1212 24.57 24.3523C24.9525 24.5795 25.265 24.9015 25.5075 25.3182C25.7499 25.7348 25.8711 26.2386 25.8711 26.8295C25.8711 27.4318 25.7253 27.9735 25.4336 28.4545C25.1419 28.9318 24.7025 29.3087 24.1154 29.5852C23.5283 29.8617 22.7897 30 21.8995 30H17.1893ZM19.2972 28.2386H21.5643C22.3294 28.2386 22.8806 28.0928 23.2177 27.8011C23.5586 27.5057 23.7291 27.1269 23.7291 26.6648C23.7291 26.3201 23.6438 26.0095 23.4734 25.733C23.3029 25.4527 23.0605 25.233 22.7461 25.0739C22.4317 24.911 22.0567 24.8295 21.6211 24.8295H19.2972V28.2386ZM19.2972 23.3125H21.3825C21.7461 23.3125 22.0738 23.2462 22.3654 23.1136C22.6571 22.9773 22.8863 22.786 23.0529 22.5398C23.2234 22.2898 23.3086 21.9943 23.3086 21.6534C23.3086 21.2027 23.1495 20.8314 22.8313 20.5398C22.5169 20.2481 22.0491 20.1023 21.4279 20.1023H19.2972V23.3125ZM33.0005 26.3295V21.2727H35.0573V30H33.063V28.4489H32.9721C32.7751 28.9375 32.4513 29.3371 32.0005 29.6477C31.5535 29.9583 31.0024 30.1136 30.3471 30.1136C29.7751 30.1136 29.2694 29.9867 28.8301 29.733C28.3944 29.4754 28.0535 29.1023 27.8073 28.6136C27.5611 28.1212 27.438 27.5265 27.438 26.8295V21.2727H29.4948V26.5114C29.4948 27.0644 29.6463 27.5038 29.9494 27.8295C30.2524 28.1553 30.6501 28.3182 31.1426 28.3182C31.4456 28.3182 31.7391 28.2443 32.0232 28.0966C32.3073 27.9489 32.5403 27.7292 32.7221 27.4375C32.9077 27.142 33.0005 26.7727 33.0005 26.3295ZM41.3543 21.2727V22.8636H36.3373V21.2727H41.3543ZM37.5759 19.1818H39.6327V27.375C39.6327 27.6515 39.6744 27.8636 39.7577 28.0114C39.8449 28.1553 39.9585 28.2538 40.0987 28.3068C40.2388 28.3598 40.3941 28.3864 40.5646 28.3864C40.6934 28.3864 40.8108 28.3769 40.9168 28.358C41.0267 28.339 41.11 28.322 41.1668 28.3068L41.5134 29.9148C41.4036 29.9527 41.2464 29.9943 41.0418 30.0398C40.8411 30.0852 40.5949 30.1117 40.3032 30.1193C39.788 30.1345 39.324 30.0568 38.9112 29.8864C38.4983 29.7121 38.1706 29.4432 37.9282 29.0795C37.6896 28.7159 37.5721 28.2614 37.5759 27.7159V19.1818ZM47.2565 21.2727V22.8636H42.2394V21.2727H47.2565ZM43.4781 19.1818H45.5349V27.375C45.5349 27.6515 45.5765 27.8636 45.6599 28.0114C45.747 28.1553 45.8606 28.2538 46.0008 28.3068C46.1409 28.3598 46.2962 28.3864 46.4667 28.3864C46.5955 28.3864 46.7129 28.3769 46.819 28.358C46.9288 28.339 47.0121 28.322 47.069 28.3068L47.4156 29.9148C47.3057 29.9527 47.1485 29.9943 46.944 30.0398C46.7432 30.0852 46.497 30.1117 46.2053 30.1193C45.6902 30.1345 45.2262 30.0568 44.8133 29.8864C44.4004 29.7121 44.0727 29.4432 43.8303 29.0795C43.5917 28.7159 43.4743 28.2614 43.4781 27.7159V19.1818ZM52.5137 30.1705C51.6614 30.1705 50.9228 29.983 50.2978 29.608C49.6728 29.233 49.1879 28.7083 48.8432 28.0341C48.5023 27.3598 48.3319 26.572 48.3319 25.6705C48.3319 24.7689 48.5023 23.9792 48.8432 23.3011C49.1879 22.6231 49.6728 22.0966 50.2978 21.7216C50.9228 21.3466 51.6614 21.1591 52.5137 21.1591C53.366 21.1591 54.1046 21.3466 54.7296 21.7216C55.3546 22.0966 55.8376 22.6231 56.1785 23.3011C56.5232 23.9792 56.6955 24.7689 56.6955 25.6705C56.6955 26.572 56.5232 27.3598 56.1785 28.0341C55.8376 28.7083 55.3546 29.233 54.7296 29.608C54.1046 29.983 53.366 30.1705 52.5137 30.1705ZM52.5251 28.5227C52.9872 28.5227 53.3735 28.3958 53.6842 28.142C53.9948 27.8845 54.2258 27.5398 54.3773 27.108C54.5326 26.6761 54.6103 26.1951 54.6103 25.6648C54.6103 25.1307 54.5326 24.6477 54.3773 24.2159C54.2258 23.7803 53.9948 23.4337 53.6842 23.1761C53.3735 22.9186 52.9872 22.7898 52.5251 22.7898C52.0516 22.7898 51.6576 22.9186 51.3432 23.1761C51.0326 23.4337 50.7997 23.7803 50.6444 24.2159C50.4929 24.6477 50.4171 25.1307 50.4171 25.6648C50.4171 26.1951 50.4929 26.6761 50.6444 27.108C50.7997 27.5398 51.0326 27.8845 51.3432 28.142C51.6576 28.3958 52.0516 28.5227 52.5251 28.5227ZM60.3221 24.8864V30H58.2653V21.2727H60.2312V22.7557H60.3334C60.5342 22.267 60.8543 21.8788 61.2937 21.5909C61.7368 21.303 62.2842 21.1591 62.9357 21.1591C63.538 21.1591 64.0626 21.2879 64.5096 21.5455C64.9603 21.803 65.3088 22.1761 65.555 22.6648C65.805 23.1534 65.9281 23.7462 65.9243 24.4432V30H63.8675V24.7614C63.8675 24.178 63.716 23.7216 63.413 23.392C63.1137 23.0625 62.699 22.8977 62.1687 22.8977C61.8088 22.8977 61.4887 22.9773 61.2084 23.1364C60.9319 23.2917 60.7141 23.517 60.555 23.8125C60.3997 24.108 60.3221 24.4659 60.3221 24.8864Z" fill="black"/><rect x="114" width="83" height="48" rx="6" fill="#E0E0E0"/><path d="M131.189 30V18.3636H135.644C136.485 18.3636 137.184 18.4962 137.74 18.7614C138.301 19.0227 138.72 19.3807 138.996 19.8352C139.276 20.2898 139.417 20.8049 139.417 21.3807C139.417 21.8542 139.326 22.2595 139.144 22.5966C138.962 22.9299 138.718 23.2008 138.411 23.4091C138.104 23.6174 137.761 23.767 137.382 23.858V23.9716C137.795 23.9943 138.191 24.1212 138.57 24.3523C138.953 24.5795 139.265 24.9015 139.507 25.3182C139.75 25.7348 139.871 26.2386 139.871 26.8295C139.871 27.4318 139.725 27.9735 139.434 28.4545C139.142 28.9318 138.703 29.3087 138.115 29.5852C137.528 29.8617 136.79 30 135.9 30H131.189ZM133.297 28.2386H135.564C136.329 28.2386 136.881 28.0928 137.218 27.8011C137.559 27.5057 137.729 27.1269 137.729 26.6648C137.729 26.3201 137.644 26.0095 137.473 25.733C137.303 25.4527 137.061 25.233 136.746 25.0739C136.432 24.911 136.057 24.8295 135.621 24.8295H133.297V28.2386ZM133.297 23.3125H135.382C135.746 23.3125 136.074 23.2462 136.365 23.1136C136.657 22.9773 136.886 22.786 137.053 22.5398C137.223 22.2898 137.309 21.9943 137.309 21.6534C137.309 21.2027 137.15 20.8314 136.831 20.5398C136.517 20.2481 136.049 20.1023 135.428 20.1023H133.297V23.3125ZM147.001 26.3295V21.2727H149.057V30H147.063V28.4489H146.972C146.775 28.9375 146.451 29.3371 146.001 29.6477C145.554 29.9583 145.002 30.1136 144.347 30.1136C143.775 30.1136 143.269 29.9867 142.83 29.733C142.394 29.4754 142.054 29.1023 141.807 28.6136C141.561 28.1212 141.438 27.5265 141.438 26.8295V21.2727H143.495V26.5114C143.495 27.0644 143.646 27.5038 143.949 27.8295C144.252 28.1553 144.65 28.3182 145.143 28.3182C145.446 28.3182 145.739 28.2443 146.023 28.0966C146.307 27.9489 146.54 27.7292 146.722 27.4375C146.908 27.142 147.001 26.7727 147.001 26.3295ZM155.354 21.2727V22.8636H150.337V21.2727H155.354ZM151.576 19.1818H153.633V27.375C153.633 27.6515 153.674 27.8636 153.758 28.0114C153.845 28.1553 153.959 28.2538 154.099 28.3068C154.239 28.3598 154.394 28.3864 154.565 28.3864C154.693 28.3864 154.811 28.3769 154.917 28.358C155.027 28.339 155.11 28.322 155.167 28.3068L155.513 29.9148C155.404 29.9527 155.246 29.9943 155.042 30.0398C154.841 30.0852 154.595 30.1117 154.303 30.1193C153.788 30.1345 153.324 30.0568 152.911 29.8864C152.498 29.7121 152.171 29.4432 151.928 29.0795C151.69 28.7159 151.572 28.2614 151.576 27.7159V19.1818ZM161.256 21.2727V22.8636H156.239V21.2727H161.256ZM157.478 19.1818H159.535V27.375C159.535 27.6515 159.577 27.8636 159.66 28.0114C159.747 28.1553 159.861 28.2538 160.001 28.3068C160.141 28.3598 160.296 28.3864 160.467 28.3864C160.595 28.3864 160.713 28.3769 160.819 28.358C160.929 28.339 161.012 28.322 161.069 28.3068L161.416 29.9148C161.306 29.9527 161.149 29.9943 160.944 30.0398C160.743 30.0852 160.497 30.1117 160.205 30.1193C159.69 30.1345 159.226 30.0568 158.813 29.8864C158.4 29.7121 158.073 29.4432 157.83 29.0795C157.592 28.7159 157.474 28.2614 157.478 27.7159V19.1818ZM166.514 30.1705C165.661 30.1705 164.923 29.983 164.298 29.608C163.673 29.233 163.188 28.7083 162.843 28.0341C162.502 27.3598 162.332 26.572 162.332 25.6705C162.332 24.7689 162.502 23.9792 162.843 23.3011C163.188 22.6231 163.673 22.0966 164.298 21.7216C164.923 21.3466 165.661 21.1591 166.514 21.1591C167.366 21.1591 168.105 21.3466 168.73 21.7216C169.355 22.0966 169.838 22.6231 170.178 23.3011C170.523 23.9792 170.696 24.7689 170.696 25.6705C170.696 26.572 170.523 27.3598 170.178 28.0341C169.838 28.7083 169.355 29.233 168.73 29.608C168.105 29.983 167.366 30.1705 166.514 30.1705ZM166.525 28.5227C166.987 28.5227 167.374 28.3958 167.684 28.142C167.995 27.8845 168.226 27.5398 168.377 27.108C168.533 26.6761 168.61 26.1951 168.61 25.6648C168.61 25.1307 168.533 24.6477 168.377 24.2159C168.226 23.7803 167.995 23.4337 167.684 23.1761C167.374 22.9186 166.987 22.7898 166.525 22.7898C166.052 22.7898 165.658 22.9186 165.343 23.1761C165.033 23.4337 164.8 23.7803 164.644 24.2159C164.493 24.6477 164.417 25.1307 164.417 25.6648C164.417 26.1951 164.493 26.6761 164.644 27.108C164.8 27.5398 165.033 27.8845 165.343 28.142C165.658 28.3958 166.052 28.5227 166.525 28.5227ZM174.322 24.8864V30H172.265V21.2727H174.231V22.7557H174.333C174.534 22.267 174.854 21.8788 175.294 21.5909C175.737 21.303 176.284 21.1591 176.936 21.1591C177.538 21.1591 178.063 21.2879 178.51 21.5455C178.96 21.803 179.309 22.1761 179.555 22.6648C179.805 23.1534 179.928 23.7462 179.924 24.4432V30H177.868V24.7614C177.868 24.178 177.716 23.7216 177.413 23.392C177.114 23.0625 176.699 22.8977 176.169 22.8977C175.809 22.8977 175.489 22.9773 175.208 23.1364C174.932 23.2917 174.714 23.517 174.555 23.8125C174.4 24.108 174.322 24.4659 174.322 24.8864Z" fill="#292929"/><path d="M243.189 30V18.3636H247.644C248.485 18.3636 249.184 18.4962 249.74 18.7614C250.301 19.0227 250.72 19.3807 250.996 19.8352C251.276 20.2898 251.417 20.8049 251.417 21.3807C251.417 21.8542 251.326 22.2595 251.144 22.5966C250.962 22.9299 250.718 23.2008 250.411 23.4091C250.104 23.6174 249.761 23.767 249.382 23.858V23.9716C249.795 23.9943 250.191 24.1212 250.57 24.3523C250.953 24.5795 251.265 24.9015 251.507 25.3182C251.75 25.7348 251.871 26.2386 251.871 26.8295C251.871 27.4318 251.725 27.9735 251.434 28.4545C251.142 28.9318 250.703 29.3087 250.115 29.5852C249.528 29.8617 248.79 30 247.9 30H243.189ZM245.297 28.2386H247.564C248.329 28.2386 248.881 28.0928 249.218 27.8011C249.559 27.5057 249.729 27.1269 249.729 26.6648C249.729 26.3201 249.644 26.0095 249.473 25.733C249.303 25.4527 249.061 25.233 248.746 25.0739C248.432 24.911 248.057 24.8295 247.621 24.8295H245.297V28.2386ZM245.297 23.3125H247.382C247.746 23.3125 248.074 23.2462 248.365 23.1136C248.657 22.9773 248.886 22.786 249.053 22.5398C249.223 22.2898 249.309 21.9943 249.309 21.6534C249.309 21.2027 249.15 20.8314 248.831 20.5398C248.517 20.2481 248.049 20.1023 247.428 20.1023H245.297V23.3125ZM259.001 26.3295V21.2727H261.057V30H259.063V28.4489H258.972C258.775 28.9375 258.451 29.3371 258.001 29.6477C257.554 29.9583 257.002 30.1136 256.347 30.1136C255.775 30.1136 255.269 29.9867 254.83 29.733C254.394 29.4754 254.054 29.1023 253.807 28.6136C253.561 28.1212 253.438 27.5265 253.438 26.8295V21.2727H255.495V26.5114C255.495 27.0644 255.646 27.5038 255.949 27.8295C256.252 28.1553 256.65 28.3182 257.143 28.3182C257.446 28.3182 257.739 28.2443 258.023 28.0966C258.307 27.9489 258.54 27.7292 258.722 27.4375C258.908 27.142 259.001 26.7727 259.001 26.3295ZM267.354 21.2727V22.8636H262.337V21.2727H267.354ZM263.576 19.1818H265.633V27.375C265.633 27.6515 265.674 27.8636 265.758 28.0114C265.845 28.1553 265.959 28.2538 266.099 28.3068C266.239 28.3598 266.394 28.3864 266.565 28.3864C266.693 28.3864 266.811 28.3769 266.917 28.358C267.027 28.339 267.11 28.322 267.167 28.3068L267.513 29.9148C267.404 29.9527 267.246 29.9943 267.042 30.0398C266.841 30.0852 266.595 30.1117 266.303 30.1193C265.788 30.1345 265.324 30.0568 264.911 29.8864C264.498 29.7121 264.171 29.4432 263.928 29.0795C263.69 28.7159 263.572 28.2614 263.576 27.7159V19.1818ZM273.256 21.2727V22.8636H268.239V21.2727H273.256ZM269.478 19.1818H271.535V27.375C271.535 27.6515 271.577 27.8636 271.66 28.0114C271.747 28.1553 271.861 28.2538 272.001 28.3068C272.141 28.3598 272.296 28.3864 272.467 28.3864C272.595 28.3864 272.713 28.3769 272.819 28.358C272.929 28.339 273.012 28.322 273.069 28.3068L273.416 29.9148C273.306 29.9527 273.149 29.9943 272.944 30.0398C272.743 30.0852 272.497 30.1117 272.205 30.1193C271.69 30.1345 271.226 30.0568 270.813 29.8864C270.4 29.7121 270.073 29.4432 269.83 29.0795C269.592 28.7159 269.474 28.2614 269.478 27.7159V19.1818ZM278.514 30.1705C277.661 30.1705 276.923 29.983 276.298 29.608C275.673 29.233 275.188 28.7083 274.843 28.0341C274.502 27.3598 274.332 26.572 274.332 25.6705C274.332 24.7689 274.502 23.9792 274.843 23.3011C275.188 22.6231 275.673 22.0966 276.298 21.7216C276.923 21.3466 277.661 21.1591 278.514 21.1591C279.366 21.1591 280.105 21.3466 280.73 21.7216C281.355 22.0966 281.838 22.6231 282.178 23.3011C282.523 23.9792 282.696 24.7689 282.696 25.6705C282.696 26.572 282.523 27.3598 282.178 28.0341C281.838 28.7083 281.355 29.233 280.73 29.608C280.105 29.983 279.366 30.1705 278.514 30.1705ZM278.525 28.5227C278.987 28.5227 279.374 28.3958 279.684 28.142C279.995 27.8845 280.226 27.5398 280.377 27.108C280.533 26.6761 280.61 26.1951 280.61 25.6648C280.61 25.1307 280.533 24.6477 280.377 24.2159C280.226 23.7803 279.995 23.4337 279.684 23.1761C279.374 22.9186 278.987 22.7898 278.525 22.7898C278.052 22.7898 277.658 22.9186 277.343 23.1761C277.033 23.4337 276.8 23.7803 276.644 24.2159C276.493 24.6477 276.417 25.1307 276.417 25.6648C276.417 26.1951 276.493 26.6761 276.644 27.108C276.8 27.5398 277.033 27.8845 277.343 28.142C277.658 28.3958 278.052 28.5227 278.525 28.5227ZM286.322 24.8864V30H284.265V21.2727H286.231V22.7557H286.333C286.534 22.267 286.854 21.8788 287.294 21.5909C287.737 21.303 288.284 21.1591 288.936 21.1591C289.538 21.1591 290.063 21.2879 290.51 21.5455C290.96 21.803 291.309 22.1761 291.555 22.6648C291.805 23.1534 291.928 23.7462 291.924 24.4432V30H289.868V24.7614C289.868 24.178 289.716 23.7216 289.413 23.392C289.114 23.0625 288.699 22.8977 288.169 22.8977C287.809 22.8977 287.489 22.9773 287.208 23.1364C286.932 23.2917 286.714 23.517 286.555 23.8125C286.4 24.108 286.322 24.4659 286.322 24.8864Z" fill="#4687ED"/><rect x="0.5" y="140.5" width="279" height="55" rx="5.5" fill="#171719"/><rect x="0.5" y="140.5" width="279" height="55" rx="5.5" stroke="#666666"/><path fill-rule="evenodd" clip-rule="evenodd" d="M34.0669 163.808C34.311 164.052 34.311 164.448 34.0669 164.692L26.6964 172.063C26.2082 172.551 25.4168 172.551 24.9286 172.062L21.9331 169.067C21.689 168.823 21.689 168.427 21.9331 168.183C22.1771 167.939 22.5729 167.939 22.8169 168.183L25.8125 171.179L33.1831 163.808C33.4271 163.564 33.8229 163.564 34.0669 163.808Z" fill="#189B55"/><path d="M48.6761 163.912V162.818H56.3125V163.912H53.1108V173H51.8778V163.912H48.6761ZM59.1456 168.406V173H57.9723V162.818H59.1456V166.557H59.245C59.424 166.162 59.6925 165.849 60.0504 165.617C60.4117 165.382 60.8923 165.264 61.4922 165.264C62.0125 165.264 62.4683 165.369 62.8594 165.577C63.2505 165.783 63.5537 166.099 63.7692 166.527C63.9879 166.951 64.0973 167.491 64.0973 168.148V173H62.924V168.227C62.924 167.621 62.7666 167.152 62.4517 166.82C62.1401 166.486 61.7076 166.318 61.1541 166.318C60.7696 166.318 60.4249 166.399 60.12 166.562C59.8184 166.724 59.5798 166.961 59.4041 167.273C59.2318 167.584 59.1456 167.962 59.1456 168.406ZM66.1598 173V165.364H67.3331V173H66.1598ZM66.7564 164.091C66.5277 164.091 66.3305 164.013 66.1647 163.857C66.0023 163.701 65.9211 163.514 65.9211 163.295C65.9211 163.077 66.0023 162.889 66.1647 162.734C66.3305 162.578 66.5277 162.5 66.7564 162.5C66.9851 162.5 67.1806 162.578 67.343 162.734C67.5087 162.889 67.5916 163.077 67.5916 163.295C67.5916 163.514 67.5087 163.701 67.343 163.857C67.1806 164.013 66.9851 164.091 66.7564 164.091ZM74.8071 167.074L73.7531 167.372C73.6869 167.196 73.5891 167.026 73.4598 166.86C73.3339 166.691 73.1615 166.552 72.9428 166.442C72.724 166.333 72.444 166.278 72.1026 166.278C71.6353 166.278 71.2458 166.386 70.9343 166.602C70.626 166.814 70.4719 167.084 70.4719 167.412C70.4719 167.704 70.578 167.934 70.7901 168.103C71.0022 168.272 71.3336 168.413 71.7844 168.526L72.9179 168.804C73.6007 168.97 74.1094 169.223 74.4442 169.565C74.779 169.903 74.9463 170.339 74.9463 170.872C74.9463 171.31 74.8204 171.701 74.5685 172.045C74.3199 172.39 73.9719 172.662 73.5245 172.861C73.077 173.06 72.5567 173.159 71.9634 173.159C71.1845 173.159 70.5398 172.99 70.0294 172.652C69.519 172.314 69.1959 171.82 69.06 171.17L70.1736 170.892C70.2797 171.303 70.4802 171.611 70.7752 171.817C71.0735 172.022 71.4629 172.125 71.9435 172.125C72.4904 172.125 72.9246 172.009 73.246 171.777C73.5709 171.542 73.7333 171.26 73.7333 170.932C73.7333 170.667 73.6405 170.445 73.4549 170.266C73.2692 170.083 72.9842 169.947 72.5997 169.858L71.327 169.56C70.6277 169.394 70.1139 169.137 69.7858 168.789C69.461 168.438 69.2986 167.999 69.2986 167.472C69.2986 167.041 69.4196 166.66 69.6615 166.328C69.9068 165.997 70.2399 165.737 70.6608 165.548C71.0851 165.359 71.5656 165.264 72.1026 165.264C72.8583 165.264 73.4515 165.43 73.8824 165.761C74.3166 166.093 74.6248 166.53 74.8071 167.074ZM80.482 173V165.364H81.6553V173H80.482ZM81.0786 164.091C80.8499 164.091 80.6527 164.013 80.487 163.857C80.3246 163.701 80.2434 163.514 80.2434 163.295C80.2434 163.077 80.3246 162.889 80.487 162.734C80.6527 162.578 80.8499 162.5 81.0786 162.5C81.3073 162.5 81.5028 162.578 81.6652 162.734C81.8309 162.889 81.9138 163.077 81.9138 163.295C81.9138 163.514 81.8309 163.701 81.6652 163.857C81.5028 164.013 81.3073 164.091 81.0786 164.091ZM89.1293 167.074L88.0754 167.372C88.0091 167.196 87.9113 167.026 87.782 166.86C87.6561 166.691 87.4837 166.552 87.265 166.442C87.0462 166.333 86.7662 166.278 86.4248 166.278C85.9575 166.278 85.568 166.386 85.2565 166.602C84.9482 166.814 84.7941 167.084 84.7941 167.412C84.7941 167.704 84.9002 167.934 85.1123 168.103C85.3244 168.272 85.6559 168.413 86.1066 168.526L87.2401 168.804C87.9229 168.97 88.4317 169.223 88.7664 169.565C89.1012 169.903 89.2685 170.339 89.2685 170.872C89.2685 171.31 89.1426 171.701 88.8907 172.045C88.6421 172.39 88.2941 172.662 87.8467 172.861C87.3992 173.06 86.8789 173.159 86.2856 173.159C85.5067 173.159 84.8621 172.99 84.3516 172.652C83.8412 172.314 83.5181 171.82 83.3822 171.17L84.4958 170.892C84.6019 171.303 84.8024 171.611 85.0974 171.817C85.3957 172.022 85.7851 172.125 86.2657 172.125C86.8126 172.125 87.2468 172.009 87.5683 171.777C87.8931 171.542 88.0555 171.26 88.0555 170.932C88.0555 170.667 87.9627 170.445 87.7771 170.266C87.5915 170.083 87.3064 169.947 86.922 169.858L85.6492 169.56C84.9499 169.394 84.4362 169.137 84.108 168.789C83.7832 168.438 83.6208 167.999 83.6208 167.472C83.6208 167.041 83.7418 166.66 83.9837 166.328C84.229 165.997 84.5621 165.737 84.983 165.548C85.4073 165.359 85.8879 165.264 86.4248 165.264C87.1805 165.264 87.7738 165.43 88.2046 165.761C88.6388 166.093 88.9471 166.53 89.1293 167.074ZM97.0514 173.179C96.5675 173.179 96.1283 173.088 95.7339 172.906C95.3395 172.72 95.0263 172.453 94.7943 172.105C94.5623 171.754 94.4463 171.33 94.4463 170.832C94.4463 170.395 94.5324 170.04 94.7048 169.768C94.8771 169.493 95.1075 169.278 95.3958 169.122C95.6842 168.966 96.0024 168.85 96.3504 168.774C96.7017 168.695 97.0547 168.632 97.4093 168.585C97.8733 168.526 98.2495 168.481 98.5379 168.451C98.8295 168.418 99.0417 168.363 99.1742 168.287C99.3101 168.211 99.3781 168.078 99.3781 167.889V167.849C99.3781 167.359 99.2438 166.978 98.9754 166.706C98.7102 166.434 98.3075 166.298 97.7673 166.298C97.2071 166.298 96.768 166.421 96.4498 166.666C96.1316 166.911 95.9079 167.173 95.7786 167.452L94.665 167.054C94.8639 166.59 95.129 166.229 95.4605 165.97C95.7952 165.708 96.1598 165.526 96.5542 165.423C96.9519 165.317 97.343 165.264 97.7275 165.264C97.9728 165.264 98.2545 165.294 98.5727 165.354C98.8942 165.41 99.2041 165.528 99.5024 165.707C99.804 165.886 100.054 166.156 100.253 166.517C100.452 166.878 100.551 167.362 100.551 167.969V173H99.3781V171.966H99.3184C99.2389 172.132 99.1063 172.309 98.9207 172.498C98.7351 172.687 98.4882 172.848 98.1799 172.98C97.8717 173.113 97.4955 173.179 97.0514 173.179ZM97.2303 172.125C97.6944 172.125 98.0855 172.034 98.4036 171.852C98.7251 171.669 98.9671 171.434 99.1295 171.146C99.2952 170.857 99.3781 170.554 99.3781 170.236V169.162C99.3284 169.222 99.219 169.276 99.0499 169.326C98.8842 169.372 98.692 169.414 98.4732 169.45C98.2578 169.483 98.0473 169.513 97.8418 169.54C97.6397 169.563 97.4756 169.583 97.3497 169.599C97.0447 169.639 96.7597 169.704 96.4945 169.793C96.2327 169.879 96.0206 170.01 95.8582 170.186C95.6991 170.358 95.6195 170.594 95.6195 170.892C95.6195 171.3 95.7704 171.608 96.072 171.817C96.3769 172.022 96.763 172.125 97.2303 172.125ZM106.462 173V165.364H107.596V166.557H107.695C107.854 166.149 108.111 165.833 108.466 165.607C108.821 165.379 109.246 165.264 109.744 165.264C110.247 165.264 110.667 165.379 111.001 165.607C111.34 165.833 111.603 166.149 111.792 166.557H111.871C112.067 166.162 112.36 165.849 112.751 165.617C113.143 165.382 113.612 165.264 114.158 165.264C114.841 165.264 115.4 165.478 115.834 165.906C116.268 166.33 116.485 166.991 116.485 167.889V173H115.312V167.889C115.312 167.326 115.158 166.923 114.849 166.681C114.541 166.439 114.178 166.318 113.761 166.318C113.224 166.318 112.808 166.481 112.513 166.805C112.218 167.127 112.07 167.535 112.07 168.028V173H110.877V167.77C110.877 167.336 110.736 166.986 110.455 166.721C110.173 166.452 109.81 166.318 109.366 166.318C109.061 166.318 108.776 166.399 108.511 166.562C108.249 166.724 108.037 166.95 107.874 167.238C107.715 167.523 107.636 167.853 107.636 168.227V173H106.462ZM121.748 173.159C121.012 173.159 120.378 172.997 119.844 172.672C119.314 172.344 118.904 171.886 118.616 171.3C118.331 170.71 118.188 170.024 118.188 169.241C118.188 168.459 118.331 167.77 118.616 167.173C118.904 166.573 119.305 166.106 119.819 165.771C120.336 165.433 120.939 165.264 121.629 165.264C122.026 165.264 122.419 165.33 122.807 165.463C123.195 165.596 123.548 165.811 123.866 166.109C124.184 166.404 124.438 166.795 124.627 167.283C124.816 167.77 124.91 168.37 124.91 169.082V169.58H119.024V168.565H123.717C123.717 168.134 123.631 167.75 123.458 167.412C123.289 167.074 123.047 166.807 122.732 166.612C122.421 166.416 122.053 166.318 121.629 166.318C121.161 166.318 120.757 166.434 120.416 166.666C120.078 166.895 119.817 167.193 119.635 167.561C119.453 167.929 119.362 168.323 119.362 168.744V169.42C119.362 169.997 119.461 170.486 119.66 170.887C119.862 171.285 120.142 171.588 120.5 171.797C120.858 172.002 121.274 172.105 121.748 172.105C122.056 172.105 122.335 172.062 122.583 171.976C122.835 171.886 123.052 171.754 123.235 171.578C123.417 171.399 123.558 171.177 123.657 170.912L124.791 171.23C124.671 171.615 124.471 171.953 124.189 172.244C123.907 172.533 123.559 172.758 123.145 172.92C122.731 173.08 122.265 173.159 121.748 173.159ZM132.02 167.074L130.966 167.372C130.9 167.196 130.802 167.026 130.673 166.86C130.547 166.691 130.374 166.552 130.156 166.442C129.937 166.333 129.657 166.278 129.315 166.278C128.848 166.278 128.459 166.386 128.147 166.602C127.839 166.814 127.685 167.084 127.685 167.412C127.685 167.704 127.791 167.934 128.003 168.103C128.215 168.272 128.546 168.413 128.997 168.526L130.131 168.804C130.813 168.97 131.322 169.223 131.657 169.565C131.992 169.903 132.159 170.339 132.159 170.872C132.159 171.31 132.033 171.701 131.781 172.045C131.533 172.39 131.185 172.662 130.737 172.861C130.29 173.06 129.769 173.159 129.176 173.159C128.397 173.159 127.753 172.99 127.242 172.652C126.732 172.314 126.409 171.82 126.273 171.17L127.386 170.892C127.492 171.303 127.693 171.611 127.988 171.817C128.286 172.022 128.676 172.125 129.156 172.125C129.703 172.125 130.137 172.009 130.459 171.777C130.784 171.542 130.946 171.26 130.946 170.932C130.946 170.667 130.853 170.445 130.668 170.266C130.482 170.083 130.197 169.947 129.812 169.858L128.54 169.56C127.84 169.394 127.327 169.137 126.999 168.789C126.674 168.438 126.511 167.999 126.511 167.472C126.511 167.041 126.632 166.66 126.874 166.328C127.12 165.997 127.453 165.737 127.874 165.548C128.298 165.359 128.778 165.264 129.315 165.264C130.071 165.264 130.664 165.43 131.095 165.761C131.529 166.093 131.838 166.53 132.02 167.074ZM139.25 167.074L138.196 167.372C138.13 167.196 138.032 167.026 137.903 166.86C137.777 166.691 137.605 166.552 137.386 166.442C137.167 166.333 136.887 166.278 136.546 166.278C136.078 166.278 135.689 166.386 135.377 166.602C135.069 166.814 134.915 167.084 134.915 167.412C134.915 167.704 135.021 167.934 135.233 168.103C135.445 168.272 135.777 168.413 136.228 168.526L137.361 168.804C138.044 168.97 138.553 169.223 138.887 169.565C139.222 169.903 139.39 170.339 139.39 170.872C139.39 171.31 139.264 171.701 139.012 172.045C138.763 172.39 138.415 172.662 137.968 172.861C137.52 173.06 137 173.159 136.407 173.159C135.628 173.159 134.983 172.99 134.473 172.652C133.962 172.314 133.639 171.82 133.503 171.17L134.617 170.892C134.723 171.303 134.923 171.611 135.218 171.817C135.517 172.022 135.906 172.125 136.387 172.125C136.934 172.125 137.368 172.009 137.689 171.777C138.014 171.542 138.176 171.26 138.176 170.932C138.176 170.667 138.084 170.445 137.898 170.266C137.712 170.083 137.427 169.947 137.043 169.858L135.77 169.56C135.071 169.394 134.557 169.137 134.229 168.789C133.904 168.438 133.742 167.999 133.742 167.472C133.742 167.041 133.863 166.66 134.105 166.328C134.35 165.997 134.683 165.737 135.104 165.548C135.528 165.359 136.009 165.264 136.546 165.264C137.301 165.264 137.895 165.43 138.326 165.761C138.76 166.093 139.068 166.53 139.25 167.074ZM143.319 173.179C142.835 173.179 142.396 173.088 142.001 172.906C141.607 172.72 141.294 172.453 141.062 172.105C140.83 171.754 140.714 171.33 140.714 170.832C140.714 170.395 140.8 170.04 140.972 169.768C141.145 169.493 141.375 169.278 141.663 169.122C141.952 168.966 142.27 168.85 142.618 168.774C142.969 168.695 143.322 168.632 143.677 168.585C144.141 168.526 144.517 168.481 144.805 168.451C145.097 168.418 145.309 168.363 145.442 168.287C145.578 168.211 145.646 168.078 145.646 167.889V167.849C145.646 167.359 145.511 166.978 145.243 166.706C144.978 166.434 144.575 166.298 144.035 166.298C143.475 166.298 143.035 166.421 142.717 166.666C142.399 166.911 142.175 167.173 142.046 167.452L140.932 167.054C141.131 166.59 141.396 166.229 141.728 165.97C142.063 165.708 142.427 165.526 142.822 165.423C143.219 165.317 143.611 165.264 143.995 165.264C144.24 165.264 144.522 165.294 144.84 165.354C145.162 165.41 145.472 165.528 145.77 165.707C146.071 165.886 146.322 166.156 146.521 166.517C146.719 166.878 146.819 167.362 146.819 167.969V173H145.646V171.966H145.586C145.506 172.132 145.374 172.309 145.188 172.498C145.003 172.687 144.756 172.848 144.447 172.98C144.139 173.113 143.763 173.179 143.319 173.179ZM143.498 172.125C143.962 172.125 144.353 172.034 144.671 171.852C144.993 171.669 145.235 171.434 145.397 171.146C145.563 170.857 145.646 170.554 145.646 170.236V169.162C145.596 169.222 145.486 169.276 145.317 169.326C145.152 169.372 144.959 169.414 144.741 169.45C144.525 169.483 144.315 169.513 144.109 169.54C143.907 169.563 143.743 169.583 143.617 169.599C143.312 169.639 143.027 169.704 142.762 169.793C142.5 169.879 142.288 170.01 142.126 170.186C141.967 170.358 141.887 170.594 141.887 170.892C141.887 171.3 142.038 171.608 142.339 171.817C142.644 172.022 143.03 172.125 143.498 172.125ZM151.959 176.023C151.392 176.023 150.905 175.95 150.497 175.804C150.089 175.661 149.75 175.473 149.478 175.237C149.209 175.005 148.996 174.757 148.837 174.491L149.771 173.835C149.877 173.974 150.012 174.134 150.174 174.312C150.336 174.495 150.558 174.652 150.84 174.785C151.125 174.921 151.498 174.989 151.959 174.989C152.575 174.989 153.084 174.839 153.485 174.541C153.886 174.243 154.087 173.776 154.087 173.139V171.588H153.987C153.901 171.727 153.778 171.9 153.619 172.105C153.463 172.307 153.238 172.488 152.943 172.647C152.651 172.803 152.257 172.881 151.76 172.881C151.143 172.881 150.59 172.735 150.099 172.443C149.612 172.152 149.226 171.727 148.941 171.17C148.659 170.614 148.518 169.937 148.518 169.142C148.518 168.36 148.656 167.679 148.931 167.099C149.206 166.515 149.589 166.065 150.079 165.746C150.57 165.425 151.137 165.264 151.78 165.264C152.277 165.264 152.671 165.347 152.963 165.513C153.258 165.675 153.483 165.861 153.639 166.07C153.798 166.275 153.921 166.444 154.007 166.577H154.126V165.364H155.26V173.219C155.26 173.875 155.111 174.409 154.812 174.82C154.517 175.234 154.12 175.537 153.619 175.729C153.122 175.925 152.569 176.023 151.959 176.023ZM151.919 171.827C152.39 171.827 152.787 171.719 153.112 171.504C153.437 171.288 153.684 170.978 153.853 170.574C154.022 170.17 154.106 169.686 154.106 169.122C154.106 168.572 154.024 168.086 153.858 167.665C153.692 167.245 153.447 166.915 153.122 166.676C152.797 166.437 152.396 166.318 151.919 166.318C151.422 166.318 151.008 166.444 150.676 166.696C150.348 166.948 150.101 167.286 149.935 167.71C149.773 168.134 149.692 168.605 149.692 169.122C149.692 169.652 149.775 170.121 149.94 170.529C150.109 170.933 150.358 171.252 150.686 171.484C151.017 171.712 151.428 171.827 151.919 171.827ZM160.525 173.159C159.79 173.159 159.155 172.997 158.621 172.672C158.091 172.344 157.682 171.886 157.393 171.3C157.108 170.71 156.966 170.024 156.966 169.241C156.966 168.459 157.108 167.77 157.393 167.173C157.682 166.573 158.083 166.106 158.596 165.771C159.113 165.433 159.717 165.264 160.406 165.264C160.804 165.264 161.196 165.33 161.584 165.463C161.972 165.596 162.325 165.811 162.643 166.109C162.961 166.404 163.215 166.795 163.404 167.283C163.593 167.77 163.687 168.37 163.687 169.082V169.58H157.801V168.565H162.494C162.494 168.134 162.408 167.75 162.236 167.412C162.067 167.074 161.825 166.807 161.51 166.612C161.198 166.416 160.83 166.318 160.406 166.318C159.939 166.318 159.534 166.434 159.193 166.666C158.855 166.895 158.595 167.193 158.412 167.561C158.23 167.929 158.139 168.323 158.139 168.744V169.42C158.139 169.997 158.238 170.486 158.437 170.887C158.639 171.285 158.919 171.588 159.277 171.797C159.635 172.002 160.051 172.105 160.525 172.105C160.834 172.105 161.112 172.062 161.361 171.976C161.612 171.886 161.83 171.754 162.012 171.578C162.194 171.399 162.335 171.177 162.434 170.912L163.568 171.23C163.449 171.615 163.248 171.953 162.966 172.244C162.685 172.533 162.337 172.758 161.922 172.92C161.508 173.08 161.042 173.159 160.525 173.159Z" fill="white"/><path d="M261.442 163.442C261.686 163.198 261.686 162.802 261.442 162.558C261.198 162.314 260.802 162.314 260.558 162.558L256 167.116L251.442 162.558C251.198 162.314 250.802 162.314 250.558 162.558C250.314 162.802 250.314 163.198 250.558 163.442L255.116 168L250.558 172.558C250.314 172.802 250.314 173.198 250.558 173.442C250.802 173.686 251.198 173.686 251.442 173.442L256 168.884L260.558 173.442C260.802 173.686 261.198 173.686 261.442 173.442C261.686 173.198 261.686 172.802 261.442 172.558L256.884 168L261.442 163.442Z" fill="white"/><rect y="148" width="4" height="40" rx="2" fill="#189B55"/><rect y="238" width="320" height="48" rx="6" fill="#2F2E32"/><path fill-rule="evenodd" clip-rule="evenodd" d="M31.0293 266.09C29.5987 267.283 27.7581 268 25.75 268C21.1937 268 17.5 264.306 17.5 259.75C17.5 255.194 21.1937 251.5 25.75 251.5C30.3063 251.5 34 255.194 34 259.75C34 261.758 33.2825 263.599 32.09 265.029L38.2803 271.22C38.5732 271.513 38.5732 271.987 38.2803 272.28C37.9874 272.573 37.5126 272.573 37.2197 272.28L31.0293 266.09ZM32.5 259.75C32.5 263.478 29.4779 266.5 25.75 266.5C22.0221 266.5 19 263.478 19 259.75C19 256.022 22.0221 253 25.75 253C29.4779 253 32.5 256.022 32.5 259.75Z" fill="white"/><path d="M55.7727 259.273C55.7045 258.697 55.428 258.25 54.9432 257.932C54.4583 257.614 53.8636 257.455 53.1591 257.455C52.6439 257.455 52.1932 257.538 51.8068 257.705C51.4242 257.871 51.125 258.1 50.9091 258.392C50.697 258.684 50.5909 259.015 50.5909 259.386C50.5909 259.697 50.6648 259.964 50.8125 260.188C50.964 260.407 51.1572 260.591 51.392 260.739C51.6269 260.883 51.8731 261.002 52.1307 261.097C52.3883 261.187 52.625 261.261 52.8409 261.318L54.0227 261.636C54.3258 261.716 54.6629 261.826 55.0341 261.966C55.4091 262.106 55.767 262.297 56.108 262.54C56.4527 262.778 56.7367 263.085 56.9602 263.46C57.1837 263.835 57.2955 264.295 57.2955 264.841C57.2955 265.47 57.1307 266.038 56.8011 266.545C56.4754 267.053 55.9981 267.456 55.3693 267.756C54.7443 268.055 53.9848 268.205 53.0909 268.205C52.2576 268.205 51.536 268.07 50.9261 267.801C50.3201 267.532 49.8428 267.157 49.4943 266.676C49.1496 266.195 48.9545 265.636 48.9091 265H50.3636C50.4015 265.439 50.5492 265.803 50.8068 266.091C51.0682 266.375 51.3977 266.587 51.7955 266.727C52.197 266.864 52.6288 266.932 53.0909 266.932C53.6288 266.932 54.1117 266.845 54.5398 266.67C54.9678 266.492 55.3068 266.246 55.5568 265.932C55.8068 265.614 55.9318 265.242 55.9318 264.818C55.9318 264.432 55.8239 264.117 55.608 263.875C55.392 263.633 55.108 263.436 54.7557 263.284C54.4034 263.133 54.0227 263 53.6136 262.886L52.1818 262.477C51.2727 262.216 50.553 261.843 50.0227 261.358C49.4924 260.873 49.2273 260.239 49.2273 259.455C49.2273 258.803 49.4034 258.235 49.7557 257.75C50.1117 257.261 50.589 256.883 51.1875 256.614C51.7898 256.341 52.4621 256.205 53.2045 256.205C53.9545 256.205 54.6212 256.339 55.2045 256.608C55.7879 256.873 56.25 257.237 56.5909 257.699C56.9356 258.161 57.1174 258.686 57.1364 259.273H55.7727ZM62.9135 268.182C62.0726 268.182 61.3472 267.996 60.7374 267.625C60.1313 267.25 59.6635 266.727 59.3339 266.057C59.0082 265.383 58.8453 264.598 58.8453 263.705C58.8453 262.811 59.0082 262.023 59.3339 261.341C59.6635 260.655 60.1218 260.121 60.7089 259.739C61.2999 259.352 61.9892 259.159 62.7771 259.159C63.2317 259.159 63.6805 259.235 64.1237 259.386C64.5669 259.538 64.9703 259.784 65.3339 260.125C65.6976 260.462 65.9874 260.909 66.2033 261.466C66.4192 262.023 66.5271 262.708 66.5271 263.523V264.091H59.7999V262.932H65.1635C65.1635 262.439 65.065 262 64.868 261.614C64.6749 261.227 64.3983 260.922 64.0385 260.699C63.6824 260.475 63.262 260.364 62.7771 260.364C62.243 260.364 61.7809 260.496 61.3908 260.761C61.0044 261.023 60.707 261.364 60.4987 261.784C60.2904 262.205 60.1862 262.655 60.1862 263.136V263.909C60.1862 264.568 60.2999 265.127 60.5271 265.585C60.7582 266.04 61.0783 266.386 61.4874 266.625C61.8964 266.86 62.3718 266.977 62.9135 266.977C63.2658 266.977 63.5839 266.928 63.868 266.83C64.1559 266.727 64.404 266.576 64.6124 266.375C64.8207 266.17 64.9817 265.917 65.0953 265.614L66.3908 265.977C66.2544 266.417 66.0252 266.803 65.7033 267.136C65.3813 267.466 64.9836 267.723 64.5101 267.909C64.0366 268.091 63.5044 268.182 62.9135 268.182ZM70.9591 268.205C70.4061 268.205 69.9042 268.1 69.4534 267.892C69.0026 267.68 68.6447 267.375 68.3795 266.977C68.1144 266.576 67.9818 266.091 67.9818 265.523C67.9818 265.023 68.0803 264.617 68.2773 264.307C68.4742 263.992 68.7375 263.746 69.067 263.568C69.3966 263.39 69.7602 263.258 70.1579 263.17C70.5595 263.08 70.9629 263.008 71.3682 262.955C71.8985 262.886 72.3284 262.835 72.6579 262.801C72.9913 262.763 73.2337 262.701 73.3852 262.614C73.5405 262.527 73.6182 262.375 73.6182 262.159V262.114C73.6182 261.553 73.4648 261.117 73.1579 260.807C72.8549 260.496 72.3947 260.341 71.7773 260.341C71.1371 260.341 70.6352 260.481 70.2716 260.761C69.9079 261.042 69.6523 261.341 69.5045 261.659L68.2318 261.205C68.4591 260.674 68.7621 260.261 69.1409 259.966C69.5235 259.667 69.9401 259.458 70.3909 259.341C70.8454 259.22 71.2924 259.159 71.7318 259.159C72.0121 259.159 72.3341 259.193 72.6977 259.261C73.0651 259.326 73.4193 259.46 73.7602 259.665C74.1049 259.869 74.3909 260.178 74.6182 260.591C74.8454 261.004 74.9591 261.557 74.9591 262.25V268H73.6182V266.818H73.55C73.4591 267.008 73.3076 267.21 73.0954 267.426C72.8833 267.642 72.6011 267.826 72.2489 267.977C71.8966 268.129 71.4667 268.205 70.9591 268.205ZM71.1636 267C71.6939 267 72.1409 266.896 72.5045 266.688C72.872 266.479 73.1485 266.21 73.3341 265.881C73.5235 265.551 73.6182 265.205 73.6182 264.841V263.614C73.5614 263.682 73.4364 263.744 73.2432 263.801C73.0538 263.854 72.8341 263.902 72.5841 263.943C72.3379 263.981 72.0973 264.015 71.8625 264.045C71.6314 264.072 71.4439 264.095 71.3 264.114C70.9515 264.159 70.6257 264.233 70.3227 264.335C70.0235 264.434 69.781 264.583 69.5954 264.784C69.4136 264.981 69.3227 265.25 69.3227 265.591C69.3227 266.057 69.4951 266.409 69.8398 266.648C70.1882 266.883 70.6295 267 71.1636 267ZM77.2305 268V259.273H78.526V260.591H78.6169C78.776 260.159 79.0639 259.809 79.4805 259.54C79.8972 259.271 80.3669 259.136 80.8896 259.136C80.9881 259.136 81.1112 259.138 81.2589 259.142C81.4067 259.146 81.5184 259.152 81.5942 259.159V260.523C81.5487 260.511 81.4445 260.494 81.2817 260.472C81.1226 260.445 80.954 260.432 80.776 260.432C80.3517 260.432 79.9729 260.521 79.6396 260.699C79.3101 260.873 79.0487 261.116 78.8555 261.426C78.6661 261.733 78.5714 262.083 78.5714 262.477V268H77.2305ZM86.2875 268.182C85.4693 268.182 84.7648 267.989 84.1738 267.602C83.5829 267.216 83.1284 266.684 82.8102 266.006C82.492 265.328 82.3329 264.553 82.3329 263.682C82.3329 262.795 82.4958 262.013 82.8216 261.335C83.1511 260.653 83.6094 260.121 84.1966 259.739C84.7875 259.352 85.4769 259.159 86.2648 259.159C86.8784 259.159 87.4314 259.273 87.9238 259.5C88.4163 259.727 88.8197 260.045 89.1341 260.455C89.4485 260.864 89.6435 261.341 89.7193 261.886H88.3784C88.2761 261.489 88.0488 261.136 87.6966 260.83C87.3481 260.519 86.8784 260.364 86.2875 260.364C85.7648 260.364 85.3064 260.5 84.9125 260.773C84.5223 261.042 84.2174 261.422 83.9977 261.915C83.7818 262.403 83.6738 262.977 83.6738 263.636C83.6738 264.311 83.7799 264.898 83.992 265.398C84.2079 265.898 84.511 266.286 84.9011 266.562C85.2951 266.839 85.7572 266.977 86.2875 266.977C86.636 266.977 86.9523 266.917 87.2363 266.795C87.5204 266.674 87.761 266.5 87.9579 266.273C88.1549 266.045 88.2951 265.773 88.3784 265.455H89.7193C89.6435 265.97 89.456 266.434 89.1568 266.847C88.8613 267.256 88.4693 267.581 87.9807 267.824C87.4958 268.062 86.9314 268.182 86.2875 268.182ZM92.8444 262.75V268H91.5035V256.364H92.8444V260.636H92.9581C93.1626 260.186 93.4694 259.828 93.8785 259.562C94.2914 259.294 94.8406 259.159 95.5262 259.159C96.1209 259.159 96.6418 259.278 97.0887 259.517C97.5357 259.752 97.8823 260.114 98.1285 260.602C98.3785 261.087 98.5035 261.705 98.5035 262.455V268H97.1626V262.545C97.1626 261.852 96.9827 261.316 96.6228 260.938C96.2668 260.555 95.7725 260.364 95.1399 260.364C94.7005 260.364 94.3066 260.456 93.9581 260.642C93.6134 260.828 93.3406 261.098 93.1399 261.455C92.9429 261.811 92.8444 262.242 92.8444 262.75ZM105.105 271.273V259.273H106.4V260.659H106.559C106.658 260.508 106.794 260.314 106.968 260.08C107.146 259.841 107.4 259.629 107.73 259.443C108.063 259.254 108.514 259.159 109.082 259.159C109.817 259.159 110.464 259.343 111.025 259.71C111.586 260.078 112.023 260.598 112.338 261.273C112.652 261.947 112.809 262.742 112.809 263.659C112.809 264.583 112.652 265.384 112.338 266.062C112.023 266.737 111.588 267.259 111.031 267.631C110.474 267.998 109.832 268.182 109.105 268.182C108.544 268.182 108.095 268.089 107.758 267.903C107.421 267.714 107.161 267.5 106.98 267.261C106.798 267.019 106.658 266.818 106.559 266.659H106.446V271.273H105.105ZM106.423 263.636C106.423 264.295 106.519 264.877 106.713 265.381C106.906 265.881 107.188 266.273 107.559 266.557C107.93 266.837 108.385 266.977 108.923 266.977C109.483 266.977 109.951 266.83 110.326 266.534C110.705 266.235 110.989 265.833 111.179 265.33C111.372 264.822 111.468 264.258 111.468 263.636C111.468 263.023 111.374 262.47 111.184 261.977C110.999 261.481 110.716 261.089 110.338 260.801C109.963 260.509 109.491 260.364 108.923 260.364C108.377 260.364 107.919 260.502 107.548 260.778C107.177 261.051 106.896 261.434 106.707 261.926C106.518 262.415 106.423 262.985 106.423 263.636ZM116.02 256.364V268H114.679V256.364H116.02ZM120.868 268.205C120.315 268.205 119.813 268.1 119.362 267.892C118.911 267.68 118.553 267.375 118.288 266.977C118.023 266.576 117.89 266.091 117.89 265.523C117.89 265.023 117.989 264.617 118.186 264.307C118.383 263.992 118.646 263.746 118.976 263.568C119.305 263.39 119.669 263.258 120.067 263.17C120.468 263.08 120.871 263.008 121.277 262.955C121.807 262.886 122.237 262.835 122.567 262.801C122.9 262.763 123.142 262.701 123.294 262.614C123.449 262.527 123.527 262.375 123.527 262.159V262.114C123.527 261.553 123.373 261.117 123.067 260.807C122.764 260.496 122.303 260.341 121.686 260.341C121.046 260.341 120.544 260.481 120.18 260.761C119.817 261.042 119.561 261.341 119.413 261.659L118.14 261.205C118.368 260.674 118.671 260.261 119.05 259.966C119.432 259.667 119.849 259.458 120.3 259.341C120.754 259.22 121.201 259.159 121.64 259.159C121.921 259.159 122.243 259.193 122.606 259.261C122.974 259.326 123.328 259.46 123.669 259.665C124.014 259.869 124.3 260.178 124.527 260.591C124.754 261.004 124.868 261.557 124.868 262.25V268H123.527V266.818H123.459C123.368 267.008 123.216 267.21 123.004 267.426C122.792 267.642 122.51 267.826 122.157 267.977C121.805 268.129 121.375 268.205 120.868 268.205ZM121.072 267C121.603 267 122.05 266.896 122.413 266.688C122.781 266.479 123.057 266.21 123.243 265.881C123.432 265.551 123.527 265.205 123.527 264.841V263.614C123.47 263.682 123.345 263.744 123.152 263.801C122.962 263.854 122.743 263.902 122.493 263.943C122.246 263.981 122.006 264.015 121.771 264.045C121.54 264.072 121.353 264.095 121.209 264.114C120.86 264.159 120.534 264.233 120.231 264.335C119.932 264.434 119.69 264.583 119.504 264.784C119.322 264.981 119.231 265.25 119.231 265.591C119.231 266.057 119.404 266.409 119.748 266.648C120.097 266.883 120.538 267 121.072 267ZM130.685 268.182C129.866 268.182 129.162 267.989 128.571 267.602C127.98 267.216 127.526 266.684 127.207 266.006C126.889 265.328 126.73 264.553 126.73 263.682C126.73 262.795 126.893 262.013 127.219 261.335C127.548 260.653 128.007 260.121 128.594 259.739C129.185 259.352 129.874 259.159 130.662 259.159C131.276 259.159 131.829 259.273 132.321 259.5C132.813 259.727 133.217 260.045 133.531 260.455C133.846 260.864 134.041 261.341 134.116 261.886H132.776C132.673 261.489 132.446 261.136 132.094 260.83C131.745 260.519 131.276 260.364 130.685 260.364C130.162 260.364 129.704 260.5 129.31 260.773C128.919 261.042 128.615 261.422 128.395 261.915C128.179 262.403 128.071 262.977 128.071 263.636C128.071 264.311 128.177 264.898 128.389 265.398C128.605 265.898 128.908 266.286 129.298 266.562C129.692 266.839 130.154 266.977 130.685 266.977C131.033 266.977 131.349 266.917 131.633 266.795C131.918 266.674 132.158 266.5 132.355 266.273C132.552 266.045 132.692 265.773 132.776 265.455H134.116C134.041 265.97 133.853 266.434 133.554 266.847C133.258 267.256 132.866 267.581 132.378 267.824C131.893 268.062 131.329 268.182 130.685 268.182ZM139.56 268.182C138.719 268.182 137.993 267.996 137.384 267.625C136.778 267.25 136.31 266.727 135.98 266.057C135.654 265.383 135.492 264.598 135.492 263.705C135.492 262.811 135.654 262.023 135.98 261.341C136.31 260.655 136.768 260.121 137.355 259.739C137.946 259.352 138.635 259.159 139.423 259.159C139.878 259.159 140.327 259.235 140.77 259.386C141.213 259.538 141.617 259.784 141.98 260.125C142.344 260.462 142.634 260.909 142.85 261.466C143.065 262.023 143.173 262.708 143.173 263.523V264.091H136.446V262.932H141.81C141.81 262.439 141.711 262 141.514 261.614C141.321 261.227 141.045 260.922 140.685 260.699C140.329 260.475 139.908 260.364 139.423 260.364C138.889 260.364 138.427 260.496 138.037 260.761C137.651 261.023 137.353 261.364 137.145 261.784C136.937 262.205 136.832 262.655 136.832 263.136V263.909C136.832 264.568 136.946 265.127 137.173 265.585C137.404 266.04 137.725 266.386 138.134 266.625C138.543 266.86 139.018 266.977 139.56 266.977C139.912 266.977 140.23 266.928 140.514 266.83C140.802 266.727 141.05 266.576 141.259 266.375C141.467 266.17 141.628 265.917 141.742 265.614L143.037 265.977C142.901 266.417 142.671 266.803 142.35 267.136C142.028 267.466 141.63 267.723 141.156 267.909C140.683 268.091 140.151 268.182 139.56 268.182ZM146.378 262.75V268H145.037V256.364H146.378V260.636H146.492C146.696 260.186 147.003 259.828 147.412 259.562C147.825 259.294 148.374 259.159 149.06 259.159C149.655 259.159 150.175 259.278 150.622 259.517C151.069 259.752 151.416 260.114 151.662 260.602C151.912 261.087 152.037 261.705 152.037 262.455V268H150.696V262.545C150.696 261.852 150.516 261.316 150.156 260.938C149.8 260.555 149.306 260.364 148.674 260.364C148.234 260.364 147.84 260.456 147.492 260.642C147.147 260.828 146.874 261.098 146.674 261.455C146.477 261.811 146.378 262.242 146.378 262.75ZM157.86 268.182C157.072 268.182 156.381 267.994 155.786 267.619C155.195 267.244 154.733 266.72 154.399 266.045C154.07 265.371 153.905 264.583 153.905 263.682C153.905 262.773 154.07 261.979 154.399 261.301C154.733 260.623 155.195 260.097 155.786 259.722C156.381 259.347 157.072 259.159 157.86 259.159C158.648 259.159 159.337 259.347 159.928 259.722C160.523 260.097 160.985 260.623 161.314 261.301C161.648 261.979 161.814 262.773 161.814 263.682C161.814 264.583 161.648 265.371 161.314 266.045C160.985 266.72 160.523 267.244 159.928 267.619C159.337 267.994 158.648 268.182 157.86 268.182ZM157.86 266.977C158.458 266.977 158.951 266.824 159.337 266.517C159.723 266.21 160.009 265.807 160.195 265.307C160.381 264.807 160.473 264.265 160.473 263.682C160.473 263.098 160.381 262.555 160.195 262.051C160.009 261.547 159.723 261.14 159.337 260.83C158.951 260.519 158.458 260.364 157.86 260.364C157.261 260.364 156.769 260.519 156.382 260.83C155.996 261.14 155.71 261.547 155.524 262.051C155.339 262.555 155.246 263.098 155.246 263.682C155.246 264.265 155.339 264.807 155.524 265.307C155.71 265.807 155.996 266.21 156.382 266.517C156.769 266.824 157.261 266.977 157.86 266.977ZM165.026 256.364V268H163.685V256.364H165.026ZM170.601 268.182C169.874 268.182 169.232 267.998 168.675 267.631C168.119 267.259 167.683 266.737 167.369 266.062C167.054 265.384 166.897 264.583 166.897 263.659C166.897 262.742 167.054 261.947 167.369 261.273C167.683 260.598 168.12 260.078 168.681 259.71C169.242 259.343 169.889 259.159 170.624 259.159C171.192 259.159 171.641 259.254 171.971 259.443C172.304 259.629 172.558 259.841 172.732 260.08C172.91 260.314 173.048 260.508 173.147 260.659H173.261V256.364H174.601V268H173.306V266.659H173.147C173.048 266.818 172.908 267.019 172.726 267.261C172.545 267.5 172.285 267.714 171.948 267.903C171.611 268.089 171.162 268.182 170.601 268.182ZM170.783 266.977C171.321 266.977 171.776 266.837 172.147 266.557C172.518 266.273 172.8 265.881 172.994 265.381C173.187 264.877 173.283 264.295 173.283 263.636C173.283 262.985 173.189 262.415 172.999 261.926C172.81 261.434 172.53 261.051 172.158 260.778C171.787 260.502 171.329 260.364 170.783 260.364C170.215 260.364 169.742 260.509 169.363 260.801C168.988 261.089 168.706 261.481 168.516 261.977C168.331 262.47 168.238 263.023 168.238 263.636C168.238 264.258 168.333 264.822 168.522 265.33C168.715 265.833 168.999 266.235 169.374 266.534C169.753 266.83 170.223 266.977 170.783 266.977ZM180.727 268.182C179.886 268.182 179.16 267.996 178.55 267.625C177.944 267.25 177.477 266.727 177.147 266.057C176.821 265.383 176.658 264.598 176.658 263.705C176.658 262.811 176.821 262.023 177.147 261.341C177.477 260.655 177.935 260.121 178.522 259.739C179.113 259.352 179.802 259.159 180.59 259.159C181.045 259.159 181.494 259.235 181.937 259.386C182.38 259.538 182.783 259.784 183.147 260.125C183.511 260.462 183.8 260.909 184.016 261.466C184.232 262.023 184.34 262.708 184.34 263.523V264.091H177.613V262.932H182.977C182.977 262.439 182.878 262 182.681 261.614C182.488 261.227 182.211 260.922 181.852 260.699C181.496 260.475 181.075 260.364 180.59 260.364C180.056 260.364 179.594 260.496 179.204 260.761C178.818 261.023 178.52 261.364 178.312 261.784C178.104 262.205 177.999 262.655 177.999 263.136V263.909C177.999 264.568 178.113 265.127 178.34 265.585C178.571 266.04 178.891 266.386 179.3 266.625C179.71 266.86 180.185 266.977 180.727 266.977C181.079 266.977 181.397 266.928 181.681 266.83C181.969 266.727 182.217 266.576 182.425 266.375C182.634 266.17 182.795 265.917 182.908 265.614L184.204 265.977C184.068 266.417 183.838 266.803 183.516 267.136C183.194 267.466 182.797 267.723 182.323 267.909C181.85 268.091 181.318 268.182 180.727 268.182ZM186.204 268V259.273H187.499V260.591H187.59C187.749 260.159 188.037 259.809 188.454 259.54C188.871 259.271 189.34 259.136 189.863 259.136C189.962 259.136 190.085 259.138 190.232 259.142C190.38 259.146 190.492 259.152 190.568 259.159V260.523C190.522 260.511 190.418 260.494 190.255 260.472C190.096 260.445 189.928 260.432 189.749 260.432C189.325 260.432 188.946 260.521 188.613 260.699C188.284 260.873 188.022 261.116 187.829 261.426C187.64 261.733 187.545 262.083 187.545 262.477V268H186.204Z" fill="#C2C2C2"/><rect y="347" width="184" height="8" rx="4" fill="#666666"/><rect y="347" width="107" height="8" rx="4" fill="#246FE5"/></svg>