<svg width="224" height="218" viewBox="0 0 224 218" fill="none" xmlns="http://www.w3.org/2000/svg"><path d="M1.23295 15V4.81818H2.46591V13.9062H7.19886V15H1.23295ZM11.112 15.179C10.6281 15.179 10.189 15.0878 9.79455 14.9055C9.40014 14.7199 9.08693 14.4531 8.85492 14.1051C8.62291 13.7538 8.50691 13.3295 8.50691 12.8324C8.50691 12.3949 8.59308 12.0402 8.76543 11.7685C8.93778 11.4934 9.16813 11.2779 9.45648 11.1222C9.74484 10.9664 10.063 10.8504 10.411 10.7741C10.7624 10.6946 11.1153 10.6316 11.47 10.5852C11.934 10.5256 12.3102 10.4808 12.5985 10.451C12.8902 10.4179 13.1023 10.3632 13.2349 10.2869C13.3708 10.2107 13.4387 10.0781 13.4387 9.8892V9.84943C13.4387 9.3589 13.3045 8.97775 13.036 8.70597C12.7709 8.43419 12.3682 8.2983 11.8279 8.2983C11.2678 8.2983 10.8286 8.42093 10.5105 8.66619C10.1923 8.91146 9.96856 9.1733 9.8393 9.4517L8.72566 9.05398C8.92452 8.58996 9.18967 8.22869 9.52111 7.97017C9.85587 7.70833 10.2205 7.52604 10.6149 7.4233C11.0126 7.31723 11.4037 7.2642 11.7882 7.2642C12.0334 7.2642 12.3151 7.29403 12.6333 7.35369C12.9548 7.41004 13.2647 7.5277 13.563 7.70668C13.8646 7.88565 14.1149 8.15578 14.3137 8.51705C14.5126 8.87831 14.612 9.36222 14.612 9.96875V15H13.4387V13.9659H13.3791C13.2995 14.1316 13.1669 14.3089 12.9813 14.4979C12.7957 14.6868 12.5488 14.8475 12.2406 14.9801C11.9323 15.1127 11.5562 15.179 11.112 15.179ZM11.291 14.125C11.755 14.125 12.1461 14.0339 12.4643 13.8516C12.7858 13.6693 13.0277 13.4339 13.1901 13.1456C13.3559 12.8572 13.4387 12.554 13.4387 12.2358V11.1619C13.389 11.2216 13.2796 11.2763 13.1106 11.326C12.9449 11.3724 12.7526 11.4138 12.5339 11.4503C12.3185 11.4834 12.108 11.5133 11.9025 11.5398C11.7003 11.563 11.5363 11.5829 11.4103 11.5994C11.1054 11.6392 10.8204 11.7038 10.5552 11.7933C10.2934 11.8795 10.0812 12.0104 9.91884 12.1861C9.75975 12.3584 9.6802 12.5937 9.6802 12.892C9.6802 13.2997 9.83101 13.608 10.1326 13.8168C10.4375 14.0223 10.8237 14.125 11.291 14.125ZM16.8286 15V4.81818H18.0019V8.5767H18.1014C18.1875 8.44413 18.3068 8.27509 18.4593 8.0696C18.6151 7.8608 18.8371 7.67519 19.1255 7.51278C19.4172 7.34706 19.8116 7.2642 20.3087 7.2642C20.9517 7.2642 21.5185 7.42495 22.009 7.74645C22.4996 8.06794 22.8824 8.52367 23.1575 9.11364C23.4326 9.7036 23.5701 10.3996 23.5701 11.2017C23.5701 12.0104 23.4326 12.7114 23.1575 13.3047C22.8824 13.8946 22.5012 14.352 22.014 14.6768C21.5268 14.9983 20.965 15.1591 20.3286 15.1591C19.8381 15.1591 19.4453 15.0779 19.1504 14.9155C18.8554 14.7498 18.6283 14.5625 18.4693 14.3537C18.3102 14.1416 18.1875 13.9659 18.1014 13.8267H17.9621V15H16.8286ZM17.982 11.1818C17.982 11.7585 18.0666 12.2673 18.2356 12.7081C18.4046 13.1456 18.6515 13.4886 18.9764 13.7372C19.3012 13.9825 19.6989 14.1051 20.1695 14.1051C20.6601 14.1051 21.0694 13.9759 21.3975 13.7173C21.729 13.4555 21.9775 13.1042 22.1433 12.6634C22.3123 12.2192 22.3968 11.7254 22.3968 11.1818C22.3968 10.6449 22.3139 10.161 22.1482 9.73011C21.9858 9.29593 21.7389 8.95289 21.4075 8.70099C21.0793 8.44579 20.6667 8.31818 20.1695 8.31818C19.6923 8.31818 19.2912 8.43916 18.9664 8.68111C18.6416 8.91974 18.3963 9.2545 18.2306 9.68537C18.0649 10.1129 17.982 10.6117 17.982 11.1818ZM28.4826 15.1591C27.7468 15.1591 27.112 14.9967 26.5784 14.6719C26.0481 14.3438 25.6388 13.8864 25.3504 13.2997C25.0654 12.7098 24.9229 12.0237 24.9229 11.2415C24.9229 10.4593 25.0654 9.76989 25.3504 9.1733C25.6388 8.57339 26.0398 8.10606 26.5536 7.77131C27.0706 7.43324 27.6738 7.2642 28.3632 7.2642C28.761 7.2642 29.1537 7.33049 29.5415 7.46307C29.9293 7.59564 30.2823 7.81108 30.6004 8.10938C30.9186 8.40436 31.1722 8.79545 31.3611 9.28267C31.55 9.76989 31.6445 10.3698 31.6445 11.0824V11.5795H25.7581V10.5653H30.4513C30.4513 10.1345 30.3651 9.75 30.1928 9.41193C30.0237 9.07386 29.7818 8.80705 29.4669 8.61151C29.1554 8.41596 28.7875 8.31818 28.3632 8.31818C27.8959 8.31818 27.4915 8.43419 27.1502 8.66619C26.8121 8.89489 26.5519 9.19318 26.3696 9.56108C26.1873 9.92898 26.0962 10.3234 26.0962 10.7443V11.4205C26.0962 11.9972 26.1956 12.486 26.3945 12.8871C26.5967 13.2848 26.8767 13.5881 27.2347 13.7969C27.5926 14.0024 28.0086 14.1051 28.4826 14.1051C28.7908 14.1051 29.0692 14.062 29.3178 13.9759C29.5697 13.8864 29.7868 13.7538 29.9691 13.5781C30.1513 13.3991 30.2922 13.1771 30.3916 12.9119L31.5252 13.2301C31.4058 13.6146 31.2053 13.9527 30.9236 14.2443C30.6419 14.5327 30.2939 14.758 29.8796 14.9205C29.4653 15.0795 28.9996 15.1591 28.4826 15.1591ZM34.5186 4.81818V15H33.3453V4.81818H34.5186Z" fill="#26252A"/><path d="M39.1967 10.5455L39.3111 8.53196L37.6207 9.64062L37.0142 8.58665L38.8189 7.68182L37.0142 6.77699L37.6207 5.72301L39.3111 6.83168L39.1967 4.81818H40.4048L40.2955 6.83168L41.9858 5.72301L42.5923 6.77699L40.7827 7.68182L42.5923 8.58665L41.9858 9.64062L40.2955 8.53196L40.4048 10.5455H39.1967Z" fill="#CB2233"/><path d="M58.5 13C58.5 13.2761 58.2761 13.5 58 13.5C57.7239 13.5 57.5 13.2761 57.5 13C57.5 12.7239 57.7239 12.5 58 12.5C58.2761 12.5 58.5 12.7239 58.5 13Z" fill="#26252A"/><path d="M58 7C57.4477 7 57 7.44772 57 8C57 8.27614 56.7761 8.5 56.5 8.5C56.2239 8.5 56 8.27614 56 8C56 6.89543 56.8954 6 58 6H58.3249C59.3881 6 60.25 6.86188 60.25 7.92507V8.08999C60.25 8.85187 59.7449 9.52145 59.0124 9.73076C58.7091 9.81741 58.5 10.0946 58.5 10.41V10.5C58.5 10.7761 58.2761 11 58 11C57.7239 11 57.5 10.7761 57.5 10.5V10.41C57.5 9.64812 58.0051 8.97855 58.7376 8.76924C59.0409 8.68259 59.25 8.40539 59.25 8.08999V7.92507C59.25 7.41417 58.8358 7 58.3249 7H58Z" fill="#26252A"/><path fill-rule="evenodd" clip-rule="evenodd" d="M58 17C61.866 17 65 13.866 65 10C65 6.13401 61.866 3 58 3C54.134 3 51 6.13401 51 10C51 13.866 54.134 17 58 17ZM58 16C61.3137 16 64 13.3137 64 10C64 6.68629 61.3137 4 58 4C54.6863 4 52 6.68629 52 10C52 13.3137 54.6863 16 58 16Z" fill="#26252A"/><rect y="24" width="224" height="48" rx="6" fill="#F4F3EE"/><path d="M17.4091 54V42.3636H21.3409C22.2538 42.3636 23 42.5284 23.5795 42.858C24.1629 43.1837 24.5947 43.625 24.875 44.1818C25.1553 44.7386 25.2955 45.3598 25.2955 46.0455C25.2955 46.7311 25.1553 47.3542 24.875 47.9148C24.5985 48.4754 24.1705 48.9223 23.5909 49.2557C23.0114 49.5852 22.2689 49.75 21.3636 49.75H18.5455V48.5H21.3182C21.9432 48.5 22.4451 48.392 22.8239 48.1761C23.2027 47.9602 23.4773 47.6686 23.6477 47.3011C23.822 46.9299 23.9091 46.5114 23.9091 46.0455C23.9091 45.5795 23.822 45.1629 23.6477 44.7955C23.4773 44.428 23.2008 44.1402 22.8182 43.9318C22.4356 43.7197 21.928 43.6136 21.2955 43.6136H18.8182V54H17.4091ZM28.5484 42.3636V54H27.2075V42.3636H28.5484ZM33.3966 54.2045C32.8435 54.2045 32.3417 54.1004 31.8909 53.892C31.4401 53.6799 31.0822 53.375 30.817 52.9773C30.5519 52.5758 30.4193 52.0909 30.4193 51.5227C30.4193 51.0227 30.5178 50.6174 30.7148 50.3068C30.9117 49.9924 31.175 49.7462 31.5045 49.5682C31.8341 49.3902 32.1977 49.2576 32.5954 49.1705C32.997 49.0795 33.4004 49.0076 33.8057 48.9545C34.336 48.8864 34.7659 48.8352 35.0954 48.8011C35.4288 48.7633 35.6712 48.7008 35.8227 48.6136C35.978 48.5265 36.0557 48.375 36.0557 48.1591V48.1136C36.0557 47.553 35.9023 47.1174 35.5954 46.8068C35.2924 46.4962 34.8322 46.3409 34.2148 46.3409C33.5746 46.3409 33.0727 46.4811 32.7091 46.7614C32.3454 47.0417 32.0898 47.3409 31.942 47.6591L30.6693 47.2045C30.8966 46.6742 31.1996 46.2614 31.5784 45.9659C31.961 45.6667 32.3776 45.4583 32.8284 45.3409C33.2829 45.2197 33.7299 45.1591 34.1693 45.1591C34.4496 45.1591 34.7716 45.1932 35.1352 45.2614C35.5026 45.3258 35.8568 45.4602 36.1977 45.6648C36.5424 45.8693 36.8284 46.178 37.0557 46.5909C37.2829 47.0038 37.3966 47.5568 37.3966 48.25V54H36.0557V52.8182H35.9875C35.8966 53.0076 35.7451 53.2102 35.5329 53.4261C35.3208 53.642 35.0386 53.8258 34.6864 53.9773C34.3341 54.1288 33.9042 54.2045 33.3966 54.2045ZM33.6011 53C34.1314 53 34.5784 52.8958 34.942 52.6875C35.3095 52.4792 35.586 52.2102 35.7716 51.8807C35.961 51.5511 36.0557 51.2045 36.0557 50.8409V49.6136C35.9989 49.6818 35.8739 49.7443 35.6807 49.8011C35.4913 49.8542 35.2716 49.9015 35.0216 49.9432C34.7754 49.9811 34.5348 50.0152 34.3 50.0455C34.0689 50.072 33.8814 50.0947 33.7375 50.1136C33.389 50.1591 33.0632 50.233 32.7602 50.3352C32.461 50.4337 32.2185 50.5833 32.0329 50.7841C31.8511 50.9811 31.7602 51.25 31.7602 51.5909C31.7602 52.0568 31.9326 52.4091 32.2773 52.6477C32.6257 52.8826 33.067 53 33.6011 53ZM43.2135 54.1818C42.3953 54.1818 41.6908 53.9886 41.0998 53.6023C40.5089 53.2159 40.0544 52.6837 39.7362 52.0057C39.418 51.3277 39.2589 50.553 39.2589 49.6818C39.2589 48.7955 39.4218 48.0133 39.7476 47.3352C40.0771 46.6534 40.5354 46.1212 41.1226 45.7386C41.7135 45.3523 42.4029 45.1591 43.1908 45.1591C43.8044 45.1591 44.3574 45.2727 44.8498 45.5C45.3423 45.7273 45.7457 46.0455 46.0601 46.4545C46.3745 46.8636 46.5695 47.3409 46.6453 47.8864H45.3044C45.2021 47.4886 44.9748 47.1364 44.6226 46.8295C44.2741 46.5189 43.8044 46.3636 43.2135 46.3636C42.6908 46.3636 42.2324 46.5 41.8385 46.7727C41.4483 47.0417 41.1434 47.4223 40.9237 47.9148C40.7078 48.4034 40.5998 48.9773 40.5998 49.6364C40.5998 50.3106 40.7059 50.8977 40.918 51.3977C41.1339 51.8977 41.437 52.286 41.8271 52.5625C42.2211 52.839 42.6832 52.9773 43.2135 52.9773C43.562 52.9773 43.8783 52.9167 44.1623 52.7955C44.4464 52.6742 44.687 52.5 44.8839 52.2727C45.0809 52.0455 45.2211 51.7727 45.3044 51.4545H46.6453C46.5695 51.9697 46.382 52.4337 46.0828 52.8466C45.7873 53.2557 45.3953 53.5814 44.9067 53.8239C44.4218 54.0625 43.8574 54.1818 43.2135 54.1818ZM52.0886 54.1818C51.2477 54.1818 50.5223 53.9962 49.9125 53.625C49.3064 53.25 48.8386 52.7273 48.5091 52.0568C48.1833 51.3826 48.0204 50.5985 48.0204 49.7045C48.0204 48.8106 48.1833 48.0227 48.5091 47.3409C48.8386 46.6553 49.2969 46.1212 49.8841 45.7386C50.475 45.3523 51.1644 45.1591 51.9522 45.1591C52.4068 45.1591 52.8557 45.2348 53.2988 45.3864C53.742 45.5379 54.1454 45.7841 54.5091 46.125C54.8727 46.4621 55.1625 46.9091 55.3784 47.4659C55.5943 48.0227 55.7022 48.7083 55.7022 49.5227V50.0909H48.975V48.9318H54.3386C54.3386 48.4394 54.2401 48 54.0432 47.6136C53.85 47.2273 53.5735 46.9223 53.2136 46.6989C52.8576 46.4754 52.4371 46.3636 51.9522 46.3636C51.4182 46.3636 50.956 46.4962 50.5659 46.7614C50.1795 47.0227 49.8822 47.3636 49.6738 47.7841C49.4655 48.2045 49.3613 48.6553 49.3613 49.1364V49.9091C49.3613 50.5682 49.475 51.1269 49.7022 51.5852C49.9333 52.0398 50.2534 52.3864 50.6625 52.625C51.0716 52.8598 51.5469 52.9773 52.0886 52.9773C52.4409 52.9773 52.7591 52.928 53.0432 52.8295C53.331 52.7273 53.5791 52.5758 53.7875 52.375C53.9958 52.1705 54.1568 51.9167 54.2704 51.6136L55.5659 51.9773C55.4295 52.4167 55.2004 52.803 54.8784 53.1364C54.5564 53.4659 54.1587 53.7235 53.6852 53.9091C53.2117 54.0909 52.6795 54.1818 52.0886 54.1818ZM58.9069 48.75V54H57.566V42.3636H58.9069V46.6364H59.0206C59.2251 46.1856 59.5319 45.8277 59.941 45.5625C60.3539 45.2936 60.9031 45.1591 61.5887 45.1591C62.1834 45.1591 62.7043 45.2784 63.1512 45.517C63.5982 45.7519 63.9448 46.1136 64.191 46.6023C64.441 47.0871 64.566 47.7045 64.566 48.4545V54H63.2251V48.5455C63.2251 47.8523 63.0452 47.3163 62.6853 46.9375C62.3293 46.5549 61.835 46.3636 61.2024 46.3636C60.763 46.3636 60.3691 46.4564 60.0206 46.642C59.6759 46.8277 59.4031 47.0985 59.2024 47.4545C59.0054 47.8106 58.9069 48.2424 58.9069 48.75ZM70.3886 54.1818C69.6007 54.1818 68.9094 53.9943 68.3147 53.6193C67.7238 53.2443 67.2617 52.7197 66.9284 52.0455C66.5988 51.3712 66.4341 50.5833 66.4341 49.6818C66.4341 48.7727 66.5988 47.9792 66.9284 47.3011C67.2617 46.6231 67.7238 46.0966 68.3147 45.7216C68.9094 45.3466 69.6007 45.1591 70.3886 45.1591C71.1765 45.1591 71.8659 45.3466 72.4568 45.7216C73.0515 46.0966 73.5136 46.6231 73.8431 47.3011C74.1765 47.9792 74.3431 48.7727 74.3431 49.6818C74.3431 50.5833 74.1765 51.3712 73.8431 52.0455C73.5136 52.7197 73.0515 53.2443 72.4568 53.6193C71.8659 53.9943 71.1765 54.1818 70.3886 54.1818ZM70.3886 52.9773C70.9871 52.9773 71.4795 52.8239 71.8659 52.517C72.2522 52.2102 72.5382 51.8068 72.7238 51.3068C72.9094 50.8068 73.0022 50.2652 73.0022 49.6818C73.0022 49.0985 72.9094 48.5549 72.7238 48.0511C72.5382 47.5473 72.2522 47.1402 71.8659 46.8295C71.4795 46.5189 70.9871 46.3636 70.3886 46.3636C69.7901 46.3636 69.2977 46.5189 68.9113 46.8295C68.525 47.1402 68.239 47.5473 68.0534 48.0511C67.8678 48.5549 67.775 49.0985 67.775 49.6818C67.775 50.2652 67.8678 50.8068 68.0534 51.3068C68.239 51.8068 68.525 52.2102 68.9113 52.517C69.2977 52.8239 69.7901 52.9773 70.3886 52.9773ZM77.5549 42.3636V54H76.214V42.3636H77.5549ZM83.1304 54.1818C82.4031 54.1818 81.761 53.9981 81.2042 53.6307C80.6474 53.2595 80.2118 52.7367 79.8974 52.0625C79.583 51.3845 79.4258 50.5833 79.4258 49.6591C79.4258 48.7424 79.583 47.947 79.8974 47.2727C80.2118 46.5985 80.6493 46.0777 81.2099 45.7102C81.7705 45.3428 82.4182 45.1591 83.1531 45.1591C83.7213 45.1591 84.1701 45.2538 84.4997 45.4432C84.833 45.6288 85.0868 45.8409 85.261 46.0795C85.4391 46.3144 85.5773 46.5076 85.6758 46.6591H85.7894V42.3636H87.1304V54H85.8349V52.6591H85.6758C85.5773 52.8182 85.4372 53.0189 85.2554 53.2614C85.0735 53.5 84.8141 53.714 84.4769 53.9034C84.1398 54.089 83.691 54.1818 83.1304 54.1818ZM83.3122 52.9773C83.85 52.9773 84.3046 52.8371 84.6758 52.5568C85.047 52.2727 85.3292 51.8807 85.5224 51.3807C85.7156 50.8769 85.8122 50.2955 85.8122 49.6364C85.8122 48.9848 85.7175 48.4148 85.5281 47.9261C85.3387 47.4337 85.0584 47.0511 84.6872 46.7784C84.316 46.5019 83.8576 46.3636 83.3122 46.3636C82.744 46.3636 82.2705 46.5095 81.8917 46.8011C81.5167 47.089 81.2345 47.4811 81.0451 47.9773C80.8595 48.4697 80.7667 49.0227 80.7667 49.6364C80.7667 50.2576 80.8614 50.822 81.0508 51.3295C81.244 51.8333 81.5281 52.2348 81.9031 52.5341C82.2819 52.8295 82.7516 52.9773 83.3122 52.9773ZM93.2555 54.1818C92.4146 54.1818 91.6892 53.9962 91.0794 53.625C90.4733 53.25 90.0055 52.7273 89.6759 52.0568C89.3502 51.3826 89.1873 50.5985 89.1873 49.7045C89.1873 48.8106 89.3502 48.0227 89.6759 47.3409C90.0055 46.6553 90.4638 46.1212 91.0509 45.7386C91.6419 45.3523 92.3312 45.1591 93.1191 45.1591C93.5737 45.1591 94.0225 45.2348 94.4657 45.3864C94.9089 45.5379 95.3123 45.7841 95.6759 46.125C96.0396 46.4621 96.3294 46.9091 96.5453 47.4659C96.7612 48.0227 96.8691 48.7083 96.8691 49.5227V50.0909H90.1419V48.9318H95.5055C95.5055 48.4394 95.407 48 95.21 47.6136C95.0169 47.2273 94.7403 46.9223 94.3805 46.6989C94.0244 46.4754 93.604 46.3636 93.1191 46.3636C92.585 46.3636 92.1229 46.4962 91.7328 46.7614C91.3464 47.0227 91.049 47.3636 90.8407 47.7841C90.6324 48.2045 90.5282 48.6553 90.5282 49.1364V49.9091C90.5282 50.5682 90.6419 51.1269 90.8691 51.5852C91.1002 52.0398 91.4203 52.3864 91.8294 52.625C92.2384 52.8598 92.7138 52.9773 93.2555 52.9773C93.6078 52.9773 93.9259 52.928 94.21 52.8295C94.4979 52.7273 94.746 52.5758 94.9544 52.375C95.1627 52.1705 95.3237 51.9167 95.4373 51.6136L96.7328 51.9773C96.5964 52.4167 96.3672 52.803 96.0453 53.1364C95.7233 53.4659 95.3256 53.7235 94.8521 53.9091C94.3786 54.0909 93.8464 54.1818 93.2555 54.1818ZM98.7329 54V45.2727H100.028V46.5909H100.119C100.278 46.1591 100.566 45.8087 100.983 45.5398C101.4 45.2708 101.869 45.1364 102.392 45.1364C102.49 45.1364 102.614 45.1383 102.761 45.142C102.909 45.1458 103.021 45.1515 103.097 45.1591V46.5227C103.051 46.5114 102.947 46.4943 102.784 46.4716C102.625 46.4451 102.456 46.4318 102.278 46.4318C101.854 46.4318 101.475 46.5208 101.142 46.6989C100.812 46.8731 100.551 47.1155 100.358 47.4261C100.169 47.733 100.074 48.0833 100.074 48.4773V54H98.7329Z" fill="#6C6862"/><rect y="210" width="184" height="8" rx="4" fill="#EBEAE1"/><rect y="210" width="107" height="8" rx="4" fill="#0056E0"/><path fill-rule="evenodd" clip-rule="evenodd" d="M5.5 105C3.01472 105 1 107.015 1 109.5V118.5C1 120.985 3.01472 123 5.5 123H14.5C16.9853 123 19 120.985 19 118.5V109.5C19 107.015 16.9853 105 14.5 105H5.5ZM15.0303 111.53C15.3232 111.237 15.3232 110.763 15.0303 110.47C14.7374 110.177 14.2626 110.177 13.9697 110.47L8.125 116.314L6.03033 114.22C5.73744 113.927 5.26256 113.927 4.96967 114.22C4.67678 114.513 4.67678 114.987 4.96967 115.28L7.59467 117.905C7.88756 118.198 8.36244 118.198 8.65533 117.905L15.0303 111.53Z" fill="#0056E0"/><path d="M33.233 119V108.818H39.3778V109.912H34.4659V113.352H39.0597V114.446H34.4659V117.906H39.4574V119H33.233ZM42.2321 111.364L44.0616 114.486L45.8911 111.364H47.2434L44.7775 115.182L47.2434 119H45.8911L44.0616 116.037L42.2321 119H40.8798L43.3059 115.182L40.8798 111.364H42.2321ZM51.0808 119.179C50.5969 119.179 50.1577 119.088 49.7633 118.906C49.3689 118.72 49.0557 118.453 48.8237 118.105C48.5916 117.754 48.4756 117.33 48.4756 116.832C48.4756 116.395 48.5618 116.04 48.7342 115.768C48.9065 115.493 49.1369 115.278 49.4252 115.122C49.7136 114.966 50.0318 114.85 50.3798 114.774C50.7311 114.695 51.0841 114.632 51.4387 114.585C51.9027 114.526 52.2789 114.481 52.5673 114.451C52.8589 114.418 53.0711 114.363 53.2036 114.287C53.3395 114.211 53.4075 114.078 53.4075 113.889V113.849C53.4075 113.359 53.2732 112.978 53.0048 112.706C52.7396 112.434 52.3369 112.298 51.7967 112.298C51.2365 112.298 50.7974 112.421 50.4792 112.666C50.161 112.911 49.9373 113.173 49.808 113.452L48.6944 113.054C48.8933 112.59 49.1584 112.229 49.4898 111.97C49.8246 111.708 50.1892 111.526 50.5836 111.423C50.9813 111.317 51.3724 111.264 51.7569 111.264C52.0022 111.264 52.2839 111.294 52.6021 111.354C52.9236 111.41 53.2335 111.528 53.5318 111.707C53.8334 111.886 54.0836 112.156 54.2825 112.517C54.4813 112.878 54.5808 113.362 54.5808 113.969V119H53.4075V117.966H53.3478C53.2683 118.132 53.1357 118.309 52.9501 118.498C52.7645 118.687 52.5175 118.848 52.2093 118.98C51.9011 119.113 51.5249 119.179 51.0808 119.179ZM51.2597 118.125C51.7237 118.125 52.1148 118.034 52.433 117.852C52.7545 117.669 52.9965 117.434 53.1589 117.146C53.3246 116.857 53.4075 116.554 53.4075 116.236V115.162C53.3577 115.222 53.2484 115.276 53.0793 115.326C52.9136 115.372 52.7214 115.414 52.5026 115.45C52.2872 115.483 52.0767 115.513 51.8712 115.54C51.6691 115.563 51.505 115.583 51.3791 115.599C51.0741 115.639 50.7891 115.704 50.5239 115.793C50.2621 115.879 50.05 116.01 49.8876 116.186C49.7285 116.358 49.6489 116.594 49.6489 116.892C49.6489 117.3 49.7997 117.608 50.1014 117.817C50.4063 118.022 50.7924 118.125 51.2597 118.125ZM56.6383 119V111.364H57.7718V112.557H57.8712C58.0303 112.149 58.2872 111.833 58.6418 111.607C58.9965 111.379 59.4224 111.264 59.9195 111.264C60.4233 111.264 60.8426 111.379 61.1773 111.607C61.5154 111.833 61.7789 112.149 61.9678 112.557H62.0474C62.2429 112.162 62.5362 111.849 62.9273 111.617C63.3184 111.382 63.7874 111.264 64.3343 111.264C65.0171 111.264 65.5755 111.478 66.0097 111.906C66.4439 112.33 66.661 112.991 66.661 113.889V119H65.4877V113.889C65.4877 113.326 65.3336 112.923 65.0253 112.681C64.7171 112.439 64.3542 112.318 63.9366 112.318C63.3996 112.318 62.9837 112.481 62.6887 112.805C62.3937 113.127 62.2462 113.535 62.2462 114.028V119H61.053V113.77C61.053 113.336 60.9122 112.986 60.6305 112.721C60.3487 112.452 59.9858 112.318 59.5417 112.318C59.2368 112.318 58.9517 112.399 58.6866 112.562C58.4247 112.724 58.2126 112.95 58.0502 113.238C57.8911 113.523 57.8116 113.853 57.8116 114.227V119H56.6383ZM68.7222 121.864V111.364H69.8558V112.577H69.995C70.0811 112.444 70.2005 112.275 70.3529 112.07C70.5087 111.861 70.7308 111.675 71.0191 111.513C71.3108 111.347 71.7052 111.264 72.2024 111.264C72.8453 111.264 73.4121 111.425 73.9026 111.746C74.3932 112.068 74.776 112.524 75.0511 113.114C75.3262 113.704 75.4637 114.4 75.4637 115.202C75.4637 116.01 75.3262 116.711 75.0511 117.305C74.776 117.895 74.3948 118.352 73.9076 118.677C73.4204 118.998 72.8586 119.159 72.2222 119.159C71.7317 119.159 71.339 119.078 71.044 118.915C70.749 118.75 70.522 118.562 70.3629 118.354C70.2038 118.142 70.0811 117.966 69.995 117.827H69.8955V121.864H68.7222ZM69.8756 115.182C69.8756 115.759 69.9602 116.267 70.1292 116.708C70.2982 117.146 70.5452 117.489 70.87 117.737C71.1948 117.982 71.5925 118.105 72.0631 118.105C72.5537 118.105 72.963 117.976 73.2911 117.717C73.6226 117.455 73.8712 117.104 74.0369 116.663C74.2059 116.219 74.2904 115.725 74.2904 115.182C74.2904 114.645 74.2076 114.161 74.0418 113.73C73.8794 113.296 73.6325 112.953 73.3011 112.701C72.973 112.446 72.5603 112.318 72.0631 112.318C71.5859 112.318 71.1848 112.439 70.86 112.681C70.5352 112.92 70.2899 113.254 70.1242 113.685C69.9585 114.113 69.8756 114.612 69.8756 115.182ZM78.3428 108.818V119H77.1695V108.818H78.3428ZM83.6095 119.159C82.8737 119.159 82.239 118.997 81.7053 118.672C81.175 118.344 80.7657 117.886 80.4774 117.3C80.1923 116.71 80.0498 116.024 80.0498 115.241C80.0498 114.459 80.1923 113.77 80.4774 113.173C80.7657 112.573 81.1667 112.106 81.6805 111.771C82.1975 111.433 82.8007 111.264 83.4901 111.264C83.8879 111.264 84.2806 111.33 84.6684 111.463C85.0562 111.596 85.4092 111.811 85.7274 112.109C86.0455 112.404 86.2991 112.795 86.488 113.283C86.6769 113.77 86.7714 114.37 86.7714 115.082V115.58H80.885V114.565H85.5782C85.5782 114.134 85.492 113.75 85.3197 113.412C85.1507 113.074 84.9087 112.807 84.5938 112.612C84.2823 112.416 83.9144 112.318 83.4901 112.318C83.0228 112.318 82.6185 112.434 82.2771 112.666C81.939 112.895 81.6788 113.193 81.4965 113.561C81.3142 113.929 81.2231 114.323 81.2231 114.744V115.42C81.2231 115.997 81.3225 116.486 81.5214 116.887C81.7236 117.285 82.0036 117.588 82.3616 117.797C82.7195 118.002 83.1355 118.105 83.6095 118.105C83.9177 118.105 84.1961 118.062 84.4447 117.976C84.6966 117.886 84.9137 117.754 85.096 117.578C85.2783 117.399 85.4191 117.177 85.5185 116.912L86.6521 117.23C86.5328 117.615 86.3322 117.953 86.0505 118.244C85.7688 118.533 85.4208 118.758 85.0065 118.92C84.5922 119.08 84.1265 119.159 83.6095 119.159ZM92.4848 119V108.818H93.7177V117.906H98.4507V119H92.4848ZM102.364 119.179C101.88 119.179 101.441 119.088 101.046 118.906C100.652 118.72 100.339 118.453 100.107 118.105C99.8747 117.754 99.7587 117.33 99.7587 116.832C99.7587 116.395 99.8449 116.04 100.017 115.768C100.19 115.493 100.42 115.278 100.708 115.122C100.997 114.966 101.315 114.85 101.663 114.774C102.014 114.695 102.367 114.632 102.722 114.585C103.186 114.526 103.562 114.481 103.85 114.451C104.142 114.418 104.354 114.363 104.487 114.287C104.623 114.211 104.691 114.078 104.691 113.889V113.849C104.691 113.359 104.556 112.978 104.288 112.706C104.023 112.434 103.62 112.298 103.08 112.298C102.52 112.298 102.08 112.421 101.762 112.666C101.444 112.911 101.22 113.173 101.091 113.452L99.9775 113.054C100.176 112.59 100.442 112.229 100.773 111.97C101.108 111.708 101.472 111.526 101.867 111.423C102.264 111.317 102.656 111.264 103.04 111.264C103.285 111.264 103.567 111.294 103.885 111.354C104.207 111.41 104.517 111.528 104.815 111.707C105.116 111.886 105.367 112.156 105.566 112.517C105.764 112.878 105.864 113.362 105.864 113.969V119H104.691V117.966H104.631C104.551 118.132 104.419 118.309 104.233 118.498C104.048 118.687 103.801 118.848 103.492 118.98C103.184 119.113 102.808 119.179 102.364 119.179ZM102.543 118.125C103.007 118.125 103.398 118.034 103.716 117.852C104.038 117.669 104.28 117.434 104.442 117.146C104.608 116.857 104.691 116.554 104.691 116.236V115.162C104.641 115.222 104.531 115.276 104.362 115.326C104.197 115.372 104.004 115.414 103.786 115.45C103.57 115.483 103.36 115.513 103.154 115.54C102.952 115.563 102.788 115.583 102.662 115.599C102.357 115.639 102.072 115.704 101.807 115.793C101.545 115.879 101.333 116.01 101.171 116.186C101.012 116.358 100.932 116.594 100.932 116.892C100.932 117.3 101.083 117.608 101.384 117.817C101.689 118.022 102.076 118.125 102.543 118.125ZM108.08 119V108.818H109.254V112.577H109.353C109.439 112.444 109.559 112.275 109.711 112.07C109.867 111.861 110.089 111.675 110.377 111.513C110.669 111.347 111.063 111.264 111.561 111.264C112.204 111.264 112.77 111.425 113.261 111.746C113.751 112.068 114.134 112.524 114.409 113.114C114.684 113.704 114.822 114.4 114.822 115.202C114.822 116.01 114.684 116.711 114.409 117.305C114.134 117.895 113.753 118.352 113.266 118.677C112.779 118.998 112.217 119.159 111.58 119.159C111.09 119.159 110.697 119.078 110.402 118.915C110.107 118.75 109.88 118.562 109.721 118.354C109.562 118.142 109.439 117.966 109.353 117.827H109.214V119H108.08ZM109.234 115.182C109.234 115.759 109.318 116.267 109.487 116.708C109.656 117.146 109.903 117.489 110.228 117.737C110.553 117.982 110.951 118.105 111.421 118.105C111.912 118.105 112.321 117.976 112.649 117.717C112.981 117.455 113.229 117.104 113.395 116.663C113.564 116.219 113.649 115.725 113.649 115.182C113.649 114.645 113.566 114.161 113.4 113.73C113.238 113.296 112.991 112.953 112.659 112.701C112.331 112.446 111.919 112.318 111.421 112.318C110.944 112.318 110.543 112.439 110.218 112.681C109.893 112.92 109.648 113.254 109.482 113.685C109.317 114.113 109.234 114.612 109.234 115.182ZM119.734 119.159C118.999 119.159 118.364 118.997 117.83 118.672C117.3 118.344 116.891 117.886 116.602 117.3C116.317 116.71 116.175 116.024 116.175 115.241C116.175 114.459 116.317 113.77 116.602 113.173C116.891 112.573 117.292 112.106 117.805 111.771C118.322 111.433 118.926 111.264 119.615 111.264C120.013 111.264 120.406 111.33 120.793 111.463C121.181 111.596 121.534 111.811 121.852 112.109C122.17 112.404 122.424 112.795 122.613 113.283C122.802 113.77 122.896 114.37 122.896 115.082V115.58H117.01V114.565H121.703C121.703 114.134 121.617 113.75 121.445 113.412C121.276 113.074 121.034 112.807 120.719 112.612C120.407 112.416 120.039 112.318 119.615 112.318C119.148 112.318 118.743 112.434 118.402 112.666C118.064 112.895 117.804 113.193 117.621 113.561C117.439 113.929 117.348 114.323 117.348 114.744V115.42C117.348 115.997 117.447 116.486 117.646 116.887C117.848 117.285 118.129 117.588 118.487 117.797C118.844 118.002 119.26 118.105 119.734 118.105C120.043 118.105 120.321 118.062 120.57 117.976C120.821 117.886 121.039 117.754 121.221 117.578C121.403 117.399 121.544 117.177 121.643 116.912L122.777 117.23C122.658 117.615 122.457 117.953 122.175 118.244C121.894 118.533 121.546 118.758 121.131 118.92C120.717 119.08 120.251 119.159 119.734 119.159ZM125.77 108.818V119H124.597V108.818H125.77Z" fill="#26252A"/><path d="M10 173.25C12.8995 173.25 15.25 170.899 15.25 168C15.25 165.101 12.8995 162.75 10 162.75C7.1005 162.75 4.75 165.101 4.75 168C4.75 170.899 7.1005 173.25 10 173.25Z" fill="#0056E0"/><path fill-rule="evenodd" clip-rule="evenodd" d="M19 168C19 172.971 14.9706 177 10 177C5.02944 177 1 172.971 1 168C1 163.029 5.02944 159 10 159C14.9706 159 19 163.029 19 168ZM17.5 168C17.5 172.142 14.1421 175.5 10 175.5C5.85786 175.5 2.5 172.142 2.5 168C2.5 163.858 5.85786 160.5 10 160.5C14.1421 160.5 17.5 163.858 17.5 168Z" fill="#0056E0"/><path d="M33.233 173V162.818H39.3778V163.912H34.4659V167.352H39.0597V168.446H34.4659V171.906H39.4574V173H33.233ZM42.2321 165.364L44.0616 168.486L45.8911 165.364H47.2434L44.7775 169.182L47.2434 173H45.8911L44.0616 170.037L42.2321 173H40.8798L43.3059 169.182L40.8798 165.364H42.2321ZM51.0808 173.179C50.5969 173.179 50.1577 173.088 49.7633 172.906C49.3689 172.72 49.0557 172.453 48.8237 172.105C48.5916 171.754 48.4756 171.33 48.4756 170.832C48.4756 170.395 48.5618 170.04 48.7342 169.768C48.9065 169.493 49.1369 169.278 49.4252 169.122C49.7136 168.966 50.0318 168.85 50.3798 168.774C50.7311 168.695 51.0841 168.632 51.4387 168.585C51.9027 168.526 52.2789 168.481 52.5673 168.451C52.8589 168.418 53.0711 168.363 53.2036 168.287C53.3395 168.211 53.4075 168.078 53.4075 167.889V167.849C53.4075 167.359 53.2732 166.978 53.0048 166.706C52.7396 166.434 52.3369 166.298 51.7967 166.298C51.2365 166.298 50.7974 166.421 50.4792 166.666C50.161 166.911 49.9373 167.173 49.808 167.452L48.6944 167.054C48.8933 166.59 49.1584 166.229 49.4898 165.97C49.8246 165.708 50.1892 165.526 50.5836 165.423C50.9813 165.317 51.3724 165.264 51.7569 165.264C52.0022 165.264 52.2839 165.294 52.6021 165.354C52.9236 165.41 53.2335 165.528 53.5318 165.707C53.8334 165.886 54.0836 166.156 54.2825 166.517C54.4813 166.878 54.5808 167.362 54.5808 167.969V173H53.4075V171.966H53.3478C53.2683 172.132 53.1357 172.309 52.9501 172.498C52.7645 172.687 52.5175 172.848 52.2093 172.98C51.9011 173.113 51.5249 173.179 51.0808 173.179ZM51.2597 172.125C51.7237 172.125 52.1148 172.034 52.433 171.852C52.7545 171.669 52.9965 171.434 53.1589 171.146C53.3246 170.857 53.4075 170.554 53.4075 170.236V169.162C53.3577 169.222 53.2484 169.276 53.0793 169.326C52.9136 169.372 52.7214 169.414 52.5026 169.45C52.2872 169.483 52.0767 169.513 51.8712 169.54C51.6691 169.563 51.505 169.583 51.3791 169.599C51.0741 169.639 50.7891 169.704 50.5239 169.793C50.2621 169.879 50.05 170.01 49.8876 170.186C49.7285 170.358 49.6489 170.594 49.6489 170.892C49.6489 171.3 49.7997 171.608 50.1014 171.817C50.4063 172.022 50.7924 172.125 51.2597 172.125ZM56.6383 173V165.364H57.7718V166.557H57.8712C58.0303 166.149 58.2872 165.833 58.6418 165.607C58.9965 165.379 59.4224 165.264 59.9195 165.264C60.4233 165.264 60.8426 165.379 61.1773 165.607C61.5154 165.833 61.7789 166.149 61.9678 166.557H62.0474C62.2429 166.162 62.5362 165.849 62.9273 165.617C63.3184 165.382 63.7874 165.264 64.3343 165.264C65.0171 165.264 65.5755 165.478 66.0097 165.906C66.4439 166.33 66.661 166.991 66.661 167.889V173H65.4877V167.889C65.4877 167.326 65.3336 166.923 65.0253 166.681C64.7171 166.439 64.3542 166.318 63.9366 166.318C63.3996 166.318 62.9837 166.481 62.6887 166.805C62.3937 167.127 62.2462 167.535 62.2462 168.028V173H61.053V167.77C61.053 167.336 60.9122 166.986 60.6305 166.721C60.3487 166.452 59.9858 166.318 59.5417 166.318C59.2368 166.318 58.9517 166.399 58.6866 166.562C58.4247 166.724 58.2126 166.95 58.0502 167.238C57.8911 167.523 57.8116 167.853 57.8116 168.227V173H56.6383ZM68.7222 175.864V165.364H69.8558V166.577H69.995C70.0811 166.444 70.2005 166.275 70.3529 166.07C70.5087 165.861 70.7308 165.675 71.0191 165.513C71.3108 165.347 71.7052 165.264 72.2024 165.264C72.8453 165.264 73.4121 165.425 73.9026 165.746C74.3932 166.068 74.776 166.524 75.0511 167.114C75.3262 167.704 75.4637 168.4 75.4637 169.202C75.4637 170.01 75.3262 170.711 75.0511 171.305C74.776 171.895 74.3948 172.352 73.9076 172.677C73.4204 172.998 72.8586 173.159 72.2222 173.159C71.7317 173.159 71.339 173.078 71.044 172.915C70.749 172.75 70.522 172.562 70.3629 172.354C70.2038 172.142 70.0811 171.966 69.995 171.827H69.8955V175.864H68.7222ZM69.8756 169.182C69.8756 169.759 69.9602 170.267 70.1292 170.708C70.2982 171.146 70.5452 171.489 70.87 171.737C71.1948 171.982 71.5925 172.105 72.0631 172.105C72.5537 172.105 72.963 171.976 73.2911 171.717C73.6226 171.455 73.8712 171.104 74.0369 170.663C74.2059 170.219 74.2904 169.725 74.2904 169.182C74.2904 168.645 74.2076 168.161 74.0418 167.73C73.8794 167.296 73.6325 166.953 73.3011 166.701C72.973 166.446 72.5603 166.318 72.0631 166.318C71.5859 166.318 71.1848 166.439 70.86 166.681C70.5352 166.92 70.2899 167.254 70.1242 167.685C69.9585 168.113 69.8756 168.612 69.8756 169.182ZM78.3428 162.818V173H77.1695V162.818H78.3428ZM83.6095 173.159C82.8737 173.159 82.239 172.997 81.7053 172.672C81.175 172.344 80.7657 171.886 80.4774 171.3C80.1923 170.71 80.0498 170.024 80.0498 169.241C80.0498 168.459 80.1923 167.77 80.4774 167.173C80.7657 166.573 81.1667 166.106 81.6805 165.771C82.1975 165.433 82.8007 165.264 83.4901 165.264C83.8879 165.264 84.2806 165.33 84.6684 165.463C85.0562 165.596 85.4092 165.811 85.7274 166.109C86.0455 166.404 86.2991 166.795 86.488 167.283C86.6769 167.77 86.7714 168.37 86.7714 169.082V169.58H80.885V168.565H85.5782C85.5782 168.134 85.492 167.75 85.3197 167.412C85.1507 167.074 84.9087 166.807 84.5938 166.612C84.2823 166.416 83.9144 166.318 83.4901 166.318C83.0228 166.318 82.6185 166.434 82.2771 166.666C81.939 166.895 81.6788 167.193 81.4965 167.561C81.3142 167.929 81.2231 168.323 81.2231 168.744V169.42C81.2231 169.997 81.3225 170.486 81.5214 170.887C81.7236 171.285 82.0036 171.588 82.3616 171.797C82.7195 172.002 83.1355 172.105 83.6095 172.105C83.9177 172.105 84.1961 172.062 84.4447 171.976C84.6966 171.886 84.9137 171.754 85.096 171.578C85.2783 171.399 85.4191 171.177 85.5185 170.912L86.6521 171.23C86.5328 171.615 86.3322 171.953 86.0505 172.244C85.7688 172.533 85.4208 172.758 85.0065 172.92C84.5922 173.08 84.1265 173.159 83.6095 173.159ZM92.4848 173V162.818H93.7177V171.906H98.4507V173H92.4848ZM102.364 173.179C101.88 173.179 101.441 173.088 101.046 172.906C100.652 172.72 100.339 172.453 100.107 172.105C99.8747 171.754 99.7587 171.33 99.7587 170.832C99.7587 170.395 99.8449 170.04 100.017 169.768C100.19 169.493 100.42 169.278 100.708 169.122C100.997 168.966 101.315 168.85 101.663 168.774C102.014 168.695 102.367 168.632 102.722 168.585C103.186 168.526 103.562 168.481 103.85 168.451C104.142 168.418 104.354 168.363 104.487 168.287C104.623 168.211 104.691 168.078 104.691 167.889V167.849C104.691 167.359 104.556 166.978 104.288 166.706C104.023 166.434 103.62 166.298 103.08 166.298C102.52 166.298 102.08 166.421 101.762 166.666C101.444 166.911 101.22 167.173 101.091 167.452L99.9775 167.054C100.176 166.59 100.442 166.229 100.773 165.97C101.108 165.708 101.472 165.526 101.867 165.423C102.264 165.317 102.656 165.264 103.04 165.264C103.285 165.264 103.567 165.294 103.885 165.354C104.207 165.41 104.517 165.528 104.815 165.707C105.116 165.886 105.367 166.156 105.566 166.517C105.764 166.878 105.864 167.362 105.864 167.969V173H104.691V171.966H104.631C104.551 172.132 104.419 172.309 104.233 172.498C104.048 172.687 103.801 172.848 103.492 172.98C103.184 173.113 102.808 173.179 102.364 173.179ZM102.543 172.125C103.007 172.125 103.398 172.034 103.716 171.852C104.038 171.669 104.28 171.434 104.442 171.146C104.608 170.857 104.691 170.554 104.691 170.236V169.162C104.641 169.222 104.531 169.276 104.362 169.326C104.197 169.372 104.004 169.414 103.786 169.45C103.57 169.483 103.36 169.513 103.154 169.54C102.952 169.563 102.788 169.583 102.662 169.599C102.357 169.639 102.072 169.704 101.807 169.793C101.545 169.879 101.333 170.01 101.171 170.186C101.012 170.358 100.932 170.594 100.932 170.892C100.932 171.3 101.083 171.608 101.384 171.817C101.689 172.022 102.076 172.125 102.543 172.125ZM108.08 173V162.818H109.254V166.577H109.353C109.439 166.444 109.559 166.275 109.711 166.07C109.867 165.861 110.089 165.675 110.377 165.513C110.669 165.347 111.063 165.264 111.561 165.264C112.204 165.264 112.77 165.425 113.261 165.746C113.751 166.068 114.134 166.524 114.409 167.114C114.684 167.704 114.822 168.4 114.822 169.202C114.822 170.01 114.684 170.711 114.409 171.305C114.134 171.895 113.753 172.352 113.266 172.677C112.779 172.998 112.217 173.159 111.58 173.159C111.09 173.159 110.697 173.078 110.402 172.915C110.107 172.75 109.88 172.562 109.721 172.354C109.562 172.142 109.439 171.966 109.353 171.827H109.214V173H108.08ZM109.234 169.182C109.234 169.759 109.318 170.267 109.487 170.708C109.656 171.146 109.903 171.489 110.228 171.737C110.553 171.982 110.951 172.105 111.421 172.105C111.912 172.105 112.321 171.976 112.649 171.717C112.981 171.455 113.229 171.104 113.395 170.663C113.564 170.219 113.649 169.725 113.649 169.182C113.649 168.645 113.566 168.161 113.4 167.73C113.238 167.296 112.991 166.953 112.659 166.701C112.331 166.446 111.919 166.318 111.421 166.318C110.944 166.318 110.543 166.439 110.218 166.681C109.893 166.92 109.648 167.254 109.482 167.685C109.317 168.113 109.234 168.612 109.234 169.182ZM119.734 173.159C118.999 173.159 118.364 172.997 117.83 172.672C117.3 172.344 116.891 171.886 116.602 171.3C116.317 170.71 116.175 170.024 116.175 169.241C116.175 168.459 116.317 167.77 116.602 167.173C116.891 166.573 117.292 166.106 117.805 165.771C118.322 165.433 118.926 165.264 119.615 165.264C120.013 165.264 120.406 165.33 120.793 165.463C121.181 165.596 121.534 165.811 121.852 166.109C122.17 166.404 122.424 166.795 122.613 167.283C122.802 167.77 122.896 168.37 122.896 169.082V169.58H117.01V168.565H121.703C121.703 168.134 121.617 167.75 121.445 167.412C121.276 167.074 121.034 166.807 120.719 166.612C120.407 166.416 120.039 166.318 119.615 166.318C119.148 166.318 118.743 166.434 118.402 166.666C118.064 166.895 117.804 167.193 117.621 167.561C117.439 167.929 117.348 168.323 117.348 168.744V169.42C117.348 169.997 117.447 170.486 117.646 170.887C117.848 171.285 118.129 171.588 118.487 171.797C118.844 172.002 119.26 172.105 119.734 172.105C120.043 172.105 120.321 172.062 120.57 171.976C120.821 171.886 121.039 171.754 121.221 171.578C121.403 171.399 121.544 171.177 121.643 170.912L122.777 171.23C122.658 171.615 122.457 171.953 122.175 172.244C121.894 172.533 121.546 172.758 121.131 172.92C120.717 173.08 120.251 173.159 119.734 173.159ZM125.77 162.818V173H124.597V162.818H125.77Z" fill="#26252A"/></svg>