<svg width="257" height="380" viewBox="0 0 257 380" fill="none" xmlns="http://www.w3.org/2000/svg"><path fill-rule="evenodd" clip-rule="evenodd" d="M5 11C4.44772 11 4 11.4477 4 12V20C4 20.5523 4.44772 21 5 21H5.5C6.05228 21 6.5 21.4477 6.5 22C6.5 22.5523 6.05228 23 5.5 23H5C3.34315 23 2 21.6569 2 20V12C2 10.3431 3.34315 9 5 9H27C28.6569 9 30 10.3431 30 12V20C30 21.6569 28.6569 23 27 23H26.5C25.9477 23 25.5 22.5523 25.5 22C25.5 21.4477 25.9477 21 26.5 21H27C27.5523 21 28 20.5523 28 20V12C28 11.4477 27.5523 11 27 11H5Z" fill="#3A3A38"/><path fill-rule="evenodd" clip-rule="evenodd" d="M9 4C8.44772 4 8 4.44772 8 5V10C8 10.5523 7.55228 11 7 11C6.44772 11 6 10.5523 6 10V5C6 3.34315 7.34315 2 9 2H23C24.6569 2 26 3.34315 26 5V10C26 10.5523 25.5523 11 25 11C24.4477 11 24 10.5523 24 10V5C24 4.44772 23.5523 4 23 4H9Z" fill="#3A3A38"/><path fill-rule="evenodd" clip-rule="evenodd" d="M6 14C6 13.4477 6.44772 13 7 13H10C10.5523 13 11 13.4477 11 14C11 14.5523 10.5523 15 10 15H7C6.44772 15 6 14.5523 6 14Z" fill="#3A3A38"/><path d="M13 14C13 13.4477 13.4477 13 14 13C14.5523 13 15 13.4477 15 14C15 14.5523 14.5523 15 14 15C13.4477 15 13 14.5523 13 14Z" fill="#3A3A38"/><path fill-rule="evenodd" clip-rule="evenodd" d="M14 13C13.4477 13 13 13.4477 13 14C13 14.5523 13.4477 15 14 15C14.5523 15 15 14.5523 15 14C15 13.4477 14.5523 13 14 13Z" fill="#3A3A38"/><path fill-rule="evenodd" clip-rule="evenodd" d="M8 20C8 18.3431 9.34315 17 11 17H21C22.6569 17 24 18.3431 24 20V27C24 28.6569 22.6569 30 21 30H11C9.34315 30 8 28.6569 8 27V20ZM11 19C10.4477 19 10 19.4477 10 20V27C10 27.5523 10.4477 28 11 28H21C21.5523 28 22 27.5523 22 27V20C22 19.4477 21.5523 19 21 19H11Z" fill="#3A3A38"/><path d="M98.9996 3C98.9996 2.44772 99.4474 2 99.9996 2C100.552 2 101 2.44772 101 3V11C101 11.5523 100.552 12 99.9996 12C99.4474 12 98.9996 11.5523 98.9996 11V3Z" fill="#3A3A38"/><path d="M104 2C103.447 2 103 2.44772 103 3V11C103 11.5523 103.447 12 104 12C104.552 12 105 11.5523 105 11V3C105 2.44772 104.552 2 104 2Z" fill="#3A3A38"/><path fill-rule="evenodd" clip-rule="evenodd" d="M88.5556 10.0836C88.6934 10.9091 88.4861 11.4577 87.8956 12.4375L87.7523 12.6789C87.4804 13.1508 87.4338 13.3429 87.5028 13.5577C88.5812 16.4483 90.5458 18.4127 93.4034 19.4782C93.6746 19.5664 93.8849 19.5005 94.4807 19.1423L94.7916 18.9578C95.6285 18.4748 96.1529 18.3112 96.9107 18.4384C97.6481 18.5631 100.306 20.5158 101.204 21.4376C101.677 21.9228 101.972 22.4652 101.998 23.1437C101.987 24.796 99.8706 27.2106 98.6095 27.9628C97.1668 29.0235 95.3899 29.0815 93.4357 28.2375C88.3147 26.2873 80.6744 18.7 78.7681 13.5836L78.6532 13.2977C77.9273 11.4034 78.0146 9.73679 78.9918 8.44213C79.894 7.00975 82.2492 4.98644 83.8605 4.99339L83.8928 4.99413C84.5293 5.02028 85.0708 5.31443 85.5565 5.78799C86.4794 6.68756 88.4309 9.34372 88.5556 10.0836ZM94.416 21.3868C94.8303 21.2576 95.2158 21.0339 95.5062 20.8594L95.8014 20.6842C96.1591 20.4783 96.3127 20.4234 96.381 20.4057C96.4066 20.3991 96.4214 20.3976 96.4368 20.3971C96.4432 20.3969 96.4527 20.3969 96.466 20.3975C96.5333 20.4305 96.6293 20.4818 96.7551 20.5555C97.0541 20.7307 97.4315 20.9794 97.8365 21.268C98.6729 21.8639 99.4477 22.5011 99.7717 22.8336C99.8944 22.9595 99.9462 23.0441 99.9686 23.0902C99.9803 23.1143 99.9889 23.1376 99.9943 23.167C99.9907 23.1899 99.984 23.2237 99.9716 23.2691C99.9457 23.3642 99.9009 23.4889 99.8295 23.6417C99.6847 23.9518 99.4628 24.3097 99.1813 24.6795C98.5913 25.4547 97.9277 26.0407 97.585 26.2452L97.5023 26.2945L97.4248 26.3515C96.707 26.8792 95.7253 27.0478 94.2287 26.4014L94.1885 26.384L94.1475 26.3684C91.9708 25.5395 89.0167 23.3816 86.3085 20.6815C83.5976 17.9788 81.4471 15.0456 80.6423 12.8853L80.6333 12.8612L80.5152 12.5676C79.9556 11.098 80.1564 10.219 80.5881 9.64699L80.6391 9.57953L80.6841 9.508C80.9803 9.0377 81.6129 8.34411 82.3679 7.77226C82.7344 7.49462 83.0822 7.28232 83.3788 7.14666C83.5249 7.07984 83.6424 7.03904 83.7303 7.01613C83.7818 7.00268 83.8163 6.99719 83.8351 6.99494C83.8514 6.99783 83.87 7.00387 83.8962 7.01683C83.9444 7.04061 84.0333 7.09619 84.1605 7.22023C84.4938 7.54503 85.1308 8.3197 85.7263 9.15585C86.0147 9.56085 86.2632 9.9382 86.4382 10.2372C86.5119 10.363 86.5632 10.4592 86.5961 10.5265C86.5969 10.5431 86.5966 10.554 86.5962 10.5604C86.5956 10.5734 86.5938 10.5919 86.5824 10.6301C86.5503 10.7375 86.4633 10.9394 86.1826 11.4052L86.0258 11.6692L86.0194 11.6804C85.8718 11.9366 85.6809 12.2877 85.572 12.6818C85.4318 13.1888 85.4441 13.6885 85.5987 14.1697L85.6128 14.2136L85.6289 14.2568C86.9087 17.6873 89.2999 20.0826 92.7047 21.3522L92.7445 21.367L92.7849 21.3802C93.3057 21.5495 93.8504 21.5633 94.416 21.3868Z" fill="#3A3A38"/><path d="M167 4C167 3.44772 166.552 3 166 3C165.448 3 165 3.44772 165 4V8C165 8.55228 165.448 9 166 9C166.552 9 167 8.55228 167 8V4Z" fill="#3A3A38"/><path d="M153 15C152.448 15 152 15.4477 152 16C152 16.5523 152.448 17 153 17H157C157.552 17 158 16.5523 158 16C158 15.4477 157.552 15 157 15H153Z" fill="#3A3A38"/><path d="M174 16C174 15.4477 174.448 15 175 15H179C179.552 15 180 15.4477 180 16C180 16.5523 179.552 17 179 17H175C174.448 17 174 16.5523 174 16Z" fill="#3A3A38"/><path d="M157.515 6.10051C157.124 5.70999 156.491 5.70999 156.1 6.10051C155.71 6.49103 155.71 7.1242 156.1 7.51472L158.929 10.3432C159.319 10.7337 159.953 10.7337 160.343 10.3432C160.734 9.95263 160.734 9.31946 160.343 8.92894L157.515 6.10051Z" fill="#3A3A38"/><path d="M171.657 10.3427C171.266 9.95217 171.266 9.31901 171.657 8.92848L174.485 6.10006C174.876 5.70953 175.509 5.70953 175.9 6.10006C176.29 6.49058 176.29 7.12375 175.9 7.51427L173.071 10.3427C172.681 10.7332 172.047 10.7332 171.657 10.3427Z" fill="#3A3A38"/><path fill-rule="evenodd" clip-rule="evenodd" d="M172 17C172 19.2208 170.793 21.1599 169 22.1973V28C169 29.1046 168.105 30 167 30H165C163.895 30 163 29.1046 163 28V22.1973C161.207 21.1599 160 19.2208 160 17C160 13.6863 162.686 11 166 11C169.314 11 172 13.6863 172 17ZM165 20.874V17C165 16.4477 165.448 16 166 16C166.552 16 167 16.4477 167 17V20.874C168.725 20.4299 170 18.8638 170 17C170 14.7909 168.209 13 166 13C163.791 13 162 14.7909 162 17C162 18.8638 163.275 20.4299 165 20.874ZM165 23V28H167V23H165Z" fill="#3A3A38"/><path fill-rule="evenodd" clip-rule="evenodd" d="M247.71 6.31523C245.926 4.56159 243.168 4.56159 241.384 6.31523L231.965 15.5711C229.345 18.1458 229.345 22.487 231.965 25.0618C234.595 27.6461 239.043 27.6461 241.673 25.0618L252.299 14.6193C252.693 14.2322 253.326 14.2377 253.713 14.6316C254.1 15.0255 254.095 15.6587 253.701 16.0458L243.074 26.4883C239.667 29.8372 233.971 29.8372 230.563 26.4883C227.146 23.1298 227.146 17.5031 230.563 14.1446L239.982 4.88873C242.545 2.37042 246.55 2.37042 249.112 4.88873C251.685 7.41658 251.685 11.3819 249.112 13.9098L249.107 13.9147L240.418 22.335C240.417 22.3359 240.416 22.3368 240.415 22.3377C238.846 23.8765 236.276 23.9366 234.771 22.3166C233.212 20.7648 233.155 18.2209 234.807 16.7382L242.035 9.63533C242.429 9.24823 243.062 9.25375 243.449 9.64767C243.836 10.0416 243.831 10.6747 243.437 11.0618L236.173 18.2001L236.153 18.2175C235.418 18.8678 235.36 20.0918 236.191 20.9085L236.21 20.927L236.228 20.9464C236.899 21.6788 238.176 21.7342 239.016 20.9085L239.021 20.9036L247.71 12.4833C247.711 12.4825 247.712 12.4818 247.713 12.481C249.485 10.7369 249.484 8.05856 247.71 6.31523Z" fill="#3A3A38"/><path fill-rule="evenodd" clip-rule="evenodd" d="M11.5 79C13.433 79 15 77.433 15 75.5C15 73.567 13.433 72 11.5 72C9.91084 72 8.56904 73.0591 8.14198 74.51C8.0956 74.5034 8.0482 74.5 8 74.5H6C4.89543 74.5 4 75.3954 4 76.5V86C4 87.1046 4.89543 88 6 88H16.9732C16.9821 88.0002 16.9911 88.0004 17 88.0004C17.0089 88.0004 17.0179 88.0002 17.0268 88H22.5V94.5H16.8551C16.4248 93.0543 15.0855 92 13.5 92C11.567 92 10 93.567 10 95.5C10 97.433 11.567 99 13.5 99C15.0855 99 16.4248 97.9457 16.8551 96.5H22.5C23.6046 96.5 24.5 95.6046 24.5 94.5V88C24.5 86.8954 23.6046 86 22.5 86H18V81.5H20.1449C20.5752 82.9457 21.9145 84 23.5 84C25.433 84 27 82.433 27 80.5C27 78.567 25.433 77 23.5 77C21.9145 77 20.5752 78.0543 20.1449 79.5H18C16.8954 79.5 16 80.3954 16 81.5V86H6V76.5H8C8.0482 76.5 8.0956 76.4966 8.14198 76.49C8.56904 77.9409 9.91084 79 11.5 79ZM11.5 77C12.3284 77 13 76.3284 13 75.5C13 74.6716 12.3284 74 11.5 74C10.6716 74 10 74.6716 10 75.5C10 76.3284 10.6716 77 11.5 77ZM22 80.5C22 81.3284 22.6716 82 23.5 82C24.3284 82 25 81.3284 25 80.5C25 79.6716 24.3284 79 23.5 79C22.6716 79 22 79.6716 22 80.5ZM13.5 94C14.3284 94 15 94.6716 15 95.5C15 96.3284 14.3284 97 13.5 97C12.6716 97 12 96.3284 12 95.5C12 94.6716 12.6716 94 13.5 94Z" fill="#3A3A38"/><path d="M87 77C86.4477 77 86 77.4477 86 78V79C86 79.5523 86.4477 80 87 80H88C88.5523 80 89 79.5523 89 79V78C89 77.4477 88.5523 77 88 77H87Z" fill="#3A3A38"/><path d="M93 78C93 77.4477 93.4477 77 94 77H95C95.5523 77 96 77.4477 96 78V79C96 79.5523 95.5523 80 95 80H94C93.4477 80 93 79.5523 93 79V78Z" fill="#3A3A38"/><path d="M87 82C86.4477 82 86 82.4477 86 83V84C86 84.5523 86.4477 85 87 85H88C88.5523 85 89 84.5523 89 84V83C89 82.4477 88.5523 82 88 82H87Z" fill="#3A3A38"/><path d="M93 83C93 82.4477 93.4477 82 94 82H95C95.5523 82 96 82.4477 96 83V84C96 84.5523 95.5523 85 95 85H94C93.4477 85 93 84.5523 93 84V83Z" fill="#3A3A38"/><path fill-rule="evenodd" clip-rule="evenodd" d="M101 96V76C101 73.7909 99.2091 72 97 72H85C82.7909 72 81 73.7909 81 76V96H80C79.4477 96 79 96.4477 79 97C79 97.5523 79.4477 98 80 98H102C102.552 98 103 97.5523 103 97C103 96.4477 102.552 96 102 96H101ZM97 74H85C83.8954 74 83 74.8954 83 76V96H86V90C86 88.8954 86.8954 88 88 88H94C95.1046 88 96 88.8954 96 90V96H99V76C99 74.8954 98.1046 74 97 74ZM94 96V90H88V96H94Z" fill="#3A3A38"/><path fill-rule="evenodd" clip-rule="evenodd" d="M152 73C152 72.4477 152.448 72 153 72H155.416C156.808 72 158.017 72.9577 158.336 74.3129L158.733 76H176.292C178.31 76 179.753 77.9531 179.159 79.8823L176.39 88.8823C176.003 90.141 174.84 91 173.523 91H162.584C161.192 91 159.983 90.0423 159.664 88.6871L156.389 74.771C156.283 74.3192 155.88 74 155.416 74H153C152.448 74 152 73.5523 152 73ZM159.204 78L161.611 88.229C161.717 88.6808 162.12 89 162.584 89H173.523C173.962 89 174.35 88.7137 174.479 88.2941L177.248 79.2941C177.446 78.651 176.965 78 176.292 78H159.204Z" fill="#3A3A38"/><path fill-rule="evenodd" clip-rule="evenodd" d="M163 99C164.657 99 166 97.6569 166 96C166 94.3431 164.657 93 163 93C161.343 93 160 94.3431 160 96C160 97.6569 161.343 99 163 99ZM163 97C163.552 97 164 96.5523 164 96C164 95.4477 163.552 95 163 95C162.448 95 162 95.4477 162 96C162 96.5523 162.448 97 163 97Z" fill="#3A3A38"/><path fill-rule="evenodd" clip-rule="evenodd" d="M176 96C176 97.6569 174.657 99 173 99C171.343 99 170 97.6569 170 96C170 94.3431 171.343 93 173 93C174.657 93 176 94.3431 176 96ZM174 96C174 96.5523 173.552 97 173 97C172.448 97 172 96.5523 172 96C172 95.4477 172.448 95 173 95C173.552 95 174 95.4477 174 96Z" fill="#3A3A38"/><path d="M234 91C233.448 91 233 91.4477 233 92C233 92.5523 233.448 93 234 93H248C248.552 93 249 92.5523 249 92C249 91.4477 248.552 91 248 91H234Z" fill="#3A3A38"/><path d="M233 88C233 87.4477 233.448 87 234 87H248C248.552 87 249 87.4477 249 88C249 88.5523 248.552 89 248 89H234C233.448 89 233 88.5523 233 88Z" fill="#3A3A38"/><path d="M246 75C245.448 75 245 75.4477 245 76C245 76.5523 245.448 77 246 77C246.552 77 247 76.5523 247 76C247 75.4477 246.552 75 246 75Z" fill="#3A3A38"/><path fill-rule="evenodd" clip-rule="evenodd" d="M253 71H229C227.895 71 227 71.8954 227 73V97C227 98.1046 227.895 99 229 99H253C254.105 99 255 98.1046 255 97V73C255 71.8954 254.105 71 253 71ZM253 73H251V79C251 80.1046 250.105 81 249 81H233C231.895 81 231 80.1046 231 79V73L229 73V97H253V73ZM233 73H249V79H233V73Z" fill="#3A3A38"/><path fill-rule="evenodd" clip-rule="evenodd" d="M4 141C4 140.448 4.44772 140 5 140H27C27.5523 140 28 140.448 28 141C28 141.552 27.5523 142 27 142H25.0001V143.12C25.0001 145.879 23.5791 148.442 21.2401 149.904L20.546 150.338C18.9709 151.322 18.6598 153.487 19.8937 154.875L22.9794 158.346C24.281 159.811 25.0001 161.702 25.0001 163.661V166H27C27.5523 166 28 166.448 28 167C28 167.552 27.5523 168 27 168H5C4.44772 168 4 167.552 4 167C4 166.448 4.44772 166 5 166H6.99992V163.661C6.99992 161.702 7.71895 159.811 9.02065 158.346L12.1063 154.875C13.3402 153.487 13.0291 151.322 11.454 150.338L10.7599 149.904C8.42088 148.442 6.99992 145.879 6.99992 143.12V142H5C4.44772 142 4 141.552 4 141ZM23.0001 166H8.99992V163.887L15.7037 161.653C15.9028 161.586 16.1178 161.584 16.3182 161.647L23.0001 163.735V166ZM22.6033 161.516L16.9147 159.738C16.3136 159.55 15.6687 159.556 15.0712 159.756L9.34167 161.665C9.59822 160.938 9.99466 160.261 10.5155 159.675L13.6011 156.204C15.6577 153.89 15.1391 150.283 12.514 148.642L11.8199 148.208C10.0656 147.112 8.99992 145.189 8.99992 143.12V142H23.0001V143.12C23.0001 145.189 21.9344 147.112 20.1801 148.208L19.486 148.642C16.8609 150.283 16.3423 153.89 18.3989 156.204L21.4845 159.675C21.9695 160.221 22.3466 160.845 22.6033 161.516Z" fill="#3A3A38"/><path fill-rule="evenodd" clip-rule="evenodd" d="M83.6154 143.029C81.2295 141.928 78.6812 144.209 79.5121 146.702L81.8394 153.684C81.9079 153.889 81.9079 154.111 81.8394 154.316L79.5121 161.298C78.6812 163.791 81.2295 166.072 83.6154 164.971L103.451 155.816C105 155.101 105 152.899 103.451 152.184L83.6154 143.029ZM81.4095 146.069C81.1325 145.238 81.9819 144.478 82.7772 144.845L102.613 154L82.7772 163.155C81.9819 163.522 81.1325 162.762 81.4095 161.931L83.7197 155H94.9989C95.5512 155 95.9989 154.552 95.9989 154C95.9989 153.448 95.5512 153 94.9989 153H83.7197L81.4095 146.069Z" fill="#3A3A38"/><path fill-rule="evenodd" clip-rule="evenodd" d="M163 144C163 144.552 163.448 145 164 145H165V148.041C159.117 148.526 154.437 153.256 154.029 159.161C152.849 159.564 152 160.683 152 162C152 163.657 153.343 165 155 165H177C178.657 165 180 163.657 180 162C180 160.683 179.151 159.564 177.971 159.161C177.563 153.256 172.883 148.526 167 148.041V145L168 145C168.552 145 169 144.552 169 144C169 143.448 168.552 143 168 143H164C163.448 143 163 143.448 163 144ZM156.049 159C156.551 153.947 160.815 150 166 150C171.185 150 175.449 153.947 175.951 159H156.049ZM154 162C154 161.448 154.448 161 155 161H177C177.552 161 178 161.448 178 162C178 162.552 177.552 163 177 163H155C154.448 163 154 162.552 154 162Z" fill="#3A3A38"/><path fill-rule="evenodd" clip-rule="evenodd" d="M246 151C246 153.761 243.761 156 241 156C238.239 156 236 153.761 236 151C236 148.239 238.239 146 241 146C243.761 146 246 148.239 246 151ZM244 151C244 152.657 242.657 154 241 154C239.343 154 238 152.657 238 151C238 149.343 239.343 148 241 148C242.657 148 244 149.343 244 151Z" fill="#3A3A38"/><path fill-rule="evenodd" clip-rule="evenodd" d="M252 150.667C252 153.189 251.097 155.507 249.587 157.333C248.196 159.016 244.637 163.455 242.563 166.045C241.762 167.047 240.238 167.047 239.437 166.045C237.363 163.455 233.804 159.016 232.413 157.333C230.903 155.507 230 153.189 230 150.667C230 144.776 234.925 140 241 140C247.075 140 252 144.776 252 150.667ZM232 150.667C232 145.938 235.971 142 241 142C246.029 142 250 145.938 250 150.667C250 152.701 249.274 154.573 248.046 156.059C246.642 157.757 243.07 162.211 241.002 164.795L241.001 164.796L241 164.796L240.999 164.796L240.998 164.795C238.93 162.211 235.358 157.757 233.954 156.059C232.726 154.573 232 152.701 232 150.667Z" fill="#3A3A38"/><path d="M12 221C12 220.448 12.4477 220 13 220C13.5523 220 14 220.448 14 221V231C14 231.552 13.5523 232 13 232C12.4477 232 12 231.552 12 231V221Z" fill="#3A3A38"/><path d="M19 220C18.4477 220 18 220.448 18 221V231C18 231.552 18.4477 232 19 232C19.5523 232 20 231.552 20 231V221C20 220.448 19.5523 220 19 220Z" fill="#3A3A38"/><path fill-rule="evenodd" clip-rule="evenodd" d="M21 214C21 211.791 19.2091 210 17 210H15C12.7909 210 11 211.791 11 214H5C4.44772 214 4 214.448 4 215C4 215.552 4.44772 216 5 216L6 216V234C6 236.209 7.79086 238 10 238H22C24.2091 238 26 236.209 26 234V216H27C27.5523 216 28 215.552 28 215C28 214.448 27.5523 214 27 214H21ZM17 212H15C13.8954 212 13 212.895 13 214H19C19 212.895 18.1046 212 17 212ZM24 216H8V234C8 235.105 8.89543 236 10 236H22C23.1046 236 24 235.105 24 234V216Z" fill="#3A3A38"/><path fill-rule="evenodd" clip-rule="evenodd" d="M89 224C89 225.537 88.4223 226.938 87.4722 228H94.5278C93.5777 226.938 93 225.537 93 224C93 220.686 95.6863 218 99 218C102.314 218 105 220.686 105 224C105 227.314 102.314 230 99 230H83C79.6863 230 77 227.314 77 224C77 220.686 79.6863 218 83 218C86.3137 218 89 220.686 89 224ZM83 228C85.2091 228 87 226.209 87 224C87 221.791 85.2091 220 83 220C80.7909 220 79 221.791 79 224C79 226.209 80.7909 228 83 228ZM99 228C101.209 228 103 226.209 103 224C103 221.791 101.209 220 99 220C96.7909 220 95 221.791 95 224C95 226.209 96.7909 228 99 228Z" fill="#3A3A38"/><path fill-rule="evenodd" clip-rule="evenodd" d="M166 210C165.448 210 165 210.448 165 211V212C165 212.017 165 212.033 165.001 212.049C159.947 212.55 156 216.814 156 222V224.127C156 225.314 155.473 226.439 154.561 227.199L154.103 227.581C153.404 228.163 153 229.026 153 229.935C153 231.628 154.372 233 156.065 233H161C161 235.761 163.239 238 166 238C168.761 238 171 235.761 171 233H175.818C177.575 233 179 231.575 179 229.818C179 228.974 178.665 228.165 178.068 227.568L177.172 226.672C176.421 225.921 176 224.904 176 223.843V222C176 216.814 172.053 212.55 166.999 212.049C167 212.033 167 212.017 167 212V211C167 210.448 166.552 210 166 210ZM174 222C174 217.582 170.418 214 166 214C161.582 214 158 217.582 158 222V225.063C158 226.25 157.473 227.376 156.561 228.136L155.383 229.118C155.14 229.32 155 229.619 155 229.935C155 230.523 155.477 231 156.065 231H175.818C176.471 231 177 230.471 177 229.818C177 229.505 176.875 229.204 176.654 228.982L175.172 227.5C174.421 226.75 174 225.732 174 224.672V222ZM169 233H163C163 234.657 164.343 236 166 236C167.657 236 169 234.657 169 233Z" fill="#3A3A38"/><path d="M232 217C231.448 217 231 217.448 231 218C231 218.552 231.448 219 232 219H234C234.552 219 235 218.552 235 218C235 217.448 234.552 217 234 217H232Z" fill="#3A3A38"/><path d="M231 222C231 221.448 231.448 221 232 221H237C237.552 221 238 221.448 238 222C238 222.552 237.552 223 237 223H232C231.448 223 231 222.552 231 222Z" fill="#3A3A38"/><path d="M232 225C231.448 225 231 225.448 231 226C231 226.552 231.448 227 232 227H237C237.552 227 238 226.552 238 226C238 225.448 237.552 225 237 225H232Z" fill="#3A3A38"/><path fill-rule="evenodd" clip-rule="evenodd" d="M240.127 234.126L240.564 234.33C240.672 234.382 240.789 234.416 240.911 234.427C240.968 234.432 241.024 234.432 241.079 234.428C241.204 234.418 241.325 234.384 241.436 234.33L241.873 234.126C243.462 233.384 245.194 233 246.948 233H253C254.105 233 255 232.105 255 231V215C255 213.895 254.105 213 253 213H246.948C245.194 213 243.462 213.384 241.873 214.126L241 214.533L240.127 214.126C238.538 213.384 236.806 213 235.052 213H229C227.895 213 227 213.895 227 215V231C227 232.105 227.895 233 229 233H235.052C236.806 233 238.538 233.384 240.127 234.126ZM240 216.274L239.281 215.938C237.957 215.32 236.513 215 235.052 215H229L229 231H235.052C236.745 231 238.421 231.307 240 231.904V216.274ZM246.948 231C245.255 231 243.579 231.307 242 231.904V216.274L242.719 215.938C244.043 215.32 245.487 215 246.948 215H253V231H246.948Z" fill="#3A3A38"/><path fill-rule="evenodd" clip-rule="evenodd" d="M14.9713 290.951C13.6382 290.211 12 291.175 12 292.7V299.301C12 300.825 13.6382 301.789 14.9713 301.049L20.9122 297.748C22.2838 296.986 22.2838 295.014 20.9122 294.252L14.9713 290.951ZM14 292.7L19.9409 296L14 299.301L14 292.7Z" fill="#3A3A38"/><path fill-rule="evenodd" clip-rule="evenodd" d="M4 282C2.89543 282 2 282.895 2 284V303C2 304.657 3.34315 306 5 306H27C28.6569 306 30 304.657 30 303V289C30 287.343 28.6569 286 27 286H14.8333L13.0788 282.992C12.7204 282.378 12.0626 282 11.3513 282H4ZM11.3513 284H4V286H12.5179L11.3513 284ZM4 303V288H27C27.5523 288 28 288.448 28 289V303C28 303.552 27.5523 304 27 304H5C4.44772 304 4 303.552 4 303Z" fill="#3A3A38"/><path d="M98.5931 284.418L99.2189 282.749C99.3162 282.489 99.6834 282.489 99.7807 282.749L100.406 284.418C100.437 284.499 100.501 284.563 100.582 284.593L102.251 285.219C102.51 285.316 102.51 285.683 102.251 285.781L100.582 286.406C100.501 286.437 100.437 286.501 100.406 286.582L99.7807 288.251C99.6834 288.51 99.3162 288.51 99.2189 288.251L98.5931 286.582C98.5627 286.501 98.4987 286.437 98.4176 286.406L96.7489 285.781C96.4893 285.683 96.4893 285.316 96.7489 285.219L98.4176 284.593C98.4987 284.563 98.5627 284.499 98.5931 284.418Z" fill="#3A3A38"/><path fill-rule="evenodd" clip-rule="evenodd" d="M89.936 283.497C89.6115 282.632 88.3878 282.632 88.0633 283.497L85.6138 290.029C85.5124 290.3 85.299 290.513 85.0286 290.614L78.4965 293.064C77.6314 293.388 77.6314 294.612 78.4965 294.936L85.0286 297.386C85.299 297.487 85.5124 297.701 85.6138 297.971L88.0633 304.503C88.3878 305.368 89.6115 305.368 89.936 304.503L92.3855 297.971C92.4869 297.701 92.7003 297.487 92.9707 297.386L99.5028 294.936C100.368 294.612 100.368 293.388 99.5028 293.064L92.9707 290.614C92.7003 290.513 92.4869 290.3 92.3855 290.029L89.936 283.497ZM92.2685 292.487L96.3037 294L92.2685 295.513C91.4572 295.818 90.8171 296.458 90.5129 297.269L88.9997 301.304L87.4865 297.269C87.1822 296.458 86.5421 295.818 85.7308 295.513L81.6957 294L85.7308 292.487C86.5421 292.183 87.1822 291.543 87.4865 290.731L88.9997 286.696L90.5129 290.731C90.8171 291.543 91.4572 292.183 92.2685 292.487Z" fill="#3A3A38"/><path d="M99.2189 299.749L98.5931 301.418C98.5627 301.499 98.4987 301.563 98.4176 301.593L96.7489 302.219C96.4893 302.316 96.4893 302.683 96.7489 302.781L98.4176 303.406C98.4987 303.437 98.5627 303.501 98.5931 303.582L99.2189 305.251C99.3162 305.51 99.6834 305.51 99.7807 305.251L100.406 303.582C100.437 303.501 100.501 303.437 100.582 303.406L102.251 302.781C102.51 302.683 102.51 302.316 102.251 302.219L100.582 301.593C100.501 301.563 100.437 301.499 100.406 301.418L99.7807 299.749C99.6834 299.489 99.3162 299.489 99.2189 299.749Z" fill="#3A3A38"/><path fill-rule="evenodd" clip-rule="evenodd" d="M165 285C165 287.419 163.282 289.437 161 289.9V293H167C168.907 293 170.502 291.665 170.903 289.879C168.669 289.379 167 287.385 167 285C167 282.239 169.239 280 172 280C174.761 280 177 282.239 177 285C177 287.443 175.247 289.477 172.931 289.913C172.491 292.794 170.003 295 167 295H161V298.1C163.282 298.563 165 300.581 165 303C165 305.761 162.761 308 160 308C157.239 308 155 305.761 155 303C155 300.581 156.718 298.563 159 298.1L159 289.9C156.718 289.437 155 287.419 155 285C155 282.239 157.239 280 160 280C162.761 280 165 282.239 165 285ZM160 288C161.657 288 163 286.657 163 285C163 283.343 161.657 282 160 282C158.343 282 157 283.343 157 285C157 286.657 158.343 288 160 288ZM160 306C161.657 306 163 304.657 163 303C163 301.343 161.657 300 160 300C158.343 300 157 301.343 157 303C157 304.657 158.343 306 160 306ZM175 285C175 286.657 173.657 288 172 288C170.343 288 169 286.657 169 285C169 283.343 170.343 282 172 282C173.657 282 175 283.343 175 285Z" fill="#3A3A38"/><path fill-rule="evenodd" clip-rule="evenodd" d="M253 283H229V297H253V283ZM229 281C227.895 281 227 281.895 227 283V297C227 298.105 227.895 299 229 299H253C254.105 299 255 298.105 255 297V283C255 281.895 254.105 281 253 281H229Z" fill="#3A3A38"/><path fill-rule="evenodd" clip-rule="evenodd" d="M237.406 297.086C237.911 297.31 238.138 297.901 237.914 298.406L233.914 307.406C233.69 307.911 233.099 308.138 232.594 307.914C232.089 307.69 231.862 307.099 232.086 306.594L236.086 297.594C236.31 297.089 236.901 296.862 237.406 297.086Z" fill="#3A3A38"/><path fill-rule="evenodd" clip-rule="evenodd" d="M244.594 297.086C244.089 297.31 243.862 297.901 244.086 298.406L248.086 307.406C248.31 307.911 248.901 308.138 249.406 307.914C249.911 307.69 250.138 307.099 249.914 306.594L245.914 297.594C245.69 297.089 245.099 296.862 244.594 297.086Z" fill="#3A3A38"/><path fill-rule="evenodd" clip-rule="evenodd" d="M6.6283 370.108L3.59222 364.85C2.78319 363.448 3.2633 361.657 4.66458 360.848C4.94598 360.685 5.24314 360.575 5.54492 360.513L4.93476 359.456C4.12573 358.055 4.60585 356.263 6.00712 355.454C6.28868 355.292 6.58601 355.181 6.88797 355.12L6.77748 354.928C5.96845 353.527 6.44857 351.735 7.84984 350.926C9.25112 350.117 11.0429 350.597 11.8519 351.999L11.9624 352.19C12.1665 351.959 12.4107 351.757 12.6921 351.595C14.0934 350.786 15.8852 351.266 16.6942 352.667L21.6934 361.326L22.4756 359.382C23.0513 357.951 24.5903 357.202 26.0798 357.627C27.7258 358.096 28.7227 359.823 28.3063 361.483L26.5249 368.587L25.6297 371.286C25.1784 372.646 24.2567 373.783 23.0324 374.49L19.4201 376.576C15.6558 378.749 10.7848 377.359 8.54043 373.472L6.60586 370.121L6.6283 370.108ZM8.84984 352.658C9.29453 352.402 9.86315 352.554 10.1199 352.999L11.6056 355.572L11.6198 355.597L16.1548 363.452C16.4309 363.93 17.0425 364.094 17.5208 363.818C17.6427 363.747 17.7441 363.655 17.8231 363.549C17.841 363.525 17.8578 363.5 17.8733 363.475C18.0586 363.172 18.0768 362.78 17.8869 362.451L13.3438 354.583C13.0983 354.14 13.2521 353.581 13.6921 353.327C14.1368 353.07 14.7055 353.222 14.9622 353.667L20.9972 364.12C21.2733 364.598 21.8849 364.762 22.3632 364.486C22.5994 364.349 22.759 364.131 22.8267 363.888L24.3149 360.189C24.5191 359.682 25.065 359.416 25.5933 359.567C26.1771 359.733 26.5307 360.346 26.383 360.935L24.6198 367.966L23.748 370.594C23.4471 371.501 22.8326 372.259 22.0165 372.73L18.4041 374.816C15.5809 376.446 11.9277 375.404 10.2444 372.488L8.92192 370.198C8.90193 370.088 8.86295 369.979 8.80374 369.876L5.32427 363.85C5.06753 363.405 5.21989 362.836 5.66458 362.58C6.1046 362.326 6.66597 362.472 6.92644 362.906L9.46976 367.311C9.74591 367.789 10.3575 367.953 10.8358 367.677C11.3141 367.401 11.478 366.789 11.2018 366.311L10.71 365.459L10.7017 365.445L8.66669 361.92L8.65223 361.895L6.66681 358.456C6.41007 358.012 6.56243 357.443 7.00712 357.186C7.45181 356.93 8.02043 357.082 8.27718 357.527L12.8122 365.381C13.0883 365.86 13.6999 366.024 14.1782 365.747C14.6565 365.471 14.8204 364.86 14.5442 364.381L14.3076 363.972C14.3033 363.964 14.299 363.956 14.2945 363.948L8.50953 353.928C8.25279 353.484 8.40515 352.915 8.84984 352.658Z" fill="#3A3A38"/><path d="M103.707 351.293C104.098 351.683 104.098 352.317 103.707 352.707L95.4142 361H101C101.552 361 102 361.448 102 362C102 362.552 101.552 363 101 363H93L92.997 363C92.7441 362.999 92.4914 362.903 92.2975 362.712L92.2864 362.701C92.1937 362.606 92.1236 362.498 92.0759 362.383C92.027 362.265 92 362.136 92 362V354C92 353.448 92.4477 353 93 353C93.5523 353 94 353.448 94 354V359.586L102.293 351.293C102.683 350.902 103.317 350.902 103.707 351.293Z" fill="#3A3A38"/><path d="M78.2929 376.707C77.9024 376.317 77.9024 375.683 78.2929 375.293L86.5858 367H81C80.4477 367 80 366.552 80 366C80 365.448 80.4477 365 81 365L89 365L89.003 365C89.2559 365.001 89.5086 365.097 89.7025 365.288L89.7136 365.299C89.8063 365.394 89.8764 365.502 89.9241 365.617C89.973 365.735 90 365.864 90 366L90 374C90 374.552 89.5523 375 89 375C88.4477 375 88 374.552 88 374L88 368.414L79.7071 376.707C79.3166 377.098 78.6834 377.098 78.2929 376.707Z" fill="#3A3A38"/><path fill-rule="evenodd" clip-rule="evenodd" d="M160 352C160.552 352 161 352.448 161 353V354H171V353C171 352.448 171.448 352 172 352C172.552 352 173 352.448 173 353V354H174C176.209 354 178 355.791 178 358V372C178 374.209 176.209 376 174 376H158C155.791 376 154 374.209 154 372V358C154 355.791 155.791 354 158 354H159V353C159 352.448 159.448 352 160 352ZM171 356V357C171 357.552 171.448 358 172 358C172.552 358 173 357.552 173 357V356H174C175.105 356 176 356.895 176 358V360H156V358C156 356.895 156.895 356 158 356H159V357C159 357.552 159.448 358 160 358C160.552 358 161 357.552 161 357V356H171ZM156 362V372C156 373.105 156.895 374 158 374H174C175.105 374 176 373.105 176 372V362H156Z" fill="#3A3A38"/><path fill-rule="evenodd" clip-rule="evenodd" d="M230.067 364C230.067 357.962 234.962 353.067 241 353.067C247.039 353.067 251.934 357.962 251.934 364C251.934 366.801 250.882 369.354 249.15 371.289C248.757 371.728 248.794 372.402 249.233 372.795C249.672 373.188 250.347 373.15 250.739 372.711C252.808 370.4 254.067 367.346 254.067 364C254.067 356.783 248.217 350.933 241 350.933C233.784 350.933 227.934 356.783 227.934 364C227.934 367.346 229.193 370.4 231.261 372.711C231.654 373.15 232.328 373.188 232.767 372.795C233.206 372.402 233.244 371.728 232.851 371.289C231.119 369.354 230.067 366.801 230.067 364ZM241 357.067C237.171 357.067 234.067 360.171 234.067 364C234.067 365.776 234.734 367.395 235.832 368.622C236.225 369.061 236.188 369.735 235.749 370.128C235.31 370.521 234.635 370.484 234.242 370.045C232.807 368.441 231.934 366.321 231.934 364C231.934 358.993 235.993 354.933 241 354.933C246.008 354.933 250.067 358.993 250.067 364C250.067 366.321 249.193 368.441 247.758 370.045C247.365 370.484 246.691 370.521 246.252 370.128C245.813 369.735 245.776 369.061 246.168 368.622C247.267 367.395 247.934 365.776 247.934 364C247.934 360.171 244.829 357.067 241 357.067ZM240.067 364C240.067 363.485 240.485 363.067 241 363.067C241.516 363.067 241.934 363.485 241.934 364C241.934 364.515 241.516 364.933 241 364.933C240.485 364.933 240.067 364.515 240.067 364ZM241 360.933C239.307 360.933 237.934 362.306 237.934 364C237.934 365.694 239.307 367.067 241 367.067C242.694 367.067 244.067 365.694 244.067 364C244.067 362.306 242.694 360.933 241 360.933ZM238.407 374.867L241 371.497L243.594 374.867H238.407ZM239.944 369.372C240.477 368.679 241.523 368.679 242.057 369.372L246.276 374.853C246.951 375.73 246.326 377 245.219 377H236.781C235.675 377 235.05 375.73 235.725 374.853L239.944 369.372Z" fill="#3A3A38"/></svg>