<svg width="232" height="136" viewBox="0 0 232 136" fill="none" xmlns="http://www.w3.org/2000/svg"><rect x="0.5" y="0.5" width="231" height="55" rx="5.5" fill="white"/><rect x="0.5" y="0.5" width="231" height="55" rx="5.5" stroke="#EBEAE1"/><path fill-rule="evenodd" clip-rule="evenodd" d="M34.0669 23.8081C34.311 24.0521 34.311 24.4479 34.0669 24.6919L26.6964 32.0625C26.2082 32.5507 25.4168 32.5507 24.9286 32.0625L21.9331 29.0669C21.689 28.8229 21.689 28.4271 21.9331 28.1831C22.1771 27.939 22.5729 27.939 22.8169 28.1831L25.8125 31.1786L33.1831 23.8081C33.4271 23.564 33.8229 23.564 34.0669 23.8081Z" fill="#127440"/><path d="M48.6761 23.9119V22.8182H56.3125V23.9119H53.1108V33H51.8778V23.9119H48.6761ZM59.1456 28.4062V33H57.9723V22.8182H59.1456V26.5568H59.245C59.424 26.1624 59.6925 25.8492 60.0504 25.6172C60.4117 25.3819 60.8923 25.2642 61.4922 25.2642C62.0125 25.2642 62.4683 25.3686 62.8594 25.5774C63.2505 25.7829 63.5537 26.0994 63.7692 26.527C63.9879 26.9512 64.0973 27.4915 64.0973 28.1477V33H62.924V28.2273C62.924 27.6207 62.7666 27.1518 62.4517 26.8203C62.1401 26.4856 61.7076 26.3182 61.1541 26.3182C60.7696 26.3182 60.4249 26.3994 60.12 26.5618C59.8184 26.7242 59.5798 26.9612 59.4041 27.2727C59.2318 27.5843 59.1456 27.9621 59.1456 28.4062ZM66.1598 33V25.3636H67.3331V33H66.1598ZM66.7564 24.0909C66.5277 24.0909 66.3305 24.013 66.1647 23.8572C66.0023 23.7015 65.9211 23.5142 65.9211 23.2955C65.9211 23.0767 66.0023 22.8894 66.1647 22.7337C66.3305 22.5779 66.5277 22.5 66.7564 22.5C66.9851 22.5 67.1806 22.5779 67.343 22.7337C67.5087 22.8894 67.5916 23.0767 67.5916 23.2955C67.5916 23.5142 67.5087 23.7015 67.343 23.8572C67.1806 24.013 66.9851 24.0909 66.7564 24.0909ZM74.8071 27.0739L73.7531 27.3722C73.6869 27.1965 73.5891 27.0258 73.4598 26.8601C73.3339 26.6911 73.1615 26.5518 72.9428 26.4425C72.724 26.3331 72.444 26.2784 72.1026 26.2784C71.6353 26.2784 71.2458 26.3861 70.9343 26.6016C70.626 26.8137 70.4719 27.0838 70.4719 27.4119C70.4719 27.7036 70.578 27.9339 70.7901 28.103C71.0022 28.272 71.3336 28.4129 71.7844 28.5256L72.9179 28.804C73.6007 28.9697 74.1094 29.2232 74.4442 29.5646C74.779 29.9027 74.9463 30.3385 74.9463 30.8722C74.9463 31.3097 74.8204 31.7008 74.5685 32.0455C74.3199 32.3902 73.9719 32.6619 73.5245 32.8608C73.077 33.0597 72.5567 33.1591 71.9634 33.1591C71.1845 33.1591 70.5398 32.9901 70.0294 32.652C69.519 32.3139 69.1959 31.8201 69.06 31.1705L70.1736 30.892C70.2797 31.303 70.4802 31.6113 70.7752 31.8168C71.0735 32.0223 71.4629 32.125 71.9435 32.125C72.4904 32.125 72.9246 32.009 73.246 31.777C73.5709 31.5417 73.7333 31.2599 73.7333 30.9318C73.7333 30.6667 73.6405 30.4446 73.4549 30.2656C73.2692 30.0833 72.9842 29.9474 72.5997 29.858L71.327 29.5597C70.6277 29.3939 70.1139 29.1371 69.7858 28.7891C69.461 28.4377 69.2986 27.9986 69.2986 27.4716C69.2986 27.0407 69.4196 26.6596 69.6615 26.3281C69.9068 25.9967 70.2399 25.7365 70.6608 25.5476C71.0851 25.3587 71.5656 25.2642 72.1026 25.2642C72.8583 25.2642 73.4515 25.4299 73.8824 25.7614C74.3166 26.0928 74.6248 26.5303 74.8071 27.0739ZM80.482 33V25.3636H81.6553V33H80.482ZM81.0786 24.0909C80.8499 24.0909 80.6527 24.013 80.487 23.8572C80.3246 23.7015 80.2434 23.5142 80.2434 23.2955C80.2434 23.0767 80.3246 22.8894 80.487 22.7337C80.6527 22.5779 80.8499 22.5 81.0786 22.5C81.3073 22.5 81.5028 22.5779 81.6652 22.7337C81.8309 22.8894 81.9138 23.0767 81.9138 23.2955C81.9138 23.5142 81.8309 23.7015 81.6652 23.8572C81.5028 24.013 81.3073 24.0909 81.0786 24.0909ZM89.1293 27.0739L88.0754 27.3722C88.0091 27.1965 87.9113 27.0258 87.782 26.8601C87.6561 26.6911 87.4837 26.5518 87.265 26.4425C87.0462 26.3331 86.7662 26.2784 86.4248 26.2784C85.9575 26.2784 85.568 26.3861 85.2565 26.6016C84.9482 26.8137 84.7941 27.0838 84.7941 27.4119C84.7941 27.7036 84.9002 27.9339 85.1123 28.103C85.3244 28.272 85.6559 28.4129 86.1066 28.5256L87.2401 28.804C87.9229 28.9697 88.4317 29.2232 88.7664 29.5646C89.1012 29.9027 89.2685 30.3385 89.2685 30.8722C89.2685 31.3097 89.1426 31.7008 88.8907 32.0455C88.6421 32.3902 88.2941 32.6619 87.8467 32.8608C87.3992 33.0597 86.8789 33.1591 86.2856 33.1591C85.5067 33.1591 84.8621 32.9901 84.3516 32.652C83.8412 32.3139 83.5181 31.8201 83.3822 31.1705L84.4958 30.892C84.6019 31.303 84.8024 31.6113 85.0974 31.8168C85.3957 32.0223 85.7851 32.125 86.2657 32.125C86.8126 32.125 87.2468 32.009 87.5683 31.777C87.8931 31.5417 88.0555 31.2599 88.0555 30.9318C88.0555 30.6667 87.9627 30.4446 87.7771 30.2656C87.5915 30.0833 87.3064 29.9474 86.922 29.858L85.6492 29.5597C84.9499 29.3939 84.4362 29.1371 84.108 28.7891C83.7832 28.4377 83.6208 27.9986 83.6208 27.4716C83.6208 27.0407 83.7418 26.6596 83.9837 26.3281C84.229 25.9967 84.5621 25.7365 84.983 25.5476C85.4073 25.3587 85.8879 25.2642 86.4248 25.2642C87.1805 25.2642 87.7738 25.4299 88.2046 25.7614C88.6388 26.0928 88.9471 26.5303 89.1293 27.0739ZM97.0514 33.179C96.5675 33.179 96.1283 33.0878 95.7339 32.9055C95.3395 32.7199 95.0263 32.4531 94.7943 32.1051C94.5623 31.7538 94.4463 31.3295 94.4463 30.8324C94.4463 30.3949 94.5324 30.0402 94.7048 29.7685C94.8771 29.4934 95.1075 29.2779 95.3958 29.1222C95.6842 28.9664 96.0024 28.8504 96.3504 28.7741C96.7017 28.6946 97.0547 28.6316 97.4093 28.5852C97.8733 28.5256 98.2495 28.4808 98.5379 28.451C98.8295 28.4179 99.0417 28.3632 99.1742 28.2869C99.3101 28.2107 99.3781 28.0781 99.3781 27.8892V27.8494C99.3781 27.3589 99.2438 26.9777 98.9754 26.706C98.7102 26.4342 98.3075 26.2983 97.7673 26.2983C97.2071 26.2983 96.768 26.4209 96.4498 26.6662C96.1316 26.9115 95.9079 27.1733 95.7786 27.4517L94.665 27.054C94.8639 26.59 95.129 26.2287 95.4605 25.9702C95.7952 25.7083 96.1598 25.526 96.5542 25.4233C96.9519 25.3172 97.343 25.2642 97.7275 25.2642C97.9728 25.2642 98.2545 25.294 98.5727 25.3537C98.8942 25.41 99.2041 25.5277 99.5024 25.7067C99.804 25.8857 100.054 26.1558 100.253 26.517C100.452 26.8783 100.551 27.3622 100.551 27.9688V33H99.3781V31.9659H99.3184C99.2389 32.1316 99.1063 32.3089 98.9207 32.4979C98.7351 32.6868 98.4882 32.8475 98.1799 32.9801C97.8717 33.1127 97.4955 33.179 97.0514 33.179ZM97.2303 32.125C97.6944 32.125 98.0855 32.0339 98.4036 31.8516C98.7251 31.6693 98.9671 31.4339 99.1295 31.1456C99.2952 30.8572 99.3781 30.554 99.3781 30.2358V29.1619C99.3284 29.2216 99.219 29.2763 99.0499 29.326C98.8842 29.3724 98.692 29.4138 98.4732 29.4503C98.2578 29.4834 98.0473 29.5133 97.8418 29.5398C97.6397 29.563 97.4756 29.5829 97.3497 29.5994C97.0447 29.6392 96.7597 29.7038 96.4945 29.7933C96.2327 29.8795 96.0206 30.0104 95.8582 30.1861C95.6991 30.3584 95.6195 30.5937 95.6195 30.892C95.6195 31.2997 95.7704 31.608 96.072 31.8168C96.3769 32.0223 96.763 32.125 97.2303 32.125ZM106.462 33V25.3636H107.596V26.5568H107.695C107.854 26.1491 108.111 25.8326 108.466 25.6072C108.821 25.3786 109.246 25.2642 109.744 25.2642C110.247 25.2642 110.667 25.3786 111.001 25.6072C111.34 25.8326 111.603 26.1491 111.792 26.5568H111.871C112.067 26.1624 112.36 25.8492 112.751 25.6172C113.143 25.3819 113.612 25.2642 114.158 25.2642C114.841 25.2642 115.4 25.478 115.834 25.9055C116.268 26.3298 116.485 26.991 116.485 27.8892V33H115.312V27.8892C115.312 27.3258 115.158 26.9231 114.849 26.6811C114.541 26.4392 114.178 26.3182 113.761 26.3182C113.224 26.3182 112.808 26.4806 112.513 26.8054C112.218 27.1269 112.07 27.5346 112.07 28.0284V33H110.877V27.7699C110.877 27.3357 110.736 26.986 110.455 26.7209C110.173 26.4524 109.81 26.3182 109.366 26.3182C109.061 26.3182 108.776 26.3994 108.511 26.5618C108.249 26.7242 108.037 26.9496 107.874 27.2379C107.715 27.523 107.636 27.8527 107.636 28.2273V33H106.462ZM121.748 33.1591C121.012 33.1591 120.378 32.9967 119.844 32.6719C119.314 32.3438 118.904 31.8864 118.616 31.2997C118.331 30.7098 118.188 30.0237 118.188 29.2415C118.188 28.4593 118.331 27.7699 118.616 27.1733C118.904 26.5734 119.305 26.1061 119.819 25.7713C120.336 25.4332 120.939 25.2642 121.629 25.2642C122.026 25.2642 122.419 25.3305 122.807 25.4631C123.195 25.5956 123.548 25.8111 123.866 26.1094C124.184 26.4044 124.438 26.7955 124.627 27.2827C124.816 27.7699 124.91 28.3698 124.91 29.0824V29.5795H119.024V28.5653H123.717C123.717 28.1345 123.631 27.75 123.458 27.4119C123.289 27.0739 123.047 26.8071 122.732 26.6115C122.421 26.416 122.053 26.3182 121.629 26.3182C121.161 26.3182 120.757 26.4342 120.416 26.6662C120.078 26.8949 119.817 27.1932 119.635 27.5611C119.453 27.929 119.362 28.3234 119.362 28.7443V29.4205C119.362 29.9972 119.461 30.486 119.66 30.8871C119.862 31.2848 120.142 31.5881 120.5 31.7969C120.858 32.0024 121.274 32.1051 121.748 32.1051C122.056 32.1051 122.335 32.062 122.583 31.9759C122.835 31.8864 123.052 31.7538 123.235 31.5781C123.417 31.3991 123.558 31.1771 123.657 30.9119L124.791 31.2301C124.671 31.6146 124.471 31.9527 124.189 32.2443C123.907 32.5327 123.559 32.758 123.145 32.9205C122.731 33.0795 122.265 33.1591 121.748 33.1591ZM132.02 27.0739L130.966 27.3722C130.9 27.1965 130.802 27.0258 130.673 26.8601C130.547 26.6911 130.374 26.5518 130.156 26.4425C129.937 26.3331 129.657 26.2784 129.315 26.2784C128.848 26.2784 128.459 26.3861 128.147 26.6016C127.839 26.8137 127.685 27.0838 127.685 27.4119C127.685 27.7036 127.791 27.9339 128.003 28.103C128.215 28.272 128.546 28.4129 128.997 28.5256L130.131 28.804C130.813 28.9697 131.322 29.2232 131.657 29.5646C131.992 29.9027 132.159 30.3385 132.159 30.8722C132.159 31.3097 132.033 31.7008 131.781 32.0455C131.533 32.3902 131.185 32.6619 130.737 32.8608C130.29 33.0597 129.769 33.1591 129.176 33.1591C128.397 33.1591 127.753 32.9901 127.242 32.652C126.732 32.3139 126.409 31.8201 126.273 31.1705L127.386 30.892C127.492 31.303 127.693 31.6113 127.988 31.8168C128.286 32.0223 128.676 32.125 129.156 32.125C129.703 32.125 130.137 32.009 130.459 31.777C130.784 31.5417 130.946 31.2599 130.946 30.9318C130.946 30.6667 130.853 30.4446 130.668 30.2656C130.482 30.0833 130.197 29.9474 129.812 29.858L128.54 29.5597C127.84 29.3939 127.327 29.1371 126.999 28.7891C126.674 28.4377 126.511 27.9986 126.511 27.4716C126.511 27.0407 126.632 26.6596 126.874 26.3281C127.12 25.9967 127.453 25.7365 127.874 25.5476C128.298 25.3587 128.778 25.2642 129.315 25.2642C130.071 25.2642 130.664 25.4299 131.095 25.7614C131.529 26.0928 131.838 26.5303 132.02 27.0739ZM139.25 27.0739L138.196 27.3722C138.13 27.1965 138.032 27.0258 137.903 26.8601C137.777 26.6911 137.605 26.5518 137.386 26.4425C137.167 26.3331 136.887 26.2784 136.546 26.2784C136.078 26.2784 135.689 26.3861 135.377 26.6016C135.069 26.8137 134.915 27.0838 134.915 27.4119C134.915 27.7036 135.021 27.9339 135.233 28.103C135.445 28.272 135.777 28.4129 136.228 28.5256L137.361 28.804C138.044 28.9697 138.553 29.2232 138.887 29.5646C139.222 29.9027 139.39 30.3385 139.39 30.8722C139.39 31.3097 139.264 31.7008 139.012 32.0455C138.763 32.3902 138.415 32.6619 137.968 32.8608C137.52 33.0597 137 33.1591 136.407 33.1591C135.628 33.1591 134.983 32.9901 134.473 32.652C133.962 32.3139 133.639 31.8201 133.503 31.1705L134.617 30.892C134.723 31.303 134.923 31.6113 135.218 31.8168C135.517 32.0223 135.906 32.125 136.387 32.125C136.934 32.125 137.368 32.009 137.689 31.777C138.014 31.5417 138.176 31.2599 138.176 30.9318C138.176 30.6667 138.084 30.4446 137.898 30.2656C137.712 30.0833 137.427 29.9474 137.043 29.858L135.77 29.5597C135.071 29.3939 134.557 29.1371 134.229 28.7891C133.904 28.4377 133.742 27.9986 133.742 27.4716C133.742 27.0407 133.863 26.6596 134.105 26.3281C134.35 25.9967 134.683 25.7365 135.104 25.5476C135.528 25.3587 136.009 25.2642 136.546 25.2642C137.301 25.2642 137.895 25.4299 138.326 25.7614C138.76 26.0928 139.068 26.5303 139.25 27.0739ZM143.319 33.179C142.835 33.179 142.396 33.0878 142.001 32.9055C141.607 32.7199 141.294 32.4531 141.062 32.1051C140.83 31.7538 140.714 31.3295 140.714 30.8324C140.714 30.3949 140.8 30.0402 140.972 29.7685C141.145 29.4934 141.375 29.2779 141.663 29.1222C141.952 28.9664 142.27 28.8504 142.618 28.7741C142.969 28.6946 143.322 28.6316 143.677 28.5852C144.141 28.5256 144.517 28.4808 144.805 28.451C145.097 28.4179 145.309 28.3632 145.442 28.2869C145.578 28.2107 145.646 28.0781 145.646 27.8892V27.8494C145.646 27.3589 145.511 26.9777 145.243 26.706C144.978 26.4342 144.575 26.2983 144.035 26.2983C143.475 26.2983 143.035 26.4209 142.717 26.6662C142.399 26.9115 142.175 27.1733 142.046 27.4517L140.932 27.054C141.131 26.59 141.396 26.2287 141.728 25.9702C142.063 25.7083 142.427 25.526 142.822 25.4233C143.219 25.3172 143.611 25.2642 143.995 25.2642C144.24 25.2642 144.522 25.294 144.84 25.3537C145.162 25.41 145.472 25.5277 145.77 25.7067C146.071 25.8857 146.322 26.1558 146.521 26.517C146.719 26.8783 146.819 27.3622 146.819 27.9688V33H145.646V31.9659H145.586C145.506 32.1316 145.374 32.3089 145.188 32.4979C145.003 32.6868 144.756 32.8475 144.447 32.9801C144.139 33.1127 143.763 33.179 143.319 33.179ZM143.498 32.125C143.962 32.125 144.353 32.0339 144.671 31.8516C144.993 31.6693 145.235 31.4339 145.397 31.1456C145.563 30.8572 145.646 30.554 145.646 30.2358V29.1619C145.596 29.2216 145.486 29.2763 145.317 29.326C145.152 29.3724 144.959 29.4138 144.741 29.4503C144.525 29.4834 144.315 29.5133 144.109 29.5398C143.907 29.563 143.743 29.5829 143.617 29.5994C143.312 29.6392 143.027 29.7038 142.762 29.7933C142.5 29.8795 142.288 30.0104 142.126 30.1861C141.967 30.3584 141.887 30.5937 141.887 30.892C141.887 31.2997 142.038 31.608 142.339 31.8168C142.644 32.0223 143.03 32.125 143.498 32.125ZM151.959 36.0227C151.392 36.0227 150.905 35.9498 150.497 35.804C150.089 35.6615 149.75 35.4725 149.478 35.2372C149.209 35.0052 148.996 34.7566 148.837 34.4915L149.771 33.8352C149.877 33.9744 150.012 34.1335 150.174 34.3125C150.336 34.4948 150.558 34.6522 150.84 34.7848C151.125 34.9207 151.498 34.9886 151.959 34.9886C152.575 34.9886 153.084 34.8395 153.485 34.5412C153.886 34.2429 154.087 33.7756 154.087 33.1392V31.5881H153.987C153.901 31.7273 153.778 31.8996 153.619 32.1051C153.463 32.3073 153.238 32.4879 152.943 32.647C152.651 32.8028 152.257 32.8807 151.76 32.8807C151.143 32.8807 150.59 32.7348 150.099 32.4432C149.612 32.1515 149.226 31.7273 148.941 31.1705C148.659 30.6136 148.518 29.9375 148.518 29.142C148.518 28.3598 148.656 27.6787 148.931 27.0987C149.206 26.5154 149.589 26.0646 150.079 25.7464C150.57 25.425 151.137 25.2642 151.78 25.2642C152.277 25.2642 152.671 25.3471 152.963 25.5128C153.258 25.6752 153.483 25.8608 153.639 26.0696C153.798 26.2751 153.921 26.4441 154.007 26.5767H154.126V25.3636H155.26V33.2188C155.26 33.875 155.111 34.4086 154.812 34.8196C154.517 35.2339 154.12 35.5372 153.619 35.7294C153.122 35.925 152.569 36.0227 151.959 36.0227ZM151.919 31.8267C152.39 31.8267 152.787 31.719 153.112 31.5036C153.437 31.2881 153.684 30.9782 153.853 30.5739C154.022 30.1695 154.106 29.6856 154.106 29.1222C154.106 28.572 154.024 28.0864 153.858 27.6655C153.692 27.2446 153.447 26.9148 153.122 26.6761C152.797 26.4375 152.396 26.3182 151.919 26.3182C151.422 26.3182 151.008 26.4441 150.676 26.696C150.348 26.9479 150.101 27.286 149.935 27.7102C149.773 28.1345 149.692 28.6051 149.692 29.1222C149.692 29.6525 149.775 30.1214 149.94 30.5291C150.109 30.9335 150.358 31.2517 150.686 31.4837C151.017 31.7124 151.428 31.8267 151.919 31.8267ZM160.525 33.1591C159.79 33.1591 159.155 32.9967 158.621 32.6719C158.091 32.3438 157.682 31.8864 157.393 31.2997C157.108 30.7098 156.966 30.0237 156.966 29.2415C156.966 28.4593 157.108 27.7699 157.393 27.1733C157.682 26.5734 158.083 26.1061 158.596 25.7713C159.113 25.4332 159.717 25.2642 160.406 25.2642C160.804 25.2642 161.196 25.3305 161.584 25.4631C161.972 25.5956 162.325 25.8111 162.643 26.1094C162.961 26.4044 163.215 26.7955 163.404 27.2827C163.593 27.7699 163.687 28.3698 163.687 29.0824V29.5795H157.801V28.5653H162.494C162.494 28.1345 162.408 27.75 162.236 27.4119C162.067 27.0739 161.825 26.8071 161.51 26.6115C161.198 26.416 160.83 26.3182 160.406 26.3182C159.939 26.3182 159.534 26.4342 159.193 26.6662C158.855 26.8949 158.595 27.1932 158.412 27.5611C158.23 27.929 158.139 28.3234 158.139 28.7443V29.4205C158.139 29.9972 158.238 30.486 158.437 30.8871C158.639 31.2848 158.919 31.5881 159.277 31.7969C159.635 32.0024 160.051 32.1051 160.525 32.1051C160.834 32.1051 161.112 32.062 161.361 31.9759C161.612 31.8864 161.83 31.7538 162.012 31.5781C162.194 31.3991 162.335 31.1771 162.434 30.9119L163.568 31.2301C163.449 31.6146 163.248 31.9527 162.966 32.2443C162.685 32.5327 162.337 32.758 161.922 32.9205C161.508 33.0795 161.042 33.1591 160.525 33.1591Z" fill="#26252A"/><path d="M213.442 23.4419C213.686 23.1979 213.686 22.8021 213.442 22.5581C213.198 22.314 212.802 22.314 212.558 22.5581L208 27.1161L203.442 22.5581C203.198 22.314 202.802 22.314 202.558 22.5581C202.314 22.8021 202.314 23.1979 202.558 23.4419L207.116 28L202.558 32.5581C202.314 32.8021 202.314 33.1979 202.558 33.4419C202.802 33.686 203.198 33.686 203.442 33.4419L208 28.8839L212.558 33.4419C212.802 33.686 213.198 33.686 213.442 33.4419C213.686 33.1979 213.686 32.8021 213.442 32.5581L208.884 28L213.442 23.4419Z" fill="#26252A"/><rect y="8" width="4" height="40" rx="2" fill="#127440"/><rect x="0.5" y="80.5" width="231" height="55" rx="5.5" fill="white"/><rect x="0.5" y="80.5" width="231" height="55" rx="5.5" stroke="#EBEAE1"/><path d="M27.9998 105.5C27.6546 105.5 27.3748 105.78 27.3748 106.125V110.5C27.3748 110.845 27.6546 111.125 27.9998 111.125C28.345 111.125 28.6248 110.845 28.6248 110.5V106.125C28.6248 105.78 28.345 105.5 27.9998 105.5Z" fill="#CB2233"/><path d="M28.6248 113C28.6248 113.345 28.345 113.625 27.9998 113.625C27.6546 113.625 27.3748 113.345 27.3748 113C27.3748 112.655 27.6546 112.375 27.9998 112.375C28.345 112.375 28.6248 112.655 28.6248 113Z" fill="#CB2233"/><path fill-rule="evenodd" clip-rule="evenodd" d="M36.2932 114.25L29.0824 101.752C28.6014 100.918 27.398 100.918 26.917 101.752L19.7062 114.25C19.2255 115.084 19.8269 116.125 20.789 116.125H35.2104C36.1725 116.125 36.7739 115.084 36.2932 114.25ZM27.9997 102.376L35.2104 114.875H20.789L27.9997 102.376Z" fill="#CB2233"/><path d="M48.6761 103.912V102.818H56.3125V103.912H53.1108V113H51.8778V103.912H48.6761ZM59.1456 108.406V113H57.9723V102.818H59.1456V106.557H59.245C59.424 106.162 59.6925 105.849 60.0504 105.617C60.4117 105.382 60.8923 105.264 61.4922 105.264C62.0125 105.264 62.4683 105.369 62.8594 105.577C63.2505 105.783 63.5537 106.099 63.7692 106.527C63.9879 106.951 64.0973 107.491 64.0973 108.148V113H62.924V108.227C62.924 107.621 62.7666 107.152 62.4517 106.82C62.1401 106.486 61.7076 106.318 61.1541 106.318C60.7696 106.318 60.4249 106.399 60.12 106.562C59.8184 106.724 59.5798 106.961 59.4041 107.273C59.2318 107.584 59.1456 107.962 59.1456 108.406ZM66.1598 113V105.364H67.3331V113H66.1598ZM66.7564 104.091C66.5277 104.091 66.3305 104.013 66.1647 103.857C66.0023 103.701 65.9211 103.514 65.9211 103.295C65.9211 103.077 66.0023 102.889 66.1647 102.734C66.3305 102.578 66.5277 102.5 66.7564 102.5C66.9851 102.5 67.1806 102.578 67.343 102.734C67.5087 102.889 67.5916 103.077 67.5916 103.295C67.5916 103.514 67.5087 103.701 67.343 103.857C67.1806 104.013 66.9851 104.091 66.7564 104.091ZM74.8071 107.074L73.7531 107.372C73.6869 107.196 73.5891 107.026 73.4598 106.86C73.3339 106.691 73.1615 106.552 72.9428 106.442C72.724 106.333 72.444 106.278 72.1026 106.278C71.6353 106.278 71.2458 106.386 70.9343 106.602C70.626 106.814 70.4719 107.084 70.4719 107.412C70.4719 107.704 70.578 107.934 70.7901 108.103C71.0022 108.272 71.3336 108.413 71.7844 108.526L72.9179 108.804C73.6007 108.97 74.1094 109.223 74.4442 109.565C74.779 109.903 74.9463 110.339 74.9463 110.872C74.9463 111.31 74.8204 111.701 74.5685 112.045C74.3199 112.39 73.9719 112.662 73.5245 112.861C73.077 113.06 72.5567 113.159 71.9634 113.159C71.1845 113.159 70.5398 112.99 70.0294 112.652C69.519 112.314 69.1959 111.82 69.06 111.17L70.1736 110.892C70.2797 111.303 70.4802 111.611 70.7752 111.817C71.0735 112.022 71.4629 112.125 71.9435 112.125C72.4904 112.125 72.9246 112.009 73.246 111.777C73.5709 111.542 73.7333 111.26 73.7333 110.932C73.7333 110.667 73.6405 110.445 73.4549 110.266C73.2692 110.083 72.9842 109.947 72.5997 109.858L71.327 109.56C70.6277 109.394 70.1139 109.137 69.7858 108.789C69.461 108.438 69.2986 107.999 69.2986 107.472C69.2986 107.041 69.4196 106.66 69.6615 106.328C69.9068 105.997 70.2399 105.737 70.6608 105.548C71.0851 105.359 71.5656 105.264 72.1026 105.264C72.8583 105.264 73.4515 105.43 73.8824 105.761C74.3166 106.093 74.6248 106.53 74.8071 107.074ZM80.482 113V105.364H81.6553V113H80.482ZM81.0786 104.091C80.8499 104.091 80.6527 104.013 80.487 103.857C80.3246 103.701 80.2434 103.514 80.2434 103.295C80.2434 103.077 80.3246 102.889 80.487 102.734C80.6527 102.578 80.8499 102.5 81.0786 102.5C81.3073 102.5 81.5028 102.578 81.6652 102.734C81.8309 102.889 81.9138 103.077 81.9138 103.295C81.9138 103.514 81.8309 103.701 81.6652 103.857C81.5028 104.013 81.3073 104.091 81.0786 104.091ZM89.1293 107.074L88.0754 107.372C88.0091 107.196 87.9113 107.026 87.782 106.86C87.6561 106.691 87.4837 106.552 87.265 106.442C87.0462 106.333 86.7662 106.278 86.4248 106.278C85.9575 106.278 85.568 106.386 85.2565 106.602C84.9482 106.814 84.7941 107.084 84.7941 107.412C84.7941 107.704 84.9002 107.934 85.1123 108.103C85.3244 108.272 85.6559 108.413 86.1066 108.526L87.2401 108.804C87.9229 108.97 88.4317 109.223 88.7664 109.565C89.1012 109.903 89.2685 110.339 89.2685 110.872C89.2685 111.31 89.1426 111.701 88.8907 112.045C88.6421 112.39 88.2941 112.662 87.8467 112.861C87.3992 113.06 86.8789 113.159 86.2856 113.159C85.5067 113.159 84.8621 112.99 84.3516 112.652C83.8412 112.314 83.5181 111.82 83.3822 111.17L84.4958 110.892C84.6019 111.303 84.8024 111.611 85.0974 111.817C85.3957 112.022 85.7851 112.125 86.2657 112.125C86.8126 112.125 87.2468 112.009 87.5683 111.777C87.8931 111.542 88.0555 111.26 88.0555 110.932C88.0555 110.667 87.9627 110.445 87.7771 110.266C87.5915 110.083 87.3064 109.947 86.922 109.858L85.6492 109.56C84.9499 109.394 84.4362 109.137 84.108 108.789C83.7832 108.438 83.6208 107.999 83.6208 107.472C83.6208 107.041 83.7418 106.66 83.9837 106.328C84.229 105.997 84.5621 105.737 84.983 105.548C85.4073 105.359 85.8879 105.264 86.4248 105.264C87.1805 105.264 87.7738 105.43 88.2046 105.761C88.6388 106.093 88.9471 106.53 89.1293 107.074ZM97.0514 113.179C96.5675 113.179 96.1283 113.088 95.7339 112.906C95.3395 112.72 95.0263 112.453 94.7943 112.105C94.5623 111.754 94.4463 111.33 94.4463 110.832C94.4463 110.395 94.5324 110.04 94.7048 109.768C94.8771 109.493 95.1075 109.278 95.3958 109.122C95.6842 108.966 96.0024 108.85 96.3504 108.774C96.7017 108.695 97.0547 108.632 97.4093 108.585C97.8733 108.526 98.2495 108.481 98.5379 108.451C98.8295 108.418 99.0417 108.363 99.1742 108.287C99.3101 108.211 99.3781 108.078 99.3781 107.889V107.849C99.3781 107.359 99.2438 106.978 98.9754 106.706C98.7102 106.434 98.3075 106.298 97.7673 106.298C97.2071 106.298 96.768 106.421 96.4498 106.666C96.1316 106.911 95.9079 107.173 95.7786 107.452L94.665 107.054C94.8639 106.59 95.129 106.229 95.4605 105.97C95.7952 105.708 96.1598 105.526 96.5542 105.423C96.9519 105.317 97.343 105.264 97.7275 105.264C97.9728 105.264 98.2545 105.294 98.5727 105.354C98.8942 105.41 99.2041 105.528 99.5024 105.707C99.804 105.886 100.054 106.156 100.253 106.517C100.452 106.878 100.551 107.362 100.551 107.969V113H99.3781V111.966H99.3184C99.2389 112.132 99.1063 112.309 98.9207 112.498C98.7351 112.687 98.4882 112.848 98.1799 112.98C97.8717 113.113 97.4955 113.179 97.0514 113.179ZM97.2303 112.125C97.6944 112.125 98.0855 112.034 98.4036 111.852C98.7251 111.669 98.9671 111.434 99.1295 111.146C99.2952 110.857 99.3781 110.554 99.3781 110.236V109.162C99.3284 109.222 99.219 109.276 99.0499 109.326C98.8842 109.372 98.692 109.414 98.4732 109.45C98.2578 109.483 98.0473 109.513 97.8418 109.54C97.6397 109.563 97.4756 109.583 97.3497 109.599C97.0447 109.639 96.7597 109.704 96.4945 109.793C96.2327 109.879 96.0206 110.01 95.8582 110.186C95.6991 110.358 95.6195 110.594 95.6195 110.892C95.6195 111.3 95.7704 111.608 96.072 111.817C96.3769 112.022 96.763 112.125 97.2303 112.125ZM106.462 113V105.364H107.596V106.557H107.695C107.854 106.149 108.111 105.833 108.466 105.607C108.821 105.379 109.246 105.264 109.744 105.264C110.247 105.264 110.667 105.379 111.001 105.607C111.34 105.833 111.603 106.149 111.792 106.557H111.871C112.067 106.162 112.36 105.849 112.751 105.617C113.143 105.382 113.612 105.264 114.158 105.264C114.841 105.264 115.4 105.478 115.834 105.906C116.268 106.33 116.485 106.991 116.485 107.889V113H115.312V107.889C115.312 107.326 115.158 106.923 114.849 106.681C114.541 106.439 114.178 106.318 113.761 106.318C113.224 106.318 112.808 106.481 112.513 106.805C112.218 107.127 112.07 107.535 112.07 108.028V113H110.877V107.77C110.877 107.336 110.736 106.986 110.455 106.721C110.173 106.452 109.81 106.318 109.366 106.318C109.061 106.318 108.776 106.399 108.511 106.562C108.249 106.724 108.037 106.95 107.874 107.238C107.715 107.523 107.636 107.853 107.636 108.227V113H106.462ZM121.748 113.159C121.012 113.159 120.378 112.997 119.844 112.672C119.314 112.344 118.904 111.886 118.616 111.3C118.331 110.71 118.188 110.024 118.188 109.241C118.188 108.459 118.331 107.77 118.616 107.173C118.904 106.573 119.305 106.106 119.819 105.771C120.336 105.433 120.939 105.264 121.629 105.264C122.026 105.264 122.419 105.33 122.807 105.463C123.195 105.596 123.548 105.811 123.866 106.109C124.184 106.404 124.438 106.795 124.627 107.283C124.816 107.77 124.91 108.37 124.91 109.082V109.58H119.024V108.565H123.717C123.717 108.134 123.631 107.75 123.458 107.412C123.289 107.074 123.047 106.807 122.732 106.612C122.421 106.416 122.053 106.318 121.629 106.318C121.161 106.318 120.757 106.434 120.416 106.666C120.078 106.895 119.817 107.193 119.635 107.561C119.453 107.929 119.362 108.323 119.362 108.744V109.42C119.362 109.997 119.461 110.486 119.66 110.887C119.862 111.285 120.142 111.588 120.5 111.797C120.858 112.002 121.274 112.105 121.748 112.105C122.056 112.105 122.335 112.062 122.583 111.976C122.835 111.886 123.052 111.754 123.235 111.578C123.417 111.399 123.558 111.177 123.657 110.912L124.791 111.23C124.671 111.615 124.471 111.953 124.189 112.244C123.907 112.533 123.559 112.758 123.145 112.92C122.731 113.08 122.265 113.159 121.748 113.159ZM132.02 107.074L130.966 107.372C130.9 107.196 130.802 107.026 130.673 106.86C130.547 106.691 130.374 106.552 130.156 106.442C129.937 106.333 129.657 106.278 129.315 106.278C128.848 106.278 128.459 106.386 128.147 106.602C127.839 106.814 127.685 107.084 127.685 107.412C127.685 107.704 127.791 107.934 128.003 108.103C128.215 108.272 128.546 108.413 128.997 108.526L130.131 108.804C130.813 108.97 131.322 109.223 131.657 109.565C131.992 109.903 132.159 110.339 132.159 110.872C132.159 111.31 132.033 111.701 131.781 112.045C131.533 112.39 131.185 112.662 130.737 112.861C130.29 113.06 129.769 113.159 129.176 113.159C128.397 113.159 127.753 112.99 127.242 112.652C126.732 112.314 126.409 111.82 126.273 111.17L127.386 110.892C127.492 111.303 127.693 111.611 127.988 111.817C128.286 112.022 128.676 112.125 129.156 112.125C129.703 112.125 130.137 112.009 130.459 111.777C130.784 111.542 130.946 111.26 130.946 110.932C130.946 110.667 130.853 110.445 130.668 110.266C130.482 110.083 130.197 109.947 129.812 109.858L128.54 109.56C127.84 109.394 127.327 109.137 126.999 108.789C126.674 108.438 126.511 107.999 126.511 107.472C126.511 107.041 126.632 106.66 126.874 106.328C127.12 105.997 127.453 105.737 127.874 105.548C128.298 105.359 128.778 105.264 129.315 105.264C130.071 105.264 130.664 105.43 131.095 105.761C131.529 106.093 131.838 106.53 132.02 107.074ZM139.25 107.074L138.196 107.372C138.13 107.196 138.032 107.026 137.903 106.86C137.777 106.691 137.605 106.552 137.386 106.442C137.167 106.333 136.887 106.278 136.546 106.278C136.078 106.278 135.689 106.386 135.377 106.602C135.069 106.814 134.915 107.084 134.915 107.412C134.915 107.704 135.021 107.934 135.233 108.103C135.445 108.272 135.777 108.413 136.228 108.526L137.361 108.804C138.044 108.97 138.553 109.223 138.887 109.565C139.222 109.903 139.39 110.339 139.39 110.872C139.39 111.31 139.264 111.701 139.012 112.045C138.763 112.39 138.415 112.662 137.968 112.861C137.52 113.06 137 113.159 136.407 113.159C135.628 113.159 134.983 112.99 134.473 112.652C133.962 112.314 133.639 111.82 133.503 111.17L134.617 110.892C134.723 111.303 134.923 111.611 135.218 111.817C135.517 112.022 135.906 112.125 136.387 112.125C136.934 112.125 137.368 112.009 137.689 111.777C138.014 111.542 138.176 111.26 138.176 110.932C138.176 110.667 138.084 110.445 137.898 110.266C137.712 110.083 137.427 109.947 137.043 109.858L135.77 109.56C135.071 109.394 134.557 109.137 134.229 108.789C133.904 108.438 133.742 107.999 133.742 107.472C133.742 107.041 133.863 106.66 134.105 106.328C134.35 105.997 134.683 105.737 135.104 105.548C135.528 105.359 136.009 105.264 136.546 105.264C137.301 105.264 137.895 105.43 138.326 105.761C138.76 106.093 139.068 106.53 139.25 107.074ZM143.319 113.179C142.835 113.179 142.396 113.088 142.001 112.906C141.607 112.72 141.294 112.453 141.062 112.105C140.83 111.754 140.714 111.33 140.714 110.832C140.714 110.395 140.8 110.04 140.972 109.768C141.145 109.493 141.375 109.278 141.663 109.122C141.952 108.966 142.27 108.85 142.618 108.774C142.969 108.695 143.322 108.632 143.677 108.585C144.141 108.526 144.517 108.481 144.805 108.451C145.097 108.418 145.309 108.363 145.442 108.287C145.578 108.211 145.646 108.078 145.646 107.889V107.849C145.646 107.359 145.511 106.978 145.243 106.706C144.978 106.434 144.575 106.298 144.035 106.298C143.475 106.298 143.035 106.421 142.717 106.666C142.399 106.911 142.175 107.173 142.046 107.452L140.932 107.054C141.131 106.59 141.396 106.229 141.728 105.97C142.063 105.708 142.427 105.526 142.822 105.423C143.219 105.317 143.611 105.264 143.995 105.264C144.24 105.264 144.522 105.294 144.84 105.354C145.162 105.41 145.472 105.528 145.77 105.707C146.071 105.886 146.322 106.156 146.521 106.517C146.719 106.878 146.819 107.362 146.819 107.969V113H145.646V111.966H145.586C145.506 112.132 145.374 112.309 145.188 112.498C145.003 112.687 144.756 112.848 144.447 112.98C144.139 113.113 143.763 113.179 143.319 113.179ZM143.498 112.125C143.962 112.125 144.353 112.034 144.671 111.852C144.993 111.669 145.235 111.434 145.397 111.146C145.563 110.857 145.646 110.554 145.646 110.236V109.162C145.596 109.222 145.486 109.276 145.317 109.326C145.152 109.372 144.959 109.414 144.741 109.45C144.525 109.483 144.315 109.513 144.109 109.54C143.907 109.563 143.743 109.583 143.617 109.599C143.312 109.639 143.027 109.704 142.762 109.793C142.5 109.879 142.288 110.01 142.126 110.186C141.967 110.358 141.887 110.594 141.887 110.892C141.887 111.3 142.038 111.608 142.339 111.817C142.644 112.022 143.03 112.125 143.498 112.125ZM151.959 116.023C151.392 116.023 150.905 115.95 150.497 115.804C150.089 115.661 149.75 115.473 149.478 115.237C149.209 115.005 148.996 114.757 148.837 114.491L149.771 113.835C149.877 113.974 150.012 114.134 150.174 114.312C150.336 114.495 150.558 114.652 150.84 114.785C151.125 114.921 151.498 114.989 151.959 114.989C152.575 114.989 153.084 114.839 153.485 114.541C153.886 114.243 154.087 113.776 154.087 113.139V111.588H153.987C153.901 111.727 153.778 111.9 153.619 112.105C153.463 112.307 153.238 112.488 152.943 112.647C152.651 112.803 152.257 112.881 151.76 112.881C151.143 112.881 150.59 112.735 150.099 112.443C149.612 112.152 149.226 111.727 148.941 111.17C148.659 110.614 148.518 109.937 148.518 109.142C148.518 108.36 148.656 107.679 148.931 107.099C149.206 106.515 149.589 106.065 150.079 105.746C150.57 105.425 151.137 105.264 151.78 105.264C152.277 105.264 152.671 105.347 152.963 105.513C153.258 105.675 153.483 105.861 153.639 106.07C153.798 106.275 153.921 106.444 154.007 106.577H154.126V105.364H155.26V113.219C155.26 113.875 155.111 114.409 154.812 114.82C154.517 115.234 154.12 115.537 153.619 115.729C153.122 115.925 152.569 116.023 151.959 116.023ZM151.919 111.827C152.39 111.827 152.787 111.719 153.112 111.504C153.437 111.288 153.684 110.978 153.853 110.574C154.022 110.17 154.106 109.686 154.106 109.122C154.106 108.572 154.024 108.086 153.858 107.665C153.692 107.245 153.447 106.915 153.122 106.676C152.797 106.437 152.396 106.318 151.919 106.318C151.422 106.318 151.008 106.444 150.676 106.696C150.348 106.948 150.101 107.286 149.935 107.71C149.773 108.134 149.692 108.605 149.692 109.122C149.692 109.652 149.775 110.121 149.94 110.529C150.109 110.933 150.358 111.252 150.686 111.484C151.017 111.712 151.428 111.827 151.919 111.827ZM160.525 113.159C159.79 113.159 159.155 112.997 158.621 112.672C158.091 112.344 157.682 111.886 157.393 111.3C157.108 110.71 156.966 110.024 156.966 109.241C156.966 108.459 157.108 107.77 157.393 107.173C157.682 106.573 158.083 106.106 158.596 105.771C159.113 105.433 159.717 105.264 160.406 105.264C160.804 105.264 161.196 105.33 161.584 105.463C161.972 105.596 162.325 105.811 162.643 106.109C162.961 106.404 163.215 106.795 163.404 107.283C163.593 107.77 163.687 108.37 163.687 109.082V109.58H157.801V108.565H162.494C162.494 108.134 162.408 107.75 162.236 107.412C162.067 107.074 161.825 106.807 161.51 106.612C161.198 106.416 160.83 106.318 160.406 106.318C159.939 106.318 159.534 106.434 159.193 106.666C158.855 106.895 158.595 107.193 158.412 107.561C158.23 107.929 158.139 108.323 158.139 108.744V109.42C158.139 109.997 158.238 110.486 158.437 110.887C158.639 111.285 158.919 111.588 159.277 111.797C159.635 112.002 160.051 112.105 160.525 112.105C160.834 112.105 161.112 112.062 161.361 111.976C161.612 111.886 161.83 111.754 162.012 111.578C162.194 111.399 162.335 111.177 162.434 110.912L163.568 111.23C163.449 111.615 163.248 111.953 162.966 112.244C162.685 112.533 162.337 112.758 161.922 112.92C161.508 113.08 161.042 113.159 160.525 113.159Z" fill="#26252A"/><path d="M213.442 103.442C213.686 103.198 213.686 102.802 213.442 102.558C213.198 102.314 212.802 102.314 212.558 102.558L208 107.116L203.442 102.558C203.198 102.314 202.802 102.314 202.558 102.558C202.314 102.802 202.314 103.198 202.558 103.442L207.116 108L202.558 112.558C202.314 112.802 202.314 113.198 202.558 113.442C202.802 113.686 203.198 113.686 203.442 113.442L208 108.884L212.558 113.442C212.802 113.686 213.198 113.686 213.442 113.442C213.686 113.198 213.686 112.802 213.442 112.558L208.884 108L213.442 103.442Z" fill="#26252A"/><rect y="88" width="4" height="40" rx="2" fill="#CB2233"/></svg>