<svg width="32" height="32" viewBox="0 0 32 32" fill="none" xmlns="http://www.w3.org/2000/svg"><path fill-rule="evenodd" clip-rule="evenodd" d="M15 7C15 9.41896 13.2822 11.4367 11 11.9V15H17C18.9071 15 20.5024 13.6654 20.903 11.8793C18.6693 11.3793 17 9.38458 17 7C17 4.23858 19.2386 2 22 2C24.7614 2 27 4.23858 27 7C27 9.44331 25.2475 11.4773 22.9309 11.9135C22.4909 14.7937 20.0031 17 17 17H11V20.1C13.2822 20.5633 15 22.581 15 25C15 27.7614 12.7614 30 10 30C7.23858 30 5 27.7614 5 25C5 22.581 6.71776 20.5633 9 20.1L9 11.9C6.71776 11.4367 5 9.41896 5 7C5 4.23858 7.23858 2 10 2C12.7614 2 15 4.23858 15 7ZM10 10C11.6569 10 13 8.65685 13 7C13 5.34315 11.6569 4 10 4C8.34315 4 7 5.34315 7 7C7 8.65685 8.34315 10 10 10ZM10 28C11.6569 28 13 26.6569 13 25C13 23.3431 11.6569 22 10 22C8.34315 22 7 23.3431 7 25C7 26.6569 8.34315 28 10 28ZM25 7C25 8.65685 23.6569 10 22 10C20.3431 10 19 8.65685 19 7C19 5.34315 20.3431 4 22 4C23.6569 4 25 5.34315 25 7Z" fill="#3A3A38"/></svg>