<svg width="244" height="116" viewBox="0 0 244 116" fill="none" xmlns="http://www.w3.org/2000/svg"><path d="M49 4C49 1.79086 47.2022 -0.0233299 45.0064 0.219007C27.0035 2.20587 13 17.4676 13 36C13 55.8823 29.1177 72 49 72C68.8823 72 85 55.8823 85 36C85 27.497 82.0521 19.6826 77.1225 13.5229C75.7422 11.7981 73.1895 11.8105 71.6274 13.3726V13.3726C70.0653 14.9347 70.0923 17.453 71.4175 19.2205C74.9232 23.8967 77 29.7058 77 36C77 51.464 64.464 64 49 64C33.536 64 21 51.464 21 36C21 21.89 31.4369 10.2177 45.0119 8.28186C47.1989 7.96999 49 6.20914 49 4V4Z" fill="#0056E0"/><path d="M1.90465 102V90.3636H5.83647C6.74935 90.3636 7.49556 90.5284 8.07511 90.858C8.65844 91.1837 9.09026 91.625 9.37056 92.1818C9.65087 92.7386 9.79102 93.3598 9.79102 94.0455C9.79102 94.7311 9.65087 95.3542 9.37056 95.9148C9.09405 96.4754 8.66602 96.9223 8.08647 97.2557C7.50693 97.5852 6.7645 97.75 5.8592 97.75H3.04102V96.5H5.81375C6.43875 96.5 6.94064 96.392 7.31943 96.1761C7.69822 95.9602 7.97284 95.6686 8.14329 95.3011C8.31753 94.9299 8.40465 94.5114 8.40465 94.0455C8.40465 93.5795 8.31753 93.1629 8.14329 92.7955C7.97284 92.428 7.69632 92.1402 7.31375 91.9318C6.93117 91.7197 6.42359 91.6136 5.79102 91.6136H3.31375V102H1.90465ZM13.044 90.3636V102H11.7031V90.3636H13.044ZM18.9831 102.182C18.1421 102.182 17.4168 101.996 16.8069 101.625C16.2009 101.25 15.7331 100.727 15.4035 100.057C15.0777 99.3826 14.9149 98.5985 14.9149 97.7045C14.9149 96.8106 15.0777 96.0227 15.4035 95.3409C15.7331 94.6553 16.1914 94.1212 16.7785 93.7386C17.3694 93.3523 18.0588 93.1591 18.8467 93.1591C19.3012 93.1591 19.7501 93.2348 20.1933 93.3864C20.6365 93.5379 21.0399 93.7841 21.4035 94.125C21.7671 94.4621 22.0569 94.9091 22.2728 95.4659C22.4887 96.0227 22.5967 96.7083 22.5967 97.5227V98.0909H15.8694V96.9318H21.2331C21.2331 96.4394 21.1346 96 20.9376 95.6136C20.7444 95.2273 20.4679 94.9223 20.1081 94.6989C19.752 94.4754 19.3315 94.3636 18.8467 94.3636C18.3126 94.3636 17.8505 94.4962 17.4603 94.7614C17.074 95.0227 16.7766 95.3636 16.5683 95.7841C16.3599 96.2045 16.2558 96.6553 16.2558 97.1364V97.9091C16.2558 98.5682 16.3694 99.1269 16.5967 99.5852C16.8277 100.04 17.1478 100.386 17.5569 100.625C17.966 100.86 18.4414 100.977 18.9831 100.977C19.3353 100.977 19.6535 100.928 19.9376 100.83C20.2255 100.727 20.4736 100.576 20.6819 100.375C20.8902 100.17 21.0512 99.9167 21.1649 99.6136L22.4603 99.9773C22.324 100.417 22.0948 100.803 21.7728 101.136C21.4509 101.466 21.0531 101.723 20.5796 101.909C20.1062 102.091 19.574 102.182 18.9831 102.182ZM27.0286 102.205C26.4756 102.205 25.9737 102.1 25.523 101.892C25.0722 101.68 24.7142 101.375 24.4491 100.977C24.1839 100.576 24.0514 100.091 24.0514 99.5227C24.0514 99.0227 24.1499 98.6174 24.3468 98.3068C24.5438 97.9924 24.8071 97.7462 25.1366 97.5682C25.4661 97.3902 25.8298 97.2576 26.2275 97.1705C26.629 97.0795 27.0324 97.0076 27.4377 96.9545C27.968 96.8864 28.398 96.8352 28.7275 96.8011C29.0608 96.7633 29.3033 96.7008 29.4548 96.6136C29.6101 96.5265 29.6877 96.375 29.6877 96.1591V96.1136C29.6877 95.553 29.5343 95.1174 29.2275 94.8068C28.9245 94.4962 28.4642 94.3409 27.8468 94.3409C27.2067 94.3409 26.7048 94.4811 26.3411 94.7614C25.9775 95.0417 25.7218 95.3409 25.5741 95.6591L24.3014 95.2045C24.5286 94.6742 24.8317 94.2614 25.2105 93.9659C25.593 93.6667 26.0097 93.4583 26.4605 93.3409C26.915 93.2197 27.362 93.1591 27.8014 93.1591C28.0817 93.1591 28.4036 93.1932 28.7673 93.2614C29.1347 93.3258 29.4889 93.4602 29.8298 93.6648C30.1745 93.8693 30.4605 94.178 30.6877 94.5909C30.915 95.0038 31.0286 95.5568 31.0286 96.25V102H29.6877V100.818H29.6196C29.5286 101.008 29.3771 101.21 29.165 101.426C28.9529 101.642 28.6707 101.826 28.3184 101.977C27.9661 102.129 27.5362 102.205 27.0286 102.205ZM27.2332 101C27.7635 101 28.2105 100.896 28.5741 100.688C28.9415 100.479 29.218 100.21 29.4036 99.8807C29.593 99.5511 29.6877 99.2045 29.6877 98.8409V97.6136C29.6309 97.6818 29.5059 97.7443 29.3127 97.8011C29.1233 97.8542 28.9036 97.9015 28.6536 97.9432C28.4074 97.9811 28.1669 98.0152 27.9321 98.0455C27.701 98.072 27.5135 98.0947 27.3696 98.1136C27.0211 98.1591 26.6953 98.233 26.3923 98.3352C26.093 98.4337 25.8506 98.5833 25.665 98.7841C25.4832 98.9811 25.3923 99.25 25.3923 99.5909C25.3923 100.057 25.5646 100.409 25.9093 100.648C26.2578 100.883 26.6991 101 27.2332 101ZM39.4819 95.2273L38.2774 95.5682C38.2016 95.3674 38.0899 95.1723 37.9421 94.983C37.7982 94.7898 37.6012 94.6307 37.3512 94.5057C37.1012 94.3807 36.7811 94.3182 36.391 94.3182C35.8569 94.3182 35.4118 94.4413 35.0558 94.6875C34.7035 94.9299 34.5274 95.2386 34.5274 95.6136C34.5274 95.947 34.6486 96.2102 34.891 96.4034C35.1334 96.5966 35.5122 96.7576 36.0274 96.8864L37.3228 97.2045C38.1031 97.3939 38.6846 97.6837 39.0671 98.0739C39.4497 98.4602 39.641 98.9583 39.641 99.5682C39.641 100.068 39.4971 100.515 39.2092 100.909C38.9251 101.303 38.5274 101.614 38.016 101.841C37.5046 102.068 36.9099 102.182 36.2319 102.182C35.3418 102.182 34.605 101.989 34.0217 101.602C33.4383 101.216 33.069 100.652 32.9137 99.9091L34.1865 99.5909C34.3077 100.061 34.5368 100.413 34.874 100.648C35.2149 100.883 35.6599 101 36.2092 101C36.8342 101 37.3304 100.867 37.6978 100.602C38.069 100.333 38.2546 100.011 38.2546 99.6364C38.2546 99.3333 38.1486 99.0795 37.9365 98.875C37.7243 98.6667 37.3986 98.5114 36.9592 98.4091L35.5046 98.0682C34.7054 97.8788 34.1183 97.5852 33.7433 97.1875C33.3721 96.786 33.1865 96.2841 33.1865 95.6818C33.1865 95.1894 33.3247 94.7538 33.6012 94.375C33.8815 93.9962 34.2622 93.6989 34.7433 93.483C35.2281 93.267 35.7774 93.1591 36.391 93.1591C37.2546 93.1591 37.9327 93.3485 38.4251 93.7273C38.9213 94.1061 39.2736 94.6061 39.4819 95.2273ZM45.1426 102.182C44.3016 102.182 43.5763 101.996 42.9664 101.625C42.3604 101.25 41.8926 100.727 41.563 100.057C41.2372 99.3826 41.0744 98.5985 41.0744 97.7045C41.0744 96.8106 41.2372 96.0227 41.563 95.3409C41.8926 94.6553 42.3509 94.1212 42.938 93.7386C43.5289 93.3523 44.2183 93.1591 45.0062 93.1591C45.4607 93.1591 45.9096 93.2348 46.3528 93.3864C46.796 93.5379 47.1994 93.7841 47.563 94.125C47.9266 94.4621 48.2164 94.9091 48.4323 95.4659C48.6482 96.0227 48.7562 96.7083 48.7562 97.5227V98.0909H42.0289V96.9318H47.3926C47.3926 96.4394 47.2941 96 47.0971 95.6136C46.9039 95.2273 46.6274 94.9223 46.2676 94.6989C45.9115 94.4754 45.491 94.3636 45.0062 94.3636C44.4721 94.3636 44.01 94.4962 43.6198 94.7614C43.2335 95.0227 42.9361 95.3636 42.7278 95.7841C42.5194 96.2045 42.4153 96.6553 42.4153 97.1364V97.9091C42.4153 98.5682 42.5289 99.1269 42.7562 99.5852C42.9872 100.04 43.3073 100.386 43.7164 100.625C44.1255 100.86 44.6009 100.977 45.1426 100.977C45.4948 100.977 45.813 100.928 46.0971 100.83C46.385 100.727 46.6331 100.576 46.8414 100.375C47.0497 100.17 47.2107 99.9167 47.3244 99.6136L48.6198 99.9773C48.4835 100.417 48.2543 100.803 47.9323 101.136C47.6104 101.466 47.2126 101.723 46.7391 101.909C46.2657 102.091 45.7335 102.182 45.1426 102.182ZM56.9212 102L54.2621 93.2727H55.6712L57.5576 99.9545H57.6485L59.5121 93.2727H60.944L62.7849 99.9318H62.8758L64.7621 93.2727H66.1712L63.5121 102H62.194L60.2849 95.2955H60.1485L58.2394 102H56.9212ZM70.3361 102.205C69.7831 102.205 69.2812 102.1 68.8305 101.892C68.3797 101.68 68.0218 101.375 67.7566 100.977C67.4915 100.576 67.3589 100.091 67.3589 99.5227C67.3589 99.0227 67.4574 98.6174 67.6543 98.3068C67.8513 97.9924 68.1146 97.7462 68.4441 97.5682C68.7736 97.3902 69.1373 97.2576 69.535 97.1705C69.9365 97.0795 70.3399 97.0076 70.7452 96.9545C71.2755 96.8864 71.7055 96.8352 72.035 96.8011C72.3683 96.7633 72.6108 96.7008 72.7623 96.6136C72.9176 96.5265 72.9952 96.375 72.9952 96.1591V96.1136C72.9952 95.553 72.8418 95.1174 72.535 94.8068C72.232 94.4962 71.7718 94.3409 71.1543 94.3409C70.5142 94.3409 70.0123 94.4811 69.6486 94.7614C69.285 95.0417 69.0293 95.3409 68.8816 95.6591L67.6089 95.2045C67.8361 94.6742 68.1392 94.2614 68.518 93.9659C68.9005 93.6667 69.3172 93.4583 69.768 93.3409C70.2225 93.2197 70.6695 93.1591 71.1089 93.1591C71.3892 93.1591 71.7111 93.1932 72.0748 93.2614C72.4422 93.3258 72.7964 93.4602 73.1373 93.6648C73.482 93.8693 73.768 94.178 73.9952 94.5909C74.2225 95.0038 74.3362 95.5568 74.3362 96.25V102H72.9952V100.818H72.9271C72.8361 101.008 72.6846 101.21 72.4725 101.426C72.2604 101.642 71.9782 101.826 71.6259 101.977C71.2737 102.129 70.8437 102.205 70.3361 102.205ZM70.5407 101C71.071 101 71.518 100.896 71.8816 100.688C72.249 100.479 72.5255 100.21 72.7111 99.8807C72.9005 99.5511 72.9952 99.2045 72.9952 98.8409V97.6136C72.9384 97.6818 72.8134 97.7443 72.6202 97.8011C72.4308 97.8542 72.2111 97.9015 71.9611 97.9432C71.7149 97.9811 71.4744 98.0152 71.2396 98.0455C71.0085 98.072 70.821 98.0947 70.6771 98.1136C70.3286 98.1591 70.0028 98.233 69.6998 98.3352C69.4005 98.4337 69.1581 98.5833 68.9725 98.7841C68.7907 98.9811 68.6998 99.25 68.6998 99.5909C68.6998 100.057 68.8721 100.409 69.2168 100.648C69.5653 100.883 70.0066 101 70.5407 101ZM76.6076 102V93.2727H77.9485V102H76.6076ZM77.2894 91.8182C77.028 91.8182 76.8027 91.7292 76.6133 91.5511C76.4277 91.3731 76.3349 91.1591 76.3349 90.9091C76.3349 90.6591 76.4277 90.4451 76.6133 90.267C76.8027 90.089 77.028 90 77.2894 90C77.5508 90 77.7742 90.089 77.9599 90.267C78.1492 90.4451 78.2439 90.6591 78.2439 90.9091C78.2439 91.1591 78.1492 91.3731 77.9599 91.5511C77.7742 91.7292 77.5508 91.8182 77.2894 91.8182ZM84.0239 93.2727V94.4091H79.5012V93.2727H84.0239ZM80.8194 91.1818H82.1603V99.5C82.1603 99.8788 82.2152 100.163 82.3251 100.352C82.4387 100.538 82.5826 100.663 82.7569 100.727C82.9349 100.788 83.1224 100.818 83.3194 100.818C83.4671 100.818 83.5883 100.811 83.683 100.795C83.7777 100.777 83.8535 100.761 83.9103 100.75L84.183 101.955C84.0921 101.989 83.9652 102.023 83.8023 102.057C83.6394 102.095 83.433 102.114 83.183 102.114C82.8042 102.114 82.433 102.032 82.0694 101.869C81.7095 101.706 81.4103 101.458 81.1716 101.125C80.9368 100.792 80.8194 100.371 80.8194 99.8636V91.1818ZM86.8422 102.091C86.5619 102.091 86.3214 101.991 86.1206 101.79C85.9199 101.589 85.8195 101.348 85.8195 101.068C85.8195 100.788 85.9199 100.547 86.1206 100.347C86.3214 100.146 86.5619 100.045 86.8422 100.045C87.1225 100.045 87.3631 100.146 87.5638 100.347C87.7646 100.547 87.865 100.788 87.865 101.068C87.865 101.254 87.8176 101.424 87.7229 101.58C87.632 101.735 87.5089 101.86 87.3536 101.955C87.2021 102.045 87.0316 102.091 86.8422 102.091ZM91.0725 102.091C90.7922 102.091 90.5516 101.991 90.3509 101.79C90.1501 101.589 90.0498 101.348 90.0498 101.068C90.0498 100.788 90.1501 100.547 90.3509 100.347C90.5516 100.146 90.7922 100.045 91.0725 100.045C91.3528 100.045 91.5933 100.146 91.7941 100.347C91.9948 100.547 92.0952 100.788 92.0952 101.068C92.0952 101.254 92.0479 101.424 91.9532 101.58C91.8623 101.735 91.7391 101.86 91.5838 101.955C91.4323 102.045 91.2619 102.091 91.0725 102.091ZM95.3027 102.091C95.0224 102.091 94.7819 101.991 94.5811 101.79C94.3804 101.589 94.28 101.348 94.28 101.068C94.28 100.788 94.3804 100.547 94.5811 100.347C94.7819 100.146 95.0224 100.045 95.3027 100.045C95.583 100.045 95.8236 100.146 96.0243 100.347C96.2251 100.547 96.3255 100.788 96.3255 101.068C96.3255 101.254 96.2781 101.424 96.1834 101.58C96.0925 101.735 95.9694 101.86 95.8141 101.955C95.6626 102.045 95.4921 102.091 95.3027 102.091Z" fill="#26252A"/><path d="M123.882 42.168L124.47 39.494H123.336V38.43H124.694L125.17 36.26H123.98V35.196H125.408L126.066 32.228H127.172L126.514 35.196H128.572L129.23 32.228H130.35L129.678 35.196H130.798V36.26H129.468L128.978 38.43H130.168V39.494H128.754L128.166 42.168H127.06L127.648 39.494H125.576L125.002 42.168H123.882ZM125.8 38.43H127.872L128.348 36.26H126.29L125.8 38.43ZM135.082 42.168C134.56 42.168 134.093 42.0933 133.682 41.944C133.272 41.7853 132.922 41.5193 132.632 41.146C132.343 40.7633 132.124 40.2547 131.974 39.62C131.825 38.976 131.75 38.1687 131.75 37.198C131.75 36.2273 131.825 35.4247 131.974 34.79C132.124 34.146 132.343 33.6373 132.632 33.264C132.922 32.8813 133.272 32.6153 133.682 32.466C134.093 32.3073 134.56 32.228 135.082 32.228C135.605 32.228 136.067 32.3073 136.468 32.466C136.879 32.6153 137.229 32.8813 137.518 33.264C137.808 33.6373 138.027 34.146 138.176 34.79C138.326 35.4247 138.4 36.2273 138.4 37.198C138.4 38.1687 138.326 38.976 138.176 39.62C138.027 40.2547 137.808 40.7633 137.518 41.146C137.229 41.5193 136.879 41.7853 136.468 41.944C136.067 42.0933 135.605 42.168 135.082 42.168ZM135.082 41.132C135.614 41.132 136.025 40.9967 136.314 40.726C136.613 40.4553 136.818 40.054 136.93 39.522C137.052 38.99 137.112 38.3273 137.112 37.534V36.89C137.112 36.0873 137.052 35.42 136.93 34.888C136.818 34.3467 136.613 33.9407 136.314 33.67C136.025 33.3993 135.614 33.264 135.082 33.264C134.55 33.264 134.135 33.3993 133.836 33.67C133.538 33.9407 133.328 34.342 133.206 34.874C133.094 35.406 133.038 36.0733 133.038 36.876V37.506C133.038 38.2993 133.094 38.9667 133.206 39.508C133.328 40.0493 133.538 40.4553 133.836 40.726C134.135 40.9967 134.55 41.132 135.082 41.132ZM143.024 42.168C142.501 42.168 142.034 42.0933 141.624 41.944C141.213 41.7853 140.863 41.5193 140.574 41.146C140.284 40.7633 140.065 40.2547 139.916 39.62C139.766 38.976 139.692 38.1687 139.692 37.198C139.692 36.2273 139.766 35.4247 139.916 34.79C140.065 34.146 140.284 33.6373 140.574 33.264C140.863 32.8813 141.213 32.6153 141.624 32.466C142.034 32.3073 142.501 32.228 143.024 32.228C143.546 32.228 144.008 32.3073 144.41 32.466C144.82 32.6153 145.17 32.8813 145.46 33.264C145.749 33.6373 145.968 34.146 146.118 34.79C146.267 35.4247 146.342 36.2273 146.342 37.198C146.342 38.1687 146.267 38.976 146.118 39.62C145.968 40.2547 145.749 40.7633 145.46 41.146C145.17 41.5193 144.82 41.7853 144.41 41.944C144.008 42.0933 143.546 42.168 143.024 42.168ZM143.024 41.132C143.556 41.132 143.966 40.9967 144.256 40.726C144.554 40.4553 144.76 40.054 144.872 39.522C144.993 38.99 145.054 38.3273 145.054 37.534V36.89C145.054 36.0873 144.993 35.42 144.872 34.888C144.76 34.3467 144.554 33.9407 144.256 33.67C143.966 33.3993 143.556 33.264 143.024 33.264C142.492 33.264 142.076 33.3993 141.778 33.67C141.479 33.9407 141.269 34.342 141.148 34.874C141.036 35.406 140.98 36.0733 140.98 36.876V37.506C140.98 38.2993 141.036 38.9667 141.148 39.508C141.269 40.0493 141.479 40.4553 141.778 40.726C142.076 40.9967 142.492 41.132 143.024 41.132ZM151.007 42.168C150.335 42.168 149.747 42.042 149.243 41.79C148.739 41.538 148.347 41.1787 148.067 40.712C147.787 40.236 147.647 39.6713 147.647 39.018H148.893C148.893 39.4567 148.987 39.8347 149.173 40.152C149.36 40.4693 149.612 40.712 149.929 40.88C150.256 41.048 150.615 41.132 151.007 41.132C151.409 41.132 151.763 41.0527 152.071 40.894C152.379 40.726 152.617 40.474 152.785 40.138C152.963 39.802 153.051 39.3773 153.051 38.864C153.051 38.3973 152.972 38.0147 152.813 37.716C152.655 37.408 152.426 37.1793 152.127 37.03C151.838 36.8807 151.502 36.806 151.119 36.806C150.839 36.806 150.573 36.8527 150.321 36.946C150.069 37.03 149.841 37.1513 149.635 37.31C149.439 37.4687 149.276 37.6647 149.145 37.898L147.983 37.716L148.389 32.396H153.835V33.544H149.467L149.243 36.54C149.402 36.4 149.579 36.274 149.775 36.162C149.981 36.0407 150.214 35.9473 150.475 35.882C150.737 35.8073 151.035 35.77 151.371 35.77C151.922 35.77 152.421 35.8773 152.869 36.092C153.317 36.3067 153.672 36.638 153.933 37.086C154.195 37.534 154.325 38.1127 154.325 38.822C154.325 39.522 154.19 40.124 153.919 40.628C153.658 41.132 153.28 41.5147 152.785 41.776C152.291 42.0373 151.698 42.168 151.007 42.168ZM159.061 42.168C158.511 42.168 158.016 42.0887 157.577 41.93C157.148 41.7713 156.779 41.5147 156.471 41.16C156.173 40.8053 155.944 40.3293 155.785 39.732C155.627 39.1253 155.547 38.374 155.547 37.478C155.547 36.4887 155.627 35.6627 155.785 35C155.944 34.328 156.168 33.7913 156.457 33.39C156.756 32.9793 157.12 32.6853 157.549 32.508C157.988 32.3213 158.483 32.228 159.033 32.228C159.724 32.228 160.279 32.3587 160.699 32.62C161.129 32.8813 161.441 33.236 161.637 33.684C161.833 34.1227 161.931 34.6267 161.931 35.196H160.671C160.671 34.7667 160.611 34.4073 160.489 34.118C160.368 33.8287 160.177 33.614 159.915 33.474C159.663 33.334 159.346 33.264 158.963 33.264C158.403 33.264 157.965 33.4133 157.647 33.712C157.339 34.0013 157.125 34.426 157.003 34.986C156.891 35.546 156.831 36.2133 156.821 36.988C156.952 36.7733 157.134 36.5773 157.367 36.4C157.61 36.2227 157.895 36.0827 158.221 35.98C158.548 35.868 158.893 35.812 159.257 35.812C159.948 35.812 160.517 35.952 160.965 36.232C161.413 36.5027 161.745 36.876 161.959 37.352C162.174 37.828 162.281 38.36 162.281 38.948C162.281 39.592 162.141 40.1567 161.861 40.642C161.581 41.1273 161.199 41.5053 160.713 41.776C160.228 42.0373 159.677 42.168 159.061 42.168ZM158.977 41.132C159.435 41.132 159.813 41.034 160.111 40.838C160.41 40.6327 160.629 40.3667 160.769 40.04C160.919 39.704 160.993 39.3353 160.993 38.934C160.993 38.5513 160.923 38.2013 160.783 37.884C160.643 37.5667 160.424 37.3147 160.125 37.128C159.836 36.932 159.463 36.834 159.005 36.834C158.548 36.834 158.165 36.932 157.857 37.128C157.549 37.324 157.321 37.5853 157.171 37.912C157.022 38.2293 156.947 38.5933 156.947 39.004C156.947 39.3867 157.022 39.7413 157.171 40.068C157.321 40.3947 157.545 40.656 157.843 40.852C158.142 41.0387 158.52 41.132 158.977 41.132ZM164.007 42V32.396H171.399V33.544H165.337V36.512H170.783V37.66H165.337V40.852H171.483V42H164.007ZM176.211 42.168C175.689 42.168 175.222 42.0933 174.811 41.944C174.401 41.7853 174.051 41.5193 173.761 41.146C173.472 40.7633 173.253 40.2547 173.103 39.62C172.954 38.976 172.879 38.1687 172.879 37.198C172.879 36.2273 172.954 35.4247 173.103 34.79C173.253 34.146 173.472 33.6373 173.761 33.264C174.051 32.8813 174.401 32.6153 174.811 32.466C175.222 32.3073 175.689 32.228 176.211 32.228C176.734 32.228 177.196 32.3073 177.597 32.466C178.008 32.6153 178.358 32.8813 178.647 33.264C178.937 33.6373 179.156 34.146 179.305 34.79C179.455 35.4247 179.529 36.2273 179.529 37.198C179.529 38.1687 179.455 38.976 179.305 39.62C179.156 40.2547 178.937 40.7633 178.647 41.146C178.358 41.5193 178.008 41.7853 177.597 41.944C177.196 42.0933 176.734 42.168 176.211 42.168ZM176.211 41.132C176.743 41.132 177.154 40.9967 177.443 40.726C177.742 40.4553 177.947 40.054 178.059 39.522C178.181 38.99 178.241 38.3273 178.241 37.534V36.89C178.241 36.0873 178.181 35.42 178.059 34.888C177.947 34.3467 177.742 33.9407 177.443 33.67C177.154 33.3993 176.743 33.264 176.211 33.264C175.679 33.264 175.264 33.3993 174.965 33.67C174.667 33.9407 174.457 34.342 174.335 34.874C174.223 35.406 174.167 36.0733 174.167 36.876V37.506C174.167 38.2993 174.223 38.9667 174.335 39.508C174.457 40.0493 174.667 40.4553 174.965 40.726C175.264 40.9967 175.679 41.132 176.211 41.132Z" fill="#272433"/><line x1="85" y1="38.5" x2="110.456" y2="38.5" stroke="#272433"/><path d="M161.882 93.168L162.47 90.494H161.336V89.43H162.694L163.17 87.26H161.98V86.196H163.408L164.066 83.228H165.172L164.514 86.196H166.572L167.23 83.228H168.35L167.678 86.196H168.798V87.26H167.468L166.978 89.43H168.168V90.494H166.754L166.166 93.168H165.06L165.648 90.494H163.576L163.002 93.168H161.882ZM163.8 89.43H165.872L166.348 87.26H164.29L163.8 89.43ZM169.764 93V92.594C169.764 92.202 169.839 91.8427 169.988 91.516C170.147 91.18 170.352 90.8767 170.604 90.606C170.866 90.326 171.16 90.06 171.486 89.808C171.813 89.556 172.144 89.3087 172.48 89.066C172.938 88.7487 173.358 88.4313 173.74 88.114C174.132 87.7967 174.445 87.456 174.678 87.092C174.912 86.7187 175.028 86.3033 175.028 85.846C175.028 85.5567 174.958 85.2953 174.818 85.062C174.688 84.8193 174.487 84.628 174.216 84.488C173.946 84.348 173.6 84.278 173.18 84.278C172.686 84.278 172.289 84.362 171.99 84.53C171.692 84.698 171.472 84.922 171.332 85.202C171.202 85.482 171.136 85.79 171.136 86.126V86.7H169.918C169.909 86.6533 169.9 86.5833 169.89 86.49C169.881 86.3873 169.876 86.2707 169.876 86.14C169.876 85.4493 170.03 84.894 170.338 84.474C170.646 84.0447 171.057 83.732 171.57 83.536C172.084 83.3307 172.639 83.228 173.236 83.228C173.768 83.228 174.226 83.3027 174.608 83.452C174.991 83.592 175.308 83.788 175.56 84.04C175.812 84.292 175.999 84.5813 176.12 84.908C176.242 85.2253 176.302 85.5613 176.302 85.916C176.302 86.3547 176.223 86.756 176.064 87.12C175.915 87.484 175.7 87.8247 175.42 88.142C175.15 88.45 174.828 88.7487 174.454 89.038C174.09 89.3273 173.694 89.6213 173.264 89.92C172.966 90.116 172.672 90.326 172.382 90.55C172.093 90.7647 171.846 90.984 171.64 91.208C171.435 91.432 171.304 91.6467 171.248 91.852H176.358V93H169.764ZM181.124 93.168C180.573 93.168 180.078 93.0887 179.64 92.93C179.21 92.7713 178.842 92.5147 178.534 92.16C178.235 91.8053 178.006 91.3293 177.848 90.732C177.689 90.1253 177.61 89.374 177.61 88.478C177.61 87.4887 177.689 86.6627 177.848 86C178.006 85.328 178.23 84.7913 178.52 84.39C178.818 83.9793 179.182 83.6853 179.612 83.508C180.05 83.3213 180.545 83.228 181.096 83.228C181.786 83.228 182.342 83.3587 182.762 83.62C183.191 83.8813 183.504 84.236 183.7 84.684C183.896 85.1227 183.994 85.6267 183.994 86.196H182.734C182.734 85.7667 182.673 85.4073 182.552 85.118C182.43 84.8287 182.239 84.614 181.978 84.474C181.726 84.334 181.408 84.264 181.026 84.264C180.466 84.264 180.027 84.4133 179.71 84.712C179.402 85.0013 179.187 85.426 179.066 85.986C178.954 86.546 178.893 87.2133 178.884 87.988C179.014 87.7733 179.196 87.5773 179.43 87.4C179.672 87.2227 179.957 87.0827 180.284 86.98C180.61 86.868 180.956 86.812 181.32 86.812C182.01 86.812 182.58 86.952 183.028 87.232C183.476 87.5027 183.807 87.876 184.022 88.352C184.236 88.828 184.344 89.36 184.344 89.948C184.344 90.592 184.204 91.1567 183.924 91.642C183.644 92.1273 183.261 92.5053 182.776 92.776C182.29 93.0373 181.74 93.168 181.124 93.168ZM181.04 92.132C181.497 92.132 181.875 92.034 182.174 91.838C182.472 91.6327 182.692 91.3667 182.832 91.04C182.981 90.704 183.056 90.3353 183.056 89.934C183.056 89.5513 182.986 89.2013 182.846 88.884C182.706 88.5667 182.486 88.3147 182.188 88.128C181.898 87.932 181.525 87.834 181.068 87.834C180.61 87.834 180.228 87.932 179.92 88.128C179.612 88.324 179.383 88.5853 179.234 88.912C179.084 89.2293 179.01 89.5933 179.01 90.004C179.01 90.3867 179.084 90.7413 179.234 91.068C179.383 91.3947 179.607 91.656 179.906 91.852C180.204 92.0387 180.582 92.132 181.04 92.132ZM185.565 93V92.594C185.565 92.202 185.64 91.8427 185.789 91.516C185.948 91.18 186.153 90.8767 186.405 90.606C186.667 90.326 186.961 90.06 187.287 89.808C187.614 89.556 187.945 89.3087 188.281 89.066C188.739 88.7487 189.159 88.4313 189.541 88.114C189.933 87.7967 190.246 87.456 190.479 87.092C190.713 86.7187 190.829 86.3033 190.829 85.846C190.829 85.5567 190.759 85.2953 190.619 85.062C190.489 84.8193 190.288 84.628 190.017 84.488C189.747 84.348 189.401 84.278 188.981 84.278C188.487 84.278 188.09 84.362 187.791 84.53C187.493 84.698 187.273 84.922 187.133 85.202C187.003 85.482 186.937 85.79 186.937 86.126V86.7H185.719C185.71 86.6533 185.701 86.5833 185.691 86.49C185.682 86.3873 185.677 86.2707 185.677 86.14C185.677 85.4493 185.831 84.894 186.139 84.474C186.447 84.0447 186.858 83.732 187.371 83.536C187.885 83.3307 188.44 83.228 189.037 83.228C189.569 83.228 190.027 83.3027 190.409 83.452C190.792 83.592 191.109 83.788 191.361 84.04C191.613 84.292 191.8 84.5813 191.921 84.908C192.043 85.2253 192.103 85.5613 192.103 85.916C192.103 86.3547 192.024 86.756 191.865 87.12C191.716 87.484 191.501 87.8247 191.221 88.142C190.951 88.45 190.629 88.7487 190.255 89.038C189.891 89.3273 189.495 89.6213 189.065 89.92C188.767 90.116 188.473 90.326 188.183 90.55C187.894 90.7647 187.647 90.984 187.441 91.208C187.236 91.432 187.105 91.6467 187.049 91.852H192.159V93H185.565ZM196.785 93.168C196.113 93.168 195.525 93.042 195.021 92.79C194.517 92.538 194.125 92.1787 193.845 91.712C193.565 91.236 193.425 90.6713 193.425 90.018H194.671C194.671 90.4567 194.764 90.8347 194.951 91.152C195.137 91.4693 195.389 91.712 195.707 91.88C196.033 92.048 196.393 92.132 196.785 92.132C197.186 92.132 197.541 92.0527 197.849 91.894C198.157 91.726 198.395 91.474 198.563 91.138C198.74 90.802 198.829 90.3773 198.829 89.864C198.829 89.3973 198.749 89.0147 198.591 88.716C198.432 88.408 198.203 88.1793 197.905 88.03C197.615 87.8807 197.279 87.806 196.897 87.806C196.617 87.806 196.351 87.8527 196.099 87.946C195.847 88.03 195.618 88.1513 195.413 88.31C195.217 88.4687 195.053 88.6647 194.923 88.898L193.761 88.716L194.167 83.396H199.613V84.544H195.245L195.021 87.54C195.179 87.4 195.357 87.274 195.553 87.162C195.758 87.0407 195.991 86.9473 196.253 86.882C196.514 86.8073 196.813 86.77 197.149 86.77C197.699 86.77 198.199 86.8773 198.647 87.092C199.095 87.3067 199.449 87.638 199.711 88.086C199.972 88.534 200.103 89.1127 200.103 89.822C200.103 90.522 199.967 91.124 199.697 91.628C199.435 92.132 199.057 92.5147 198.563 92.776C198.068 93.0373 197.475 93.168 196.785 93.168ZM201.339 93V92.594C201.339 92.202 201.413 91.8427 201.563 91.516C201.721 91.18 201.927 90.8767 202.179 90.606C202.44 90.326 202.734 90.06 203.061 89.808C203.387 89.556 203.719 89.3087 204.055 89.066C204.512 88.7487 204.932 88.4313 205.315 88.114C205.707 87.7967 206.019 87.456 206.253 87.092C206.486 86.7187 206.603 86.3033 206.603 85.846C206.603 85.5567 206.533 85.2953 206.393 85.062C206.262 84.8193 206.061 84.628 205.791 84.488C205.52 84.348 205.175 84.278 204.755 84.278C204.26 84.278 203.863 84.362 203.565 84.53C203.266 84.698 203.047 84.922 202.907 85.202C202.776 85.482 202.711 85.79 202.711 86.126V86.7H201.493C201.483 86.6533 201.474 86.5833 201.465 86.49C201.455 86.3873 201.451 86.2707 201.451 86.14C201.451 85.4493 201.605 84.894 201.913 84.474C202.221 84.0447 202.631 83.732 203.145 83.536C203.658 83.3307 204.213 83.228 204.811 83.228C205.343 83.228 205.8 83.3027 206.183 83.452C206.565 83.592 206.883 83.788 207.135 84.04C207.387 84.292 207.573 84.5813 207.695 84.908C207.816 85.2253 207.877 85.5613 207.877 85.916C207.877 86.3547 207.797 86.756 207.639 87.12C207.489 87.484 207.275 87.8247 206.995 88.142C206.724 88.45 206.402 88.7487 206.029 89.038C205.665 89.3273 205.268 89.6213 204.839 89.92C204.54 90.116 204.246 90.326 203.957 90.55C203.667 90.7647 203.42 90.984 203.215 91.208C203.009 91.432 202.879 91.6467 202.823 91.852H207.933V93H201.339ZM208.596 93L212.39 83.396H214.14L217.948 93H216.506L215.568 90.62H210.892L209.968 93H208.596ZM211.326 89.486H215.12L213.958 86.476C213.93 86.392 213.888 86.2753 213.832 86.126C213.776 85.9767 213.715 85.8133 213.65 85.636C213.585 85.4493 213.519 85.2627 213.454 85.076C213.389 84.88 213.328 84.7027 213.272 84.544H213.188C213.123 84.7307 213.048 84.9453 212.964 85.188C212.88 85.4307 212.796 85.6687 212.712 85.902C212.628 86.126 212.558 86.3173 212.502 86.476L211.326 89.486ZM161.938 113V111.95H164.36V105.3H161.924V104.516C162.269 104.488 162.624 104.437 162.988 104.362C163.361 104.287 163.725 104.171 164.08 104.012C164.435 103.844 164.757 103.629 165.046 103.368H165.606V111.95H167.888V113H161.938ZM172.417 113.168C171.866 113.168 171.371 113.089 170.933 112.93C170.503 112.771 170.135 112.515 169.827 112.16C169.528 111.805 169.299 111.329 169.141 110.732C168.982 110.125 168.903 109.374 168.903 108.478C168.903 107.489 168.982 106.663 169.141 106C169.299 105.328 169.523 104.791 169.813 104.39C170.111 103.979 170.475 103.685 170.905 103.508C171.343 103.321 171.838 103.228 172.389 103.228C173.079 103.228 173.635 103.359 174.055 103.62C174.484 103.881 174.797 104.236 174.993 104.684C175.189 105.123 175.287 105.627 175.287 106.196H174.027C174.027 105.767 173.966 105.407 173.845 105.118C173.723 104.829 173.532 104.614 173.271 104.474C173.019 104.334 172.701 104.264 172.319 104.264C171.759 104.264 171.32 104.413 171.003 104.712C170.695 105.001 170.48 105.426 170.359 105.986C170.247 106.546 170.186 107.213 170.177 107.988C170.307 107.773 170.489 107.577 170.723 107.4C170.965 107.223 171.25 107.083 171.577 106.98C171.903 106.868 172.249 106.812 172.613 106.812C173.303 106.812 173.873 106.952 174.321 107.232C174.769 107.503 175.1 107.876 175.315 108.352C175.529 108.828 175.637 109.36 175.637 109.948C175.637 110.592 175.497 111.157 175.217 111.642C174.937 112.127 174.554 112.505 174.069 112.776C173.583 113.037 173.033 113.168 172.417 113.168ZM172.333 112.132C172.79 112.132 173.168 112.034 173.467 111.838C173.765 111.633 173.985 111.367 174.125 111.04C174.274 110.704 174.349 110.335 174.349 109.934C174.349 109.551 174.279 109.201 174.139 108.884C173.999 108.567 173.779 108.315 173.481 108.128C173.191 107.932 172.818 107.834 172.361 107.834C171.903 107.834 171.521 107.932 171.213 108.128C170.905 108.324 170.676 108.585 170.527 108.912C170.377 109.229 170.303 109.593 170.303 110.004C170.303 110.387 170.377 110.741 170.527 111.068C170.676 111.395 170.9 111.656 171.199 111.852C171.497 112.039 171.875 112.132 172.333 112.132ZM177.124 115.422V105.636H178.104L178.23 106.686H178.328C178.58 106.275 178.902 105.972 179.294 105.776C179.686 105.571 180.13 105.468 180.624 105.468C181.24 105.468 181.763 105.603 182.192 105.874C182.622 106.145 182.953 106.569 183.186 107.148C183.42 107.717 183.536 108.459 183.536 109.374C183.536 110.233 183.415 110.947 183.172 111.516C182.939 112.076 182.608 112.491 182.178 112.762C181.749 113.033 181.25 113.168 180.68 113.168C180.363 113.168 180.064 113.131 179.784 113.056C179.504 112.981 179.252 112.865 179.028 112.706C178.804 112.538 178.608 112.328 178.44 112.076H178.356V115.422H177.124ZM180.288 112.09C180.746 112.09 181.119 112.001 181.408 111.824C181.698 111.637 181.912 111.353 182.052 110.97C182.192 110.578 182.262 110.079 182.262 109.472V109.178C182.262 108.534 182.188 108.021 182.038 107.638C181.889 107.246 181.67 106.966 181.38 106.798C181.1 106.63 180.75 106.546 180.33 106.546C179.873 106.546 179.495 106.649 179.196 106.854C178.907 107.05 178.692 107.349 178.552 107.75C178.422 108.151 178.356 108.641 178.356 109.22V109.43C178.356 109.943 178.403 110.373 178.496 110.718C178.599 111.054 178.739 111.325 178.916 111.53C179.103 111.735 179.313 111.88 179.546 111.964C179.78 112.048 180.027 112.09 180.288 112.09ZM183.926 113L186.572 109.234L184.052 105.636H185.536L187.328 108.268H187.398L189.19 105.636H190.59L188.07 109.192L190.73 113H189.26L187.328 110.158H187.258L185.326 113H183.926Z" fill="#272433"/><line x1="123" y1="95.5" x2="148.456" y2="95.5" stroke="#272433"/></svg>