<svg width="360" height="170" viewBox="0 0 360 170" fill="none" xmlns="http://www.w3.org/2000/svg"><g filter="url(#filter0_d_4878_69084)"><rect x="20" y="18" width="320" height="130" rx="6" fill="#26252A"/><path d="M47.9998 43.5C47.6546 43.5 47.3748 43.7798 47.3748 44.125V48.5C47.3748 48.8452 47.6546 49.125 47.9998 49.125C48.345 49.125 48.6248 48.8452 48.6248 48.5V44.125C48.6248 43.7798 48.345 43.5 47.9998 43.5Z" fill="#F24D5F"/><path d="M48.6248 51C48.6248 51.3452 48.345 51.625 47.9998 51.625C47.6546 51.625 47.3748 51.3452 47.3748 51C47.3748 50.6548 47.6546 50.375 47.9998 50.375C48.345 50.375 48.6248 50.6548 48.6248 51Z" fill="#F24D5F"/><path fill-rule="evenodd" clip-rule="evenodd" d="M56.2932 52.2502L49.0824 39.7516C48.6014 38.9178 47.398 38.9178 46.917 39.7516L39.7062 52.2502C39.2255 53.0835 39.8269 54.1248 40.789 54.1248H55.2104C56.1725 54.1248 56.7739 53.0835 56.2932 52.2502ZM47.9997 40.3762L55.2104 52.8748H40.789L47.9997 40.3762Z" fill="#F24D5F"/><path d="M68.5568 42.3643V40.8182H76.6804V42.3643H73.5334V51H71.7038V42.3643H68.5568ZM79.8826 46.5256V51H78.0829V40.8182H79.8428V44.6612H79.9323C80.1113 44.2304 80.3881 43.8906 80.7626 43.642C81.1404 43.3902 81.621 43.2642 82.2044 43.2642C82.7347 43.2642 83.197 43.3752 83.5914 43.5973C83.9858 43.8194 84.2908 44.1442 84.5062 44.5717C84.7249 44.9993 84.8343 45.5213 84.8343 46.1378V51H83.0346V46.4162C83.0346 45.9025 82.902 45.5031 82.6369 45.218C82.375 44.9297 82.0071 44.7855 81.5332 44.7855C81.215 44.7855 80.93 44.8551 80.6781 44.9943C80.4295 45.1302 80.2339 45.3274 80.0914 45.5859C79.9522 45.8445 79.8826 46.1577 79.8826 46.5256ZM86.5848 51V43.3636H88.3846V51H86.5848ZM87.4897 42.2798C87.2046 42.2798 86.9594 42.1854 86.7539 41.9964C86.5484 41.8042 86.4456 41.5739 86.4456 41.3054C86.4456 41.0336 86.5484 40.8033 86.7539 40.6143C86.9594 40.4221 87.2046 40.326 87.4897 40.326C87.778 40.326 88.0233 40.4221 88.2255 40.6143C88.431 40.8033 88.5337 41.0336 88.5337 41.3054C88.5337 41.5739 88.431 41.8042 88.2255 41.9964C88.0233 42.1854 87.778 42.2798 87.4897 42.2798ZM96.1867 45.3821L94.5461 45.5611C94.4997 45.3954 94.4185 45.2396 94.3025 45.0938C94.1898 44.9479 94.0374 44.8303 93.8451 44.7408C93.6529 44.6513 93.4176 44.6065 93.1392 44.6065C92.7646 44.6065 92.4498 44.6877 92.1946 44.8501C91.9427 45.0125 91.8184 45.223 91.8217 45.4815C91.8184 45.7036 91.8996 45.8842 92.0653 46.0234C92.2343 46.1626 92.5127 46.277 92.9005 46.3665L94.2031 46.6449C94.9256 46.8007 95.4625 47.0476 95.8139 47.3857C96.1685 47.7237 96.3475 48.1662 96.3508 48.7131C96.3475 49.1937 96.2066 49.6179 95.9282 49.9858C95.6531 50.3504 95.2703 50.6354 94.7798 50.8409C94.2893 51.0464 93.7258 51.1491 93.0894 51.1491C92.1548 51.1491 91.4024 50.9536 90.8323 50.5625C90.2623 50.1681 89.9225 49.6196 89.8132 48.9169L91.5681 48.7479C91.6477 49.0926 91.8167 49.3527 92.0752 49.5284C92.3338 49.7041 92.6702 49.7919 93.0845 49.7919C93.512 49.7919 93.8551 49.7041 94.1136 49.5284C94.3754 49.3527 94.5063 49.1357 94.5063 48.8771C94.5063 48.6584 94.4218 48.4777 94.2528 48.3352C94.0871 48.1927 93.8286 48.0833 93.4772 48.0071L92.1747 47.7337C91.4422 47.5812 90.9003 47.3243 90.549 46.9631C90.1976 46.5985 90.0236 46.1378 90.0269 45.581C90.0236 45.1103 90.1512 44.7027 90.4098 44.358C90.6716 44.0099 91.0345 43.7415 91.4985 43.5526C91.9659 43.3603 92.5045 43.2642 93.1143 43.2642C94.0092 43.2642 94.7135 43.4548 95.2272 43.8359C95.7443 44.2171 96.0641 44.7325 96.1867 45.3821ZM101.139 51V43.3636H102.939V51H101.139ZM102.044 42.2798C101.759 42.2798 101.514 42.1854 101.309 41.9964C101.103 41.8042 101 41.5739 101 41.3054C101 41.0336 101.103 40.8033 101.309 40.6143C101.514 40.4221 101.759 40.326 102.044 40.326C102.333 40.326 102.578 40.4221 102.78 40.6143C102.986 40.8033 103.088 41.0336 103.088 41.3054C103.088 41.5739 102.986 41.8042 102.78 41.9964C102.578 42.1854 102.333 42.2798 102.044 42.2798ZM110.741 45.3821L109.101 45.5611C109.054 45.3954 108.973 45.2396 108.857 45.0938C108.744 44.9479 108.592 44.8303 108.4 44.7408C108.208 44.6513 107.972 44.6065 107.694 44.6065C107.319 44.6065 107.004 44.6877 106.749 44.8501C106.497 45.0125 106.373 45.223 106.376 45.4815C106.373 45.7036 106.454 45.8842 106.62 46.0234C106.789 46.1626 107.067 46.277 107.455 46.3665L108.758 46.6449C109.48 46.8007 110.017 47.0476 110.369 47.3857C110.723 47.7237 110.902 48.1662 110.905 48.7131C110.902 49.1937 110.761 49.6179 110.483 49.9858C110.208 50.3504 109.825 50.6354 109.334 50.8409C108.844 51.0464 108.28 51.1491 107.644 51.1491C106.709 51.1491 105.957 50.9536 105.387 50.5625C104.817 50.1681 104.477 49.6196 104.368 48.9169L106.123 48.7479C106.202 49.0926 106.371 49.3527 106.63 49.5284C106.888 49.7041 107.225 49.7919 107.639 49.7919C108.067 49.7919 108.41 49.7041 108.668 49.5284C108.93 49.3527 109.061 49.1357 109.061 48.8771C109.061 48.6584 108.976 48.4777 108.807 48.3352C108.642 48.1927 108.383 48.0833 108.032 48.0071L106.729 47.7337C105.997 47.5812 105.455 47.3243 105.104 46.9631C104.752 46.5985 104.578 46.1378 104.582 45.581C104.578 45.1103 104.706 44.7027 104.964 44.358C105.226 44.0099 105.589 43.7415 106.053 43.5526C106.521 43.3603 107.059 43.2642 107.669 43.2642C108.564 43.2642 109.268 43.4548 109.782 43.8359C110.299 44.2171 110.619 44.7325 110.741 45.3821ZM117.892 51.1541C117.408 51.1541 116.972 51.0679 116.584 50.8956C116.2 50.7199 115.895 50.4614 115.669 50.12C115.447 49.7786 115.336 49.3577 115.336 48.8572C115.336 48.4264 115.416 48.0701 115.575 47.7884C115.734 47.5066 115.951 47.2812 116.226 47.1122C116.501 46.9432 116.811 46.8156 117.156 46.7294C117.504 46.6399 117.863 46.5753 118.235 46.5355C118.682 46.4891 119.045 46.4477 119.323 46.4112C119.602 46.3714 119.804 46.3118 119.93 46.2322C120.059 46.1494 120.124 46.0218 120.124 45.8494V45.8196C120.124 45.4451 120.013 45.1551 119.791 44.9496C119.569 44.7441 119.249 44.6413 118.831 44.6413C118.39 44.6413 118.041 44.7375 117.782 44.9297C117.527 45.1219 117.355 45.349 117.265 45.6108L115.585 45.3722C115.717 44.9081 115.936 44.5204 116.241 44.2088C116.546 43.8939 116.919 43.6586 117.36 43.5028C117.8 43.3438 118.288 43.2642 118.821 43.2642C119.189 43.2642 119.555 43.3073 119.92 43.3935C120.285 43.4796 120.618 43.6222 120.919 43.821C121.221 44.0166 121.463 44.2834 121.645 44.6214C121.831 44.9595 121.924 45.3821 121.924 45.8892V51H120.193V49.951H120.134C120.024 50.1631 119.87 50.362 119.671 50.5476C119.476 50.7299 119.229 50.8774 118.931 50.9901C118.636 51.0994 118.289 51.1541 117.892 51.1541ZM118.359 49.8317C118.72 49.8317 119.033 49.7604 119.299 49.6179C119.564 49.4721 119.768 49.2798 119.91 49.0412C120.056 48.8026 120.129 48.5424 120.129 48.2607V47.3608C120.072 47.4072 119.976 47.4503 119.84 47.4901C119.708 47.5298 119.559 47.5646 119.393 47.5945C119.227 47.6243 119.063 47.6508 118.901 47.674C118.738 47.6972 118.598 47.7171 118.478 47.7337C118.21 47.7701 117.969 47.8298 117.757 47.9126C117.545 47.9955 117.378 48.1115 117.255 48.2607C117.133 48.4065 117.071 48.5954 117.071 48.8274C117.071 49.1589 117.192 49.4091 117.434 49.5781C117.676 49.7472 117.984 49.8317 118.359 49.8317ZM127.038 51V43.3636H128.758V44.6612H128.847C129.007 44.2237 129.27 43.8823 129.638 43.6371C130.006 43.3885 130.445 43.2642 130.955 43.2642C131.472 43.2642 131.908 43.3902 132.263 43.642C132.621 43.8906 132.873 44.2304 133.019 44.6612H133.098C133.267 44.237 133.552 43.8989 133.953 43.647C134.358 43.3918 134.837 43.2642 135.39 43.2642C136.093 43.2642 136.666 43.4863 137.11 43.9304C137.554 44.3745 137.776 45.0225 137.776 45.8743V51H135.972V46.1527C135.972 45.6787 135.846 45.3324 135.594 45.1136C135.342 44.8916 135.034 44.7805 134.669 44.7805C134.235 44.7805 133.895 44.9164 133.65 45.1882C133.408 45.4567 133.287 45.8063 133.287 46.2372V51H131.522V46.0781C131.522 45.6837 131.403 45.3688 131.164 45.1335C130.929 44.8982 130.621 44.7805 130.24 44.7805C129.981 44.7805 129.746 44.8468 129.534 44.9794C129.321 45.1087 129.152 45.2926 129.026 45.5312C128.901 45.7666 128.838 46.0417 128.838 46.3565V51H127.038ZM142.899 51.1491C142.133 51.1491 141.472 50.9901 140.915 50.6719C140.362 50.3504 139.936 49.8963 139.638 49.3097C139.339 48.7197 139.19 48.0253 139.19 47.2266C139.19 46.4411 139.339 45.7517 139.638 45.1584C139.939 44.5618 140.36 44.0978 140.9 43.7663C141.441 43.4316 142.075 43.2642 142.805 43.2642C143.275 43.2642 143.719 43.3404 144.137 43.4929C144.558 43.642 144.929 43.8741 145.251 44.1889C145.575 44.5038 145.831 44.9048 146.016 45.392C146.202 45.8759 146.295 46.4527 146.295 47.1222V47.674H140.035V46.4609H144.569C144.566 46.1162 144.492 45.8097 144.346 45.5412C144.2 45.2694 143.996 45.0556 143.734 44.8999C143.476 44.7441 143.174 44.6662 142.829 44.6662C142.461 44.6662 142.138 44.7557 141.86 44.9347C141.582 45.1103 141.364 45.3423 141.209 45.6307C141.056 45.9157 140.978 46.2289 140.975 46.5703V47.6293C140.975 48.0734 141.056 48.4545 141.219 48.7727C141.381 49.0876 141.608 49.3295 141.9 49.4986C142.191 49.6643 142.533 49.7472 142.924 49.7472C143.186 49.7472 143.423 49.7107 143.635 49.6378C143.847 49.5616 144.031 49.4505 144.187 49.3047C144.342 49.1589 144.46 48.9782 144.54 48.7628L146.22 48.9517C146.114 49.3958 145.912 49.7836 145.613 50.1151C145.318 50.4432 144.941 50.6984 144.48 50.8807C144.019 51.0597 143.492 51.1491 142.899 51.1491ZM153.769 45.3821L152.128 45.5611C152.082 45.3954 152 45.2396 151.884 45.0938C151.772 44.9479 151.619 44.8303 151.427 44.7408C151.235 44.6513 150.999 44.6065 150.721 44.6065C150.347 44.6065 150.032 44.6877 149.776 44.8501C149.525 45.0125 149.4 45.223 149.404 45.4815C149.4 45.7036 149.481 45.8842 149.647 46.0234C149.816 46.1626 150.095 46.277 150.482 46.3665L151.785 46.6449C152.508 46.8007 153.044 47.0476 153.396 47.3857C153.75 47.7237 153.929 48.1662 153.933 48.7131C153.929 49.1937 153.789 49.6179 153.51 49.9858C153.235 50.3504 152.852 50.6354 152.362 50.8409C151.871 51.0464 151.308 51.1491 150.671 51.1491C149.737 51.1491 148.984 50.9536 148.414 50.5625C147.844 50.1681 147.504 49.6196 147.395 48.9169L149.15 48.7479C149.23 49.0926 149.399 49.3527 149.657 49.5284C149.916 49.7041 150.252 49.7919 150.666 49.7919C151.094 49.7919 151.437 49.7041 151.695 49.5284C151.957 49.3527 152.088 49.1357 152.088 48.8771C152.088 48.6584 152.004 48.4777 151.835 48.3352C151.669 48.1927 151.41 48.0833 151.059 48.0071L149.757 47.7337C149.024 47.5812 148.482 47.3243 148.131 46.9631C147.78 46.5985 147.606 46.1378 147.609 45.581C147.606 45.1103 147.733 44.7027 147.992 44.358C148.253 44.0099 148.616 43.7415 149.08 43.5526C149.548 43.3603 150.086 43.2642 150.696 43.2642C151.591 43.2642 152.295 43.4548 152.809 43.8359C153.326 44.2171 153.646 44.7325 153.769 45.3821ZM161.368 45.3821L159.728 45.5611C159.681 45.3954 159.6 45.2396 159.484 45.0938C159.371 44.9479 159.219 44.8303 159.027 44.7408C158.834 44.6513 158.599 44.6065 158.321 44.6065C157.946 44.6065 157.631 44.6877 157.376 44.8501C157.124 45.0125 157 45.223 157.003 45.4815C157 45.7036 157.081 45.8842 157.247 46.0234C157.416 46.1626 157.694 46.277 158.082 46.3665L159.385 46.6449C160.107 46.8007 160.644 47.0476 160.995 47.3857C161.35 47.7237 161.529 48.1662 161.532 48.7131C161.529 49.1937 161.388 49.6179 161.11 49.9858C160.835 50.3504 160.452 50.6354 159.961 50.8409C159.471 51.0464 158.907 51.1491 158.271 51.1491C157.336 51.1491 156.584 50.9536 156.014 50.5625C155.444 50.1681 155.104 49.6196 154.995 48.9169L156.75 48.7479C156.829 49.0926 156.998 49.3527 157.257 49.5284C157.515 49.7041 157.852 49.7919 158.266 49.7919C158.694 49.7919 159.037 49.7041 159.295 49.5284C159.557 49.3527 159.688 49.1357 159.688 48.8771C159.688 48.6584 159.603 48.4777 159.434 48.3352C159.269 48.1927 159.01 48.0833 158.659 48.0071L157.356 47.7337C156.624 47.5812 156.082 47.3243 155.73 46.9631C155.379 46.5985 155.205 46.1378 155.208 45.581C155.205 45.1103 155.333 44.7027 155.591 44.358C155.853 44.0099 156.216 43.7415 156.68 43.5526C157.147 43.3603 157.686 43.2642 158.296 43.2642C159.191 43.2642 159.895 43.4548 160.409 43.8359C160.926 44.2171 161.246 44.7325 161.368 45.3821ZM165.13 51.1541C164.646 51.1541 164.21 51.0679 163.822 50.8956C163.438 50.7199 163.133 50.4614 162.907 50.12C162.685 49.7786 162.574 49.3577 162.574 48.8572C162.574 48.4264 162.654 48.0701 162.813 47.7884C162.972 47.5066 163.189 47.2812 163.464 47.1122C163.739 46.9432 164.049 46.8156 164.394 46.7294C164.742 46.6399 165.102 46.5753 165.473 46.5355C165.92 46.4891 166.283 46.4477 166.562 46.4112C166.84 46.3714 167.042 46.3118 167.168 46.2322C167.297 46.1494 167.362 46.0218 167.362 45.8494V45.8196C167.362 45.4451 167.251 45.1551 167.029 44.9496C166.807 44.7441 166.487 44.6413 166.069 44.6413C165.629 44.6413 165.279 44.7375 165.02 44.9297C164.765 45.1219 164.593 45.349 164.503 45.6108L162.823 45.3722C162.956 44.9081 163.174 44.5204 163.479 44.2088C163.784 43.8939 164.157 43.6586 164.598 43.5028C165.039 43.3438 165.526 43.2642 166.059 43.2642C166.427 43.2642 166.794 43.3073 167.158 43.3935C167.523 43.4796 167.856 43.6222 168.157 43.821C168.459 44.0166 168.701 44.2834 168.883 44.6214C169.069 44.9595 169.162 45.3821 169.162 45.8892V51H167.432V49.951H167.372C167.263 50.1631 167.108 50.362 166.91 50.5476C166.714 50.7299 166.467 50.8774 166.169 50.9901C165.874 51.0994 165.527 51.1541 165.13 51.1541ZM165.597 49.8317C165.958 49.8317 166.272 49.7604 166.537 49.6179C166.802 49.4721 167.006 49.2798 167.148 49.0412C167.294 48.8026 167.367 48.5424 167.367 48.2607V47.3608C167.311 47.4072 167.215 47.4503 167.079 47.4901C166.946 47.5298 166.797 47.5646 166.631 47.5945C166.465 47.6243 166.301 47.6508 166.139 47.674C165.977 47.6972 165.836 47.7171 165.716 47.7337C165.448 47.7701 165.208 47.8298 164.996 47.9126C164.783 47.9955 164.616 48.1115 164.493 48.2607C164.371 48.4065 164.309 48.5954 164.309 48.8274C164.309 49.1589 164.43 49.4091 164.672 49.5781C164.914 49.7472 165.223 49.8317 165.597 49.8317ZM174.208 54.0227C173.562 54.0227 173.007 53.9349 172.543 53.7592C172.079 53.5869 171.706 53.3549 171.424 53.0632C171.143 52.7715 170.947 52.4484 170.838 52.0938L172.458 51.701C172.531 51.8501 172.637 51.9976 172.777 52.1435C172.916 52.2926 173.103 52.4152 173.338 52.5114C173.577 52.6108 173.877 52.6605 174.238 52.6605C174.749 52.6605 175.171 52.5362 175.506 52.2876C175.841 52.0424 176.008 51.638 176.008 51.0746V49.6278H175.919C175.826 49.8134 175.69 50.004 175.511 50.1996C175.335 50.3951 175.102 50.5592 174.81 50.6918C174.522 50.8243 174.159 50.8906 173.721 50.8906C173.135 50.8906 172.603 50.7531 172.125 50.478C171.651 50.1996 171.273 49.7853 170.992 49.2351C170.713 48.6816 170.574 47.9889 170.574 47.157C170.574 46.3184 170.713 45.6108 170.992 45.0341C171.273 44.4541 171.653 44.0149 172.13 43.7166C172.608 43.415 173.14 43.2642 173.726 43.2642C174.174 43.2642 174.541 43.3404 174.83 43.4929C175.122 43.642 175.354 43.8227 175.526 44.0348C175.698 44.2436 175.829 44.4408 175.919 44.6264H176.018V43.3636H177.793V51.1243C177.793 51.7772 177.637 52.3175 177.326 52.745C177.014 53.1726 176.588 53.4924 176.048 53.7045C175.508 53.9167 174.894 54.0227 174.208 54.0227ZM174.223 49.4787C174.604 49.4787 174.929 49.3859 175.198 49.2003C175.466 49.0147 175.67 48.7479 175.809 48.3999C175.948 48.0518 176.018 47.6342 176.018 47.147C176.018 46.6664 175.948 46.2455 175.809 45.8842C175.673 45.523 175.471 45.2429 175.203 45.044C174.938 44.8419 174.611 44.7408 174.223 44.7408C173.822 44.7408 173.488 44.8452 173.219 45.054C172.951 45.2628 172.748 45.5495 172.613 45.9141C172.477 46.2753 172.409 46.6863 172.409 47.147C172.409 47.6143 172.477 48.0237 172.613 48.375C172.752 48.723 172.956 48.9948 173.224 49.1903C173.496 49.3826 173.829 49.4787 174.223 49.4787ZM182.934 51.1491C182.168 51.1491 181.507 50.9901 180.95 50.6719C180.397 50.3504 179.971 49.8963 179.673 49.3097C179.374 48.7197 179.225 48.0253 179.225 47.2266C179.225 46.4411 179.374 45.7517 179.673 45.1584C179.974 44.5618 180.395 44.0978 180.935 43.7663C181.476 43.4316 182.11 43.2642 182.84 43.2642C183.31 43.2642 183.754 43.3404 184.172 43.4929C184.593 43.642 184.964 43.8741 185.286 44.1889C185.61 44.5038 185.866 44.9048 186.051 45.392C186.237 45.8759 186.33 46.4527 186.33 47.1222V47.674H180.07V46.4609H184.605C184.601 46.1162 184.527 45.8097 184.381 45.5412C184.235 45.2694 184.031 45.0556 183.769 44.8999C183.511 44.7441 183.209 44.6662 182.864 44.6662C182.497 44.6662 182.173 44.7557 181.895 44.9347C181.617 45.1103 181.399 45.3423 181.244 45.6307C181.091 45.9157 181.013 46.2289 181.01 46.5703V47.6293C181.01 48.0734 181.091 48.4545 181.254 48.7727C181.416 49.0876 181.643 49.3295 181.935 49.4986C182.226 49.6643 182.568 49.7472 182.959 49.7472C183.221 49.7472 183.458 49.7107 183.67 49.6378C183.882 49.5616 184.066 49.4505 184.222 49.3047C184.377 49.1589 184.495 48.9782 184.575 48.7628L186.255 48.9517C186.149 49.3958 185.947 49.7836 185.649 50.1151C185.354 50.4432 184.976 50.6984 184.515 50.8807C184.054 51.0597 183.527 51.1491 182.934 51.1491Z" fill="white"/><path d="M69.6506 79H68.358L72.0966 68.8182H73.3693L77.108 79H75.8153L72.7727 70.429H72.6932L69.6506 79ZM70.1278 75.0227H75.3381V76.1165H70.1278V75.0227ZM79.6241 74.4062V79H78.4508V71.3636H79.5843V72.5568H79.6838C79.8627 72.169 80.1345 71.8575 80.4991 71.6222C80.8637 71.3835 81.3343 71.2642 81.911 71.2642C82.4281 71.2642 82.8805 71.3703 83.2683 71.5824C83.6561 71.7912 83.9577 72.1094 84.1731 72.5369C84.3885 72.9612 84.4963 73.4981 84.4963 74.1477V79H83.323V74.2273C83.323 73.6274 83.1672 73.16 82.8556 72.8253C82.5441 72.4872 82.1165 72.3182 81.573 72.3182C81.1984 72.3182 80.8637 72.3994 80.5687 72.5618C80.277 72.7242 80.0467 72.9612 79.8776 73.2727C79.7086 73.5843 79.6241 73.9621 79.6241 74.4062ZM89.4398 79.1591C88.8034 79.1591 88.2416 78.9983 87.7544 78.6768C87.2672 78.352 86.886 77.8946 86.6109 77.3047C86.3358 76.7114 86.1983 76.0104 86.1983 75.2017C86.1983 74.3996 86.3358 73.7036 86.6109 73.1136C86.886 72.5237 87.2688 72.0679 87.7594 71.7464C88.2499 71.425 88.8167 71.2642 89.4597 71.2642C89.9568 71.2642 90.3496 71.3471 90.6379 71.5128C90.9296 71.6752 91.1517 71.8608 91.3041 72.0696C91.4599 72.2751 91.5809 72.4441 91.6671 72.5767H91.7665V68.8182H92.9398V79H91.8063V77.8267H91.6671C91.5809 77.9659 91.4582 78.1416 91.2992 78.3537C91.1401 78.5625 90.913 78.7498 90.618 78.9155C90.3231 79.0779 89.9303 79.1591 89.4398 79.1591ZM89.5989 78.1051C90.0695 78.1051 90.4672 77.9825 90.7921 77.7372C91.1169 77.4886 91.3638 77.1456 91.5328 76.7081C91.7019 76.2673 91.7864 75.7585 91.7864 75.1818C91.7864 74.6117 91.7035 74.1129 91.5378 73.6854C91.3721 73.2545 91.1268 72.9197 90.802 72.6811C90.4772 72.4392 90.0761 72.3182 89.5989 72.3182C89.1017 72.3182 88.6874 72.4458 88.356 72.701C88.0278 72.9529 87.7809 73.2959 87.6152 73.7301C87.4528 74.161 87.3716 74.6449 87.3716 75.1818C87.3716 75.7254 87.4545 76.2192 87.6202 76.6634C87.7892 77.1042 88.0378 77.4555 88.3659 77.7173C88.6974 77.9759 89.1083 78.1051 89.5989 78.1051ZM101.268 79.179C100.784 79.179 100.345 79.0878 99.9508 78.9055C99.5563 78.7199 99.2431 78.4531 99.0111 78.1051C98.7791 77.7538 98.6631 77.3295 98.6631 76.8324C98.6631 76.3949 98.7493 76.0402 98.9216 75.7685C99.094 75.4934 99.3243 75.2779 99.6127 75.1222C99.901 74.9664 100.219 74.8504 100.567 74.7741C100.919 74.6946 101.272 74.6316 101.626 74.5852C102.09 74.5256 102.466 74.4808 102.755 74.451C103.046 74.4179 103.259 74.3632 103.391 74.2869C103.527 74.2107 103.595 74.0781 103.595 73.8892V73.8494C103.595 73.3589 103.461 72.9777 103.192 72.706C102.927 72.4342 102.524 72.2983 101.984 72.2983C101.424 72.2983 100.985 72.4209 100.667 72.6662C100.348 72.9115 100.125 73.1733 99.9955 73.4517L98.8819 73.054C99.0807 72.59 99.3459 72.2287 99.6773 71.9702C100.012 71.7083 100.377 71.526 100.771 71.4233C101.169 71.3172 101.56 71.2642 101.944 71.2642C102.19 71.2642 102.471 71.294 102.79 71.3537C103.111 71.41 103.421 71.5277 103.719 71.7067C104.021 71.8857 104.271 72.1558 104.47 72.517C104.669 72.8783 104.768 73.3622 104.768 73.9688V79H103.595V77.9659H103.535C103.456 78.1316 103.323 78.3089 103.138 78.4979C102.952 78.6868 102.705 78.8475 102.397 78.9801C102.089 79.1127 101.712 79.179 101.268 79.179ZM101.447 78.125C101.911 78.125 102.302 78.0339 102.62 77.8516C102.942 77.6693 103.184 77.4339 103.346 77.1456C103.512 76.8572 103.595 76.554 103.595 76.2358V75.1619C103.545 75.2216 103.436 75.2763 103.267 75.326C103.101 75.3724 102.909 75.4138 102.69 75.4503C102.475 75.4834 102.264 75.5133 102.059 75.5398C101.857 75.563 101.692 75.5829 101.567 75.5994C101.262 75.6392 100.977 75.7038 100.711 75.7933C100.45 75.8795 100.237 76.0104 100.075 76.1861C99.916 76.3584 99.8364 76.5937 99.8364 76.892C99.8364 77.2997 99.9872 77.608 100.289 77.8168C100.594 78.0223 100.98 78.125 101.447 78.125ZM113.563 79.1591C112.926 79.1591 112.365 78.9983 111.877 78.6768C111.39 78.352 111.009 77.8946 110.734 77.3047C110.459 76.7114 110.321 76.0104 110.321 75.2017C110.321 74.3996 110.459 73.7036 110.734 73.1136C111.009 72.5237 111.392 72.0679 111.882 71.7464C112.373 71.425 112.94 71.2642 113.583 71.2642C114.08 71.2642 114.473 71.3471 114.761 71.5128C115.053 71.6752 115.275 71.8608 115.427 72.0696C115.583 72.2751 115.704 72.4441 115.79 72.5767H115.889V68.8182H117.063V79H115.929V77.8267H115.79C115.704 77.9659 115.581 78.1416 115.422 78.3537C115.263 78.5625 115.036 78.7498 114.741 78.9155C114.446 79.0779 114.053 79.1591 113.563 79.1591ZM113.722 78.1051C114.192 78.1051 114.59 77.9825 114.915 77.7372C115.24 77.4886 115.487 77.1456 115.656 76.7081C115.825 76.2673 115.909 75.7585 115.909 75.1818C115.909 74.6117 115.826 74.1129 115.661 73.6854C115.495 73.2545 115.25 72.9197 114.925 72.6811C114.6 72.4392 114.199 72.3182 113.722 72.3182C113.225 72.3182 112.81 72.4458 112.479 72.701C112.151 72.9529 111.904 73.2959 111.738 73.7301C111.576 74.161 111.495 74.6449 111.495 75.1818C111.495 75.7254 111.577 76.2192 111.743 76.6634C111.912 77.1042 112.161 77.4555 112.489 77.7173C112.82 77.9759 113.231 78.1051 113.722 78.1051ZM122.492 79.1591C121.756 79.1591 121.122 78.9967 120.588 78.6719C120.058 78.3438 119.649 77.8864 119.36 77.2997C119.075 76.7098 118.933 76.0237 118.933 75.2415C118.933 74.4593 119.075 73.7699 119.36 73.1733C119.649 72.5734 120.05 72.1061 120.563 71.7713C121.08 71.4332 121.684 71.2642 122.373 71.2642C122.771 71.2642 123.163 71.3305 123.551 71.4631C123.939 71.5956 124.292 71.8111 124.61 72.1094C124.928 72.4044 125.182 72.7955 125.371 73.2827C125.56 73.7699 125.654 74.3698 125.654 75.0824V75.5795H119.768V74.5653H124.461C124.461 74.1345 124.375 73.75 124.202 73.4119C124.033 73.0739 123.791 72.8071 123.477 72.6115C123.165 72.416 122.797 72.3182 122.373 72.3182C121.906 72.3182 121.501 72.4342 121.16 72.6662C120.822 72.8949 120.562 73.1932 120.379 73.5611C120.197 73.929 120.106 74.3234 120.106 74.7443V75.4205C120.106 75.9972 120.205 76.486 120.404 76.8871C120.606 77.2848 120.886 77.5881 121.244 77.7969C121.602 78.0024 122.018 78.1051 122.492 78.1051C122.8 78.1051 123.079 78.062 123.327 77.9759C123.579 77.8864 123.796 77.7538 123.979 77.5781C124.161 77.3991 124.302 77.1771 124.401 76.9119L125.535 77.2301C125.416 77.6146 125.215 77.9527 124.933 78.2443C124.652 78.5327 124.304 78.758 123.889 78.9205C123.475 79.0795 123.009 79.1591 122.492 79.1591ZM132.764 73.0739L131.71 73.3722C131.644 73.1965 131.546 73.0258 131.417 72.8601C131.291 72.6911 131.118 72.5518 130.9 72.4425C130.681 72.3331 130.401 72.2784 130.06 72.2784C129.592 72.2784 129.203 72.3861 128.891 72.6016C128.583 72.8137 128.429 73.0838 128.429 73.4119C128.429 73.7036 128.535 73.9339 128.747 74.103C128.959 74.272 129.291 74.4129 129.741 74.5256L130.875 74.804C131.558 74.9697 132.066 75.2232 132.401 75.5646C132.736 75.9027 132.903 76.3385 132.903 76.8722C132.903 77.3097 132.777 77.7008 132.525 78.0455C132.277 78.3902 131.929 78.6619 131.481 78.8608C131.034 79.0597 130.514 79.1591 129.92 79.1591C129.141 79.1591 128.497 78.9901 127.986 78.652C127.476 78.3139 127.153 77.8201 127.017 77.1705L128.131 76.892C128.237 77.303 128.437 77.6113 128.732 77.8168C129.03 78.0223 129.42 78.125 129.9 78.125C130.447 78.125 130.882 78.009 131.203 77.777C131.528 77.5417 131.69 77.2599 131.69 76.9318C131.69 76.6667 131.597 76.4446 131.412 76.2656C131.226 76.0833 130.941 75.9474 130.557 75.858L129.284 75.5597C128.585 75.3939 128.071 75.1371 127.743 74.7891C127.418 74.4377 127.256 73.9986 127.256 73.4716C127.256 73.0407 127.377 72.6596 127.618 72.3281C127.864 71.9967 128.197 71.7365 128.618 71.5476C129.042 71.3587 129.523 71.2642 130.06 71.2642C130.815 71.2642 131.408 71.4299 131.839 71.7614C132.274 72.0928 132.582 72.5303 132.764 73.0739ZM137.688 79.1591C136.972 79.1591 136.355 78.9901 135.838 78.652C135.321 78.3139 134.924 77.8482 134.645 77.255C134.367 76.6617 134.227 75.9839 134.227 75.2216C134.227 74.446 134.37 73.7616 134.655 73.1683C134.943 72.5717 135.344 72.1061 135.858 71.7713C136.375 71.4332 136.978 71.2642 137.668 71.2642C138.205 71.2642 138.689 71.3636 139.12 71.5625C139.55 71.7614 139.903 72.0398 140.178 72.3977C140.454 72.7557 140.624 73.1733 140.691 73.6506H139.517C139.428 73.3026 139.229 72.9943 138.921 72.7259C138.616 72.4541 138.205 72.3182 137.688 72.3182C137.23 72.3182 136.829 72.4375 136.485 72.6761C136.143 72.9115 135.876 73.2446 135.684 73.6754C135.495 74.103 135.401 74.6051 135.401 75.1818C135.401 75.7718 135.494 76.2855 135.679 76.723C135.868 77.1605 136.133 77.5002 136.475 77.7422C136.819 77.9841 137.224 78.1051 137.688 78.1051C137.993 78.1051 138.269 78.0521 138.518 77.946C138.767 77.84 138.977 77.6875 139.149 77.4886C139.322 77.2898 139.444 77.0511 139.517 76.7727H140.691C140.624 77.2235 140.46 77.6295 140.198 77.9908C139.94 78.3487 139.597 78.6338 139.169 78.8459C138.745 79.0547 138.251 79.1591 137.688 79.1591ZM142.322 79V71.3636H143.455V72.517H143.535C143.674 72.1392 143.926 71.8326 144.291 71.5973C144.655 71.362 145.066 71.2443 145.523 71.2443C145.61 71.2443 145.717 71.246 145.847 71.2493C145.976 71.2526 146.074 71.2576 146.14 71.2642V72.4574C146.1 72.4474 146.009 72.4325 145.867 72.4126C145.727 72.3894 145.58 72.3778 145.424 72.3778C145.053 72.3778 144.721 72.4557 144.43 72.6115C144.141 72.764 143.913 72.9761 143.744 73.2479C143.578 73.5163 143.495 73.8229 143.495 74.1676V79H142.322ZM147.447 79V71.3636H148.62V79H147.447ZM148.043 70.0909C147.815 70.0909 147.617 70.013 147.452 69.8572C147.289 69.7015 147.208 69.5142 147.208 69.2955C147.208 69.0767 147.289 68.8894 147.452 68.7337C147.617 68.5779 147.815 68.5 148.043 68.5C148.272 68.5 148.468 68.5779 148.63 68.7337C148.796 68.8894 148.879 69.0767 148.879 69.2955C148.879 69.5142 148.796 69.7015 148.63 69.8572C148.468 70.013 148.272 70.0909 148.043 70.0909ZM150.685 81.8636V71.3636H151.819V72.5767H151.958C152.044 72.4441 152.163 72.2751 152.316 72.0696C152.471 71.8608 152.694 71.6752 152.982 71.5128C153.274 71.3471 153.668 71.2642 154.165 71.2642C154.808 71.2642 155.375 71.425 155.865 71.7464C156.356 72.0679 156.739 72.5237 157.014 73.1136C157.289 73.7036 157.426 74.3996 157.426 75.2017C157.426 76.0104 157.289 76.7114 157.014 77.3047C156.739 77.8946 156.358 78.352 155.87 78.6768C155.383 78.9983 154.821 79.1591 154.185 79.1591C153.694 79.1591 153.302 79.0779 153.007 78.9155C152.712 78.7498 152.485 78.5625 152.326 78.3537C152.167 78.1416 152.044 77.9659 151.958 77.8267H151.858V81.8636H150.685ZM151.838 75.1818C151.838 75.7585 151.923 76.2673 152.092 76.7081C152.261 77.1456 152.508 77.4886 152.833 77.7372C153.158 77.9825 153.555 78.1051 154.026 78.1051C154.516 78.1051 154.926 77.9759 155.254 77.7173C155.585 77.4555 155.834 77.1042 156 76.6634C156.169 76.2192 156.253 75.7254 156.253 75.1818C156.253 74.6449 156.17 74.161 156.005 73.7301C155.842 73.2959 155.595 72.9529 155.264 72.701C154.936 72.4458 154.523 72.3182 154.026 72.3182C153.549 72.3182 153.148 72.4392 152.823 72.6811C152.498 72.9197 152.253 73.2545 152.087 73.6854C151.921 74.1129 151.838 74.6117 151.838 75.1818ZM162.453 71.3636V72.358H158.496V71.3636H162.453ZM159.649 69.5341H160.823V76.8125C160.823 77.1439 160.871 77.3925 160.967 77.5582C161.066 77.7206 161.192 77.83 161.345 77.8864C161.5 77.9394 161.664 77.9659 161.837 77.9659C161.966 77.9659 162.072 77.9593 162.155 77.946C162.238 77.9295 162.304 77.9162 162.354 77.9062L162.592 78.9602C162.513 78.9901 162.402 79.0199 162.259 79.0497C162.117 79.0829 161.936 79.0994 161.717 79.0994C161.386 79.0994 161.061 79.0282 160.743 78.8857C160.428 78.7431 160.166 78.526 159.958 78.2344C159.752 77.9427 159.649 77.5748 159.649 77.1307V69.5341ZM164.134 79V71.3636H165.307V79H164.134ZM164.731 70.0909C164.502 70.0909 164.305 70.013 164.139 69.8572C163.977 69.7015 163.896 69.5142 163.896 69.2955C163.896 69.0767 163.977 68.8894 164.139 68.7337C164.305 68.5779 164.502 68.5 164.731 68.5C164.959 68.5 165.155 68.5779 165.317 68.7337C165.483 68.8894 165.566 69.0767 165.566 69.2955C165.566 69.5142 165.483 69.7015 165.317 69.8572C165.155 70.013 164.959 70.0909 164.731 70.0909ZM170.475 79.1591C169.785 79.1591 169.18 78.995 168.66 78.6669C168.143 78.3388 167.739 77.8797 167.447 77.2898C167.159 76.6998 167.015 76.0104 167.015 75.2216C167.015 74.4261 167.159 73.7318 167.447 73.1385C167.739 72.5452 168.143 72.0845 168.66 71.7564C169.18 71.4283 169.785 71.2642 170.475 71.2642C171.164 71.2642 171.767 71.4283 172.284 71.7564C172.805 72.0845 173.209 72.5452 173.497 73.1385C173.789 73.7318 173.935 74.4261 173.935 75.2216C173.935 76.0104 173.789 76.6998 173.497 77.2898C173.209 77.8797 172.805 78.3388 172.284 78.6669C171.767 78.995 171.164 79.1591 170.475 79.1591ZM170.475 78.1051C170.998 78.1051 171.429 77.9709 171.767 77.7024C172.105 77.4339 172.356 77.081 172.518 76.6435C172.68 76.206 172.762 75.732 172.762 75.2216C172.762 74.7112 172.68 74.2356 172.518 73.7947C172.356 73.3539 172.105 72.9976 171.767 72.7259C171.429 72.4541 170.998 72.3182 170.475 72.3182C169.951 72.3182 169.52 72.4541 169.182 72.7259C168.844 72.9976 168.594 73.3539 168.431 73.7947C168.269 74.2356 168.188 74.7112 168.188 75.2216C168.188 75.732 168.269 76.206 168.431 76.6435C168.594 77.081 168.844 77.4339 169.182 77.7024C169.52 77.9709 169.951 78.1051 170.475 78.1051ZM176.815 74.4062V79H175.642V71.3636H176.775V72.5568H176.875C177.054 72.169 177.326 71.8575 177.69 71.6222C178.055 71.3835 178.525 71.2642 179.102 71.2642C179.619 71.2642 180.072 71.3703 180.459 71.5824C180.847 71.7912 181.149 72.1094 181.364 72.5369C181.58 72.9612 181.687 73.4981 181.687 74.1477V79H180.514V74.2273C180.514 73.6274 180.358 73.16 180.047 72.8253C179.735 72.4872 179.308 72.3182 178.764 72.3182C178.39 72.3182 178.055 72.3994 177.76 72.5618C177.468 72.7242 177.238 72.9612 177.069 73.2727C176.9 73.5843 176.815 73.9621 176.815 74.4062ZM190.922 71.3636V72.358H186.965V71.3636H190.922ZM188.118 69.5341H189.291V76.8125C189.291 77.1439 189.339 77.3925 189.435 77.5582C189.535 77.7206 189.661 77.83 189.813 77.8864C189.969 77.9394 190.133 77.9659 190.305 77.9659C190.435 77.9659 190.541 77.9593 190.624 77.946C190.707 77.9295 190.773 77.9162 190.823 77.9062L191.061 78.9602C190.982 78.9901 190.871 79.0199 190.728 79.0497C190.586 79.0829 190.405 79.0994 190.186 79.0994C189.855 79.0994 189.53 79.0282 189.212 78.8857C188.897 78.7431 188.635 78.526 188.426 78.2344C188.221 77.9427 188.118 77.5748 188.118 77.1307V69.5341ZM193.94 74.4062V79H192.767V68.8182H193.94V72.5568H194.04C194.219 72.1624 194.487 71.8492 194.845 71.6172C195.206 71.3819 195.687 71.2642 196.287 71.2642C196.807 71.2642 197.263 71.3686 197.654 71.5774C198.045 71.7829 198.348 72.0994 198.564 72.527C198.783 72.9512 198.892 73.4915 198.892 74.1477V79H197.719V74.2273C197.719 73.6207 197.561 73.1518 197.246 72.8203C196.935 72.4856 196.502 72.3182 195.949 72.3182C195.564 72.3182 195.22 72.3994 194.915 72.5618C194.613 72.7242 194.374 72.9612 194.199 73.2727C194.026 73.5843 193.94 73.9621 193.94 74.4062ZM203.202 79.179C202.718 79.179 202.279 79.0878 201.884 78.9055C201.49 78.7199 201.176 78.4531 200.944 78.1051C200.712 77.7538 200.596 77.3295 200.596 76.8324C200.596 76.3949 200.683 76.0402 200.855 75.7685C201.027 75.4934 201.258 75.2779 201.546 75.1222C201.834 74.9664 202.153 74.8504 202.501 74.7741C202.852 74.6946 203.205 74.6316 203.56 74.5852C204.024 74.5256 204.4 74.4808 204.688 74.451C204.98 74.4179 205.192 74.3632 205.324 74.2869C205.46 74.2107 205.528 74.0781 205.528 73.8892V73.8494C205.528 73.3589 205.394 72.9777 205.126 72.706C204.86 72.4342 204.458 72.2983 203.917 72.2983C203.357 72.2983 202.918 72.4209 202.6 72.6662C202.282 72.9115 202.058 73.1733 201.929 73.4517L200.815 73.054C201.014 72.59 201.279 72.2287 201.611 71.9702C201.945 71.7083 202.31 71.526 202.704 71.4233C203.102 71.3172 203.493 71.2642 203.878 71.2642C204.123 71.2642 204.405 71.294 204.723 71.3537C205.044 71.41 205.354 71.5277 205.653 71.7067C205.954 71.8857 206.204 72.1558 206.403 72.517C206.602 72.8783 206.702 73.3622 206.702 73.9688V79H205.528V77.9659H205.469C205.389 78.1316 205.257 78.3089 205.071 78.4979C204.885 78.6868 204.638 78.8475 204.33 78.9801C204.022 79.1127 203.646 79.179 203.202 79.179ZM203.381 78.125C203.845 78.125 204.236 78.0339 204.554 77.8516C204.875 77.6693 205.117 77.4339 205.28 77.1456C205.445 76.8572 205.528 76.554 205.528 76.2358V75.1619C205.479 75.2216 205.369 75.2763 205.2 75.326C205.034 75.3724 204.842 75.4138 204.623 75.4503C204.408 75.4834 204.198 75.5133 203.992 75.5398C203.79 75.563 203.626 75.5829 203.5 75.5994C203.195 75.6392 202.91 75.7038 202.645 75.7933C202.383 75.8795 202.171 76.0104 202.008 76.1861C201.849 76.3584 201.77 76.5937 201.77 76.892C201.77 77.2997 201.921 77.608 202.222 77.8168C202.527 78.0223 202.913 78.125 203.381 78.125ZM212.08 71.3636V72.358H208.123V71.3636H212.08ZM209.276 69.5341H210.449V76.8125C210.449 77.1439 210.497 77.3925 210.594 77.5582C210.693 77.7206 210.819 77.83 210.971 77.8864C211.127 77.9394 211.291 77.9659 211.464 77.9659C211.593 77.9659 211.699 77.9593 211.782 77.946C211.865 77.9295 211.931 77.9162 211.981 77.9062L212.219 78.9602C212.14 78.9901 212.029 79.0199 211.886 79.0497C211.744 79.0829 211.563 79.0994 211.344 79.0994C211.013 79.0994 210.688 79.0282 210.37 78.8857C210.055 78.7431 209.793 78.526 209.584 78.2344C209.379 77.9427 209.276 77.5748 209.276 77.1307V69.5341ZM220.717 79.1591C220.001 79.1591 219.384 78.9901 218.867 78.652C218.35 78.3139 217.953 77.8482 217.674 77.255C217.396 76.6617 217.257 75.9839 217.257 75.2216C217.257 74.446 217.399 73.7616 217.684 73.1683C217.972 72.5717 218.374 72.1061 218.887 71.7713C219.404 71.4332 220.008 71.2642 220.697 71.2642C221.234 71.2642 221.718 71.3636 222.149 71.5625C222.579 71.7614 222.932 72.0398 223.208 72.3977C223.483 72.7557 223.653 73.1733 223.72 73.6506H222.546C222.457 73.3026 222.258 72.9943 221.95 72.7259C221.645 72.4541 221.234 72.3182 220.717 72.3182C220.259 72.3182 219.858 72.4375 219.514 72.6761C219.172 72.9115 218.905 73.2446 218.713 73.6754C218.524 74.103 218.43 74.6051 218.43 75.1818C218.43 75.7718 218.523 76.2855 218.708 76.723C218.897 77.1605 219.162 77.5002 219.504 77.7422C219.848 77.9841 220.253 78.1051 220.717 78.1051C221.022 78.1051 221.298 78.0521 221.547 77.946C221.796 77.84 222.006 77.6875 222.178 77.4886C222.351 77.2898 222.473 77.0511 222.546 76.7727H223.72C223.653 77.2235 223.489 77.6295 223.227 77.9908C222.969 78.3487 222.626 78.6338 222.198 78.8459C221.774 79.0547 221.28 79.1591 220.717 79.1591ZM227.598 79.179C227.114 79.179 226.675 79.0878 226.281 78.9055C225.886 78.7199 225.573 78.4531 225.341 78.1051C225.109 77.7538 224.993 77.3295 224.993 76.8324C224.993 76.3949 225.079 76.0402 225.251 75.7685C225.424 75.4934 225.654 75.2779 225.942 75.1222C226.231 74.9664 226.549 74.8504 226.897 74.7741C227.248 74.6946 227.601 74.6316 227.956 74.5852C228.42 74.5256 228.796 74.4808 229.084 74.451C229.376 74.4179 229.588 74.3632 229.721 74.2869C229.857 74.2107 229.925 74.0781 229.925 73.8892V73.8494C229.925 73.3589 229.79 72.9777 229.522 72.706C229.257 72.4342 228.854 72.2983 228.314 72.2983C227.754 72.2983 227.315 72.4209 226.996 72.6662C226.678 72.9115 226.455 73.1733 226.325 73.4517L225.212 73.054C225.41 72.59 225.676 72.2287 226.007 71.9702C226.342 71.7083 226.706 71.526 227.101 71.4233C227.499 71.3172 227.89 71.2642 228.274 71.2642C228.519 71.2642 228.801 71.294 229.119 71.3537C229.441 71.41 229.751 71.5277 230.049 71.7067C230.351 71.8857 230.601 72.1558 230.8 72.517C230.999 72.8783 231.098 73.3622 231.098 73.9688V79H229.925V77.9659H229.865C229.785 78.1316 229.653 78.3089 229.467 78.4979C229.282 78.6868 229.035 78.8475 228.727 78.9801C228.418 79.1127 228.042 79.179 227.598 79.179ZM227.777 78.125C228.241 78.125 228.632 78.0339 228.95 77.8516C229.272 77.6693 229.514 77.4339 229.676 77.1456C229.842 76.8572 229.925 76.554 229.925 76.2358V75.1619C229.875 75.2216 229.766 75.2763 229.597 75.326C229.431 75.3724 229.239 75.4138 229.02 75.4503C228.804 75.4834 228.594 75.5133 228.388 75.5398C228.186 75.563 228.022 75.5829 227.896 75.5994C227.591 75.6392 227.306 75.7038 227.041 75.7933C226.779 75.8795 226.567 76.0104 226.405 76.1861C226.246 76.3584 226.166 76.5937 226.166 76.892C226.166 77.2997 226.317 77.608 226.619 77.8168C226.924 78.0223 227.31 78.125 227.777 78.125ZM234.329 74.4062V79H233.155V71.3636H234.289V72.5568H234.388C234.567 72.169 234.839 71.8575 235.204 71.6222C235.568 71.3835 236.039 71.2642 236.616 71.2642C237.133 71.2642 237.585 71.3703 237.973 71.5824C238.361 71.7912 238.662 72.1094 238.878 72.5369C239.093 72.9612 239.201 73.4981 239.201 74.1477V79H238.028V74.2273C238.028 73.6274 237.872 73.16 237.56 72.8253C237.249 72.4872 236.821 72.3182 236.278 72.3182C235.903 72.3182 235.568 72.3994 235.273 72.5618C234.982 72.7242 234.751 72.9612 234.582 73.2727C234.413 73.5843 234.329 73.9621 234.329 74.4062ZM245.114 79V71.3636H246.248V72.517H246.328C246.467 72.1392 246.719 71.8326 247.083 71.5973C247.448 71.362 247.859 71.2443 248.316 71.2443C248.402 71.2443 248.51 71.246 248.639 71.2493C248.769 71.2526 248.866 71.2576 248.933 71.2642V72.4574C248.893 72.4474 248.802 72.4325 248.659 72.4126C248.52 72.3894 248.373 72.3778 248.217 72.3778C247.846 72.3778 247.514 72.4557 247.222 72.6115C246.934 72.764 246.705 72.9761 246.536 73.2479C246.371 73.5163 246.288 73.8229 246.288 74.1676V79H245.114ZM255.052 75.8778V71.3636H256.225V79H255.052V77.7074H254.972C254.793 78.0952 254.515 78.425 254.137 78.6967C253.759 78.9652 253.282 79.0994 252.705 79.0994C252.228 79.0994 251.804 78.995 251.433 78.7862C251.061 78.5741 250.77 78.2559 250.558 77.8317C250.345 77.4041 250.239 76.8655 250.239 76.2159V71.3636H251.413V76.1364C251.413 76.6932 251.569 77.1373 251.88 77.4688C252.195 77.8002 252.596 77.9659 253.083 77.9659C253.375 77.9659 253.671 77.8913 253.973 77.7422C254.278 77.593 254.533 77.3643 254.739 77.0561C254.948 76.7479 255.052 76.3551 255.052 75.8778ZM259.463 74.4062V79H258.29V71.3636H259.424V72.5568H259.523C259.702 72.169 259.974 71.8575 260.338 71.6222C260.703 71.3835 261.174 71.2642 261.75 71.2642C262.267 71.2642 262.72 71.3703 263.108 71.5824C263.495 71.7912 263.797 72.1094 264.013 72.5369C264.228 72.9612 264.336 73.4981 264.336 74.1477V79H263.162V74.2273C263.162 73.6274 263.007 73.16 262.695 72.8253C262.383 72.4872 261.956 72.3182 261.412 72.3182C261.038 72.3182 260.703 72.3994 260.408 72.5618C260.116 72.7242 259.886 72.9612 259.717 73.2727C259.548 73.5843 259.463 73.9621 259.463 74.4062ZM72.1761 99.1591C71.4867 99.1591 70.8819 98.995 70.3615 98.6669C69.8445 98.3388 69.4401 97.8797 69.1484 97.2898C68.8601 96.6998 68.7159 96.0104 68.7159 95.2216C68.7159 94.4261 68.8601 93.7318 69.1484 93.1385C69.4401 92.5452 69.8445 92.0845 70.3615 91.7564C70.8819 91.4283 71.4867 91.2642 72.1761 91.2642C72.8655 91.2642 73.4688 91.4283 73.9858 91.7564C74.5062 92.0845 74.9105 92.5452 75.1989 93.1385C75.4905 93.7318 75.6364 94.4261 75.6364 95.2216C75.6364 96.0104 75.4905 96.6998 75.1989 97.2898C74.9105 97.8797 74.5062 98.3388 73.9858 98.6669C73.4688 98.995 72.8655 99.1591 72.1761 99.1591ZM72.1761 98.1051C72.6998 98.1051 73.1307 97.9709 73.4688 97.7024C73.8068 97.4339 74.0571 97.081 74.2195 96.6435C74.3819 96.206 74.4631 95.732 74.4631 95.2216C74.4631 94.7112 74.3819 94.2356 74.2195 93.7947C74.0571 93.3539 73.8068 92.9976 73.4688 92.7259C73.1307 92.4541 72.6998 92.3182 72.1761 92.3182C71.6525 92.3182 71.2216 92.4541 70.8835 92.7259C70.5455 92.9976 70.2952 93.3539 70.1328 93.7947C69.9704 94.2356 69.8892 94.7112 69.8892 95.2216C69.8892 95.732 69.9704 96.206 70.1328 96.6435C70.2952 97.081 70.5455 97.4339 70.8835 97.7024C71.2216 97.9709 71.6525 98.1051 72.1761 98.1051ZM83.3143 91.3636L80.4904 99H79.2972L76.4734 91.3636H77.7461L79.854 97.4489H79.9336L82.0415 91.3636H83.3143ZM87.7072 99.1591C86.9714 99.1591 86.3367 98.9967 85.8031 98.6719C85.2728 98.3438 84.8634 97.8864 84.5751 97.2997C84.29 96.7098 84.1475 96.0237 84.1475 95.2415C84.1475 94.4593 84.29 93.7699 84.5751 93.1733C84.8634 92.5734 85.2645 92.1061 85.7782 91.7713C86.2952 91.4332 86.8985 91.2642 87.5879 91.2642C87.9856 91.2642 88.3783 91.3305 88.7661 91.4631C89.1539 91.5956 89.5069 91.8111 89.8251 92.1094C90.1433 92.4044 90.3968 92.7955 90.5857 93.2827C90.7746 93.7699 90.8691 94.3698 90.8691 95.0824V95.5795H84.9827V94.5653H89.6759C89.6759 94.1345 89.5898 93.75 89.4174 93.4119C89.2484 93.0739 89.0064 92.8071 88.6916 92.6115C88.38 92.416 88.0121 92.3182 87.5879 92.3182C87.1205 92.3182 86.7162 92.4342 86.3748 92.6662C86.0367 92.8949 85.7765 93.1932 85.5943 93.5611C85.412 93.929 85.3208 94.3234 85.3208 94.7443V95.4205C85.3208 95.9972 85.4202 96.486 85.6191 96.8871C85.8213 97.2848 86.1014 97.5881 86.4593 97.7969C86.8173 98.0024 87.2332 98.1051 87.7072 98.1051C88.0154 98.1051 88.2938 98.062 88.5424 97.9759C88.7943 97.8864 89.0114 97.7538 89.1937 97.5781C89.376 97.3991 89.5168 97.1771 89.6163 96.9119L90.7498 97.2301C90.6305 97.6146 90.43 97.9527 90.1482 98.2443C89.8665 98.5327 89.5185 98.758 89.1042 98.9205C88.6899 99.0795 88.2242 99.1591 87.7072 99.1591ZM92.5699 99V91.3636H93.7034V92.517H93.783C93.9222 92.1392 94.1741 91.8326 94.5387 91.5973C94.9032 91.362 95.3142 91.2443 95.7716 91.2443C95.8578 91.2443 95.9655 91.246 96.0948 91.2493C96.224 91.2526 96.3218 91.2576 96.3881 91.2642V92.4574C96.3483 92.4474 96.2572 92.4325 96.1147 92.4126C95.9754 92.3894 95.828 92.3778 95.6722 92.3778C95.301 92.3778 94.9695 92.4557 94.6779 92.6115C94.3895 92.764 94.1608 92.9761 93.9918 93.2479C93.8261 93.5163 93.7432 93.8229 93.7432 94.1676V99H92.5699ZM101.548 99V91.3636H102.682V92.5568H102.781C102.94 92.1491 103.197 91.8326 103.552 91.6072C103.907 91.3786 104.332 91.2642 104.83 91.2642C105.333 91.2642 105.753 91.3786 106.087 91.6072C106.426 91.8326 106.689 92.1491 106.878 92.5568H106.957C107.153 92.1624 107.446 91.8492 107.837 91.6172C108.229 91.3819 108.698 91.2642 109.244 91.2642C109.927 91.2642 110.486 91.478 110.92 91.9055C111.354 92.3298 111.571 92.991 111.571 93.8892V99H110.398V93.8892C110.398 93.3258 110.244 92.9231 109.935 92.6811C109.627 92.4392 109.264 92.3182 108.847 92.3182C108.31 92.3182 107.894 92.4806 107.599 92.8054C107.304 93.1269 107.156 93.5346 107.156 94.0284V99H105.963V93.7699C105.963 93.3357 105.822 92.986 105.541 92.7209C105.259 92.4524 104.896 92.3182 104.452 92.3182C104.147 92.3182 103.862 92.3994 103.597 92.5618C103.335 92.7242 103.123 92.9496 102.96 93.2379C102.801 93.523 102.722 93.8527 102.722 94.2273V99H101.548ZM115.88 99.179C115.396 99.179 114.956 99.0878 114.562 98.9055C114.168 98.7199 113.854 98.4531 113.622 98.1051C113.39 97.7538 113.274 97.3295 113.274 96.8324C113.274 96.3949 113.361 96.0402 113.533 95.7685C113.705 95.4934 113.936 95.2779 114.224 95.1222C114.512 94.9664 114.831 94.8504 115.179 94.7741C115.53 94.6946 115.883 94.6316 116.237 94.5852C116.701 94.5256 117.078 94.4808 117.366 94.451C117.658 94.4179 117.87 94.3632 118.002 94.2869C118.138 94.2107 118.206 94.0781 118.206 93.8892V93.8494C118.206 93.3589 118.072 92.9777 117.804 92.706C117.538 92.4342 117.136 92.2983 116.595 92.2983C116.035 92.2983 115.596 92.4209 115.278 92.6662C114.96 92.9115 114.736 93.1733 114.607 93.4517L113.493 93.054C113.692 92.59 113.957 92.2287 114.289 91.9702C114.623 91.7083 114.988 91.526 115.382 91.4233C115.78 91.3172 116.171 91.2642 116.556 91.2642C116.801 91.2642 117.083 91.294 117.401 91.3537C117.722 91.41 118.032 91.5277 118.331 91.7067C118.632 91.8857 118.882 92.1558 119.081 92.517C119.28 92.8783 119.38 93.3622 119.38 93.9688V99H118.206V97.9659H118.147C118.067 98.1316 117.934 98.3089 117.749 98.4979C117.563 98.6868 117.316 98.8475 117.008 98.9801C116.7 99.1127 116.324 99.179 115.88 99.179ZM116.058 98.125C116.523 98.125 116.914 98.0339 117.232 97.8516C117.553 97.6693 117.795 97.4339 117.958 97.1456C118.123 96.8572 118.206 96.554 118.206 96.2358V95.1619C118.157 95.2216 118.047 95.2763 117.878 95.326C117.712 95.3724 117.52 95.4138 117.301 95.4503C117.086 95.4834 116.875 95.5133 116.67 95.5398C116.468 95.563 116.304 95.5829 116.178 95.5994C115.873 95.6392 115.588 95.7038 115.323 95.7933C115.061 95.8795 114.849 96.0104 114.686 96.1861C114.527 96.3584 114.448 96.5937 114.448 96.892C114.448 97.2997 114.599 97.608 114.9 97.8168C115.205 98.0223 115.591 98.125 116.058 98.125ZM122.61 94.4062V99H121.437V91.3636H122.571V92.5568H122.67C122.849 92.169 123.121 91.8575 123.485 91.6222C123.85 91.3835 124.321 91.2642 124.897 91.2642C125.414 91.2642 125.867 91.3703 126.255 91.5824C126.642 91.7912 126.944 92.1094 127.159 92.5369C127.375 92.9612 127.482 93.4981 127.482 94.1477V99H126.309V94.2273C126.309 93.6274 126.153 93.16 125.842 92.8253C125.53 92.4872 125.103 92.3182 124.559 92.3182C124.185 92.3182 123.85 92.3994 123.555 92.5618C123.263 92.7242 123.033 92.9612 122.864 93.2727C122.695 93.5843 122.61 93.9621 122.61 94.4062ZM130.025 101.864C129.826 101.864 129.649 101.847 129.493 101.814C129.337 101.784 129.229 101.754 129.17 101.724L129.468 100.69C129.753 100.763 130.005 100.79 130.224 100.77C130.442 100.75 130.636 100.652 130.805 100.477C130.978 100.304 131.135 100.024 131.278 99.6364L131.496 99.0398L128.672 91.3636H129.945L132.053 97.4489H132.133L134.241 91.3636H135.513L132.272 100.114C132.126 100.508 131.945 100.835 131.73 101.093C131.515 101.355 131.264 101.549 130.979 101.675C130.698 101.801 130.379 101.864 130.025 101.864ZM140.832 99V91.3636H141.965V92.5568H142.064C142.224 92.1491 142.48 91.8326 142.835 91.6072C143.19 91.3786 143.616 91.2642 144.113 91.2642C144.617 91.2642 145.036 91.3786 145.371 91.6072C145.709 91.8326 145.972 92.1491 146.161 92.5568H146.241C146.436 92.1624 146.729 91.8492 147.121 91.6172C147.512 91.3819 147.981 91.2642 148.528 91.2642C149.21 91.2642 149.769 91.478 150.203 91.9055C150.637 92.3298 150.854 92.991 150.854 93.8892V99H149.681V93.8892C149.681 93.3258 149.527 92.9231 149.219 92.6811C148.91 92.4392 148.547 92.3182 148.13 92.3182C147.593 92.3182 147.177 92.4806 146.882 92.8054C146.587 93.1269 146.439 93.5346 146.439 94.0284V99H145.246V93.7699C145.246 93.3357 145.105 92.986 144.824 92.7209C144.542 92.4524 144.179 92.3182 143.735 92.3182C143.43 92.3182 143.145 92.3994 142.88 92.5618C142.618 92.7242 142.406 92.9496 142.243 93.2379C142.084 93.523 142.005 93.8527 142.005 94.2273V99H140.832ZM157.728 95.8778V91.3636H158.901V99H157.728V97.7074H157.648C157.469 98.0952 157.191 98.425 156.813 98.6967C156.435 98.9652 155.958 99.0994 155.381 99.0994C154.904 99.0994 154.48 98.995 154.109 98.7862C153.737 98.5741 153.446 98.2559 153.234 97.8317C153.022 97.4041 152.915 96.8655 152.915 96.2159V91.3636H154.089V96.1364C154.089 96.6932 154.245 97.1373 154.556 97.4688C154.871 97.8002 155.272 97.9659 155.759 97.9659C156.051 97.9659 156.348 97.8913 156.649 97.7422C156.954 97.593 157.209 97.3643 157.415 97.0561C157.624 96.7479 157.728 96.3551 157.728 95.8778ZM162.14 88.8182V99H160.966V88.8182H162.14ZM167.526 91.3636V92.358H163.568V91.3636H167.526ZM164.722 89.5341H165.895V96.8125C165.895 97.1439 165.943 97.3925 166.039 97.5582C166.138 97.7206 166.264 97.83 166.417 97.8864C166.573 97.9394 166.737 97.9659 166.909 97.9659C167.038 97.9659 167.144 97.9593 167.227 97.946C167.31 97.9295 167.376 97.9162 167.426 97.9062L167.665 98.9602C167.585 98.9901 167.474 99.0199 167.332 99.0497C167.189 99.0829 167.008 99.0994 166.79 99.0994C166.458 99.0994 166.133 99.0282 165.815 98.8857C165.5 98.7431 165.239 98.526 165.03 98.2344C164.824 97.9427 164.722 97.5748 164.722 97.1307V89.5341ZM169.206 99V91.3636H170.38V99H169.206ZM169.803 90.0909C169.574 90.0909 169.377 90.013 169.211 89.8572C169.049 89.7015 168.968 89.5142 168.968 89.2955C168.968 89.0767 169.049 88.8894 169.211 88.7337C169.377 88.5779 169.574 88.5 169.803 88.5C170.032 88.5 170.227 88.5779 170.39 88.7337C170.555 88.8894 170.638 89.0767 170.638 89.2955C170.638 89.5142 170.555 89.7015 170.39 89.8572C170.227 90.013 170.032 90.0909 169.803 90.0909ZM172.445 101.864V91.3636H173.578V92.5767H173.717C173.804 92.4441 173.923 92.2751 174.075 92.0696C174.231 91.8608 174.453 91.6752 174.742 91.5128C175.033 91.3471 175.428 91.2642 175.925 91.2642C176.568 91.2642 177.135 91.425 177.625 91.7464C178.116 92.0679 178.498 92.5237 178.774 93.1136C179.049 93.7036 179.186 94.3996 179.186 95.2017C179.186 96.0104 179.049 96.7114 178.774 97.3047C178.498 97.8946 178.117 98.352 177.63 98.6768C177.143 98.9983 176.581 99.1591 175.945 99.1591C175.454 99.1591 175.061 99.0779 174.766 98.9155C174.471 98.7498 174.244 98.5625 174.085 98.3537C173.926 98.1416 173.804 97.9659 173.717 97.8267H173.618V101.864H172.445ZM173.598 95.1818C173.598 95.7585 173.683 96.2673 173.852 96.7081C174.021 97.1456 174.268 97.4886 174.592 97.7372C174.917 97.9825 175.315 98.1051 175.786 98.1051C176.276 98.1051 176.685 97.9759 177.014 97.7173C177.345 97.4555 177.594 97.1042 177.759 96.6634C177.928 96.2192 178.013 95.7254 178.013 95.1818C178.013 94.6449 177.93 94.161 177.764 93.7301C177.602 93.2959 177.355 92.9529 177.024 92.701C176.695 92.4458 176.283 92.3182 175.786 92.3182C175.308 92.3182 174.907 92.4392 174.583 92.6811C174.258 92.9197 174.012 93.2545 173.847 93.6854C173.681 94.1129 173.598 94.6117 173.598 95.1818ZM182.065 88.8182V99H180.892V88.8182H182.065ZM187.332 99.1591C186.596 99.1591 185.961 98.9967 185.428 98.6719C184.898 98.3438 184.488 97.8864 184.2 97.2997C183.915 96.7098 183.772 96.0237 183.772 95.2415C183.772 94.4593 183.915 93.7699 184.2 93.1733C184.488 92.5734 184.889 92.1061 185.403 91.7713C185.92 91.4332 186.523 91.2642 187.213 91.2642C187.61 91.2642 188.003 91.3305 188.391 91.4631C188.779 91.5956 189.132 91.8111 189.45 92.1094C189.768 92.4044 190.022 92.7955 190.21 93.2827C190.399 93.7699 190.494 94.3698 190.494 95.0824V95.5795H184.608V94.5653H189.301C189.301 94.1345 189.215 93.75 189.042 93.4119C188.873 93.0739 188.631 92.8071 188.316 92.6115C188.005 92.416 187.637 92.3182 187.213 92.3182C186.745 92.3182 186.341 92.4342 186 92.6662C185.661 92.8949 185.401 93.1932 185.219 93.5611C185.037 93.929 184.946 94.3234 184.946 94.7443V95.4205C184.946 95.9972 185.045 96.486 185.244 96.8871C185.446 97.2848 185.726 97.5881 186.084 97.7969C186.442 98.0024 186.858 98.1051 187.332 98.1051C187.64 98.1051 187.919 98.062 188.167 97.9759C188.419 97.8864 188.636 97.7538 188.818 97.5781C189.001 97.3991 189.142 97.1771 189.241 96.9119L190.375 97.2301C190.255 97.6146 190.055 97.9527 189.773 98.2443C189.491 98.5327 189.143 98.758 188.729 98.9205C188.315 99.0795 187.849 99.1591 187.332 99.1591ZM197.221 88.8182V99H196.048V88.8182H197.221ZM199.286 99V91.3636H200.46V99H199.286ZM199.883 90.0909C199.654 90.0909 199.457 90.013 199.291 89.8572C199.129 89.7015 199.048 89.5142 199.048 89.2955C199.048 89.0767 199.129 88.8894 199.291 88.7337C199.457 88.5779 199.654 88.5 199.883 88.5C200.112 88.5 200.307 88.5779 200.47 88.7337C200.635 88.8894 200.718 89.0767 200.718 89.2955C200.718 89.5142 200.635 89.7015 200.47 89.8572C200.307 90.013 200.112 90.0909 199.883 90.0909ZM203.698 94.4062V99H202.525V91.3636H203.658V92.5568H203.758C203.937 92.169 204.208 91.8575 204.573 91.6222C204.938 91.3835 205.408 91.2642 205.985 91.2642C206.502 91.2642 206.954 91.3703 207.342 91.5824C207.73 91.7912 208.032 92.1094 208.247 92.5369C208.462 92.9612 208.57 93.4981 208.57 94.1477V99H207.397V94.2273C207.397 93.6274 207.241 93.16 206.93 92.8253C206.618 92.4872 206.19 92.3182 205.647 92.3182C205.272 92.3182 204.938 92.3994 204.643 92.5618C204.351 92.7242 204.121 92.9612 203.952 93.2727C203.783 93.5843 203.698 93.9621 203.698 94.4062ZM213.832 99.1591C213.096 99.1591 212.461 98.9967 211.928 98.6719C211.397 98.3438 210.988 97.8864 210.7 97.2997C210.415 96.7098 210.272 96.0237 210.272 95.2415C210.272 94.4593 210.415 93.7699 210.7 93.1733C210.988 92.5734 211.389 92.1061 211.903 91.7713C212.42 91.4332 213.023 91.2642 213.713 91.2642C214.11 91.2642 214.503 91.3305 214.891 91.4631C215.279 91.5956 215.632 91.8111 215.95 92.1094C216.268 92.4044 216.521 92.7955 216.71 93.2827C216.899 93.7699 216.994 94.3698 216.994 95.0824V95.5795H211.107V94.5653H215.801C215.801 94.1345 215.714 93.75 215.542 93.4119C215.373 93.0739 215.131 92.8071 214.816 92.6115C214.505 92.416 214.137 92.3182 213.713 92.3182C213.245 92.3182 212.841 92.4342 212.499 92.6662C212.161 92.8949 211.901 93.1932 211.719 93.5611C211.537 93.929 211.445 94.3234 211.445 94.7443V95.4205C211.445 95.9972 211.545 96.486 211.744 96.8871C211.946 97.2848 212.226 97.5881 212.584 97.7969C212.942 98.0024 213.358 98.1051 213.832 98.1051C214.14 98.1051 214.419 98.062 214.667 97.9759C214.919 97.8864 215.136 97.7538 215.318 97.5781C215.501 97.3991 215.642 97.1771 215.741 96.9119L216.874 97.2301C216.755 97.6146 216.555 97.9527 216.273 98.2443C215.991 98.5327 215.643 98.758 215.229 98.9205C214.815 99.0795 214.349 99.1591 213.832 99.1591ZM224.104 93.0739L223.05 93.3722C222.983 93.1965 222.886 93.0258 222.756 92.8601C222.63 92.6911 222.458 92.5518 222.239 92.4425C222.021 92.3331 221.741 92.2784 221.399 92.2784C220.932 92.2784 220.542 92.3861 220.231 92.6016C219.923 92.8137 219.768 93.0838 219.768 93.4119C219.768 93.7036 219.875 93.9339 220.087 94.103C220.299 94.272 220.63 94.4129 221.081 94.5256L222.214 94.804C222.897 94.9697 223.406 95.2232 223.741 95.5646C224.076 95.9027 224.243 96.3385 224.243 96.8722C224.243 97.3097 224.117 97.7008 223.865 98.0455C223.616 98.3902 223.268 98.6619 222.821 98.8608C222.374 99.0597 221.853 99.1591 221.26 99.1591C220.481 99.1591 219.836 98.9901 219.326 98.652C218.816 98.3139 218.492 97.8201 218.357 97.1705L219.47 96.892C219.576 97.303 219.777 97.6113 220.072 97.8168C220.37 98.0223 220.759 98.125 221.24 98.125C221.787 98.125 222.221 98.009 222.543 97.777C222.867 97.5417 223.03 97.2599 223.03 96.9318C223.03 96.6667 222.937 96.4446 222.751 96.2656C222.566 96.0833 222.281 95.9474 221.896 95.858L220.624 95.5597C219.924 95.3939 219.411 95.1371 219.082 94.7891C218.758 94.4377 218.595 93.9986 218.595 93.4716C218.595 93.0407 218.716 92.6596 218.958 92.3281C219.203 91.9967 219.536 91.7365 219.957 91.5476C220.382 91.3587 220.862 91.2642 221.399 91.2642C222.155 91.2642 222.748 91.4299 223.179 91.7614C223.613 92.0928 223.921 92.5303 224.104 93.0739ZM226.78 99.0795C226.535 99.0795 226.324 98.9917 226.149 98.8161C225.973 98.6404 225.885 98.4299 225.885 98.1847C225.885 97.9394 225.973 97.7289 226.149 97.5533C226.324 97.3776 226.535 97.2898 226.78 97.2898C227.025 97.2898 227.236 97.3776 227.412 97.5533C227.587 97.7289 227.675 97.9394 227.675 98.1847C227.675 98.3471 227.634 98.4962 227.551 98.6321C227.471 98.768 227.363 98.8774 227.228 98.9602C227.095 99.0398 226.946 99.0795 226.78 99.0795Z" fill="white"/><path d="M70.3118 127H68.343L71.9276 116.818H74.2045L77.794 127H75.8253L73.1058 118.906H73.0263L70.3118 127ZM70.3764 123.008H75.7457V124.489H70.3764V123.008ZM82.0701 127.149C81.3078 127.149 80.6532 126.982 80.1063 126.647C79.5628 126.312 79.1435 125.85 78.8485 125.26C78.5569 124.667 78.411 123.984 78.411 123.212C78.411 122.436 78.5602 121.752 78.8585 121.158C79.1568 120.562 79.5777 120.098 80.1213 119.766C80.6681 119.432 81.3144 119.264 82.0602 119.264C82.68 119.264 83.2285 119.379 83.7058 119.607C84.1864 119.833 84.5692 120.152 84.8542 120.567C85.1392 120.978 85.3017 121.458 85.3414 122.009H83.6213C83.5517 121.641 83.3859 121.334 83.1241 121.089C82.8656 120.84 82.5192 120.716 82.085 120.716C81.7171 120.716 81.394 120.815 81.1156 121.014C80.8372 121.21 80.6201 121.491 80.4643 121.859C80.3118 122.227 80.2356 122.668 80.2356 123.182C80.2356 123.702 80.3118 124.15 80.4643 124.524C80.6168 124.895 80.8305 125.182 81.1056 125.384C81.384 125.583 81.7105 125.683 82.085 125.683C82.3502 125.683 82.5872 125.633 82.796 125.533C83.0081 125.431 83.1854 125.283 83.3279 125.091C83.4705 124.899 83.5682 124.665 83.6213 124.39H85.3414C85.2983 124.93 85.1392 125.409 84.8642 125.827C84.5891 126.241 84.2145 126.566 83.7406 126.801C83.2666 127.033 82.7098 127.149 82.0701 127.149ZM90.5484 119.364V120.756H86.1585V119.364H90.5484ZM87.2423 117.534H89.0421V124.703C89.0421 124.945 89.0785 125.131 89.1514 125.26C89.2277 125.386 89.3271 125.472 89.4497 125.518C89.5724 125.565 89.7082 125.588 89.8574 125.588C89.9701 125.588 90.0728 125.58 90.1656 125.563C90.2617 125.547 90.3347 125.532 90.3844 125.518L90.6876 126.925C90.5915 126.959 90.454 126.995 90.275 127.035C90.0993 127.075 89.8839 127.098 89.6287 127.104C89.1779 127.118 88.7719 127.05 88.4107 126.901C88.0494 126.748 87.7627 126.513 87.5506 126.195C87.3418 125.876 87.239 125.479 87.2423 125.001V117.534ZM91.9696 127V119.364H93.7693V127H91.9696ZM92.8744 118.28C92.5894 118.28 92.3441 118.185 92.1386 117.996C91.9331 117.804 91.8304 117.574 91.8304 117.305C91.8304 117.034 91.9331 116.803 92.1386 116.614C92.3441 116.422 92.5894 116.326 92.8744 116.326C93.1628 116.326 93.408 116.422 93.6102 116.614C93.8157 116.803 93.9185 117.034 93.9185 117.305C93.9185 117.574 93.8157 117.804 93.6102 117.996C93.408 118.185 93.1628 118.28 92.8744 118.28ZM98.8669 127.149C98.1212 127.149 97.4749 126.985 96.928 126.657C96.3812 126.329 95.9569 125.87 95.6553 125.28C95.357 124.69 95.2079 124 95.2079 123.212C95.2079 122.423 95.357 121.732 95.6553 121.138C95.9569 120.545 96.3812 120.085 96.928 119.756C97.4749 119.428 98.1212 119.264 98.8669 119.264C99.6127 119.264 100.259 119.428 100.806 119.756C101.353 120.085 101.775 120.545 102.074 121.138C102.375 121.732 102.526 122.423 102.526 123.212C102.526 124 102.375 124.69 102.074 125.28C101.775 125.87 101.353 126.329 100.806 126.657C100.259 126.985 99.6127 127.149 98.8669 127.149ZM98.8769 125.707C99.2812 125.707 99.6193 125.596 99.8911 125.374C100.163 125.149 100.365 124.847 100.498 124.469C100.634 124.092 100.701 123.671 100.701 123.207C100.701 122.739 100.634 122.317 100.498 121.939C100.365 121.558 100.163 121.254 99.8911 121.029C99.6193 120.804 99.2812 120.691 98.8769 120.691C98.4626 120.691 98.1179 120.804 97.8428 121.029C97.571 121.254 97.3672 121.558 97.2313 121.939C97.0987 122.317 97.0324 122.739 97.0324 123.207C97.0324 123.671 97.0987 124.092 97.2313 124.469C97.3672 124.847 97.571 125.149 97.8428 125.374C98.1179 125.596 98.4626 125.707 98.8769 125.707ZM105.769 122.526V127H103.97V119.364H105.69V120.661H105.779C105.955 120.234 106.235 119.894 106.619 119.642C107.007 119.39 107.486 119.264 108.056 119.264C108.583 119.264 109.042 119.377 109.433 119.602C109.828 119.828 110.133 120.154 110.348 120.582C110.567 121.009 110.675 121.528 110.671 122.138V127H108.872V122.416C108.872 121.906 108.739 121.506 108.474 121.218C108.212 120.93 107.849 120.786 107.385 120.786C107.07 120.786 106.79 120.855 106.545 120.994C106.303 121.13 106.112 121.327 105.973 121.586C105.837 121.844 105.769 122.158 105.769 122.526ZM119.927 116.818V127H118.082V118.613H118.023L115.641 120.134V118.444L118.172 116.818H119.927Z" fill="#4687ED"/><path d="M140.312 127H138.343L141.928 116.818H144.205L147.794 127H145.825L143.106 118.906H143.026L140.312 127ZM140.376 123.008H145.746V124.489H140.376V123.008ZM152.07 127.149C151.308 127.149 150.653 126.982 150.106 126.647C149.563 126.312 149.144 125.85 148.849 125.26C148.557 124.667 148.411 123.984 148.411 123.212C148.411 122.436 148.56 121.752 148.858 121.158C149.157 120.562 149.578 120.098 150.121 119.766C150.668 119.432 151.314 119.264 152.06 119.264C152.68 119.264 153.229 119.379 153.706 119.607C154.186 119.833 154.569 120.152 154.854 120.567C155.139 120.978 155.302 121.458 155.341 122.009H153.621C153.552 121.641 153.386 121.334 153.124 121.089C152.866 120.84 152.519 120.716 152.085 120.716C151.717 120.716 151.394 120.815 151.116 121.014C150.837 121.21 150.62 121.491 150.464 121.859C150.312 122.227 150.236 122.668 150.236 123.182C150.236 123.702 150.312 124.15 150.464 124.524C150.617 124.895 150.831 125.182 151.106 125.384C151.384 125.583 151.711 125.683 152.085 125.683C152.35 125.683 152.587 125.633 152.796 125.533C153.008 125.431 153.185 125.283 153.328 125.091C153.47 124.899 153.568 124.665 153.621 124.39H155.341C155.298 124.93 155.139 125.409 154.864 125.827C154.589 126.241 154.215 126.566 153.741 126.801C153.267 127.033 152.71 127.149 152.07 127.149ZM160.548 119.364V120.756H156.159V119.364H160.548ZM157.242 117.534H159.042V124.703C159.042 124.945 159.079 125.131 159.151 125.26C159.228 125.386 159.327 125.472 159.45 125.518C159.572 125.565 159.708 125.588 159.857 125.588C159.97 125.588 160.073 125.58 160.166 125.563C160.262 125.547 160.335 125.532 160.384 125.518L160.688 126.925C160.592 126.959 160.454 126.995 160.275 127.035C160.099 127.075 159.884 127.098 159.629 127.104C159.178 127.118 158.772 127.05 158.411 126.901C158.049 126.748 157.763 126.513 157.551 126.195C157.342 125.876 157.239 125.479 157.242 125.001V117.534ZM161.97 127V119.364H163.769V127H161.97ZM162.874 118.28C162.589 118.28 162.344 118.185 162.139 117.996C161.933 117.804 161.83 117.574 161.83 117.305C161.83 117.034 161.933 116.803 162.139 116.614C162.344 116.422 162.589 116.326 162.874 116.326C163.163 116.326 163.408 116.422 163.61 116.614C163.816 116.803 163.918 117.034 163.918 117.305C163.918 117.574 163.816 117.804 163.61 117.996C163.408 118.185 163.163 118.28 162.874 118.28ZM168.867 127.149C168.121 127.149 167.475 126.985 166.928 126.657C166.381 126.329 165.957 125.87 165.655 125.28C165.357 124.69 165.208 124 165.208 123.212C165.208 122.423 165.357 121.732 165.655 121.138C165.957 120.545 166.381 120.085 166.928 119.756C167.475 119.428 168.121 119.264 168.867 119.264C169.613 119.264 170.259 119.428 170.806 119.756C171.353 120.085 171.775 120.545 172.074 121.138C172.375 121.732 172.526 122.423 172.526 123.212C172.526 124 172.375 124.69 172.074 125.28C171.775 125.87 171.353 126.329 170.806 126.657C170.259 126.985 169.613 127.149 168.867 127.149ZM168.877 125.707C169.281 125.707 169.619 125.596 169.891 125.374C170.163 125.149 170.365 124.847 170.498 124.469C170.634 124.092 170.701 123.671 170.701 123.207C170.701 122.739 170.634 122.317 170.498 121.939C170.365 121.558 170.163 121.254 169.891 121.029C169.619 120.804 169.281 120.691 168.877 120.691C168.463 120.691 168.118 120.804 167.843 121.029C167.571 121.254 167.367 121.558 167.231 121.939C167.099 122.317 167.032 122.739 167.032 123.207C167.032 123.671 167.099 124.092 167.231 124.469C167.367 124.847 167.571 125.149 167.843 125.374C168.118 125.596 168.463 125.707 168.877 125.707ZM175.769 122.526V127H173.97V119.364H175.69V120.661H175.779C175.955 120.234 176.235 119.894 176.619 119.642C177.007 119.39 177.486 119.264 178.056 119.264C178.583 119.264 179.042 119.377 179.433 119.602C179.828 119.828 180.133 120.154 180.348 120.582C180.567 121.009 180.675 121.528 180.671 122.138V127H178.872V122.416C178.872 121.906 178.739 121.506 178.474 121.218C178.212 120.93 177.849 120.786 177.385 120.786C177.07 120.786 176.79 120.855 176.545 120.994C176.303 121.13 176.112 121.327 175.973 121.586C175.837 121.844 175.769 122.158 175.769 122.526ZM185.786 127V125.668L189.32 122.202C189.658 121.861 189.94 121.558 190.166 121.293C190.391 121.027 190.56 120.771 190.673 120.522C190.785 120.273 190.842 120.008 190.842 119.727C190.842 119.405 190.769 119.13 190.623 118.901C190.477 118.669 190.277 118.49 190.021 118.364C189.766 118.238 189.476 118.175 189.151 118.175C188.817 118.175 188.523 118.245 188.271 118.384C188.019 118.52 187.824 118.714 187.685 118.966C187.549 119.218 187.481 119.518 187.481 119.866H185.726C185.726 119.219 185.873 118.658 186.168 118.18C186.463 117.703 186.869 117.334 187.386 117.072C187.907 116.81 188.503 116.679 189.176 116.679C189.859 116.679 190.459 116.807 190.976 117.062C191.493 117.317 191.894 117.667 192.179 118.111C192.467 118.555 192.612 119.062 192.612 119.632C192.612 120.013 192.539 120.388 192.393 120.756C192.247 121.124 191.99 121.531 191.622 121.979C191.258 122.426 190.746 122.968 190.086 123.604L188.331 125.389V125.459H192.766V127H185.786Z" fill="#4687ED"/><path d="M321.442 41.4419C321.686 41.1979 321.686 40.8021 321.442 40.5581C321.198 40.314 320.802 40.314 320.558 40.5581L316 45.1161L311.442 40.5581C311.198 40.314 310.802 40.314 310.558 40.5581C310.314 40.8021 310.314 41.1979 310.558 41.4419L315.116 46L310.558 50.5581C310.314 50.8021 310.314 51.1979 310.558 51.4419C310.802 51.686 311.198 51.686 311.442 51.4419L316 46.8839L320.558 51.4419C320.802 51.686 321.198 51.686 321.442 51.4419C321.686 51.1979 321.686 50.8021 321.442 50.5581L316.884 46L321.442 41.4419Z" fill="white"/><rect x="20" y="26" width="4" height="114" rx="2" fill="#F24D5F"/></g><defs><filter id="filter0_d_4878_69084" x="0" y="0" width="360" height="170" filterUnits="userSpaceOnUse" color-interpolation-filters="sRGB"><feFlood flood-opacity="0" result="BackgroundImageFix"/><feColorMatrix in="SourceAlpha" type="matrix" values="0 0 0 0 0 0 0 0 0 0 0 0 0 0 0 0 0 0 127 0" result="hardAlpha"/><feOffset dy="2"/><feGaussianBlur stdDeviation="10"/><feColorMatrix type="matrix" values="0 0 0 0 0.160784 0 0 0 0 0.160784 0 0 0 0 0.160784 0 0 0 0.25 0"/><feBlend mode="normal" in2="BackgroundImageFix" result="effect1_dropShadow_4878_69084"/><feBlend mode="normal" in="SourceGraphic" in2="effect1_dropShadow_4878_69084" result="shape"/></filter></defs></svg>