<svg width="32" height="32" viewBox="0 0 32 32" fill="none" xmlns="http://www.w3.org/2000/svg"><path d="M23.5931 6.41757L24.2189 4.74886C24.3162 4.48931 24.6834 4.48931 24.7807 4.74886L25.4065 6.41757C25.4369 6.4987 25.5009 6.56271 25.582 6.59313L27.2507 7.2189C27.5103 7.31623 27.5103 7.68337 27.2507 7.7807L25.582 8.40646C25.5009 8.43689 25.4369 8.5009 25.4065 8.58203L24.7807 10.2507C24.6834 10.5103 24.3162 10.5103 24.2189 10.2507L23.5931 8.58203C23.5627 8.5009 23.4987 8.43689 23.4176 8.40646L21.7489 7.7807C21.4893 7.68337 21.4893 7.31623 21.7489 7.2189L23.4176 6.59313C23.4987 6.56271 23.5627 6.4987 23.5931 6.41757Z" fill="#3A3A38"/><path fill-rule="evenodd" clip-rule="evenodd" d="M14.936 5.49702C14.6115 4.63185 13.3878 4.63185 13.0633 5.49702L10.6138 12.0291C10.5124 12.2995 10.299 12.5129 10.0286 12.6143L3.49653 15.0638C2.63136 15.3883 2.63137 16.612 3.49653 16.9365L10.0286 19.386C10.299 19.4874 10.5124 19.7008 10.6138 19.9712L13.0633 26.5033C13.3878 27.3684 14.6115 27.3684 14.936 26.5033L17.3855 19.9712C17.4869 19.7008 17.7003 19.4874 17.9707 19.386L24.5028 16.9365C25.3679 16.612 25.3679 15.3883 24.5028 15.0638L17.9707 12.6143C17.7003 12.5129 17.4869 12.2995 17.3855 12.0291L14.936 5.49702ZM17.2685 14.4869L21.3037 16.0001L17.2685 17.5133C16.4572 17.8176 15.8171 18.4577 15.5129 19.269L13.9997 23.3041L12.4865 19.269C12.1822 18.4577 11.5421 17.8176 10.7308 17.5133L6.69566 16.0001L10.7308 14.4869C11.5421 14.1827 12.1822 13.5426 12.4865 12.7313L13.9997 8.69615L15.5129 12.7313C15.8171 13.5426 16.4572 14.1827 17.2685 14.4869Z" fill="#3A3A38"/><path d="M24.2189 21.7489L23.5931 23.4176C23.5627 23.4987 23.4987 23.5627 23.4176 23.5931L21.7489 24.2189C21.4893 24.3162 21.4893 24.6834 21.7489 24.7807L23.4176 25.4065C23.4987 25.4369 23.5627 25.5009 23.5931 25.582L24.2189 27.2507C24.3162 27.5103 24.6834 27.5103 24.7807 27.2507L25.4065 25.582C25.4369 25.5009 25.5009 25.4369 25.582 25.4065L27.2507 24.7807C27.5103 24.6834 27.5103 24.3162 27.2507 24.2189L25.582 23.5931C25.5009 23.5627 25.4369 23.4987 25.4065 23.4176L24.7807 21.7489C24.6834 21.4893 24.3162 21.4893 24.2189 21.7489Z" fill="#3A3A38"/></svg>