<svg width="387" height="135" viewBox="0 0 387 135" fill="none" xmlns="http://www.w3.org/2000/svg"><mask id="path-1-inside-1_8519_19122" fill="white"><path d="M9 34H85V82H9V34Z"/></mask><path d="M85 82V80H9V82V84H85V82Z" fill="#0056E0" mask="url(#path-1-inside-1_8519_19122)"/><path d="M23.9449 55.6172C23.8985 55.183 23.703 54.8449 23.3583 54.603C23.0169 54.361 22.5728 54.2401 22.0259 54.2401C21.6414 54.2401 21.3116 54.2981 21.0365 54.4141C20.7614 54.5301 20.551 54.6875 20.4052 54.8864C20.2593 55.0852 20.1847 55.3123 20.1814 55.5675C20.1814 55.7796 20.2295 55.9635 20.3256 56.1193C20.425 56.2751 20.5593 56.4077 20.7283 56.517C20.8973 56.6231 21.0846 56.7126 21.2901 56.7855C21.4956 56.8584 21.7027 56.9197 21.9115 56.9695L22.8661 57.2081C23.2506 57.2976 23.6201 57.4186 23.9748 57.571C24.3327 57.7235 24.6525 57.9157 24.9343 58.1477C25.2193 58.3797 25.4447 58.6598 25.6104 58.9879C25.7761 59.3161 25.859 59.7005 25.859 60.1413C25.859 60.7379 25.7065 61.2633 25.4016 61.7173C25.0967 62.1681 24.6559 62.5211 24.0792 62.7763C23.5058 63.0282 22.8114 63.1541 21.9961 63.1541C21.2039 63.1541 20.5162 63.0315 19.9329 62.7862C19.3528 62.541 18.8988 62.183 18.5706 61.7124C18.2458 61.2417 18.0702 60.6683 18.0436 59.9922H19.8583C19.8848 60.3468 19.9942 60.6418 20.1864 60.8771C20.3786 61.1125 20.6289 61.2881 20.9371 61.4041C21.2487 61.5201 21.5967 61.5781 21.9811 61.5781C22.3822 61.5781 22.7335 61.5185 23.0351 61.3991C23.34 61.2765 23.5787 61.1075 23.751 60.892C23.9234 60.6733 24.0112 60.4181 24.0145 60.1264C24.0112 59.8613 23.9333 59.6425 23.7809 59.4702C23.6284 59.2945 23.4146 59.1487 23.1395 59.0327C22.8677 58.9134 22.5496 58.8073 22.185 58.7145L21.0266 58.4162C20.1881 58.2008 19.5252 57.8743 19.038 57.4368C18.5541 56.996 18.3121 56.411 18.3121 55.6818C18.3121 55.0819 18.4745 54.5566 18.7993 54.1058C19.1275 53.6551 19.5732 53.3054 20.1367 53.0568C20.7001 52.8049 21.3382 52.679 22.0507 52.679C22.7733 52.679 23.4063 52.8049 23.9499 53.0568C24.4968 53.3054 24.926 53.6518 25.2375 54.0959C25.5491 54.5367 25.7098 55.0438 25.7198 55.6172H23.9449ZM30.7205 63.1491C29.9549 63.1491 29.2936 62.9901 28.7368 62.6719C28.1833 62.3504 27.7574 61.8963 27.4591 61.3097C27.1608 60.7197 27.0117 60.0253 27.0117 59.2266C27.0117 58.4411 27.1608 57.7517 27.4591 57.1584C27.7607 56.5618 28.1817 56.0978 28.7219 55.7663C29.2621 55.4316 29.8968 55.2642 30.626 55.2642C31.0967 55.2642 31.5408 55.3404 31.9584 55.4929C32.3793 55.642 32.7505 55.8741 33.072 56.1889C33.3969 56.5038 33.6521 56.9048 33.8377 57.392C34.0233 57.8759 34.1161 58.4527 34.1161 59.1222V59.674H27.8568V58.4609H32.3909C32.3876 58.1162 32.313 57.8097 32.1672 57.5412C32.0214 57.2694 31.8175 57.0556 31.5557 56.8999C31.2972 56.7441 30.9956 56.6662 30.6509 56.6662C30.283 56.6662 29.9598 56.7557 29.6814 56.9347C29.403 57.1103 29.1859 57.3423 29.0301 57.6307C28.8777 57.9157 28.7998 58.2289 28.7965 58.5703V59.6293C28.7965 60.0734 28.8777 60.4545 29.0401 60.7727C29.2025 61.0876 29.4295 61.3295 29.7212 61.4986C30.0129 61.6643 30.3542 61.7472 30.7453 61.7472C31.0072 61.7472 31.2442 61.7107 31.4563 61.6378C31.6684 61.5616 31.8523 61.4505 32.0081 61.3047C32.1639 61.1589 32.2816 60.9782 32.3611 60.7628L34.0415 60.9517C33.9354 61.3958 33.7333 61.7836 33.435 62.1151C33.14 62.4432 32.7621 62.6984 32.3014 62.8807C31.8407 63.0597 31.3138 63.1491 30.7205 63.1491ZM37.3543 52.8182V63H35.5546V52.8182H37.3543ZM42.5017 63.1491C41.7361 63.1491 41.0748 62.9901 40.518 62.6719C39.9645 62.3504 39.5386 61.8963 39.2403 61.3097C38.942 60.7197 38.7929 60.0253 38.7929 59.2266C38.7929 58.4411 38.942 57.7517 39.2403 57.1584C39.5419 56.5618 39.9629 56.0978 40.5031 55.7663C41.0434 55.4316 41.6781 55.2642 42.4072 55.2642C42.8779 55.2642 43.322 55.3404 43.7396 55.4929C44.1605 55.642 44.5318 55.8741 44.8533 56.1889C45.1781 56.5038 45.4333 56.9048 45.6189 57.392C45.8045 57.8759 45.8973 58.4527 45.8973 59.1222V59.674H39.6381V58.4609H44.1721C44.1688 58.1162 44.0943 57.8097 43.9484 57.5412C43.8026 57.2694 43.5988 57.0556 43.3369 56.8999C43.0784 56.7441 42.7768 56.6662 42.4321 56.6662C42.0642 56.6662 41.741 56.7557 41.4626 56.9347C41.1842 57.1103 40.9671 57.3423 40.8114 57.6307C40.6589 57.9157 40.581 58.2289 40.5777 58.5703V59.6293C40.5777 60.0734 40.6589 60.4545 40.8213 60.7727C40.9837 61.0876 41.2107 61.3295 41.5024 61.4986C41.7941 61.6643 42.1355 61.7472 42.5266 61.7472C42.7884 61.7472 43.0254 61.7107 43.2375 61.6378C43.4496 61.5616 43.6336 61.4505 43.7893 61.3047C43.9451 61.1589 44.0628 60.9782 44.1423 60.7628L45.8227 60.9517C45.7167 61.3958 45.5145 61.7836 45.2162 62.1151C44.9212 62.4432 44.5434 62.6984 44.0827 62.8807C43.622 63.0597 43.095 63.1491 42.5017 63.1491ZM50.6668 63.1491C49.9045 63.1491 49.2499 62.9818 48.703 62.647C48.1595 62.3123 47.7402 61.8499 47.4452 61.2599C47.1535 60.6667 47.0077 59.9839 47.0077 59.2116C47.0077 58.4361 47.1569 57.7517 47.4552 57.1584C47.7535 56.5618 48.1744 56.0978 48.7179 55.7663C49.2648 55.4316 49.9111 55.2642 50.6569 55.2642C51.2767 55.2642 51.8252 55.3786 52.3025 55.6072C52.783 55.8326 53.1659 56.1525 53.4509 56.5668C53.7359 56.9777 53.8983 57.4583 53.9381 58.0085H52.2179C52.1483 57.6406 51.9826 57.334 51.7208 57.0888C51.4623 56.8402 51.1159 56.7159 50.6817 56.7159C50.3138 56.7159 49.9907 56.8153 49.7123 57.0142C49.4339 57.2098 49.2168 57.4915 49.061 57.8594C48.9085 58.2273 48.8323 58.6681 48.8323 59.1818C48.8323 59.7022 48.9085 60.1496 49.061 60.5241C49.2134 60.8954 49.4272 61.1821 49.7023 61.3842C49.9807 61.5831 50.3072 61.6825 50.6817 61.6825C50.9469 61.6825 51.1839 61.6328 51.3927 61.5334C51.6048 61.4306 51.7821 61.2831 51.9246 61.0909C52.0671 60.8987 52.1649 60.665 52.2179 60.3899H53.9381C53.895 60.9302 53.7359 61.4091 53.4608 61.8267C53.1857 62.241 52.8112 62.5658 52.3373 62.8011C51.8633 63.0331 51.3065 63.1491 50.6668 63.1491ZM59.1451 55.3636V56.7557H54.7552V55.3636H59.1451ZM55.839 53.5341H57.6387V60.7031C57.6387 60.9451 57.6752 61.1307 57.7481 61.2599C57.8243 61.3859 57.9238 61.4721 58.0464 61.5185C58.169 61.5649 58.3049 61.5881 58.4541 61.5881C58.5668 61.5881 58.6695 61.5798 58.7623 61.5632C58.8584 61.5466 58.9314 61.5317 58.9811 61.5185L59.2843 62.9254C59.1882 62.9586 59.0507 62.995 58.8717 63.0348C58.696 63.0746 58.4806 63.0978 58.2254 63.1044C57.7746 63.1177 57.3686 63.0497 57.0073 62.9006C56.6461 62.7481 56.3594 62.5128 56.1473 62.1946C55.9385 61.8764 55.8357 61.4787 55.839 61.0014V53.5341ZM63.8649 63.1491C63.0993 63.1491 62.4381 62.9901 61.8813 62.6719C61.3278 62.3504 60.9019 61.8963 60.6036 61.3097C60.3053 60.7197 60.1561 60.0253 60.1561 59.2266C60.1561 58.4411 60.3053 57.7517 60.6036 57.1584C60.9052 56.5618 61.3261 56.0978 61.8664 55.7663C62.4066 55.4316 63.0413 55.2642 63.7705 55.2642C64.2411 55.2642 64.6852 55.3404 65.1029 55.4929C65.5238 55.642 65.895 55.8741 66.2165 56.1889C66.5413 56.5038 66.7965 56.9048 66.9821 57.392C67.1677 57.8759 67.2605 58.4527 67.2605 59.1222V59.674H61.0013V58.4609H65.5354C65.5321 58.1162 65.4575 57.8097 65.3117 57.5412C65.1658 57.2694 64.962 57.0556 64.7002 56.8999C64.4416 56.7441 64.14 56.6662 63.7953 56.6662C63.4274 56.6662 63.1043 56.7557 62.8259 56.9347C62.5475 57.1103 62.3304 57.3423 62.1746 57.6307C62.0221 57.9157 61.9442 58.2289 61.9409 58.5703V59.6293C61.9409 60.0734 62.0221 60.4545 62.1845 60.7727C62.3469 61.0876 62.574 61.3295 62.8656 61.4986C63.1573 61.6643 63.4987 61.7472 63.8898 61.7472C64.1516 61.7472 64.3886 61.7107 64.6007 61.6378C64.8128 61.5616 64.9968 61.4505 65.1526 61.3047C65.3083 61.1589 65.426 60.9782 65.5056 60.7628L67.186 60.9517C67.0799 61.3958 66.8777 61.7836 66.5794 62.1151C66.2844 62.4432 65.9066 62.6984 65.4459 62.8807C64.9852 63.0597 64.4582 63.1491 63.8649 63.1491ZM71.5329 63.1342C70.933 63.1342 70.396 62.9801 69.9221 62.6719C69.4481 62.3636 69.0736 61.9162 68.7985 61.3295C68.5234 60.7429 68.3859 60.0303 68.3859 59.1918C68.3859 58.3433 68.5251 57.6274 68.8035 57.044C69.0852 56.4574 69.4647 56.0149 69.942 55.7166C70.4192 55.415 70.9512 55.2642 71.5379 55.2642C71.9853 55.2642 72.3532 55.3404 72.6415 55.4929C72.9299 55.642 73.1586 55.8227 73.3276 56.0348C73.4967 56.2436 73.6276 56.4408 73.7204 56.6264H73.795V52.8182H75.5996V63H73.8298V61.7969H73.7204C73.6276 61.9825 73.4933 62.1797 73.3177 62.3885C73.142 62.594 72.91 62.7696 72.6217 62.9155C72.3333 63.0613 71.9704 63.1342 71.5329 63.1342ZM72.035 61.6577C72.4162 61.6577 72.741 61.5549 73.0094 61.3494C73.2779 61.1406 73.4817 60.8506 73.621 60.4794C73.7602 60.1082 73.8298 59.6757 73.8298 59.1818C73.8298 58.688 73.7602 58.2588 73.621 57.8942C73.4851 57.5296 73.2829 57.2462 73.0144 57.044C72.7493 56.8419 72.4228 56.7408 72.035 56.7408C71.634 56.7408 71.2992 56.8452 71.0308 57.054C70.7623 57.2628 70.5601 57.5511 70.4242 57.919C70.2883 58.2869 70.2204 58.7079 70.2204 59.1818C70.2204 59.6591 70.2883 60.085 70.4242 60.4595C70.5634 60.8307 70.7673 61.1241 71.0357 61.3395C71.3075 61.5516 71.6406 61.6577 72.035 61.6577Z" fill="#26252A"/><mask id="path-4-inside-2_8519_19122" fill="white"><path d="M85 34H176V82H85V34Z"/></mask><path d="M176 82V81H85V82V83H176V82Z" fill="#EBEAE1" mask="url(#path-4-inside-2_8519_19122)"/><path d="M101.209 52.3182H102.442V59.0597C102.442 59.7557 102.278 60.3771 101.95 60.924C101.625 61.4676 101.166 61.8968 100.572 62.2116C99.9791 62.5232 99.2831 62.679 98.4844 62.679C97.6856 62.679 96.9896 62.5232 96.3963 62.2116C95.803 61.8968 95.3423 61.4676 95.0142 60.924C94.6894 60.3771 94.527 59.7557 94.527 59.0597V52.3182H95.7599V58.9602C95.7599 59.4574 95.8693 59.8999 96.088 60.2876C96.3068 60.6721 96.6184 60.9754 97.0227 61.1974C97.4304 61.4162 97.9176 61.5256 98.4844 61.5256C99.0511 61.5256 99.5383 61.4162 99.946 61.1974C100.354 60.9754 100.665 60.6721 100.881 60.2876C101.099 59.8999 101.209 59.4574 101.209 58.9602V52.3182ZM105.834 57.9062V62.5H104.661V54.8636H105.794V56.0568H105.894C106.073 55.669 106.345 55.3575 106.709 55.1222C107.074 54.8835 107.544 54.7642 108.121 54.7642C108.638 54.7642 109.091 54.8703 109.478 55.0824C109.866 55.2912 110.168 55.6094 110.383 56.0369C110.599 56.4612 110.706 56.9981 110.706 57.6477V62.5H109.533V57.7273C109.533 57.1274 109.377 56.66 109.066 56.3253C108.754 55.9872 108.327 55.8182 107.783 55.8182C107.408 55.8182 107.074 55.8994 106.779 56.0618C106.487 56.2242 106.257 56.4612 106.088 56.7727C105.919 57.0843 105.834 57.4621 105.834 57.9062ZM118.175 56.5739L117.121 56.8722C117.055 56.6965 116.957 56.5258 116.828 56.3601C116.702 56.1911 116.53 56.0518 116.311 55.9425C116.092 55.8331 115.812 55.7784 115.471 55.7784C115.004 55.7784 114.614 55.8861 114.303 56.1016C113.994 56.3137 113.84 56.5838 113.84 56.9119C113.84 57.2036 113.946 57.4339 114.158 57.603C114.37 57.772 114.702 57.9129 115.153 58.0256L116.286 58.304C116.969 58.4697 117.478 58.7232 117.812 59.0646C118.147 59.4027 118.315 59.8385 118.315 60.3722C118.315 60.8097 118.189 61.2008 117.937 61.5455C117.688 61.8902 117.34 62.1619 116.893 62.3608C116.445 62.5597 115.925 62.6591 115.332 62.6591C114.553 62.6591 113.908 62.4901 113.398 62.152C112.887 61.8139 112.564 61.3201 112.428 60.6705L113.542 60.392C113.648 60.803 113.848 61.1113 114.143 61.3168C114.442 61.5223 114.831 61.625 115.312 61.625C115.859 61.625 116.293 61.509 116.614 61.277C116.939 61.0417 117.102 60.7599 117.102 60.4318C117.102 60.1667 117.009 59.9446 116.823 59.7656C116.637 59.5833 116.352 59.4474 115.968 59.358L114.695 59.0597C113.996 58.8939 113.482 58.6371 113.154 58.2891C112.829 57.9377 112.667 57.4986 112.667 56.9716C112.667 56.5407 112.788 56.1596 113.03 55.8281C113.275 55.4967 113.608 55.2365 114.029 55.0476C114.453 54.8587 114.934 54.7642 115.471 54.7642C116.227 54.7642 116.82 54.9299 117.251 55.2614C117.685 55.5928 117.993 56.0303 118.175 56.5739ZM123.198 62.6591C122.463 62.6591 121.828 62.4967 121.294 62.1719C120.764 61.8438 120.355 61.3864 120.066 60.7997C119.781 60.2098 119.639 59.5237 119.639 58.7415C119.639 57.9593 119.781 57.2699 120.066 56.6733C120.355 56.0734 120.756 55.6061 121.269 55.2713C121.787 54.9332 122.39 54.7642 123.079 54.7642C123.477 54.7642 123.87 54.8305 124.257 54.9631C124.645 55.0956 124.998 55.3111 125.316 55.6094C125.635 55.9044 125.888 56.2955 126.077 56.7827C126.266 57.2699 126.36 57.8698 126.36 58.5824V59.0795H120.474V58.0653H125.167C125.167 57.6345 125.081 57.25 124.909 56.9119C124.74 56.5739 124.498 56.3071 124.183 56.1115C123.871 55.916 123.503 55.8182 123.079 55.8182C122.612 55.8182 122.207 55.9342 121.866 56.1662C121.528 56.3949 121.268 56.6932 121.086 57.0611C120.903 57.429 120.812 57.8234 120.812 58.2443V58.9205C120.812 59.4972 120.912 59.986 121.11 60.3871C121.313 60.7848 121.593 61.0881 121.951 61.2969C122.309 61.5024 122.724 61.6051 123.198 61.6051C123.507 61.6051 123.785 61.562 124.034 61.4759C124.286 61.3864 124.503 61.2538 124.685 61.0781C124.867 60.8991 125.008 60.6771 125.108 60.4119L126.241 60.7301C126.122 61.1146 125.921 61.4527 125.639 61.7443C125.358 62.0327 125.01 62.258 124.595 62.4205C124.181 62.5795 123.715 62.6591 123.198 62.6591ZM129.234 52.3182V62.5H128.061V52.3182H129.234ZM134.501 62.6591C133.765 62.6591 133.131 62.4967 132.597 62.1719C132.067 61.8438 131.657 61.3864 131.369 60.7997C131.084 60.2098 130.941 59.5237 130.941 58.7415C130.941 57.9593 131.084 57.2699 131.369 56.6733C131.657 56.0734 132.058 55.6061 132.572 55.2713C133.089 54.9332 133.692 54.7642 134.382 54.7642C134.78 54.7642 135.172 54.8305 135.56 54.9631C135.948 55.0956 136.301 55.3111 136.619 55.6094C136.937 55.9044 137.191 56.2955 137.38 56.7827C137.569 57.2699 137.663 57.8698 137.663 58.5824V59.0795H131.777V58.0653H136.47C136.47 57.6345 136.384 57.25 136.211 56.9119C136.042 56.5739 135.8 56.3071 135.486 56.1115C135.174 55.916 134.806 55.8182 134.382 55.8182C133.914 55.8182 133.51 55.9342 133.169 56.1662C132.831 56.3949 132.571 56.6932 132.388 57.0611C132.206 57.429 132.115 57.8234 132.115 58.2443V58.9205C132.115 59.4972 132.214 59.986 132.413 60.3871C132.615 60.7848 132.895 61.0881 133.253 61.2969C133.611 61.5024 134.027 61.6051 134.501 61.6051C134.809 61.6051 135.088 61.562 135.336 61.4759C135.588 61.3864 135.805 61.2538 135.988 61.0781C136.17 60.8991 136.311 60.6771 136.41 60.4119L137.544 60.7301C137.424 61.1146 137.224 61.4527 136.942 61.7443C136.66 62.0327 136.312 62.258 135.898 62.4205C135.484 62.5795 135.018 62.6591 134.501 62.6591ZM142.466 62.6591C141.75 62.6591 141.134 62.4901 140.617 62.152C140.1 61.8139 139.702 61.3482 139.424 60.755C139.145 60.1617 139.006 59.4839 139.006 58.7216C139.006 57.946 139.148 57.2616 139.433 56.6683C139.722 56.0717 140.123 55.6061 140.637 55.2713C141.154 54.9332 141.757 54.7642 142.446 54.7642C142.983 54.7642 143.467 54.8636 143.898 55.0625C144.329 55.2614 144.682 55.5398 144.957 55.8977C145.232 56.2557 145.403 56.6733 145.469 57.1506H144.296C144.206 56.8026 144.007 56.4943 143.699 56.2259C143.394 55.9541 142.983 55.8182 142.466 55.8182C142.009 55.8182 141.608 55.9375 141.263 56.1761C140.922 56.4115 140.655 56.7446 140.463 57.1754C140.274 57.603 140.179 58.1051 140.179 58.6818C140.179 59.2718 140.272 59.7855 140.458 60.223C140.647 60.6605 140.912 61.0002 141.253 61.2422C141.598 61.4841 142.002 61.6051 142.466 61.6051C142.771 61.6051 143.048 61.5521 143.296 61.446C143.545 61.34 143.755 61.1875 143.928 60.9886C144.1 60.7898 144.223 60.5511 144.296 60.2727H145.469C145.403 60.7235 145.239 61.1295 144.977 61.4908C144.718 61.8487 144.375 62.1338 143.948 62.3459C143.523 62.5547 143.03 62.6591 142.466 62.6591ZM150.421 54.8636V55.858H146.464V54.8636H150.421ZM147.617 53.0341H148.791V60.3125C148.791 60.6439 148.839 60.8925 148.935 61.0582C149.034 61.2206 149.16 61.33 149.313 61.3864C149.468 61.4394 149.632 61.4659 149.805 61.4659C149.934 61.4659 150.04 61.4593 150.123 61.446C150.206 61.4295 150.272 61.4162 150.322 61.4062L150.56 62.4602C150.481 62.4901 150.37 62.5199 150.227 62.5497C150.085 62.5829 149.904 62.5994 149.685 62.5994C149.354 62.5994 149.029 62.5282 148.711 62.3857C148.396 62.2431 148.134 62.026 147.925 61.7344C147.72 61.4427 147.617 61.0748 147.617 60.6307V53.0341ZM155.222 62.6591C154.486 62.6591 153.851 62.4967 153.318 62.1719C152.787 61.8438 152.378 61.3864 152.09 60.7997C151.805 60.2098 151.662 59.5237 151.662 58.7415C151.662 57.9593 151.805 57.2699 152.09 56.6733C152.378 56.0734 152.779 55.6061 153.293 55.2713C153.81 54.9332 154.413 54.7642 155.102 54.7642C155.5 54.7642 155.893 54.8305 156.281 54.9631C156.669 55.0956 157.022 55.3111 157.34 55.6094C157.658 55.9044 157.911 56.2955 158.1 56.7827C158.289 57.2699 158.384 57.8698 158.384 58.5824V59.0795H152.497V58.0653H157.191C157.191 57.6345 157.104 57.25 156.932 56.9119C156.763 56.5739 156.521 56.3071 156.206 56.1115C155.895 55.916 155.527 55.8182 155.102 55.8182C154.635 55.8182 154.231 55.9342 153.889 56.1662C153.551 56.3949 153.291 56.6932 153.109 57.0611C152.927 57.429 152.835 57.8234 152.835 58.2443V58.9205C152.835 59.4972 152.935 59.986 153.134 60.3871C153.336 60.7848 153.616 61.0881 153.974 61.2969C154.332 61.5024 154.748 61.6051 155.222 61.6051C155.53 61.6051 155.808 61.562 156.057 61.4759C156.309 61.3864 156.526 61.2538 156.708 61.0781C156.891 60.8991 157.031 60.6771 157.131 60.4119L158.264 60.7301C158.145 61.1146 157.945 61.4527 157.663 61.7443C157.381 62.0327 157.033 62.258 156.619 62.4205C156.205 62.5795 155.739 62.6591 155.222 62.6591ZM162.968 62.6591C162.332 62.6591 161.77 62.4983 161.283 62.1768C160.795 61.852 160.414 61.3946 160.139 60.8047C159.864 60.2114 159.727 59.5104 159.727 58.7017C159.727 57.8996 159.864 57.2036 160.139 56.6136C160.414 56.0237 160.797 55.5679 161.288 55.2464C161.778 54.925 162.345 54.7642 162.988 54.7642C163.485 54.7642 163.878 54.8471 164.166 55.0128C164.458 55.1752 164.68 55.3608 164.832 55.5696C164.988 55.7751 165.109 55.9441 165.195 56.0767H165.295V52.3182H166.468V62.5H165.335V61.3267H165.195C165.109 61.4659 164.987 61.6416 164.827 61.8537C164.668 62.0625 164.441 62.2498 164.146 62.4155C163.851 62.5779 163.459 62.6591 162.968 62.6591ZM163.127 61.6051C163.598 61.6051 163.996 61.4825 164.32 61.2372C164.645 60.9886 164.892 60.6456 165.061 60.2081C165.23 59.7673 165.315 59.2585 165.315 58.6818C165.315 58.1117 165.232 57.6129 165.066 57.1854C164.9 56.7545 164.655 56.4197 164.33 56.1811C164.005 55.9392 163.604 55.8182 163.127 55.8182C162.63 55.8182 162.216 55.9458 161.884 56.201C161.556 56.4529 161.309 56.7959 161.143 57.2301C160.981 57.661 160.9 58.1449 160.9 58.6818C160.9 59.2254 160.983 59.7192 161.148 60.1634C161.317 60.6042 161.566 60.9555 161.894 61.2173C162.226 61.4759 162.637 61.6051 163.127 61.6051Z" fill="#6C6862"/><mask id="path-7-inside-3_8519_19122" fill="white"><path d="M176 34H267V82H176V34Z"/></mask><path d="M267 82V81H176V82V83H267V82Z" fill="#26252A" mask="url(#path-7-inside-3_8519_19122)"/><path d="M192.209 52.3182H193.442V59.0597C193.442 59.7557 193.278 60.3771 192.95 60.924C192.625 61.4676 192.166 61.8968 191.572 62.2116C190.979 62.5232 190.283 62.679 189.484 62.679C188.686 62.679 187.99 62.5232 187.396 62.2116C186.803 61.8968 186.342 61.4676 186.014 60.924C185.689 60.3771 185.527 59.7557 185.527 59.0597V52.3182H186.76V58.9602C186.76 59.4574 186.869 59.8999 187.088 60.2876C187.307 60.6721 187.618 60.9754 188.023 61.1974C188.43 61.4162 188.918 61.5256 189.484 61.5256C190.051 61.5256 190.538 61.4162 190.946 61.1974C191.354 60.9754 191.665 60.6721 191.881 60.2876C192.099 59.8999 192.209 59.4574 192.209 58.9602V52.3182ZM196.834 57.9062V62.5H195.661V54.8636H196.794V56.0568H196.894C197.073 55.669 197.345 55.3575 197.709 55.1222C198.074 54.8835 198.544 54.7642 199.121 54.7642C199.638 54.7642 200.091 54.8703 200.478 55.0824C200.866 55.2912 201.168 55.6094 201.383 56.0369C201.599 56.4612 201.706 56.9981 201.706 57.6477V62.5H200.533V57.7273C200.533 57.1274 200.377 56.66 200.066 56.3253C199.754 55.9872 199.327 55.8182 198.783 55.8182C198.408 55.8182 198.074 55.8994 197.779 56.0618C197.487 56.2242 197.257 56.4612 197.088 56.7727C196.919 57.0843 196.834 57.4621 196.834 57.9062ZM209.175 56.5739L208.121 56.8722C208.055 56.6965 207.957 56.5258 207.828 56.3601C207.702 56.1911 207.53 56.0518 207.311 55.9425C207.092 55.8331 206.812 55.7784 206.471 55.7784C206.004 55.7784 205.614 55.8861 205.303 56.1016C204.994 56.3137 204.84 56.5838 204.84 56.9119C204.84 57.2036 204.946 57.4339 205.158 57.603C205.37 57.772 205.702 57.9129 206.153 58.0256L207.286 58.304C207.969 58.4697 208.478 58.7232 208.812 59.0646C209.147 59.4027 209.315 59.8385 209.315 60.3722C209.315 60.8097 209.189 61.2008 208.937 61.5455C208.688 61.8902 208.34 62.1619 207.893 62.3608C207.445 62.5597 206.925 62.6591 206.332 62.6591C205.553 62.6591 204.908 62.4901 204.398 62.152C203.887 61.8139 203.564 61.3201 203.428 60.6705L204.542 60.392C204.648 60.803 204.848 61.1113 205.143 61.3168C205.442 61.5223 205.831 61.625 206.312 61.625C206.859 61.625 207.293 61.509 207.614 61.277C207.939 61.0417 208.102 60.7599 208.102 60.4318C208.102 60.1667 208.009 59.9446 207.823 59.7656C207.637 59.5833 207.352 59.4474 206.968 59.358L205.695 59.0597C204.996 58.8939 204.482 58.6371 204.154 58.2891C203.829 57.9377 203.667 57.4986 203.667 56.9716C203.667 56.5407 203.788 56.1596 204.03 55.8281C204.275 55.4967 204.608 55.2365 205.029 55.0476C205.453 54.8587 205.934 54.7642 206.471 54.7642C207.227 54.7642 207.82 54.9299 208.251 55.2614C208.685 55.5928 208.993 56.0303 209.175 56.5739ZM214.198 62.6591C213.463 62.6591 212.828 62.4967 212.294 62.1719C211.764 61.8438 211.355 61.3864 211.066 60.7997C210.781 60.2098 210.639 59.5237 210.639 58.7415C210.639 57.9593 210.781 57.2699 211.066 56.6733C211.355 56.0734 211.756 55.6061 212.269 55.2713C212.787 54.9332 213.39 54.7642 214.079 54.7642C214.477 54.7642 214.87 54.8305 215.257 54.9631C215.645 55.0956 215.998 55.3111 216.316 55.6094C216.635 55.9044 216.888 56.2955 217.077 56.7827C217.266 57.2699 217.36 57.8698 217.36 58.5824V59.0795H211.474V58.0653H216.167C216.167 57.6345 216.081 57.25 215.909 56.9119C215.74 56.5739 215.498 56.3071 215.183 56.1115C214.871 55.916 214.503 55.8182 214.079 55.8182C213.612 55.8182 213.207 55.9342 212.866 56.1662C212.528 56.3949 212.268 56.6932 212.086 57.0611C211.903 57.429 211.812 57.8234 211.812 58.2443V58.9205C211.812 59.4972 211.912 59.986 212.11 60.3871C212.313 60.7848 212.593 61.0881 212.951 61.2969C213.309 61.5024 213.724 61.6051 214.198 61.6051C214.507 61.6051 214.785 61.562 215.034 61.4759C215.286 61.3864 215.503 61.2538 215.685 61.0781C215.867 60.8991 216.008 60.6771 216.108 60.4119L217.241 60.7301C217.122 61.1146 216.921 61.4527 216.639 61.7443C216.358 62.0327 216.01 62.258 215.595 62.4205C215.181 62.5795 214.715 62.6591 214.198 62.6591ZM220.234 52.3182V62.5H219.061V52.3182H220.234ZM225.501 62.6591C224.765 62.6591 224.131 62.4967 223.597 62.1719C223.067 61.8438 222.657 61.3864 222.369 60.7997C222.084 60.2098 221.941 59.5237 221.941 58.7415C221.941 57.9593 222.084 57.2699 222.369 56.6733C222.657 56.0734 223.058 55.6061 223.572 55.2713C224.089 54.9332 224.692 54.7642 225.382 54.7642C225.78 54.7642 226.172 54.8305 226.56 54.9631C226.948 55.0956 227.301 55.3111 227.619 55.6094C227.937 55.9044 228.191 56.2955 228.38 56.7827C228.569 57.2699 228.663 57.8698 228.663 58.5824V59.0795H222.777V58.0653H227.47C227.47 57.6345 227.384 57.25 227.211 56.9119C227.042 56.5739 226.8 56.3071 226.486 56.1115C226.174 55.916 225.806 55.8182 225.382 55.8182C224.914 55.8182 224.51 55.9342 224.169 56.1662C223.831 56.3949 223.571 56.6932 223.388 57.0611C223.206 57.429 223.115 57.8234 223.115 58.2443V58.9205C223.115 59.4972 223.214 59.986 223.413 60.3871C223.615 60.7848 223.895 61.0881 224.253 61.2969C224.611 61.5024 225.027 61.6051 225.501 61.6051C225.809 61.6051 226.088 61.562 226.336 61.4759C226.588 61.3864 226.805 61.2538 226.988 61.0781C227.17 60.8991 227.311 60.6771 227.41 60.4119L228.544 60.7301C228.424 61.1146 228.224 61.4527 227.942 61.7443C227.66 62.0327 227.312 62.258 226.898 62.4205C226.484 62.5795 226.018 62.6591 225.501 62.6591ZM233.466 62.6591C232.75 62.6591 232.134 62.4901 231.617 62.152C231.1 61.8139 230.702 61.3482 230.424 60.755C230.145 60.1617 230.006 59.4839 230.006 58.7216C230.006 57.946 230.148 57.2616 230.433 56.6683C230.722 56.0717 231.123 55.6061 231.637 55.2713C232.154 54.9332 232.757 54.7642 233.446 54.7642C233.983 54.7642 234.467 54.8636 234.898 55.0625C235.329 55.2614 235.682 55.5398 235.957 55.8977C236.232 56.2557 236.403 56.6733 236.469 57.1506H235.296C235.206 56.8026 235.007 56.4943 234.699 56.2259C234.394 55.9541 233.983 55.8182 233.466 55.8182C233.009 55.8182 232.608 55.9375 232.263 56.1761C231.922 56.4115 231.655 56.7446 231.463 57.1754C231.274 57.603 231.179 58.1051 231.179 58.6818C231.179 59.2718 231.272 59.7855 231.458 60.223C231.647 60.6605 231.912 61.0002 232.253 61.2422C232.598 61.4841 233.002 61.6051 233.466 61.6051C233.771 61.6051 234.048 61.5521 234.296 61.446C234.545 61.34 234.755 61.1875 234.928 60.9886C235.1 60.7898 235.223 60.5511 235.296 60.2727H236.469C236.403 60.7235 236.239 61.1295 235.977 61.4908C235.718 61.8487 235.375 62.1338 234.948 62.3459C234.523 62.5547 234.03 62.6591 233.466 62.6591ZM241.421 54.8636V55.858H237.464V54.8636H241.421ZM238.617 53.0341H239.791V60.3125C239.791 60.6439 239.839 60.8925 239.935 61.0582C240.034 61.2206 240.16 61.33 240.313 61.3864C240.468 61.4394 240.632 61.4659 240.805 61.4659C240.934 61.4659 241.04 61.4593 241.123 61.446C241.206 61.4295 241.272 61.4162 241.322 61.4062L241.56 62.4602C241.481 62.4901 241.37 62.5199 241.227 62.5497C241.085 62.5829 240.904 62.5994 240.685 62.5994C240.354 62.5994 240.029 62.5282 239.711 62.3857C239.396 62.2431 239.134 62.026 238.925 61.7344C238.72 61.4427 238.617 61.0748 238.617 60.6307V53.0341ZM246.222 62.6591C245.486 62.6591 244.851 62.4967 244.318 62.1719C243.787 61.8438 243.378 61.3864 243.09 60.7997C242.805 60.2098 242.662 59.5237 242.662 58.7415C242.662 57.9593 242.805 57.2699 243.09 56.6733C243.378 56.0734 243.779 55.6061 244.293 55.2713C244.81 54.9332 245.413 54.7642 246.102 54.7642C246.5 54.7642 246.893 54.8305 247.281 54.9631C247.669 55.0956 248.022 55.3111 248.34 55.6094C248.658 55.9044 248.911 56.2955 249.1 56.7827C249.289 57.2699 249.384 57.8698 249.384 58.5824V59.0795H243.497V58.0653H248.191C248.191 57.6345 248.104 57.25 247.932 56.9119C247.763 56.5739 247.521 56.3071 247.206 56.1115C246.895 55.916 246.527 55.8182 246.102 55.8182C245.635 55.8182 245.231 55.9342 244.889 56.1662C244.551 56.3949 244.291 56.6932 244.109 57.0611C243.927 57.429 243.835 57.8234 243.835 58.2443V58.9205C243.835 59.4972 243.935 59.986 244.134 60.3871C244.336 60.7848 244.616 61.0881 244.974 61.2969C245.332 61.5024 245.748 61.6051 246.222 61.6051C246.53 61.6051 246.808 61.562 247.057 61.4759C247.309 61.3864 247.526 61.2538 247.708 61.0781C247.891 60.8991 248.031 60.6771 248.131 60.4119L249.264 60.7301C249.145 61.1146 248.945 61.4527 248.663 61.7443C248.381 62.0327 248.033 62.258 247.619 62.4205C247.205 62.5795 246.739 62.6591 246.222 62.6591ZM253.968 62.6591C253.332 62.6591 252.77 62.4983 252.283 62.1768C251.795 61.852 251.414 61.3946 251.139 60.8047C250.864 60.2114 250.727 59.5104 250.727 58.7017C250.727 57.8996 250.864 57.2036 251.139 56.6136C251.414 56.0237 251.797 55.5679 252.288 55.2464C252.778 54.925 253.345 54.7642 253.988 54.7642C254.485 54.7642 254.878 54.8471 255.166 55.0128C255.458 55.1752 255.68 55.3608 255.832 55.5696C255.988 55.7751 256.109 55.9441 256.195 56.0767H256.295V52.3182H257.468V62.5H256.335V61.3267H256.195C256.109 61.4659 255.987 61.6416 255.827 61.8537C255.668 62.0625 255.441 62.2498 255.146 62.4155C254.851 62.5779 254.459 62.6591 253.968 62.6591ZM254.127 61.6051C254.598 61.6051 254.996 61.4825 255.32 61.2372C255.645 60.9886 255.892 60.6456 256.061 60.2081C256.23 59.7673 256.315 59.2585 256.315 58.6818C256.315 58.1117 256.232 57.6129 256.066 57.1854C255.9 56.7545 255.655 56.4197 255.33 56.1811C255.005 55.9392 254.604 55.8182 254.127 55.8182C253.63 55.8182 253.216 55.9458 252.884 56.201C252.556 56.4529 252.309 56.7959 252.143 57.2301C251.981 57.661 251.9 58.1449 251.9 58.6818C251.9 59.2254 251.983 59.7192 252.148 60.1634C252.317 60.6042 252.566 60.9555 252.894 61.2173C253.226 61.4759 253.637 61.6051 254.127 61.6051Z" fill="#26252A"/><path d="M304.882 16.168L305.47 13.494H304.336V12.43H305.694L306.17 10.26H304.98V9.196H306.408L307.066 6.228H308.172L307.514 9.196H309.572L310.23 6.228H311.35L310.678 9.196H311.798V10.26H310.468L309.978 12.43H311.168V13.494H309.754L309.166 16.168H308.06L308.648 13.494H306.576L306.002 16.168H304.882ZM306.8 12.43H308.872L309.348 10.26H307.29L306.8 12.43ZM312.764 16V15.594C312.764 15.202 312.839 14.8427 312.988 14.516C313.147 14.18 313.352 13.8767 313.604 13.606C313.866 13.326 314.16 13.06 314.486 12.808C314.813 12.556 315.144 12.3087 315.48 12.066C315.938 11.7487 316.358 11.4313 316.74 11.114C317.132 10.7967 317.445 10.456 317.678 10.092C317.912 9.71867 318.028 9.30333 318.028 8.846C318.028 8.55667 317.958 8.29533 317.818 8.062C317.688 7.81933 317.487 7.628 317.216 7.488C316.946 7.348 316.6 7.278 316.18 7.278C315.686 7.278 315.289 7.362 314.99 7.53C314.692 7.698 314.472 7.922 314.332 8.202C314.202 8.482 314.136 8.79 314.136 9.126V9.7H312.918C312.909 9.65333 312.9 9.58333 312.89 9.49C312.881 9.38733 312.876 9.27067 312.876 9.14C312.876 8.44933 313.03 7.894 313.338 7.474C313.646 7.04467 314.057 6.732 314.57 6.536C315.084 6.33067 315.639 6.228 316.236 6.228C316.768 6.228 317.226 6.30267 317.608 6.452C317.991 6.592 318.308 6.788 318.56 7.04C318.812 7.292 318.999 7.58133 319.12 7.908C319.242 8.22533 319.302 8.56133 319.302 8.916C319.302 9.35467 319.223 9.756 319.064 10.12C318.915 10.484 318.7 10.8247 318.42 11.142C318.15 11.45 317.828 11.7487 317.454 12.038C317.09 12.3273 316.694 12.6213 316.264 12.92C315.966 13.116 315.672 13.326 315.382 13.55C315.093 13.7647 314.846 13.984 314.64 14.208C314.435 14.432 314.304 14.6467 314.248 14.852H319.358V16H312.764ZM324.124 16.168C323.573 16.168 323.078 16.0887 322.64 15.93C322.21 15.7713 321.842 15.5147 321.534 15.16C321.235 14.8053 321.006 14.3293 320.848 13.732C320.689 13.1253 320.61 12.374 320.61 11.478C320.61 10.4887 320.689 9.66267 320.848 9C321.006 8.328 321.23 7.79133 321.52 7.39C321.818 6.97933 322.182 6.68533 322.612 6.508C323.05 6.32133 323.545 6.228 324.096 6.228C324.786 6.228 325.342 6.35867 325.762 6.62C326.191 6.88133 326.504 7.236 326.7 7.684C326.896 8.12267 326.994 8.62667 326.994 9.196H325.734C325.734 8.76667 325.673 8.40733 325.552 8.118C325.43 7.82867 325.239 7.614 324.978 7.474C324.726 7.334 324.408 7.264 324.026 7.264C323.466 7.264 323.027 7.41333 322.71 7.712C322.402 8.00133 322.187 8.426 322.066 8.986C321.954 9.546 321.893 10.2133 321.884 10.988C322.014 10.7733 322.196 10.5773 322.43 10.4C322.672 10.2227 322.957 10.0827 323.284 9.98C323.61 9.868 323.956 9.812 324.32 9.812C325.01 9.812 325.58 9.952 326.028 10.232C326.476 10.5027 326.807 10.876 327.022 11.352C327.236 11.828 327.344 12.36 327.344 12.948C327.344 13.592 327.204 14.1567 326.924 14.642C326.644 15.1273 326.261 15.5053 325.776 15.776C325.29 16.0373 324.74 16.168 324.124 16.168ZM324.04 15.132C324.497 15.132 324.875 15.034 325.174 14.838C325.472 14.6327 325.692 14.3667 325.832 14.04C325.981 13.704 326.056 13.3353 326.056 12.934C326.056 12.5513 325.986 12.2013 325.846 11.884C325.706 11.5667 325.486 11.3147 325.188 11.128C324.898 10.932 324.525 10.834 324.068 10.834C323.61 10.834 323.228 10.932 322.92 11.128C322.612 11.324 322.383 11.5853 322.234 11.912C322.084 12.2293 322.01 12.5933 322.01 13.004C322.01 13.3867 322.084 13.7413 322.234 14.068C322.383 14.3947 322.607 14.656 322.906 14.852C323.204 15.0387 323.582 15.132 324.04 15.132ZM328.565 16V15.594C328.565 15.202 328.64 14.8427 328.789 14.516C328.948 14.18 329.153 13.8767 329.405 13.606C329.667 13.326 329.961 13.06 330.287 12.808C330.614 12.556 330.945 12.3087 331.281 12.066C331.739 11.7487 332.159 11.4313 332.541 11.114C332.933 10.7967 333.246 10.456 333.479 10.092C333.713 9.71867 333.829 9.30333 333.829 8.846C333.829 8.55667 333.759 8.29533 333.619 8.062C333.489 7.81933 333.288 7.628 333.017 7.488C332.747 7.348 332.401 7.278 331.981 7.278C331.487 7.278 331.09 7.362 330.791 7.53C330.493 7.698 330.273 7.922 330.133 8.202C330.003 8.482 329.937 8.79 329.937 9.126V9.7H328.719C328.71 9.65333 328.701 9.58333 328.691 9.49C328.682 9.38733 328.677 9.27067 328.677 9.14C328.677 8.44933 328.831 7.894 329.139 7.474C329.447 7.04467 329.858 6.732 330.371 6.536C330.885 6.33067 331.44 6.228 332.037 6.228C332.569 6.228 333.027 6.30267 333.409 6.452C333.792 6.592 334.109 6.788 334.361 7.04C334.613 7.292 334.8 7.58133 334.921 7.908C335.043 8.22533 335.103 8.56133 335.103 8.916C335.103 9.35467 335.024 9.756 334.865 10.12C334.716 10.484 334.501 10.8247 334.221 11.142C333.951 11.45 333.629 11.7487 333.255 12.038C332.891 12.3273 332.495 12.6213 332.065 12.92C331.767 13.116 331.473 13.326 331.183 13.55C330.894 13.7647 330.647 13.984 330.441 14.208C330.236 14.432 330.105 14.6467 330.049 14.852H335.159V16H328.565ZM339.785 16.168C339.113 16.168 338.525 16.042 338.021 15.79C337.517 15.538 337.125 15.1787 336.845 14.712C336.565 14.236 336.425 13.6713 336.425 13.018H337.671C337.671 13.4567 337.764 13.8347 337.951 14.152C338.137 14.4693 338.389 14.712 338.707 14.88C339.033 15.048 339.393 15.132 339.785 15.132C340.186 15.132 340.541 15.0527 340.849 14.894C341.157 14.726 341.395 14.474 341.563 14.138C341.74 13.802 341.829 13.3773 341.829 12.864C341.829 12.3973 341.749 12.0147 341.591 11.716C341.432 11.408 341.203 11.1793 340.905 11.03C340.615 10.8807 340.279 10.806 339.897 10.806C339.617 10.806 339.351 10.8527 339.099 10.946C338.847 11.03 338.618 11.1513 338.413 11.31C338.217 11.4687 338.053 11.6647 337.923 11.898L336.761 11.716L337.167 6.396H342.613V7.544H338.245L338.021 10.54C338.179 10.4 338.357 10.274 338.553 10.162C338.758 10.0407 338.991 9.94733 339.253 9.882C339.514 9.80733 339.813 9.77 340.149 9.77C340.699 9.77 341.199 9.87733 341.647 10.092C342.095 10.3067 342.449 10.638 342.711 11.086C342.972 11.534 343.103 12.1127 343.103 12.822C343.103 13.522 342.967 14.124 342.697 14.628C342.435 15.132 342.057 15.5147 341.563 15.776C341.068 16.0373 340.475 16.168 339.785 16.168ZM344.339 16V15.594C344.339 15.202 344.413 14.8427 344.563 14.516C344.721 14.18 344.927 13.8767 345.179 13.606C345.44 13.326 345.734 13.06 346.061 12.808C346.387 12.556 346.719 12.3087 347.055 12.066C347.512 11.7487 347.932 11.4313 348.315 11.114C348.707 10.7967 349.019 10.456 349.253 10.092C349.486 9.71867 349.603 9.30333 349.603 8.846C349.603 8.55667 349.533 8.29533 349.393 8.062C349.262 7.81933 349.061 7.628 348.791 7.488C348.52 7.348 348.175 7.278 347.755 7.278C347.26 7.278 346.863 7.362 346.565 7.53C346.266 7.698 346.047 7.922 345.907 8.202C345.776 8.482 345.711 8.79 345.711 9.126V9.7H344.493C344.483 9.65333 344.474 9.58333 344.465 9.49C344.455 9.38733 344.451 9.27067 344.451 9.14C344.451 8.44933 344.605 7.894 344.913 7.474C345.221 7.04467 345.631 6.732 346.145 6.536C346.658 6.33067 347.213 6.228 347.811 6.228C348.343 6.228 348.8 6.30267 349.183 6.452C349.565 6.592 349.883 6.788 350.135 7.04C350.387 7.292 350.573 7.58133 350.695 7.908C350.816 8.22533 350.877 8.56133 350.877 8.916C350.877 9.35467 350.797 9.756 350.639 10.12C350.489 10.484 350.275 10.8247 349.995 11.142C349.724 11.45 349.402 11.7487 349.029 12.038C348.665 12.3273 348.268 12.6213 347.839 12.92C347.54 13.116 347.246 13.326 346.957 13.55C346.667 13.7647 346.42 13.984 346.215 14.208C346.009 14.432 345.879 14.6467 345.823 14.852H350.933V16H344.339ZM351.596 16L355.39 6.396H357.14L360.948 16H359.506L358.568 13.62H353.892L352.968 16H351.596ZM354.326 12.486H358.12L356.958 9.476C356.93 9.392 356.888 9.27533 356.832 9.126C356.776 8.97667 356.715 8.81333 356.65 8.636C356.585 8.44933 356.519 8.26267 356.454 8.076C356.389 7.88 356.328 7.70267 356.272 7.544H356.188C356.123 7.73067 356.048 7.94533 355.964 8.188C355.88 8.43067 355.796 8.66867 355.712 8.902C355.628 9.126 355.558 9.31733 355.502 9.476L354.326 12.486Z" fill="#272433"/><path d="M164.882 15.168L165.47 12.494H164.336V11.43H165.694L166.17 9.26H164.98V8.196H166.408L167.066 5.228H168.172L167.514 8.196H169.572L170.23 5.228H171.35L170.678 8.196H171.798V9.26H170.468L169.978 11.43H171.168V12.494H169.754L169.166 15.168H168.06L168.648 12.494H166.576L166.002 15.168H164.882ZM166.8 11.43H168.872L169.348 9.26H167.29L166.8 11.43ZM176.264 15.168C175.714 15.168 175.219 15.0887 174.78 14.93C174.351 14.7713 173.982 14.5147 173.674 14.16C173.376 13.8053 173.147 13.3293 172.988 12.732C172.83 12.1253 172.75 11.374 172.75 10.478C172.75 9.48867 172.83 8.66267 172.988 8C173.147 7.328 173.371 6.79133 173.66 6.39C173.959 5.97933 174.323 5.68533 174.752 5.508C175.191 5.32133 175.686 5.228 176.236 5.228C176.927 5.228 177.482 5.35867 177.902 5.62C178.332 5.88133 178.644 6.236 178.84 6.684C179.036 7.12267 179.134 7.62667 179.134 8.196H177.874C177.874 7.76667 177.814 7.40733 177.692 7.118C177.571 6.82867 177.38 6.614 177.118 6.474C176.866 6.334 176.549 6.264 176.166 6.264C175.606 6.264 175.168 6.41333 174.85 6.712C174.542 7.00133 174.328 7.426 174.206 7.986C174.094 8.546 174.034 9.21333 174.024 9.988C174.155 9.77333 174.337 9.57733 174.57 9.4C174.813 9.22267 175.098 9.08267 175.424 8.98C175.751 8.868 176.096 8.812 176.46 8.812C177.151 8.812 177.72 8.952 178.168 9.232C178.616 9.50267 178.948 9.876 179.162 10.352C179.377 10.828 179.484 11.36 179.484 11.948C179.484 12.592 179.344 13.1567 179.064 13.642C178.784 14.1273 178.402 14.5053 177.916 14.776C177.431 15.0373 176.88 15.168 176.264 15.168ZM176.18 14.132C176.638 14.132 177.016 14.034 177.314 13.838C177.613 13.6327 177.832 13.3667 177.972 13.04C178.122 12.704 178.196 12.3353 178.196 11.934C178.196 11.5513 178.126 11.2013 177.986 10.884C177.846 10.5667 177.627 10.3147 177.328 10.128C177.039 9.932 176.666 9.834 176.208 9.834C175.751 9.834 175.368 9.932 175.06 10.128C174.752 10.324 174.524 10.5853 174.374 10.912C174.225 11.2293 174.15 11.5933 174.15 12.004C174.15 12.3867 174.225 12.7413 174.374 13.068C174.524 13.3947 174.748 13.656 175.046 13.852C175.345 14.0387 175.723 14.132 176.18 14.132ZM185.312 15.168C184.332 15.168 183.501 14.9907 182.82 14.636C182.138 14.272 181.616 13.726 181.252 12.998C180.897 12.2607 180.72 11.3273 180.72 10.198C180.72 8.52733 181.126 7.28133 181.938 6.46C182.75 5.63867 183.879 5.228 185.326 5.228C186.147 5.228 186.875 5.36333 187.51 5.634C188.144 5.89533 188.639 6.29667 188.994 6.838C189.358 7.37 189.54 8.042 189.54 8.854H188.196C188.196 8.294 188.074 7.832 187.832 7.468C187.598 7.104 187.267 6.83333 186.838 6.656C186.408 6.46933 185.904 6.376 185.326 6.376C184.654 6.376 184.075 6.50667 183.59 6.768C183.104 7.02933 182.736 7.43533 182.484 7.986C182.232 8.52733 182.106 9.22733 182.106 10.086V10.38C182.106 11.2293 182.232 11.9247 182.484 12.466C182.736 12.998 183.1 13.39 183.576 13.642C184.061 13.894 184.644 14.02 185.326 14.02C185.923 14.02 186.436 13.9313 186.866 13.754C187.304 13.5767 187.64 13.306 187.874 12.942C188.116 12.5687 188.238 12.102 188.238 11.542H189.54C189.54 12.3727 189.353 13.054 188.98 13.586C188.616 14.118 188.116 14.5147 187.482 14.776C186.847 15.0373 186.124 15.168 185.312 15.168ZM194.307 15.168C193.757 15.168 193.262 15.0887 192.823 14.93C192.394 14.7713 192.025 14.5147 191.717 14.16C191.419 13.8053 191.19 13.3293 191.031 12.732C190.873 12.1253 190.793 11.374 190.793 10.478C190.793 9.48867 190.873 8.66267 191.031 8C191.19 7.328 191.414 6.79133 191.703 6.39C192.002 5.97933 192.366 5.68533 192.795 5.508C193.234 5.32133 193.729 5.228 194.279 5.228C194.97 5.228 195.525 5.35867 195.945 5.62C196.375 5.88133 196.687 6.236 196.883 6.684C197.079 7.12267 197.177 7.62667 197.177 8.196H195.917C195.917 7.76667 195.857 7.40733 195.735 7.118C195.614 6.82867 195.423 6.614 195.161 6.474C194.909 6.334 194.592 6.264 194.209 6.264C193.649 6.264 193.211 6.41333 192.893 6.712C192.585 7.00133 192.371 7.426 192.249 7.986C192.137 8.546 192.077 9.21333 192.067 9.988C192.198 9.77333 192.38 9.57733 192.613 9.4C192.856 9.22267 193.141 9.08267 193.467 8.98C193.794 8.868 194.139 8.812 194.503 8.812C195.194 8.812 195.763 8.952 196.211 9.232C196.659 9.50267 196.991 9.876 197.205 10.352C197.42 10.828 197.527 11.36 197.527 11.948C197.527 12.592 197.387 13.1567 197.107 13.642C196.827 14.1273 196.445 14.5053 195.959 14.776C195.474 15.0373 194.923 15.168 194.307 15.168ZM194.223 14.132C194.681 14.132 195.059 14.034 195.357 13.838C195.656 13.6327 195.875 13.3667 196.015 13.04C196.165 12.704 196.239 12.3353 196.239 11.934C196.239 11.5513 196.169 11.2013 196.029 10.884C195.889 10.5667 195.67 10.3147 195.371 10.128C195.082 9.932 194.709 9.834 194.251 9.834C193.794 9.834 193.411 9.932 193.103 10.128C192.795 10.324 192.567 10.5853 192.417 10.912C192.268 11.2293 192.193 11.5933 192.193 12.004C192.193 12.3867 192.268 12.7413 192.417 13.068C192.567 13.3947 192.791 13.656 193.089 13.852C193.388 14.0387 193.766 14.132 194.223 14.132ZM202.067 15.168C201.273 15.168 200.629 15.042 200.135 14.79C199.64 14.538 199.276 14.202 199.043 13.782C198.819 13.362 198.707 12.8953 198.707 12.382C198.707 11.8593 198.837 11.3973 199.099 10.996C199.36 10.5947 199.771 10.2867 200.331 10.072C199.883 9.83867 199.542 9.53067 199.309 9.148C199.085 8.76533 198.973 8.34067 198.973 7.874C198.973 7.37933 199.085 6.936 199.309 6.544C199.542 6.14267 199.887 5.82533 200.345 5.592C200.811 5.34933 201.385 5.228 202.067 5.228C202.748 5.228 203.317 5.34933 203.775 5.592C204.232 5.82533 204.577 6.14267 204.811 6.544C205.044 6.936 205.161 7.37933 205.161 7.874C205.161 8.34067 205.044 8.76533 204.811 9.148C204.577 9.53067 204.237 9.83867 203.789 10.072C204.358 10.2867 204.769 10.5947 205.021 10.996C205.282 11.3973 205.413 11.8593 205.413 12.382C205.413 12.8953 205.296 13.362 205.063 13.782C204.839 14.202 204.479 14.538 203.985 14.79C203.499 15.042 202.86 15.168 202.067 15.168ZM202.067 14.146C202.748 14.146 203.261 13.9873 203.607 13.67C203.952 13.3527 204.125 12.9187 204.125 12.368C204.125 11.8267 203.952 11.3973 203.607 11.08C203.261 10.7627 202.748 10.604 202.067 10.604C201.385 10.604 200.867 10.7627 200.513 11.08C200.167 11.3973 199.995 11.8267 199.995 12.368C199.995 12.9187 200.167 13.3527 200.513 13.67C200.867 13.9873 201.385 14.146 202.067 14.146ZM202.067 9.582C202.636 9.582 203.084 9.43733 203.411 9.148C203.737 8.84933 203.901 8.434 203.901 7.902C203.901 7.37933 203.737 6.97333 203.411 6.684C203.084 6.39467 202.636 6.25 202.067 6.25C201.497 6.25 201.049 6.39467 200.723 6.684C200.396 6.97333 200.233 7.37933 200.233 7.902C200.233 8.434 200.396 8.84933 200.723 9.148C201.049 9.43733 201.497 9.582 202.067 9.582ZM210.204 15.168C209.653 15.168 209.158 15.0887 208.72 14.93C208.29 14.7713 207.922 14.5147 207.614 14.16C207.315 13.8053 207.086 13.3293 206.928 12.732C206.769 12.1253 206.69 11.374 206.69 10.478C206.69 9.48867 206.769 8.66267 206.928 8C207.086 7.328 207.31 6.79133 207.6 6.39C207.898 5.97933 208.262 5.68533 208.692 5.508C209.13 5.32133 209.625 5.228 210.176 5.228C210.866 5.228 211.422 5.35867 211.842 5.62C212.271 5.88133 212.584 6.236 212.78 6.684C212.976 7.12267 213.074 7.62667 213.074 8.196H211.814C211.814 7.76667 211.753 7.40733 211.632 7.118C211.51 6.82867 211.319 6.614 211.058 6.474C210.806 6.334 210.488 6.264 210.106 6.264C209.546 6.264 209.107 6.41333 208.79 6.712C208.482 7.00133 208.267 7.426 208.146 7.986C208.034 8.546 207.973 9.21333 207.964 9.988C208.094 9.77333 208.276 9.57733 208.51 9.4C208.752 9.22267 209.037 9.08267 209.364 8.98C209.69 8.868 210.036 8.812 210.4 8.812C211.09 8.812 211.66 8.952 212.108 9.232C212.556 9.50267 212.887 9.876 213.102 10.352C213.316 10.828 213.424 11.36 213.424 11.948C213.424 12.592 213.284 13.1567 213.004 13.642C212.724 14.1273 212.341 14.5053 211.856 14.776C211.37 15.0373 210.82 15.168 210.204 15.168ZM210.12 14.132C210.577 14.132 210.955 14.034 211.254 13.838C211.552 13.6327 211.772 13.3667 211.912 13.04C212.061 12.704 212.136 12.3353 212.136 11.934C212.136 11.5513 212.066 11.2013 211.926 10.884C211.786 10.5667 211.566 10.3147 211.268 10.128C210.978 9.932 210.605 9.834 210.148 9.834C209.69 9.834 209.308 9.932 209 10.128C208.692 10.324 208.463 10.5853 208.314 10.912C208.164 11.2293 208.09 11.5933 208.09 12.004C208.09 12.3867 208.164 12.7413 208.314 13.068C208.463 13.3947 208.687 13.656 208.986 13.852C209.284 14.0387 209.662 14.132 210.12 14.132ZM214.645 15V14.594C214.645 14.202 214.72 13.8427 214.869 13.516C215.028 13.18 215.233 12.8767 215.485 12.606C215.747 12.326 216.041 12.06 216.367 11.808C216.694 11.556 217.025 11.3087 217.361 11.066C217.819 10.7487 218.239 10.4313 218.621 10.114C219.013 9.79667 219.326 9.456 219.559 9.092C219.793 8.71867 219.909 8.30333 219.909 7.846C219.909 7.55667 219.839 7.29533 219.699 7.062C219.569 6.81933 219.368 6.628 219.097 6.488C218.827 6.348 218.481 6.278 218.061 6.278C217.567 6.278 217.17 6.362 216.871 6.53C216.573 6.698 216.353 6.922 216.213 7.202C216.083 7.482 216.017 7.79 216.017 8.126V8.7H214.799C214.79 8.65333 214.781 8.58333 214.771 8.49C214.762 8.38733 214.757 8.27067 214.757 8.14C214.757 7.44933 214.911 6.894 215.219 6.474C215.527 6.04467 215.938 5.732 216.451 5.536C216.965 5.33067 217.52 5.228 218.117 5.228C218.649 5.228 219.107 5.30267 219.489 5.452C219.872 5.592 220.189 5.788 220.441 6.04C220.693 6.292 220.88 6.58133 221.001 6.908C221.123 7.22533 221.183 7.56133 221.183 7.916C221.183 8.35467 221.104 8.756 220.945 9.12C220.796 9.484 220.581 9.82467 220.301 10.142C220.031 10.45 219.709 10.7487 219.335 11.038C218.971 11.3273 218.575 11.6213 218.145 11.92C217.847 12.116 217.553 12.326 217.263 12.55C216.974 12.7647 216.727 12.984 216.521 13.208C216.316 13.432 216.185 13.6467 216.129 13.852H221.239V15H214.645Z" fill="#272433"/><line x1="271.646" y1="47.6464" x2="294.646" y2="24.6464" stroke="#272433"/><line x1="130.646" y1="46.6464" x2="153.646" y2="23.6464" stroke="#272433"/><path d="M0.882 126.168L1.47 123.494H0.336V122.43H1.694L2.17 120.26H0.98V119.196H2.408L3.066 116.228H4.172L3.514 119.196H5.572L6.23 116.228H7.35L6.678 119.196H7.798V120.26H6.468L5.978 122.43H7.168V123.494H5.754L5.166 126.168H4.06L4.648 123.494H2.576L2.002 126.168H0.882ZM2.8 122.43H4.872L5.348 120.26H3.29L2.8 122.43ZM8.76444 126V125.594C8.76444 125.202 8.8391 124.843 8.98844 124.516C9.1471 124.18 9.35244 123.877 9.60444 123.606C9.86577 123.326 10.1598 123.06 10.4864 122.808C10.8131 122.556 11.1444 122.309 11.4804 122.066C11.9378 121.749 12.3578 121.431 12.7404 121.114C13.1324 120.797 13.4451 120.456 13.6784 120.092C13.9118 119.719 14.0284 119.303 14.0284 118.846C14.0284 118.557 13.9584 118.295 13.8184 118.062C13.6878 117.819 13.4871 117.628 13.2164 117.488C12.9458 117.348 12.6004 117.278 12.1804 117.278C11.6858 117.278 11.2891 117.362 10.9904 117.53C10.6918 117.698 10.4724 117.922 10.3324 118.202C10.2018 118.482 10.1364 118.79 10.1364 119.126V119.7H8.91844C8.9091 119.653 8.89977 119.583 8.89044 119.49C8.8811 119.387 8.87644 119.271 8.87644 119.14C8.87644 118.449 9.03044 117.894 9.33844 117.474C9.64644 117.045 10.0571 116.732 10.5704 116.536C11.0838 116.331 11.6391 116.228 12.2364 116.228C12.7684 116.228 13.2258 116.303 13.6084 116.452C13.9911 116.592 14.3084 116.788 14.5604 117.04C14.8124 117.292 14.9991 117.581 15.1204 117.908C15.2418 118.225 15.3024 118.561 15.3024 118.916C15.3024 119.355 15.2231 119.756 15.0644 120.12C14.9151 120.484 14.7004 120.825 14.4204 121.142C14.1498 121.45 13.8278 121.749 13.4544 122.038C13.0904 122.327 12.6938 122.621 12.2644 122.92C11.9658 123.116 11.6718 123.326 11.3824 123.55C11.0931 123.765 10.8458 123.984 10.6404 124.208C10.4351 124.432 10.3044 124.647 10.2484 124.852H15.3584V126H8.76444ZM20.1238 126.168C19.5731 126.168 19.0785 126.089 18.6398 125.93C18.2105 125.771 17.8418 125.515 17.5338 125.16C17.2351 124.805 17.0065 124.329 16.8478 123.732C16.6891 123.125 16.6098 122.374 16.6098 121.478C16.6098 120.489 16.6891 119.663 16.8478 119C17.0065 118.328 17.2305 117.791 17.5198 117.39C17.8185 116.979 18.1825 116.685 18.6118 116.508C19.0505 116.321 19.5451 116.228 20.0958 116.228C20.7865 116.228 21.3418 116.359 21.7618 116.62C22.1911 116.881 22.5038 117.236 22.6998 117.684C22.8958 118.123 22.9938 118.627 22.9938 119.196H21.7338C21.7338 118.767 21.6731 118.407 21.5518 118.118C21.4305 117.829 21.2391 117.614 20.9778 117.474C20.7258 117.334 20.4085 117.264 20.0258 117.264C19.4658 117.264 19.0271 117.413 18.7098 117.712C18.4018 118.001 18.1871 118.426 18.0658 118.986C17.9538 119.546 17.8931 120.213 17.8838 120.988C18.0145 120.773 18.1965 120.577 18.4298 120.4C18.6725 120.223 18.9571 120.083 19.2838 119.98C19.6105 119.868 19.9558 119.812 20.3198 119.812C21.0105 119.812 21.5798 119.952 22.0278 120.232C22.4758 120.503 22.8071 120.876 23.0218 121.352C23.2365 121.828 23.3438 122.36 23.3438 122.948C23.3438 123.592 23.2038 124.157 22.9238 124.642C22.6438 125.127 22.2611 125.505 21.7758 125.776C21.2905 126.037 20.7398 126.168 20.1238 126.168ZM20.0398 125.132C20.4971 125.132 20.8751 125.034 21.1738 124.838C21.4725 124.633 21.6918 124.367 21.8318 124.04C21.9811 123.704 22.0558 123.335 22.0558 122.934C22.0558 122.551 21.9858 122.201 21.8458 121.884C21.7058 121.567 21.4865 121.315 21.1878 121.128C20.8985 120.932 20.5251 120.834 20.0678 120.834C19.6105 120.834 19.2278 120.932 18.9198 121.128C18.6118 121.324 18.3831 121.585 18.2338 121.912C18.0845 122.229 18.0098 122.593 18.0098 123.004C18.0098 123.387 18.0845 123.741 18.2338 124.068C18.3831 124.395 18.6071 124.656 18.9058 124.852C19.2045 125.039 19.5825 125.132 20.0398 125.132ZM24.5652 126V125.594C24.5652 125.202 24.6399 124.843 24.7892 124.516C24.9479 124.18 25.1532 123.877 25.4052 123.606C25.6665 123.326 25.9605 123.06 26.2872 122.808C26.6139 122.556 26.9452 122.309 27.2812 122.066C27.7385 121.749 28.1585 121.431 28.5412 121.114C28.9332 120.797 29.2459 120.456 29.4792 120.092C29.7125 119.719 29.8292 119.303 29.8292 118.846C29.8292 118.557 29.7592 118.295 29.6192 118.062C29.4885 117.819 29.2879 117.628 29.0172 117.488C28.7465 117.348 28.4012 117.278 27.9812 117.278C27.4865 117.278 27.0899 117.362 26.7912 117.53C26.4925 117.698 26.2732 117.922 26.1332 118.202C26.0025 118.482 25.9372 118.79 25.9372 119.126V119.7H24.7192C24.7099 119.653 24.7005 119.583 24.6912 119.49C24.6819 119.387 24.6772 119.271 24.6772 119.14C24.6772 118.449 24.8312 117.894 25.1392 117.474C25.4472 117.045 25.8579 116.732 26.3712 116.536C26.8845 116.331 27.4399 116.228 28.0372 116.228C28.5692 116.228 29.0265 116.303 29.4092 116.452C29.7919 116.592 30.1092 116.788 30.3612 117.04C30.6132 117.292 30.7999 117.581 30.9212 117.908C31.0425 118.225 31.1032 118.561 31.1032 118.916C31.1032 119.355 31.0239 119.756 30.8652 120.12C30.7159 120.484 30.5012 120.825 30.2212 121.142C29.9505 121.45 29.6285 121.749 29.2552 122.038C28.8912 122.327 28.4945 122.621 28.0652 122.92C27.7665 123.116 27.4725 123.326 27.1832 123.55C26.8939 123.765 26.6465 123.984 26.4412 124.208C26.2359 124.432 26.1052 124.647 26.0492 124.852H31.1592V126H24.5652ZM35.7845 126.168C35.1125 126.168 34.5245 126.042 34.0205 125.79C33.5165 125.538 33.1245 125.179 32.8445 124.712C32.5645 124.236 32.4245 123.671 32.4245 123.018H33.6705C33.6705 123.457 33.7639 123.835 33.9505 124.152C34.1372 124.469 34.3892 124.712 34.7065 124.88C35.0332 125.048 35.3925 125.132 35.7845 125.132C36.1859 125.132 36.5405 125.053 36.8485 124.894C37.1565 124.726 37.3945 124.474 37.5625 124.138C37.7399 123.802 37.8285 123.377 37.8285 122.864C37.8285 122.397 37.7492 122.015 37.5905 121.716C37.4319 121.408 37.2032 121.179 36.9045 121.03C36.6152 120.881 36.2792 120.806 35.8965 120.806C35.6165 120.806 35.3505 120.853 35.0985 120.946C34.8465 121.03 34.6179 121.151 34.4125 121.31C34.2165 121.469 34.0532 121.665 33.9225 121.898L32.7605 121.716L33.1665 116.396H38.6125V117.544H34.2445L34.0205 120.54C34.1792 120.4 34.3565 120.274 34.5525 120.162C34.7579 120.041 34.9912 119.947 35.2525 119.882C35.5139 119.807 35.8125 119.77 36.1485 119.77C36.6992 119.77 37.1985 119.877 37.6465 120.092C38.0945 120.307 38.4492 120.638 38.7105 121.086C38.9719 121.534 39.1025 122.113 39.1025 122.822C39.1025 123.522 38.9672 124.124 38.6965 124.628C38.4352 125.132 38.0572 125.515 37.5625 125.776C37.0679 126.037 36.4752 126.168 35.7845 126.168ZM40.3386 126V125.594C40.3386 125.202 40.4133 124.843 40.5626 124.516C40.7213 124.18 40.9266 123.877 41.1786 123.606C41.4399 123.326 41.7339 123.06 42.0606 122.808C42.3873 122.556 42.7186 122.309 43.0546 122.066C43.5119 121.749 43.9319 121.431 44.3146 121.114C44.7066 120.797 45.0193 120.456 45.2526 120.092C45.4859 119.719 45.6026 119.303 45.6026 118.846C45.6026 118.557 45.5326 118.295 45.3926 118.062C45.2619 117.819 45.0613 117.628 44.7906 117.488C44.5199 117.348 44.1746 117.278 43.7546 117.278C43.2599 117.278 42.8633 117.362 42.5646 117.53C42.2659 117.698 42.0466 117.922 41.9066 118.202C41.7759 118.482 41.7106 118.79 41.7106 119.126V119.7H40.4926C40.4833 119.653 40.4739 119.583 40.4646 119.49C40.4553 119.387 40.4506 119.271 40.4506 119.14C40.4506 118.449 40.6046 117.894 40.9126 117.474C41.2206 117.045 41.6313 116.732 42.1446 116.536C42.6579 116.331 43.2133 116.228 43.8106 116.228C44.3426 116.228 44.7999 116.303 45.1826 116.452C45.5653 116.592 45.8826 116.788 46.1346 117.04C46.3866 117.292 46.5733 117.581 46.6946 117.908C46.8159 118.225 46.8766 118.561 46.8766 118.916C46.8766 119.355 46.7973 119.756 46.6386 120.12C46.4893 120.484 46.2746 120.825 45.9946 121.142C45.7239 121.45 45.4019 121.749 45.0286 122.038C44.6646 122.327 44.2679 122.621 43.8386 122.92C43.5399 123.116 43.2459 123.326 42.9566 123.55C42.6673 123.765 42.4199 123.984 42.2146 124.208C42.0093 124.432 41.8786 124.647 41.8226 124.852H46.9326V126H40.3386ZM47.596 126L51.39 116.396H53.14L56.948 126H55.506L54.568 123.62H49.892L48.968 126H47.596ZM50.326 122.486H54.12L52.958 119.476C52.93 119.392 52.888 119.275 52.832 119.126C52.776 118.977 52.7153 118.813 52.65 118.636C52.5846 118.449 52.5193 118.263 52.454 118.076C52.3886 117.88 52.328 117.703 52.272 117.544H52.188C52.1226 117.731 52.048 117.945 51.964 118.188C51.88 118.431 51.796 118.669 51.712 118.902C51.628 119.126 51.558 119.317 51.502 119.476L50.326 122.486Z" fill="#272433"/><line x1="49.3536" y1="81.3536" x2="31.3536" y2="99.3536" stroke="#272433"/><path d="M93.882 126.168L94.47 123.494H93.336V122.43H94.694L95.17 120.26H93.98V119.196H95.408L96.066 116.228H97.172L96.514 119.196H98.572L99.23 116.228H100.35L99.678 119.196H100.798V120.26H99.468L98.978 122.43H100.168V123.494H98.754L98.166 126.168H97.06L97.648 123.494H95.576L95.002 126.168H93.882ZM95.8 122.43H97.872L98.348 120.26H96.29L95.8 122.43ZM102.268 126V116.396H109.072V117.544H103.598V120.624H108.582V121.758H103.598V126H102.268ZM114.411 126V123.648H109.945V122.612C110.337 121.94 110.691 121.263 111.009 120.582C111.335 119.901 111.625 119.201 111.877 118.482C112.138 117.763 112.353 117.012 112.521 116.228H113.837C113.715 116.741 113.566 117.269 113.389 117.81C113.211 118.342 113.015 118.86 112.801 119.364C112.586 119.868 112.371 120.339 112.157 120.778C111.951 121.217 111.755 121.595 111.569 121.912C111.391 122.229 111.247 122.463 111.135 122.612H114.411V119.56C114.467 119.411 114.523 119.257 114.579 119.098C114.644 118.93 114.705 118.762 114.761 118.594C114.817 118.417 114.868 118.253 114.915 118.104C114.961 117.945 114.999 117.796 115.027 117.656H115.643V122.612H116.917V123.648H115.643V126H114.411ZM118.438 126V116.396H125.242V117.544H119.768V120.624H124.752V121.758H119.768V126H118.438ZM129.755 126.168C129.008 126.168 128.378 126.056 127.865 125.832C127.351 125.599 126.964 125.272 126.703 124.852C126.441 124.432 126.311 123.933 126.311 123.354V123.172H127.557V123.354C127.557 123.933 127.739 124.376 128.103 124.684C128.476 124.983 128.989 125.132 129.643 125.132C130.296 125.132 130.823 124.992 131.225 124.712C131.626 124.423 131.827 123.965 131.827 123.34C131.827 122.883 131.719 122.533 131.505 122.29C131.29 122.047 131.01 121.879 130.665 121.786C130.329 121.683 129.969 121.632 129.587 121.632H128.579V120.596H129.629C129.983 120.596 130.31 120.54 130.609 120.428C130.907 120.316 131.145 120.134 131.323 119.882C131.509 119.621 131.603 119.285 131.603 118.874C131.603 118.501 131.519 118.197 131.351 117.964C131.192 117.731 130.973 117.558 130.693 117.446C130.413 117.325 130.105 117.264 129.769 117.264C129.395 117.264 129.059 117.329 128.761 117.46C128.462 117.581 128.224 117.768 128.047 118.02C127.879 118.272 127.795 118.589 127.795 118.972V119.154H126.535V118.902C126.535 118.37 126.67 117.903 126.941 117.502C127.221 117.101 127.599 116.788 128.075 116.564C128.56 116.34 129.115 116.228 129.741 116.228C130.357 116.228 130.898 116.326 131.365 116.522C131.841 116.718 132.214 117.007 132.485 117.39C132.755 117.773 132.891 118.244 132.891 118.804C132.891 119.215 132.816 119.565 132.667 119.854C132.517 120.134 132.321 120.367 132.079 120.554C131.836 120.741 131.575 120.895 131.295 121.016V121.072C131.808 121.221 132.237 121.492 132.583 121.884C132.928 122.276 133.101 122.789 133.101 123.424C133.101 123.993 132.956 124.483 132.667 124.894C132.387 125.305 131.99 125.622 131.477 125.846C130.973 126.061 130.399 126.168 129.755 126.168ZM134.868 126V116.396H142.26V117.544H136.198V120.512H141.644V121.66H136.198V124.852H142.344V126H134.868ZM144.259 126V116.396H151.651V117.544H145.589V120.512H151.035V121.66H145.589V124.852H151.735V126H144.259Z" fill="#272433"/><line x1="142.354" y1="81.3536" x2="124.354" y2="99.3536" stroke="#272433"/><path d="M184.882 126.168L185.47 123.494H184.336V122.43H185.694L186.17 120.26H184.98V119.196H186.408L187.066 116.228H188.172L187.514 119.196H189.572L190.23 116.228H191.35L190.678 119.196H191.798V120.26H190.468L189.978 122.43H191.168V123.494H189.754L189.166 126.168H188.06L188.648 123.494H186.576L186.002 126.168H184.882ZM186.8 122.43H188.872L189.348 120.26H187.29L186.8 122.43ZM192.764 126V125.594C192.764 125.202 192.839 124.843 192.988 124.516C193.147 124.18 193.352 123.877 193.604 123.606C193.866 123.326 194.16 123.06 194.486 122.808C194.813 122.556 195.144 122.309 195.48 122.066C195.938 121.749 196.358 121.431 196.74 121.114C197.132 120.797 197.445 120.456 197.678 120.092C197.912 119.719 198.028 119.303 198.028 118.846C198.028 118.557 197.958 118.295 197.818 118.062C197.688 117.819 197.487 117.628 197.216 117.488C196.946 117.348 196.6 117.278 196.18 117.278C195.686 117.278 195.289 117.362 194.99 117.53C194.692 117.698 194.472 117.922 194.332 118.202C194.202 118.482 194.136 118.79 194.136 119.126V119.7H192.918C192.909 119.653 192.9 119.583 192.89 119.49C192.881 119.387 192.876 119.271 192.876 119.14C192.876 118.449 193.03 117.894 193.338 117.474C193.646 117.045 194.057 116.732 194.57 116.536C195.084 116.331 195.639 116.228 196.236 116.228C196.768 116.228 197.226 116.303 197.608 116.452C197.991 116.592 198.308 116.788 198.56 117.04C198.812 117.292 198.999 117.581 199.12 117.908C199.242 118.225 199.302 118.561 199.302 118.916C199.302 119.355 199.223 119.756 199.064 120.12C198.915 120.484 198.7 120.825 198.42 121.142C198.15 121.45 197.828 121.749 197.454 122.038C197.09 122.327 196.694 122.621 196.264 122.92C195.966 123.116 195.672 123.326 195.382 123.55C195.093 123.765 194.846 123.984 194.64 124.208C194.435 124.432 194.304 124.647 194.248 124.852H199.358V126H192.764ZM204.124 126.168C203.573 126.168 203.078 126.089 202.64 125.93C202.21 125.771 201.842 125.515 201.534 125.16C201.235 124.805 201.006 124.329 200.848 123.732C200.689 123.125 200.61 122.374 200.61 121.478C200.61 120.489 200.689 119.663 200.848 119C201.006 118.328 201.23 117.791 201.52 117.39C201.818 116.979 202.182 116.685 202.612 116.508C203.05 116.321 203.545 116.228 204.096 116.228C204.786 116.228 205.342 116.359 205.762 116.62C206.191 116.881 206.504 117.236 206.7 117.684C206.896 118.123 206.994 118.627 206.994 119.196H205.734C205.734 118.767 205.673 118.407 205.552 118.118C205.43 117.829 205.239 117.614 204.978 117.474C204.726 117.334 204.408 117.264 204.026 117.264C203.466 117.264 203.027 117.413 202.71 117.712C202.402 118.001 202.187 118.426 202.066 118.986C201.954 119.546 201.893 120.213 201.884 120.988C202.014 120.773 202.196 120.577 202.43 120.4C202.672 120.223 202.957 120.083 203.284 119.98C203.61 119.868 203.956 119.812 204.32 119.812C205.01 119.812 205.58 119.952 206.028 120.232C206.476 120.503 206.807 120.876 207.022 121.352C207.236 121.828 207.344 122.36 207.344 122.948C207.344 123.592 207.204 124.157 206.924 124.642C206.644 125.127 206.261 125.505 205.776 125.776C205.29 126.037 204.74 126.168 204.124 126.168ZM204.04 125.132C204.497 125.132 204.875 125.034 205.174 124.838C205.472 124.633 205.692 124.367 205.832 124.04C205.981 123.704 206.056 123.335 206.056 122.934C206.056 122.551 205.986 122.201 205.846 121.884C205.706 121.567 205.486 121.315 205.188 121.128C204.898 120.932 204.525 120.834 204.068 120.834C203.61 120.834 203.228 120.932 202.92 121.128C202.612 121.324 202.383 121.585 202.234 121.912C202.084 122.229 202.01 122.593 202.01 123.004C202.01 123.387 202.084 123.741 202.234 124.068C202.383 124.395 202.607 124.656 202.906 124.852C203.204 125.039 203.582 125.132 204.04 125.132ZM208.565 126V125.594C208.565 125.202 208.64 124.843 208.789 124.516C208.948 124.18 209.153 123.877 209.405 123.606C209.667 123.326 209.961 123.06 210.287 122.808C210.614 122.556 210.945 122.309 211.281 122.066C211.739 121.749 212.159 121.431 212.541 121.114C212.933 120.797 213.246 120.456 213.479 120.092C213.713 119.719 213.829 119.303 213.829 118.846C213.829 118.557 213.759 118.295 213.619 118.062C213.489 117.819 213.288 117.628 213.017 117.488C212.747 117.348 212.401 117.278 211.981 117.278C211.487 117.278 211.09 117.362 210.791 117.53C210.493 117.698 210.273 117.922 210.133 118.202C210.003 118.482 209.937 118.79 209.937 119.126V119.7H208.719C208.71 119.653 208.701 119.583 208.691 119.49C208.682 119.387 208.677 119.271 208.677 119.14C208.677 118.449 208.831 117.894 209.139 117.474C209.447 117.045 209.858 116.732 210.371 116.536C210.885 116.331 211.44 116.228 212.037 116.228C212.569 116.228 213.027 116.303 213.409 116.452C213.792 116.592 214.109 116.788 214.361 117.04C214.613 117.292 214.8 117.581 214.921 117.908C215.043 118.225 215.103 118.561 215.103 118.916C215.103 119.355 215.024 119.756 214.865 120.12C214.716 120.484 214.501 120.825 214.221 121.142C213.951 121.45 213.629 121.749 213.255 122.038C212.891 122.327 212.495 122.621 212.065 122.92C211.767 123.116 211.473 123.326 211.183 123.55C210.894 123.765 210.647 123.984 210.441 124.208C210.236 124.432 210.105 124.647 210.049 124.852H215.159V126H208.565ZM219.785 126.168C219.113 126.168 218.525 126.042 218.021 125.79C217.517 125.538 217.125 125.179 216.845 124.712C216.565 124.236 216.425 123.671 216.425 123.018H217.671C217.671 123.457 217.764 123.835 217.951 124.152C218.137 124.469 218.389 124.712 218.707 124.88C219.033 125.048 219.393 125.132 219.785 125.132C220.186 125.132 220.541 125.053 220.849 124.894C221.157 124.726 221.395 124.474 221.563 124.138C221.74 123.802 221.829 123.377 221.829 122.864C221.829 122.397 221.749 122.015 221.591 121.716C221.432 121.408 221.203 121.179 220.905 121.03C220.615 120.881 220.279 120.806 219.897 120.806C219.617 120.806 219.351 120.853 219.099 120.946C218.847 121.03 218.618 121.151 218.413 121.31C218.217 121.469 218.053 121.665 217.923 121.898L216.761 121.716L217.167 116.396H222.613V117.544H218.245L218.021 120.54C218.179 120.4 218.357 120.274 218.553 120.162C218.758 120.041 218.991 119.947 219.253 119.882C219.514 119.807 219.813 119.77 220.149 119.77C220.699 119.77 221.199 119.877 221.647 120.092C222.095 120.307 222.449 120.638 222.711 121.086C222.972 121.534 223.103 122.113 223.103 122.822C223.103 123.522 222.967 124.124 222.697 124.628C222.435 125.132 222.057 125.515 221.563 125.776C221.068 126.037 220.475 126.168 219.785 126.168ZM224.339 126V125.594C224.339 125.202 224.413 124.843 224.563 124.516C224.721 124.18 224.927 123.877 225.179 123.606C225.44 123.326 225.734 123.06 226.061 122.808C226.387 122.556 226.719 122.309 227.055 122.066C227.512 121.749 227.932 121.431 228.315 121.114C228.707 120.797 229.019 120.456 229.253 120.092C229.486 119.719 229.603 119.303 229.603 118.846C229.603 118.557 229.533 118.295 229.393 118.062C229.262 117.819 229.061 117.628 228.791 117.488C228.52 117.348 228.175 117.278 227.755 117.278C227.26 117.278 226.863 117.362 226.565 117.53C226.266 117.698 226.047 117.922 225.907 118.202C225.776 118.482 225.711 118.79 225.711 119.126V119.7H224.493C224.483 119.653 224.474 119.583 224.465 119.49C224.455 119.387 224.451 119.271 224.451 119.14C224.451 118.449 224.605 117.894 224.913 117.474C225.221 117.045 225.631 116.732 226.145 116.536C226.658 116.331 227.213 116.228 227.811 116.228C228.343 116.228 228.8 116.303 229.183 116.452C229.565 116.592 229.883 116.788 230.135 117.04C230.387 117.292 230.573 117.581 230.695 117.908C230.816 118.225 230.877 118.561 230.877 118.916C230.877 119.355 230.797 119.756 230.639 120.12C230.489 120.484 230.275 120.825 229.995 121.142C229.724 121.45 229.402 121.749 229.029 122.038C228.665 122.327 228.268 122.621 227.839 122.92C227.54 123.116 227.246 123.326 226.957 123.55C226.667 123.765 226.42 123.984 226.215 124.208C226.009 124.432 225.879 124.647 225.823 124.852H230.933V126H224.339ZM231.596 126L235.39 116.396H237.14L240.948 126H239.506L238.568 123.62H233.892L232.968 126H231.596ZM234.326 122.486H238.12L236.958 119.476C236.93 119.392 236.888 119.275 236.832 119.126C236.776 118.977 236.715 118.813 236.65 118.636C236.585 118.449 236.519 118.263 236.454 118.076C236.389 117.88 236.328 117.703 236.272 117.544H236.188C236.123 117.731 236.048 117.945 235.964 118.188C235.88 118.431 235.796 118.669 235.712 118.902C235.628 119.126 235.558 119.317 235.502 119.476L234.326 122.486Z" fill="#272433"/><line x1="233.354" y1="81.3536" x2="215.354" y2="99.3536" stroke="#272433"/></svg>