<svg width="133" height="120" viewBox="0 0 133 120" fill="none" xmlns="http://www.w3.org/2000/svg"><rect width="57" height="24" rx="12" fill="#EBEAE1"/><path d="M18.9972 13.9973C19.1632 14.1633 19.1887 14.4268 19.0357 14.6049C18.3021 15.459 17.2142 16.0001 16 16.0001C14.7857 16.0001 13.6978 15.459 12.9642 14.6049C12.8113 14.4268 12.8367 14.1633 13.0028 13.9973C13.2246 13.7755 13.5959 13.822 13.8105 14.051C14.3578 14.6351 15.1363 15.0001 16 15.0001C16.8637 15.0001 17.6421 14.6351 18.1895 14.051C18.404 13.822 18.7754 13.7755 18.9972 13.9973Z" fill="#26252A"/><path d="M14.5 10.5C14.5 11.0523 14.0523 11.5 13.5 11.5C12.9477 11.5 12.5 11.0523 12.5 10.5C12.5 9.94772 12.9477 9.5 13.5 9.5C14.0523 9.5 14.5 9.94772 14.5 10.5Z" fill="#26252A"/><path d="M18.5 11.5C19.0523 11.5 19.5 11.0523 19.5 10.5C19.5 9.94772 19.0523 9.5 18.5 9.5C17.9477 9.5 17.5 9.94772 17.5 10.5C17.5 11.0523 17.9477 11.5 18.5 11.5Z" fill="#26252A"/><path fill-rule="evenodd" clip-rule="evenodd" d="M23 12C23 15.866 19.866 19 16 19C12.134 19 9 15.866 9 12C9 8.13401 12.134 5 16 5C19.866 5 23 8.13401 23 12ZM22 12C22 15.3137 19.3137 18 16 18C12.6863 18 10 15.3137 10 12C10 8.68629 12.6863 6 16 6C19.3137 6 22 8.68629 22 12Z" fill="#26252A"/><path d="M28.5795 8.21023V7.27273H35.125V8.21023H32.3807V16H31.3239V8.21023H28.5795ZM37.6552 16.1534C37.2404 16.1534 36.864 16.0753 36.5259 15.919C36.1879 15.7599 35.9194 15.5312 35.7205 15.233C35.5217 14.9318 35.4222 14.5682 35.4222 14.142C35.4222 13.767 35.4961 13.4631 35.6438 13.2301C35.7915 12.9943 35.989 12.8097 36.2362 12.6761C36.4833 12.5426 36.756 12.4432 37.0543 12.3778C37.3555 12.3097 37.658 12.2557 37.962 12.2159C38.3597 12.1648 38.6822 12.1264 38.9293 12.1009C39.1793 12.0724 39.3612 12.0256 39.4748 11.9602C39.5913 11.8949 39.6495 11.7812 39.6495 11.6193V11.5852C39.6495 11.1648 39.5344 10.8381 39.3043 10.6051C39.0771 10.3722 38.7319 10.2557 38.2688 10.2557C37.7887 10.2557 37.4123 10.3608 37.1396 10.571C36.8668 10.7812 36.6751 11.0057 36.5643 11.2443L35.6097 10.9034C35.7802 10.5057 36.0075 10.196 36.2915 9.97443C36.5785 9.75 36.891 9.59375 37.229 9.50568C37.57 9.41477 37.9052 9.36932 38.2347 9.36932C38.445 9.36932 38.6864 9.39489 38.9592 9.44602C39.2347 9.49432 39.5004 9.59517 39.756 9.74858C40.0146 9.90199 40.229 10.1335 40.3995 10.4432C40.57 10.7528 40.6552 11.1676 40.6552 11.6875V16H39.6495V15.1136H39.5984C39.5302 15.2557 39.4165 15.4077 39.2575 15.5696C39.0984 15.7315 38.8867 15.8693 38.6225 15.983C38.3583 16.0966 38.0359 16.1534 37.6552 16.1534ZM37.8086 15.25C38.2063 15.25 38.5415 15.1719 38.8143 15.0156C39.0898 14.8594 39.2972 14.6577 39.4364 14.4105C39.5785 14.1634 39.6495 13.9034 39.6495 13.6307V12.7102C39.6069 12.7614 39.5131 12.8082 39.3683 12.8509C39.2262 12.8906 39.0614 12.9261 38.8739 12.9574C38.6893 12.9858 38.5089 13.0114 38.3327 13.0341C38.1594 13.054 38.0188 13.071 37.9109 13.0852C37.6495 13.1193 37.4052 13.1747 37.1779 13.2514C36.9535 13.3253 36.7717 13.4375 36.6325 13.5881C36.4961 13.7358 36.4279 13.9375 36.4279 14.1932C36.4279 14.5426 36.5572 14.8068 36.8157 14.9858C37.0771 15.1619 37.408 15.25 37.8086 15.25ZM45.1328 18.5909C44.647 18.5909 44.2294 18.5284 43.88 18.4034C43.5305 18.2812 43.2393 18.1193 43.0064 17.9176C42.7763 17.7188 42.593 17.5057 42.4567 17.2784L43.2578 16.7159C43.3487 16.8352 43.4638 16.9716 43.603 17.125C43.7422 17.2812 43.9325 17.4162 44.174 17.5298C44.4183 17.6463 44.7379 17.7045 45.1328 17.7045C45.6612 17.7045 46.0973 17.5767 46.4411 17.321C46.7848 17.0653 46.9567 16.6648 46.9567 16.1193V14.7898H46.8714C46.7976 14.9091 46.6925 15.0568 46.5561 15.233C46.4226 15.4062 46.2294 15.5611 45.9766 15.6974C45.7266 15.831 45.3885 15.8977 44.9624 15.8977C44.4339 15.8977 43.9595 15.7727 43.5391 15.5227C43.1214 15.2727 42.7905 14.9091 42.5462 14.4318C42.3047 13.9545 42.1839 13.375 42.1839 12.6932C42.1839 12.0227 42.3018 11.4389 42.5376 10.9418C42.7734 10.4418 43.1016 10.0554 43.522 9.78267C43.9425 9.5071 44.4283 9.36932 44.9794 9.36932C45.4055 9.36932 45.7436 9.44034 45.9936 9.58239C46.2464 9.72159 46.4396 9.88068 46.5732 10.0597C46.7095 10.2358 46.8146 10.3807 46.8885 10.4943H46.9908V9.45455H47.9624V16.1875C47.9624 16.75 47.8345 17.2074 47.5788 17.5597C47.326 17.9148 46.9851 18.1747 46.5561 18.3395C46.13 18.5071 45.6555 18.5909 45.1328 18.5909ZM45.0987 14.9943C45.5021 14.9943 45.843 14.902 46.1214 14.7173C46.3999 14.5327 46.6115 14.267 46.7564 13.9205C46.9013 13.5739 46.9737 13.1591 46.9737 12.6761C46.9737 12.2045 46.9027 11.7884 46.7607 11.4276C46.6186 11.0668 46.4084 10.7841 46.13 10.5795C45.8516 10.375 45.5078 10.2727 45.0987 10.2727C44.6726 10.2727 44.3175 10.3807 44.0334 10.5966C43.7521 10.8125 43.5405 11.1023 43.3984 11.4659C43.2592 11.8295 43.1896 12.233 43.1896 12.6761C43.1896 13.1307 43.2607 13.5327 43.4027 13.8821C43.5476 14.2287 43.7607 14.5014 44.0419 14.7003C44.326 14.8963 44.6783 14.9943 45.0987 14.9943Z" fill="#26252A"/><rect x="76" width="57" height="24" rx="12" fill="#CCDDF9"/><path d="M94.9972 13.9973C95.1632 14.1633 95.1887 14.4268 95.0357 14.6049C94.3021 15.459 93.2142 16.0001 92 16.0001C90.7857 16.0001 89.6978 15.459 88.9642 14.6049C88.8113 14.4268 88.8367 14.1633 89.0028 13.9973C89.2246 13.7755 89.5959 13.822 89.8105 14.051C90.3578 14.6351 91.1363 15.0001 92 15.0001C92.8637 15.0001 93.6421 14.6351 94.1895 14.051C94.404 13.822 94.7754 13.7755 94.9972 13.9973Z" fill="#26252A"/><path d="M90.5 10.5C90.5 11.0523 90.0523 11.5 89.5 11.5C88.9477 11.5 88.5 11.0523 88.5 10.5C88.5 9.94772 88.9477 9.5 89.5 9.5C90.0523 9.5 90.5 9.94772 90.5 10.5Z" fill="#26252A"/><path d="M94.5 11.5C95.0523 11.5 95.5 11.0523 95.5 10.5C95.5 9.94772 95.0523 9.5 94.5 9.5C93.9477 9.5 93.5 9.94772 93.5 10.5C93.5 11.0523 93.9477 11.5 94.5 11.5Z" fill="#26252A"/><path fill-rule="evenodd" clip-rule="evenodd" d="M99 12C99 15.866 95.866 19 92 19C88.134 19 85 15.866 85 12C85 8.13401 88.134 5 92 5C95.866 5 99 8.13401 99 12ZM98 12C98 15.3137 95.3137 18 92 18C88.6863 18 86 15.3137 86 12C86 8.68629 88.6863 6 92 6C95.3137 6 98 8.68629 98 12Z" fill="#26252A"/><path d="M104.58 8.21023V7.27273H111.125V8.21023H108.381V16H107.324V8.21023H104.58ZM113.655 16.1534C113.24 16.1534 112.864 16.0753 112.526 15.919C112.188 15.7599 111.919 15.5312 111.721 15.233C111.522 14.9318 111.422 14.5682 111.422 14.142C111.422 13.767 111.496 13.4631 111.644 13.2301C111.792 12.9943 111.989 12.8097 112.236 12.6761C112.483 12.5426 112.756 12.4432 113.054 12.3778C113.355 12.3097 113.658 12.2557 113.962 12.2159C114.36 12.1648 114.682 12.1264 114.929 12.1009C115.179 12.0724 115.361 12.0256 115.475 11.9602C115.591 11.8949 115.65 11.7812 115.65 11.6193V11.5852C115.65 11.1648 115.534 10.8381 115.304 10.6051C115.077 10.3722 114.732 10.2557 114.269 10.2557C113.789 10.2557 113.412 10.3608 113.14 10.571C112.867 10.7812 112.675 11.0057 112.564 11.2443L111.61 10.9034C111.78 10.5057 112.007 10.196 112.292 9.97443C112.578 9.75 112.891 9.59375 113.229 9.50568C113.57 9.41477 113.905 9.36932 114.235 9.36932C114.445 9.36932 114.686 9.39489 114.959 9.44602C115.235 9.49432 115.5 9.59517 115.756 9.74858C116.015 9.90199 116.229 10.1335 116.4 10.4432C116.57 10.7528 116.655 11.1676 116.655 11.6875V16H115.65V15.1136H115.598C115.53 15.2557 115.417 15.4077 115.257 15.5696C115.098 15.7315 114.887 15.8693 114.623 15.983C114.358 16.0966 114.036 16.1534 113.655 16.1534ZM113.809 15.25C114.206 15.25 114.542 15.1719 114.814 15.0156C115.09 14.8594 115.297 14.6577 115.436 14.4105C115.578 14.1634 115.65 13.9034 115.65 13.6307V12.7102C115.607 12.7614 115.513 12.8082 115.368 12.8509C115.226 12.8906 115.061 12.9261 114.874 12.9574C114.689 12.9858 114.509 13.0114 114.333 13.0341C114.159 13.054 114.019 13.071 113.911 13.0852C113.65 13.1193 113.405 13.1747 113.178 13.2514C112.953 13.3253 112.772 13.4375 112.632 13.5881C112.496 13.7358 112.428 13.9375 112.428 14.1932C112.428 14.5426 112.557 14.8068 112.816 14.9858C113.077 15.1619 113.408 15.25 113.809 15.25ZM121.133 18.5909C120.647 18.5909 120.229 18.5284 119.88 18.4034C119.531 18.2812 119.239 18.1193 119.006 17.9176C118.776 17.7188 118.593 17.5057 118.457 17.2784L119.258 16.7159C119.349 16.8352 119.464 16.9716 119.603 17.125C119.742 17.2812 119.933 17.4162 120.174 17.5298C120.418 17.6463 120.738 17.7045 121.133 17.7045C121.661 17.7045 122.097 17.5767 122.441 17.321C122.785 17.0653 122.957 16.6648 122.957 16.1193V14.7898H122.871C122.798 14.9091 122.692 15.0568 122.556 15.233C122.423 15.4062 122.229 15.5611 121.977 15.6974C121.727 15.831 121.388 15.8977 120.962 15.8977C120.434 15.8977 119.96 15.7727 119.539 15.5227C119.121 15.2727 118.79 14.9091 118.546 14.4318C118.305 13.9545 118.184 13.375 118.184 12.6932C118.184 12.0227 118.302 11.4389 118.538 10.9418C118.773 10.4418 119.102 10.0554 119.522 9.78267C119.942 9.5071 120.428 9.36932 120.979 9.36932C121.406 9.36932 121.744 9.44034 121.994 9.58239C122.246 9.72159 122.44 9.88068 122.573 10.0597C122.71 10.2358 122.815 10.3807 122.888 10.4943H122.991V9.45455H123.962V16.1875C123.962 16.75 123.835 17.2074 123.579 17.5597C123.326 17.9148 122.985 18.1747 122.556 18.3395C122.13 18.5071 121.656 18.5909 121.133 18.5909ZM121.099 14.9943C121.502 14.9943 121.843 14.902 122.121 14.7173C122.4 14.5327 122.612 14.267 122.756 13.9205C122.901 13.5739 122.974 13.1591 122.974 12.6761C122.974 12.2045 122.903 11.7884 122.761 11.4276C122.619 11.0668 122.408 10.7841 122.13 10.5795C121.852 10.375 121.508 10.2727 121.099 10.2727C120.673 10.2727 120.317 10.3807 120.033 10.5966C119.752 10.8125 119.54 11.1023 119.398 11.4659C119.259 11.8295 119.19 12.233 119.19 12.6761C119.19 13.1307 119.261 13.5327 119.403 13.8821C119.548 14.2287 119.761 14.5014 120.042 14.7003C120.326 14.8963 120.678 14.9943 121.099 14.9943Z" fill="#26252A"/><rect y="48" width="57" height="24" rx="12" fill="#6C6862"/><path d="M18.9972 61.9973C19.1632 62.1633 19.1887 62.4268 19.0357 62.6049C18.3021 63.459 17.2142 64.0001 16 64.0001C14.7857 64.0001 13.6978 63.459 12.9642 62.6049C12.8113 62.4268 12.8367 62.1633 13.0028 61.9973C13.2246 61.7755 13.5959 61.822 13.8105 62.051C14.3578 62.6351 15.1363 63.0001 16 63.0001C16.8637 63.0001 17.6421 62.6351 18.1895 62.051C18.404 61.822 18.7754 61.7755 18.9972 61.9973Z" fill="white"/><path d="M14.5 58.5C14.5 59.0523 14.0523 59.5 13.5 59.5C12.9477 59.5 12.5 59.0523 12.5 58.5C12.5 57.9477 12.9477 57.5 13.5 57.5C14.0523 57.5 14.5 57.9477 14.5 58.5Z" fill="white"/><path d="M18.5 59.5C19.0523 59.5 19.5 59.0523 19.5 58.5C19.5 57.9477 19.0523 57.5 18.5 57.5C17.9477 57.5 17.5 57.9477 17.5 58.5C17.5 59.0523 17.9477 59.5 18.5 59.5Z" fill="white"/><path fill-rule="evenodd" clip-rule="evenodd" d="M23 60C23 63.866 19.866 67 16 67C12.134 67 9 63.866 9 60C9 56.134 12.134 53 16 53C19.866 53 23 56.134 23 60ZM22 60C22 63.3137 19.3137 66 16 66C12.6863 66 10 63.3137 10 60C10 56.6863 12.6863 54 16 54C19.3137 54 22 56.6863 22 60Z" fill="white"/><path d="M28.5795 56.2102V55.2727H35.125V56.2102H32.3807V64H31.3239V56.2102H28.5795ZM37.6552 64.1534C37.2404 64.1534 36.864 64.0753 36.5259 63.919C36.1879 63.7599 35.9194 63.5312 35.7205 63.233C35.5217 62.9318 35.4222 62.5682 35.4222 62.142C35.4222 61.767 35.4961 61.4631 35.6438 61.2301C35.7915 60.9943 35.989 60.8097 36.2362 60.6761C36.4833 60.5426 36.756 60.4432 37.0543 60.3778C37.3555 60.3097 37.658 60.2557 37.962 60.2159C38.3597 60.1648 38.6822 60.1264 38.9293 60.1009C39.1793 60.0724 39.3612 60.0256 39.4748 59.9602C39.5913 59.8949 39.6495 59.7812 39.6495 59.6193V59.5852C39.6495 59.1648 39.5344 58.8381 39.3043 58.6051C39.0771 58.3722 38.7319 58.2557 38.2688 58.2557C37.7887 58.2557 37.4123 58.3608 37.1396 58.571C36.8668 58.7812 36.6751 59.0057 36.5643 59.2443L35.6097 58.9034C35.7802 58.5057 36.0075 58.196 36.2915 57.9744C36.5785 57.75 36.891 57.5937 37.229 57.5057C37.57 57.4148 37.9052 57.3693 38.2347 57.3693C38.445 57.3693 38.6864 57.3949 38.9592 57.446C39.2347 57.4943 39.5004 57.5952 39.756 57.7486C40.0146 57.902 40.229 58.1335 40.3995 58.4432C40.57 58.7528 40.6552 59.1676 40.6552 59.6875V64H39.6495V63.1136H39.5984C39.5302 63.2557 39.4165 63.4077 39.2575 63.5696C39.0984 63.7315 38.8867 63.8693 38.6225 63.983C38.3583 64.0966 38.0359 64.1534 37.6552 64.1534ZM37.8086 63.25C38.2063 63.25 38.5415 63.1719 38.8143 63.0156C39.0898 62.8594 39.2972 62.6577 39.4364 62.4105C39.5785 62.1634 39.6495 61.9034 39.6495 61.6307V60.7102C39.6069 60.7614 39.5131 60.8082 39.3683 60.8509C39.2262 60.8906 39.0614 60.9261 38.8739 60.9574C38.6893 60.9858 38.5089 61.0114 38.3327 61.0341C38.1594 61.054 38.0188 61.071 37.9109 61.0852C37.6495 61.1193 37.4052 61.1747 37.1779 61.2514C36.9535 61.3253 36.7717 61.4375 36.6325 61.5881C36.4961 61.7358 36.4279 61.9375 36.4279 62.1932C36.4279 62.5426 36.5572 62.8068 36.8157 62.9858C37.0771 63.1619 37.408 63.25 37.8086 63.25ZM45.1328 66.5909C44.647 66.5909 44.2294 66.5284 43.88 66.4034C43.5305 66.2812 43.2393 66.1193 43.0064 65.9176C42.7763 65.7188 42.593 65.5057 42.4567 65.2784L43.2578 64.7159C43.3487 64.8352 43.4638 64.9716 43.603 65.125C43.7422 65.2812 43.9325 65.4162 44.174 65.5298C44.4183 65.6463 44.7379 65.7045 45.1328 65.7045C45.6612 65.7045 46.0973 65.5767 46.4411 65.321C46.7848 65.0653 46.9567 64.6648 46.9567 64.1193V62.7898H46.8714C46.7976 62.9091 46.6925 63.0568 46.5561 63.233C46.4226 63.4062 46.2294 63.5611 45.9766 63.6974C45.7266 63.831 45.3885 63.8977 44.9624 63.8977C44.4339 63.8977 43.9595 63.7727 43.5391 63.5227C43.1214 63.2727 42.7905 62.9091 42.5462 62.4318C42.3047 61.9545 42.1839 61.375 42.1839 60.6932C42.1839 60.0227 42.3018 59.4389 42.5376 58.9418C42.7734 58.4418 43.1016 58.0554 43.522 57.7827C43.9425 57.5071 44.4283 57.3693 44.9794 57.3693C45.4055 57.3693 45.7436 57.4403 45.9936 57.5824C46.2464 57.7216 46.4396 57.8807 46.5732 58.0597C46.7095 58.2358 46.8146 58.3807 46.8885 58.4943H46.9908V57.4545H47.9624V64.1875C47.9624 64.75 47.8345 65.2074 47.5788 65.5597C47.326 65.9148 46.9851 66.1747 46.5561 66.3395C46.13 66.5071 45.6555 66.5909 45.1328 66.5909ZM45.0987 62.9943C45.5021 62.9943 45.843 62.902 46.1214 62.7173C46.3999 62.5327 46.6115 62.267 46.7564 61.9205C46.9013 61.5739 46.9737 61.1591 46.9737 60.6761C46.9737 60.2045 46.9027 59.7884 46.7607 59.4276C46.6186 59.0668 46.4084 58.7841 46.13 58.5795C45.8516 58.375 45.5078 58.2727 45.0987 58.2727C44.6726 58.2727 44.3175 58.3807 44.0334 58.5966C43.7521 58.8125 43.5405 59.1023 43.3984 59.4659C43.2592 59.8295 43.1896 60.233 43.1896 60.6761C43.1896 61.1307 43.2607 61.5327 43.4027 61.8821C43.5476 62.2287 43.7607 62.5014 44.0419 62.7003C44.326 62.8963 44.6783 62.9943 45.0987 62.9943Z" fill="white"/><rect x="76" y="48" width="57" height="24" rx="12" fill="#F8AE1A"/><path d="M94.9972 61.9973C95.1632 62.1633 95.1887 62.4268 95.0357 62.6049C94.3021 63.459 93.2142 64.0001 92 64.0001C90.7857 64.0001 89.6978 63.459 88.9642 62.6049C88.8113 62.4268 88.8367 62.1633 89.0028 61.9973C89.2246 61.7755 89.5959 61.822 89.8105 62.051C90.3578 62.6351 91.1363 63.0001 92 63.0001C92.8637 63.0001 93.6421 62.6351 94.1895 62.051C94.404 61.822 94.7754 61.7755 94.9972 61.9973Z" fill="#26252A"/><path d="M90.5 58.5C90.5 59.0523 90.0523 59.5 89.5 59.5C88.9477 59.5 88.5 59.0523 88.5 58.5C88.5 57.9477 88.9477 57.5 89.5 57.5C90.0523 57.5 90.5 57.9477 90.5 58.5Z" fill="#26252A"/><path d="M94.5 59.5C95.0523 59.5 95.5 59.0523 95.5 58.5C95.5 57.9477 95.0523 57.5 94.5 57.5C93.9477 57.5 93.5 57.9477 93.5 58.5C93.5 59.0523 93.9477 59.5 94.5 59.5Z" fill="#26252A"/><path fill-rule="evenodd" clip-rule="evenodd" d="M99 60C99 63.866 95.866 67 92 67C88.134 67 85 63.866 85 60C85 56.134 88.134 53 92 53C95.866 53 99 56.134 99 60ZM98 60C98 63.3137 95.3137 66 92 66C88.6863 66 86 63.3137 86 60C86 56.6863 88.6863 54 92 54C95.3137 54 98 56.6863 98 60Z" fill="#26252A"/><path d="M104.58 56.2102V55.2727H111.125V56.2102H108.381V64H107.324V56.2102H104.58ZM113.655 64.1534C113.24 64.1534 112.864 64.0753 112.526 63.919C112.188 63.7599 111.919 63.5312 111.721 63.233C111.522 62.9318 111.422 62.5682 111.422 62.142C111.422 61.767 111.496 61.4631 111.644 61.2301C111.792 60.9943 111.989 60.8097 112.236 60.6761C112.483 60.5426 112.756 60.4432 113.054 60.3778C113.355 60.3097 113.658 60.2557 113.962 60.2159C114.36 60.1648 114.682 60.1264 114.929 60.1009C115.179 60.0724 115.361 60.0256 115.475 59.9602C115.591 59.8949 115.65 59.7812 115.65 59.6193V59.5852C115.65 59.1648 115.534 58.8381 115.304 58.6051C115.077 58.3722 114.732 58.2557 114.269 58.2557C113.789 58.2557 113.412 58.3608 113.14 58.571C112.867 58.7812 112.675 59.0057 112.564 59.2443L111.61 58.9034C111.78 58.5057 112.007 58.196 112.292 57.9744C112.578 57.75 112.891 57.5937 113.229 57.5057C113.57 57.4148 113.905 57.3693 114.235 57.3693C114.445 57.3693 114.686 57.3949 114.959 57.446C115.235 57.4943 115.5 57.5952 115.756 57.7486C116.015 57.902 116.229 58.1335 116.4 58.4432C116.57 58.7528 116.655 59.1676 116.655 59.6875V64H115.65V63.1136H115.598C115.53 63.2557 115.417 63.4077 115.257 63.5696C115.098 63.7315 114.887 63.8693 114.623 63.983C114.358 64.0966 114.036 64.1534 113.655 64.1534ZM113.809 63.25C114.206 63.25 114.542 63.1719 114.814 63.0156C115.09 62.8594 115.297 62.6577 115.436 62.4105C115.578 62.1634 115.65 61.9034 115.65 61.6307V60.7102C115.607 60.7614 115.513 60.8082 115.368 60.8509C115.226 60.8906 115.061 60.9261 114.874 60.9574C114.689 60.9858 114.509 61.0114 114.333 61.0341C114.159 61.054 114.019 61.071 113.911 61.0852C113.65 61.1193 113.405 61.1747 113.178 61.2514C112.953 61.3253 112.772 61.4375 112.632 61.5881C112.496 61.7358 112.428 61.9375 112.428 62.1932C112.428 62.5426 112.557 62.8068 112.816 62.9858C113.077 63.1619 113.408 63.25 113.809 63.25ZM121.133 66.5909C120.647 66.5909 120.229 66.5284 119.88 66.4034C119.531 66.2812 119.239 66.1193 119.006 65.9176C118.776 65.7188 118.593 65.5057 118.457 65.2784L119.258 64.7159C119.349 64.8352 119.464 64.9716 119.603 65.125C119.742 65.2812 119.933 65.4162 120.174 65.5298C120.418 65.6463 120.738 65.7045 121.133 65.7045C121.661 65.7045 122.097 65.5767 122.441 65.321C122.785 65.0653 122.957 64.6648 122.957 64.1193V62.7898H122.871C122.798 62.9091 122.692 63.0568 122.556 63.233C122.423 63.4062 122.229 63.5611 121.977 63.6974C121.727 63.831 121.388 63.8977 120.962 63.8977C120.434 63.8977 119.96 63.7727 119.539 63.5227C119.121 63.2727 118.79 62.9091 118.546 62.4318C118.305 61.9545 118.184 61.375 118.184 60.6932C118.184 60.0227 118.302 59.4389 118.538 58.9418C118.773 58.4418 119.102 58.0554 119.522 57.7827C119.942 57.5071 120.428 57.3693 120.979 57.3693C121.406 57.3693 121.744 57.4403 121.994 57.5824C122.246 57.7216 122.44 57.8807 122.573 58.0597C122.71 58.2358 122.815 58.3807 122.888 58.4943H122.991V57.4545H123.962V64.1875C123.962 64.75 123.835 65.2074 123.579 65.5597C123.326 65.9148 122.985 66.1747 122.556 66.3395C122.13 66.5071 121.656 66.5909 121.133 66.5909ZM121.099 62.9943C121.502 62.9943 121.843 62.902 122.121 62.7173C122.4 62.5327 122.612 62.267 122.756 61.9205C122.901 61.5739 122.974 61.1591 122.974 60.6761C122.974 60.2045 122.903 59.7884 122.761 59.4276C122.619 59.0668 122.408 58.7841 122.13 58.5795C121.852 58.375 121.508 58.2727 121.099 58.2727C120.673 58.2727 120.317 58.3807 120.033 58.5966C119.752 58.8125 119.54 59.1023 119.398 59.4659C119.259 59.8295 119.19 60.233 119.19 60.6761C119.19 61.1307 119.261 61.5327 119.403 61.8821C119.548 62.2287 119.761 62.5014 120.042 62.7003C120.326 62.8963 120.678 62.9943 121.099 62.9943Z" fill="#26252A"/><rect y="96" width="57" height="24" rx="12" fill="#F5D3D6"/><path d="M18.9972 109.997C19.1632 110.163 19.1887 110.427 19.0357 110.605C18.3021 111.459 17.2142 112 16 112C14.7857 112 13.6978 111.459 12.9642 110.605C12.8113 110.427 12.8367 110.163 13.0028 109.997C13.2246 109.775 13.5959 109.822 13.8105 110.051C14.3578 110.635 15.1363 111 16 111C16.8637 111 17.6421 110.635 18.1895 110.051C18.404 109.822 18.7754 109.775 18.9972 109.997Z" fill="#26252A"/><path d="M14.5 106.5C14.5 107.052 14.0523 107.5 13.5 107.5C12.9477 107.5 12.5 107.052 12.5 106.5C12.5 105.948 12.9477 105.5 13.5 105.5C14.0523 105.5 14.5 105.948 14.5 106.5Z" fill="#26252A"/><path d="M18.5 107.5C19.0523 107.5 19.5 107.052 19.5 106.5C19.5 105.948 19.0523 105.5 18.5 105.5C17.9477 105.5 17.5 105.948 17.5 106.5C17.5 107.052 17.9477 107.5 18.5 107.5Z" fill="#26252A"/><path fill-rule="evenodd" clip-rule="evenodd" d="M23 108C23 111.866 19.866 115 16 115C12.134 115 9 111.866 9 108C9 104.134 12.134 101 16 101C19.866 101 23 104.134 23 108ZM22 108C22 111.314 19.3137 114 16 114C12.6863 114 10 111.314 10 108C10 104.686 12.6863 102 16 102C19.3137 102 22 104.686 22 108Z" fill="#26252A"/><path d="M28.5795 104.21V103.273H35.125V104.21H32.3807V112H31.3239V104.21H28.5795ZM37.6552 112.153C37.2404 112.153 36.864 112.075 36.5259 111.919C36.1879 111.76 35.9194 111.531 35.7205 111.233C35.5217 110.932 35.4222 110.568 35.4222 110.142C35.4222 109.767 35.4961 109.463 35.6438 109.23C35.7915 108.994 35.989 108.81 36.2362 108.676C36.4833 108.543 36.756 108.443 37.0543 108.378C37.3555 108.31 37.658 108.256 37.962 108.216C38.3597 108.165 38.6822 108.126 38.9293 108.101C39.1793 108.072 39.3612 108.026 39.4748 107.96C39.5913 107.895 39.6495 107.781 39.6495 107.619V107.585C39.6495 107.165 39.5344 106.838 39.3043 106.605C39.0771 106.372 38.7319 106.256 38.2688 106.256C37.7887 106.256 37.4123 106.361 37.1396 106.571C36.8668 106.781 36.6751 107.006 36.5643 107.244L35.6097 106.903C35.7802 106.506 36.0075 106.196 36.2915 105.974C36.5785 105.75 36.891 105.594 37.229 105.506C37.57 105.415 37.9052 105.369 38.2347 105.369C38.445 105.369 38.6864 105.395 38.9592 105.446C39.2347 105.494 39.5004 105.595 39.756 105.749C40.0146 105.902 40.229 106.134 40.3995 106.443C40.57 106.753 40.6552 107.168 40.6552 107.688V112H39.6495V111.114H39.5984C39.5302 111.256 39.4165 111.408 39.2575 111.57C39.0984 111.732 38.8867 111.869 38.6225 111.983C38.3583 112.097 38.0359 112.153 37.6552 112.153ZM37.8086 111.25C38.2063 111.25 38.5415 111.172 38.8143 111.016C39.0898 110.859 39.2972 110.658 39.4364 110.411C39.5785 110.163 39.6495 109.903 39.6495 109.631V108.71C39.6069 108.761 39.5131 108.808 39.3683 108.851C39.2262 108.891 39.0614 108.926 38.8739 108.957C38.6893 108.986 38.5089 109.011 38.3327 109.034C38.1594 109.054 38.0188 109.071 37.9109 109.085C37.6495 109.119 37.4052 109.175 37.1779 109.251C36.9535 109.325 36.7717 109.437 36.6325 109.588C36.4961 109.736 36.4279 109.937 36.4279 110.193C36.4279 110.543 36.5572 110.807 36.8157 110.986C37.0771 111.162 37.408 111.25 37.8086 111.25ZM45.1328 114.591C44.647 114.591 44.2294 114.528 43.88 114.403C43.5305 114.281 43.2393 114.119 43.0064 113.918C42.7763 113.719 42.593 113.506 42.4567 113.278L43.2578 112.716C43.3487 112.835 43.4638 112.972 43.603 113.125C43.7422 113.281 43.9325 113.416 44.174 113.53C44.4183 113.646 44.7379 113.705 45.1328 113.705C45.6612 113.705 46.0973 113.577 46.4411 113.321C46.7848 113.065 46.9567 112.665 46.9567 112.119V110.79H46.8714C46.7976 110.909 46.6925 111.057 46.5561 111.233C46.4226 111.406 46.2294 111.561 45.9766 111.697C45.7266 111.831 45.3885 111.898 44.9624 111.898C44.4339 111.898 43.9595 111.773 43.5391 111.523C43.1214 111.273 42.7905 110.909 42.5462 110.432C42.3047 109.955 42.1839 109.375 42.1839 108.693C42.1839 108.023 42.3018 107.439 42.5376 106.942C42.7734 106.442 43.1016 106.055 43.522 105.783C43.9425 105.507 44.4283 105.369 44.9794 105.369C45.4055 105.369 45.7436 105.44 45.9936 105.582C46.2464 105.722 46.4396 105.881 46.5732 106.06C46.7095 106.236 46.8146 106.381 46.8885 106.494H46.9908V105.455H47.9624V112.188C47.9624 112.75 47.8345 113.207 47.5788 113.56C47.326 113.915 46.9851 114.175 46.5561 114.339C46.13 114.507 45.6555 114.591 45.1328 114.591ZM45.0987 110.994C45.5021 110.994 45.843 110.902 46.1214 110.717C46.3999 110.533 46.6115 110.267 46.7564 109.92C46.9013 109.574 46.9737 109.159 46.9737 108.676C46.9737 108.205 46.9027 107.788 46.7607 107.428C46.6186 107.067 46.4084 106.784 46.13 106.58C45.8516 106.375 45.5078 106.273 45.0987 106.273C44.6726 106.273 44.3175 106.381 44.0334 106.597C43.7521 106.812 43.5405 107.102 43.3984 107.466C43.2592 107.83 43.1896 108.233 43.1896 108.676C43.1896 109.131 43.2607 109.533 43.4027 109.882C43.5476 110.229 43.7607 110.501 44.0419 110.7C44.326 110.896 44.6783 110.994 45.0987 110.994Z" fill="#26252A"/></svg>