<svg width="422" height="110" viewBox="0 0 422 110" fill="none" xmlns="http://www.w3.org/2000/svg"><rect x="21" y="37" width="57" height="24" rx="12" fill="#EBEAE1"/><path d="M39.9972 50.9973C40.1632 51.1633 40.1887 51.4268 40.0357 51.6049C39.3021 52.459 38.2142 53.0001 37 53.0001C35.7857 53.0001 34.6978 52.459 33.9642 51.6049C33.8113 51.4268 33.8367 51.1633 34.0028 50.9973C34.2246 50.7755 34.5959 50.822 34.8105 51.051C35.3578 51.6351 36.1363 52.0001 37 52.0001C37.8637 52.0001 38.6421 51.6351 39.1895 51.051C39.404 50.822 39.7754 50.7755 39.9972 50.9973Z" fill="#26252A"/><path d="M35.5 47.5C35.5 48.0523 35.0523 48.5 34.5 48.5C33.9477 48.5 33.5 48.0523 33.5 47.5C33.5 46.9477 33.9477 46.5 34.5 46.5C35.0523 46.5 35.5 46.9477 35.5 47.5Z" fill="#26252A"/><path d="M39.5 48.5C40.0523 48.5 40.5 48.0523 40.5 47.5C40.5 46.9477 40.0523 46.5 39.5 46.5C38.9477 46.5 38.5 46.9477 38.5 47.5C38.5 48.0523 38.9477 48.5 39.5 48.5Z" fill="#26252A"/><path fill-rule="evenodd" clip-rule="evenodd" d="M44 49C44 52.866 40.866 56 37 56C33.134 56 30 52.866 30 49C30 45.134 33.134 42 37 42C40.866 42 44 45.134 44 49ZM43 49C43 52.3137 40.3137 55 37 55C33.6863 55 31 52.3137 31 49C31 45.6863 33.6863 43 37 43C40.3137 43 43 45.6863 43 49Z" fill="#26252A"/><path d="M49.5795 45.2102V44.2727H56.125V45.2102H53.3807V53H52.3239V45.2102H49.5795ZM58.6552 53.1534C58.2404 53.1534 57.864 53.0753 57.5259 52.919C57.1879 52.7599 56.9194 52.5312 56.7205 52.233C56.5217 51.9318 56.4222 51.5682 56.4222 51.142C56.4222 50.767 56.4961 50.4631 56.6438 50.2301C56.7915 49.9943 56.989 49.8097 57.2362 49.6761C57.4833 49.5426 57.756 49.4432 58.0543 49.3778C58.3555 49.3097 58.658 49.2557 58.962 49.2159C59.3597 49.1648 59.6822 49.1264 59.9293 49.1009C60.1793 49.0724 60.3612 49.0256 60.4748 48.9602C60.5913 48.8949 60.6495 48.7812 60.6495 48.6193V48.5852C60.6495 48.1648 60.5344 47.8381 60.3043 47.6051C60.0771 47.3722 59.7319 47.2557 59.2688 47.2557C58.7887 47.2557 58.4123 47.3608 58.1396 47.571C57.8668 47.7812 57.6751 48.0057 57.5643 48.2443L56.6097 47.9034C56.7802 47.5057 57.0075 47.196 57.2915 46.9744C57.5785 46.75 57.891 46.5937 58.229 46.5057C58.57 46.4148 58.9052 46.3693 59.2347 46.3693C59.445 46.3693 59.6864 46.3949 59.9592 46.446C60.2347 46.4943 60.5004 46.5952 60.756 46.7486C61.0146 46.902 61.229 47.1335 61.3995 47.4432C61.57 47.7528 61.6552 48.1676 61.6552 48.6875V53H60.6495V52.1136H60.5984C60.5302 52.2557 60.4165 52.4077 60.2575 52.5696C60.0984 52.7315 59.8867 52.8693 59.6225 52.983C59.3583 53.0966 59.0359 53.1534 58.6552 53.1534ZM58.8086 52.25C59.2063 52.25 59.5415 52.1719 59.8143 52.0156C60.0898 51.8594 60.2972 51.6577 60.4364 51.4105C60.5785 51.1634 60.6495 50.9034 60.6495 50.6307V49.7102C60.6069 49.7614 60.5131 49.8082 60.3683 49.8509C60.2262 49.8906 60.0614 49.9261 59.8739 49.9574C59.6893 49.9858 59.5089 50.0114 59.3327 50.0341C59.1594 50.054 59.0188 50.071 58.9109 50.0852C58.6495 50.1193 58.4052 50.1747 58.1779 50.2514C57.9535 50.3253 57.7717 50.4375 57.6325 50.5881C57.4961 50.7358 57.4279 50.9375 57.4279 51.1932C57.4279 51.5426 57.5572 51.8068 57.8157 51.9858C58.0771 52.1619 58.408 52.25 58.8086 52.25ZM66.1328 55.5909C65.647 55.5909 65.2294 55.5284 64.88 55.4034C64.5305 55.2812 64.2393 55.1193 64.0064 54.9176C63.7763 54.7188 63.593 54.5057 63.4567 54.2784L64.2578 53.7159C64.3487 53.8352 64.4638 53.9716 64.603 54.125C64.7422 54.2812 64.9325 54.4162 65.174 54.5298C65.4183 54.6463 65.7379 54.7045 66.1328 54.7045C66.6612 54.7045 67.0973 54.5767 67.4411 54.321C67.7848 54.0653 67.9567 53.6648 67.9567 53.1193V51.7898H67.8714C67.7976 51.9091 67.6925 52.0568 67.5561 52.233C67.4226 52.4062 67.2294 52.5611 66.9766 52.6974C66.7266 52.831 66.3885 52.8977 65.9624 52.8977C65.4339 52.8977 64.9595 52.7727 64.5391 52.5227C64.1214 52.2727 63.7905 51.9091 63.5462 51.4318C63.3047 50.9545 63.1839 50.375 63.1839 49.6932C63.1839 49.0227 63.3018 48.4389 63.5376 47.9418C63.7734 47.4418 64.1016 47.0554 64.522 46.7827C64.9425 46.5071 65.4283 46.3693 65.9794 46.3693C66.4055 46.3693 66.7436 46.4403 66.9936 46.5824C67.2464 46.7216 67.4396 46.8807 67.5732 47.0597C67.7095 47.2358 67.8146 47.3807 67.8885 47.4943H67.9908V46.4545H68.9624V53.1875C68.9624 53.75 68.8345 54.2074 68.5788 54.5597C68.326 54.9148 67.9851 55.1747 67.5561 55.3395C67.13 55.5071 66.6555 55.5909 66.1328 55.5909ZM66.0987 51.9943C66.5021 51.9943 66.843 51.902 67.1214 51.7173C67.3999 51.5327 67.6115 51.267 67.7564 50.9205C67.9013 50.5739 67.9737 50.1591 67.9737 49.6761C67.9737 49.2045 67.9027 48.7884 67.7607 48.4276C67.6186 48.0668 67.4084 47.7841 67.13 47.5795C66.8516 47.375 66.5078 47.2727 66.0987 47.2727C65.6726 47.2727 65.3175 47.3807 65.0334 47.5966C64.7521 47.8125 64.5405 48.1023 64.3984 48.4659C64.2592 48.8295 64.1896 49.233 64.1896 49.6761C64.1896 50.1307 64.2607 50.5327 64.4027 50.8821C64.5476 51.2287 64.7607 51.5014 65.0419 51.7003C65.326 51.8963 65.6783 51.9943 66.0987 51.9943Z" fill="#26252A"/><rect x="100" y="37" width="57" height="24" rx="12" fill="#CCDDF9"/><path d="M118.997 50.9973C119.163 51.1633 119.189 51.4268 119.036 51.6049C118.302 52.459 117.214 53.0001 116 53.0001C114.786 53.0001 113.698 52.459 112.964 51.6049C112.811 51.4268 112.837 51.1633 113.003 50.9973C113.225 50.7755 113.596 50.822 113.81 51.051C114.358 51.6351 115.136 52.0001 116 52.0001C116.864 52.0001 117.642 51.6351 118.189 51.051C118.404 50.822 118.775 50.7755 118.997 50.9973Z" fill="#26252A"/><path d="M114.5 47.5C114.5 48.0523 114.052 48.5 113.5 48.5C112.948 48.5 112.5 48.0523 112.5 47.5C112.5 46.9477 112.948 46.5 113.5 46.5C114.052 46.5 114.5 46.9477 114.5 47.5Z" fill="#26252A"/><path d="M118.5 48.5C119.052 48.5 119.5 48.0523 119.5 47.5C119.5 46.9477 119.052 46.5 118.5 46.5C117.948 46.5 117.5 46.9477 117.5 47.5C117.5 48.0523 117.948 48.5 118.5 48.5Z" fill="#26252A"/><path fill-rule="evenodd" clip-rule="evenodd" d="M123 49C123 52.866 119.866 56 116 56C112.134 56 109 52.866 109 49C109 45.134 112.134 42 116 42C119.866 42 123 45.134 123 49ZM122 49C122 52.3137 119.314 55 116 55C112.686 55 110 52.3137 110 49C110 45.6863 112.686 43 116 43C119.314 43 122 45.6863 122 49Z" fill="#26252A"/><path d="M128.58 45.2102V44.2727H135.125V45.2102H132.381V53H131.324V45.2102H128.58ZM137.655 53.1534C137.24 53.1534 136.864 53.0753 136.526 52.919C136.188 52.7599 135.919 52.5312 135.721 52.233C135.522 51.9318 135.422 51.5682 135.422 51.142C135.422 50.767 135.496 50.4631 135.644 50.2301C135.792 49.9943 135.989 49.8097 136.236 49.6761C136.483 49.5426 136.756 49.4432 137.054 49.3778C137.355 49.3097 137.658 49.2557 137.962 49.2159C138.36 49.1648 138.682 49.1264 138.929 49.1009C139.179 49.0724 139.361 49.0256 139.475 48.9602C139.591 48.8949 139.65 48.7812 139.65 48.6193V48.5852C139.65 48.1648 139.534 47.8381 139.304 47.6051C139.077 47.3722 138.732 47.2557 138.269 47.2557C137.789 47.2557 137.412 47.3608 137.14 47.571C136.867 47.7812 136.675 48.0057 136.564 48.2443L135.61 47.9034C135.78 47.5057 136.007 47.196 136.292 46.9744C136.578 46.75 136.891 46.5937 137.229 46.5057C137.57 46.4148 137.905 46.3693 138.235 46.3693C138.445 46.3693 138.686 46.3949 138.959 46.446C139.235 46.4943 139.5 46.5952 139.756 46.7486C140.015 46.902 140.229 47.1335 140.4 47.4432C140.57 47.7528 140.655 48.1676 140.655 48.6875V53H139.65V52.1136H139.598C139.53 52.2557 139.417 52.4077 139.257 52.5696C139.098 52.7315 138.887 52.8693 138.623 52.983C138.358 53.0966 138.036 53.1534 137.655 53.1534ZM137.809 52.25C138.206 52.25 138.542 52.1719 138.814 52.0156C139.09 51.8594 139.297 51.6577 139.436 51.4105C139.578 51.1634 139.65 50.9034 139.65 50.6307V49.7102C139.607 49.7614 139.513 49.8082 139.368 49.8509C139.226 49.8906 139.061 49.9261 138.874 49.9574C138.689 49.9858 138.509 50.0114 138.333 50.0341C138.159 50.054 138.019 50.071 137.911 50.0852C137.65 50.1193 137.405 50.1747 137.178 50.2514C136.953 50.3253 136.772 50.4375 136.632 50.5881C136.496 50.7358 136.428 50.9375 136.428 51.1932C136.428 51.5426 136.557 51.8068 136.816 51.9858C137.077 52.1619 137.408 52.25 137.809 52.25ZM145.133 55.5909C144.647 55.5909 144.229 55.5284 143.88 55.4034C143.531 55.2812 143.239 55.1193 143.006 54.9176C142.776 54.7188 142.593 54.5057 142.457 54.2784L143.258 53.7159C143.349 53.8352 143.464 53.9716 143.603 54.125C143.742 54.2812 143.933 54.4162 144.174 54.5298C144.418 54.6463 144.738 54.7045 145.133 54.7045C145.661 54.7045 146.097 54.5767 146.441 54.321C146.785 54.0653 146.957 53.6648 146.957 53.1193V51.7898H146.871C146.798 51.9091 146.692 52.0568 146.556 52.233C146.423 52.4062 146.229 52.5611 145.977 52.6974C145.727 52.831 145.388 52.8977 144.962 52.8977C144.434 52.8977 143.96 52.7727 143.539 52.5227C143.121 52.2727 142.79 51.9091 142.546 51.4318C142.305 50.9545 142.184 50.375 142.184 49.6932C142.184 49.0227 142.302 48.4389 142.538 47.9418C142.773 47.4418 143.102 47.0554 143.522 46.7827C143.942 46.5071 144.428 46.3693 144.979 46.3693C145.406 46.3693 145.744 46.4403 145.994 46.5824C146.246 46.7216 146.44 46.8807 146.573 47.0597C146.71 47.2358 146.815 47.3807 146.888 47.4943H146.991V46.4545H147.962V53.1875C147.962 53.75 147.835 54.2074 147.579 54.5597C147.326 54.9148 146.985 55.1747 146.556 55.3395C146.13 55.5071 145.656 55.5909 145.133 55.5909ZM145.099 51.9943C145.502 51.9943 145.843 51.902 146.121 51.7173C146.4 51.5327 146.612 51.267 146.756 50.9205C146.901 50.5739 146.974 50.1591 146.974 49.6761C146.974 49.2045 146.903 48.7884 146.761 48.4276C146.619 48.0668 146.408 47.7841 146.13 47.5795C145.852 47.375 145.508 47.2727 145.099 47.2727C144.673 47.2727 144.317 47.3807 144.033 47.5966C143.752 47.8125 143.54 48.1023 143.398 48.4659C143.259 48.8295 143.19 49.233 143.19 49.6761C143.19 50.1307 143.261 50.5327 143.403 50.8821C143.548 51.2287 143.761 51.5014 144.042 51.7003C144.326 51.8963 144.678 51.9943 145.099 51.9943Z" fill="#26252A"/><rect x="179" y="37" width="57" height="24" rx="12" fill="#6C6862"/><path d="M197.997 50.9973C198.163 51.1633 198.189 51.4268 198.036 51.6049C197.302 52.459 196.214 53.0001 195 53.0001C193.786 53.0001 192.698 52.459 191.964 51.6049C191.811 51.4268 191.837 51.1633 192.003 50.9973C192.225 50.7755 192.596 50.822 192.81 51.051C193.358 51.6351 194.136 52.0001 195 52.0001C195.864 52.0001 196.642 51.6351 197.189 51.051C197.404 50.822 197.775 50.7755 197.997 50.9973Z" fill="white"/><path d="M193.5 47.5C193.5 48.0523 193.052 48.5 192.5 48.5C191.948 48.5 191.5 48.0523 191.5 47.5C191.5 46.9477 191.948 46.5 192.5 46.5C193.052 46.5 193.5 46.9477 193.5 47.5Z" fill="white"/><path d="M197.5 48.5C198.052 48.5 198.5 48.0523 198.5 47.5C198.5 46.9477 198.052 46.5 197.5 46.5C196.948 46.5 196.5 46.9477 196.5 47.5C196.5 48.0523 196.948 48.5 197.5 48.5Z" fill="white"/><path fill-rule="evenodd" clip-rule="evenodd" d="M202 49C202 52.866 198.866 56 195 56C191.134 56 188 52.866 188 49C188 45.134 191.134 42 195 42C198.866 42 202 45.134 202 49ZM201 49C201 52.3137 198.314 55 195 55C191.686 55 189 52.3137 189 49C189 45.6863 191.686 43 195 43C198.314 43 201 45.6863 201 49Z" fill="white"/><path d="M207.58 45.2102V44.2727H214.125V45.2102H211.381V53H210.324V45.2102H207.58ZM216.655 53.1534C216.24 53.1534 215.864 53.0753 215.526 52.919C215.188 52.7599 214.919 52.5312 214.721 52.233C214.522 51.9318 214.422 51.5682 214.422 51.142C214.422 50.767 214.496 50.4631 214.644 50.2301C214.792 49.9943 214.989 49.8097 215.236 49.6761C215.483 49.5426 215.756 49.4432 216.054 49.3778C216.355 49.3097 216.658 49.2557 216.962 49.2159C217.36 49.1648 217.682 49.1264 217.929 49.1009C218.179 49.0724 218.361 49.0256 218.475 48.9602C218.591 48.8949 218.65 48.7812 218.65 48.6193V48.5852C218.65 48.1648 218.534 47.8381 218.304 47.6051C218.077 47.3722 217.732 47.2557 217.269 47.2557C216.789 47.2557 216.412 47.3608 216.14 47.571C215.867 47.7812 215.675 48.0057 215.564 48.2443L214.61 47.9034C214.78 47.5057 215.007 47.196 215.292 46.9744C215.578 46.75 215.891 46.5937 216.229 46.5057C216.57 46.4148 216.905 46.3693 217.235 46.3693C217.445 46.3693 217.686 46.3949 217.959 46.446C218.235 46.4943 218.5 46.5952 218.756 46.7486C219.015 46.902 219.229 47.1335 219.4 47.4432C219.57 47.7528 219.655 48.1676 219.655 48.6875V53H218.65V52.1136H218.598C218.53 52.2557 218.417 52.4077 218.257 52.5696C218.098 52.7315 217.887 52.8693 217.623 52.983C217.358 53.0966 217.036 53.1534 216.655 53.1534ZM216.809 52.25C217.206 52.25 217.542 52.1719 217.814 52.0156C218.09 51.8594 218.297 51.6577 218.436 51.4105C218.578 51.1634 218.65 50.9034 218.65 50.6307V49.7102C218.607 49.7614 218.513 49.8082 218.368 49.8509C218.226 49.8906 218.061 49.9261 217.874 49.9574C217.689 49.9858 217.509 50.0114 217.333 50.0341C217.159 50.054 217.019 50.071 216.911 50.0852C216.65 50.1193 216.405 50.1747 216.178 50.2514C215.953 50.3253 215.772 50.4375 215.632 50.5881C215.496 50.7358 215.428 50.9375 215.428 51.1932C215.428 51.5426 215.557 51.8068 215.816 51.9858C216.077 52.1619 216.408 52.25 216.809 52.25ZM224.133 55.5909C223.647 55.5909 223.229 55.5284 222.88 55.4034C222.531 55.2812 222.239 55.1193 222.006 54.9176C221.776 54.7188 221.593 54.5057 221.457 54.2784L222.258 53.7159C222.349 53.8352 222.464 53.9716 222.603 54.125C222.742 54.2812 222.933 54.4162 223.174 54.5298C223.418 54.6463 223.738 54.7045 224.133 54.7045C224.661 54.7045 225.097 54.5767 225.441 54.321C225.785 54.0653 225.957 53.6648 225.957 53.1193V51.7898H225.871C225.798 51.9091 225.692 52.0568 225.556 52.233C225.423 52.4062 225.229 52.5611 224.977 52.6974C224.727 52.831 224.388 52.8977 223.962 52.8977C223.434 52.8977 222.96 52.7727 222.539 52.5227C222.121 52.2727 221.79 51.9091 221.546 51.4318C221.305 50.9545 221.184 50.375 221.184 49.6932C221.184 49.0227 221.302 48.4389 221.538 47.9418C221.773 47.4418 222.102 47.0554 222.522 46.7827C222.942 46.5071 223.428 46.3693 223.979 46.3693C224.406 46.3693 224.744 46.4403 224.994 46.5824C225.246 46.7216 225.44 46.8807 225.573 47.0597C225.71 47.2358 225.815 47.3807 225.888 47.4943H225.991V46.4545H226.962V53.1875C226.962 53.75 226.835 54.2074 226.579 54.5597C226.326 54.9148 225.985 55.1747 225.556 55.3395C225.13 55.5071 224.656 55.5909 224.133 55.5909ZM224.099 51.9943C224.502 51.9943 224.843 51.902 225.121 51.7173C225.4 51.5327 225.612 51.267 225.756 50.9205C225.901 50.5739 225.974 50.1591 225.974 49.6761C225.974 49.2045 225.903 48.7884 225.761 48.4276C225.619 48.0668 225.408 47.7841 225.13 47.5795C224.852 47.375 224.508 47.2727 224.099 47.2727C223.673 47.2727 223.317 47.3807 223.033 47.5966C222.752 47.8125 222.54 48.1023 222.398 48.4659C222.259 48.8295 222.19 49.233 222.19 49.6761C222.19 50.1307 222.261 50.5327 222.403 50.8821C222.548 51.2287 222.761 51.5014 223.042 51.7003C223.326 51.8963 223.678 51.9943 224.099 51.9943Z" fill="white"/><path d="M0.882 15.168L1.47 12.494H0.336V11.43H1.694L2.17 9.26H0.98V8.196H2.408L3.066 5.228H4.172L3.514 8.196H5.572L6.23 5.228H7.35L6.678 8.196H7.798V9.26H6.468L5.978 11.43H7.168V12.494H5.754L5.166 15.168H4.06L4.648 12.494H2.576L2.002 15.168H0.882ZM2.8 11.43H4.872L5.348 9.26H3.29L2.8 11.43ZM9.26844 15V5.396H16.6604V6.544H10.5984V9.512H16.0444V10.66H10.5984V13.852H16.7444V15H9.26844ZM21.473 15.168C20.9504 15.168 20.4837 15.0933 20.073 14.944C19.6624 14.7853 19.3124 14.5193 19.023 14.146C18.7337 13.7633 18.5144 13.2547 18.365 12.62C18.2157 11.976 18.141 11.1687 18.141 10.198C18.141 9.22733 18.2157 8.42467 18.365 7.79C18.5144 7.146 18.7337 6.63733 19.023 6.264C19.3124 5.88133 19.6624 5.61533 20.073 5.466C20.4837 5.30733 20.9504 5.228 21.473 5.228C21.9957 5.228 22.4577 5.30733 22.859 5.466C23.2697 5.61533 23.6197 5.88133 23.909 6.264C24.1984 6.63733 24.4177 7.146 24.567 7.79C24.7164 8.42467 24.791 9.22733 24.791 10.198C24.791 11.1687 24.7164 11.976 24.567 12.62C24.4177 13.2547 24.1984 13.7633 23.909 14.146C23.6197 14.5193 23.2697 14.7853 22.859 14.944C22.4577 15.0933 21.9957 15.168 21.473 15.168ZM21.473 14.132C22.005 14.132 22.4157 13.9967 22.705 13.726C23.0037 13.4553 23.209 13.054 23.321 12.522C23.4424 11.99 23.503 11.3273 23.503 10.534V9.89C23.503 9.08733 23.4424 8.42 23.321 7.888C23.209 7.34667 23.0037 6.94067 22.705 6.67C22.4157 6.39933 22.005 6.264 21.473 6.264C20.941 6.264 20.5257 6.39933 20.227 6.67C19.9284 6.94067 19.7184 7.342 19.597 7.874C19.485 8.406 19.429 9.07333 19.429 9.876V10.506C19.429 11.2993 19.485 11.9667 19.597 12.508C19.7184 13.0493 19.9284 13.4553 20.227 13.726C20.5257 13.9967 20.941 14.132 21.473 14.132ZM26.6004 15V5.396H33.9924V6.544H27.9304V9.512H33.3764V10.66H27.9304V13.852H34.0764V15H26.6004ZM38.805 15.168C38.2824 15.168 37.8157 15.0933 37.405 14.944C36.9944 14.7853 36.6444 14.5193 36.355 14.146C36.0657 13.7633 35.8464 13.2547 35.697 12.62C35.5477 11.976 35.473 11.1687 35.473 10.198C35.473 9.22733 35.5477 8.42467 35.697 7.79C35.8464 7.146 36.0657 6.63733 36.355 6.264C36.6444 5.88133 36.9944 5.61533 37.405 5.466C37.8157 5.30733 38.2824 5.228 38.805 5.228C39.3277 5.228 39.7897 5.30733 40.191 5.466C40.6017 5.61533 40.9517 5.88133 41.241 6.264C41.5304 6.63733 41.7497 7.146 41.899 7.79C42.0484 8.42467 42.123 9.22733 42.123 10.198C42.123 11.1687 42.0484 11.976 41.899 12.62C41.7497 13.2547 41.5304 13.7633 41.241 14.146C40.9517 14.5193 40.6017 14.7853 40.191 14.944C39.7897 15.0933 39.3277 15.168 38.805 15.168ZM38.805 14.132C39.337 14.132 39.7477 13.9967 40.037 13.726C40.3357 13.4553 40.541 13.054 40.653 12.522C40.7744 11.99 40.835 11.3273 40.835 10.534V9.89C40.835 9.08733 40.7744 8.42 40.653 7.888C40.541 7.34667 40.3357 6.94067 40.037 6.67C39.7477 6.39933 39.337 6.264 38.805 6.264C38.273 6.264 37.8577 6.39933 37.559 6.67C37.2604 6.94067 37.0504 7.342 36.929 7.874C36.817 8.406 36.761 9.07333 36.761 9.876V10.506C36.761 11.2993 36.817 11.9667 36.929 12.508C37.0504 13.0493 37.2604 13.4553 37.559 13.726C37.8577 13.9967 38.273 14.132 38.805 14.132ZM43.9324 15V5.396H51.3244V6.544H45.2624V9.512H50.7084V10.66H45.2624V13.852H51.4084V15H43.9324ZM56.137 15.168C55.6144 15.168 55.1477 15.0933 54.737 14.944C54.3264 14.7853 53.9764 14.5193 53.687 14.146C53.3977 13.7633 53.1784 13.2547 53.029 12.62C52.8797 11.976 52.805 11.1687 52.805 10.198C52.805 9.22733 52.8797 8.42467 53.029 7.79C53.1784 7.146 53.3977 6.63733 53.687 6.264C53.9764 5.88133 54.3264 5.61533 54.737 5.466C55.1477 5.30733 55.6144 5.228 56.137 5.228C56.6597 5.228 57.1217 5.30733 57.523 5.466C57.9337 5.61533 58.2837 5.88133 58.573 6.264C58.8624 6.63733 59.0817 7.146 59.231 7.79C59.3804 8.42467 59.455 9.22733 59.455 10.198C59.455 11.1687 59.3804 11.976 59.231 12.62C59.0817 13.2547 58.8624 13.7633 58.573 14.146C58.2837 14.5193 57.9337 14.7853 57.523 14.944C57.1217 15.0933 56.6597 15.168 56.137 15.168ZM56.137 14.132C56.669 14.132 57.0797 13.9967 57.369 13.726C57.6677 13.4553 57.873 13.054 57.985 12.522C58.1064 11.99 58.167 11.3273 58.167 10.534V9.89C58.167 9.08733 58.1064 8.42 57.985 7.888C57.873 7.34667 57.6677 6.94067 57.369 6.67C57.0797 6.39933 56.669 6.264 56.137 6.264C55.605 6.264 55.1897 6.39933 54.891 6.67C54.5924 6.94067 54.3824 7.342 54.261 7.874C54.149 8.406 54.093 9.07333 54.093 9.876V10.506C54.093 11.2993 54.149 11.9667 54.261 12.508C54.3824 13.0493 54.5924 13.4553 54.891 13.726C55.1897 13.9967 55.605 14.132 56.137 14.132Z" fill="#272433"/><path d="M78.882 15.168L79.47 12.494H78.336V11.43H79.694L80.17 9.26H78.98V8.196H80.408L81.066 5.228H82.172L81.514 8.196H83.572L84.23 5.228H85.35L84.678 8.196H85.798V9.26H84.468L83.978 11.43H85.168V12.494H83.754L83.166 15.168H82.06L82.648 12.494H80.576L80.002 15.168H78.882ZM80.8 11.43H82.872L83.348 9.26H81.29L80.8 11.43ZM91.3704 15.168C90.3904 15.168 89.5598 14.9907 88.8784 14.636C88.1971 14.272 87.6744 13.726 87.3104 12.998C86.9558 12.2607 86.7784 11.3273 86.7784 10.198C86.7784 8.52733 87.1844 7.28133 87.9964 6.46C88.8084 5.63867 89.9378 5.228 91.3844 5.228C92.2058 5.228 92.9338 5.36333 93.5684 5.634C94.2031 5.89533 94.6978 6.29667 95.0524 6.838C95.4164 7.37 95.5984 8.042 95.5984 8.854H94.2544C94.2544 8.294 94.1331 7.832 93.8904 7.468C93.6571 7.104 93.3258 6.83333 92.8964 6.656C92.4671 6.46933 91.9631 6.376 91.3844 6.376C90.7124 6.376 90.1338 6.50667 89.6484 6.768C89.1631 7.02933 88.7944 7.43533 88.5424 7.986C88.2904 8.52733 88.1644 9.22733 88.1644 10.086V10.38C88.1644 11.2293 88.2904 11.9247 88.5424 12.466C88.7944 12.998 89.1584 13.39 89.6344 13.642C90.1198 13.894 90.7031 14.02 91.3844 14.02C91.9818 14.02 92.4951 13.9313 92.9244 13.754C93.3631 13.5767 93.6991 13.306 93.9324 12.942C94.1751 12.5687 94.2964 12.102 94.2964 11.542H95.5984C95.5984 12.3727 95.4118 13.054 95.0384 13.586C94.6744 14.118 94.1751 14.5147 93.5404 14.776C92.9058 15.0373 92.1824 15.168 91.3704 15.168ZM101.472 15.168C100.492 15.168 99.6613 14.9907 98.98 14.636C98.2987 14.272 97.776 13.726 97.412 12.998C97.0573 12.2607 96.88 11.3273 96.88 10.198C96.88 8.52733 97.286 7.28133 98.098 6.46C98.91 5.63867 100.039 5.228 101.486 5.228C102.307 5.228 103.035 5.36333 103.67 5.634C104.305 5.89533 104.799 6.29667 105.154 6.838C105.518 7.37 105.7 8.042 105.7 8.854H104.356C104.356 8.294 104.235 7.832 103.992 7.468C103.759 7.104 103.427 6.83333 102.998 6.656C102.569 6.46933 102.065 6.376 101.486 6.376C100.814 6.376 100.235 6.50667 99.75 6.768C99.2647 7.02933 98.896 7.43533 98.644 7.986C98.392 8.52733 98.266 9.22733 98.266 10.086V10.38C98.266 11.2293 98.392 11.9247 98.644 12.466C98.896 12.998 99.26 13.39 99.736 13.642C100.221 13.894 100.805 14.02 101.486 14.02C102.083 14.02 102.597 13.9313 103.026 13.754C103.465 13.5767 103.801 13.306 104.034 12.942C104.277 12.5687 104.398 12.102 104.398 11.542H105.7C105.7 12.3727 105.513 13.054 105.14 13.586C104.776 14.118 104.277 14.5147 103.642 14.776C103.007 15.0373 102.284 15.168 101.472 15.168ZM107.472 15V5.396H111.056C112.064 5.396 112.922 5.564 113.632 5.9C114.341 6.236 114.882 6.75867 115.256 7.468C115.638 8.168 115.83 9.078 115.83 10.198C115.83 11.2993 115.638 12.2047 115.256 12.914C114.882 13.6233 114.341 14.1507 113.632 14.496C112.922 14.832 112.064 15 111.056 15H107.472ZM108.802 13.852H111.028C111.56 13.852 112.036 13.7867 112.456 13.656C112.876 13.516 113.235 13.306 113.534 13.026C113.832 12.746 114.056 12.3867 114.206 11.948C114.364 11.5 114.444 10.968 114.444 10.352V10.072C114.444 9.43733 114.364 8.90067 114.206 8.462C114.056 8.014 113.832 7.65 113.534 7.37C113.244 7.09 112.89 6.88467 112.47 6.754C112.05 6.614 111.569 6.544 111.028 6.544H108.802V13.852ZM117.669 15V5.396H121.253C122.261 5.396 123.119 5.564 123.829 5.9C124.538 6.236 125.079 6.75867 125.453 7.468C125.835 8.168 126.027 9.078 126.027 10.198C126.027 11.2993 125.835 12.2047 125.453 12.914C125.079 13.6233 124.538 14.1507 123.829 14.496C123.119 14.832 122.261 15 121.253 15H117.669ZM118.999 13.852H121.225C121.757 13.852 122.233 13.7867 122.653 13.656C123.073 13.516 123.432 13.306 123.731 13.026C124.029 12.746 124.253 12.3867 124.403 11.948C124.561 11.5 124.641 10.968 124.641 10.352V10.072C124.641 9.43733 124.561 8.90067 124.403 8.462C124.253 8.014 124.029 7.65 123.731 7.37C123.441 7.09 123.087 6.88467 122.667 6.754C122.247 6.614 121.766 6.544 121.225 6.544H118.999V13.852ZM127.866 15V5.396H134.67V6.544H129.196V9.624H134.18V10.758H129.196V15H127.866ZM139 15.168C138.319 15.168 137.764 15.0373 137.334 14.776C136.905 14.5147 136.592 14.16 136.396 13.712C136.2 13.264 136.102 12.76 136.102 12.2H137.362C137.362 12.6293 137.423 12.9887 137.544 13.278C137.675 13.5673 137.866 13.782 138.118 13.922C138.37 14.062 138.688 14.132 139.07 14.132C139.64 14.132 140.074 13.9873 140.372 13.698C140.68 13.3993 140.895 12.97 141.016 12.41C141.138 11.85 141.203 11.1827 141.212 10.408C141.091 10.6133 140.909 10.8093 140.666 10.996C140.424 11.1733 140.139 11.318 139.812 11.43C139.495 11.5327 139.154 11.584 138.79 11.584C138.1 11.584 137.53 11.4487 137.082 11.178C136.634 10.898 136.298 10.52 136.074 10.044C135.86 9.568 135.752 9.036 135.752 8.448C135.752 7.79467 135.892 7.23 136.172 6.754C136.452 6.26867 136.835 5.89533 137.32 5.634C137.806 5.36333 138.352 5.228 138.958 5.228C139.509 5.228 140.004 5.30733 140.442 5.466C140.881 5.62467 141.25 5.88133 141.548 6.236C141.856 6.59067 142.09 7.07133 142.248 7.678C142.407 8.27533 142.486 9.022 142.486 9.918C142.486 10.898 142.407 11.724 142.248 12.396C142.099 13.068 141.875 13.6093 141.576 14.02C141.278 14.4213 140.909 14.7153 140.47 14.902C140.041 15.0793 139.551 15.168 139 15.168ZM139.042 10.562C139.5 10.562 139.878 10.464 140.176 10.268C140.484 10.072 140.713 9.81067 140.862 9.484C141.012 9.15733 141.086 8.79333 141.086 8.392C141.086 8 141.012 7.64533 140.862 7.328C140.722 7.00133 140.498 6.74467 140.19 6.558C139.892 6.362 139.514 6.264 139.056 6.264C138.599 6.264 138.221 6.36667 137.922 6.572C137.624 6.768 137.4 7.02933 137.25 7.356C137.11 7.68267 137.04 8.05133 137.04 8.462C137.04 8.84467 137.11 9.19467 137.25 9.512C137.39 9.82933 137.605 10.086 137.894 10.282C138.193 10.4687 138.576 10.562 139.042 10.562Z" fill="#272433"/><path d="M55.882 101.168L56.47 98.494H55.336V97.43H56.694L57.17 95.26H55.98V94.196H57.408L58.066 91.228H59.172L58.514 94.196H60.572L61.23 91.228H62.35L61.678 94.196H62.798V95.26H61.468L60.978 97.43H62.168V98.494H60.754L60.166 101.168H59.06L59.648 98.494H57.576L57.002 101.168H55.882ZM57.8 97.43H59.872L60.348 95.26H58.29L57.8 97.43ZM63.7644 101V100.594C63.7644 100.202 63.8391 99.8427 63.9884 99.516C64.1471 99.18 64.3524 98.8767 64.6044 98.606C64.8658 98.326 65.1598 98.06 65.4864 97.808C65.8131 97.556 66.1444 97.3087 66.4804 97.066C66.9378 96.7487 67.3578 96.4313 67.7404 96.114C68.1324 95.7967 68.4451 95.456 68.6784 95.092C68.9118 94.7187 69.0284 94.3033 69.0284 93.846C69.0284 93.5567 68.9584 93.2953 68.8184 93.062C68.6878 92.8193 68.4871 92.628 68.2164 92.488C67.9458 92.348 67.6004 92.278 67.1804 92.278C66.6858 92.278 66.2891 92.362 65.9904 92.53C65.6918 92.698 65.4724 92.922 65.3324 93.202C65.2018 93.482 65.1364 93.79 65.1364 94.126V94.7H63.9184C63.9091 94.6533 63.8998 94.5833 63.8904 94.49C63.8811 94.3873 63.8764 94.2707 63.8764 94.14C63.8764 93.4493 64.0304 92.894 64.3384 92.474C64.6464 92.0447 65.0571 91.732 65.5704 91.536C66.0838 91.3307 66.6391 91.228 67.2364 91.228C67.7684 91.228 68.2258 91.3027 68.6084 91.452C68.9911 91.592 69.3084 91.788 69.5604 92.04C69.8124 92.292 69.9991 92.5813 70.1204 92.908C70.2418 93.2253 70.3024 93.5613 70.3024 93.916C70.3024 94.3547 70.2231 94.756 70.0644 95.12C69.9151 95.484 69.7004 95.8247 69.4204 96.142C69.1498 96.45 68.8278 96.7487 68.4544 97.038C68.0904 97.3273 67.6938 97.6213 67.2644 97.92C66.9658 98.116 66.6718 98.326 66.3824 98.55C66.0931 98.7647 65.8458 98.984 65.6404 99.208C65.4351 99.432 65.3044 99.6467 65.2484 99.852H70.3584V101H63.7644ZM75.1238 101.168C74.5731 101.168 74.0785 101.089 73.6398 100.93C73.2105 100.771 72.8418 100.515 72.5338 100.16C72.2351 99.8053 72.0065 99.3293 71.8478 98.732C71.6891 98.1253 71.6098 97.374 71.6098 96.478C71.6098 95.4887 71.6891 94.6627 71.8478 94C72.0065 93.328 72.2305 92.7913 72.5198 92.39C72.8185 91.9793 73.1825 91.6853 73.6118 91.508C74.0505 91.3213 74.5451 91.228 75.0958 91.228C75.7865 91.228 76.3418 91.3587 76.7618 91.62C77.1911 91.8813 77.5038 92.236 77.6998 92.684C77.8958 93.1227 77.9938 93.6267 77.9938 94.196H76.7338C76.7338 93.7667 76.6731 93.4073 76.5518 93.118C76.4305 92.8287 76.2391 92.614 75.9778 92.474C75.7258 92.334 75.4085 92.264 75.0258 92.264C74.4658 92.264 74.0271 92.4133 73.7098 92.712C73.4018 93.0013 73.1871 93.426 73.0658 93.986C72.9538 94.546 72.8931 95.2133 72.8838 95.988C73.0145 95.7733 73.1965 95.5773 73.4298 95.4C73.6725 95.2227 73.9571 95.0827 74.2838 94.98C74.6105 94.868 74.9558 94.812 75.3198 94.812C76.0105 94.812 76.5798 94.952 77.0278 95.232C77.4758 95.5027 77.8071 95.876 78.0218 96.352C78.2365 96.828 78.3438 97.36 78.3438 97.948C78.3438 98.592 78.2038 99.1567 77.9238 99.642C77.6438 100.127 77.2611 100.505 76.7758 100.776C76.2905 101.037 75.7398 101.168 75.1238 101.168ZM75.0398 100.132C75.4971 100.132 75.8751 100.034 76.1738 99.838C76.4725 99.6327 76.6918 99.3667 76.8318 99.04C76.9811 98.704 77.0558 98.3353 77.0558 97.934C77.0558 97.5513 76.9858 97.2013 76.8458 96.884C76.7058 96.5667 76.4865 96.3147 76.1878 96.128C75.8985 95.932 75.5251 95.834 75.0678 95.834C74.6105 95.834 74.2278 95.932 73.9198 96.128C73.6118 96.324 73.3831 96.5853 73.2338 96.912C73.0845 97.2293 73.0098 97.5933 73.0098 98.004C73.0098 98.3867 73.0845 98.7413 73.2338 99.068C73.3831 99.3947 73.6071 99.656 73.9058 99.852C74.2045 100.039 74.5825 100.132 75.0398 100.132ZM79.5652 101V100.594C79.5652 100.202 79.6399 99.8427 79.7892 99.516C79.9479 99.18 80.1532 98.8767 80.4052 98.606C80.6665 98.326 80.9605 98.06 81.2872 97.808C81.6139 97.556 81.9452 97.3087 82.2812 97.066C82.7385 96.7487 83.1585 96.4313 83.5412 96.114C83.9332 95.7967 84.2459 95.456 84.4792 95.092C84.7125 94.7187 84.8292 94.3033 84.8292 93.846C84.8292 93.5567 84.7592 93.2953 84.6192 93.062C84.4885 92.8193 84.2879 92.628 84.0172 92.488C83.7465 92.348 83.4012 92.278 82.9812 92.278C82.4865 92.278 82.0899 92.362 81.7912 92.53C81.4925 92.698 81.2732 92.922 81.1332 93.202C81.0025 93.482 80.9372 93.79 80.9372 94.126V94.7H79.7192C79.7099 94.6533 79.7005 94.5833 79.6912 94.49C79.6819 94.3873 79.6772 94.2707 79.6772 94.14C79.6772 93.4493 79.8312 92.894 80.1392 92.474C80.4472 92.0447 80.8579 91.732 81.3712 91.536C81.8845 91.3307 82.4399 91.228 83.0372 91.228C83.5692 91.228 84.0265 91.3027 84.4092 91.452C84.7919 91.592 85.1092 91.788 85.3612 92.04C85.6132 92.292 85.7999 92.5813 85.9212 92.908C86.0425 93.2253 86.1032 93.5613 86.1032 93.916C86.1032 94.3547 86.0239 94.756 85.8652 95.12C85.7159 95.484 85.5012 95.8247 85.2212 96.142C84.9505 96.45 84.6285 96.7487 84.2552 97.038C83.8912 97.3273 83.4945 97.6213 83.0652 97.92C82.7665 98.116 82.4725 98.326 82.1832 98.55C81.8939 98.7647 81.6465 98.984 81.4412 99.208C81.2359 99.432 81.1052 99.6467 81.0492 99.852H86.1592V101H79.5652ZM90.7845 101.168C90.1125 101.168 89.5245 101.042 89.0205 100.79C88.5165 100.538 88.1245 100.179 87.8445 99.712C87.5645 99.236 87.4245 98.6713 87.4245 98.018H88.6705C88.6705 98.4567 88.7639 98.8347 88.9505 99.152C89.1372 99.4693 89.3892 99.712 89.7065 99.88C90.0332 100.048 90.3925 100.132 90.7845 100.132C91.1859 100.132 91.5405 100.053 91.8485 99.894C92.1565 99.726 92.3945 99.474 92.5625 99.138C92.7399 98.802 92.8285 98.3773 92.8285 97.864C92.8285 97.3973 92.7492 97.0147 92.5905 96.716C92.4319 96.408 92.2032 96.1793 91.9045 96.03C91.6152 95.8807 91.2792 95.806 90.8965 95.806C90.6165 95.806 90.3505 95.8527 90.0985 95.946C89.8465 96.03 89.6179 96.1513 89.4125 96.31C89.2165 96.4687 89.0532 96.6647 88.9225 96.898L87.7605 96.716L88.1665 91.396H93.6125V92.544H89.2445L89.0205 95.54C89.1792 95.4 89.3565 95.274 89.5525 95.162C89.7579 95.0407 89.9912 94.9473 90.2525 94.882C90.5139 94.8073 90.8125 94.77 91.1485 94.77C91.6992 94.77 92.1985 94.8773 92.6465 95.092C93.0945 95.3067 93.4492 95.638 93.7105 96.086C93.9719 96.534 94.1025 97.1127 94.1025 97.822C94.1025 98.522 93.9672 99.124 93.6965 99.628C93.4352 100.132 93.0572 100.515 92.5625 100.776C92.0679 101.037 91.4752 101.168 90.7845 101.168ZM95.3386 101V100.594C95.3386 100.202 95.4133 99.8427 95.5626 99.516C95.7213 99.18 95.9266 98.8767 96.1786 98.606C96.4399 98.326 96.7339 98.06 97.0606 97.808C97.3873 97.556 97.7186 97.3087 98.0546 97.066C98.5119 96.7487 98.9319 96.4313 99.3146 96.114C99.7066 95.7967 100.019 95.456 100.253 95.092C100.486 94.7187 100.603 94.3033 100.603 93.846C100.603 93.5567 100.533 93.2953 100.393 93.062C100.262 92.8193 100.061 92.628 99.7906 92.488C99.5199 92.348 99.1746 92.278 98.7546 92.278C98.2599 92.278 97.8633 92.362 97.5646 92.53C97.2659 92.698 97.0466 92.922 96.9066 93.202C96.7759 93.482 96.7106 93.79 96.7106 94.126V94.7H95.4926C95.4833 94.6533 95.4739 94.5833 95.4646 94.49C95.4553 94.3873 95.4506 94.2707 95.4506 94.14C95.4506 93.4493 95.6046 92.894 95.9126 92.474C96.2206 92.0447 96.6313 91.732 97.1446 91.536C97.6579 91.3307 98.2133 91.228 98.8106 91.228C99.3426 91.228 99.7999 91.3027 100.183 91.452C100.565 91.592 100.883 91.788 101.135 92.04C101.387 92.292 101.573 92.5813 101.695 92.908C101.816 93.2253 101.877 93.5613 101.877 93.916C101.877 94.3547 101.797 94.756 101.639 95.12C101.489 95.484 101.275 95.8247 100.995 96.142C100.724 96.45 100.402 96.7487 100.029 97.038C99.6646 97.3273 99.2679 97.6213 98.8386 97.92C98.5399 98.116 98.2459 98.326 97.9566 98.55C97.6673 98.7647 97.4199 98.984 97.2146 99.208C97.0093 99.432 96.8786 99.6467 96.8226 99.852H101.933V101H95.3386ZM102.596 101L106.39 91.396H108.14L111.948 101H110.506L109.568 98.62H104.892L103.968 101H102.596ZM105.326 97.486H109.12L107.958 94.476C107.93 94.392 107.888 94.2753 107.832 94.126C107.776 93.9767 107.715 93.8133 107.65 93.636C107.585 93.4493 107.519 93.2627 107.454 93.076C107.389 92.88 107.328 92.7027 107.272 92.544H107.188C107.123 92.7307 107.048 92.9453 106.964 93.188C106.88 93.4307 106.796 93.6687 106.712 93.902C106.628 94.126 106.558 94.3173 106.502 94.476L105.326 97.486Z" fill="#272433"/><line x1="58.3536" y1="55.6464" x2="85.3536" y2="82.6464" stroke="#272433"/><line x1="38.3536" y1="23.6464" x2="51.3536" y2="36.6464" stroke="#272433"/><line x1="115.354" y1="23.6464" x2="128.354" y2="36.6464" stroke="#272433"/><path d="M172.882 15.168L173.47 12.494H172.336V11.43H173.694L174.17 9.26H172.98V8.196H174.408L175.066 5.228H176.172L175.514 8.196H177.572L178.23 5.228H179.35L178.678 8.196H179.798V9.26H178.468L177.978 11.43H179.168V12.494H177.754L177.166 15.168H176.06L176.648 12.494H174.576L174.002 15.168H172.882ZM174.8 11.43H176.872L177.348 9.26H175.29L174.8 11.43ZM184.264 15.168C183.714 15.168 183.219 15.0887 182.78 14.93C182.351 14.7713 181.982 14.5147 181.674 14.16C181.376 13.8053 181.147 13.3293 180.988 12.732C180.83 12.1253 180.75 11.374 180.75 10.478C180.75 9.48867 180.83 8.66267 180.988 8C181.147 7.328 181.371 6.79133 181.66 6.39C181.959 5.97933 182.323 5.68533 182.752 5.508C183.191 5.32133 183.686 5.228 184.236 5.228C184.927 5.228 185.482 5.35867 185.902 5.62C186.332 5.88133 186.644 6.236 186.84 6.684C187.036 7.12267 187.134 7.62667 187.134 8.196H185.874C185.874 7.76667 185.814 7.40733 185.692 7.118C185.571 6.82867 185.38 6.614 185.118 6.474C184.866 6.334 184.549 6.264 184.166 6.264C183.606 6.264 183.168 6.41333 182.85 6.712C182.542 7.00133 182.328 7.426 182.206 7.986C182.094 8.546 182.034 9.21333 182.024 9.988C182.155 9.77333 182.337 9.57733 182.57 9.4C182.813 9.22267 183.098 9.08267 183.424 8.98C183.751 8.868 184.096 8.812 184.46 8.812C185.151 8.812 185.72 8.952 186.168 9.232C186.616 9.50267 186.948 9.876 187.162 10.352C187.377 10.828 187.484 11.36 187.484 11.948C187.484 12.592 187.344 13.1567 187.064 13.642C186.784 14.1273 186.402 14.5053 185.916 14.776C185.431 15.0373 184.88 15.168 184.264 15.168ZM184.18 14.132C184.638 14.132 185.016 14.034 185.314 13.838C185.613 13.6327 185.832 13.3667 185.972 13.04C186.122 12.704 186.196 12.3353 186.196 11.934C186.196 11.5513 186.126 11.2013 185.986 10.884C185.846 10.5667 185.627 10.3147 185.328 10.128C185.039 9.932 184.666 9.834 184.208 9.834C183.751 9.834 183.368 9.932 183.06 10.128C182.752 10.324 182.524 10.5853 182.374 10.912C182.225 11.2293 182.15 11.5933 182.15 12.004C182.15 12.3867 182.225 12.7413 182.374 13.068C182.524 13.3947 182.748 13.656 183.046 13.852C183.345 14.0387 183.723 14.132 184.18 14.132ZM193.312 15.168C192.332 15.168 191.501 14.9907 190.82 14.636C190.138 14.272 189.616 13.726 189.252 12.998C188.897 12.2607 188.72 11.3273 188.72 10.198C188.72 8.52733 189.126 7.28133 189.938 6.46C190.75 5.63867 191.879 5.228 193.326 5.228C194.147 5.228 194.875 5.36333 195.51 5.634C196.144 5.89533 196.639 6.29667 196.994 6.838C197.358 7.37 197.54 8.042 197.54 8.854H196.196C196.196 8.294 196.074 7.832 195.832 7.468C195.598 7.104 195.267 6.83333 194.838 6.656C194.408 6.46933 193.904 6.376 193.326 6.376C192.654 6.376 192.075 6.50667 191.59 6.768C191.104 7.02933 190.736 7.43533 190.484 7.986C190.232 8.52733 190.106 9.22733 190.106 10.086V10.38C190.106 11.2293 190.232 11.9247 190.484 12.466C190.736 12.998 191.1 13.39 191.576 13.642C192.061 13.894 192.644 14.02 193.326 14.02C193.923 14.02 194.436 13.9313 194.866 13.754C195.304 13.5767 195.64 13.306 195.874 12.942C196.116 12.5687 196.238 12.102 196.238 11.542H197.54C197.54 12.3727 197.353 13.054 196.98 13.586C196.616 14.118 196.116 14.5147 195.482 14.776C194.847 15.0373 194.124 15.168 193.312 15.168ZM202.307 15.168C201.757 15.168 201.262 15.0887 200.823 14.93C200.394 14.7713 200.025 14.5147 199.717 14.16C199.419 13.8053 199.19 13.3293 199.031 12.732C198.873 12.1253 198.793 11.374 198.793 10.478C198.793 9.48867 198.873 8.66267 199.031 8C199.19 7.328 199.414 6.79133 199.703 6.39C200.002 5.97933 200.366 5.68533 200.795 5.508C201.234 5.32133 201.729 5.228 202.279 5.228C202.97 5.228 203.525 5.35867 203.945 5.62C204.375 5.88133 204.687 6.236 204.883 6.684C205.079 7.12267 205.177 7.62667 205.177 8.196H203.917C203.917 7.76667 203.857 7.40733 203.735 7.118C203.614 6.82867 203.423 6.614 203.161 6.474C202.909 6.334 202.592 6.264 202.209 6.264C201.649 6.264 201.211 6.41333 200.893 6.712C200.585 7.00133 200.371 7.426 200.249 7.986C200.137 8.546 200.077 9.21333 200.067 9.988C200.198 9.77333 200.38 9.57733 200.613 9.4C200.856 9.22267 201.141 9.08267 201.467 8.98C201.794 8.868 202.139 8.812 202.503 8.812C203.194 8.812 203.763 8.952 204.211 9.232C204.659 9.50267 204.991 9.876 205.205 10.352C205.42 10.828 205.527 11.36 205.527 11.948C205.527 12.592 205.387 13.1567 205.107 13.642C204.827 14.1273 204.445 14.5053 203.959 14.776C203.474 15.0373 202.923 15.168 202.307 15.168ZM202.223 14.132C202.681 14.132 203.059 14.034 203.357 13.838C203.656 13.6327 203.875 13.3667 204.015 13.04C204.165 12.704 204.239 12.3353 204.239 11.934C204.239 11.5513 204.169 11.2013 204.029 10.884C203.889 10.5667 203.67 10.3147 203.371 10.128C203.082 9.932 202.709 9.834 202.251 9.834C201.794 9.834 201.411 9.932 201.103 10.128C200.795 10.324 200.567 10.5853 200.417 10.912C200.268 11.2293 200.193 11.5933 200.193 12.004C200.193 12.3867 200.268 12.7413 200.417 13.068C200.567 13.3947 200.791 13.656 201.089 13.852C201.388 14.0387 201.766 14.132 202.223 14.132ZM210.067 15.168C209.273 15.168 208.629 15.042 208.135 14.79C207.64 14.538 207.276 14.202 207.043 13.782C206.819 13.362 206.707 12.8953 206.707 12.382C206.707 11.8593 206.837 11.3973 207.099 10.996C207.36 10.5947 207.771 10.2867 208.331 10.072C207.883 9.83867 207.542 9.53067 207.309 9.148C207.085 8.76533 206.973 8.34067 206.973 7.874C206.973 7.37933 207.085 6.936 207.309 6.544C207.542 6.14267 207.887 5.82533 208.345 5.592C208.811 5.34933 209.385 5.228 210.067 5.228C210.748 5.228 211.317 5.34933 211.775 5.592C212.232 5.82533 212.577 6.14267 212.811 6.544C213.044 6.936 213.161 7.37933 213.161 7.874C213.161 8.34067 213.044 8.76533 212.811 9.148C212.577 9.53067 212.237 9.83867 211.789 10.072C212.358 10.2867 212.769 10.5947 213.021 10.996C213.282 11.3973 213.413 11.8593 213.413 12.382C213.413 12.8953 213.296 13.362 213.063 13.782C212.839 14.202 212.479 14.538 211.985 14.79C211.499 15.042 210.86 15.168 210.067 15.168ZM210.067 14.146C210.748 14.146 211.261 13.9873 211.607 13.67C211.952 13.3527 212.125 12.9187 212.125 12.368C212.125 11.8267 211.952 11.3973 211.607 11.08C211.261 10.7627 210.748 10.604 210.067 10.604C209.385 10.604 208.867 10.7627 208.513 11.08C208.167 11.3973 207.995 11.8267 207.995 12.368C207.995 12.9187 208.167 13.3527 208.513 13.67C208.867 13.9873 209.385 14.146 210.067 14.146ZM210.067 9.582C210.636 9.582 211.084 9.43733 211.411 9.148C211.737 8.84933 211.901 8.434 211.901 7.902C211.901 7.37933 211.737 6.97333 211.411 6.684C211.084 6.39467 210.636 6.25 210.067 6.25C209.497 6.25 209.049 6.39467 208.723 6.684C208.396 6.97333 208.233 7.37933 208.233 7.902C208.233 8.434 208.396 8.84933 208.723 9.148C209.049 9.43733 209.497 9.582 210.067 9.582ZM218.204 15.168C217.653 15.168 217.158 15.0887 216.72 14.93C216.29 14.7713 215.922 14.5147 215.614 14.16C215.315 13.8053 215.086 13.3293 214.928 12.732C214.769 12.1253 214.69 11.374 214.69 10.478C214.69 9.48867 214.769 8.66267 214.928 8C215.086 7.328 215.31 6.79133 215.6 6.39C215.898 5.97933 216.262 5.68533 216.692 5.508C217.13 5.32133 217.625 5.228 218.176 5.228C218.866 5.228 219.422 5.35867 219.842 5.62C220.271 5.88133 220.584 6.236 220.78 6.684C220.976 7.12267 221.074 7.62667 221.074 8.196H219.814C219.814 7.76667 219.753 7.40733 219.632 7.118C219.51 6.82867 219.319 6.614 219.058 6.474C218.806 6.334 218.488 6.264 218.106 6.264C217.546 6.264 217.107 6.41333 216.79 6.712C216.482 7.00133 216.267 7.426 216.146 7.986C216.034 8.546 215.973 9.21333 215.964 9.988C216.094 9.77333 216.276 9.57733 216.51 9.4C216.752 9.22267 217.037 9.08267 217.364 8.98C217.69 8.868 218.036 8.812 218.4 8.812C219.09 8.812 219.66 8.952 220.108 9.232C220.556 9.50267 220.887 9.876 221.102 10.352C221.316 10.828 221.424 11.36 221.424 11.948C221.424 12.592 221.284 13.1567 221.004 13.642C220.724 14.1273 220.341 14.5053 219.856 14.776C219.37 15.0373 218.82 15.168 218.204 15.168ZM218.12 14.132C218.577 14.132 218.955 14.034 219.254 13.838C219.552 13.6327 219.772 13.3667 219.912 13.04C220.061 12.704 220.136 12.3353 220.136 11.934C220.136 11.5513 220.066 11.2013 219.926 10.884C219.786 10.5667 219.566 10.3147 219.268 10.128C218.978 9.932 218.605 9.834 218.148 9.834C217.69 9.834 217.308 9.932 217 10.128C216.692 10.324 216.463 10.5853 216.314 10.912C216.164 11.2293 216.09 11.5933 216.09 12.004C216.09 12.3867 216.164 12.7413 216.314 13.068C216.463 13.3947 216.687 13.656 216.986 13.852C217.284 14.0387 217.662 14.132 218.12 14.132ZM222.645 15V14.594C222.645 14.202 222.72 13.8427 222.869 13.516C223.028 13.18 223.233 12.8767 223.485 12.606C223.747 12.326 224.041 12.06 224.367 11.808C224.694 11.556 225.025 11.3087 225.361 11.066C225.819 10.7487 226.239 10.4313 226.621 10.114C227.013 9.79667 227.326 9.456 227.559 9.092C227.793 8.71867 227.909 8.30333 227.909 7.846C227.909 7.55667 227.839 7.29533 227.699 7.062C227.569 6.81933 227.368 6.628 227.097 6.488C226.827 6.348 226.481 6.278 226.061 6.278C225.567 6.278 225.17 6.362 224.871 6.53C224.573 6.698 224.353 6.922 224.213 7.202C224.083 7.482 224.017 7.79 224.017 8.126V8.7H222.799C222.79 8.65333 222.781 8.58333 222.771 8.49C222.762 8.38733 222.757 8.27067 222.757 8.14C222.757 7.44933 222.911 6.894 223.219 6.474C223.527 6.04467 223.938 5.732 224.451 5.536C224.965 5.33067 225.52 5.228 226.117 5.228C226.649 5.228 227.107 5.30267 227.489 5.452C227.872 5.592 228.189 5.788 228.441 6.04C228.693 6.292 228.88 6.58133 229.001 6.908C229.123 7.22533 229.183 7.56133 229.183 7.916C229.183 8.35467 229.104 8.756 228.945 9.12C228.796 9.484 228.581 9.82467 228.301 10.142C228.031 10.45 227.709 10.7487 227.335 11.038C226.971 11.3273 226.575 11.6213 226.145 11.92C225.847 12.116 225.553 12.326 225.263 12.55C224.974 12.7647 224.727 12.984 224.521 13.208C224.316 13.432 224.185 13.6467 224.129 13.852H229.239V15H222.645Z" fill="#272433"/><line x1="199.354" y1="23.6464" x2="212.354" y2="36.6464" stroke="#272433"/><path d="M251.882 15.168L252.47 12.494H251.336V11.43H252.694L253.17 9.26H251.98V8.196H253.408L254.066 5.228H255.172L254.514 8.196H256.572L257.23 5.228H258.35L257.678 8.196H258.798V9.26H257.468L256.978 11.43H258.168V12.494H256.754L256.166 15.168H255.06L255.648 12.494H253.576L253.002 15.168H251.882ZM253.8 11.43H255.872L256.348 9.26H254.29L253.8 11.43ZM260.268 15V5.396H267.072V6.544H261.598V9.624H266.582V10.758H261.598V15H260.268ZM271.571 15.168C270.777 15.168 270.133 15.042 269.639 14.79C269.144 14.538 268.78 14.202 268.547 13.782C268.323 13.362 268.211 12.8953 268.211 12.382C268.211 11.8593 268.341 11.3973 268.603 10.996C268.864 10.5947 269.275 10.2867 269.835 10.072C269.387 9.83867 269.046 9.53067 268.813 9.148C268.589 8.76533 268.477 8.34067 268.477 7.874C268.477 7.37933 268.589 6.936 268.813 6.544C269.046 6.14267 269.391 5.82533 269.849 5.592C270.315 5.34933 270.889 5.228 271.571 5.228C272.252 5.228 272.821 5.34933 273.279 5.592C273.736 5.82533 274.081 6.14267 274.315 6.544C274.548 6.936 274.665 7.37933 274.665 7.874C274.665 8.34067 274.548 8.76533 274.315 9.148C274.081 9.53067 273.741 9.83867 273.293 10.072C273.862 10.2867 274.273 10.5947 274.525 10.996C274.786 11.3973 274.917 11.8593 274.917 12.382C274.917 12.8953 274.8 13.362 274.567 13.782C274.343 14.202 273.983 14.538 273.489 14.79C273.003 15.042 272.364 15.168 271.571 15.168ZM271.571 14.146C272.252 14.146 272.765 13.9873 273.111 13.67C273.456 13.3527 273.629 12.9187 273.629 12.368C273.629 11.8267 273.456 11.3973 273.111 11.08C272.765 10.7627 272.252 10.604 271.571 10.604C270.889 10.604 270.371 10.7627 270.017 11.08C269.671 11.3973 269.499 11.8267 269.499 12.368C269.499 12.9187 269.671 13.3527 270.017 13.67C270.371 13.9873 270.889 14.146 271.571 14.146ZM271.571 9.582C272.14 9.582 272.588 9.43733 272.915 9.148C273.241 8.84933 273.405 8.434 273.405 7.902C273.405 7.37933 273.241 6.97333 272.915 6.684C272.588 6.39467 272.14 6.25 271.571 6.25C271.001 6.25 270.553 6.39467 270.227 6.684C269.9 6.97333 269.737 7.37933 269.737 7.902C269.737 8.434 269.9 8.84933 270.227 9.148C270.553 9.43733 271.001 9.582 271.571 9.582ZM275.606 15L279.4 5.396H281.15L284.958 15H283.516L282.578 12.62H277.902L276.978 15H275.606ZM278.336 11.486H282.13L280.968 8.476C280.94 8.392 280.898 8.27533 280.842 8.126C280.786 7.97667 280.725 7.81333 280.66 7.636C280.594 7.44933 280.529 7.26267 280.464 7.076C280.398 6.88 280.338 6.70267 280.282 6.544H280.198C280.132 6.73067 280.058 6.94533 279.974 7.188C279.89 7.43067 279.806 7.66867 279.722 7.902C279.638 8.126 279.568 8.31733 279.512 8.476L278.336 11.486ZM286.171 15V5.396H293.563V6.544H287.501V9.512H292.947V10.66H287.501V13.852H293.647V15H286.171ZM295.295 15V13.95H297.717V7.3H295.281V6.516C295.627 6.488 295.981 6.43667 296.345 6.362C296.719 6.28733 297.083 6.17067 297.437 6.012C297.792 5.844 298.114 5.62933 298.403 5.368H298.963V13.95H301.245V15H295.295ZM301.672 15L305.466 5.396H307.216L311.024 15H309.582L308.644 12.62H303.968L303.044 15H301.672ZM304.402 11.486H308.196L307.034 8.476C307.006 8.392 306.964 8.27533 306.908 8.126C306.852 7.97667 306.791 7.81333 306.726 7.636C306.661 7.44933 306.595 7.26267 306.53 7.076C306.465 6.88 306.404 6.70267 306.348 6.544H306.264C306.199 6.73067 306.124 6.94533 306.04 7.188C305.956 7.43067 305.872 7.66867 305.788 7.902C305.704 8.126 305.634 8.31733 305.578 8.476L304.402 11.486Z" fill="#272433"/><line x1="278.354" y1="23.6464" x2="291.354" y2="36.6464" stroke="#272433"/><path d="M339.882 15.168L340.47 12.494H339.336V11.43H340.694L341.17 9.26H339.98V8.196H341.408L342.066 5.228H343.172L342.514 8.196H344.572L345.23 5.228H346.35L345.678 8.196H346.798V9.26H345.468L344.978 11.43H346.168V12.494H344.754L344.166 15.168H343.06L343.648 12.494H341.576L341.002 15.168H339.882ZM341.8 11.43H343.872L344.348 9.26H342.29L341.8 11.43ZM348.268 15V5.396H355.072V6.544H349.598V9.624H354.582V10.758H349.598V15H348.268ZM359.613 15.168C358.941 15.168 358.353 15.042 357.849 14.79C357.345 14.538 356.953 14.1787 356.673 13.712C356.393 13.236 356.253 12.6713 356.253 12.018H357.499C357.499 12.4567 357.592 12.8347 357.779 13.152C357.965 13.4693 358.217 13.712 358.535 13.88C358.861 14.048 359.221 14.132 359.613 14.132C360.014 14.132 360.369 14.0527 360.677 13.894C360.985 13.726 361.223 13.474 361.391 13.138C361.568 12.802 361.657 12.3773 361.657 11.864C361.657 11.3973 361.577 11.0147 361.419 10.716C361.26 10.408 361.031 10.1793 360.733 10.03C360.443 9.88067 360.107 9.806 359.725 9.806C359.445 9.806 359.179 9.85267 358.927 9.946C358.675 10.03 358.446 10.1513 358.241 10.31C358.045 10.4687 357.881 10.6647 357.751 10.898L356.589 10.716L356.995 5.396H362.441V6.544H358.073L357.849 9.54C358.007 9.4 358.185 9.274 358.381 9.162C358.586 9.04067 358.819 8.94733 359.081 8.882C359.342 8.80733 359.641 8.77 359.977 8.77C360.527 8.77 361.027 8.87733 361.475 9.092C361.923 9.30667 362.277 9.638 362.539 10.086C362.8 10.534 362.931 11.1127 362.931 11.822C362.931 12.522 362.795 13.124 362.525 13.628C362.263 14.132 361.885 14.5147 361.391 14.776C360.896 15.0373 360.303 15.168 359.613 15.168ZM364.671 15V5.396H368.255C369.263 5.396 370.121 5.564 370.831 5.9C371.54 6.236 372.081 6.75867 372.455 7.468C372.837 8.168 373.029 9.078 373.029 10.198C373.029 11.2993 372.837 12.2047 372.455 12.914C372.081 13.6233 371.54 14.1507 370.831 14.496C370.121 14.832 369.263 15 368.255 15H364.671ZM366.001 13.852H368.227C368.759 13.852 369.235 13.7867 369.655 13.656C370.075 13.516 370.434 13.306 370.733 13.026C371.031 12.746 371.255 12.3867 371.405 11.948C371.563 11.5 371.643 10.968 371.643 10.352V10.072C371.643 9.43733 371.563 8.90067 371.405 8.462C371.255 8.014 371.031 7.65 370.733 7.37C370.443 7.09 370.089 6.88467 369.669 6.754C369.249 6.614 368.768 6.544 368.227 6.544H366.001V13.852ZM377.696 15.168C376.949 15.168 376.319 15.056 375.806 14.832C375.293 14.5987 374.905 14.272 374.644 13.852C374.383 13.432 374.252 12.9327 374.252 12.354V12.172H375.498V12.354C375.498 12.9327 375.68 13.376 376.044 13.684C376.417 13.9827 376.931 14.132 377.584 14.132C378.237 14.132 378.765 13.992 379.166 13.712C379.567 13.4227 379.768 12.9653 379.768 12.34C379.768 11.8827 379.661 11.5327 379.446 11.29C379.231 11.0473 378.951 10.8793 378.606 10.786C378.27 10.6833 377.911 10.632 377.528 10.632H376.52V9.596H377.57C377.925 9.596 378.251 9.54 378.55 9.428C378.849 9.316 379.087 9.134 379.264 8.882C379.451 8.62067 379.544 8.28467 379.544 7.874C379.544 7.50067 379.46 7.19733 379.292 6.964C379.133 6.73067 378.914 6.558 378.634 6.446C378.354 6.32467 378.046 6.264 377.71 6.264C377.337 6.264 377.001 6.32933 376.702 6.46C376.403 6.58133 376.165 6.768 375.988 7.02C375.82 7.272 375.736 7.58933 375.736 7.972V8.154H374.476V7.902C374.476 7.37 374.611 6.90333 374.882 6.502C375.162 6.10067 375.54 5.788 376.016 5.564C376.501 5.34 377.057 5.228 377.682 5.228C378.298 5.228 378.839 5.326 379.306 5.522C379.782 5.718 380.155 6.00733 380.426 6.39C380.697 6.77267 380.832 7.244 380.832 7.804C380.832 8.21467 380.757 8.56467 380.608 8.854C380.459 9.134 380.263 9.36733 380.02 9.554C379.777 9.74067 379.516 9.89467 379.236 10.016V10.072C379.749 10.2213 380.179 10.492 380.524 10.884C380.869 11.276 381.042 11.7893 381.042 12.424C381.042 12.9933 380.897 13.4833 380.608 13.894C380.328 14.3047 379.931 14.622 379.418 14.846C378.914 15.0607 378.34 15.168 377.696 15.168ZM382.809 15V5.396H386.393C387.401 5.396 388.26 5.564 388.969 5.9C389.679 6.236 390.22 6.75867 390.593 7.468C390.976 8.168 391.167 9.078 391.167 10.198C391.167 11.2993 390.976 12.2047 390.593 12.914C390.22 13.6233 389.679 14.1507 388.969 14.496C388.26 14.832 387.401 15 386.393 15H382.809ZM384.139 13.852H386.365C386.897 13.852 387.373 13.7867 387.793 13.656C388.213 13.516 388.573 13.306 388.871 13.026C389.17 12.746 389.394 12.3867 389.543 11.948C389.702 11.5 389.781 10.968 389.781 10.352V10.072C389.781 9.43733 389.702 8.90067 389.543 8.462C389.394 8.014 389.17 7.65 388.871 7.37C388.582 7.09 388.227 6.88467 387.807 6.754C387.387 6.614 386.907 6.544 386.365 6.544H384.139V13.852ZM396.003 15.168C395.452 15.168 394.957 15.0887 394.519 14.93C394.089 14.7713 393.721 14.5147 393.413 14.16C393.114 13.8053 392.885 13.3293 392.727 12.732C392.568 12.1253 392.489 11.374 392.489 10.478C392.489 9.48867 392.568 8.66267 392.727 8C392.885 7.328 393.109 6.79133 393.399 6.39C393.697 5.97933 394.061 5.68533 394.491 5.508C394.929 5.32133 395.424 5.228 395.975 5.228C396.665 5.228 397.221 5.35867 397.641 5.62C398.07 5.88133 398.383 6.236 398.579 6.684C398.775 7.12267 398.873 7.62667 398.873 8.196H397.613C397.613 7.76667 397.552 7.40733 397.431 7.118C397.309 6.82867 397.118 6.614 396.857 6.474C396.605 6.334 396.287 6.264 395.905 6.264C395.345 6.264 394.906 6.41333 394.589 6.712C394.281 7.00133 394.066 7.426 393.945 7.986C393.833 8.546 393.772 9.21333 393.763 9.988C393.893 9.77333 394.075 9.57733 394.309 9.4C394.551 9.22267 394.836 9.08267 395.163 8.98C395.489 8.868 395.835 8.812 396.199 8.812C396.889 8.812 397.459 8.952 397.907 9.232C398.355 9.50267 398.686 9.876 398.901 10.352C399.115 10.828 399.223 11.36 399.223 11.948C399.223 12.592 399.083 13.1567 398.803 13.642C398.523 14.1273 398.14 14.5053 397.655 14.776C397.169 15.0373 396.619 15.168 396.003 15.168ZM395.919 14.132C396.376 14.132 396.754 14.034 397.053 13.838C397.351 13.6327 397.571 13.3667 397.711 13.04C397.86 12.704 397.935 12.3353 397.935 11.934C397.935 11.5513 397.865 11.2013 397.725 10.884C397.585 10.5667 397.365 10.3147 397.067 10.128C396.777 9.932 396.404 9.834 395.947 9.834C395.489 9.834 395.107 9.932 394.799 10.128C394.491 10.324 394.262 10.5853 394.113 10.912C393.963 11.2293 393.889 11.5933 393.889 12.004C393.889 12.3867 393.963 12.7413 394.113 13.068C394.262 13.3947 394.486 13.656 394.785 13.852C395.083 14.0387 395.461 14.132 395.919 14.132Z" fill="#272433"/><line x1="366.354" y1="23.6464" x2="379.354" y2="36.6464" stroke="#272433"/><line x1="84.6464" y1="82.6464" x2="111.646" y2="55.6464" stroke="#272433"/><rect x="258" y="37" width="57" height="24" rx="12" fill="#F8AE1A"/><path d="M276.997 50.9973C277.163 51.1633 277.189 51.4268 277.036 51.6049C276.302 52.459 275.214 53.0001 274 53.0001C272.786 53.0001 271.698 52.459 270.964 51.6049C270.811 51.4268 270.837 51.1633 271.003 50.9973C271.225 50.7755 271.596 50.822 271.81 51.051C272.358 51.6351 273.136 52.0001 274 52.0001C274.864 52.0001 275.642 51.6351 276.189 51.051C276.404 50.822 276.775 50.7755 276.997 50.9973Z" fill="#26252A"/><path d="M272.5 47.5C272.5 48.0523 272.052 48.5 271.5 48.5C270.948 48.5 270.5 48.0523 270.5 47.5C270.5 46.9477 270.948 46.5 271.5 46.5C272.052 46.5 272.5 46.9477 272.5 47.5Z" fill="#26252A"/><path d="M276.5 48.5C277.052 48.5 277.5 48.0523 277.5 47.5C277.5 46.9477 277.052 46.5 276.5 46.5C275.948 46.5 275.5 46.9477 275.5 47.5C275.5 48.0523 275.948 48.5 276.5 48.5Z" fill="#26252A"/><path fill-rule="evenodd" clip-rule="evenodd" d="M281 49C281 52.866 277.866 56 274 56C270.134 56 267 52.866 267 49C267 45.134 270.134 42 274 42C277.866 42 281 45.134 281 49ZM280 49C280 52.3137 277.314 55 274 55C270.686 55 268 52.3137 268 49C268 45.6863 270.686 43 274 43C277.314 43 280 45.6863 280 49Z" fill="#26252A"/><path d="M286.58 45.2102V44.2727H293.125V45.2102H290.381V53H289.324V45.2102H286.58ZM295.655 53.1534C295.24 53.1534 294.864 53.0753 294.526 52.919C294.188 52.7599 293.919 52.5312 293.721 52.233C293.522 51.9318 293.422 51.5682 293.422 51.142C293.422 50.767 293.496 50.4631 293.644 50.2301C293.792 49.9943 293.989 49.8097 294.236 49.6761C294.483 49.5426 294.756 49.4432 295.054 49.3778C295.355 49.3097 295.658 49.2557 295.962 49.2159C296.36 49.1648 296.682 49.1264 296.929 49.1009C297.179 49.0724 297.361 49.0256 297.475 48.9602C297.591 48.8949 297.65 48.7812 297.65 48.6193V48.5852C297.65 48.1648 297.534 47.8381 297.304 47.6051C297.077 47.3722 296.732 47.2557 296.269 47.2557C295.789 47.2557 295.412 47.3608 295.14 47.571C294.867 47.7812 294.675 48.0057 294.564 48.2443L293.61 47.9034C293.78 47.5057 294.007 47.196 294.292 46.9744C294.578 46.75 294.891 46.5937 295.229 46.5057C295.57 46.4148 295.905 46.3693 296.235 46.3693C296.445 46.3693 296.686 46.3949 296.959 46.446C297.235 46.4943 297.5 46.5952 297.756 46.7486C298.015 46.902 298.229 47.1335 298.4 47.4432C298.57 47.7528 298.655 48.1676 298.655 48.6875V53H297.65V52.1136H297.598C297.53 52.2557 297.417 52.4077 297.257 52.5696C297.098 52.7315 296.887 52.8693 296.623 52.983C296.358 53.0966 296.036 53.1534 295.655 53.1534ZM295.809 52.25C296.206 52.25 296.542 52.1719 296.814 52.0156C297.09 51.8594 297.297 51.6577 297.436 51.4105C297.578 51.1634 297.65 50.9034 297.65 50.6307V49.7102C297.607 49.7614 297.513 49.8082 297.368 49.8509C297.226 49.8906 297.061 49.9261 296.874 49.9574C296.689 49.9858 296.509 50.0114 296.333 50.0341C296.159 50.054 296.019 50.071 295.911 50.0852C295.65 50.1193 295.405 50.1747 295.178 50.2514C294.953 50.3253 294.772 50.4375 294.632 50.5881C294.496 50.7358 294.428 50.9375 294.428 51.1932C294.428 51.5426 294.557 51.8068 294.816 51.9858C295.077 52.1619 295.408 52.25 295.809 52.25ZM303.133 55.5909C302.647 55.5909 302.229 55.5284 301.88 55.4034C301.531 55.2812 301.239 55.1193 301.006 54.9176C300.776 54.7188 300.593 54.5057 300.457 54.2784L301.258 53.7159C301.349 53.8352 301.464 53.9716 301.603 54.125C301.742 54.2812 301.933 54.4162 302.174 54.5298C302.418 54.6463 302.738 54.7045 303.133 54.7045C303.661 54.7045 304.097 54.5767 304.441 54.321C304.785 54.0653 304.957 53.6648 304.957 53.1193V51.7898H304.871C304.798 51.9091 304.692 52.0568 304.556 52.233C304.423 52.4062 304.229 52.5611 303.977 52.6974C303.727 52.831 303.388 52.8977 302.962 52.8977C302.434 52.8977 301.96 52.7727 301.539 52.5227C301.121 52.2727 300.79 51.9091 300.546 51.4318C300.305 50.9545 300.184 50.375 300.184 49.6932C300.184 49.0227 300.302 48.4389 300.538 47.9418C300.773 47.4418 301.102 47.0554 301.522 46.7827C301.942 46.5071 302.428 46.3693 302.979 46.3693C303.406 46.3693 303.744 46.4403 303.994 46.5824C304.246 46.7216 304.44 46.8807 304.573 47.0597C304.71 47.2358 304.815 47.3807 304.888 47.4943H304.991V46.4545H305.962V53.1875C305.962 53.75 305.835 54.2074 305.579 54.5597C305.326 54.9148 304.985 55.1747 304.556 55.3395C304.13 55.5071 303.656 55.5909 303.133 55.5909ZM303.099 51.9943C303.502 51.9943 303.843 51.902 304.121 51.7173C304.4 51.5327 304.612 51.267 304.756 50.9205C304.901 50.5739 304.974 50.1591 304.974 49.6761C304.974 49.2045 304.903 48.7884 304.761 48.4276C304.619 48.0668 304.408 47.7841 304.13 47.5795C303.852 47.375 303.508 47.2727 303.099 47.2727C302.673 47.2727 302.317 47.3807 302.033 47.5966C301.752 47.8125 301.54 48.1023 301.398 48.4659C301.259 48.8295 301.19 49.233 301.19 49.6761C301.19 50.1307 301.261 50.5327 301.403 50.8821C301.548 51.2287 301.761 51.5014 302.042 51.7003C302.326 51.8963 302.678 51.9943 303.099 51.9943Z" fill="#26252A"/><rect x="337" y="37" width="57" height="24" rx="12" fill="#F5D3D6"/><path d="M355.997 50.9973C356.163 51.1633 356.189 51.4268 356.036 51.6049C355.302 52.459 354.214 53.0001 353 53.0001C351.786 53.0001 350.698 52.459 349.964 51.6049C349.811 51.4268 349.837 51.1633 350.003 50.9973C350.225 50.7755 350.596 50.822 350.81 51.051C351.358 51.6351 352.136 52.0001 353 52.0001C353.864 52.0001 354.642 51.6351 355.189 51.051C355.404 50.822 355.775 50.7755 355.997 50.9973Z" fill="#26252A"/><path d="M351.5 47.5C351.5 48.0523 351.052 48.5 350.5 48.5C349.948 48.5 349.5 48.0523 349.5 47.5C349.5 46.9477 349.948 46.5 350.5 46.5C351.052 46.5 351.5 46.9477 351.5 47.5Z" fill="#26252A"/><path d="M355.5 48.5C356.052 48.5 356.5 48.0523 356.5 47.5C356.5 46.9477 356.052 46.5 355.5 46.5C354.948 46.5 354.5 46.9477 354.5 47.5C354.5 48.0523 354.948 48.5 355.5 48.5Z" fill="#26252A"/><path fill-rule="evenodd" clip-rule="evenodd" d="M360 49C360 52.866 356.866 56 353 56C349.134 56 346 52.866 346 49C346 45.134 349.134 42 353 42C356.866 42 360 45.134 360 49ZM359 49C359 52.3137 356.314 55 353 55C349.686 55 347 52.3137 347 49C347 45.6863 349.686 43 353 43C356.314 43 359 45.6863 359 49Z" fill="#26252A"/><path d="M365.58 45.2102V44.2727H372.125V45.2102H369.381V53H368.324V45.2102H365.58ZM374.655 53.1534C374.24 53.1534 373.864 53.0753 373.526 52.919C373.188 52.7599 372.919 52.5312 372.721 52.233C372.522 51.9318 372.422 51.5682 372.422 51.142C372.422 50.767 372.496 50.4631 372.644 50.2301C372.792 49.9943 372.989 49.8097 373.236 49.6761C373.483 49.5426 373.756 49.4432 374.054 49.3778C374.355 49.3097 374.658 49.2557 374.962 49.2159C375.36 49.1648 375.682 49.1264 375.929 49.1009C376.179 49.0724 376.361 49.0256 376.475 48.9602C376.591 48.8949 376.65 48.7812 376.65 48.6193V48.5852C376.65 48.1648 376.534 47.8381 376.304 47.6051C376.077 47.3722 375.732 47.2557 375.269 47.2557C374.789 47.2557 374.412 47.3608 374.14 47.571C373.867 47.7812 373.675 48.0057 373.564 48.2443L372.61 47.9034C372.78 47.5057 373.007 47.196 373.292 46.9744C373.578 46.75 373.891 46.5937 374.229 46.5057C374.57 46.4148 374.905 46.3693 375.235 46.3693C375.445 46.3693 375.686 46.3949 375.959 46.446C376.235 46.4943 376.5 46.5952 376.756 46.7486C377.015 46.902 377.229 47.1335 377.4 47.4432C377.57 47.7528 377.655 48.1676 377.655 48.6875V53H376.65V52.1136H376.598C376.53 52.2557 376.417 52.4077 376.257 52.5696C376.098 52.7315 375.887 52.8693 375.623 52.983C375.358 53.0966 375.036 53.1534 374.655 53.1534ZM374.809 52.25C375.206 52.25 375.542 52.1719 375.814 52.0156C376.09 51.8594 376.297 51.6577 376.436 51.4105C376.578 51.1634 376.65 50.9034 376.65 50.6307V49.7102C376.607 49.7614 376.513 49.8082 376.368 49.8509C376.226 49.8906 376.061 49.9261 375.874 49.9574C375.689 49.9858 375.509 50.0114 375.333 50.0341C375.159 50.054 375.019 50.071 374.911 50.0852C374.65 50.1193 374.405 50.1747 374.178 50.2514C373.953 50.3253 373.772 50.4375 373.632 50.5881C373.496 50.7358 373.428 50.9375 373.428 51.1932C373.428 51.5426 373.557 51.8068 373.816 51.9858C374.077 52.1619 374.408 52.25 374.809 52.25ZM382.133 55.5909C381.647 55.5909 381.229 55.5284 380.88 55.4034C380.531 55.2812 380.239 55.1193 380.006 54.9176C379.776 54.7188 379.593 54.5057 379.457 54.2784L380.258 53.7159C380.349 53.8352 380.464 53.9716 380.603 54.125C380.742 54.2812 380.933 54.4162 381.174 54.5298C381.418 54.6463 381.738 54.7045 382.133 54.7045C382.661 54.7045 383.097 54.5767 383.441 54.321C383.785 54.0653 383.957 53.6648 383.957 53.1193V51.7898H383.871C383.798 51.9091 383.692 52.0568 383.556 52.233C383.423 52.4062 383.229 52.5611 382.977 52.6974C382.727 52.831 382.388 52.8977 381.962 52.8977C381.434 52.8977 380.96 52.7727 380.539 52.5227C380.121 52.2727 379.79 51.9091 379.546 51.4318C379.305 50.9545 379.184 50.375 379.184 49.6932C379.184 49.0227 379.302 48.4389 379.538 47.9418C379.773 47.4418 380.102 47.0554 380.522 46.7827C380.942 46.5071 381.428 46.3693 381.979 46.3693C382.406 46.3693 382.744 46.4403 382.994 46.5824C383.246 46.7216 383.44 46.8807 383.573 47.0597C383.71 47.2358 383.815 47.3807 383.888 47.4943H383.991V46.4545H384.962V53.1875C384.962 53.75 384.835 54.2074 384.579 54.5597C384.326 54.9148 383.985 55.1747 383.556 55.3395C383.13 55.5071 382.656 55.5909 382.133 55.5909ZM382.099 51.9943C382.502 51.9943 382.843 51.902 383.121 51.7173C383.4 51.5327 383.612 51.267 383.756 50.9205C383.901 50.5739 383.974 50.1591 383.974 49.6761C383.974 49.2045 383.903 48.7884 383.761 48.4276C383.619 48.0668 383.408 47.7841 383.13 47.5795C382.852 47.375 382.508 47.2727 382.099 47.2727C381.673 47.2727 381.317 47.3807 381.033 47.5966C380.752 47.8125 380.54 48.1023 380.398 48.4659C380.259 48.8295 380.19 49.233 380.19 49.6761C380.19 50.1307 380.261 50.5327 380.403 50.8821C380.548 51.2287 380.761 51.5014 381.042 51.7003C381.326 51.8963 381.678 51.9943 382.099 51.9943Z" fill="#26252A"/><path d="M293.882 101.168L294.47 98.494H293.336V97.43H294.694L295.17 95.26H293.98V94.196H295.408L296.066 91.228H297.172L296.514 94.196H298.572L299.23 91.228H300.35L299.678 94.196H300.798V95.26H299.468L298.978 97.43H300.168V98.494H298.754L298.166 101.168H297.06L297.648 98.494H295.576L295.002 101.168H293.882ZM295.8 97.43H297.872L298.348 95.26H296.29L295.8 97.43ZM301.764 101V100.594C301.764 100.202 301.839 99.8427 301.988 99.516C302.147 99.18 302.352 98.8767 302.604 98.606C302.866 98.326 303.16 98.06 303.486 97.808C303.813 97.556 304.144 97.3087 304.48 97.066C304.938 96.7487 305.358 96.4313 305.74 96.114C306.132 95.7967 306.445 95.456 306.678 95.092C306.912 94.7187 307.028 94.3033 307.028 93.846C307.028 93.5567 306.958 93.2953 306.818 93.062C306.688 92.8193 306.487 92.628 306.216 92.488C305.946 92.348 305.6 92.278 305.18 92.278C304.686 92.278 304.289 92.362 303.99 92.53C303.692 92.698 303.472 92.922 303.332 93.202C303.202 93.482 303.136 93.79 303.136 94.126V94.7H301.918C301.909 94.6533 301.9 94.5833 301.89 94.49C301.881 94.3873 301.876 94.2707 301.876 94.14C301.876 93.4493 302.03 92.894 302.338 92.474C302.646 92.0447 303.057 91.732 303.57 91.536C304.084 91.3307 304.639 91.228 305.236 91.228C305.768 91.228 306.226 91.3027 306.608 91.452C306.991 91.592 307.308 91.788 307.56 92.04C307.812 92.292 307.999 92.5813 308.12 92.908C308.242 93.2253 308.302 93.5613 308.302 93.916C308.302 94.3547 308.223 94.756 308.064 95.12C307.915 95.484 307.7 95.8247 307.42 96.142C307.15 96.45 306.828 96.7487 306.454 97.038C306.09 97.3273 305.694 97.6213 305.264 97.92C304.966 98.116 304.672 98.326 304.382 98.55C304.093 98.7647 303.846 98.984 303.64 99.208C303.435 99.432 303.304 99.6467 303.248 99.852H308.358V101H301.764ZM313.124 101.168C312.573 101.168 312.078 101.089 311.64 100.93C311.21 100.771 310.842 100.515 310.534 100.16C310.235 99.8053 310.006 99.3293 309.848 98.732C309.689 98.1253 309.61 97.374 309.61 96.478C309.61 95.4887 309.689 94.6627 309.848 94C310.006 93.328 310.23 92.7913 310.52 92.39C310.818 91.9793 311.182 91.6853 311.612 91.508C312.05 91.3213 312.545 91.228 313.096 91.228C313.786 91.228 314.342 91.3587 314.762 91.62C315.191 91.8813 315.504 92.236 315.7 92.684C315.896 93.1227 315.994 93.6267 315.994 94.196H314.734C314.734 93.7667 314.673 93.4073 314.552 93.118C314.43 92.8287 314.239 92.614 313.978 92.474C313.726 92.334 313.408 92.264 313.026 92.264C312.466 92.264 312.027 92.4133 311.71 92.712C311.402 93.0013 311.187 93.426 311.066 93.986C310.954 94.546 310.893 95.2133 310.884 95.988C311.014 95.7733 311.196 95.5773 311.43 95.4C311.672 95.2227 311.957 95.0827 312.284 94.98C312.61 94.868 312.956 94.812 313.32 94.812C314.01 94.812 314.58 94.952 315.028 95.232C315.476 95.5027 315.807 95.876 316.022 96.352C316.236 96.828 316.344 97.36 316.344 97.948C316.344 98.592 316.204 99.1567 315.924 99.642C315.644 100.127 315.261 100.505 314.776 100.776C314.29 101.037 313.74 101.168 313.124 101.168ZM313.04 100.132C313.497 100.132 313.875 100.034 314.174 99.838C314.472 99.6327 314.692 99.3667 314.832 99.04C314.981 98.704 315.056 98.3353 315.056 97.934C315.056 97.5513 314.986 97.2013 314.846 96.884C314.706 96.5667 314.486 96.3147 314.188 96.128C313.898 95.932 313.525 95.834 313.068 95.834C312.61 95.834 312.228 95.932 311.92 96.128C311.612 96.324 311.383 96.5853 311.234 96.912C311.084 97.2293 311.01 97.5933 311.01 98.004C311.01 98.3867 311.084 98.7413 311.234 99.068C311.383 99.3947 311.607 99.656 311.906 99.852C312.204 100.039 312.582 100.132 313.04 100.132ZM317.565 101V100.594C317.565 100.202 317.64 99.8427 317.789 99.516C317.948 99.18 318.153 98.8767 318.405 98.606C318.667 98.326 318.961 98.06 319.287 97.808C319.614 97.556 319.945 97.3087 320.281 97.066C320.739 96.7487 321.159 96.4313 321.541 96.114C321.933 95.7967 322.246 95.456 322.479 95.092C322.713 94.7187 322.829 94.3033 322.829 93.846C322.829 93.5567 322.759 93.2953 322.619 93.062C322.489 92.8193 322.288 92.628 322.017 92.488C321.747 92.348 321.401 92.278 320.981 92.278C320.487 92.278 320.09 92.362 319.791 92.53C319.493 92.698 319.273 92.922 319.133 93.202C319.003 93.482 318.937 93.79 318.937 94.126V94.7H317.719C317.71 94.6533 317.701 94.5833 317.691 94.49C317.682 94.3873 317.677 94.2707 317.677 94.14C317.677 93.4493 317.831 92.894 318.139 92.474C318.447 92.0447 318.858 91.732 319.371 91.536C319.885 91.3307 320.44 91.228 321.037 91.228C321.569 91.228 322.027 91.3027 322.409 91.452C322.792 91.592 323.109 91.788 323.361 92.04C323.613 92.292 323.8 92.5813 323.921 92.908C324.043 93.2253 324.103 93.5613 324.103 93.916C324.103 94.3547 324.024 94.756 323.865 95.12C323.716 95.484 323.501 95.8247 323.221 96.142C322.951 96.45 322.629 96.7487 322.255 97.038C321.891 97.3273 321.495 97.6213 321.065 97.92C320.767 98.116 320.473 98.326 320.183 98.55C319.894 98.7647 319.647 98.984 319.441 99.208C319.236 99.432 319.105 99.6467 319.049 99.852H324.159V101H317.565ZM328.785 101.168C328.113 101.168 327.525 101.042 327.021 100.79C326.517 100.538 326.125 100.179 325.845 99.712C325.565 99.236 325.425 98.6713 325.425 98.018H326.671C326.671 98.4567 326.764 98.8347 326.951 99.152C327.137 99.4693 327.389 99.712 327.707 99.88C328.033 100.048 328.393 100.132 328.785 100.132C329.186 100.132 329.541 100.053 329.849 99.894C330.157 99.726 330.395 99.474 330.563 99.138C330.74 98.802 330.829 98.3773 330.829 97.864C330.829 97.3973 330.749 97.0147 330.591 96.716C330.432 96.408 330.203 96.1793 329.905 96.03C329.615 95.8807 329.279 95.806 328.897 95.806C328.617 95.806 328.351 95.8527 328.099 95.946C327.847 96.03 327.618 96.1513 327.413 96.31C327.217 96.4687 327.053 96.6647 326.923 96.898L325.761 96.716L326.167 91.396H331.613V92.544H327.245L327.021 95.54C327.179 95.4 327.357 95.274 327.553 95.162C327.758 95.0407 327.991 94.9473 328.253 94.882C328.514 94.8073 328.813 94.77 329.149 94.77C329.699 94.77 330.199 94.8773 330.647 95.092C331.095 95.3067 331.449 95.638 331.711 96.086C331.972 96.534 332.103 97.1127 332.103 97.822C332.103 98.522 331.967 99.124 331.697 99.628C331.435 100.132 331.057 100.515 330.563 100.776C330.068 101.037 329.475 101.168 328.785 101.168ZM333.339 101V100.594C333.339 100.202 333.413 99.8427 333.563 99.516C333.721 99.18 333.927 98.8767 334.179 98.606C334.44 98.326 334.734 98.06 335.061 97.808C335.387 97.556 335.719 97.3087 336.055 97.066C336.512 96.7487 336.932 96.4313 337.315 96.114C337.707 95.7967 338.019 95.456 338.253 95.092C338.486 94.7187 338.603 94.3033 338.603 93.846C338.603 93.5567 338.533 93.2953 338.393 93.062C338.262 92.8193 338.061 92.628 337.791 92.488C337.52 92.348 337.175 92.278 336.755 92.278C336.26 92.278 335.863 92.362 335.565 92.53C335.266 92.698 335.047 92.922 334.907 93.202C334.776 93.482 334.711 93.79 334.711 94.126V94.7H333.493C333.483 94.6533 333.474 94.5833 333.465 94.49C333.455 94.3873 333.451 94.2707 333.451 94.14C333.451 93.4493 333.605 92.894 333.913 92.474C334.221 92.0447 334.631 91.732 335.145 91.536C335.658 91.3307 336.213 91.228 336.811 91.228C337.343 91.228 337.8 91.3027 338.183 91.452C338.565 91.592 338.883 91.788 339.135 92.04C339.387 92.292 339.573 92.5813 339.695 92.908C339.816 93.2253 339.877 93.5613 339.877 93.916C339.877 94.3547 339.797 94.756 339.639 95.12C339.489 95.484 339.275 95.8247 338.995 96.142C338.724 96.45 338.402 96.7487 338.029 97.038C337.665 97.3273 337.268 97.6213 336.839 97.92C336.54 98.116 336.246 98.326 335.957 98.55C335.667 98.7647 335.42 98.984 335.215 99.208C335.009 99.432 334.879 99.6467 334.823 99.852H339.933V101H333.339ZM340.596 101L344.39 91.396H346.14L349.948 101H348.506L347.568 98.62H342.892L341.968 101H340.596ZM343.326 97.486H347.12L345.958 94.476C345.93 94.392 345.888 94.2753 345.832 94.126C345.776 93.9767 345.715 93.8133 345.65 93.636C345.585 93.4493 345.519 93.2627 345.454 93.076C345.389 92.88 345.328 92.7027 345.272 92.544H345.188C345.123 92.7307 345.048 92.9453 344.964 93.188C344.88 93.4307 344.796 93.6687 344.712 93.902C344.628 94.126 344.558 94.3173 344.502 94.476L343.326 97.486Z" fill="#272433"/><line x1="296.354" y1="55.6464" x2="323.354" y2="82.6464" stroke="#272433"/><line x1="322.646" y1="82.6464" x2="349.646" y2="55.6464" stroke="#272433"/><path d="M157.882 101.168L158.47 98.494H157.336V97.43H158.694L159.17 95.26H157.98V94.196H159.408L160.066 91.228H161.172L160.514 94.196H162.572L163.23 91.228H164.35L163.678 94.196H164.798V95.26H163.468L162.978 97.43H164.168V98.494H162.754L162.166 101.168H161.06L161.648 98.494H159.576L159.002 101.168H157.882ZM159.8 97.43H161.872L162.348 95.26H160.29L159.8 97.43ZM166.268 101V91.396H173.072V92.544H167.598V95.624H172.582V96.758H167.598V101H166.268ZM174.757 101V91.396H181.561V92.544H176.087V95.624H181.071V96.758H176.087V101H174.757ZM183.245 101V91.396H190.049V92.544H184.575V95.624H189.559V96.758H184.575V101H183.245ZM191.733 101V91.396H198.537V92.544H193.063V95.624H198.047V96.758H193.063V101H191.733ZM200.222 101V91.396H207.026V92.544H201.552V95.624H206.536V96.758H201.552V101H200.222ZM208.71 101V91.396H215.514V92.544H210.04V95.624H215.024V96.758H210.04V101H208.71Z" fill="#272433"/><line x1="186.646" y1="82.6464" x2="213.646" y2="55.6464" stroke="#272433"/></svg>