<svg width="32" height="32" viewBox="0 0 32 32" fill="none" xmlns="http://www.w3.org/2000/svg"><path fill-rule="evenodd" clip-rule="evenodd" d="M22 9C22 12.3137 19.3137 15 16 15C12.6863 15 10 12.3137 10 9C10 5.68629 12.6863 3 16 3C19.3137 3 22 5.68629 22 9ZM20 9C20 11.2091 18.2091 13 16 13C13.7909 13 12 11.2091 12 9C12 6.79086 13.7909 5 16 5C18.2091 5 20 6.79086 20 9Z" fill="#3A3A38"/><path fill-rule="evenodd" clip-rule="evenodd" d="M26 23C26 26.3137 21.5228 29 16 29C10.4772 29 6 26.3137 6 23C6 19.6863 10.4772 17 16 17C21.5228 17 26 19.6863 26 23ZM24 23C24 23.6783 23.5313 24.6341 22.0421 25.5277C20.5927 26.3973 18.4613 27 16 27C13.5387 27 11.4073 26.3973 9.95792 25.5277C8.46872 24.6341 8 23.6783 8 23C8 22.3217 8.46872 21.3659 9.95792 20.4723C11.4073 19.6027 13.5387 19 16 19C18.4613 19 20.5927 19.6027 22.0421 20.4723C23.5313 21.3659 24 22.3217 24 23Z" fill="#3A3A38"/></svg>