<svg width="52" height="32" viewBox="0 0 52 32" fill="none" xmlns="http://www.w3.org/2000/svg">
<path fill-rule="evenodd" clip-rule="evenodd" d="M18.0803 15.9942L18.0755 16C19.1698 16.7207 20 17.7297 20 19.2793C20 21.6577 18 24 14 24C10.0755 24 8 21.6577 8 19.2072C8 17.1892 9.73585 15.7838 10.2264 15.4234C9.35849 14.7027 8.75472 13.8018 8.75472 12.4685C8.75472 10.2342 10.4151 8.03604 14.1887 8C17.2075 8 19.6604 9.58559 19.6604 12.4685C19.6604 14.1098 18.2545 15.7865 18.0803 15.9942ZM14.1142 11.3511C15.1708 11.3511 15.8123 11.9277 15.8123 12.7925C15.8123 13.7295 15.3972 14.4502 15.2462 14.7024C13.8123 14.1259 12.6425 13.5853 12.6425 12.5763C12.6425 11.8916 13.0953 11.3511 14.1142 11.3511ZM12.0386 18.8463C12.0386 19.8553 12.9065 20.6481 14.0009 20.6481C15.2084 20.6481 15.9254 20.1076 15.9254 19.0625C15.9254 18.2652 14.7068 17.7436 13.2747 17.1305C13.1535 17.0786 13.0302 17.0258 12.9065 16.9724C12.5292 17.3688 12.0386 18.0175 12.0386 18.8463Z" fill="#26252A"/>
<path d="M27.1594 14H30.9275L28.0652 18.4825L31 23H27.3043L26.2899 21.144C26.1812 20.9689 26.0362 20.6537 26.0362 20.6537H26C26 20.6537 25.8551 20.9689 25.7464 21.144L24.7319 23H21.0362L23.971 18.4825L21 14H24.7681L25.6014 15.5759C25.7464 15.821 25.9275 16.1012 25.9275 16.1012H25.9638C25.9638 16.1012 26.1812 15.821 26.2899 15.5759L27.1594 14Z" fill="#26252A"/>
<path fill-rule="evenodd" clip-rule="evenodd" d="M42.0755 16.0362L42.0803 16.0304C42.2545 15.8218 43.6604 14.1375 43.6604 12.4887C43.6604 9.59276 41.2076 8 38.1887 8C34.4151 8 32.7547 10.2081 32.7547 12.4525C32.7547 13.7919 33.3585 14.6968 34.2264 15.4208C33.7359 15.7828 32 17.1946 32 19.1855C32 21.6471 34.0755 24 38 24C42 24 44 21.6471 44 19.2579C44 17.7738 43.1698 16.7602 42.0755 16.0362ZM37.9998 20.7053C36.9054 20.7053 36.0375 19.9089 36.0375 18.8954C36.0375 18.0628 36.5281 17.4112 36.9054 17.013C37.0291 17.0667 37.1519 17.1195 37.2732 17.1717C38.7053 17.7875 39.9243 18.3117 39.9243 19.1126C39.9243 20.1623 39.2073 20.7053 37.9998 20.7053ZM39.8114 12.8142C39.8114 11.9454 39.1699 11.3663 38.1133 11.3663C37.0944 11.3663 36.6416 11.9092 36.6416 12.597C36.6416 13.6106 37.8114 14.1536 39.2453 14.7328C39.3963 14.4794 39.8114 13.7554 39.8114 12.8142Z" fill="#26252A"/>
</svg>
